<?xml version="1.0" encoding="utf-8"?>
<!-- Generator: Adobe Illustrator 19.1.0, SVG Export Plug-In . SVG Version: 6.00 Build 0)  -->
<svg version="1.1" xmlns="http://www.w3.org/2000/svg" xmlns:xlink="http://www.w3.org/1999/xlink" x="0px" y="0px"
	 viewBox="0 0 672 240" style="enable-background:new 0 0 672 240;" xml:space="preserve">
<style type="text/css">
	.st0{display:none;}
	.st1{display:inline;}
	.st2{fill:#575E6B;}
	.st3{fill:#4591ED;}
	.st4{fill:#4ED8A0;}
	.st5{display:inline;fill:#4591ED;}
	.st6{font-family:'HelveticaNeue-Bold';}
	.st7{font-size:14px;}
	.st8{display:inline;fill:#4ED8A0;}
	.st9{opacity:0.2;}
	.st10{fill:none;stroke:#4ED8A0;stroke-width:4;stroke-miterlimit:10;}
	.st11{fill:none;stroke:#4591ED;stroke-width:4;stroke-miterlimit:10;}
	.st12{fill:none;stroke:#4ED8A0;stroke-linecap:square;stroke-miterlimit:10;}
	.st13{font-size:9px;}
	.st14{display:inline;opacity:0.1;}
	.st15{fill:#FFFFFF;}
	.st16{display:inline;fill:none;stroke:#4591ED;stroke-width:2;stroke-miterlimit:10;}
	.st17{fill:#FF7D55;}
	.st18{display:inline;fill:#FF7D55;}
	.st19{display:inline;fill:none;stroke:#FF7D55;stroke-width:2;stroke-miterlimit:10;}
</style>
<g id="Anatomy_1_" class="st0">
	<g class="st1">
		<path class="st2" d="M191.7,129.6L183,91.2c-0.5-2.1-2.4-4.2-4.5-4.8l-40.2-12.4c-0.5-0.2-1.1-0.2-1.7-0.2c-1.7,0-3.5,0.7-4.7,1.7
			l-28.8,26.8c-1.6,1.4-2.4,4.2-1.9,6.2l9.4,41c0.5,2.1,2.4,4.2,4.5,4.8l37.6,11.6c0.5,0.2,1.1,0.2,1.7,0.2c1.7,0,3.5-0.7,4.7-1.7
			l30.8-28.6C191.4,134.4,192.2,131.7,191.7,129.6z M142.4,83.2l27.6,8.5c1.1,0.3,1.1,0.8,0,1.1l-14.5,3.3c-1.1,0.3-2.6-0.2-3.4-1
			l-10.1-10.9C141.1,83.3,141.3,82.9,142.4,83.2z M159.6,132.7c0.3,1.1-0.4,1.7-1.5,1.4l-29.8-9.2c-1.1-0.3-1.3-1.2-0.5-2l22.8-21.2
			c0.8-0.8,1.7-0.5,2,0.6L159.6,132.7z M110.5,105.7l24.2-22.5c0.8-0.8,2.1-0.7,2.9,0.1l12.1,13.1c0.8,0.8,0.7,2.1-0.1,2.9
			l-24.2,22.5c-0.8,0.8-2.1,0.7-2.9-0.1l-12.1-13.1C109.6,107.7,109.7,106.4,110.5,105.7z M116.4,141.4l-6.4-28.1
			c-0.3-1.1,0.2-1.3,0.9-0.5l10.1,10.9c0.8,0.8,1.1,2.4,0.8,3.5l-4.4,14.2C117.1,142.5,116.6,142.5,116.4,141.4z M151.8,157.8
			l-31.6-9.7c-1.1-0.3-1.7-1.5-1.4-2.6l5.3-17c0.3-1.1,1.5-1.7,2.6-1.4l31.6,9.7c1.1,0.3,1.7,1.5,1.4,2.6l-5.3,17
			C154,157.5,152.9,158.1,151.8,157.8z M179.8,134.8l-21.1,19.6c-0.8,0.8-1.2,0.5-0.9-0.6l4.4-14.2c0.3-1.1,1.5-2.2,2.6-2.4
			l14.5-3.3C180.4,133.6,180.6,134.1,179.8,134.8z M182.1,130.6l-17.4,4c-1.1,0.3-2.2-0.4-2.5-1.5l-7.4-32.2
			c-0.3-1.1,0.4-2.2,1.5-2.5l17.4-4c1.1-0.3,2.2,0.4,2.5,1.5l7.4,32.2C183.9,129.3,183.2,130.4,182.1,130.6z"/>
		<g>
			<path class="st2" d="M451.7,143.1c-0.1,1,0.3,1.2,0.7,1.2h2.4c0.9,0,1.1-0.8,1.1-1.2l9.8-55.7c0.2-1-0.5-1.2-1-1.1l0,0l-2.6,0.4
				c-0.7,0.1-1.1,0.7-1.1,1.1l0,0l-2.8,16.2c-2.5-0.8-7.2-1.3-9.9-1.3c-10.4,0-15.4,4-17.3,15.1l-3.1,17.5c-0.2,1.1-0.3,2.1-0.3,3
				c0,5,2.8,6.9,8,6.9c5.9,0,12-2.8,16.7-6.8L451.7,143.1z M436.1,141c-2.5,0-3.8-0.7-3.8-3.3c0-0.7,0.1-1.4,0.3-2.4l2.9-16.7
				c1.6-9.1,4.7-11.7,12.2-11.7c3.3,0,6.5,0.5,9.8,1.3l-4.4,24.7C447.8,137.6,441.3,141,436.1,141z"/>
			<path class="st2" d="M493.1,143.1c-0.1,1,0.3,1.2,0.8,1.2h2.4c0.9,0,1.1-0.8,1.1-1.2l0,0l6.7-37.7c-4.8-1.8-10.3-2.7-14.1-2.7
				c-11,0-15.4,4.4-17.3,15.1l-3.1,17.5c-0.2,1.1-0.3,2.1-0.3,3c0,5,2.8,6.9,8,6.9c5.9,0,11.7-2.8,16.4-6.8L493.1,143.1z M477.7,141
				c-2.5,0-3.8-0.7-3.8-3.3c0-0.7,0.1-1.4,0.3-2.4l2.9-16.7c1.6-9,4.5-11.7,12.2-11.7c3.4,0,7.3,0.7,9.6,1.3l-4.4,24.7
				C489.2,137.6,482.8,141,477.7,141z"/>
			<path class="st2" d="M560,143.1c-0.1,1,0.3,1.2,0.7,1.2h2.4c0.9,0,1.1-0.8,1.1-1.2l0,0l6.7-37.7c-4.8-1.8-10.3-2.7-14.1-2.7
				c-11,0-15.4,4.4-17.3,15.1l-3.1,17.5c-0.2,1.1-0.3,2.1-0.3,3c0,5,2.8,6.9,8,6.9c5.9,0,11.7-2.8,16.4-6.8L560,143.1z M544.7,141
				c-2.5,0-3.8-0.7-3.8-3.3c0-0.7,0.1-1.4,0.3-2.4l2.9-16.7c1.6-9,4.5-11.7,12.2-11.7c3.4,0,7.3,0.7,9.6,1.3l-4.4,24.7
				C556.2,137.6,549.8,141,544.7,141z"/>
			<g>
				<rect x="520.6" y="93.5" class="st2" width="0" height="0"/>
				<path class="st2" d="M534.6,106.9L534.6,106.9l0.6-2.7c0.2-0.7-0.2-0.7-0.6-0.7h-11.5l1.6-9.4l0,0c0.2-1-0.5-1.2-1-1.1l0,0
					l-2.6,0.4l0,0c-0.7,0.1-1.1,0.7-1.1,1.1l0,0l-1.6,9h-7.1c-0.2,0-0.8,0.1-0.9,0.7l-0.4,2.6l0,0c0,0.2,0,0.7,0.7,0.7h7l-5.4,30.6
					c-0.1,0.6-0.2,1.1-0.2,1.6c0,3.7,2.6,5.4,6.7,5.4c3.2,0,8.9-0.9,11.8-2.3c0.9-0.5,0.8-1.1,0.6-1.5l0,0l-0.6-1.6
					c-0.1-0.4-0.6-0.3-0.9-0.2v0c-2.8,1.1-4.4,1.7-10.1,1.7c-1.9,0-2.8-0.4-2.8-2c0-0.4,0.1-0.9,0.2-1.5l5.3-30.1h11.4
					C534.3,107.5,534.5,107.3,534.6,106.9z"/>
			</g>
			<path class="st2" d="M424.4,103.5h-11.7c-0.5,0-1.1,0.4-1.4,0.8l-8.3,12.1l-4.9-12.6c-0.3-0.7-0.9-0.9-1.5-0.8l-10.2,1.5
				l8.8,19.4l-16.2,20.5h11c0.7,0,1.8-0.4,2.3-1l7.6-9.2l4.3,9.2c0.2,0.5,0.9,1,1.6,1h10.7l-8.6-18.9L424.4,103.5z"/>
			<path class="st2" d="M374,143.6l7-39.9c0.1-0.8-0.5-0.8-1-0.7l-9.8,1.3c-1.1,0.2-1.4,0.9-1.4,1.3l0,0l-4.2,24.2
				c-3,1.5-8.4,3.9-10.6,3.9c-1.2,0-1.6-0.4-1.6-1.3c0-0.3,0.1-0.8,0.2-1.3l4.8-27.5v0c0.1-0.8-0.5-0.8-0.9-0.7l-9.8,1.4h0
				c-1.1,0.2-1.4,0.9-1.4,1.3l0,0l-4.7,26.6c-0.3,1.7-0.4,3-0.4,4.7c0,5.1,2.1,8.3,7.5,8.3c4.7,0,9.7-1.6,16.1-4.6l0.1,3
				c0,0.2,0.1,0.7,0.5,0.7h9C373.8,144.3,374,143.9,374,143.6z"/>
			<path class="st2" d="M276.9,102.7c-4.7,0-9.7,1.6-16.1,4.6l0.1-3.6c0-0.9-0.7-0.8-1.1-0.7l-7.7,1.3l0,0c-1.3,0.2-1.7,1-1.8,1.4
				l-6.4,36.8l0,0c-0.3,1.7-0.2,1.8,1.2,1.8h8.8c1,0,1.5,0,1.8-1.8L260,118c3.2-1.7,8.4-3.9,10.6-3.9c1.2,0,1.6,0.3,1.6,1.2
				c0,0.3-0.1,0.8-0.2,1.3l-4.5,25.9l0,0c-0.3,1.7-0.2,1.8,1.2,1.8h8.8c1,0,1.5,0,1.8-1.8l4.7-26.8c0.3-2.1,0.4-3.3,0.4-4.7
				C284.4,105.8,282.4,102.7,276.9,102.7z"/>
			<g>
				<path class="st2" d="M243,84.9l-9.8,1.4c-1.1,0.1-1.3,0.9-1.4,1.3L230,97.8c-0.2,1.2-0.1,1.2,1,1.1l9.7-1.3l0,0
					c1-0.1,1.2-0.2,1.4-1.5l0,0l1.9-10.6C244.1,84.8,243.9,84.8,243,84.9z"/>
				<polygon class="st2" points="228.8,104.4 228.8,104.4 228.8,104.4 				"/>
				<path class="st2" d="M233.9,142.5L233.9,142.5l6.9-38.8c0.1-0.8-0.5-0.8-1-0.7l-9.8,1.3l0,0c-1.1,0.2-1.4,0.9-1.4,1.3v0
					l-6.6,37.2c-0.2,1.4,0,1.6,1.3,1.6h8.8C233,144.3,233.5,144.3,233.9,142.5z"/>
			</g>
			<path class="st2" d="M330.8,142.5l9.9-56.4c0.1-0.8-0.3-0.8-0.8-0.7l-11.3,1.9c-5.1-1.4-10.9-2-14.2-2c-10.5,0-14,3.6-15.7,13
				l-0.9,5.4h-4.6c-1.2,0-1.3,0.6-1.4,1.1l0,0l-1.4,7.8c-0.1,0.3,0.1,0.7,0.6,0.7h5.1l-5.5,31.2c-0.6,3.7-1.2,5.9-4.7,9.6h0
				c-0.7,0.7-0.5,0.9,0,1.3l0,0l6.2,5.8l0,0c0.6,0.6,0.9,0.5,1.6-0.2c5.7-5.8,7.5-9.7,8.5-15.1l5.7-32.5h9.1c0.5,0,0.6,0,0.8-0.6
				l0,0l2.1-8.2l0,0c0.2-0.6-0.4-0.8-0.8-0.8h-9.5l1.1-5.9c0.4-2.1,1.3-2.8,3.9-2.8c3.5,0,9.2,0.7,12.4,1.5l-8.1,46.2l0,0
				c-0.3,1.7-0.2,1.8,1.2,1.8h8.8C330,144.3,330.5,144.3,330.8,142.5z"/>
		</g>
	</g>
	<g class="st1">
		<path class="st3" d="M191.9,73.8v92.3H101V73.8H191.9 M192.9,72.8h-1H101h-1v1v92.3v1h1h90.9h1v-1V73.8V72.8L192.9,72.8z"/>
	</g>
	<g class="st1">
		<path class="st4" d="M571,85.3v76.1H221.9V85.3H571 M572,84.3h-1H221.9h-1v1v76.1v1h1H571h1v-1V85.3V84.3L572,84.3z"/>
	</g>
	<text transform="matrix(1 0 0 1 100.9999 63.8341)" class="st5 st6 st7">Logo Symbol</text>
	<text transform="matrix(1 0 0 1 221.9136 63.8341)" class="st8 st6 st7">Logo Type</text>
</g>
<g id="Alignment">
	<g class="st9">
		<path class="st2" d="M191.7,129.6L183,91.2c-0.5-2.1-2.4-4.2-4.5-4.8l-40.2-12.4c-0.5-0.2-1.1-0.2-1.7-0.2c-1.7,0-3.5,0.7-4.7,1.7
			l-28.8,26.8c-1.6,1.4-2.4,4.2-1.9,6.2l9.4,41c0.5,2.1,2.4,4.2,4.5,4.8l37.6,11.6c0.5,0.2,1.1,0.2,1.7,0.2c1.7,0,3.5-0.7,4.7-1.7
			l30.8-28.6C191.4,134.4,192.2,131.7,191.7,129.6z M142.4,83.2l27.6,8.5c1.1,0.3,1.1,0.8,0,1.1l-14.5,3.3c-1.1,0.3-2.6-0.2-3.4-1
			l-10.1-10.9C141.1,83.3,141.3,82.9,142.4,83.2z M159.6,132.7c0.3,1.1-0.4,1.7-1.5,1.4l-29.8-9.2c-1.1-0.3-1.3-1.2-0.5-2l22.8-21.2
			c0.8-0.8,1.7-0.5,2,0.6L159.6,132.7z M110.5,105.7l24.2-22.5c0.8-0.8,2.1-0.7,2.9,0.1l12.1,13.1c0.8,0.8,0.7,2.1-0.1,2.9
			l-24.2,22.5c-0.8,0.8-2.1,0.7-2.9-0.1l-12.1-13.1C109.6,107.7,109.7,106.4,110.5,105.7z M116.4,141.4l-6.4-28.1
			c-0.3-1.1,0.2-1.3,0.9-0.5l10.1,10.9c0.8,0.8,1.1,2.4,0.8,3.5l-4.4,14.2C117.1,142.5,116.6,142.5,116.4,141.4z M151.8,157.8
			l-31.6-9.7c-1.1-0.3-1.7-1.5-1.4-2.6l5.3-17c0.3-1.1,1.5-1.7,2.6-1.4l31.6,9.7c1.1,0.3,1.7,1.5,1.4,2.6l-5.3,17
			C154,157.5,152.9,158.1,151.8,157.8z M179.8,134.8l-21.1,19.6c-0.8,0.8-1.2,0.5-0.9-0.6l4.4-14.2c0.3-1.1,1.5-2.2,2.6-2.4
			l14.5-3.3C180.4,133.6,180.6,134.1,179.8,134.8z M182.1,130.6l-17.4,4c-1.1,0.3-2.2-0.4-2.5-1.5l-7.4-32.2
			c-0.3-1.1,0.4-2.2,1.5-2.5l17.4-4c1.1-0.3,2.2,0.4,2.5,1.5l7.4,32.2C183.9,129.3,183.2,130.4,182.1,130.6z"/>
		<g>
			<path class="st2" d="M451.7,143.1c-0.1,1,0.3,1.2,0.7,1.2h2.4c0.9,0,1.1-0.8,1.1-1.2l9.8-55.7c0.2-1-0.5-1.2-1-1.1l0,0l-2.6,0.4
				c-0.7,0.1-1.1,0.7-1.1,1.1l0,0l-2.8,16.2c-2.5-0.8-7.2-1.3-9.9-1.3c-10.4,0-15.4,4-17.3,15.1l-3.1,17.5c-0.2,1.1-0.3,2.1-0.3,3
				c0,5,2.8,6.9,8,6.9c5.9,0,12-2.8,16.7-6.8L451.7,143.1z M436.1,141c-2.5,0-3.8-0.7-3.8-3.3c0-0.7,0.1-1.4,0.3-2.4l2.9-16.7
				c1.6-9.1,4.7-11.7,12.2-11.7c3.3,0,6.5,0.5,9.8,1.3l-4.4,24.7C447.8,137.6,441.3,141,436.1,141z"/>
			<path class="st2" d="M493.1,143.1c-0.1,1,0.3,1.2,0.8,1.2h2.4c0.9,0,1.1-0.8,1.1-1.2l0,0l6.7-37.7c-4.8-1.8-10.3-2.7-14.1-2.7
				c-11,0-15.4,4.4-17.3,15.1l-3.1,17.5c-0.2,1.1-0.3,2.1-0.3,3c0,5,2.8,6.9,8,6.9c5.9,0,11.7-2.8,16.4-6.8L493.1,143.1z M477.7,141
				c-2.5,0-3.8-0.7-3.8-3.3c0-0.7,0.1-1.4,0.3-2.4l2.9-16.7c1.6-9,4.5-11.7,12.2-11.7c3.4,0,7.3,0.7,9.6,1.3l-4.4,24.7
				C489.2,137.6,482.8,141,477.7,141z"/>
			<path class="st2" d="M560,143.1c-0.1,1,0.3,1.2,0.7,1.2h2.4c0.9,0,1.1-0.8,1.1-1.2l0,0l6.7-37.7c-4.8-1.8-10.3-2.7-14.1-2.7
				c-11,0-15.4,4.4-17.3,15.1l-3.1,17.5c-0.2,1.1-0.3,2.1-0.3,3c0,5,2.8,6.9,8,6.9c5.9,0,11.7-2.8,16.4-6.8L560,143.1z M544.7,141
				c-2.5,0-3.8-0.7-3.8-3.3c0-0.7,0.1-1.4,0.3-2.4l2.9-16.7c1.6-9,4.5-11.7,12.2-11.7c3.4,0,7.3,0.7,9.6,1.3l-4.4,24.7
				C556.2,137.6,549.8,141,544.7,141z"/>
			<g>
				<rect x="520.6" y="93.5" class="st2" width="0" height="0"/>
				<path class="st2" d="M534.6,106.9L534.6,106.9l0.6-2.7c0.2-0.7-0.2-0.7-0.6-0.7h-11.5l1.6-9.4l0,0c0.2-1-0.5-1.2-1-1.1l0,0
					l-2.6,0.4l0,0c-0.7,0.1-1.1,0.7-1.1,1.1l0,0l-1.6,9h-7.1c-0.2,0-0.8,0.1-0.9,0.7l-0.4,2.6l0,0c0,0.2,0,0.7,0.7,0.7h7l-5.4,30.6
					c-0.1,0.6-0.2,1.1-0.2,1.6c0,3.7,2.6,5.4,6.7,5.4c3.2,0,8.9-0.9,11.8-2.3c0.9-0.5,0.8-1.1,0.6-1.5l0,0l-0.6-1.6
					c-0.1-0.4-0.6-0.3-0.9-0.2v0c-2.8,1.1-4.4,1.7-10.1,1.7c-1.9,0-2.8-0.4-2.8-2c0-0.4,0.1-0.9,0.2-1.5l5.3-30.1h11.4
					C534.3,107.5,534.5,107.3,534.6,106.9z"/>
			</g>
			<path class="st2" d="M424.4,103.5h-11.7c-0.5,0-1.1,0.4-1.4,0.8l-8.3,12.1l-4.9-12.6c-0.3-0.7-0.9-0.9-1.5-0.8l-10.2,1.5
				l8.8,19.4l-16.2,20.5h11c0.7,0,1.8-0.4,2.3-1l7.6-9.2l4.3,9.2c0.2,0.5,0.9,1,1.6,1h10.7l-8.6-18.9L424.4,103.5z"/>
			<path class="st2" d="M374,143.6l7-39.9c0.1-0.8-0.5-0.8-1-0.7l-9.8,1.3c-1.1,0.2-1.4,0.9-1.4,1.3l0,0l-4.2,24.2
				c-3,1.5-8.4,3.9-10.6,3.9c-1.2,0-1.6-0.4-1.6-1.3c0-0.3,0.1-0.8,0.2-1.3l4.8-27.5v0c0.1-0.8-0.5-0.8-0.9-0.7l-9.8,1.4h0
				c-1.1,0.2-1.4,0.9-1.4,1.3l0,0l-4.7,26.6c-0.3,1.7-0.4,3-0.4,4.7c0,5.1,2.1,8.3,7.5,8.3c4.7,0,9.7-1.6,16.1-4.6l0.1,3
				c0,0.2,0.1,0.7,0.5,0.7h9C373.8,144.3,374,143.9,374,143.6z"/>
			<path class="st2" d="M276.9,102.7c-4.7,0-9.7,1.6-16.1,4.6l0.1-3.6c0-0.9-0.7-0.8-1.1-0.7l-7.7,1.3l0,0c-1.3,0.2-1.7,1-1.8,1.4
				l-6.4,36.8l0,0c-0.3,1.7-0.2,1.8,1.2,1.8h8.8c1,0,1.5,0,1.8-1.8L260,118c3.2-1.7,8.4-3.9,10.6-3.9c1.2,0,1.6,0.3,1.6,1.2
				c0,0.3-0.1,0.8-0.2,1.3l-4.5,25.9l0,0c-0.3,1.7-0.2,1.8,1.2,1.8h8.8c1,0,1.5,0,1.8-1.8l4.7-26.8c0.3-2.1,0.4-3.3,0.4-4.7
				C284.4,105.8,282.4,102.7,276.9,102.7z"/>
			<g>
				<path class="st2" d="M243,84.9l-9.8,1.4c-1.1,0.1-1.3,0.9-1.4,1.3L230,97.8c-0.2,1.2-0.1,1.2,1,1.1l9.7-1.3l0,0
					c1-0.1,1.2-0.2,1.4-1.5l0,0l1.9-10.6C244.1,84.8,243.9,84.8,243,84.9z"/>
				<polygon class="st2" points="228.8,104.4 228.8,104.4 228.8,104.4 				"/>
				<path class="st2" d="M233.9,142.5L233.9,142.5l6.9-38.8c0.1-0.8-0.5-0.8-1-0.7l-9.8,1.3l0,0c-1.1,0.2-1.4,0.9-1.4,1.3v0
					l-6.6,37.2c-0.2,1.4,0,1.6,1.3,1.6h8.8C233,144.3,233.5,144.3,233.9,142.5z"/>
			</g>
			<path class="st2" d="M330.8,142.5l9.9-56.4c0.1-0.8-0.3-0.8-0.8-0.7l-11.3,1.9c-5.1-1.4-10.9-2-14.2-2c-10.5,0-14,3.6-15.7,13
				l-0.9,5.4h-4.6c-1.2,0-1.3,0.6-1.4,1.1l0,0l-1.4,7.8c-0.1,0.3,0.1,0.7,0.6,0.7h5.1l-5.5,31.2c-0.6,3.7-1.2,5.9-4.7,9.6h0
				c-0.7,0.7-0.5,0.9,0,1.3l0,0l6.2,5.8l0,0c0.6,0.6,0.9,0.5,1.6-0.2c5.7-5.8,7.5-9.7,8.5-15.1l5.7-32.5h9.1c0.5,0,0.6,0,0.8-0.6
				l0,0l2.1-8.2l0,0c0.2-0.6-0.4-0.8-0.8-0.8h-9.5l1.1-5.9c0.4-2.1,1.3-2.8,3.9-2.8c3.5,0,9.2,0.7,12.4,1.5l-8.1,46.2l0,0
				c-0.3,1.7-0.2,1.8,1.2,1.8h8.8C330,144.3,330.5,144.3,330.8,142.5z"/>
		</g>
	</g>
	<g>
		<path class="st2" d="M191.9,73.8v92.3H101V73.8H191.9 M192.9,72.8h-1H101h-1v1v92.3v1h1h90.9h1v-1V73.8V72.8L192.9,72.8z"/>
	</g>
	<g>
		<path class="st2" d="M571,85.3v76.1H221.9V85.3H571 M572,84.3h-1H221.9h-1v1v76.1v1h1H571h1v-1V85.3V84.3L572,84.3z"/>
	</g>
	<line class="st10" x1="586" y1="123.3" x2="206.9" y2="123.3"/>
	<line class="st11" x1="86" y1="120" x2="206.9" y2="120"/>
	<line class="st12" x1="260.7" y1="123.6" x2="260.7" y2="73.8"/>
	<text transform="matrix(1 0 0 1 264.0947 80.3335)" class="st4 st6 st13">57.6%</text>
</g>
<g id="Spacing" class="st0">
	<g class="st14">
		<rect x="32" y="4.8" class="st3" width="608" height="230.3"/>
	</g>
	<g class="st1">
		<path class="st3" d="M640,4.8v230.3H32V4.8H640 M641,3.8h-1H32h-1v1v230.3v1h1h608h1v-1V4.8V3.8L641,3.8z"/>
	</g>
	<g class="st1">
		<rect x="100.5" y="73.3" class="st15" width="91.9" height="93.3"/>
		<path class="st3" d="M191.9,73.8v92.3H101V73.8H191.9 M192.9,72.8h-1H101h-1v1v92.3v1h1h90.9h1v-1V73.8V72.8L192.9,72.8z"/>
	</g>
	<g class="st1">
		<rect x="221.4" y="84.8" class="st15" width="350.1" height="77.1"/>
		<path class="st3" d="M571,85.3v76.1H221.9V85.3H571 M572,84.3h-1H221.9h-1v1v76.1v1h1H571h1v-1V85.3V84.3L572,84.3z"/>
	</g>
	<g class="st1">
		<path class="st2" d="M191.7,129.6L183,91.2c-0.5-2.1-2.4-4.2-4.5-4.8l-40.2-12.4c-0.5-0.2-1.1-0.2-1.7-0.2c-1.7,0-3.5,0.7-4.7,1.7
			l-28.8,26.8c-1.6,1.4-2.4,4.2-1.9,6.2l9.4,41c0.5,2.1,2.4,4.2,4.5,4.8l37.6,11.6c0.5,0.2,1.1,0.2,1.7,0.2c1.7,0,3.5-0.7,4.7-1.7
			l30.8-28.6C191.4,134.4,192.2,131.7,191.7,129.6z M142.4,83.2l27.6,8.5c1.1,0.3,1.1,0.8,0,1.1l-14.5,3.3c-1.1,0.3-2.6-0.2-3.4-1
			l-10.1-10.9C141.1,83.3,141.3,82.9,142.4,83.2z M159.6,132.7c0.3,1.1-0.4,1.7-1.5,1.4l-29.8-9.2c-1.1-0.3-1.3-1.2-0.5-2l22.8-21.2
			c0.8-0.8,1.7-0.5,2,0.6L159.6,132.7z M110.5,105.7l24.2-22.5c0.8-0.8,2.1-0.7,2.9,0.1l12.1,13.1c0.8,0.8,0.7,2.1-0.1,2.9
			l-24.2,22.5c-0.8,0.8-2.1,0.7-2.9-0.1l-12.1-13.1C109.6,107.7,109.7,106.4,110.5,105.7z M116.4,141.4l-6.4-28.1
			c-0.3-1.1,0.2-1.3,0.9-0.5l10.1,10.9c0.8,0.8,1.1,2.4,0.8,3.5l-4.4,14.2C117.1,142.5,116.6,142.5,116.4,141.4z M151.8,157.8
			l-31.6-9.7c-1.1-0.3-1.7-1.5-1.4-2.6l5.3-17c0.3-1.1,1.5-1.7,2.6-1.4l31.6,9.7c1.1,0.3,1.7,1.5,1.4,2.6l-5.3,17
			C154,157.5,152.9,158.1,151.8,157.8z M179.8,134.8l-21.1,19.6c-0.8,0.8-1.2,0.5-0.9-0.6l4.4-14.2c0.3-1.1,1.5-2.2,2.6-2.4
			l14.5-3.3C180.4,133.6,180.6,134.1,179.8,134.8z M182.1,130.6l-17.4,4c-1.1,0.3-2.2-0.4-2.5-1.5l-7.4-32.2
			c-0.3-1.1,0.4-2.2,1.5-2.5l17.4-4c1.1-0.3,2.2,0.4,2.5,1.5l7.4,32.2C183.9,129.3,183.2,130.4,182.1,130.6z"/>
		<g>
			<path class="st2" d="M451.7,143.1c-0.1,1,0.3,1.2,0.7,1.2h2.4c0.9,0,1.1-0.8,1.1-1.2l9.8-55.7c0.2-1-0.5-1.2-1-1.1l0,0l-2.6,0.4
				c-0.7,0.1-1.1,0.7-1.1,1.1l0,0l-2.8,16.2c-2.5-0.8-7.2-1.3-9.9-1.3c-10.4,0-15.4,4-17.3,15.1l-3.1,17.5c-0.2,1.1-0.3,2.1-0.3,3
				c0,5,2.8,6.9,8,6.9c5.9,0,12-2.8,16.7-6.8L451.7,143.1z M436.1,141c-2.5,0-3.8-0.7-3.8-3.3c0-0.7,0.1-1.4,0.3-2.4l2.9-16.7
				c1.6-9.1,4.7-11.7,12.2-11.7c3.3,0,6.5,0.5,9.8,1.3l-4.4,24.7C447.8,137.6,441.3,141,436.1,141z"/>
			<path class="st2" d="M493.1,143.1c-0.1,1,0.3,1.2,0.8,1.2h2.4c0.9,0,1.1-0.8,1.1-1.2l0,0l6.7-37.7c-4.8-1.8-10.3-2.7-14.1-2.7
				c-11,0-15.4,4.4-17.3,15.1l-3.1,17.5c-0.2,1.1-0.3,2.1-0.3,3c0,5,2.8,6.9,8,6.9c5.9,0,11.7-2.8,16.4-6.8L493.1,143.1z M477.7,141
				c-2.5,0-3.8-0.7-3.8-3.3c0-0.7,0.1-1.4,0.3-2.4l2.9-16.7c1.6-9,4.5-11.7,12.2-11.7c3.4,0,7.3,0.7,9.6,1.3l-4.4,24.7
				C489.2,137.6,482.8,141,477.7,141z"/>
			<path class="st2" d="M560,143.1c-0.1,1,0.3,1.2,0.7,1.2h2.4c0.9,0,1.1-0.8,1.1-1.2l0,0l6.7-37.7c-4.8-1.8-10.3-2.7-14.1-2.7
				c-11,0-15.4,4.4-17.3,15.1l-3.1,17.5c-0.2,1.1-0.3,2.1-0.3,3c0,5,2.8,6.9,8,6.9c5.9,0,11.7-2.8,16.4-6.8L560,143.1z M544.7,141
				c-2.5,0-3.8-0.7-3.8-3.3c0-0.7,0.1-1.4,0.3-2.4l2.9-16.7c1.6-9,4.5-11.7,12.2-11.7c3.4,0,7.3,0.7,9.6,1.3l-4.4,24.7
				C556.2,137.6,549.8,141,544.7,141z"/>
			<g>
				<rect x="520.6" y="93.5" class="st2" width="0" height="0"/>
				<path class="st2" d="M534.6,106.9L534.6,106.9l0.6-2.7c0.2-0.7-0.2-0.7-0.6-0.7h-11.5l1.6-9.4l0,0c0.2-1-0.5-1.2-1-1.1l0,0
					l-2.6,0.4l0,0c-0.7,0.1-1.1,0.7-1.1,1.1l0,0l-1.6,9h-7.1c-0.2,0-0.8,0.1-0.9,0.7l-0.4,2.6l0,0c0,0.2,0,0.7,0.7,0.7h7l-5.4,30.6
					c-0.1,0.6-0.2,1.1-0.2,1.6c0,3.7,2.6,5.4,6.7,5.4c3.2,0,8.9-0.9,11.8-2.3c0.9-0.5,0.8-1.1,0.6-1.5l0,0l-0.6-1.6
					c-0.1-0.4-0.6-0.3-0.9-0.2v0c-2.8,1.1-4.4,1.7-10.1,1.7c-1.9,0-2.8-0.4-2.8-2c0-0.4,0.1-0.9,0.2-1.5l5.3-30.1h11.4
					C534.3,107.5,534.5,107.3,534.6,106.9z"/>
			</g>
			<path class="st2" d="M424.4,103.5h-11.7c-0.5,0-1.1,0.4-1.4,0.8l-8.3,12.1l-4.9-12.6c-0.3-0.7-0.9-0.9-1.5-0.8l-10.2,1.5
				l8.8,19.4l-16.2,20.5h11c0.7,0,1.8-0.4,2.3-1l7.6-9.2l4.3,9.2c0.2,0.5,0.9,1,1.6,1h10.7l-8.6-18.9L424.4,103.5z"/>
			<path class="st2" d="M374,143.6l7-39.9c0.1-0.8-0.5-0.8-1-0.7l-9.8,1.3c-1.1,0.2-1.4,0.9-1.4,1.3l0,0l-4.2,24.2
				c-3,1.5-8.4,3.9-10.6,3.9c-1.2,0-1.6-0.4-1.6-1.3c0-0.3,0.1-0.8,0.2-1.3l4.8-27.5v0c0.1-0.8-0.5-0.8-0.9-0.7l-9.8,1.4h0
				c-1.1,0.2-1.4,0.9-1.4,1.3l0,0l-4.7,26.6c-0.3,1.7-0.4,3-0.4,4.7c0,5.1,2.1,8.3,7.5,8.3c4.7,0,9.7-1.6,16.1-4.6l0.1,3
				c0,0.2,0.1,0.7,0.5,0.7h9C373.8,144.3,374,143.9,374,143.6z"/>
			<path class="st2" d="M276.9,102.7c-4.7,0-9.7,1.6-16.1,4.6l0.1-3.6c0-0.9-0.7-0.8-1.1-0.7l-7.7,1.3l0,0c-1.3,0.2-1.7,1-1.8,1.4
				l-6.4,36.8l0,0c-0.3,1.7-0.2,1.8,1.2,1.8h8.8c1,0,1.5,0,1.8-1.8L260,118c3.2-1.7,8.4-3.9,10.6-3.9c1.2,0,1.6,0.3,1.6,1.2
				c0,0.3-0.1,0.8-0.2,1.3l-4.5,25.9l0,0c-0.3,1.7-0.2,1.8,1.2,1.8h8.8c1,0,1.5,0,1.8-1.8l4.7-26.8c0.3-2.1,0.4-3.3,0.4-4.7
				C284.4,105.8,282.4,102.7,276.9,102.7z"/>
			<g>
				<path class="st2" d="M243,84.9l-9.8,1.4c-1.1,0.1-1.3,0.9-1.4,1.3L230,97.8c-0.2,1.2-0.1,1.2,1,1.1l9.7-1.3l0,0
					c1-0.1,1.2-0.2,1.4-1.5l0,0l1.9-10.6C244.1,84.8,243.9,84.8,243,84.9z"/>
				<polygon class="st2" points="228.8,104.4 228.8,104.4 228.8,104.4 				"/>
				<path class="st2" d="M233.9,142.5L233.9,142.5l6.9-38.8c0.1-0.8-0.5-0.8-1-0.7l-9.8,1.3l0,0c-1.1,0.2-1.4,0.9-1.4,1.3v0
					l-6.6,37.2c-0.2,1.4,0,1.6,1.3,1.6h8.8C233,144.3,233.5,144.3,233.9,142.5z"/>
			</g>
			<path class="st2" d="M330.8,142.5l9.9-56.4c0.1-0.8-0.3-0.8-0.8-0.7l-11.3,1.9c-5.1-1.4-10.9-2-14.2-2c-10.5,0-14,3.6-15.7,13
				l-0.9,5.4h-4.6c-1.2,0-1.3,0.6-1.4,1.1l0,0l-1.4,7.8c-0.1,0.3,0.1,0.7,0.6,0.7h5.1l-5.5,31.2c-0.6,3.7-1.2,5.9-4.7,9.6h0
				c-0.7,0.7-0.5,0.9,0,1.3l0,0l6.2,5.8l0,0c0.6,0.6,0.9,0.5,1.6-0.2c5.7-5.8,7.5-9.7,8.5-15.1l5.7-32.5h9.1c0.5,0,0.6,0,0.8-0.6
				l0,0l2.1-8.2l0,0c0.2-0.6-0.4-0.8-0.8-0.8h-9.5l1.1-5.9c0.4-2.1,1.3-2.8,3.9-2.8c3.5,0,9.2,0.7,12.4,1.5l-8.1,46.2l0,0
				c-0.3,1.7-0.2,1.8,1.2,1.8h8.8C330,144.3,330.5,144.3,330.8,142.5z"/>
		</g>
	</g>
	<line class="st16" x1="146.4" y1="73.8" x2="146.4" y2="4.8"/>
	<line class="st16" x1="101" y1="120" x2="32" y2="120"/>
	<line class="st16" x1="146.4" y1="166.2" x2="146.4" y2="235.2"/>
	<line class="st16" x1="571" y1="120" x2="640" y2="120"/>
	<text transform="matrix(1 0 0 1 156.4307 44.3342)" class="st1"><tspan x="0" y="0" class="st3 st6 st7">X = </tspan><tspan x="25.5" y="0" class="st17 st6 st7">0.75L</tspan></text>
	<text transform="matrix(1 0 0 1 207.9307 125.0002)" class="st18 st6 st7">L</text>
	<text transform="matrix(1 0 0 1 156.4307 205.6661)" class="st5 st6 st7">X</text>
	<text transform="matrix(1 0 0 1 61.8309 113.9999)" class="st5 st6 st7">X</text>
	<text transform="matrix(1 0 0 1 600.8312 113.9999)" class="st5 st6 st7">X</text>
	<line class="st19" x1="200" y1="73.8" x2="200" y2="166.2"/>
	<text transform="matrix(1 0 0 1 29.9998 -41.9998)" class="st1"><tspan x="0" y="0" class="st2 st7" style="font-family:'HelveticaNeue';">Always include enough “breathing room” around the logo. Breathing room can be calculated from</tspan><tspan x="0" y="16.8" class="st2 st7" style="font-family:'HelveticaNeue';">the height of the Logo Symbol and is equal on all sides.</tspan></text>
</g>
</svg>
