<?xml version="1.0" encoding="utf-8"?>
<!-- Generator: Adobe Illustrator 19.1.0, SVG Export Plug-In . SVG Version: 6.00 Build 0)  -->
<svg version="1.1" id="Layer_1" xmlns="http://www.w3.org/2000/svg" xmlns:xlink="http://www.w3.org/1999/xlink" x="0px" y="0px"
	 viewBox="-113 36 672 530" style="enable-background:new -113 36 672 530;" xml:space="preserve">
<style type="text/css">
	.st0{fill:#FFFFFF;}
	.st1{fill:#757888;}
</style>
<rect x="-113" y="36" class="st0" width="672" height="530"/>
<path class="st1" d="M347,326.7l-23.9-104.2c-1.2-5.5-6.8-11.4-12-13.1l-110.3-33.7c-1.4-0.2-3-0.7-4.8-0.7c-4.8,0-9.8,1.8-12.8,4.8
	l-78.8,73c-4.3,4.1-6.8,11.4-5.3,17l25.6,111.6c1.2,5.8,6.6,11.4,12,13.1l103,31.7c1.4,0.2,3,0.7,4.8,0.7c4.8,0,9.8-1.8,12.8-4.8
	l84.7-77.9C345.7,339.8,348.2,332.4,347,326.7z M211.6,201l75.4,22.9c3,1,2.8,2.3,0,2.8l-40,9c-3,0.7-7.3-0.5-9.2-2.8l-27.4-29.6
	C208.1,201,208.9,200,211.6,201z M258.8,335.6c0.7,2.8-1,4.8-4.3,3.8l-81.4-24.8c-3-1-3.5-3.5-1.2-5.3l62.6-57.6
	c2.3-2.3,4.8-1.4,5.5,1.4L258.8,335.6z M124.8,261.9l66.1-61.1c2.3-2.3,5.8-2,8,0.2l33.1,35.5c2.3,2.3,2,5.8-0.2,7.8l-66.1,61.1
	c-2.3,2.3-5.8,2-8-0.2l-33.1-35.6C122.2,267.5,122.2,264,124.8,261.9z M140.8,359.3l-17.5-76.4c-0.7-2.8,0.5-3.5,2.5-1.4l27.8,29.6
	c2.3,2.3,3,6.6,2.3,9.5l-12,38.8C142.6,362.3,141.4,362.3,140.8,359.3z M237.5,403.8l-86.4-26.4c-3-1-4.6-4.1-3.7-7.1l14.4-46.2
	c1-2.8,4.3-4.6,7.1-3.8l86.4,26.4c3,1,4.6,4.1,3.7,7.1l-14.4,46.6C243.5,402.8,240.2,404.5,237.5,403.8z M314.3,341.1l-57.7,53.3
	c-2.3,2.3-3.5,1.4-2.5-1.4l12.1-38.8c1-2.8,4.3-6,7.3-6.6l40-9C315.8,337.9,316.4,339.1,314.3,341.1z M320.6,329.9l-47.5,10.8
	c-3,0.7-6-1.2-6.8-4.1l-20-87.5c-0.7-2.8,1.2-6,4.3-6.6l47.5-10.8c3-0.7,6,1.2,6.8,4.1l20,87.5C325.4,326.3,323.6,329,320.6,329.9z"
	/>
</svg>
