<?xml version="1.0" encoding="utf-8"?>
<!-- Generator: Adobe Illustrator 19.1.0, SVG Export Plug-In . SVG Version: 6.00 Build 0)  -->
<svg version="1.1" id="Layer_1" xmlns="http://www.w3.org/2000/svg" xmlns:xlink="http://www.w3.org/1999/xlink" x="0px" y="0px"
	 viewBox="-113 141 672 320" style="enable-background:new -113 141 672 320;" xml:space="preserve">
<style type="text/css">
	.st0{fill:#FFFFFF;}
	.st1{fill:#575E6B;}
	.st2{fill:#4591ED;}
</style>
<rect x="-113" y="141" class="st0" width="672" height="320"/>
<g>
	<g>
		<path class="st1" d="M-43.7,230.3v23.9H-49v-23.9H-43.7z"/>
		<path class="st1" d="M-35,236.9v2.4h0.1c0.6-1,1.4-1.7,2.3-2.2c1-0.5,1.9-0.7,3-0.7c1.3,0,2.3,0.2,3.1,0.5
			c0.8,0.3,1.5,0.8,1.9,1.4c0.5,0.6,0.8,1.4,1,2.2c0.2,0.9,0.3,1.9,0.3,2.9v10.7H-28v-9.8c0-1.4-0.2-2.5-0.7-3.2
			c-0.4-0.7-1.2-1.1-2.4-1.1c-1.3,0-2.2,0.4-2.8,1.2c-0.6,0.8-0.9,2-0.9,3.8v9.1h-4.8v-17.2H-35z"/>
		<path class="st1" d="M-21.5,240.1v-3.2h2.9v-1.3c0-1.5,0.5-2.8,1.4-3.8c1-1,2.4-1.5,4.4-1.5c0.4,0,0.8,0,1.3,0.1
			c0.4,0,0.8,0.1,1.2,0.1v3.5c-0.6-0.1-1.1-0.1-1.7-0.1s-1.1,0.2-1.4,0.5c-0.3,0.3-0.4,0.8-0.4,1.5v1h3.3v3.2h-3.3v14.2h-4.8v-14.2
			H-21.5z"/>
		<path class="st1" d="M-3.6,230.3v23.9h-4.8v-23.9H-3.6z"/>
		<path class="st1" d="M11.9,254.2v-2.4h-0.1c-0.6,1-1.4,1.7-2.3,2.2c-1,0.4-1.9,0.7-3,0.7c-1.3,0-2.3-0.2-3.1-0.5
			c-0.8-0.3-1.5-0.8-1.9-1.4c-0.5-0.6-0.8-1.4-1-2.2s-0.3-1.9-0.3-2.9v-10.8H5v9.8c0,1.4,0.2,2.5,0.7,3.2c0.4,0.7,1.2,1.1,2.4,1.1
			c1.3,0,2.2-0.4,2.8-1.2c0.6-0.8,0.9-2,0.9-3.8v-9.1h4.8v17.3H11.9z"/>
		<path class="st1" d="M18.8,236.9h5.4l3.1,4.5l3-4.5h5.3l-5.7,8.1l6.4,9.2h-5.4l-3.6-5.5l-3.6,5.5h-5.3l6.2-9.1L18.8,236.9z"/>
		<path class="st1" d="M48.9,230.3c1.5,0,3,0.2,4.3,0.7s2.5,1.2,3.5,2.2s1.7,2.2,2.3,3.7c0.5,1.5,0.8,3.2,0.8,5.2
			c0,1.7-0.2,3.4-0.7,4.8c-0.4,1.5-1.1,2.8-2,3.8s-2,1.9-3.4,2.5s-2.9,0.9-4.8,0.9H38.6v-23.8H48.9z M48.5,249.8
			c0.8,0,1.5-0.1,2.2-0.4c0.7-0.2,1.4-0.7,1.9-1.2c0.6-0.6,1-1.3,1.3-2.2s0.5-2,0.5-3.4c0-1.2-0.1-2.3-0.4-3.3s-0.6-1.8-1.2-2.5
			c-0.5-0.7-1.2-1.2-2.1-1.6c-0.9-0.4-2-0.6-3.3-0.6h-3.8v15.1L48.5,249.8L48.5,249.8z"/>
		<path class="st1" d="M74.7,230.3c1.1,0,2.2,0.1,3.1,0.3c0.9,0.2,1.7,0.5,2.4,1s1.2,1.1,1.6,1.8c0.4,0.8,0.6,1.7,0.6,2.8
			c0,1.2-0.3,2.2-0.8,3s-1.4,1.5-2.4,2c1.5,0.4,2.6,1.2,3.3,2.2c0.7,1.1,1.1,2.3,1.1,3.8c0,1.2-0.2,2.3-0.7,3.1
			c-0.5,0.9-1.1,1.6-1.9,2.2c-0.8,0.6-1.7,1-2.7,1.2c-1,0.3-2.1,0.4-3.1,0.4H63.6v-23.8H74.7z M74,240c0.9,0,1.7-0.2,2.3-0.7
			c0.6-0.4,0.9-1.2,0.9-2.2c0-0.6-0.1-1-0.3-1.4c-0.2-0.4-0.5-0.6-0.8-0.8c-0.3-0.2-0.7-0.3-1.2-0.4c-0.4-0.1-0.9-0.1-1.4-0.1h-4.9
			v5.6H74z M74.3,250.1c0.5,0,1-0.1,1.5-0.2c0.5-0.1,0.9-0.3,1.2-0.5c0.4-0.2,0.6-0.6,0.9-1c0.2-0.4,0.3-0.9,0.3-1.5
			c0-1.2-0.3-2.1-1-2.6s-1.6-0.8-2.8-0.8h-5.7v6.6H74.3z"/>
	</g>
	<g>
		<path class="st1" d="M334.6,299.1v-1.6h11.2v1.6h-4.7v12.4h-1.9v-12.4H334.6z"/>
		<path class="st1" d="M352.1,310.9c-0.8,0.6-1.7,0.9-2.9,0.9c-0.8,0-1.5-0.1-2.1-0.4s-1.1-0.6-1.5-1.1s-0.7-1-0.9-1.7
			c-0.2-0.7-0.3-1.4-0.3-2.1c0-0.8,0.1-1.5,0.4-2.1c0.2-0.6,0.6-1.2,1-1.7s0.9-0.8,1.5-1.1s1.2-0.4,1.9-0.4c0.9,0,1.6,0.2,2.2,0.6
			c0.6,0.4,1.1,0.8,1.4,1.4c0.4,0.6,0.6,1.2,0.7,1.9s0.2,1.3,0.2,1.9h-7.6c0,0.4,0,0.9,0.2,1.3c0.1,0.4,0.3,0.8,0.6,1.1
			c0.3,0.3,0.6,0.6,1,0.7c0.4,0.2,0.9,0.3,1.4,0.3c0.7,0,1.3-0.2,1.7-0.5c0.4-0.3,0.7-0.8,0.9-1.5h1.6
			C353.3,309.4,352.8,310.3,352.1,310.9z M351.7,304.4c-0.1-0.4-0.4-0.7-0.6-0.9c-0.3-0.3-0.6-0.5-0.9-0.6c-0.3-0.2-0.7-0.2-1.1-0.2
			s-0.8,0.1-1.2,0.2c-0.3,0.1-0.6,0.4-0.9,0.6c-0.2,0.3-0.4,0.6-0.6,0.9s-0.2,0.7-0.3,1.1h5.8C351.9,305.1,351.8,304.7,351.7,304.4z
			"/>
		<path class="st1" d="M357.2,297.5v14h-1.7v-14H357.2z"/>
		<path class="st1" d="M366.9,310.9c-0.8,0.6-1.7,0.9-2.9,0.9c-0.8,0-1.5-0.1-2.1-0.4s-1.1-0.6-1.5-1.1s-0.7-1-0.9-1.7
			c-0.2-0.7-0.3-1.4-0.3-2.1c0-0.8,0.1-1.5,0.4-2.1c0.2-0.6,0.6-1.2,1-1.7s0.9-0.8,1.5-1.1s1.2-0.4,1.9-0.4c0.9,0,1.6,0.2,2.2,0.6
			c0.6,0.4,1.1,0.8,1.4,1.4c0.4,0.6,0.6,1.2,0.7,1.9s0.2,1.3,0.2,1.9H361c0,0.4,0,0.9,0.2,1.3c0.1,0.4,0.3,0.8,0.6,1.1
			c0.3,0.3,0.6,0.6,1,0.7c0.4,0.2,0.9,0.3,1.4,0.3c0.7,0,1.3-0.2,1.7-0.5c0.4-0.3,0.7-0.8,0.9-1.5h1.6
			C368.1,309.4,367.7,310.3,366.9,310.9z M366.5,304.4c-0.1-0.4-0.4-0.7-0.6-0.9c-0.3-0.3-0.6-0.5-0.9-0.6c-0.3-0.2-0.7-0.2-1.1-0.2
			s-0.8,0.1-1.2,0.2c-0.3,0.1-0.6,0.4-0.9,0.6c-0.2,0.3-0.4,0.6-0.6,0.9s-0.2,0.7-0.3,1.1h5.8C366.7,305.1,366.7,304.7,366.5,304.4z
			"/>
		<path class="st1" d="M377.8,314.4c-0.8,0.8-1.9,1.2-3.6,1.2c-0.5,0-0.9-0.1-1.4-0.2s-0.9-0.3-1.3-0.5s-0.7-0.5-1-0.9
			s-0.4-0.8-0.4-1.4h1.7c0,0.3,0.1,0.6,0.3,0.8c0.2,0.2,0.4,0.4,0.6,0.5c0.3,0.1,0.5,0.2,0.8,0.3s0.6,0.1,0.9,0.1
			c0.5,0,1-0.1,1.4-0.3c0.4-0.2,0.7-0.4,0.9-0.8c0.2-0.3,0.4-0.7,0.5-1.2s0.2-1,0.2-1.5v-0.7l0,0c-0.3,0.6-0.7,1.1-1.3,1.4
			c-0.6,0.3-1.2,0.4-1.8,0.4c-0.8,0-1.4-0.1-2-0.4s-1-0.6-1.4-1.1s-0.7-1-0.9-1.6c-0.2-0.6-0.3-1.3-0.3-2c0-0.6,0.1-1.2,0.2-1.8
			c0.2-0.6,0.4-1.2,0.8-1.7s0.8-0.9,1.4-1.3c0.6-0.3,1.3-0.5,2.2-0.5c0.6,0,1.2,0.1,1.8,0.4c0.5,0.3,1,0.7,1.3,1.3l0,0v-1.4h1.6v9.3
			C379,312.3,378.6,313.5,377.8,314.4z M375.7,309.8c0.4-0.2,0.7-0.5,0.9-0.9c0.2-0.4,0.4-0.8,0.5-1.3s0.2-0.9,0.2-1.4
			c0-0.4-0.1-0.9-0.2-1.3c-0.1-0.4-0.3-0.8-0.5-1.2c-0.2-0.3-0.5-0.6-0.9-0.8c-0.4-0.2-0.8-0.3-1.3-0.3s-1,0.1-1.4,0.3
			c-0.4,0.2-0.7,0.5-0.9,0.8c-0.2,0.3-0.4,0.7-0.5,1.2c-0.1,0.4-0.2,0.9-0.2,1.4s0,0.9,0.1,1.4s0.2,0.9,0.5,1.2
			c0.2,0.4,0.5,0.7,0.9,0.9s0.8,0.3,1.4,0.3C374.9,310.2,375.3,310,375.7,309.8z"/>
		<path class="st1" d="M383,301.4v2.1l0,0c0.4-0.8,0.9-1.4,1.5-1.8c0.6-0.4,1.3-0.6,2.2-0.5v1.8c-0.7,0-1.2,0.1-1.7,0.3
			c-0.5,0.2-0.8,0.5-1.1,0.8c-0.3,0.4-0.5,0.8-0.6,1.3s-0.2,1.1-0.2,1.7v4.5h-1.7v-10.1h1.6V301.4z"/>
		<path class="st1" d="M397,311.5c-0.3,0.2-0.7,0.3-1.2,0.3c-0.4,0-0.8-0.1-1-0.4c-0.3-0.2-0.4-0.6-0.4-1.2c-0.5,0.5-1,0.9-1.6,1.2
			c-0.6,0.3-1.3,0.4-2,0.4c-0.5,0-0.9-0.1-1.3-0.2s-0.8-0.3-1.1-0.5c-0.3-0.2-0.5-0.5-0.7-0.9s-0.3-0.8-0.3-1.3c0-0.6,0.1-1,0.3-1.4
			c0.2-0.4,0.5-0.7,0.8-0.9c0.3-0.2,0.7-0.4,1.1-0.5c0.4-0.1,0.8-0.2,1.3-0.3s0.9-0.2,1.3-0.2s0.8-0.1,1.1-0.2
			c0.3-0.1,0.6-0.2,0.7-0.4c0.2-0.2,0.3-0.4,0.3-0.7c0-0.4-0.1-0.7-0.2-0.9c-0.1-0.2-0.3-0.4-0.5-0.5c-0.2-0.1-0.5-0.2-0.7-0.2
			c-0.3,0-0.5-0.1-0.8-0.1c-0.7,0-1.3,0.1-1.8,0.4s-0.7,0.8-0.8,1.5h-1.7c0-0.6,0.2-1.2,0.4-1.6c0.2-0.4,0.5-0.8,0.9-1
			c0.4-0.3,0.8-0.5,1.3-0.6s1-0.2,1.6-0.2c0.5,0,0.9,0,1.4,0.1c0.5,0.1,0.9,0.2,1.2,0.4c0.3,0.2,0.7,0.5,0.9,0.8s0.3,0.8,0.3,1.4
			v5.2c0,0.4,0,0.7,0.1,0.9c0,0.2,0.2,0.3,0.5,0.3c0.1,0,0.3,0,0.5-0.1v1.4H397z M394.3,306.3c-0.2,0.2-0.5,0.3-0.8,0.3
			c-0.3,0.1-0.7,0.1-1.1,0.2c-0.4,0-0.7,0.1-1.1,0.2c-0.4,0.1-0.7,0.2-1,0.3c-0.3,0.1-0.5,0.3-0.7,0.6c-0.2,0.2-0.3,0.6-0.3,1
			c0,0.3,0.1,0.5,0.2,0.7s0.3,0.3,0.4,0.5c0.2,0.1,0.4,0.2,0.6,0.3c0.2,0.1,0.5,0.1,0.7,0.1c0.5,0,1-0.1,1.4-0.2s0.7-0.3,1-0.6
			c0.2-0.2,0.4-0.5,0.5-0.7c0.1-0.3,0.2-0.5,0.2-0.8L394.3,306.3L394.3,306.3z"/>
		<path class="st1" d="M397.5,302.9v-1.5h1.7v-1.5c0-0.8,0.2-1.4,0.7-1.9c0.5-0.4,1.2-0.6,2.1-0.6c0.2,0,0.3,0,0.5,0
			s0.4,0.1,0.5,0.1v1.4c-0.1-0.1-0.3-0.1-0.5-0.1s-0.3,0-0.5,0c-0.4,0-0.7,0.1-0.9,0.2c-0.2,0.2-0.3,0.5-0.3,0.9v1.4h2v1.5h-2v8.6
			h-1.7v-8.6h-1.6V302.9z"/>
		<path class="st1" d="M339,325.5v14h-3.1v-14H339z"/>
		<path class="st1" d="M344.1,329.4v1.4h0.1c0.4-0.6,0.8-1,1.4-1.3c0.6-0.3,1.1-0.4,1.7-0.4c0.7,0,1.4,0.1,1.8,0.3
			c0.5,0.2,0.9,0.5,1.1,0.8c0.3,0.4,0.5,0.8,0.6,1.3s0.2,1.1,0.2,1.7v6.2h-2.8v-5.7c0-0.8-0.1-1.5-0.4-1.9c-0.3-0.4-0.7-0.6-1.4-0.6
			c-0.8,0-1.3,0.2-1.6,0.7c-0.3,0.4-0.5,1.2-0.5,2.2v5.3h-2.8v-10.1h2.6V329.4z"/>
		<path class="st1" d="M352,331.3v-1.9h1.7v-0.8c0-0.9,0.3-1.6,0.8-2.2c0.6-0.6,1.4-0.9,2.5-0.9c0.2,0,0.5,0,0.7,0s0.5,0,0.7,0v2.1
			c-0.3,0-0.7-0.1-1-0.1c-0.4,0-0.6,0.1-0.8,0.3c-0.2,0.2-0.2,0.5-0.2,0.9v0.6h1.9v1.9h-1.9v8.3h-2.8v-8.3L352,331.3L352,331.3z"/>
		<path class="st1" d="M362.4,325.5v14h-2.8v-14H362.4z"/>
		<path class="st1" d="M371.4,339.5v-1.4h-0.1c-0.4,0.6-0.8,1-1.4,1.3c-0.6,0.3-1.1,0.4-1.7,0.4c-0.7,0-1.4-0.1-1.8-0.3
			c-0.5-0.2-0.9-0.5-1.1-0.8c-0.3-0.4-0.5-0.8-0.6-1.3s-0.2-1.1-0.2-1.7v-6.2h2.8v5.7c0,0.8,0.1,1.5,0.4,1.9
			c0.3,0.4,0.7,0.6,1.4,0.6c0.8,0,1.3-0.2,1.6-0.7c0.3-0.4,0.5-1.2,0.5-2.2v-5.3h2.8v10.1h-2.6V339.5z"/>
		<path class="st1" d="M375.4,329.4h3.2l1.8,2.6l1.8-2.6h3.1l-3.3,4.7l3.7,5.4h-3.2l-2.1-3.2l-2.1,3.2h-3.1l3.6-5.3L375.4,329.4z"/>
		<path class="st1" d="M393,325.5c0.9,0,1.7,0.1,2.5,0.4c0.8,0.3,1.4,0.7,2,1.3c0.6,0.6,1,1.3,1.3,2.2s0.5,1.9,0.5,3
			c0,1-0.1,2-0.4,2.8c-0.3,0.9-0.7,1.6-1.2,2.2s-1.2,1.1-2,1.5s-1.7,0.5-2.8,0.5h-6v-14h6.1V325.5z M392.8,336.9
			c0.4,0,0.9-0.1,1.3-0.2c0.4-0.1,0.8-0.4,1.1-0.7c0.3-0.3,0.6-0.8,0.8-1.3c0.2-0.5,0.3-1.2,0.3-2c0-0.7-0.1-1.3-0.2-1.9
			c-0.1-0.6-0.4-1.1-0.7-1.5c-0.3-0.4-0.7-0.7-1.2-0.9c-0.5-0.2-1.2-0.3-1.9-0.3H390v8.8L392.8,336.9L392.8,336.9z"/>
		<path class="st1" d="M408,325.5c0.7,0,1.3,0.1,1.8,0.2c0.5,0.1,1,0.3,1.4,0.6c0.4,0.3,0.7,0.6,0.9,1.1c0.2,0.4,0.3,1,0.3,1.6
			c0,0.7-0.2,1.3-0.5,1.8s-0.8,0.9-1.4,1.2c0.9,0.2,1.5,0.7,1.9,1.3s0.6,1.4,0.6,2.2c0,0.7-0.1,1.3-0.4,1.8
			c-0.3,0.5-0.6,0.9-1.1,1.3c-0.5,0.3-1,0.6-1.6,0.7c-0.6,0.2-1.2,0.2-1.8,0.2h-6.8v-14H408L408,325.5z M407.7,331.2
			c0.5,0,1-0.1,1.4-0.4s0.5-0.7,0.5-1.3c0-0.3-0.1-0.6-0.2-0.8c-0.1-0.2-0.3-0.4-0.5-0.5c-0.2-0.1-0.4-0.2-0.7-0.2s-0.5-0.1-0.8-0.1
			h-2.9v3.3H407.7z M407.8,337.1c0.3,0,0.6,0,0.9-0.1c0.3-0.1,0.5-0.2,0.7-0.3c0.2-0.1,0.4-0.3,0.5-0.6c0.1-0.2,0.2-0.5,0.2-0.9
			c0-0.7-0.2-1.2-0.6-1.5c-0.4-0.3-0.9-0.5-1.6-0.5h-3.3v3.8h3.2V337.1z"/>
		<path class="st1" d="M344.6,355.5c-0.7-0.5-1.6-0.7-2.5-0.7c-0.8,0-1.5,0.2-2.1,0.5c-0.6,0.3-1.1,0.7-1.5,1.3s-0.7,1.1-0.9,1.8
			c-0.2,0.7-0.3,1.4-0.3,2.1c0,0.8,0.1,1.5,0.3,2.3c0.2,0.7,0.5,1.3,0.9,1.9s0.9,0.9,1.5,1.3c0.6,0.3,1.3,0.5,2.2,0.5
			c0.6,0,1.2-0.1,1.6-0.3c0.5-0.2,0.9-0.5,1.2-0.8c0.3-0.3,0.6-0.8,0.8-1.3c0.2-0.5,0.3-1,0.4-1.6h1.9c-0.2,1.8-0.8,3.1-1.8,4.1
			s-2.4,1.5-4.2,1.5c-1.1,0-2-0.2-2.8-0.6c-0.8-0.4-1.5-0.9-2-1.5c-0.5-0.7-0.9-1.4-1.2-2.3c-0.3-0.9-0.4-1.8-0.4-2.9
			c0-1,0.1-2,0.4-2.9c0.3-0.9,0.7-1.7,1.3-2.3c0.6-0.7,1.2-1.2,2.1-1.6c0.8-0.4,1.8-0.6,2.8-0.6c0.7,0,1.4,0.1,2.1,0.3
			c0.7,0.2,1.2,0.5,1.7,0.9c0.5,0.4,0.9,0.9,1.3,1.4c0.3,0.6,0.6,1.2,0.7,2h-1.9C345.7,356.8,345.3,356,344.6,355.5z"/>
		<path class="st1" d="M351.6,353.6v5.3l0,0c0.1-0.3,0.3-0.6,0.5-0.8s0.5-0.4,0.8-0.5s0.6-0.2,0.9-0.3c0.3-0.1,0.6-0.1,0.9-0.1
			c0.7,0,1.2,0.1,1.7,0.3s0.8,0.4,1.1,0.8c0.3,0.3,0.5,0.7,0.6,1.2s0.2,0.9,0.2,1.5v6.7h-1.7v-6.8c0-0.6-0.2-1.1-0.5-1.5
			s-0.9-0.5-1.5-0.5c-0.5,0-0.9,0.1-1.3,0.2c-0.4,0.2-0.7,0.4-0.9,0.7c-0.2,0.3-0.4,0.6-0.6,1c-0.1,0.4-0.2,0.8-0.2,1.3v5.7H350v-14
			h1.6V353.6z"/>
		<path class="st1" d="M362.3,357.4v2.1l0,0c0.4-0.8,0.9-1.4,1.5-1.8c0.6-0.4,1.3-0.6,2.2-0.5v1.8c-0.7,0-1.2,0.1-1.7,0.3
			c-0.5,0.2-0.8,0.5-1.1,0.8c-0.3,0.4-0.5,0.8-0.6,1.3s-0.2,1.1-0.2,1.7v4.5h-1.7v-10.1h1.6V357.4z"/>
		<path class="st1" d="M366.8,360.4c0.2-0.6,0.5-1.2,0.9-1.7s0.9-0.9,1.5-1.1c0.6-0.3,1.3-0.4,2.1-0.4c0.8,0,1.5,0.1,2.1,0.4
			c0.6,0.3,1.1,0.6,1.5,1.1s0.7,1,0.9,1.7s0.3,1.3,0.3,2.1s-0.1,1.4-0.3,2.1c-0.2,0.6-0.5,1.2-0.9,1.7s-0.9,0.8-1.5,1.1
			c-0.6,0.3-1.3,0.4-2.1,0.4c-0.8,0-1.5-0.1-2.1-0.4c-0.6-0.3-1.1-0.6-1.5-1.1s-0.7-1-0.9-1.7c-0.2-0.6-0.3-1.3-0.3-2.1
			S366.6,361,366.8,360.4z M368.5,364.1c0.2,0.5,0.4,0.9,0.7,1.2c0.3,0.3,0.6,0.6,1,0.7c0.4,0.2,0.8,0.3,1.2,0.3s0.8-0.1,1.2-0.3
			c0.4-0.2,0.7-0.4,1-0.7c0.3-0.3,0.5-0.7,0.7-1.2s0.2-1,0.2-1.6s-0.1-1.2-0.2-1.6c-0.2-0.5-0.4-0.9-0.7-1.2c-0.3-0.3-0.6-0.6-1-0.7
			c-0.4-0.2-0.8-0.3-1.2-0.3s-0.8,0.1-1.2,0.3c-0.4,0.2-0.7,0.4-1,0.7c-0.3,0.3-0.5,0.7-0.7,1.2s-0.2,1-0.2,1.6
			S368.3,363.6,368.5,364.1z"/>
		<path class="st1" d="M379.8,357.4v1.6l0,0c0.7-1.2,1.8-1.8,3.3-1.8c0.7,0,1.2,0.1,1.7,0.3s0.8,0.4,1.1,0.8
			c0.3,0.3,0.5,0.7,0.6,1.2s0.2,0.9,0.2,1.5v6.7H385v-6.8c0-0.6-0.2-1.1-0.5-1.5s-0.9-0.5-1.5-0.5c-0.5,0-0.9,0.1-1.3,0.2
			c-0.4,0.2-0.7,0.4-0.9,0.7c-0.2,0.3-0.4,0.6-0.6,1c-0.1,0.4-0.2,0.8-0.2,1.3v5.7h-1.7v-10.1h1.5V357.4z"/>
		<path class="st1" d="M388.9,360.4c0.2-0.6,0.5-1.2,0.9-1.7s0.9-0.9,1.5-1.1c0.6-0.3,1.3-0.4,2.1-0.4c0.8,0,1.5,0.1,2.1,0.4
			c0.6,0.3,1.1,0.6,1.5,1.1s0.7,1,0.9,1.7s0.3,1.3,0.3,2.1s-0.1,1.4-0.3,2.1c-0.2,0.6-0.5,1.2-0.9,1.7s-0.9,0.8-1.5,1.1
			c-0.6,0.3-1.3,0.4-2.1,0.4c-0.8,0-1.5-0.1-2.1-0.4c-0.6-0.3-1.1-0.6-1.5-1.1s-0.7-1-0.9-1.7c-0.2-0.6-0.3-1.3-0.3-2.1
			S388.7,361,388.9,360.4z M390.6,364.1c0.2,0.5,0.4,0.9,0.7,1.2c0.3,0.3,0.6,0.6,1,0.7c0.4,0.2,0.8,0.3,1.2,0.3s0.8-0.1,1.2-0.3
			c0.4-0.2,0.7-0.4,1-0.7c0.3-0.3,0.5-0.7,0.7-1.2s0.2-1,0.2-1.6s-0.1-1.2-0.2-1.6c-0.2-0.5-0.4-0.9-0.7-1.2c-0.3-0.3-0.6-0.6-1-0.7
			c-0.4-0.2-0.8-0.3-1.2-0.3s-0.8,0.1-1.2,0.3c-0.4,0.2-0.7,0.4-1,0.7c-0.3,0.3-0.5,0.7-0.7,1.2s-0.2,1-0.2,1.6
			S390.4,363.6,390.6,364.1z"/>
		<path class="st1" d="M407.9,370.4c-0.8,0.8-1.9,1.2-3.6,1.2c-0.5,0-0.9-0.1-1.4-0.2s-0.9-0.3-1.3-0.5c-0.4-0.2-0.7-0.5-1-0.9
			s-0.4-0.8-0.4-1.4h1.7c0,0.3,0.1,0.6,0.3,0.8c0.2,0.2,0.4,0.4,0.6,0.5c0.3,0.1,0.5,0.2,0.8,0.3s0.6,0.1,0.9,0.1
			c0.5,0,1-0.1,1.4-0.3c0.4-0.2,0.7-0.4,0.9-0.8c0.2-0.3,0.4-0.7,0.5-1.2s0.2-1,0.2-1.5v-0.7l0,0c-0.3,0.6-0.7,1.1-1.3,1.4
			s-1.2,0.4-1.8,0.4c-0.8,0-1.4-0.1-2-0.4s-1-0.6-1.4-1.1s-0.7-1-0.9-1.6s-0.3-1.3-0.3-2c0-0.6,0.1-1.2,0.2-1.8
			c0.2-0.6,0.4-1.2,0.8-1.7c0.4-0.5,0.8-0.9,1.4-1.3c0.6-0.3,1.3-0.5,2.2-0.5c0.6,0,1.2,0.1,1.8,0.4c0.5,0.3,1,0.7,1.3,1.3l0,0v-1.4
			h1.6v9.3C409.1,368.3,408.7,369.6,407.9,370.4z M405.8,365.8c0.4-0.2,0.7-0.5,0.9-0.9c0.2-0.4,0.4-0.8,0.5-1.3s0.2-0.9,0.2-1.4
			c0-0.4-0.1-0.9-0.2-1.3c-0.1-0.4-0.3-0.8-0.5-1.2c-0.2-0.3-0.5-0.6-0.9-0.8c-0.4-0.2-0.8-0.3-1.3-0.3s-1,0.1-1.4,0.3
			c-0.4,0.2-0.7,0.5-0.9,0.8s-0.4,0.7-0.5,1.2c-0.1,0.4-0.2,0.9-0.2,1.4s0,0.9,0.1,1.4s0.2,0.9,0.5,1.2c0.2,0.4,0.5,0.7,0.9,0.9
			s0.8,0.3,1.4,0.3C405,366.2,405.4,366.1,405.8,365.8z"/>
		<path class="st1" d="M413.1,357.4v2.1l0,0c0.4-0.8,0.9-1.4,1.5-1.8c0.6-0.4,1.3-0.6,2.2-0.5v1.8c-0.7,0-1.2,0.1-1.7,0.3
			c-0.5,0.2-0.8,0.5-1.1,0.8c-0.3,0.4-0.5,0.8-0.6,1.3s-0.2,1.1-0.2,1.7v4.5h-1.7v-10.1h1.6V357.4z"/>
		<path class="st1" d="M427,367.5c-0.3,0.2-0.7,0.3-1.2,0.3c-0.4,0-0.8-0.1-1-0.4c-0.3-0.2-0.4-0.6-0.4-1.2c-0.5,0.5-1,0.9-1.6,1.2
			c-0.6,0.3-1.3,0.4-2,0.4c-0.5,0-0.9-0.1-1.3-0.2s-0.8-0.3-1.1-0.5s-0.5-0.5-0.7-0.9s-0.3-0.8-0.3-1.3c0-0.6,0.1-1,0.3-1.4
			c0.2-0.4,0.5-0.7,0.8-0.9c0.3-0.2,0.7-0.4,1.1-0.5c0.4-0.1,0.8-0.2,1.3-0.3s0.9-0.2,1.3-0.2c0.4,0,0.8-0.1,1.1-0.2
			c0.3-0.1,0.6-0.2,0.7-0.4c0.2-0.2,0.3-0.4,0.3-0.7c0-0.4-0.1-0.7-0.2-0.9c-0.1-0.2-0.3-0.4-0.5-0.5c-0.2-0.1-0.5-0.2-0.7-0.2
			c-0.3,0-0.5-0.1-0.8-0.1c-0.7,0-1.3,0.1-1.8,0.4s-0.7,0.8-0.8,1.5h-1.7c0-0.6,0.2-1.2,0.4-1.6c0.2-0.4,0.5-0.8,0.9-1
			c0.4-0.3,0.8-0.5,1.3-0.6s1-0.2,1.6-0.2c0.5,0,0.9,0,1.4,0.1c0.5,0.1,0.9,0.2,1.2,0.4c0.4,0.2,0.7,0.5,0.9,0.8s0.3,0.8,0.3,1.4
			v5.2c0,0.4,0,0.7,0.1,0.9c0,0.2,0.2,0.3,0.5,0.3c0.1,0,0.3,0,0.5-0.1v1.4H427z M424.3,362.3c-0.2,0.2-0.5,0.3-0.8,0.3
			c-0.3,0.1-0.7,0.1-1.1,0.2c-0.4,0-0.7,0.1-1.1,0.2c-0.4,0.1-0.7,0.2-1,0.3c-0.3,0.1-0.5,0.3-0.7,0.6c-0.2,0.2-0.3,0.6-0.3,1
			c0,0.3,0.1,0.5,0.2,0.7c0.1,0.2,0.3,0.3,0.4,0.5c0.2,0.1,0.4,0.2,0.6,0.3c0.2,0.1,0.5,0.1,0.7,0.1c0.5,0,1-0.1,1.4-0.2
			s0.7-0.3,1-0.6c0.2-0.2,0.4-0.5,0.5-0.7c0.1-0.3,0.2-0.5,0.2-0.8L424.3,362.3L424.3,362.3z"/>
		<path class="st1" d="M427.6,358.9v-1.5h1.7v-1.5c0-0.8,0.2-1.4,0.7-1.9c0.5-0.4,1.2-0.6,2.1-0.6c0.2,0,0.3,0,0.5,0
			s0.4,0.1,0.5,0.1v1.4c-0.1-0.1-0.3-0.1-0.5-0.1s-0.3,0-0.5,0c-0.4,0-0.7,0.1-0.9,0.2c-0.2,0.2-0.3,0.5-0.3,0.9v1.4h2v1.5h-2v8.6
			h-1.7v-8.6h-1.6V358.9z"/>
		<path class="st1" d="M338,381.6v7l7.1-7h2.4l-5.9,5.6l6.1,8.3h-2.3l-5-7.1l-2.3,2.2v4.9h-1.9v-14h1.8V381.6z"/>
		<path class="st1" d="M355.8,397.2c-0.4-0.7-0.7-1.5-1-2.2c-0.3-0.7-0.5-1.5-0.6-2.3s-0.2-1.6-0.2-2.5c0-1.5,0.3-3.1,0.8-4.7
			c0.5-1.6,1.3-3,2.3-4.4h1.3c-0.9,1.5-1.6,3-2,4.4c-0.4,1.5-0.6,3-0.6,4.6c0,1.6,0.2,3.2,0.6,4.7s1.1,3,2,4.5h-1.3
			C356.6,398.7,356.2,397.9,355.8,397.2z"/>
		<path class="st1" d="M361.6,381.6l7.4,11.3l0,0v-11.3h1.8v14h-2l-7.3-11.2l0,0v11.2h-1.8v-14H361.6z"/>
		<path class="st1" d="M382.5,395.5c-0.3,0.2-0.7,0.3-1.2,0.3c-0.4,0-0.8-0.1-1-0.4c-0.3-0.2-0.4-0.6-0.4-1.2
			c-0.5,0.5-1,0.9-1.6,1.2c-0.6,0.3-1.3,0.4-2,0.4c-0.5,0-0.9-0.1-1.3-0.2s-0.8-0.3-1.1-0.5c-0.3-0.2-0.5-0.5-0.7-0.9
			s-0.3-0.8-0.3-1.3c0-0.6,0.1-1,0.3-1.4c0.2-0.4,0.5-0.7,0.8-0.9c0.3-0.2,0.7-0.4,1.1-0.5c0.4-0.1,0.8-0.2,1.3-0.3s0.9-0.2,1.3-0.2
			s0.8-0.1,1.1-0.2c0.3-0.1,0.6-0.2,0.7-0.4c0.2-0.2,0.3-0.4,0.3-0.7c0-0.4-0.1-0.7-0.2-0.9c-0.1-0.2-0.3-0.4-0.5-0.5
			c-0.2-0.1-0.5-0.2-0.7-0.2c-0.3,0-0.5-0.1-0.8-0.1c-0.7,0-1.3,0.1-1.8,0.4s-0.7,0.8-0.8,1.5h-1.7c0-0.6,0.2-1.2,0.4-1.6
			c0.2-0.4,0.5-0.8,0.9-1c0.4-0.3,0.8-0.5,1.3-0.6s1-0.2,1.6-0.2c0.5,0,0.9,0,1.4,0.1c0.5,0.1,0.9,0.2,1.2,0.4
			c0.4,0.2,0.7,0.5,0.9,0.8s0.3,0.8,0.3,1.4v5.2c0,0.4,0,0.7,0.1,0.9c0,0.2,0.2,0.3,0.5,0.3c0.1,0,0.3,0,0.5-0.1v1.4H382.5z
			 M379.8,390.3c-0.2,0.2-0.5,0.3-0.8,0.3c-0.3,0.1-0.7,0.1-1.1,0.2c-0.4,0-0.7,0.1-1.1,0.2c-0.4,0.1-0.7,0.2-1,0.3
			c-0.3,0.1-0.5,0.3-0.7,0.6c-0.2,0.2-0.3,0.6-0.3,1c0,0.3,0.1,0.5,0.2,0.7s0.3,0.3,0.4,0.5c0.2,0.1,0.4,0.2,0.6,0.3
			c0.2,0.1,0.5,0.1,0.7,0.1c0.5,0,1-0.1,1.4-0.2s0.7-0.3,1-0.6c0.2-0.2,0.4-0.5,0.5-0.7c0.1-0.3,0.2-0.5,0.2-0.8L379.8,390.3
			L379.8,390.3z"/>
		<path class="st1" d="M385.6,385.4v1.5l0,0c0.8-1.1,1.8-1.7,3.3-1.7c0.6,0,1.2,0.1,1.7,0.4c0.5,0.3,0.9,0.7,1.1,1.3
			c0.3-0.5,0.8-1,1.3-1.3c0.6-0.3,1.2-0.5,1.8-0.5c0.5,0,1,0.1,1.4,0.2c0.4,0.1,0.8,0.3,1.1,0.5c0.3,0.2,0.5,0.5,0.7,0.9
			s0.2,0.8,0.2,1.3v7.4h-1.7v-6.6c0-0.3,0-0.6-0.1-0.9s-0.1-0.5-0.3-0.7c-0.1-0.2-0.3-0.4-0.6-0.5c-0.3-0.1-0.6-0.2-1-0.2
			c-0.8,0-1.5,0.2-1.9,0.7c-0.5,0.5-0.7,1.1-0.7,1.9v6.3h-1.7v-6.6c0-0.3,0-0.6-0.1-0.9s-0.2-0.5-0.3-0.7s-0.3-0.4-0.6-0.5
			c-0.2-0.1-0.6-0.2-0.9-0.2c-0.5,0-0.9,0.1-1.2,0.3c-0.3,0.2-0.6,0.4-0.8,0.7c-0.2,0.3-0.4,0.6-0.5,0.9c-0.1,0.3-0.1,0.5-0.1,0.7
			v6.3H384v-10.1h1.6V385.4z"/>
		<path class="st1" d="M407.9,394.9c-0.8,0.6-1.7,0.9-2.9,0.9c-0.8,0-1.5-0.1-2.1-0.4s-1.1-0.6-1.5-1.1s-0.7-1-0.9-1.7
			c-0.2-0.7-0.3-1.4-0.3-2.1c0-0.8,0.1-1.5,0.4-2.1c0.2-0.6,0.6-1.2,1-1.7s0.9-0.8,1.5-1.1s1.2-0.4,1.9-0.4c0.9,0,1.6,0.2,2.2,0.6
			c0.6,0.4,1.1,0.8,1.4,1.4c0.4,0.6,0.6,1.2,0.7,1.9c0.1,0.7,0.2,1.3,0.2,1.9h-7.6c0,0.4,0,0.9,0.2,1.3c0.1,0.4,0.3,0.8,0.6,1.1
			c0.3,0.3,0.6,0.6,1,0.7c0.4,0.2,0.9,0.3,1.4,0.3c0.7,0,1.3-0.2,1.7-0.5c0.4-0.3,0.7-0.8,0.9-1.5h1.6
			C409.1,393.5,408.6,394.3,407.9,394.9z M407.5,388.4c-0.1-0.4-0.4-0.7-0.6-0.9c-0.3-0.3-0.6-0.5-0.9-0.6c-0.3-0.2-0.7-0.2-1.1-0.2
			c-0.4,0-0.8,0.1-1.2,0.2c-0.3,0.1-0.6,0.4-0.9,0.6c-0.2,0.3-0.4,0.6-0.6,0.9s-0.2,0.7-0.3,1.1h5.8
			C407.7,389.1,407.6,388.8,407.5,388.4z"/>
		<path class="st1" d="M415.4,383.1v-1.6h11.2v1.6H422v12.4h-1.9v-12.4H415.4z"/>
		<path class="st1" d="M433.2,381.6c0.3,0,0.6,0,1,0c0.3,0,0.7,0,1,0.1c0.3,0,0.7,0.1,0.9,0.1c0.3,0.1,0.5,0.2,0.8,0.3
			c0.5,0.3,0.8,0.7,1.2,1.1c0.3,0.5,0.5,1.1,0.5,1.8s-0.2,1.4-0.5,1.9c-0.4,0.5-0.9,0.9-1.5,1.2l0,0c0.9,0.2,1.5,0.6,2,1.2
			s0.7,1.3,0.7,2.2c0,0.5-0.1,1-0.3,1.5s-0.5,0.9-0.8,1.3c-0.4,0.4-0.8,0.7-1.3,0.9s-1.1,0.3-1.8,0.3h-6.8v-14h4.9V381.6z
			 M433.7,387.6c1.1,0,1.8-0.2,2.3-0.6c0.5-0.4,0.7-0.9,0.7-1.7c0-0.5-0.1-0.9-0.2-1.2c-0.2-0.3-0.4-0.5-0.6-0.7
			c-0.3-0.2-0.6-0.3-0.9-0.3c-0.4,0-0.7-0.1-1.1-0.1H430v4.4h3.7V387.6z M434.7,394c0.8,0,1.5-0.2,1.9-0.7s0.7-1.1,0.7-1.8
			c0-0.5-0.1-0.8-0.3-1.1s-0.4-0.5-0.7-0.7c-0.3-0.2-0.6-0.3-1-0.4c-0.4-0.1-0.7-0.1-1.1-0.1H430v4.8H434.7z"/>
		<path class="st1" d="M446.4,381.6c2.2,0,3.8,0.5,5,1.6s1.7,2.8,1.7,5c0,1.2-0.1,2.2-0.4,3.1c-0.3,0.9-0.7,1.7-1.2,2.3
			c-0.5,0.6-1.2,1.1-2.1,1.4c-0.8,0.3-1.9,0.5-3,0.5h-4.8v-14h4.8V381.6z M446.5,394c0.2,0,0.5,0,0.8,0s0.6-0.1,1-0.2
			c0.4-0.1,0.7-0.3,1-0.5c0.3-0.2,0.7-0.6,0.9-1c0.3-0.4,0.5-0.9,0.7-1.5c0.2-0.6,0.3-1.3,0.3-2.2c0-0.8-0.1-1.6-0.2-2.2
			c-0.2-0.7-0.4-1.2-0.8-1.7c-0.4-0.5-0.9-0.8-1.4-1.1c-0.6-0.2-1.3-0.4-2.2-0.4h-3.1V394H446.5z"/>
		<path class="st1" d="M455.6,395c0.4-1.5,0.6-3,0.6-4.6s-0.2-3.2-0.6-4.7c-0.4-1.5-1.1-3-2-4.5h1.3c0.5,0.7,0.9,1.5,1.3,2.2
			c0.4,0.7,0.7,1.5,1,2.2c0.3,0.7,0.5,1.5,0.6,2.3s0.2,1.6,0.2,2.5c0,1.5-0.3,3.1-0.8,4.6s-1.3,3-2.3,4.4h-1.3
			C454.6,397.9,455.2,396.5,455.6,395z"/>
	</g>
	<g>
		<path class="st1" d="M342.2,230.3v23.9h-5.3v-23.9H342.2z"/>
		<path class="st1" d="M350.8,236.9v2.4h0.1c0.6-1,1.4-1.7,2.3-2.2c1-0.5,1.9-0.7,3-0.7c1.3,0,2.3,0.2,3.1,0.5s1.5,0.8,1.9,1.4
			c0.5,0.6,0.8,1.4,1,2.2c0.2,0.9,0.3,1.9,0.3,2.9v10.7h-4.8v-9.8c0-1.4-0.2-2.5-0.7-3.2c-0.4-0.7-1.2-1.1-2.4-1.1
			c-1.3,0-2.2,0.4-2.8,1.2c-0.6,0.8-0.9,2-0.9,3.8v9.1h-4.8v-17.2H350.8z"/>
		<path class="st1" d="M364.4,240.1v-3.2h2.9v-1.3c0-1.5,0.5-2.8,1.4-3.8c1-1,2.4-1.5,4.4-1.5c0.4,0,0.8,0,1.3,0.1
			c0.4,0,0.8,0.1,1.2,0.1v3.5c-0.6-0.1-1.1-0.1-1.7-0.1s-1.1,0.2-1.4,0.5c-0.3,0.3-0.4,0.8-0.4,1.5v1h3.3v3.2H372v14.2h-4.8v-14.2
			H364.4z"/>
		<path class="st1" d="M382.2,230.3v23.9h-4.8v-23.9H382.2z"/>
		<path class="st1" d="M397.7,254.2v-2.4h-0.1c-0.6,1-1.4,1.7-2.3,2.2c-1,0.4-1.9,0.7-3,0.7c-1.3,0-2.3-0.2-3.1-0.5
			c-0.8-0.3-1.5-0.8-1.9-1.4c-0.5-0.6-0.8-1.4-1-2.2c-0.2-0.9-0.3-1.9-0.3-2.9v-10.8h4.8v9.8c0,1.4,0.2,2.5,0.7,3.2
			c0.4,0.7,1.2,1.1,2.4,1.1c1.3,0,2.2-0.4,2.8-1.2s0.9-2,0.9-3.8v-9.1h4.8v17.3H397.7z"/>
		<path class="st1" d="M404.6,236.9h5.4l3.1,4.5l3-4.5h5.3l-5.7,8.1l6.4,9.2h-5.4l-3.6-5.5l-3.6,5.5h-5.3l6.2-9.1L404.6,236.9z"/>
		<path class="st1" d="M434.7,230.3c1.5,0,3,0.2,4.3,0.7s2.5,1.2,3.5,2.2s1.7,2.2,2.3,3.7c0.5,1.5,0.8,3.2,0.8,5.2
			c0,1.7-0.2,3.4-0.7,4.8s-1.1,2.8-2,3.8c-0.9,1.1-2,1.9-3.4,2.5s-2.9,0.9-4.8,0.9h-10.3v-23.8H434.7z M434.4,249.8
			c0.8,0,1.5-0.1,2.2-0.4c0.7-0.2,1.4-0.7,1.9-1.2c0.6-0.6,1-1.3,1.3-2.2s0.5-2,0.5-3.4c0-1.2-0.1-2.3-0.4-3.3
			c-0.2-1-0.6-1.8-1.2-2.5c-0.5-0.7-1.2-1.2-2.1-1.6c-0.9-0.4-2-0.6-3.3-0.6h-3.8v15.1L434.4,249.8L434.4,249.8z"/>
		<path class="st1" d="M448.6,242.2c0.1-1.1,0.3-2,0.8-2.8s1.1-1.3,1.9-1.8c0.8-0.4,1.6-0.8,2.6-1s1.9-0.3,2.9-0.3
			c0.9,0,1.8,0.1,2.6,0.2c0.9,0.1,1.7,0.4,2.4,0.7c0.7,0.4,1.3,0.9,1.8,1.5s0.7,1.5,0.7,2.5v9c0,0.8,0,1.5,0.1,2.2s0.2,1.3,0.5,1.6
			h-4.8c-0.1-0.3-0.2-0.5-0.2-0.8c-0.1-0.3-0.1-0.6-0.1-0.9c-0.8,0.8-1.7,1.3-2.7,1.6c-1,0.3-2.1,0.5-3.2,0.5
			c-0.8,0-1.6-0.1-2.3-0.3c-0.7-0.2-1.3-0.5-1.9-0.9c-0.5-0.4-1-1-1.3-1.6c-0.3-0.6-0.5-1.4-0.5-2.3c0-1,0.2-1.8,0.5-2.4
			s0.8-1.1,1.3-1.5s1.2-0.7,1.9-0.9c0.7-0.2,1.4-0.3,2.1-0.5c0.7-0.1,1.4-0.2,2.1-0.3c0.7-0.1,1.3-0.2,1.8-0.3s1-0.3,1.3-0.6
			c0.3-0.3,0.5-0.6,0.4-1.1c0-0.5-0.1-0.9-0.3-1.2c-0.2-0.3-0.4-0.5-0.7-0.7c-0.3-0.2-0.6-0.3-1-0.3c-0.4-0.1-0.8-0.1-1.2-0.1
			c-0.9,0-1.7,0.2-2.2,0.6c-0.5,0.4-0.8,1.1-0.9,2h-4.4V242.2z M459.6,245.7c-0.2,0.2-0.5,0.3-0.8,0.4c-0.3,0.1-0.6,0.2-1,0.3
			s-0.7,0.1-1.1,0.2c-0.4,0-0.8,0.1-1.1,0.2c-0.4,0.1-0.7,0.2-1.1,0.3c-0.3,0.1-0.6,0.3-0.9,0.5c-0.3,0.2-0.5,0.4-0.6,0.7
			c-0.2,0.3-0.2,0.7-0.2,1.1s0.1,0.8,0.2,1.1c0.2,0.3,0.4,0.5,0.6,0.7c0.3,0.2,0.6,0.3,0.9,0.4c0.4,0.1,0.7,0.1,1.1,0.1
			c0.9,0,1.7-0.2,2.2-0.5c0.5-0.3,0.9-0.7,1.1-1.1s0.4-0.9,0.5-1.3s0.1-0.8,0.1-1.1L459.6,245.7L459.6,245.7z"/>
		<path class="st1" d="M477.5,236.9v3.2H474v8.6c0,0.8,0.1,1.3,0.4,1.6c0.3,0.3,0.8,0.4,1.6,0.4c0.3,0,0.5,0,0.8,0
			c0.2,0,0.5-0.1,0.7-0.1v3.7c-0.4,0.1-0.9,0.1-1.3,0.1c-0.5,0-1,0-1.4,0c-0.7,0-1.4-0.1-2.1-0.2c-0.7-0.1-1.2-0.3-1.7-0.6
			c-0.5-0.3-0.9-0.7-1.2-1.2s-0.4-1.2-0.4-2.1v-10.2h-2.9v-3.2h2.9v-5.2h4.8v5.2H477.5z"/>
		<path class="st1" d="M479.6,242.2c0.1-1.1,0.3-2,0.8-2.8s1.1-1.3,1.9-1.8c0.8-0.4,1.6-0.8,2.6-1s1.9-0.3,2.9-0.3
			c0.9,0,1.8,0.1,2.6,0.2c0.9,0.1,1.7,0.4,2.4,0.7c0.7,0.4,1.3,0.9,1.8,1.5s0.7,1.5,0.7,2.5v9c0,0.8,0,1.5,0.1,2.2s0.2,1.3,0.5,1.6
			h-4.8c-0.1-0.3-0.2-0.5-0.2-0.8c-0.1-0.3-0.1-0.6-0.1-0.9c-0.8,0.8-1.7,1.3-2.7,1.6c-1,0.3-2.1,0.5-3.2,0.5
			c-0.8,0-1.6-0.1-2.3-0.3c-0.7-0.2-1.3-0.5-1.9-0.9c-0.5-0.4-1-1-1.3-1.6c-0.3-0.6-0.5-1.4-0.5-2.3c0-1,0.2-1.8,0.5-2.4
			s0.8-1.1,1.3-1.5s1.2-0.7,1.9-0.9c0.7-0.2,1.4-0.3,2.1-0.5c0.7-0.1,1.4-0.2,2.1-0.3c0.7-0.1,1.3-0.2,1.8-0.3s1-0.3,1.3-0.6
			c0.3-0.3,0.5-0.6,0.4-1.1c0-0.5-0.1-0.9-0.3-1.2c-0.2-0.3-0.4-0.5-0.7-0.7c-0.3-0.2-0.6-0.3-1-0.3c-0.4-0.1-0.8-0.1-1.2-0.1
			c-0.9,0-1.7,0.2-2.2,0.6c-0.5,0.4-0.8,1.1-0.9,2h-4.4V242.2z M490.6,245.7c-0.2,0.2-0.5,0.3-0.8,0.4c-0.3,0.1-0.6,0.2-1,0.3
			s-0.7,0.1-1.1,0.2c-0.4,0-0.8,0.1-1.1,0.2c-0.4,0.1-0.7,0.2-1.1,0.3c-0.3,0.1-0.6,0.3-0.9,0.5c-0.3,0.2-0.5,0.4-0.6,0.7
			c-0.2,0.3-0.2,0.7-0.2,1.1s0.1,0.8,0.2,1.1c0.2,0.3,0.4,0.5,0.6,0.7c0.3,0.2,0.6,0.3,0.9,0.4c0.4,0.1,0.7,0.1,1.1,0.1
			c0.9,0,1.7-0.2,2.2-0.5c0.5-0.3,0.9-0.7,1.1-1.1s0.4-0.9,0.5-1.3s0.1-0.8,0.1-1.1L490.6,245.7L490.6,245.7z"/>
	</g>
	<g>
		<path class="st2" d="M-41.1,201.9c-0.7-0.5-1.6-0.8-2.6-0.8c-0.9,0-1.6,0.2-2.2,0.5c-0.6,0.3-1.1,0.8-1.5,1.3s-0.7,1.2-0.9,1.9
			c-0.2,0.7-0.3,1.4-0.3,2.2c0,0.8,0.1,1.6,0.3,2.3c0.2,0.7,0.5,1.4,0.9,1.9s0.9,1,1.5,1.3c0.6,0.3,1.3,0.5,2.2,0.5
			c0.6,0,1.2-0.1,1.7-0.3c0.5-0.2,0.9-0.5,1.3-0.9s0.6-0.8,0.8-1.3s0.3-1.1,0.4-1.6h1.9c-0.2,1.8-0.8,3.2-1.9,4.2s-2.5,1.5-4.3,1.5
			c-1.1,0-2.1-0.2-2.9-0.6s-1.5-0.9-2.1-1.6c-0.6-0.7-1-1.5-1.2-2.4s-0.4-1.9-0.4-2.9s0.1-2,0.4-2.9c0.3-0.9,0.7-1.7,1.3-2.4
			c0.6-0.7,1.3-1.2,2.1-1.6c0.8-0.4,1.8-0.6,2.9-0.6c0.7,0,1.5,0.1,2.1,0.3c0.6,0.2,1.3,0.5,1.8,0.9c0.5,0.4,1,0.9,1.3,1.5
			c0.3,0.6,0.6,1.3,0.7,2h-1.9C-39.9,203.2-40.3,202.4-41.1,201.9z"/>
		<path class="st2" d="M-24.9,213.1c-1,0.9-2.4,1.4-4.2,1.4c-1.8,0-3.3-0.4-4.3-1.3s-1.6-2.3-1.6-4.2v-9.1h2v9.1
			c0,1.3,0.3,2.3,1,2.9c0.7,0.6,1.7,1,2.9,1c1.2,0,2.1-0.3,2.8-1c0.6-0.7,1-1.6,1-2.9v-9.1h1.9v9.1
			C-23.4,210.9-23.9,212.2-24.9,213.1z"/>
		<path class="st2" d="M-13.3,199.9c1.4,0,2.4,0.3,3.2,1c0.8,0.7,1.2,1.6,1.2,2.7c0,0.9-0.2,1.6-0.6,2.3c-0.4,0.7-1,1.1-1.9,1.3l0,0
			c0.4,0.1,0.8,0.2,1,0.4s0.5,0.4,0.6,0.7c0.2,0.3,0.3,0.6,0.3,0.9c0.1,0.3,0.1,0.7,0.2,1c0,0.3,0,0.7,0.1,1.1s0,0.7,0.1,1.1
			c0.1,0.4,0.1,0.7,0.2,1c0.1,0.3,0.3,0.6,0.5,0.8h-2.1c-0.1-0.1-0.2-0.3-0.3-0.6c0-0.3-0.1-0.5-0.1-0.9c0-0.4,0-0.7,0-1
			c0-0.3-0.1-0.7-0.1-1.1c-0.1-0.3-0.1-0.7-0.2-1s-0.2-0.6-0.4-0.8s-0.4-0.4-0.7-0.6c-0.3-0.1-0.7-0.2-1.1-0.2H-18v6.1h-2v-14.2
			H-13.3z M-12.9,206.4c0.4-0.1,0.8-0.2,1.1-0.4c0.3-0.2,0.5-0.5,0.7-0.8s0.3-0.8,0.3-1.3c0-0.7-0.2-1.3-0.6-1.8s-1-0.7-1.9-0.7H-18
			v5h4C-13.7,206.5-13.3,206.5-12.9,206.4z"/>
		<path class="st2" d="M0.8,199.9c1.4,0,2.4,0.3,3.2,1c0.8,0.7,1.2,1.6,1.2,2.7c0,0.9-0.2,1.6-0.6,2.3c-0.4,0.7-1,1.1-1.9,1.3l0,0
			c0.4,0.1,0.8,0.2,1,0.4s0.5,0.4,0.6,0.7c0.2,0.3,0.3,0.6,0.3,0.9c0.1,0.3,0.1,0.7,0.2,1c0,0.3,0,0.7,0.1,1.1s0,0.7,0.1,1.1
			c0.1,0.4,0.1,0.7,0.2,1c0.1,0.3,0.3,0.6,0.5,0.8H3.6c-0.1-0.1-0.2-0.3-0.3-0.6c0-0.3-0.1-0.5-0.1-0.9c0-0.4,0-0.7,0-1
			c0-0.3-0.1-0.7-0.1-1.1c-0.1-0.3-0.1-0.7-0.2-1s-0.2-0.6-0.4-0.8s-0.4-0.4-0.7-0.6c-0.3-0.1-0.7-0.2-1.1-0.2H-4v6.1h-1.9v-14.2
			H0.8z M1.2,206.4c0.4-0.1,0.8-0.2,1.1-0.4c0.3-0.2,0.5-0.5,0.7-0.8s0.3-0.8,0.3-1.3c0-0.7-0.2-1.3-0.6-1.8s-1-0.7-1.9-0.7H-4v5h4
			C0.4,206.5,0.8,206.5,1.2,206.4z"/>
		<path class="st2" d="M18.1,199.9v1.6h-8v4.5h7.4v1.6h-7.4v4.9h8v1.6H8.2v-14.2H18.1z"/>
		<path class="st2" d="M22.8,199.9l7.5,11.6l0,0v-11.6h1.8v14.3H30l-7.5-11.5l0,0v11.5h-1.8v-14.3H22.8z"/>
		<path class="st2" d="M34.2,201.5v-1.6h11.4v1.6h-4.8v12.7h-1.9v-12.7H34.2z"/>
	</g>
	<g>
		<path class="st2" d="M345.5,199.9v1.6H338v4.5h6.6v1.6H338v6.5h-1.9v-14.2H345.5z"/>
		<path class="st2" d="M358,213.1c-1,0.9-2.4,1.4-4.2,1.4c-1.8,0-3.3-0.4-4.3-1.3s-1.6-2.3-1.6-4.2v-9.1h1.9v9.1
			c0,1.3,0.3,2.3,1,2.9c0.7,0.7,1.7,1,2.9,1c1.2,0,2.1-0.3,2.8-1c0.7-0.7,1-1.6,1-2.9v-9.1h1.9v9.1
			C359.4,210.9,358.9,212.2,358,213.1z"/>
		<path class="st2" d="M361.4,201.5v-1.6h11.4v1.6H368v12.7h-1.9v-12.7H361.4z"/>
		<path class="st2" d="M384.7,213.1c-1,0.9-2.4,1.4-4.2,1.4c-1.8,0-3.3-0.4-4.3-1.3s-1.6-2.3-1.6-4.2v-9.1h1.9v9.1
			c0,1.3,0.3,2.3,1,2.9c0.7,0.7,1.7,1,2.9,1c1.2,0,2.1-0.3,2.8-1c0.7-0.7,1-1.6,1-2.9v-9.1h1.9v9.1
			C386.2,210.9,385.7,212.2,384.7,213.1z"/>
		<path class="st2" d="M396.3,199.9c1.4,0,2.4,0.3,3.2,1c0.8,0.7,1.2,1.6,1.2,2.7c0,0.9-0.2,1.6-0.6,2.3c-0.4,0.7-1,1.1-1.9,1.3l0,0
			c0.4,0.1,0.8,0.2,1,0.4c0.3,0.2,0.5,0.4,0.6,0.7c0.2,0.3,0.3,0.6,0.3,0.9c0.1,0.3,0.1,0.7,0.2,1c0,0.3,0,0.7,0.1,1.1
			c0,0.4,0,0.7,0.1,1.1c0.1,0.3,0.1,0.7,0.2,1c0.1,0.3,0.2,0.6,0.5,0.8h-2.1c-0.1-0.1-0.2-0.3-0.3-0.6c0-0.3-0.1-0.5-0.1-0.9
			c0-0.3,0-0.7,0-1c0-0.3-0.1-0.7-0.1-1.1c-0.1-0.3-0.1-0.7-0.2-1s-0.2-0.6-0.4-0.8c-0.2-0.2-0.4-0.4-0.7-0.6
			c-0.3-0.1-0.7-0.2-1.1-0.2h-4.6v6.1h-1.9v-14.2H396.3z M396.7,206.4c0.4-0.1,0.8-0.2,1.1-0.4c0.3-0.2,0.5-0.5,0.7-0.8
			s0.3-0.8,0.3-1.3c0-0.7-0.2-1.3-0.6-1.8s-1-0.7-1.9-0.7h-4.7v5h4C395.9,206.5,396.3,206.5,396.7,206.4z"/>
		<path class="st2" d="M413.6,199.9v1.6h-8v4.5h7.4v1.6h-7.4v4.9h8v1.6h-9.9v-14.2H413.6z"/>
	</g>
	<g>
		<path class="st2" d="M309.8,333.5c-40.5-1-72.3-23.7-103-45.7c-31.1-22.2-60.5-43.2-98.3-43.7v-1c38.1,0.5,69,22.6,98.8,43.9
			c30.6,21.9,62.2,44.4,102.4,45.5L309.8,333.5z"/>
		<g>
			<circle class="st2" cx="108.6" cy="243.7" r="1.5"/>
		</g>
		<g>
			<polygon class="st2" points="309.2,335 312.7,333.1 309.3,331 			"/>
		</g>
	</g>
</g>
</svg>
