<?xml version="1.0" encoding="utf-8"?>
<!-- Generator: Adobe Illustrator 19.1.0, SVG Export Plug-In . SVG Version: 6.00 Build 0)  -->
<svg version="1.1" id="Layer_1" xmlns="http://www.w3.org/2000/svg" xmlns:xlink="http://www.w3.org/1999/xlink" x="0px" y="0px"
	 viewBox="150 166 900 470" style="enable-background:new 150 166 900 470;" xml:space="preserve">
<style type="text/css">
	.st0{fill:#FFFFFF;}
	.st1{fill:#757888;}
</style>
<rect x="150" y="166" class="st0" width="900" height="470"/>
<g>
	<path class="st1" d="M412.2,413.3l-10.9-47.6c-0.4-1.9-2.4-4-4.3-4.6l-49.9-15.4c-1.9-0.6-4.7,0-6.1,1.4l-35.8,33.2
		c-1.5,1.4-2.3,4.1-1.9,6l11.6,50.9c0.4,1.9,2.4,4,4.3,4.6l46.6,14.4c1.9,0.6,4.7,0,6.1-1.4l38.3-35.5
		C411.8,418,412.7,415.3,412.2,413.3z M352.9,356.6l33.3,10.2c1.3,0.4,1.3,1,0,1.3l-17.5,4c-1.3,0.3-3.2-0.3-4.1-1.3l-12.3-13.2
		C351.3,356.7,351.6,356.2,352.9,356.6z M365.3,379.7l8.4,36.7c0.3,1.3-0.5,2.1-1.8,1.7l-36-11.1c-1.3-0.4-1.5-1.5-0.6-2.4
		l27.6-25.6C363.9,378.1,365,378.4,365.3,379.7z M314.5,383.7l29.2-27.1c1-0.9,2.6-0.9,3.5,0.1l14.7,15.8c0.9,1,0.9,2.6-0.1,3.5
		l-29.2,27.1c-1,0.9-2.6,0.9-3.5-0.1l-14.7-15.8C313.4,386.2,313.5,384.6,314.5,383.7z M321.6,426.9l-7.8-33.9
		c-0.3-1.3,0.2-1.6,1.1-0.6l12.3,13.2c0.9,1,1.4,2.9,1,4.2l-5.3,17.2C322.4,428.2,321.9,428.2,321.6,426.9z M367.3,445
		c-0.4,1.3-1.8,2-3.1,1.6l-38.1-11.7c-1.3-0.4-2-1.8-1.6-3.1l6.3-20.6c0.4-1.3,1.8-2,3.1-1.6l38.1,11.7c1.3,0.4,2,1.8,1.6,3.1
		L367.3,445z M398.1,418.9l-25.5,23.7c-1,0.9-1.5,0.6-1.1-0.7l5.3-17.2c0.4-1.3,1.8-2.6,3.1-2.9l17.5-4
		C398.8,417.5,399.1,418,398.1,418.9z M400.9,413.8l-21,4.8c-1.3,0.3-2.7-0.5-3-1.9l-8.9-38.8c-0.3-1.3,0.5-2.7,1.9-3l21-4.8
		c1.3-0.3,2.7,0.5,3,1.9l8.9,38.8C403,412.2,402.2,413.5,400.9,413.8z"/>
	<g>
		<g>
			<path class="st1" d="M455.9,382.6l14.3-2l-8.7,49.1h-13.9L455.9,382.6z M459.6,361.3l14.3-2l-2.7,14.8l-14.2,2L459.6,361.3z"/>
			<path class="st1" d="M507.2,396.9c0.1-0.6,0.2-1.1,0.2-1.5c0-1-0.5-1.4-1.9-1.4c-2.6,0-8.7,2.6-12.5,4.5l-5.4,31.1h-13.9l8.2-47
				l12.3-2.1l-0.1,5.3c7.5-3.6,13.4-5.4,19-5.4c6.4,0,8.8,3.7,8.8,9.8c0,1.7-0.1,3.1-0.5,5.5l-5.9,33.8h-13.9L507.2,396.9z"/>
			<path class="st1" d="M523.1,441.8c4.8-4.9,5.5-7.5,6.3-12.2l6.5-36.8H529l2-11.4h6.9l1.1-6.3c2-11.1,6.1-15.3,18.5-15.3
				c4,0,10.8,0.7,16.8,2.4l14.4-2.4l-12.3,69.8h-13.9l9.9-56.7c-3.8-1-10.5-1.8-14.6-1.8c-3.2,0-4.2,0.8-4.6,3.3l-1.3,7h12.5
				l-3,11.4h-11.5l-6.7,38.4c-1.2,6.7-3.6,11.5-11.1,18.9L523.1,441.8z"/>
			<path class="st1" d="M602.9,414.1c-0.1,0.5-0.2,1.1-0.2,1.5c0,1,0.5,1.5,1.9,1.5c2.6,0,8.9-2.8,12.5-4.5l5.2-30l14.3-2l-8.6,49.1
				h-11.9l-0.1-4.5c-7.5,3.6-13.4,5.4-19,5.4c-6.3,0-8.8-3.8-8.8-9.8c0-2,0.2-3.6,0.5-5.5l5.7-32.7l14.2-2L602.9,414.1z"/>
			<path class="st1" d="M659.2,417.6l-10,12.1h-14.7l19.1-24.2l-10.4-22.8l13.4-2l6.2,16l10.4-15.1H688l-19.4,25.8l10.2,22.3h-13.9
				L659.2,417.6z"/>
			<path class="st1" d="M726,387.1c-3.8-1.1-8-1.7-11.4-1.7c-8.8,0-12,3.2-13.8,13.8l-3.4,19.2c-0.1,0.8-0.2,1.5-0.2,2.2
				c0,3.8,2.4,5,7.1,5s10.1-1.1,15.6-3.4l0.9,4.6c-5.1,2.3-10.9,3.7-17.2,3.7c-7.1,0-12-3.4-12-9.9c0-0.9,0.1-2,0.3-3l3.5-19.5
				c2.4-13.1,7.4-17.8,19.8-17.8c3.8,0,9,0.9,12,2L726,387.1z"/>
			<path class="st1" d="M742.7,361.8l5.6-0.8l-12.1,68.6h-5.5L742.7,361.8z"/>
			<path class="st1" d="M752.4,417.2c0-1.4,0.1-2.9,0.4-4.4l2.6-14.6c1.9-10.6,7.4-17.7,21.7-17.7c10.7,0,16,5.5,16,13.5
				c0,1.2-0.2,2.4-0.4,3.7l-2.8,15.7c-1.9,10.7-7.8,17.2-21.7,17.2C756.9,430.6,752.4,424.9,752.4,417.2z M787.2,397.7
				c0.2-1.2,0.3-2.3,0.3-3.4c0-5.9-3.5-8.9-11.3-8.9c-9.1,0-13.7,4.4-15.2,12.8l-2.7,15.1c-0.2,1.3-0.3,2.6-0.3,3.7
				c0,5.6,3.1,8.7,11.2,8.7c8.9,0,13.7-4.2,15.2-12.4L787.2,397.7z"/>
			<path class="st1" d="M807.3,420.6c-0.1,0.6-0.2,1.3-0.2,1.8c0,2,1.3,3.1,4.1,3.1c5,0,14.4-4.5,20.6-8.3l6.2-35.3l5.7-0.8
				l-8.6,48.6h-4.7l0.8-7c-5.5,3.9-14.8,8-21,8c-5.9,0-8.5-3.1-8.5-7.9c0-1,0.1-2,0.3-3.1l6.6-37.8l5.7-0.8L807.3,420.6z"/>
			<path class="st1" d="M880.5,422.6c-5.5,4.7-12.8,8-19.7,8c-6.1,0-9.5-2.2-9.5-8.1c0-1.1,0.1-2.3,0.3-3.6l3.7-20.7
				c2.3-13.1,8.2-17.8,20.5-17.8c3.2,0,8.7,0.7,11.7,1.6l3.6-20.3l5.6-0.8l-12.1,68.6h-5L880.5,422.6z M886.5,387
				c-3.9-1-7.7-1.6-11.6-1.6c-8.8,0-12.5,3.2-14.3,13.8l-3.5,19.7c-0.2,1.2-0.3,2.1-0.3,2.9c0,3.1,1.5,3.9,4.5,3.9
				c6.1,0,13.8-4,20.1-9.5L886.5,387z"/>
		</g>
	</g>
</g>
<g>
	<path class="st1" d="M906.3,364.8h-1.2l1-5.6h-1.9l0.2-1.1h5l-0.2,1.1h-1.9L906.3,364.8z"/>
	<path class="st1" d="M915.1,360.5l-1.9,3.4h-1.3l-0.6-3.4l-1,4.3H909l1.5-6.7h1.3l0.9,4.5l2.5-4.5h1.4l-0.8,6.7h-1.2L915.1,360.5z"
		/>
</g>
</svg>
