<svg width="150" height="50" viewBox="0 0 150 50" fill="none" xmlns="http://www.w3.org/2000/svg">
<rect width="150" height="50" rx="5" fill="white"/>
<path d="M145 0H5C2.23858 0 0 2.23858 0 5V45C0 47.7614 2.23858 50 5 50H145C147.761 50 150 47.7614 150 45V5C150 2.23858 147.761 0 145 0Z" fill="white"/>
<path d="M48.4842 24.455C47.9128 24.455 47.4279 24.269 47.0293 23.897C46.644 23.5249 46.4513 23.0732 46.4513 22.5417C46.4513 21.9837 46.644 21.5253 47.0293 21.1666C47.4279 20.7946 47.9128 20.6086 48.4842 20.6086C49.0555 20.6086 49.5338 20.7946 49.9191 21.1666C50.3044 21.5253 50.497 21.9837 50.497 22.5417C50.497 23.0732 50.3044 23.5249 49.9191 23.897C49.5338 24.269 49.0555 24.455 48.4842 24.455ZM46.6706 36.3529V26.0693H50.2778V36.3529H46.6706ZM52.7039 36.3529V26.0693H56.2514L56.2912 27.3448C56.557 26.8399 56.9489 26.4479 57.4671 26.1689C57.9853 25.8899 58.5831 25.7504 59.2608 25.7504C60.4167 25.7504 61.2936 26.1224 61.8915 26.8665C62.5026 27.5972 62.8082 28.6734 62.8082 30.095V36.3529H59.201V30.7726C59.201 29.5636 58.7426 28.9591 57.8258 28.9591C57.3342 28.9591 56.9556 29.1318 56.6898 29.4772C56.4374 29.8094 56.3112 30.2877 56.3112 30.9122V36.3529H52.7039ZM66.2162 36.3529V28.9591H64.562V26.0693H66.2162V25.0728C66.2162 23.4917 66.6015 22.2694 67.3721 21.4058C68.156 20.5421 69.2587 20.1103 70.6804 20.1103C71.0923 20.1103 71.4776 20.1436 71.8363 20.21C72.2083 20.2631 72.5205 20.3429 72.773 20.4491L72.5936 23.4386C72.4475 23.3721 72.2681 23.3256 72.0555 23.2991C71.8562 23.2592 71.6702 23.2393 71.4975 23.2393C70.9262 23.2393 70.501 23.4054 70.222 23.7375C69.9563 24.0697 69.8234 24.5945 69.8234 25.312V26.0693H72.2548V28.9591H69.8234V36.3529H66.2162ZM73.8492 36.3529V20.21H77.4564V36.3529H73.8492ZM83.281 36.6718C82.1516 36.6718 81.288 36.3131 80.6901 35.5956C80.0923 34.8648 79.7933 33.8019 79.7933 32.4069V26.0693H83.4205V31.6695C83.4205 32.2807 83.5268 32.7324 83.7394 33.0247C83.9652 33.317 84.3173 33.4631 84.7956 33.4631C85.2739 33.4631 85.6393 33.2971 85.8918 32.9649C86.1575 32.6195 86.2904 32.1345 86.2904 31.51V26.0693H89.8976V36.3529H86.3501L86.3103 35.0774C86.0446 35.5823 85.646 35.9743 85.1145 36.2533C84.5963 36.5323 83.9852 36.6718 83.281 36.6718ZM91.5323 36.3529L95.279 31.0517L91.7316 26.0693H95.7573L97.4314 28.8594L99.0657 26.0693H102.892L99.3646 31.0915L103.131 36.3529H99.0856L97.2122 33.2439L95.3588 36.3529H91.5323ZM109.449 36.6718C108.532 36.6718 107.708 36.4459 106.978 35.9942C106.26 35.5425 105.696 34.918 105.284 34.1208C104.872 33.3103 104.666 32.3936 104.666 31.3705C104.666 30.3873 104.885 29.4972 105.324 28.7C105.775 27.8895 106.38 27.2518 107.137 26.7867C107.894 26.3084 108.731 26.0693 109.648 26.0693C110.406 26.0693 111.096 26.2553 111.721 26.6273C112.359 26.9993 112.87 27.5241 113.255 28.2017V20.21H114.949V36.3529H113.295L113.255 34.5393C112.857 35.2169 112.332 35.7417 111.681 36.1138C111.03 36.4858 110.286 36.6718 109.449 36.6718ZM109.887 35.1571C110.578 35.1571 111.183 34.9977 111.701 34.6788C112.219 34.36 112.624 33.9149 112.917 33.3436C113.222 32.7722 113.375 32.1146 113.375 31.3705C113.375 30.6265 113.222 29.9688 112.917 29.3975C112.624 28.8262 112.219 28.3811 111.701 28.0622C111.183 27.7434 110.578 27.5839 109.887 27.5839C109.21 27.5839 108.605 27.7434 108.074 28.0622C107.556 28.3811 107.144 28.8262 106.838 29.3975C106.546 29.9688 106.4 30.6265 106.4 31.3705C106.4 32.1146 106.546 32.7722 106.838 33.3436C107.144 33.9149 107.556 34.36 108.074 34.6788C108.605 34.9977 109.21 35.1571 109.887 35.1571ZM123.841 36.6718C123.057 36.6718 122.346 36.4858 121.708 36.1138C121.084 35.7417 120.592 35.2169 120.233 34.5393L120.194 36.3529H118.539V20.21H120.233V28.2017C120.632 27.5241 121.157 26.9993 121.808 26.6273C122.459 26.2553 123.203 26.0693 124.04 26.0693C124.97 26.0693 125.794 26.2951 126.511 26.7469C127.229 27.1986 127.793 27.8231 128.205 28.6203C128.617 29.4174 128.823 30.3342 128.823 31.3705C128.823 32.3537 128.597 33.2506 128.146 34.061C127.707 34.8582 127.109 35.496 126.352 35.9743C125.608 36.4393 124.771 36.6718 123.841 36.6718ZM123.602 35.1571C124.292 35.1571 124.897 34.9977 125.415 34.6788C125.933 34.36 126.339 33.9149 126.631 33.3436C126.936 32.7722 127.089 32.1146 127.089 31.3705C127.089 30.6265 126.936 29.9688 126.631 29.3975C126.339 28.8262 125.933 28.3811 125.415 28.0622C124.897 27.7434 124.292 27.5839 123.602 27.5839C122.924 27.5839 122.319 27.7434 121.788 28.0622C121.27 28.3811 120.858 28.8262 120.552 29.3975C120.26 29.9688 120.114 30.6265 120.114 31.3705C120.114 32.1146 120.26 32.7722 120.552 33.3436C120.858 33.9149 121.27 34.36 121.788 34.6788C122.319 34.9977 122.924 35.1571 123.602 35.1571Z" fill="#020A47"/>
<path fill-rule="evenodd" clip-rule="evenodd" d="M31.0452 33.7403L36.4553 32.4998C36.5387 32.483 36.6176 32.4489 36.6871 32.3999C36.7566 32.3508 36.8151 32.2878 36.8589 32.2149C36.9027 32.142 36.9308 32.0608 36.9415 31.9764C36.9521 31.892 36.9451 31.8064 36.9209 31.7249L34.62 21.7459C34.5785 21.5812 34.4733 21.4397 34.3276 21.3525C34.1819 21.2652 34.0075 21.2393 33.8427 21.2804L28.4348 22.5209C28.2711 22.5629 28.1307 22.668 28.0443 22.8132C27.9579 22.9584 27.9325 23.132 27.9737 23.2958L30.2679 33.2748C30.3094 33.4395 30.4146 33.581 30.5603 33.6682C30.706 33.7555 30.8804 33.7814 31.0452 33.7403Z" fill="#020A47"/>
<path fill-rule="evenodd" clip-rule="evenodd" d="M29.1809 39.9067L35.7403 33.8338C35.9876 33.5843 35.9252 33.4307 35.5844 33.5532L31.0763 34.5776C30.8899 34.6236 30.7181 34.7159 30.5768 34.8459C30.4355 34.9759 30.3292 35.1394 30.2678 35.3214L28.9003 39.7218C28.8067 40.0626 28.9314 40.1561 29.1809 39.9067Z" fill="#020A47"/>
<path fill-rule="evenodd" clip-rule="evenodd" d="M17.2136 37.9247L27.036 40.96C27.2039 40.9913 27.3773 40.9618 27.5254 40.877C27.6735 40.7921 27.7867 40.6574 27.8445 40.4968L29.4905 35.2278C29.5144 35.1457 29.5217 35.0596 29.5122 34.9746C29.5027 34.8895 29.4765 34.8072 29.4351 34.7323C29.3938 34.6574 29.338 34.5914 29.2711 34.5381C29.2041 34.4848 29.1273 34.4452 29.0451 34.4217L19.2226 31.4153C19.0563 31.3677 18.878 31.3879 18.7265 31.4713C18.575 31.5548 18.4627 31.6947 18.4141 31.8607L16.7793 37.1185C16.7307 37.283 16.7491 37.46 16.8304 37.611C16.9118 37.762 17.0495 37.8747 17.2136 37.9247Z" fill="#020A47"/>
<path fill-rule="evenodd" clip-rule="evenodd" d="M14.0418 27.1395L16.0331 35.8581C16.0954 36.1988 16.2558 36.1988 16.3427 35.8581L17.7102 31.4576C17.7568 31.2701 17.7587 31.0743 17.7158 30.8859C17.6728 30.6975 17.5863 30.5219 17.463 30.3731L14.3225 26.9836C14.1042 26.7275 13.9416 26.7988 14.0418 27.1395Z" fill="#020A47"/>
<path fill-rule="evenodd" clip-rule="evenodd" d="M21.7217 17.8197L14.1978 24.7834C14.0771 24.8983 14.0062 25.0559 14.0004 25.2224C13.9946 25.389 14.0542 25.5511 14.1666 25.6742L17.9285 29.7428C18.0445 29.8658 18.2043 29.9381 18.3732 29.9439C18.5421 29.9497 18.7065 29.8887 18.8306 29.774L26.3523 22.7992C26.474 22.6849 26.5456 22.5271 26.5515 22.3602C26.5573 22.1933 26.4969 22.0309 26.3834 21.9084L22.6282 17.842C22.5704 17.7805 22.501 17.7311 22.424 17.6967C22.347 17.6623 22.2639 17.6435 22.1796 17.6414C22.0952 17.6393 22.0113 17.654 21.9327 17.6846C21.8541 17.7152 21.7824 17.7612 21.7217 17.8197Z" fill="#020A47"/>
<path fill-rule="evenodd" clip-rule="evenodd" d="M28.9939 33.5844C29.3369 33.6779 29.5529 33.4931 29.4616 33.139L27.2855 23.719C27.192 23.3782 26.9113 23.2847 26.6641 23.5319L19.5768 30.1148C19.3273 30.362 19.3897 30.6403 19.7305 30.7339L28.9939 33.5844Z" fill="#020A47"/>
<path fill-rule="evenodd" clip-rule="evenodd" d="M32.6934 20.4453L24.1138 17.8198C23.773 17.7262 23.7106 17.8509 23.989 18.1293L27.1296 21.5076C27.2704 21.6393 27.4408 21.7353 27.6264 21.7876C27.8121 21.8399 28.0075 21.847 28.1964 21.8082L32.7045 20.7861C33.0364 20.6925 33.0364 20.5366 32.6934 20.4453Z" fill="#020A47"/>
<path d="M133.052 22.899V20.7794H132.263V20.3609H134.321V20.7794H133.539V22.899H133.052ZM134.76 22.899L134.89 20.3609H135.364L136.139 21.9729L136.928 20.3609H137.401L137.531 22.899H137.099L137.017 21.0194L136.317 22.4599H135.974L135.268 21.0057L135.192 22.899H134.76Z" fill="#020A47"/>
<path d="M48.5846 17.1418C48.2361 17.1418 47.9201 17.0591 47.6365 16.8937C47.3589 16.7283 47.1403 16.4949 46.9808 16.1937L46.9631 17H46.2277V9.82288H46.9808V13.376C47.158 13.0747 47.3914 12.8414 47.6808 12.676C47.9703 12.5106 48.3011 12.4279 48.6732 12.4279C49.0867 12.4279 49.4529 12.5283 49.7719 12.7292C50.0909 12.93 50.342 13.2076 50.5251 13.5621C50.7082 13.9165 50.7998 14.3241 50.7998 14.7848C50.7998 15.222 50.6993 15.6207 50.4985 15.981C50.3036 16.3355 50.0378 16.619 49.701 16.8316C49.3702 17.0384 48.9981 17.1418 48.5846 17.1418ZM48.4783 16.4684C48.7854 16.4684 49.0542 16.3975 49.2846 16.2557C49.515 16.1139 49.6951 15.916 49.8251 15.662C49.961 15.408 50.0289 15.1156 50.0289 14.7848C50.0289 14.454 49.961 14.1616 49.8251 13.9076C49.6951 13.6536 49.515 13.4557 49.2846 13.314C49.0542 13.1722 48.7854 13.1013 48.4783 13.1013C48.177 13.1013 47.9082 13.1722 47.672 13.314C47.4416 13.4557 47.2585 13.6536 47.1226 13.9076C46.9926 14.1616 46.9277 14.454 46.9277 14.7848C46.9277 15.1156 46.9926 15.408 47.1226 15.662C47.2585 15.916 47.4416 16.1139 47.672 16.2557C47.9082 16.3975 48.177 16.4684 48.4783 16.4684Z" fill="#020A47"/>
<path d="M53.6186 17.1418C53.1165 17.1418 52.7296 16.9911 52.4579 16.6899C52.1921 16.3827 52.0592 15.9456 52.0592 15.3785V12.5697H52.8123V15.1658C52.8123 15.6325 52.895 15.9692 53.0604 16.176C53.2258 16.3768 53.4975 16.4772 53.8756 16.4772C54.2595 16.4772 54.5608 16.3473 54.7794 16.0874C55.0038 15.8215 55.1161 15.4642 55.1161 15.0152V12.5697H55.8692V17H55.1604L55.1427 16.238C55.0245 16.5274 54.8325 16.7519 54.5667 16.9114C54.3009 17.065 53.9849 17.1418 53.6186 17.1418Z" fill="#020A47"/>
<path d="M57.84 11.3824C57.6924 11.3824 57.5683 11.3321 57.4679 11.2317C57.3734 11.1313 57.3261 11.0043 57.3261 10.8507C57.3261 10.6971 57.3734 10.5701 57.4679 10.4697C57.5683 10.3693 57.6924 10.3191 57.84 10.3191C57.9936 10.3191 58.1177 10.3693 58.2122 10.4697C58.3067 10.5701 58.354 10.6971 58.354 10.8507C58.354 11.0043 58.3067 11.1313 58.2122 11.2317C58.1177 11.3321 57.9936 11.3824 57.84 11.3824ZM57.4679 17V12.5697H58.221V17H57.4679Z" fill="#020A47"/>
<path d="M59.8128 17V9.82288H60.566V17H59.8128Z" fill="#020A47"/>
<path d="M63.9211 17.1418C63.419 17.1418 63.0498 17.0089 62.8135 16.743C62.5772 16.4713 62.4591 16.049 62.4591 15.476V13.2165H61.4489V12.5697H62.4591V11.2937H63.2122V12.5697H64.7628V13.2165H63.2122V15.4139C63.2122 15.792 63.2772 16.0667 63.4071 16.238C63.543 16.4034 63.7586 16.4861 64.054 16.4861C64.3375 16.4861 64.6299 16.4093 64.9312 16.2557L65.0198 16.8848C64.8839 16.9675 64.7185 17.0295 64.5236 17.0709C64.3346 17.1181 64.1337 17.1418 63.9211 17.1418Z" fill="#020A47"/>
<path d="M70.0445 17.1418C69.6015 17.1418 69.2057 17.0384 68.8572 16.8316C68.5087 16.6249 68.2311 16.3443 68.0243 15.9899C67.8235 15.6355 67.723 15.2338 67.723 14.7848C67.723 14.3418 67.8264 13.9431 68.0332 13.5887C68.2399 13.2342 68.5175 12.9536 68.8661 12.7469C69.2205 12.5342 69.6133 12.4279 70.0445 12.4279C70.4876 12.4279 70.8833 12.5313 71.2319 12.738C71.5863 12.9448 71.8639 13.2254 72.0648 13.5798C72.2656 13.9342 72.366 14.3359 72.366 14.7848C72.366 15.222 72.2626 15.6207 72.0559 15.981C71.8492 16.3355 71.5686 16.619 71.2141 16.8316C70.8656 17.0384 70.4758 17.1418 70.0445 17.1418ZM70.0445 16.4684C70.3517 16.4684 70.6205 16.3975 70.8509 16.2557C71.0812 16.1139 71.2614 15.916 71.3914 15.662C71.5272 15.408 71.5951 15.1156 71.5951 14.7848C71.5951 14.454 71.5272 14.1616 71.3914 13.9076C71.2614 13.6536 71.0812 13.4557 70.8509 13.314C70.6205 13.1722 70.3517 13.1013 70.0445 13.1013C69.7433 13.1013 69.4745 13.1722 69.2382 13.314C69.0078 13.4557 68.8247 13.6536 68.6889 13.9076C68.5589 14.1616 68.4939 14.454 68.4939 14.7848C68.4939 15.1156 68.5589 15.408 68.6889 15.662C68.8247 15.916 69.0078 16.1139 69.2382 16.2557C69.4745 16.3975 69.7433 16.4684 70.0445 16.4684Z" fill="#020A47"/>
<path d="M73.6489 17V12.5697H74.3578L74.3667 13.3317C74.4907 13.0482 74.6827 12.8266 74.9426 12.6671C75.2084 12.5077 75.5097 12.4279 75.8464 12.4279C76.3721 12.4279 76.7768 12.5933 77.0603 12.9241C77.3438 13.249 77.4856 13.7157 77.4856 14.3241V17H76.7325V14.457C76.7325 13.5473 76.378 13.0925 75.6692 13.0925C75.2734 13.0925 74.9633 13.2224 74.7388 13.4823C74.5143 13.7422 74.4021 14.0996 74.4021 14.5545V17H73.6489Z" fill="#020A47"/>
</svg>
