<?xml version="1.0" encoding="UTF-8"?>
<svg id="Layer_1" xmlns="http://www.w3.org/2000/svg" version="1.1" viewBox="0 0 512 512">
  <!-- Generator: Adobe Illustrator 29.1.0, SVG Export Plug-In . SVG Version: 2.1.0 Build 142)  -->
  <defs>
    <style>
      .st0 {
        fill: #d30971;
        fill-rule: evenodd;
      }
    </style>
  </defs>
  <path class="st0" d="M353.3,333.2l94.5-21.6c1.5-.3,2.8-.9,4-1.7,1.2-.9,2.2-2,3-3.2.8-1.3,1.3-2.7,1.4-4.2.2-1.5.1-3-.4-4.4l-40.2-173.7c-.7-2.9-2.6-5.3-5.1-6.8s-5.6-2-8.5-1.3l-94.5,21.6c-2.9.7-5.3,2.6-6.8,5.1s-2,5.5-1.2,8.4l40.1,173.7c.7,2.9,2.6,5.3,5.1,6.8,2.7,1.5,5.8,2,8.6,1.3Z"/>
  <path class="st0" d="M320.8,440.5l114.6-105.7c4.3-4.3,3.2-7-2.7-4.9l-78.8,17.8c-3.3.8-6.3,2.4-8.7,4.7-2.5,2.3-4.3,5.1-5.4,8.3l-23.9,76.6c-1.7,5.9.5,7.5,4.9,3.2Z"/>
  <path class="st0" d="M111.7,406l171.6,52.8c2.9.5,6,0,8.5-1.4,2.6-1.5,4.6-3.8,5.6-6.6l28.8-91.7c.4-1.4.5-2.9.4-4.4-.2-1.5-.6-2.9-1.3-4.2s-1.7-2.5-2.9-3.4c-1.2-.9-2.5-1.6-3.9-2l-171.6-52.3c-2.9-.8-6-.5-8.7,1-2.6,1.5-4.6,3.9-5.5,6.8l-28.6,91.4c-.8,2.9-.5,5.9.9,8.6,1.4,2.6,3.8,4.5,6.7,5.4Z"/>
  <path class="st0" d="M56.3,218.3l34.8,151.7c1.1,5.9,3.9,5.9,5.4,0l23.9-76.6c.8-3.3.8-6.7,0-9.9-.8-3.3-2.3-6.3-4.4-8.9l-54.9-59c-3.8-4.5-6.6-3.2-4.9,2.7Z"/>
  <path class="st0" d="M190.5,56.1L59,177.3c-2.1,2-3.3,4.7-3.4,7.6,0,2.9.9,5.7,2.9,7.9l65.7,70.8c2,2.1,4.8,3.4,7.8,3.5s5.8-1,8-3l131.4-121.4c2.1-2,3.4-4.7,3.5-7.6s-1-5.7-2.9-7.9l-65.6-70.8c-1-1.1-2.2-1.9-3.6-2.5-1.3-.6-2.8-.9-4.3-1s-2.9.2-4.3.8c-1.4.6-2.7,1.4-3.7,2.4Z"/>
  <path class="st0" d="M317.5,330.4c6,1.6,9.8-1.6,8.2-7.8l-38-163.9c-1.6-5.9-6.5-7.6-10.9-3.3l-123.8,114.7c-4.4,4.3-3.3,9.1,2.7,10.8l161.8,49.5Z"/>
  <path class="st0" d="M382.1,101.8l-149.8-45.7c-6-1.6-7,.5-2.2,5.4l54.9,58.8c2.5,2.3,5.4,4,8.7,4.9,3.2.9,6.7,1,10,.4l78.8-17.8c5.6-1.7,5.6-4.4-.4-6Z"/>
</svg>