<svg width="140" height="54" viewBox="0 0 140 54" fill="none" xmlns="http://www.w3.org/2000/svg">
<path d="M64.2577 43V26.8723H60.3675V24.1151H64.2577V21.0936C64.2577 18.1727 64.8746 15.9695 66.1084 14.4839C67.3674 12.9731 69.193 12.2177 71.5851 12.2177C72.8189 12.2177 73.9394 12.4191 74.9466 12.822L74.6066 15.5037C73.7002 15.2015 72.7811 15.0504 71.8494 15.0504C70.3135 15.0504 69.193 15.554 68.4879 16.5612C67.8081 17.5684 67.4682 19.2177 67.4682 21.509V24.1151H73.3602V26.8723H67.4682V43H64.2577ZM78.157 43V12.4065H81.3674V43H78.157ZM94.7007 43.6043C92.5604 43.6043 90.9111 42.9622 89.7529 41.6781C88.6198 40.3687 88.0532 38.5054 88.0532 36.0881V24.1151H91.2637V35.1817C91.2637 37.1709 91.6162 38.6061 92.3212 39.4874C93.0262 40.3435 94.1845 40.7716 95.796 40.7716C97.4327 40.7716 98.7169 40.2176 99.6485 39.1097C100.605 37.9766 101.084 36.4533 101.084 34.5396V24.1151H104.294V43H101.273L101.197 39.7518C100.693 40.9856 99.8752 41.9424 98.7421 42.6223C97.609 43.277 96.2619 43.6043 94.7007 43.6043ZM108.654 43L115.905 33.2932L108.956 24.1151H112.771L117.869 31.2159L122.855 24.1151H126.368L119.607 33.1799L127.085 43H123.271L117.643 35.2572L112.166 43H108.654Z" fill="#020A47"/>
<path fill-rule="evenodd" clip-rule="evenodd" d="M32.3034 38.6372L42.5565 36.2864C42.7145 36.2544 42.8641 36.1899 42.9958 36.0969C43.1274 36.0039 43.2383 35.8846 43.3213 35.7464C43.4043 35.6082 43.4576 35.4543 43.4778 35.2944C43.498 35.1345 43.4847 34.9721 43.4387 34.8177L39.0783 15.9059C38.9996 15.5938 38.8003 15.3257 38.5241 15.1603C38.2479 14.9949 37.9174 14.9459 37.6051 15.0238L27.3562 17.3746C27.046 17.4542 26.7799 17.6534 26.6162 17.9286C26.4524 18.2038 26.4043 18.5327 26.4825 18.8433L30.8302 37.7551C30.9089 38.0672 31.1082 38.3353 31.3844 38.5006C31.6606 38.666 31.9911 38.7151 32.3034 38.6372Z" fill="#020A47"/>
<path fill-rule="evenodd" clip-rule="evenodd" d="M28.7703 50.3235L41.2015 38.8144C41.67 38.3417 41.5518 38.0505 40.906 38.2826L32.3624 40.224C32.0091 40.3113 31.6835 40.4862 31.4157 40.7326C31.1479 40.979 30.9465 41.2889 30.8302 41.6336L28.2384 49.9732C28.0611 50.6189 28.2975 50.7962 28.7703 50.3235Z" fill="#020A47"/>
<path fill-rule="evenodd" clip-rule="evenodd" d="M6.09025 46.5673L24.7054 52.3198C25.0234 52.379 25.3522 52.3232 25.6329 52.1624C25.9136 52.0016 26.1279 51.7462 26.2377 51.4419L29.3571 41.4564C29.4022 41.3006 29.4162 41.1375 29.3982 40.9764C29.3802 40.8152 29.3305 40.6592 29.2521 40.5173C29.1737 40.3753 29.068 40.2503 28.9411 40.1493C28.8143 40.0482 28.6687 39.9732 28.5128 39.9286L9.8977 34.231C9.58257 34.1408 9.24459 34.179 8.95751 34.3371C8.67043 34.4953 8.45759 34.7606 8.36543 35.075L5.26713 45.0395C5.17511 45.3512 5.20997 45.6867 5.36413 45.9728C5.5183 46.259 5.77927 46.4726 6.09025 46.5673Z" fill="#020A47"/>
<path fill-rule="evenodd" clip-rule="evenodd" d="M0.0792906 26.1277L3.85297 42.6507C3.97116 43.2965 4.27508 43.2965 4.43971 42.6507L7.03148 34.3111C7.11979 33.9558 7.12341 33.5847 7.04203 33.2277C6.96064 32.8707 6.79654 32.5378 6.56293 32.2558L0.611152 25.8323C0.197482 25.3469 -0.11066 25.482 0.0792906 26.1277Z" fill="#020A47"/>
<path fill-rule="evenodd" clip-rule="evenodd" d="M14.6338 8.46517L0.374854 21.6625C0.146094 21.8802 0.0117872 22.1789 0.000739528 22.4945C-0.0103081 22.8101 0.102784 23.1175 0.315758 23.3507L7.44523 31.0614C7.66493 31.2944 7.96774 31.4314 8.28786 31.4424C8.60797 31.4535 8.91951 31.3378 9.15479 31.1205L23.4095 17.9021C23.6403 17.6855 23.776 17.3864 23.787 17.0702C23.7981 16.7539 23.6836 16.4461 23.4686 16.2139L16.3518 8.50737C16.2423 8.39087 16.1108 8.29728 15.9649 8.23201C15.8189 8.16675 15.6614 8.13112 15.5016 8.1272C15.3418 8.12327 15.1828 8.15112 15.0338 8.20914C14.8848 8.26716 14.7489 8.35418 14.6338 8.46517Z" fill="#020A47"/>
<path fill-rule="evenodd" clip-rule="evenodd" d="M28.4158 38.3417C29.0659 38.519 29.4753 38.1687 29.3022 37.4976L25.1782 19.6452C25.0009 18.9994 24.4691 18.8222 24.0005 19.2907L10.5689 31.7663C10.0962 32.2347 10.2143 32.7623 10.8602 32.9396L28.4158 38.3417Z" fill="#020A47"/>
<path fill-rule="evenodd" clip-rule="evenodd" d="M35.427 13.4411L19.1672 8.46523C18.5214 8.28797 18.4032 8.52432 18.9309 9.05187L24.8826 15.4543C25.1496 15.7038 25.4725 15.8858 25.8243 15.9849C26.1761 16.084 26.5465 16.0975 26.9046 16.024L35.4481 14.0869C36.077 13.9096 36.077 13.6142 35.427 13.4411Z" fill="#020A47"/>
<path d="M130.623 17.93V13.913H129.128V13.12H133.028V13.913H131.546V17.93H130.623ZM133.86 17.93L134.107 13.12H135.004L136.473 16.175L137.968 13.12H138.865L139.112 17.93H138.293L138.137 14.368L136.811 17.098H136.161L134.822 14.342L134.679 17.93H133.86Z" fill="#020A47"/>
</svg>
