<?xml version="1.0" encoding="utf-8"?>
<!-- Generator: Adobe Illustrator 26.3.1, SVG Export Plug-In . SVG Version: 6.00 Build 0)  -->
<svg version="1.1" id="Layer_1" xmlns="http://www.w3.org/2000/svg" xmlns:xlink="http://www.w3.org/1999/xlink" x="0px" y="0px"
	 viewBox="0 0 433 55" style="enable-background:new 0 0 433 55;" xml:space="preserve">
<style type="text/css">
	.st0{fill:#020A47;}
	.st1{fill-rule:evenodd;clip-rule:evenodd;fill:#020A47;}
</style>
<g>
	<path class="st0" d="M52.9,22.1h5.5v15.8h-5.5V22.1z M53.4,18.7c-0.6-0.6-0.9-1.3-0.9-2.1c0-0.9,0.3-1.6,0.9-2.1
		c0.6-0.6,1.4-0.9,2.2-0.9s1.6,0.3,2.2,0.9c0.6,0.6,0.9,1.3,0.9,2.1c0,0.8-0.3,1.5-0.9,2.1c-0.6,0.6-1.3,0.9-2.2,0.9
		S54,19.3,53.4,18.7z"/>
	<path class="st0" d="M62.1,22.1h5.4l0.1,2c0.4-0.8,1-1.4,1.8-1.8c0.8-0.4,1.7-0.6,2.8-0.6c1.8,0,3.1,0.6,4,1.7
		c0.9,1.1,1.4,2.8,1.4,5v9.6h-5.5v-8.6c0-1.9-0.7-2.8-2.1-2.8c-0.8,0-1.3,0.3-1.7,0.8c-0.4,0.5-0.6,1.2-0.6,2.2v8.4h-5.5V22.1z"/>
	<path class="st0" d="M82.9,26.5h-2.5v-4.4h2.5v-1.5c0-2.4,0.6-4.3,1.8-5.6c1.2-1.3,2.9-2,5.1-2c0.6,0,1.2,0.1,1.8,0.2
		c0.6,0.1,1.1,0.2,1.4,0.4L92.7,18c-0.2-0.1-0.5-0.2-0.8-0.2c-0.3-0.1-0.6-0.1-0.9-0.1c-1.7,0-2.6,1.1-2.6,3.2v1.2h3.7v4.4h-3.7
		v11.4h-5.5V26.5z M94.5,13.1h5.5v24.8h-5.5V13.1z"/>
	<path class="st0" d="M119.1,37.8h-5.4l-0.1-1.9c-0.4,0.8-1,1.4-1.8,1.8c-0.8,0.4-1.8,0.6-2.8,0.6c-1.7,0-3.1-0.6-4-1.7
		c-0.9-1.1-1.4-2.8-1.4-4.9v-9.7h5.5v8.6c0,1.8,0.7,2.8,2.1,2.8c0.7,0,1.3-0.3,1.7-0.8c0.4-0.5,0.6-1.3,0.6-2.2v-8.4h5.5V37.8z"/>
	<path class="st0" d="M127.4,29.7l-5.4-7.7h6.2l2.6,4.3l2.5-4.3h5.9l-5.4,7.7l5.8,8.1h-6.2l-2.9-4.8l-2.8,4.8h-5.9L127.4,29.7z"/>
	<path class="st0" d="M157.6,37.8h-2.5l-0.1-2.8c-0.6,1-1.4,1.8-2.4,2.4c-1,0.6-2.1,0.9-3.4,0.9c-1.4,0-2.7-0.3-3.8-1
		c-1.1-0.7-2-1.7-2.6-2.9c-0.6-1.2-0.9-2.7-0.9-4.2c0-1.5,0.3-2.9,1-4.1c0.7-1.2,1.6-2.2,2.8-2.9c1.2-0.7,2.4-1.1,3.9-1.1
		c1.2,0,2.2,0.3,3.2,0.9c1,0.6,1.8,1.4,2.4,2.4V13.1h2.6V37.8z M145.2,33.2c0.5,0.9,1.1,1.6,1.9,2.1c0.8,0.5,1.7,0.7,2.8,0.7
		c1.1,0,2-0.2,2.8-0.7c0.8-0.5,1.4-1.2,1.9-2.1c0.5-0.9,0.7-1.9,0.7-3c0-1.1-0.2-2.2-0.7-3c-0.4-0.9-1.1-1.6-1.9-2.1
		s-1.7-0.7-2.8-0.7c-1,0-2,0.2-2.8,0.7c-0.8,0.5-1.4,1.2-1.9,2.1c-0.4,0.9-0.7,1.9-0.7,3C144.5,31.3,144.7,32.3,145.2,33.2z"/>
	<path class="st0" d="M163.1,13.1h2.6v12.3c0.6-1,1.4-1.8,2.4-2.4c1-0.6,2.1-0.9,3.4-0.9c1.4,0,2.7,0.3,3.8,1c1.1,0.7,2,1.7,2.6,2.9
		c0.6,1.2,0.9,2.6,0.9,4.2c0,1.5-0.3,2.9-1,4.1c-0.7,1.2-1.6,2.2-2.8,2.9c-1.1,0.7-2.4,1.1-3.9,1.1c-1.2,0-2.3-0.3-3.3-0.9
		c-1-0.6-1.7-1.4-2.3-2.4l-0.1,2.8h-2.5V13.1z M175.5,27.2c-0.4-0.9-1.1-1.6-1.9-2.1s-1.7-0.7-2.8-0.7c-1,0-2,0.2-2.8,0.7
		c-0.8,0.5-1.4,1.2-1.9,2.1c-0.4,0.9-0.7,1.9-0.7,3c0,1.1,0.2,2.2,0.7,3c0.5,0.9,1.1,1.6,1.9,2.1c0.8,0.5,1.7,0.7,2.8,0.7
		c1.1,0,2-0.2,2.8-0.7c0.8-0.5,1.4-1.2,1.9-2.1c0.5-0.9,0.7-1.9,0.7-3C176.3,29,176,28,175.5,27.2z"/>
	<path class="st0" d="M190.2,26c0.7-1.2,1.7-2.2,2.9-2.8c1.2-0.7,2.7-1,4.3-1c0.8,0,1.6,0.1,2.4,0.3c0.8,0.2,1.5,0.5,2.1,0.8
		l-0.4,2.2c-0.6-0.3-1.2-0.6-2-0.7c-0.8-0.2-1.5-0.3-2.1-0.3c-1.7,0-3.1,0.5-4.1,1.6c-1,1-1.5,2.4-1.5,4.1c0,1.8,0.5,3.2,1.6,4.2
		c1,1,2.5,1.5,4.3,1.5c0.7,0,1.4-0.1,2.1-0.2c0.7-0.2,1.5-0.4,2.3-0.8l0.3,2.2c-0.7,0.4-1.4,0.7-2.3,0.9c-0.8,0.2-1.7,0.3-2.5,0.3
		c-1.7,0-3.2-0.3-4.4-1c-1.2-0.7-2.2-1.6-2.9-2.8c-0.7-1.2-1-2.6-1-4.2C189.2,28.7,189.5,27.3,190.2,26z"/>
	<path class="st0" d="M206.7,13.1h2.6v24.8h-2.6V13.1z"/>
	<path class="st0" d="M228.7,34.3c-0.7,1.2-1.7,2.2-2.9,2.9c-1.2,0.7-2.5,1.1-4,1.1c-1.5,0-2.9-0.4-4.1-1.1
		c-1.2-0.7-2.2-1.7-2.9-2.9c-0.7-1.2-1-2.6-1-4.2c0-1.5,0.4-2.9,1.1-4.1c0.7-1.2,1.7-2.2,2.9-2.9c1.2-0.7,2.6-1.1,4.1-1.1
		c1.5,0,2.9,0.4,4.1,1.1c1.2,0.7,2.2,1.7,2.9,2.9c0.7,1.2,1,2.6,1,4.2C229.8,31.7,229.4,33.1,228.7,34.3z M217.1,33.2
		c0.5,0.9,1.1,1.6,1.9,2.1c0.8,0.5,1.7,0.7,2.8,0.7c1.1,0,2-0.2,2.8-0.7c0.8-0.5,1.4-1.2,1.9-2.1c0.5-0.9,0.7-1.9,0.7-3
		c0-1.1-0.2-2.2-0.7-3c-0.4-0.9-1.1-1.6-1.9-2.1s-1.7-0.7-2.8-0.7c-1,0-2,0.2-2.8,0.7c-0.8,0.5-1.4,1.2-1.9,2.1
		c-0.4,0.9-0.7,1.9-0.7,3C216.4,31.3,216.6,32.3,217.1,33.2z"/>
	<path class="st0" d="M247.3,37.8h-2.4l-0.1-2.6c-0.4,1-1.1,1.8-2,2.3c-0.9,0.5-2,0.8-3.3,0.8c-1.7,0-3.1-0.5-4-1.6
		c-0.9-1.1-1.4-2.6-1.4-4.5v-9.7h2.6v9c0,1.6,0.3,2.8,0.9,3.5c0.6,0.7,1.5,1,2.8,1c1.3,0,2.4-0.4,3.1-1.3c0.8-0.9,1.2-2.2,1.2-3.7
		v-8.4h2.6V37.8z"/>
	<path class="st0" d="M267.5,37.8H265l-0.1-2.8c-0.6,1-1.4,1.8-2.4,2.4c-1,0.6-2.1,0.9-3.4,0.9c-1.4,0-2.7-0.3-3.8-1
		c-1.1-0.7-2-1.7-2.6-2.9c-0.6-1.2-0.9-2.7-0.9-4.2c0-1.5,0.3-2.9,1-4.1c0.7-1.2,1.6-2.2,2.8-2.9c1.2-0.7,2.4-1.1,3.9-1.1
		c1.2,0,2.2,0.3,3.2,0.9c1,0.6,1.8,1.4,2.4,2.4V13.1h2.6V37.8z M255.1,33.2c0.5,0.9,1.1,1.6,1.9,2.1c0.8,0.5,1.7,0.7,2.8,0.7
		c1.1,0,2-0.2,2.8-0.7c0.8-0.5,1.4-1.2,1.9-2.1c0.5-0.9,0.7-1.9,0.7-3c0-1.1-0.2-2.2-0.7-3c-0.4-0.9-1.1-1.6-1.9-2.1
		s-1.7-0.7-2.8-0.7c-1,0-2,0.2-2.8,0.7c-0.8,0.5-1.4,1.2-1.9,2.1c-0.4,0.9-0.7,1.9-0.7,3C254.4,31.3,254.6,32.3,255.1,33.2z"/>
	<path class="st0" d="M294.6,37.8h-2.5l-0.1-2.8c-0.6,1-1.4,1.8-2.4,2.4c-1,0.6-2.1,0.9-3.4,0.9c-1.4,0-2.7-0.3-3.8-1
		c-1.1-0.7-2-1.7-2.6-2.9c-0.6-1.2-0.9-2.7-0.9-4.2c0-1.5,0.3-2.9,1-4.1c0.7-1.2,1.6-2.2,2.8-2.9c1.2-0.7,2.4-1.1,3.9-1.1
		c1.2,0,2.2,0.3,3.2,0.9c1,0.6,1.8,1.4,2.4,2.4V13.1h2.6V37.8z M282.2,33.2c0.5,0.9,1.1,1.6,1.9,2.1c0.8,0.5,1.7,0.7,2.8,0.7
		c1.1,0,2-0.2,2.8-0.7c0.8-0.5,1.4-1.2,1.9-2.1c0.5-0.9,0.7-1.9,0.7-3c0-1.1-0.2-2.2-0.7-3c-0.4-0.9-1.1-1.6-1.9-2.1
		c-0.8-0.5-1.7-0.7-2.8-0.7c-1,0-2,0.2-2.8,0.7c-0.8,0.5-1.4,1.2-1.9,2.1c-0.4,0.9-0.7,1.9-0.7,3C281.5,31.3,281.7,32.3,282.2,33.2z
		"/>
	<path class="st0" d="M307.6,38.3c-1.7,0-3.2-0.3-4.5-1c-1.3-0.7-2.2-1.6-2.9-2.8c-0.7-1.2-1-2.7-1-4.3c0-1.6,0.3-3,1-4.3
		c0.7-1.2,1.5-2.2,2.7-2.9c1.1-0.7,2.4-1.1,3.9-1.1c1.4,0,2.6,0.3,3.6,0.9c1,0.6,1.8,1.5,2.4,2.6c0.6,1.1,0.9,2.4,0.9,3.9
		c0,0.3,0,0.5,0,0.7c0,0.2,0,0.5,0,0.7h-11.9c0.2,1.6,0.8,2.8,1.8,3.7c1,0.9,2.4,1.3,4.2,1.3c1.8,0,3.6-0.4,5.3-1.3l0.3,2.2
		c-0.7,0.4-1.6,0.8-2.6,1C309.7,38.2,308.6,38.3,307.6,38.3z M306.5,24.3c-1.3,0-2.4,0.4-3.3,1.3c-0.9,0.8-1.4,2-1.6,3.4h9.4
		c0-0.2,0-0.4-0.1-0.6c-0.2-1.3-0.6-2.3-1.4-3C308.8,24.6,307.8,24.3,306.5,24.3z"/>
	<path class="st0" d="M333.5,37.8h-2.5l-0.1-2.8c-0.6,1-1.4,1.8-2.4,2.4c-1,0.6-2.1,0.9-3.4,0.9c-1.4,0-2.7-0.3-3.8-1
		c-1.1-0.7-2-1.7-2.6-2.9c-0.6-1.2-0.9-2.7-0.9-4.2c0-1.5,0.3-2.9,1-4.1c0.7-1.2,1.6-2.2,2.8-2.9c1.2-0.7,2.4-1.1,3.9-1.1
		c1.2,0,2.2,0.3,3.2,0.9c1,0.6,1.8,1.4,2.4,2.4V13.1h2.6V37.8z M321,33.2c0.5,0.9,1.1,1.6,1.9,2.1c0.8,0.5,1.7,0.7,2.8,0.7
		c1.1,0,2-0.2,2.8-0.7c0.8-0.5,1.4-1.2,1.9-2.1c0.5-0.9,0.7-1.9,0.7-3c0-1.1-0.2-2.2-0.7-3c-0.4-0.9-1.1-1.6-1.9-2.1
		s-1.7-0.7-2.8-0.7c-1,0-2,0.2-2.8,0.7c-0.8,0.5-1.4,1.2-1.9,2.1c-0.4,0.9-0.7,1.9-0.7,3C320.4,31.3,320.6,32.3,321,33.2z"/>
	<path class="st0" d="M339,22.5h2.6v15.3H339V22.5z M339,17.9c-0.3-0.3-0.5-0.8-0.5-1.3c0-0.5,0.2-1,0.5-1.3
		c0.3-0.3,0.8-0.5,1.3-0.5c0.5,0,1,0.2,1.3,0.5c0.3,0.3,0.5,0.8,0.5,1.3c0,0.5-0.2,1-0.5,1.3c-0.3,0.3-0.8,0.5-1.3,0.5
		C339.8,18.4,339.3,18.3,339,17.9z"/>
	<path class="st0" d="M347.1,26c0.7-1.2,1.7-2.2,2.9-2.8c1.2-0.7,2.7-1,4.3-1c0.8,0,1.6,0.1,2.4,0.3c0.8,0.2,1.5,0.5,2.1,0.8
		l-0.4,2.2c-0.6-0.3-1.2-0.6-2-0.7c-0.8-0.2-1.5-0.3-2.1-0.3c-1.7,0-3.1,0.5-4.1,1.6c-1,1-1.5,2.4-1.5,4.1c0,1.8,0.5,3.2,1.6,4.2
		c1,1,2.5,1.5,4.3,1.5c0.7,0,1.4-0.1,2-0.2c0.7-0.2,1.5-0.4,2.3-0.8l0.3,2.2c-0.7,0.4-1.4,0.7-2.3,0.9c-0.8,0.2-1.7,0.3-2.5,0.3
		c-1.7,0-3.2-0.3-4.4-1c-1.2-0.7-2.2-1.6-2.9-2.8c-0.7-1.2-1-2.6-1-4.2C346,28.7,346.4,27.3,347.1,26z"/>
	<path class="st0" d="M378,37.8h-2.5l-0.1-2.8c-0.6,1-1.4,1.8-2.4,2.4c-1,0.6-2.1,0.9-3.4,0.9c-1.4,0-2.7-0.3-3.8-1
		c-1.1-0.7-2-1.7-2.6-2.9c-0.6-1.2-0.9-2.7-0.9-4.2c0-1.5,0.3-2.9,1-4.1c0.7-1.2,1.6-2.2,2.8-2.9c1.2-0.7,2.4-1.1,3.9-1.1
		c1.2,0,2.2,0.3,3.2,0.9c1,0.6,1.8,1.4,2.4,2.4l0.1-2.8h2.5V37.8z M365.6,33.2c0.5,0.9,1.1,1.6,1.9,2.1c0.8,0.5,1.7,0.7,2.8,0.7
		c1.1,0,2-0.2,2.8-0.7c0.8-0.5,1.4-1.2,1.9-2.1c0.5-0.9,0.7-1.9,0.7-3c0-1.1-0.2-2.2-0.7-3c-0.4-0.9-1.1-1.6-1.9-2.1
		s-1.7-0.7-2.8-0.7c-1,0-2,0.2-2.8,0.7c-0.8,0.5-1.4,1.2-1.9,2.1c-0.4,0.9-0.7,1.9-0.7,3C364.9,31.3,365.1,32.3,365.6,33.2z"/>
	<path class="st0" d="M384.6,24.8h-3.5v-2.2h3.5v-4.4h2.6v4.4h5.4v2.2h-5.4v7.6c0,1.3,0.2,2.3,0.7,2.8c0.5,0.6,1.2,0.9,2.2,0.9
		c1,0,2-0.3,3-0.8l0.3,2.2c-0.5,0.3-1,0.5-1.7,0.6c-0.7,0.2-1.3,0.2-2.1,0.2c-1.7,0-3-0.5-3.8-1.4c-0.8-0.9-1.2-2.4-1.2-4.4V24.8z"
		/>
	<path class="st0" d="M404.4,38.3c-1.7,0-3.2-0.3-4.5-1c-1.3-0.7-2.2-1.6-2.9-2.8c-0.7-1.2-1-2.7-1-4.3c0-1.6,0.3-3,1-4.3
		c0.7-1.2,1.5-2.2,2.7-2.9c1.1-0.7,2.4-1.1,3.9-1.1c1.4,0,2.6,0.3,3.6,0.9c1,0.6,1.8,1.5,2.4,2.6c0.6,1.1,0.9,2.4,0.9,3.9
		c0,0.3,0,0.5,0,0.7c0,0.2,0,0.5,0,0.7h-11.9c0.2,1.6,0.8,2.8,1.8,3.7c1,0.9,2.4,1.3,4.2,1.3c1.8,0,3.6-0.4,5.3-1.3L410,37
		c-0.7,0.4-1.5,0.8-2.6,1C406.5,38.2,405.4,38.3,404.4,38.3z M403.3,24.3c-1.3,0-2.4,0.4-3.3,1.3c-0.9,0.8-1.4,2-1.6,3.4h9.4
		c0-0.2,0-0.4-0.1-0.6c-0.2-1.3-0.6-2.3-1.4-3C405.6,24.6,404.6,24.3,403.3,24.3z"/>
	<path class="st0" d="M430.3,37.8h-2.5l-0.1-2.8c-0.6,1-1.4,1.8-2.4,2.4c-1,0.6-2.1,0.9-3.4,0.9c-1.4,0-2.7-0.3-3.8-1
		c-1.1-0.7-2-1.7-2.6-2.9c-0.6-1.2-0.9-2.7-0.9-4.2c0-1.5,0.3-2.9,1-4.1c0.7-1.2,1.6-2.2,2.8-2.9c1.2-0.7,2.4-1.1,3.9-1.1
		c1.2,0,2.2,0.3,3.2,0.9c1,0.6,1.8,1.4,2.4,2.4V13.1h2.6V37.8z M417.8,33.2c0.5,0.9,1.1,1.6,1.9,2.1c0.8,0.5,1.7,0.7,2.8,0.7
		c1.1,0,2-0.2,2.8-0.7c0.8-0.5,1.4-1.2,1.9-2.1c0.5-0.9,0.7-1.9,0.7-3c0-1.1-0.2-2.2-0.7-3c-0.4-0.9-1.1-1.6-1.9-2.1
		s-1.7-0.7-2.8-0.7c-1,0-2,0.2-2.8,0.7c-0.8,0.5-1.4,1.2-1.9,2.1c-0.4,0.9-0.7,1.9-0.7,3C417.2,31.3,417.4,32.3,417.8,33.2z"/>
	<path class="st1" d="M28.9,34.3l8.3-1.9c0.1,0,0.2-0.1,0.4-0.2c0.1-0.1,0.2-0.2,0.3-0.3s0.1-0.2,0.1-0.4c0-0.1,0-0.3,0-0.4
		l-3.5-15.3c-0.1-0.3-0.2-0.5-0.4-0.6c-0.2-0.1-0.5-0.2-0.7-0.1l-8.3,1.9c-0.3,0.1-0.5,0.2-0.6,0.4c-0.1,0.2-0.2,0.5-0.1,0.7
		l3.5,15.3c0.1,0.3,0.2,0.5,0.4,0.6C28.4,34.3,28.6,34.4,28.9,34.3z"/>
	<path class="st1" d="M26,43.8l10.1-9.3c0.4-0.4,0.3-0.6-0.2-0.4l-6.9,1.6c-0.3,0.1-0.6,0.2-0.8,0.4c-0.2,0.2-0.4,0.5-0.5,0.7
		l-2.1,6.8C25.5,44,25.6,44.2,26,43.8z"/>
	<path class="st1" d="M7.7,40.7l15.1,4.7c0.3,0,0.5,0,0.8-0.1c0.2-0.1,0.4-0.3,0.5-0.6l2.5-8.1c0-0.1,0-0.3,0-0.4
		c0-0.1-0.1-0.3-0.1-0.4c-0.1-0.1-0.1-0.2-0.3-0.3c-0.1-0.1-0.2-0.1-0.3-0.2l-15.1-4.6c-0.3-0.1-0.5,0-0.8,0.1
		c-0.2,0.1-0.4,0.3-0.5,0.6L7,39.5c-0.1,0.3,0,0.5,0.1,0.8C7.2,40.5,7.4,40.7,7.7,40.7z"/>
	<path class="st1" d="M2.8,24.2l3.1,13.4c0.1,0.5,0.3,0.5,0.5,0l2.1-6.8c0.1-0.3,0.1-0.6,0-0.9c-0.1-0.3-0.2-0.6-0.4-0.8l-4.8-5.2
		C2.9,23.5,2.6,23.6,2.8,24.2z"/>
	<path class="st1" d="M14.6,9.9L3,20.6c-0.2,0.2-0.3,0.4-0.3,0.7s0.1,0.5,0.3,0.7l5.8,6.2c0.2,0.2,0.4,0.3,0.7,0.3
		c0.3,0,0.5-0.1,0.7-0.3l11.5-10.7c0.2-0.2,0.3-0.4,0.3-0.7c0-0.3-0.1-0.5-0.3-0.7L16,9.9c-0.1-0.1-0.2-0.2-0.3-0.2
		c-0.1-0.1-0.2-0.1-0.4-0.1s-0.3,0-0.4,0.1C14.8,9.7,14.7,9.8,14.6,9.9z"/>
	<path class="st1" d="M25.7,34.1c0.5,0.1,0.9-0.1,0.7-0.7l-3.3-14.5c-0.1-0.5-0.6-0.7-1-0.3L11.3,28.7c-0.4,0.4-0.3,0.8,0.2,1
		L25.7,34.1z"/>
	<path class="st1" d="M31.4,13.9l-13.2-4c-0.5-0.1-0.6,0-0.2,0.5l4.8,5.2c0.2,0.2,0.5,0.3,0.8,0.4c0.3,0.1,0.6,0.1,0.9,0l6.9-1.6
		C31.9,14.3,31.9,14,31.4,13.9z"/>
	<path class="st0" d="M178.2,17.5v-3.3H177v-0.6h3.2v0.6H179v3.3H178.2z M180.9,17.5l0.2-3.9h0.7l1.2,2.5l1.2-2.5h0.7l0.2,3.9h-0.7
		l-0.1-2.9l-1.1,2.2h-0.5l-1.1-2.2l-0.1,2.9H180.9z"/>
</g>
</svg>
