<?xml version="1.0" encoding="utf-8"?>
<!-- Generator: Adobe Illustrator 26.3.1, SVG Export Plug-In . SVG Version: 6.00 Build 0)  -->
<svg version="1.1" id="Layer_1" xmlns="http://www.w3.org/2000/svg" xmlns:xlink="http://www.w3.org/1999/xlink" x="0px" y="0px"
	 viewBox="0 0 433 55" style="enable-background:new 0 0 433 55;" xml:space="preserve">
<style type="text/css">
	.st0{fill:#020A47;}
	.st1{fill-rule:evenodd;clip-rule:evenodd;fill:#020A47;}
</style>
<g>
	<path class="st0" d="M54.2,21.7h5.9v16.7h-5.9V21.7z M54.8,18.2c-0.6-0.6-0.9-1.3-0.9-2.2c0-0.9,0.3-1.7,0.9-2.2
		c0.6-0.6,1.4-0.9,2.4-0.9s1.7,0.3,2.3,0.9c0.6,0.6,0.9,1.3,0.9,2.2c0,0.9-0.3,1.6-0.9,2.2c-0.6,0.6-1.4,0.9-2.3,0.9
		S55.4,18.8,54.8,18.2z"/>
	<path class="st0" d="M64,21.7h5.7l0.1,2.1c0.5-0.8,1.1-1.5,1.9-1.9c0.8-0.5,1.8-0.7,2.9-0.7c1.9,0,3.3,0.6,4.3,1.8
		c1,1.2,1.5,2.9,1.5,5.3v10.2h-5.9v-9.1c0-2-0.7-3-2.2-3c-0.8,0-1.4,0.3-1.8,0.8c-0.4,0.5-0.6,1.3-0.6,2.3v8.9H64V21.7z"/>
	<path class="st0" d="M86,26.4h-2.7v-4.7H86v-1.6c0-2.6,0.6-4.6,1.9-6c1.3-1.4,3.1-2.1,5.4-2.1c0.7,0,1.3,0.1,1.9,0.2
		c0.6,0.1,1.1,0.2,1.5,0.4l-0.3,4.9c-0.2-0.1-0.5-0.2-0.9-0.3c-0.3-0.1-0.6-0.1-0.9-0.1c-1.8,0-2.7,1.1-2.7,3.4v1.2h4v4.7h-4v12H86
		V26.4z M98.4,12.2h5.9v26.3h-5.9V12.2z"/>
	<path class="st0" d="M124.4,38.5h-5.8l-0.1-2c-0.4,0.8-1.1,1.5-1.9,1.9c-0.9,0.4-1.9,0.6-3,0.6c-1.8,0-3.2-0.6-4.2-1.8
		c-1-1.2-1.5-2.9-1.5-5.2V21.7h5.9v9.1c0,1.9,0.8,2.9,2.3,2.9c0.8,0,1.4-0.3,1.8-0.8c0.4-0.6,0.6-1.4,0.6-2.4v-8.9h5.9V38.5z"/>
	<path class="st0" d="M133.2,29.8l-5.8-8.1h6.6l2.7,4.5l2.7-4.5h6.2l-5.7,8.1l6.1,8.6h-6.6l-3-5.1l-3,5.1h-6.2L133.2,29.8z"/>
	<path class="st0" d="M165.2,38.5h-2.7l-0.1-3c-0.6,1.1-1.5,2-2.6,2.6c-1.1,0.6-2.3,0.9-3.6,0.9c-1.5,0-2.8-0.4-4-1.1
		c-1.2-0.7-2.1-1.8-2.8-3c-0.7-1.3-1-2.8-1-4.5c0-1.6,0.4-3,1.1-4.3c0.7-1.3,1.7-2.4,3-3.1c1.2-0.8,2.6-1.2,4.1-1.2
		c1.2,0,2.4,0.3,3.4,0.9c1,0.6,1.9,1.5,2.5,2.6v-13h2.8V38.5z M152,33.6c0.5,0.9,1.2,1.7,2,2.2c0.9,0.5,1.8,0.8,3,0.8
		c1.1,0,2.1-0.3,3-0.8c0.8-0.5,1.5-1.2,2-2.2c0.5-0.9,0.7-2,0.7-3.2c0-1.2-0.2-2.3-0.7-3.2c-0.5-0.9-1.1-1.7-2-2.2
		c-0.8-0.5-1.8-0.8-3-0.8c-1.1,0-2.1,0.3-3,0.8c-0.8,0.5-1.5,1.2-2,2.2c-0.5,0.9-0.7,2-0.7,3.2C151.3,31.6,151.5,32.6,152,33.6z"/>
	<path class="st0" d="M171.1,12.2h2.8v13c0.6-1.1,1.5-2,2.6-2.6c1.1-0.6,2.3-0.9,3.6-0.9c1.5,0,2.9,0.4,4,1.1c1.2,0.7,2.1,1.8,2.8,3
		c0.7,1.3,1,2.8,1,4.5c0,1.6-0.4,3.1-1.1,4.4c-0.7,1.3-1.7,2.3-2.9,3.1c-1.2,0.8-2.6,1.1-4.1,1.1c-1.3,0-2.4-0.3-3.5-0.9
		c-1-0.6-1.8-1.5-2.4-2.6l-0.1,3h-2.7V12.2z M184.2,27.1c-0.5-0.9-1.1-1.7-2-2.2c-0.8-0.5-1.8-0.8-3-0.8c-1.1,0-2.1,0.3-3,0.8
		c-0.8,0.5-1.5,1.2-2,2.2c-0.5,0.9-0.7,2-0.7,3.2c0,1.2,0.2,2.3,0.7,3.2c0.5,0.9,1.2,1.7,2,2.2c0.9,0.5,1.8,0.8,3,0.8
		c1.1,0,2.1-0.3,3-0.8c0.8-0.5,1.5-1.2,2-2.2c0.5-0.9,0.7-2,0.7-3.2C185,29.1,184.7,28.1,184.2,27.1z"/>
	<path class="st0" d="M199.8,25.9c0.7-1.3,1.8-2.3,3.1-3c1.3-0.7,2.9-1.1,4.6-1.1c0.8,0,1.7,0.1,2.5,0.3c0.8,0.2,1.6,0.5,2.3,0.9
		l-0.4,2.4c-0.6-0.3-1.3-0.6-2.1-0.8c-0.8-0.2-1.6-0.3-2.3-0.3c-1.8,0-3.2,0.6-4.3,1.7c-1.1,1.1-1.6,2.5-1.6,4.4
		c0,1.9,0.6,3.4,1.7,4.5c1.1,1.1,2.6,1.6,4.5,1.6c0.7,0,1.4-0.1,2.2-0.3c0.8-0.2,1.6-0.4,2.4-0.8l0.3,2.3c-0.7,0.4-1.5,0.7-2.4,0.9
		c-0.9,0.2-1.8,0.3-2.7,0.3c-1.8,0-3.4-0.3-4.7-1c-1.3-0.7-2.3-1.7-3.1-2.9c-0.7-1.3-1.1-2.8-1.1-4.5
		C198.6,28.7,199,27.2,199.8,25.9z"/>
	<path class="st0" d="M217.3,12.2h2.8v26.3h-2.8V12.2z"/>
	<path class="st0" d="M240.6,34.7c-0.8,1.3-1.8,2.3-3.1,3.1c-1.3,0.8-2.7,1.1-4.3,1.1c-1.6,0-3.1-0.4-4.3-1.1
		c-1.3-0.8-2.3-1.8-3-3.1c-0.7-1.3-1.1-2.8-1.1-4.4c0-1.6,0.4-3.1,1.1-4.4c0.8-1.3,1.8-2.3,3-3.1c1.3-0.8,2.7-1.2,4.3-1.2
		c1.6,0,3.1,0.4,4.3,1.1c1.3,0.8,2.3,1.8,3,3.1c0.7,1.3,1.1,2.8,1.1,4.4C241.7,32,241.3,33.4,240.6,34.7z M228.3,33.6
		c0.5,0.9,1.2,1.7,2,2.2c0.9,0.5,1.8,0.8,3,0.8c1.1,0,2.1-0.3,3-0.8c0.8-0.5,1.5-1.2,2-2.2c0.5-0.9,0.7-2,0.7-3.2
		c0-1.2-0.2-2.3-0.7-3.2c-0.5-0.9-1.1-1.7-2-2.2c-0.8-0.5-1.8-0.8-3-0.8c-1.1,0-2.1,0.3-3,0.8c-0.8,0.5-1.5,1.2-2,2.2
		c-0.5,0.9-0.7,2-0.7,3.2C227.5,31.6,227.8,32.6,228.3,33.6z"/>
	<path class="st0" d="M260.3,38.5h-2.6l-0.1-2.8c-0.4,1.1-1.1,1.9-2.1,2.5c-1,0.6-2.1,0.8-3.5,0.8c-1.8,0-3.3-0.6-4.2-1.7
		c-1-1.1-1.5-2.7-1.5-4.8V22.2h2.8v9.5c0,1.7,0.3,2.9,0.9,3.7c0.6,0.7,1.6,1.1,3,1.1c1.4,0,2.5-0.5,3.3-1.4c0.8-1,1.2-2.3,1.2-3.9
		v-9h2.8V38.5z"/>
	<path class="st0" d="M281.7,38.5H279l-0.1-3c-0.6,1.1-1.5,2-2.6,2.6c-1.1,0.6-2.3,0.9-3.6,0.9c-1.5,0-2.8-0.4-4-1.1
		c-1.2-0.7-2.1-1.8-2.8-3c-0.7-1.3-1-2.8-1-4.5c0-1.6,0.4-3,1.1-4.3c0.7-1.3,1.7-2.4,3-3.1c1.2-0.8,2.6-1.2,4.1-1.2
		c1.2,0,2.4,0.3,3.4,0.9c1,0.6,1.9,1.5,2.5,2.6v-13h2.8V38.5z M268.5,33.6c0.5,0.9,1.2,1.7,2,2.2c0.9,0.5,1.8,0.8,3,0.8
		c1.1,0,2.1-0.3,3-0.8c0.8-0.5,1.5-1.2,2-2.2c0.5-0.9,0.7-2,0.7-3.2c0-1.2-0.2-2.3-0.7-3.2c-0.5-0.9-1.1-1.7-2-2.2
		c-0.8-0.5-1.8-0.8-3-0.8c-1.1,0-2.1,0.3-3,0.8c-0.8,0.5-1.5,1.2-2,2.2c-0.5,0.9-0.7,2-0.7,3.2C267.8,31.6,268,32.6,268.5,33.6z"/>
	<path class="st0" d="M303.6,37.7c-1.2,0.9-2.8,1.3-4.8,1.3c-1,0-2-0.1-3-0.4c-1-0.3-1.8-0.6-2.4-1.1l0.4-2.4
		c0.7,0.5,1.5,0.9,2.4,1.2c0.9,0.3,1.8,0.5,2.6,0.5c1.2,0,2.2-0.2,2.8-0.6c0.7-0.4,1-1,1-1.8c0-0.5-0.1-0.9-0.3-1.2
		c-0.2-0.3-0.6-0.6-1.2-0.9c-0.6-0.3-1.4-0.6-2.4-0.9c-1.8-0.5-3.1-1.2-3.9-1.9c-0.8-0.8-1.2-1.7-1.2-3c0-1.5,0.5-2.6,1.6-3.5
		c1.1-0.9,2.6-1.3,4.5-1.3c0.9,0,1.8,0.1,2.7,0.4c0.9,0.2,1.6,0.5,2.2,0.9l-0.5,2.3c-1.4-0.9-2.9-1.3-4.5-1.3
		c-1.1,0-1.9,0.2-2.5,0.6c-0.6,0.4-0.9,0.9-0.9,1.6c0,0.7,0.2,1.2,0.7,1.6c0.5,0.4,1.4,0.8,2.8,1.2c2.1,0.6,3.5,1.3,4.3,2.1
		c0.8,0.8,1.3,1.8,1.3,3.1C305.4,35.6,304.8,36.8,303.6,37.7z"/>
	<path class="st0" d="M317.6,39c-1.8,0-3.4-0.3-4.8-1c-1.3-0.7-2.4-1.7-3.1-3c-0.7-1.3-1.1-2.8-1.1-4.6c0-1.7,0.3-3.2,1-4.5
		c0.7-1.3,1.6-2.3,2.9-3c1.2-0.8,2.6-1.1,4.2-1.1c1.5,0,2.7,0.3,3.8,1c1.1,0.7,2,1.6,2.6,2.8c0.6,1.2,0.9,2.6,0.9,4.2
		c0,0.3,0,0.5,0,0.8c0,0.2,0,0.5,0,0.7h-12.6c0.2,1.7,0.8,3,1.9,3.9c1.1,0.9,2.6,1.4,4.4,1.4c1.9,0,3.8-0.4,5.6-1.3l0.3,2.3
		c-0.7,0.5-1.6,0.8-2.7,1.1C319.9,38.9,318.8,39,317.6,39z M316.5,24.1c-1.4,0-2.6,0.4-3.5,1.3c-0.9,0.9-1.5,2.1-1.7,3.6h10
		c0-0.2,0-0.5-0.1-0.7c-0.2-1.4-0.7-2.4-1.5-3.2C318.9,24.5,317.8,24.1,316.5,24.1z"/>
	<path class="st0" d="M326.4,22.2h3l5.1,13.2l5.1-13.2h2.8l-6.6,16.2h-2.7L326.4,22.2z"/>
	<path class="st0" d="M353.2,39c-1.8,0-3.4-0.3-4.8-1c-1.3-0.7-2.4-1.7-3.1-3c-0.7-1.3-1.1-2.8-1.1-4.6c0-1.7,0.3-3.2,1-4.5
		c0.7-1.3,1.6-2.3,2.9-3c1.2-0.8,2.6-1.1,4.2-1.1c1.5,0,2.7,0.3,3.8,1c1.1,0.7,2,1.6,2.6,2.8c0.6,1.2,0.9,2.6,0.9,4.2
		c0,0.3,0,0.5,0,0.8c0,0.2,0,0.5,0,0.7H347c0.2,1.7,0.8,3,1.9,3.9c1.1,0.9,2.6,1.4,4.4,1.4c1.9,0,3.8-0.4,5.6-1.3l0.3,2.3
		c-0.7,0.5-1.6,0.8-2.7,1.1C355.5,38.9,354.4,39,353.2,39z M352.1,24.1c-1.4,0-2.6,0.4-3.5,1.3c-0.9,0.9-1.5,2.1-1.7,3.6h10
		c0-0.2,0-0.5-0.1-0.7c-0.2-1.4-0.7-2.4-1.5-3.2C354.6,24.5,353.5,24.1,352.1,24.1z"/>
	<path class="st0" d="M364.7,22.2h2.6l0,3.4c0.5-1.1,1.1-2,2-2.6c0.9-0.6,1.8-1,3-1c0.3,0,0.7,0,1,0.1c0.4,0.1,0.7,0.2,0.9,0.3
		l-0.3,2.6c-0.3-0.1-0.6-0.2-0.9-0.3c-0.3-0.1-0.7-0.1-1-0.1c-1.4,0-2.5,0.5-3.3,1.6c-0.8,1-1.2,2.5-1.2,4.3v8h-2.8V22.2z"/>
	<path class="st0" d="M378.2,12.2h2.8v26.3h-2.8V12.2z"/>
	<path class="st0" d="M394.6,39c-1.8,0-3.4-0.3-4.8-1c-1.3-0.7-2.4-1.7-3.1-3c-0.7-1.3-1.1-2.8-1.1-4.6c0-1.7,0.3-3.2,1-4.5
		c0.7-1.3,1.6-2.3,2.9-3c1.2-0.8,2.6-1.1,4.2-1.1c1.5,0,2.7,0.3,3.8,1c1.1,0.7,2,1.6,2.6,2.8c0.6,1.2,0.9,2.6,0.9,4.2
		c0,0.3,0,0.5,0,0.8c0,0.2,0,0.5,0,0.7h-12.6c0.2,1.7,0.8,3,1.9,3.9c1.1,0.9,2.6,1.4,4.4,1.4c1.9,0,3.8-0.4,5.6-1.3l0.3,2.3
		c-0.7,0.5-1.6,0.8-2.7,1.1C396.9,38.9,395.8,39,394.6,39z M393.5,24.1c-1.4,0-2.6,0.4-3.5,1.3c-0.9,0.9-1.5,2.1-1.7,3.6h10
		c0-0.2,0-0.5-0.1-0.7c-0.2-1.4-0.7-2.4-1.5-3.2C395.9,24.5,394.8,24.1,393.5,24.1z"/>
	<path class="st0" d="M415.2,37.7c-1.2,0.9-2.8,1.3-4.8,1.3c-1,0-2-0.1-3-0.4c-1-0.3-1.8-0.6-2.4-1.1l0.4-2.4
		c0.7,0.5,1.5,0.9,2.4,1.2c0.9,0.3,1.8,0.5,2.6,0.5c1.2,0,2.2-0.2,2.8-0.6c0.7-0.4,1-1,1-1.8c0-0.5-0.1-0.9-0.3-1.2
		c-0.2-0.3-0.6-0.6-1.2-0.9c-0.6-0.3-1.4-0.6-2.4-0.9c-1.8-0.5-3.1-1.2-3.9-1.9c-0.8-0.8-1.2-1.7-1.2-3c0-1.5,0.5-2.6,1.6-3.5
		c1.1-0.9,2.6-1.3,4.5-1.3c0.9,0,1.8,0.1,2.7,0.4c0.9,0.2,1.6,0.5,2.2,0.9l-0.5,2.3c-1.4-0.9-2.9-1.3-4.5-1.3
		c-1.1,0-1.9,0.2-2.5,0.6c-0.6,0.4-0.9,0.9-0.9,1.6c0,0.7,0.2,1.2,0.7,1.6c0.5,0.4,1.4,0.8,2.8,1.2c2.1,0.6,3.5,1.3,4.3,2.1
		c0.8,0.8,1.3,1.8,1.3,3.1C417,35.6,416.4,36.8,415.2,37.7z"/>
	<path class="st0" d="M430.1,37.7c-1.2,0.9-2.8,1.3-4.8,1.3c-1,0-2-0.1-3-0.4c-1-0.3-1.8-0.6-2.4-1.1l0.4-2.4
		c0.7,0.5,1.5,0.9,2.4,1.2c0.9,0.3,1.8,0.5,2.6,0.5c1.2,0,2.2-0.2,2.8-0.6c0.7-0.4,1-1,1-1.8c0-0.5-0.1-0.9-0.3-1.2
		c-0.2-0.3-0.6-0.6-1.2-0.9c-0.6-0.3-1.4-0.6-2.4-0.9c-1.8-0.5-3.1-1.2-3.9-1.9c-0.8-0.8-1.2-1.7-1.2-3c0-1.5,0.5-2.6,1.6-3.5
		c1.1-0.9,2.6-1.3,4.5-1.3c0.9,0,1.8,0.1,2.7,0.4c0.9,0.2,1.6,0.5,2.2,0.9l-0.5,2.3c-1.4-0.9-2.9-1.3-4.5-1.3
		c-1.1,0-1.9,0.2-2.5,0.6c-0.6,0.4-0.9,0.9-0.9,1.6c0,0.7,0.2,1.2,0.7,1.6c0.5,0.4,1.4,0.8,2.8,1.2c2.1,0.6,3.5,1.3,4.3,2.1
		c0.8,0.8,1.3,1.8,1.3,3.1C432,35.6,431.4,36.8,430.1,37.7z"/>
	<path class="st1" d="M28.8,34.7l8.8-2c0.1,0,0.3-0.1,0.4-0.2c0.1-0.1,0.2-0.2,0.3-0.3c0.1-0.1,0.1-0.3,0.1-0.4c0-0.1,0-0.3,0-0.4
		l-3.7-16.2c-0.1-0.3-0.2-0.5-0.5-0.6c-0.2-0.1-0.5-0.2-0.8-0.1l-8.8,2c-0.3,0.1-0.5,0.2-0.6,0.5c-0.1,0.2-0.2,0.5-0.1,0.8L27.5,34
		c0.1,0.3,0.2,0.5,0.5,0.6C28.2,34.7,28.5,34.8,28.8,34.7z"/>
	<path class="st1" d="M25.8,44.8l10.7-9.9c0.4-0.4,0.3-0.7-0.3-0.5l-7.3,1.7c-0.3,0.1-0.6,0.2-0.8,0.4c-0.2,0.2-0.4,0.5-0.5,0.8
		l-2.2,7.2C25.1,45,25.3,45.2,25.8,44.8z"/>
	<path class="st1" d="M6.3,41.5l16,4.9c0.3,0.1,0.6,0,0.8-0.1c0.2-0.1,0.4-0.4,0.5-0.6l2.7-8.6c0-0.1,0.1-0.3,0-0.4
		c0-0.1-0.1-0.3-0.1-0.4c-0.1-0.1-0.2-0.2-0.3-0.3c-0.1-0.1-0.2-0.2-0.4-0.2l-16-4.9c-0.3-0.1-0.6,0-0.8,0.1
		c-0.2,0.1-0.4,0.4-0.5,0.6l-2.7,8.6c-0.1,0.3,0,0.6,0.1,0.8C5.8,41.3,6,41.4,6.3,41.5z"/>
	<path class="st1" d="M1.1,24l3.2,14.2c0.1,0.6,0.4,0.6,0.5,0L7.1,31c0.1-0.3,0.1-0.6,0-0.9c-0.1-0.3-0.2-0.6-0.4-0.8l-5.1-5.5
		C1.2,23.3,0.9,23.4,1.1,24z"/>
	<path class="st1" d="M13.6,8.8L1.4,20.1c-0.2,0.2-0.3,0.4-0.3,0.7c0,0.3,0.1,0.5,0.3,0.7l6.1,6.6c0.2,0.2,0.4,0.3,0.7,0.3
		c0.3,0,0.5-0.1,0.7-0.3l12.2-11.4c0.2-0.2,0.3-0.4,0.3-0.7c0-0.3-0.1-0.5-0.3-0.7l-6.1-6.6c-0.1-0.1-0.2-0.2-0.3-0.2
		c-0.1-0.1-0.3-0.1-0.4-0.1c-0.1,0-0.3,0-0.4,0.1C13.8,8.6,13.7,8.7,13.6,8.8z"/>
	<path class="st1" d="M25.4,34.5c0.6,0.2,0.9-0.1,0.8-0.7l-3.5-15.3c-0.2-0.6-0.6-0.7-1-0.3L10.1,28.8c-0.4,0.4-0.3,0.9,0.3,1
		L25.4,34.5z"/>
	<path class="st1" d="M31.5,13.1l-14-4.3c-0.6-0.2-0.7,0.1-0.2,0.5l5.1,5.5c0.2,0.2,0.5,0.4,0.8,0.5c0.3,0.1,0.6,0.1,0.9,0l7.3-1.7
		C32,13.5,32,13.2,31.5,13.1z"/>
	<path class="st0" d="M187.1,16.9v-3.4h-1.3v-0.7h3.3v0.7h-1.3v3.4H187.1z M189.9,16.9l0.2-4.1h0.8l1.3,2.6l1.3-2.6h0.8l0.2,4.1
		h-0.7l-0.1-3.1l-1.1,2.3h-0.6l-1.1-2.4l-0.1,3.1H189.9z"/>
</g>
</svg>
