<?xml version="1.0" encoding="utf-8"?>
<!-- Generator: Adobe Illustrator 19.1.0, SVG Export Plug-In . SVG Version: 6.00 Build 0)  -->
<svg version="1.1" id="InfluxData_Complete_Logo" xmlns="http://www.w3.org/2000/svg" xmlns:xlink="http://www.w3.org/1999/xlink"
	 x="0px" y="0px" viewBox="-18 251 590 112" style="enable-background:new -18 251 590 112;" xml:space="preserve">
<style type="text/css">
	.st0{fill:none;}
	.st1{fill:#FFFFFF;}
</style>
<rect id="Background" x="-18" y="251" class="st0" width="590" height="112"/>
<path id="Cuboctahedron" class="st1" d="M92.2,318.6l-10.7-46.5c-0.6-2.6-3-5.1-5.4-5.8l-48.9-15.1c-0.6-0.2-1.3-0.2-2-0.2
	c-2,0-4.2,0.8-5.7,2l-34.9,32.6c-1.9,1.7-3,5.1-2.4,7.6l11.4,49.8c0.6,2.6,3,5.1,5.4,5.8l45.7,14c0.6,0.2,1.3,0.2,2,0.2
	c2,0,4.2-0.8,5.7-2l37.4-34.7C91.8,324.5,92.7,321.2,92.2,318.6z M32.3,262.3l33.5,10.3c1.3,0.4,1.3,0.9,0,1.3l-17.6,4
	c-1.3,0.4-3.2-0.2-4.1-1.2l-12.3-13.2C30.7,262.4,30.9,262,32.3,262.3z M53.2,322.4c0.4,1.3-0.5,2-1.8,1.7L15.1,313
	c-1.3-0.4-1.5-1.4-0.6-2.5l27.7-25.7c0.9-0.9,2-0.6,2.5,0.7L53.2,322.4z M-6.5,289.6l29.4-27.4c0.9-0.9,2.6-0.8,3.5,0.1l14.8,15.9
	c0.9,0.9,0.8,2.6-0.1,3.5l-29.4,27.4c-0.9,0.9-2.6,0.8-3.5-0.1l-14.8-15.9C-7.6,292.1-7.5,290.5-6.5,289.6z M0.7,333l-7.8-34.1
	c-0.4-1.3,0.2-1.5,1.1-0.6l12.3,13.2c0.9,0.9,1.3,3,0.9,4.2L1.9,333C1.5,334.3,0.9,334.3,0.7,333z M43.6,353L5.3,341.2
	c-1.3-0.4-2-1.8-1.7-3.2l6.5-20.7c0.4-1.3,1.8-2,3.2-1.7l38.4,11.8c1.3,0.4,2,1.8,1.7,3.2l-6.5,20.5C46.4,352.5,45.1,353.3,43.6,353
	z M77.6,325L52,348.8c-0.9,0.9-1.4,0.6-1.1-0.7l5.3-17.2c0.4-1.3,1.8-2.7,3.2-3l17.6-4C78.5,323.5,78.7,324.2,77.6,325z M80.5,319.9
	l-21.1,4.8c-1.3,0.4-2.7-0.5-3.1-1.8l-9-39.1c-0.4-1.3,0.5-2.7,1.8-3.1l21.1-4.8c1.3-0.4,2.7,0.5,3.1,1.8l9,39.1
	C82.7,318.3,81.8,319.7,80.5,319.9z"/>
<g id="Logotype">
	<path class="st1" d="M408,335c-0.1,1.2,0.4,1.4,0.8,1.4h3c1.1,0,1.3-0.9,1.3-1.4l11.9-67.6c0.2-1.2-0.6-1.4-1.2-1.3l0,0l-3.2,0.5
		c-0.8,0.1-1.3,0.8-1.3,1.3l0,0l-3.4,19.7c-3.1-0.9-8.7-1.5-12-1.5c-12.6,0-18.6,4.8-21,18.3l-3.8,21.2c-0.2,1.3-0.4,2.6-0.4,3.7
		c0,6,3.4,8.4,9.7,8.4c7.2,0,14.5-3.4,20.3-8.3L408,335z M389,332.6c-3.1,0-4.6-0.8-4.6-4c0-0.8,0.1-1.7,0.4-3l3.5-20.3
		c1.9-11.1,5.7-14.2,14.9-14.2c4,0,7.9,0.6,11.9,1.5l-5.3,30C403.2,328.4,395.3,332.6,389,332.6z"/>
	<path class="st1" d="M458.2,335c-0.1,1.2,0.4,1.4,0.9,1.4h3c1.1,0,1.3-0.9,1.3-1.4l0,0l8.1-45.8c-5.8-2.2-12.5-3.3-17.1-3.3
		c-13.3,0-18.6,5.3-21,18.3l-3.8,21.2c-0.2,1.3-0.4,2.6-0.4,3.7c0,6,3.4,8.4,9.7,8.4c7.2,0,14.2-3.4,19.9-8.3L458.2,335z
		 M439.5,332.6c-3.1,0-4.6-0.8-4.6-4c0-0.8,0.1-1.7,0.4-3l3.5-20.3c1.9-11,5.4-14.2,14.9-14.2c4.1,0,8.9,0.8,11.7,1.5l-5.3,30
		C453.5,328.4,445.7,332.6,439.5,332.6z"/>
	<path class="st1" d="M539.4,335c-0.1,1.2,0.4,1.4,0.8,1.4h3c1.1,0,1.3-0.9,1.3-1.4l0,0l8.1-45.8c-5.8-2.2-12.5-3.3-17.1-3.3
		c-13.3,0-18.6,5.3-21,18.3l-3.8,21.2c-0.2,1.3-0.4,2.6-0.4,3.7c0,6,3.4,8.4,9.7,8.4c7.2,0,14.2-3.4,19.9-8.3L539.4,335z
		 M520.9,332.6c-3.1,0-4.6-0.8-4.6-4c0-0.8,0.1-1.7,0.4-3l3.5-20.3c1.9-11,5.4-14.2,14.9-14.2c4.1,0,8.9,0.8,11.7,1.5l-5.3,30
		C534.8,328.4,527,332.6,520.9,332.6z"/>
	<g>
		<path class="st1" d="M491.6,274.8L491.6,274.8L491.6,274.8z"/>
		<path class="st1" d="M508.6,291.1L508.6,291.1l0.7-3.3c0.2-0.8-0.2-0.8-0.7-0.8h-13.9l1.9-11.4l0,0c0.2-1.2-0.6-1.4-1.2-1.3l0,0
			l-3.2,0.5l0,0c-0.8,0.1-1.3,0.8-1.3,1.3l0,0l-1.9,11h-8.6c-0.2,0-0.9,0.1-1.1,0.8l-0.5,3.2l0,0c0,0.2,0,0.8,0.8,0.8h8.5l-6.6,37.2
			c-0.1,0.7-0.2,1.3-0.2,1.9c0,4.5,3.2,6.6,8.1,6.6c3.9,0,10.9-1.1,14.3-2.8c1.1-0.6,0.9-1.3,0.7-1.8l0,0l-0.7-1.9
			c-0.1-0.5-0.7-0.4-1.1-0.2l0,0c-3.4,1.3-5.3,2-12.3,2c-2.4,0-3.4-0.5-3.4-2.5c0-0.5,0.1-1.1,0.2-1.8l6.5-36.6h13.8
			C508.3,291.8,508.5,291.6,508.6,291.1z"/>
	</g>
	<path class="st1" d="M374.8,287h-14.2c-0.6,0-1.3,0.5-1.7,0.9l-10,14.8l-5.9-15.3c-0.4-0.8-1.1-1.1-1.8-0.9l-12.4,1.8l10.7,23.6
		l-19.7,24.9h13.3c0.8,0,2.2-0.5,2.8-1.2l9.2-11.2l5.2,11.2c0.2,0.6,1.1,1.2,1.9,1.2h13l-10.5-23L374.8,287z"/>
	<path class="st1" d="M313.5,335.6l8.5-48.5c0.1-0.9-0.6-0.9-1.2-0.8l-11.9,1.5c-1.3,0.2-1.7,1.1-1.7,1.5l0,0l-5.1,29.4
		c-3.7,1.8-10.1,4.7-12.9,4.7c-1.4,0-1.9-0.5-1.9-1.5c0-0.4,0.1-0.9,0.2-1.5l5.8-33.4l0,0c0.1-0.9-0.6-0.9-1.1-0.8l-11.9,1.7l0,0
		c-1.3,0.2-1.7,1.1-1.7,1.5l0,0l-5.7,32.3c-0.4,2-0.5,3.7-0.5,5.7c0,6.1,2.6,10,9.1,10c5.7,0,11.8-1.9,19.6-5.5l0.1,3.7
		c0,0.2,0.1,0.8,0.6,0.8h11C313.3,336.6,313.5,336,313.5,335.6z"/>
	<path class="st1" d="M195.7,285.9c-5.7,0-11.8,1.9-19.6,5.5l0.1-4.4c0-1.1-0.8-0.9-1.3-0.8l-9.3,1.5l0,0c-1.5,0.2-2,1.2-2.2,1.7
		l-7.8,44.7l0,0c-0.4,2-0.2,2.2,1.4,2.2h10.7c1.2,0,1.8,0,2.2-2.2l5.2-29.7c3.9-2,10.1-4.7,12.9-4.7c1.4,0,1.9,0.4,1.9,1.4
		c0,0.4-0.1,0.9-0.2,1.5l-5.4,31.5l0,0c-0.4,2-0.2,2.2,1.4,2.2h10.7c1.2,0,1.8,0,2.2-2.2l5.7-32.6c0.4-2.6,0.5-4,0.5-5.7
		C204.7,289.7,202.3,285.9,195.7,285.9z"/>
	<g>
		<path class="st1" d="M154.5,264.3l-11.9,1.7c-1.3,0.1-1.5,1.1-1.7,1.5l-2.2,12.4c-0.2,1.4-0.1,1.4,1.2,1.3l11.8-1.5l0,0
			c1.2-0.1,1.4-0.2,1.7-1.8l0,0l2.4-12.9C155.8,264.2,155.5,264.2,154.5,264.3z"/>
		<path class="st1" d="M137.2,288.1L137.2,288.1L137.2,288.1z"/>
		<path class="st1" d="M143.4,334.3L143.4,334.3l8.4-47.1c0.1-0.9-0.6-0.9-1.2-0.8l-11.9,1.5l0,0c-1.3,0.2-1.7,1.1-1.7,1.5l0,0
			l-8,45.2c-0.2,1.7,0,1.9,1.5,1.9h10.7C142.3,336.6,142.9,336.6,143.4,334.3z"/>
	</g>
	<path class="st1" d="M261,334.3l12-68.5c0.1-0.9-0.4-0.9-0.9-0.8l-13.7,2.4c-6.1-1.7-13.2-2.5-17.2-2.5c-12.7,0-17,4.4-19.1,15.8
		l-1.1,6.6h-5.5c-1.4,0-1.5,0.7-1.7,1.3l0,0l-1.7,9.4c-0.1,0.4,0.1,0.8,0.7,0.8h6.1l-6.7,37.9c-0.7,4.5-1.4,7.2-5.7,11.7l0,0
		c-0.8,0.8-0.6,1.1,0,1.5l0,0l7.6,7.1l0,0c0.7,0.7,1.1,0.6,1.9-0.2c7-7.1,9.1-11.8,10.3-18.3l7-39.5h11.1c0.6,0,0.7,0,0.9-0.7l0,0
		l2.6-9.9l0,0c0.2-0.7-0.5-0.9-0.9-0.9h-11.6l1.3-7.2c0.5-2.6,1.5-3.4,4.7-3.4c4.2,0,11.2,0.8,15.1,1.8l-9.8,56.2l0,0
		c-0.4,2-0.2,2.2,1.4,2.2h10.7C260.1,336.6,260.7,336.6,261,334.3z"/>
</g>
<g id="Trademark">
	<path class="st1" d="M559.4,274.8H558l1.2-6.8h-2.4l0.2-1.3h6l-0.2,1.3h-2.4L559.4,274.8z"/>
	<path class="st1" d="M570.1,269.5l-2.4,4.1h-1.5l-0.7-4.1l-1.2,5.2h-1.4l1.8-8.1h1.5l1.1,5.4l3.1-5.4h1.7l-0.9,8.1h-1.4
		L570.1,269.5z"/>
</g>
</svg>
