<svg width="169" height="93" viewBox="0 0 169 93" fill="none" xmlns="http://www.w3.org/2000/svg">
<path d="M5.741 58.4515C4.65826 58.4515 3.7392 58.099 2.98381 57.3939C2.25359 56.6889 1.88849 55.8328 1.88849 54.8256C1.88849 53.768 2.25359 52.8993 2.98381 52.2195C3.7392 51.5145 4.65826 51.1619 5.741 51.1619C6.82373 51.1619 7.7302 51.5145 8.46041 52.2195C9.19063 52.8993 9.55574 53.768 9.55574 54.8256C9.55574 55.8328 9.19063 56.6889 8.46041 57.3939C7.7302 58.099 6.82373 58.4515 5.741 58.4515ZM2.30395 81V61.5108H9.14027V81H2.30395ZM13.7381 81V61.5108H20.4611L20.5367 63.9281C21.0403 62.9713 21.7831 62.2285 22.7651 61.6997C23.7471 61.1709 24.8802 60.9065 26.1644 60.9065C28.355 60.9065 30.0169 61.6116 31.15 63.0216C32.3082 64.4065 32.8874 66.4461 32.8874 69.1403V81H26.0511V70.4245C26.0511 68.1331 25.1824 66.9874 23.445 66.9874C22.5133 66.9874 21.7957 67.3148 21.2921 67.9695C20.8137 68.5989 20.5745 69.5054 20.5745 70.6889V81H13.7381ZM39.346 81V66.9874H36.2111V61.5108H39.346V59.6223C39.346 56.6259 40.0762 54.3094 41.5366 52.6727C43.0223 51.036 45.1122 50.2177 47.8064 50.2177C48.587 50.2177 49.3172 50.2806 49.9971 50.4065C50.7021 50.5073 51.2938 50.6583 51.7722 50.8598L51.4323 56.5252C51.1553 56.3993 50.8154 56.3112 50.4125 56.2608C50.0348 56.1853 49.6823 56.1475 49.355 56.1475C48.2722 56.1475 47.4665 56.4623 46.9377 57.0918C46.4341 57.7213 46.1823 58.7159 46.1823 60.0756V61.5108H50.7902V66.9874H46.1823V81H39.346ZM53.8118 81V50.4065H60.6481V81H53.8118ZM71.6866 81.6043C69.5463 81.6043 67.9096 80.9245 66.7765 79.5648C65.6434 78.1799 65.0769 76.1655 65.0769 73.5216V61.5108H71.951V72.1241C71.951 73.2824 72.1524 74.1385 72.5553 74.6925C72.9834 75.2464 73.6506 75.5234 74.5571 75.5234C75.4636 75.5234 76.156 75.2086 76.6344 74.5792C77.138 73.9245 77.3898 73.0054 77.3898 71.822V61.5108H84.2261V81H77.5031L77.4276 78.5827C76.924 79.5396 76.1686 80.2824 75.1614 80.8112C74.1794 81.3399 73.0211 81.6043 71.6866 81.6043ZM87.3241 81L94.4248 70.9533L87.7018 61.5108H95.3313L98.504 66.7986L101.601 61.5108H108.853L102.168 71.0288L109.306 81H101.639L98.0885 75.1079L94.5759 81H87.3241ZM121.279 81.6043C119.542 81.6043 117.981 81.1763 116.596 80.3201C115.236 79.464 114.166 78.2806 113.385 76.7698C112.605 75.2338 112.214 73.4964 112.214 71.5576C112.214 69.6943 112.63 68.0072 113.461 66.4964C114.317 64.9605 115.463 63.7518 116.898 62.8705C118.333 61.9641 119.919 61.5108 121.657 61.5108C123.092 61.5108 124.401 61.8633 125.585 62.5684C126.793 63.2734 127.763 64.268 128.493 65.5522V50.4065H131.704V81H128.569L128.493 77.563C127.738 78.8471 126.743 79.8417 125.509 80.5468C124.275 81.2518 122.865 81.6043 121.279 81.6043ZM122.11 78.7338C123.419 78.7338 124.565 78.4317 125.547 77.8273C126.529 77.223 127.297 76.3795 127.851 75.2968C128.43 74.214 128.72 72.9676 128.72 71.5576C128.72 70.1475 128.43 68.9011 127.851 67.8184C127.297 66.7356 126.529 65.8921 125.547 65.2878C124.565 64.6835 123.419 64.3813 122.11 64.3813C120.826 64.3813 119.68 64.6835 118.673 65.2878C117.691 65.8921 116.91 66.7356 116.331 67.8184C115.777 68.9011 115.5 70.1475 115.5 71.5576C115.5 72.9676 115.777 74.214 116.331 75.2968C116.91 76.3795 117.691 77.223 118.673 77.8273C119.68 78.4317 120.826 78.7338 122.11 78.7338ZM148.554 81.6043C147.068 81.6043 145.721 81.2518 144.512 80.5468C143.329 79.8417 142.397 78.8471 141.718 77.563L141.642 81H138.507V50.4065H141.718V65.5522C142.473 64.268 143.468 63.2734 144.701 62.5684C145.935 61.8633 147.345 61.5108 148.932 61.5108C150.694 61.5108 152.255 61.9389 153.615 62.795C154.975 63.6511 156.045 64.8346 156.825 66.3454C157.606 67.8561 157.996 69.5935 157.996 71.5576C157.996 73.4209 157.568 75.1205 156.712 76.6565C155.881 78.1673 154.748 79.3759 153.313 80.2824C151.903 81.1637 150.316 81.6043 148.554 81.6043ZM148.101 78.7338C149.41 78.7338 150.556 78.4317 151.538 77.8273C152.52 77.223 153.288 76.3795 153.842 75.2968C154.421 74.214 154.71 72.9676 154.71 71.5576C154.71 70.1475 154.421 68.9011 153.842 67.8184C153.288 66.7356 152.52 65.8921 151.538 65.2878C150.556 64.6835 149.41 64.3813 148.101 64.3813C146.816 64.3813 145.671 64.6835 144.664 65.2878C143.682 65.8921 142.901 66.7356 142.322 67.8184C141.768 68.9011 141.491 70.1475 141.491 71.5576C141.491 72.9676 141.768 74.214 142.322 75.2968C142.901 76.3795 143.682 77.223 144.664 77.8273C145.671 78.4317 146.816 78.7338 148.101 78.7338Z" fill="#020A47"/>
<path fill-rule="evenodd" clip-rule="evenodd" d="M90.6913 30.5103L100.944 28.1595C101.102 28.1276 101.252 28.063 101.384 27.9701C101.515 27.8771 101.626 27.7577 101.709 27.6196C101.792 27.4814 101.846 27.3274 101.866 27.1676C101.886 27.0077 101.873 26.8453 101.827 26.6908L97.4662 7.77903C97.3875 7.46695 97.1882 7.19883 96.912 7.03347C96.6359 6.86811 96.3054 6.81902 95.9931 6.89696L85.7442 9.24775C85.4339 9.32734 85.1678 9.52654 85.0041 9.80178C84.8403 10.077 84.7923 10.4059 84.8704 10.7165L89.2182 29.6283C89.2969 29.9403 89.4962 30.2085 89.7724 30.3738C90.0485 30.5392 90.379 30.5883 90.6913 30.5103Z" fill="#020A47"/>
<path fill-rule="evenodd" clip-rule="evenodd" d="M87.1582 42.1967L99.5894 30.6875C100.058 30.2149 99.9398 29.9236 99.2939 30.1558L90.7504 32.0972C90.3971 32.1845 90.0715 32.3594 89.8037 32.6058C89.5359 32.8521 89.3345 33.162 89.2181 33.5068L86.6263 41.8464C86.4491 42.4921 86.6854 42.6694 87.1582 42.1967Z" fill="#020A47"/>
<path fill-rule="evenodd" clip-rule="evenodd" d="M64.4782 38.4405L83.0933 44.1929C83.4114 44.2522 83.7401 44.1964 84.0208 44.0356C84.3015 43.8748 84.5159 43.6194 84.6256 43.3151L87.745 33.3295C87.7902 33.1738 87.8041 33.0107 87.7861 32.8495C87.7681 32.6884 87.7185 32.5324 87.64 32.3904C87.5616 32.2485 87.4559 32.1234 87.3291 32.0224C87.2022 31.9214 87.0567 31.8464 86.9008 31.8017L68.2856 26.1041C67.9705 26.014 67.6325 26.0522 67.3454 26.2103C67.0584 26.3685 66.8455 26.6337 66.7534 26.9482L63.6551 36.9127C63.563 37.2244 63.5979 37.5598 63.7521 37.846C63.9062 38.1321 64.1672 38.3458 64.4782 38.4405Z" fill="#020A47"/>
<path fill-rule="evenodd" clip-rule="evenodd" d="M58.4672 18.0009L62.2409 34.5239C62.3591 35.1696 62.663 35.1696 62.8276 34.5239L65.4194 26.1843C65.5077 25.829 65.5113 25.4579 65.43 25.1009C65.3486 24.7439 65.1845 24.4109 64.9509 24.129L58.9991 17.7055C58.5854 17.2201 58.2773 17.3552 58.4672 18.0009Z" fill="#020A47"/>
<path fill-rule="evenodd" clip-rule="evenodd" d="M73.0217 0.338335L58.7628 13.5357C58.534 13.7534 58.3997 14.0521 58.3887 14.3677C58.3776 14.6833 58.4907 14.9906 58.7037 15.2238L65.8332 22.9346C66.0529 23.1676 66.3557 23.3045 66.6758 23.3156C66.9959 23.3267 67.3075 23.211 67.5427 22.9937L81.7974 9.77524C82.0282 9.55864 82.1639 9.25959 82.175 8.94333C82.186 8.62707 82.0716 8.31927 81.8565 8.08706L74.7397 0.380539C74.6303 0.264041 74.4987 0.170444 74.3528 0.105182C74.2068 0.0399191 74.0494 0.00429055 73.8896 0.000364196C73.7297 -0.00356216 73.5707 0.024292 73.4217 0.0823097C73.2728 0.140327 73.1368 0.227353 73.0217 0.338335Z" fill="#020A47"/>
<path fill-rule="evenodd" clip-rule="evenodd" d="M86.8038 30.2149C87.4538 30.3922 87.8633 30.0419 87.6902 29.3708L83.5662 11.5183C83.3889 10.8726 82.857 10.6954 82.3885 11.1638L68.9569 23.6394C68.4841 24.1079 68.6023 24.6355 69.2481 24.8127L86.8038 30.2149Z" fill="#020A47"/>
<path fill-rule="evenodd" clip-rule="evenodd" d="M93.8149 5.3143L77.5552 0.338402C76.9093 0.161143 76.7911 0.397488 77.3188 0.925043L83.2706 7.32745C83.5376 7.57699 83.8605 7.75894 84.2123 7.85807C84.564 7.9572 84.9345 7.97062 85.2925 7.89721L93.836 5.96003C94.465 5.78277 94.465 5.48734 93.8149 5.3143Z" fill="#020A47"/>
<path d="M159.011 55.93V51.913H157.516V51.12H161.416V51.913H159.934V55.93H159.011ZM162.248 55.93L162.495 51.12H163.392L164.861 54.175L166.356 51.12H167.253L167.5 55.93H166.681L166.525 52.368L165.199 55.098H164.549L163.21 52.342L163.067 55.93H162.248Z" fill="#020A47"/>
</svg>
