<?xml version="1.0" encoding="utf-8"?>
<!-- Generator: Adobe Illustrator 19.1.0, SVG Export Plug-In . SVG Version: 6.00 Build 0)  -->
<svg version="1.1" id="InfluxData_Complete_Logo" xmlns="http://www.w3.org/2000/svg" xmlns:xlink="http://www.w3.org/1999/xlink"
	 x="0px" y="0px" viewBox="-18 251 585 140" style="enable-background:new -18 251 585 140;" xml:space="preserve">
<style type="text/css">
	.st0{fill:none;}
	.st1{fill:#FFFFFF;}
	.st2{fill:#757888;}
</style>
<rect x="-18" y="251" class="st0" width="585" height="140"/>
<path id="Cuboctahedron" class="st1" d="M92,318.5l-10.7-46.4c-0.6-2.5-2.9-5.1-5.5-5.8l-48.7-15c-0.6-0.2-1.3-0.2-2.1-0.2
	c-2.1,0-4.2,0.8-5.7,2.1l-34.9,32.5c-1.9,1.7-2.9,5.1-2.3,7.5l11.4,49.7c0.6,2.5,2.9,5.1,5.5,5.8l45.6,14.2c0.6,0.2,1.3,0.2,2.1,0.2
	c2.1,0,4.2-0.8,5.7-2.1l37.3-34.7C91.6,324.3,92.6,321.1,92,318.5z M32.2,262.3l33.5,10.3c1.3,0.4,1.3,1,0,1.3l-17.6,4
	c-1.3,0.4-3.2-0.2-4.1-1.2l-12.2-13.2C30.7,262.4,30.9,261.9,32.2,262.3z M53.1,322.3c0.4,1.3-0.5,2.1-1.8,1.7l-36.1-11.2
	c-1.3-0.4-1.6-1.5-0.6-2.4l27.6-25.7c1-1,2.1-0.6,2.4,0.7L53.1,322.3z M-6.4,289.5l29.3-27.3c1-1,2.5-0.8,3.5,0.1l14.7,15.9
	c1,1,0.8,2.5-0.1,3.5l-29.3,27.3c-1,1-2.5,0.8-3.5-0.1l-14.7-15.9C-7.5,292-7.4,290.4-6.4,289.5z M0.7,332.8L-7,298.8
	c-0.4-1.3,0.2-1.6,1.1-0.6l12.2,13.2c1,1,1.3,2.9,1,4.2l-5.3,17.2C1.6,334.2,1,334.2,0.7,332.8z M43.6,352.8L5.3,340.9
	c-1.3-0.4-2.1-1.8-1.7-3.2l6.4-20.6c0.4-1.3,1.8-2.1,3.2-1.7l38.3,11.8c1.3,0.4,2.1,1.8,1.7,3.2L46.8,351
	C46.3,352.3,45,353.1,43.6,352.8z M77.6,324.9L52,348.7c-1,1-1.5,0.6-1.1-0.7l5.3-17.2c0.4-1.3,1.8-2.7,3.2-2.9l17.6-4
	C78.3,323.4,78.5,324,77.6,324.9z M80.4,319.7l-21.1,4.8c-1.3,0.4-2.7-0.5-3-1.8l-9-39c-0.4-1.3,0.5-2.7,1.8-3l21.1-4.8
	c1.3-0.4,2.7,0.5,3,1.8l9,39C82.5,318.2,81.7,319.5,80.4,319.7z"/>
<g id="Type">
	<path class="st1" d="M407.1,334.9c-0.1,1.2,0.4,1.5,0.8,1.5h2.9c1.1,0,1.3-1,1.3-1.5l11.9-67.5c0.2-1.2-0.6-1.5-1.2-1.3l0,0
		l-3.2,0.5c-0.8,0.1-1.3,0.8-1.3,1.3l0,0l-3.4,19.6c-3-1-8.7-1.6-12-1.6c-12.6,0-18.7,4.8-21,18.3l-3.8,21.2
		c-0.2,1.3-0.4,2.5-0.4,3.6c0,6.1,3.4,8.4,9.7,8.4c7.2,0,14.5-3.4,20.2-8.2L407.1,334.9z M388.2,332.3c-3,0-4.6-0.8-4.6-4
		c0-0.8,0.1-1.7,0.4-2.9l3.5-20.2c1.9-11,5.7-14.2,14.8-14.2c4,0,7.9,0.6,11.9,1.6l-5.3,29.9C402.4,328.2,394.5,332.3,388.2,332.3z"
		/>
	<path class="st1" d="M457.3,334.9c-0.1,1.2,0.4,1.5,1,1.5h2.9c1.1,0,1.3-1,1.3-1.5l0,0l8.1-45.7c-5.8-2.2-12.5-3.3-17.1-3.3
		c-13.3,0-18.7,5.3-21,18.3l-3.8,21.2c-0.2,1.3-0.4,2.5-0.4,3.6c0,6.1,3.4,8.4,9.7,8.4c7.2,0,14.2-3.4,19.9-8.2L457.3,334.9z
		 M438.7,332.3c-3,0-4.6-0.8-4.6-4c0-0.8,0.1-1.7,0.4-2.9l3.5-20.2c1.9-10.9,5.5-14.2,14.8-14.2c4.1,0,8.8,0.8,11.6,1.6l-5.3,29.9
		C452.6,328.2,444.8,332.3,438.7,332.3z"/>
	<path class="st1" d="M538.4,334.9c-0.1,1.2,0.4,1.5,0.8,1.5h2.9c1.1,0,1.3-1,1.3-1.5l0,0l8.1-45.7c-5.8-2.2-12.5-3.3-17.1-3.3
		c-13.3,0-18.7,5.3-21,18.3l-3.8,21.2c-0.2,1.3-0.4,2.5-0.4,3.6c0,6.1,3.4,8.4,9.7,8.4c7.2,0,14.2-3.4,19.9-8.2L538.4,334.9z
		 M519.9,332.3c-3,0-4.6-0.8-4.6-4c0-0.8,0.1-1.7,0.4-2.9l3.5-20.2c1.9-10.9,5.5-14.2,14.8-14.2c4.1,0,8.8,0.8,11.6,1.6l-5.3,29.9
		C533.8,328.2,526.1,332.3,519.9,332.3z"/>
	<g>
		<path class="st1" d="M490.7,274.8L490.7,274.8L490.7,274.8z"/>
		<path class="st1" d="M507.6,291L507.6,291l0.7-3.3c0.2-0.8-0.2-0.8-0.7-0.8h-13.9l1.9-11.4l0,0c0.2-1.2-0.6-1.5-1.2-1.3l0,0
			l-3.2,0.5l0,0c-0.8,0.1-1.3,0.8-1.3,1.3l0,0l-1.9,10.9h-8.6c-0.2,0-1,0.1-1.1,0.8l-0.5,3.2l0,0c0,0.2,0,0.8,0.8,0.8h8.5l-6.5,37.1
			c-0.1,0.7-0.2,1.3-0.2,1.9c0,4.5,3.2,6.5,8.1,6.5c3.9,0,10.8-1.1,14.3-2.8c1.1-0.6,1-1.3,0.7-1.8l0,0l-0.7-1.9
			c-0.1-0.5-0.7-0.4-1.1-0.2l0,0c-3.4,1.3-5.3,2.1-12.2,2.1c-2.3,0-3.4-0.5-3.4-2.4c0-0.5,0.1-1.1,0.2-1.8l6.4-36.5h13.8
			C507.3,291.7,507.5,291.5,507.6,291z"/>
	</g>
	<path class="st1" d="M374.1,286.9h-14.2c-0.6,0-1.3,0.5-1.7,1l-10.1,14.7l-5.9-15.3c-0.4-0.8-1.1-1.1-1.8-1l-12.4,1.8l10.7,23.5
		L319,336.5h13.3c0.8,0,2.2-0.5,2.8-1.2l9.2-11.2l5.2,11.2c0.2,0.6,1.1,1.2,1.9,1.2h13l-10.4-22.9L374.1,286.9z"/>
	<path class="st1" d="M313,335.5l8.5-48.4c0.1-1-0.6-1-1.2-0.8l-11.9,1.6c-1.3,0.2-1.7,1.1-1.7,1.6l0,0l-5.1,29.3
		c-3.6,1.8-10.2,4.7-12.8,4.7c-1.5,0-1.9-0.5-1.9-1.6c0-0.4,0.1-1,0.2-1.6l5.8-33.3l0,0c0.1-1-0.6-1-1.1-0.8l-11.9,1.7l0,0
		c-1.3,0.2-1.7,1.1-1.7,1.6l0,0l-5.7,32.2c-0.4,2.1-0.5,3.6-0.5,5.7c0,6.2,2.5,10.1,9.1,10.1c5.7,0,11.8-1.9,19.5-5.6l0.1,3.6
		c0,0.2,0.1,0.8,0.6,0.8h10.9C312.7,336.3,313,335.8,313,335.5z"/>
	<path class="st1" d="M195.3,285.9c-5.7,0-11.8,1.9-19.5,5.6l0.1-4.4c0-1.1-0.8-1-1.3-0.8l-9.3,1.6l0,0c-1.6,0.2-2.1,1.2-2.2,1.7
		l-7.8,44.6l0,0c-0.4,2.1-0.2,2.2,1.5,2.2h10.7c1.2,0,1.8,0,2.2-2.2l5.2-29.7c3.9-2.1,10.2-4.7,12.8-4.7c1.5,0,1.9,0.4,1.9,1.5
		c0,0.4-0.1,1-0.2,1.6l-5.5,31.4l0,0c-0.4,2.1-0.2,2.2,1.5,2.2H196c1.2,0,1.8,0,2.2-2.2l5.7-32.5c0.4-2.5,0.5-4,0.5-5.7
		C204.4,289.8,201.9,285.9,195.3,285.9z"/>
	<g>
		<path class="st1" d="M154.2,264.3l-11.9,1.7c-1.3,0.1-1.6,1.1-1.7,1.6l-2.2,12.4c-0.2,1.5-0.1,1.5,1.2,1.3l11.8-1.6l0,0
			c1.2-0.1,1.5-0.2,1.7-1.8l0,0l2.3-12.8C155.5,264.3,155.3,264.3,154.2,264.3z"/>
		<path class="st1" d="M137,288L137,288L137,288z"/>
		<path class="st1" d="M143.1,334.2L143.1,334.2l8.4-47c0.1-1-0.6-1-1.2-0.8l-11.9,1.6l0,0c-1.3,0.2-1.7,1.1-1.7,1.6l0,0l-8,45.1
			c-0.2,1.7,0,1.9,1.6,1.9H141C142.1,336.3,142.7,336.3,143.1,334.2z"/>
	</g>
	<path class="st1" d="M260.6,334.2l12-68.4c0.1-1-0.4-1-1-0.8l-13.7,2.3c-6.2-1.7-13.2-2.4-17.2-2.4c-12.7,0-17,4.4-19,15.8
		l-1.1,6.5H215c-1.5,0-1.6,0.7-1.7,1.3l0,0l-1.7,9.5c-0.1,0.4,0.1,0.8,0.7,0.8h6.2l-6.7,37.8c-0.7,4.5-1.5,7.2-5.7,11.6l0,0
		c-0.8,0.8-0.6,1.1,0,1.6l0,0l7.5,7l0,0c0.7,0.7,1.1,0.6,1.9-0.2c6.9-7,9.1-11.8,10.3-18.3l6.9-39.4h11c0.6,0,0.7,0,1-0.7l0,0
		l2.5-9.9l0,0c0.2-0.7-0.5-1-1-1h-11.5l1.3-7.2c0.5-2.5,1.6-3.4,4.7-3.4c4.2,0,11.2,0.8,15,1.8l-9.8,56l0,0
		c-0.4,2.1-0.2,2.2,1.5,2.2h10.7C259.6,336.3,260.2,336.3,260.6,334.2z"/>
</g>
<path id="Registered_Trademark" class="st1" d="M560.9,272h-1.3l-0.4,2.4h-1.3l1.2-7.2h2.7c1.5,0,2.2,0.6,2.2,1.6c0,0.1,0,0.2,0,0.5
	l-0.1,1c-0.1,1-0.5,1.3-1.3,1.7l1.3,2.5h-1.5L560.9,272z M562.5,269.3c0-0.1,0-0.2,0-0.2c0-0.5-0.2-0.6-0.8-0.6h-1.5l-0.4,2.4h1.5
	c0.8,0,1-0.2,1.1-0.8L562.5,269.3z M560.9,276.8c-3.4,0-6.1-2.7-6.1-6.1s2.7-6.1,6.1-6.1s6.1,2.7,6.1,6.1S564.2,276.8,560.9,276.8z
	 M560.9,265.8c-2.8,0-5,2.2-5,5s2.2,5,5,5s5-2.2,5-5S563.6,265.8,560.9,265.8z"/>
<g id="Tagline">
	<path class="st2" d="M137.2,371h-4.9l-2.4,14h-2l2.4-14h-4.9l0.3-1.7h11.7L137.2,371z"/>
	<path class="st2" d="M140.7,374.8c1-1.1,2.2-1.7,3.5-1.6c1.1,0,1.9,0.4,2.4,1.1c0.5,0.7,0.7,1.8,0.6,3.1L146,385H144l1.3-7.6
		c0-0.3,0-0.7,0-1c-0.1-1-0.7-1.5-1.8-1.5c-1.2,0-2.2,0.6-3.1,1.9L139,385h-1.9l2.9-16.5h1.9L140.7,374.8z"/>
	<path class="st2" d="M154.2,385.2c-1.4,0-2.6-0.6-3.4-1.6s-1.2-2.4-1-4l0.1-0.5c0.1-1.2,0.5-2.2,1-3.2c0.6-1,1.2-1.7,2.1-2.2
		c0.8-0.5,1.7-0.7,2.6-0.7c1.2,0,2.1,0.4,2.8,1.2c0.7,0.8,1.1,1.8,1.1,3.1c0,0.5,0,0.9,0,1.4l-0.1,0.9h-7.6c-0.1,1.1,0,1.9,0.5,2.7
		c0.5,0.7,1.2,1.1,2.1,1.1c1.1,0,2.2-0.5,3.2-1.5l1.1,0.9c-0.5,0.7-1.1,1.3-1.9,1.6C156,385,155.2,385.2,154.2,385.2z M155.5,374.8
		c-0.8,0-1.5,0.3-2.1,0.8c-0.6,0.6-1.1,1.4-1.4,2.5l5.7,0l0-0.2c0.1-0.9,0-1.7-0.4-2.3C156.8,375.1,156.2,374.8,155.5,374.8z"/>
	<path class="st2" d="M172.1,369.4l2.7,12.7l7.2-12.7h2.7l-2.7,15.6h-2l1.1-6.2l1.3-6.3l-7.1,12.5h-1.5l-2.8-12.7l-1,6.7l-1,6h-2
		l2.7-15.6H172.1z"/>
	<path class="st2" d="M192,373.2c1,0,1.8,0.3,2.5,0.8c0.7,0.5,1.2,1.2,1.5,2.1c0.3,0.9,0.4,1.9,0.3,3l0,0.2c-0.1,1.1-0.5,2.2-1,3.1
		c-0.5,0.9-1.2,1.6-2.1,2.1c-0.9,0.5-1.8,0.7-2.8,0.7c-1,0-1.8-0.3-2.5-0.8s-1.2-1.2-1.5-2.1s-0.4-1.9-0.3-2.9
		c0.1-1.2,0.4-2.3,1-3.2c0.5-1,1.2-1.7,2.1-2.2C190,373.4,191,373.1,192,373.2z M188,379.4c-0.1,0.5-0.1,0.9,0,1.4
		c0.1,0.8,0.3,1.5,0.8,2c0.4,0.5,1,0.8,1.7,0.8c0.6,0,1.2-0.1,1.8-0.5c0.5-0.3,1-0.9,1.4-1.5c0.4-0.7,0.6-1.5,0.7-2.3
		c0.1-0.7,0.1-1.2,0-1.7c-0.1-0.9-0.3-1.6-0.8-2.1c-0.4-0.5-1-0.8-1.7-0.8c-1,0-1.9,0.4-2.6,1.2c-0.7,0.8-1.1,1.9-1.3,3.2L188,379.4
		z"/>
	<path class="st2" d="M198.6,379.2c0.1-1.2,0.5-2.2,1-3.2c0.5-1,1.1-1.7,1.9-2.1c0.7-0.5,1.6-0.7,2.5-0.7c1.3,0,2.3,0.5,3,1.4
		l1.1-6.1h1.9l-2.9,16.5h-1.8l0.2-1.2c-0.9,1-2,1.5-3.4,1.5c-1.1,0-1.9-0.4-2.6-1.3c-0.6-0.8-1-1.9-1-3.3
		C198.6,380.3,198.6,379.8,198.6,379.2z M200.5,380.3c0,1,0.2,1.8,0.5,2.4c0.4,0.6,1,0.9,1.7,0.9c1.1,0,2.1-0.5,3-1.7l0.9-5.4
		c-0.4-1.1-1.2-1.6-2.3-1.6c-0.8,0-1.4,0.2-2,0.7c-0.6,0.5-1,1.2-1.3,2C200.7,378.4,200.5,379.3,200.5,380.3z"/>
	<path class="st2" d="M215.5,385.2c-1.4,0-2.6-0.6-3.4-1.6s-1.2-2.4-1-4l0.1-0.5c0.1-1.2,0.5-2.2,1-3.2c0.6-1,1.2-1.7,2.1-2.2
		c0.8-0.5,1.7-0.7,2.6-0.7c1.2,0,2.1,0.4,2.8,1.2c0.7,0.8,1.1,1.8,1.1,3.1c0,0.5,0,0.9,0,1.4l-0.1,0.9H213c-0.1,1.1,0,1.9,0.5,2.7
		c0.5,0.7,1.2,1.1,2.1,1.1c1.1,0,2.2-0.5,3.2-1.5l1.1,0.9c-0.5,0.7-1.1,1.3-1.9,1.6C217.3,385,216.4,385.2,215.5,385.2z
		 M216.7,374.8c-0.8,0-1.5,0.3-2.1,0.8c-0.6,0.6-1.1,1.4-1.4,2.5l5.7,0l0-0.2c0.1-0.9,0-1.7-0.4-2.3
		C218.1,375.1,217.5,374.8,216.7,374.8z"/>
	<path class="st2" d="M229.4,375.1l-0.9-0.1c-1.2,0-2.2,0.6-2.9,1.7l-1.4,8.3h-1.9l2-11.6l1.9,0l-0.3,1.4c0.8-1.1,1.8-1.6,2.9-1.6
		c0.2,0,0.5,0.1,0.9,0.2L229.4,375.1z"/>
	<path class="st2" d="M233.6,373.4l-0.3,1.5c1-1.1,2.2-1.7,3.6-1.7c1.1,0,1.9,0.4,2.4,1.1c0.5,0.7,0.7,1.8,0.6,3.1l-1.3,7.6h-1.9
		l1.3-7.6c0-0.4,0-0.7,0-1c-0.1-1-0.7-1.5-1.8-1.5c-1.2,0-2.2,0.6-3.1,1.9l-1.4,8.3h-1.9l2-11.6L233.6,373.4z"/>
	<path class="st2" d="M257.7,377.8h-6.6l-1,5.5h7.6l-0.3,1.7h-9.7l2.7-15.6h9.5l-0.3,1.7h-7.5l-0.9,5h6.6L257.7,377.8z"/>
	<path class="st2" d="M263.9,373.4l-0.3,1.5c1-1.1,2.2-1.7,3.6-1.7c1.1,0,1.9,0.4,2.4,1.1s0.7,1.8,0.6,3.1l-1.3,7.6H267l1.3-7.6
		c0-0.4,0-0.7,0-1c-0.1-1-0.7-1.5-1.8-1.5c-1.2,0-2.2,0.6-3.1,1.9L262,385H260l2-11.6L263.9,373.4z"/>
	<path class="st2" d="M272.8,379.2c0.2-1.3,0.5-2.4,1-3.3c0.5-0.9,1.1-1.6,1.9-2.1c0.7-0.4,1.5-0.7,2.4-0.6c1.3,0,2.4,0.5,3.1,1.5
		l0.4-1.3h1.8l-1.9,11.4c-0.2,1.5-0.8,2.7-1.8,3.6c-1,0.9-2.2,1.3-3.7,1.3c-0.8,0-1.5-0.2-2.3-0.6c-0.7-0.4-1.3-0.8-1.7-1.5l1.1-1.2
		c0.7,1,1.6,1.6,2.8,1.6c0.9,0,1.7-0.2,2.3-0.8c0.6-0.5,1.1-1.3,1.3-2.3l0.2-1c-0.9,0.9-2.1,1.4-3.3,1.4c-0.7,0-1.4-0.2-1.9-0.6
		c-0.5-0.4-0.9-0.9-1.2-1.6c-0.3-0.7-0.5-1.5-0.5-2.3C272.7,380.3,272.7,379.8,272.8,379.2z M274.6,380.3c0,1,0.2,1.8,0.5,2.4
		c0.4,0.6,0.9,0.9,1.7,0.9c1.2,0,2.2-0.5,3-1.7l0.9-5.3c-0.4-1.1-1.2-1.6-2.3-1.7c-1.1,0-1.9,0.4-2.6,1.3c-0.7,0.9-1.1,2.1-1.2,3.6
		L274.6,380.3z"/>
	<path class="st2" d="M286.6,385h-1.9l2-11.6h1.9L286.6,385z M288.2,369.1c0.3,0,0.6,0.1,0.8,0.3c0.2,0.2,0.3,0.5,0.3,0.8
		c0,0.3-0.1,0.6-0.3,0.8c-0.2,0.2-0.5,0.3-0.8,0.3s-0.6-0.1-0.8-0.3s-0.3-0.5-0.3-0.8s0.1-0.6,0.3-0.8S287.9,369.1,288.2,369.1z"/>
	<path class="st2" d="M293.9,373.4l-0.3,1.5c1-1.1,2.2-1.7,3.6-1.7c1.1,0,1.9,0.4,2.4,1.1s0.7,1.8,0.6,3.1L299,385H297l1.3-7.6
		c0-0.4,0-0.7,0-1c-0.1-1-0.7-1.5-1.8-1.5c-1.2,0-2.2,0.6-3.1,1.9L292,385h-1.9l2-11.6L293.9,373.4z"/>
	<path class="st2" d="M307.3,385.2c-1.4,0-2.6-0.6-3.4-1.6s-1.2-2.4-1-4l0.1-0.5c0.1-1.2,0.5-2.2,1-3.2c0.6-1,1.2-1.7,2.1-2.2
		c0.8-0.5,1.7-0.7,2.6-0.7c1.2,0,2.1,0.4,2.8,1.2s1.1,1.8,1.1,3.1c0,0.5,0,0.9,0,1.4l-0.1,0.9h-7.6c-0.1,1.1,0,1.9,0.5,2.7
		c0.5,0.7,1.2,1.1,2.1,1.1c1.1,0,2.2-0.5,3.2-1.5l1.1,0.9c-0.5,0.7-1.1,1.3-1.9,1.6C309.1,385,308.2,385.2,307.3,385.2z
		 M308.5,374.8c-0.8,0-1.5,0.3-2.1,0.8c-0.6,0.6-1.1,1.4-1.4,2.5l5.7,0l0-0.2c0.1-0.9,0-1.7-0.4-2.3
		C309.8,375.1,309.2,374.8,308.5,374.8z"/>
	<path class="st2" d="M320.5,385l1.8-10.1h-1.8l0.3-1.5h1.8l0.2-1.4c0.2-1.2,0.6-2.1,1.4-2.7c0.8-0.7,1.7-1,2.9-1
		c0.4,0,0.8,0.1,1.4,0.2l-0.2,1.6c-0.3-0.1-0.7-0.1-1-0.1c-0.7,0-1.2,0.2-1.6,0.6c-0.4,0.4-0.7,1-0.8,1.7l-0.2,1.1h2.4l-0.3,1.5
		h-2.4l-1.8,10.1H320.5z"/>
	<path class="st2" d="M333.8,373.2c1,0,1.8,0.3,2.5,0.8s1.2,1.2,1.5,2.1c0.3,0.9,0.4,1.9,0.3,3l0,0.2c-0.1,1.1-0.5,2.2-1,3.1
		c-0.5,0.9-1.2,1.6-2.1,2.1s-1.8,0.7-2.8,0.7c-1,0-1.8-0.3-2.5-0.8c-0.7-0.5-1.2-1.2-1.5-2.1s-0.4-1.9-0.3-2.9
		c0.1-1.2,0.4-2.3,1-3.2s1.2-1.7,2.1-2.2C331.8,373.4,332.8,373.1,333.8,373.2z M329.8,379.4c0,0.5,0,0.9,0,1.4
		c0.1,0.8,0.3,1.5,0.8,2c0.4,0.5,1,0.8,1.7,0.8c0.6,0,1.2-0.1,1.8-0.5c0.5-0.3,1-0.9,1.4-1.5s0.6-1.5,0.7-2.3c0.1-0.7,0.1-1.2,0-1.7
		c-0.1-0.9-0.3-1.6-0.8-2.1s-1-0.8-1.7-0.8c-1,0-1.9,0.4-2.6,1.2s-1.1,1.9-1.3,3.2L329.8,379.4z"/>
	<path class="st2" d="M347.1,375.1l-0.9-0.1c-1.2,0-2.2,0.6-2.9,1.7l-1.4,8.3h-1.9l2-11.6l1.9,0l-0.3,1.4c0.8-1.1,1.8-1.6,2.9-1.6
		c0.2,0,0.5,0.1,0.9,0.2L347.1,375.1z"/>
	<path class="st2" d="M358.7,369.4l2.7,12.7l7.2-12.7h2.7l-2.7,15.6h-2l1.1-6.2l1.3-6.3l-7.1,12.5h-1.5l-2.8-12.7l-1,6.7l-1,6h-2
		l2.7-15.6H358.7z"/>
	<path class="st2" d="M377.2,385.2c-1.4,0-2.6-0.6-3.4-1.6s-1.2-2.4-1-4l0.1-0.5c0.1-1.2,0.5-2.2,1-3.2c0.6-1,1.2-1.7,2.1-2.2
		c0.8-0.5,1.7-0.7,2.6-0.7c1.2,0,2.1,0.4,2.8,1.2s1.1,1.8,1.1,3.1c0,0.5,0,0.9,0,1.4l-0.1,0.9h-7.6c-0.1,1.1,0,1.9,0.5,2.7
		c0.5,0.7,1.2,1.1,2.1,1.1c1.1,0,2.2-0.5,3.2-1.5l1.1,0.9c-0.5,0.7-1.1,1.3-1.9,1.6C379,385,378.1,385.2,377.2,385.2z M378.4,374.8
		c-0.8,0-1.5,0.3-2.1,0.8c-0.6,0.6-1.1,1.4-1.4,2.5l5.7,0l0-0.2c0.1-0.9,0-1.7-0.4-2.3C379.7,375.1,379.1,374.8,378.4,374.8z"/>
	<path class="st2" d="M388.9,370.6l-0.5,2.8h2.1l-0.3,1.5h-2.1l-1.2,7.2c0,0.2,0,0.4,0,0.5c0,0.6,0.4,0.8,0.9,0.8
		c0.2,0,0.6,0,0.9-0.1l-0.2,1.6c-0.5,0.1-0.9,0.2-1.4,0.2c-0.8,0-1.4-0.3-1.7-0.9c-0.4-0.6-0.5-1.3-0.5-2.2l1.2-7.2h-2.1l0.3-1.5
		h2.1l0.5-2.8H388.9z"/>
	<path class="st2" d="M398.4,375.1l-0.9-0.1c-1.2,0-2.2,0.6-2.9,1.7l-1.4,8.3h-1.9l2-11.6l1.9,0l-0.3,1.4c0.8-1.1,1.8-1.6,2.9-1.6
		c0.2,0,0.5,0.1,0.9,0.2L398.4,375.1z"/>
	<path class="st2" d="M400.8,385h-1.9l2-11.6h1.9L400.8,385z M402.4,369.1c0.3,0,0.6,0.1,0.8,0.3c0.2,0.2,0.3,0.5,0.3,0.8
		c0,0.3-0.1,0.6-0.3,0.8c-0.2,0.2-0.5,0.3-0.8,0.3s-0.6-0.1-0.8-0.3s-0.3-0.5-0.3-0.8s0.1-0.6,0.3-0.8S402.1,369.1,402.4,369.1z"/>
	<path class="st2" d="M409.2,383.6c0.7,0,1.3-0.2,1.9-0.6c0.6-0.4,0.9-1,1.1-1.6l1.8,0c-0.1,0.7-0.4,1.4-0.9,2
		c-0.5,0.6-1.1,1.1-1.8,1.4s-1.5,0.5-2.2,0.5c-1,0-1.8-0.3-2.5-0.8c-0.7-0.5-1.2-1.2-1.5-2.1c-0.3-0.9-0.4-1.9-0.3-3l0.1-0.5
		c0.1-1.1,0.5-2.1,1-3s1.2-1.6,2-2.1c0.8-0.5,1.7-0.7,2.8-0.7c1.2,0,2.2,0.4,2.9,1.2s1.1,1.8,1.1,3l-1.8,0c0-0.8-0.2-1.4-0.6-1.8
		c-0.4-0.5-1-0.7-1.7-0.7c-1,0-1.8,0.4-2.5,1.1c-0.7,0.8-1.1,1.9-1.3,3.2l0,0.3c0,0.5,0,0.9,0,1.4c0,0.8,0.3,1.5,0.7,2
		S408.5,383.6,409.2,383.6z"/>
	<path class="st2" d="M423,381.9c0.1-0.8-0.3-1.4-1.3-1.7l-2-0.6c-1.7-0.6-2.5-1.6-2.5-2.9c0-1,0.5-1.9,1.4-2.5c0.9-0.7,1.9-1,3.1-1
		c1.2,0,2.1,0.4,2.9,1c0.7,0.7,1.1,1.5,1.1,2.6l-1.9,0c0-0.6-0.2-1.1-0.5-1.4s-0.9-0.6-1.5-0.6c-0.7,0-1.3,0.2-1.7,0.5
		c-0.5,0.3-0.7,0.7-0.8,1.3c-0.1,0.7,0.3,1.2,1.2,1.5l1,0.3c1.3,0.3,2.3,0.8,2.8,1.3s0.8,1.2,0.8,2.1c0,0.7-0.3,1.4-0.7,1.9
		s-1,0.9-1.7,1.2c-0.7,0.3-1.5,0.4-2.3,0.4c-1.2,0-2.2-0.4-3.1-1.1c-0.8-0.7-1.2-1.6-1.2-2.7l1.9,0c0,0.7,0.2,1.2,0.6,1.6
		s1,0.6,1.7,0.6c0.7,0,1.3-0.1,1.8-0.4C422.7,382.8,422.9,382.4,423,381.9z"/>
	<path class="st2" d="M440,385c0-0.2-0.1-0.4-0.1-0.6l0-0.6c-1.1,1-2.2,1.5-3.4,1.4c-1,0-1.9-0.3-2.5-1c-0.6-0.6-0.9-1.4-0.9-2.4
		c0.1-1.2,0.6-2.2,1.6-2.9c1-0.7,2.3-1,4-1l2,0l0.1-0.9c0.1-0.7-0.1-1.2-0.4-1.6c-0.3-0.4-0.9-0.6-1.5-0.6c-0.7,0-1.3,0.1-1.8,0.5
		c-0.5,0.3-0.8,0.8-0.9,1.3l-2,0c0.1-0.7,0.3-1.3,0.8-1.8c0.5-0.5,1.1-0.9,1.8-1.2c0.7-0.3,1.5-0.4,2.3-0.4c1.2,0,2.2,0.4,2.8,1.1
		c0.7,0.7,1,1.6,0.8,2.8l-0.9,5.8l-0.1,0.8c0,0.4,0,0.8,0.1,1.2l0,0.2H440z M436.9,383.5c0.6,0,1.2-0.1,1.8-0.4
		c0.6-0.3,1-0.7,1.4-1.3l0.4-2.4l-1.5,0c-1.2,0-2.2,0.2-2.8,0.6s-1,0.9-1.1,1.6c-0.1,0.5,0.1,1,0.4,1.4
		C435.8,383.3,436.3,383.5,436.9,383.5z"/>
	<path class="st2" d="M448.7,373.4l-0.3,1.5c1-1.1,2.2-1.7,3.6-1.7c1.1,0,1.9,0.4,2.4,1.1s0.7,1.8,0.6,3.1l-1.3,7.6h-1.9l1.3-7.6
		c0-0.4,0-0.7,0-1c-0.1-1-0.7-1.5-1.8-1.5c-1.2,0-2.2,0.6-3.1,1.9l-1.4,8.3h-1.9l2-11.6L448.7,373.4z"/>
	<path class="st2" d="M457.5,379.2c0.1-1.2,0.5-2.2,1-3.2s1.1-1.7,1.9-2.1s1.6-0.7,2.5-0.7c1.3,0,2.3,0.5,3,1.4l1.1-6.1h1.9L466,385
		h-1.8l0.2-1.2c-0.9,1-2,1.5-3.4,1.5c-1.1,0-1.9-0.4-2.6-1.3c-0.6-0.8-1-1.9-1-3.3C457.5,380.3,457.5,379.8,457.5,379.2z
		 M459.4,380.3c0,1,0.2,1.8,0.5,2.4c0.4,0.6,1,0.9,1.7,0.9c1.1,0,2.1-0.5,3-1.7l0.9-5.4c-0.4-1.1-1.2-1.6-2.3-1.6
		c-0.8,0-1.4,0.2-2,0.7c-0.6,0.5-1,1.2-1.3,2C459.6,378.4,459.4,379.3,459.4,380.3z"/>
	<path class="st2" d="M485.2,377.8h-6.6l-1,5.5h7.6L485,385h-9.7l2.7-15.6h9.5l-0.3,1.7h-7.5l-0.9,5h6.6L485.2,377.8z"/>
	<path class="st2" d="M491.5,382.3l4.2-8.9h2.1l-5.9,11.6h-1.5l-2.3-11.6h1.9L491.5,382.3z"/>
	<path class="st2" d="M502.9,385.2c-1.4,0-2.6-0.6-3.4-1.6s-1.2-2.4-1-4l0.1-0.5c0.1-1.2,0.5-2.2,1-3.2c0.6-1,1.2-1.7,2.1-2.2
		c0.8-0.5,1.7-0.7,2.6-0.7c1.2,0,2.1,0.4,2.8,1.2s1.1,1.8,1.1,3.1c0,0.5,0,0.9,0,1.4l-0.1,0.9h-7.6c-0.1,1.1,0,1.9,0.5,2.7
		c0.5,0.7,1.2,1.1,2.1,1.1c1.1,0,2.2-0.5,3.2-1.5l1.1,0.9c-0.5,0.7-1.1,1.3-1.9,1.6C504.7,385,503.8,385.2,502.9,385.2z
		 M504.1,374.8c-0.8,0-1.5,0.3-2.1,0.8c-0.6,0.6-1.1,1.4-1.4,2.5l5.7,0l0-0.2c0.1-0.9,0-1.7-0.4-2.3
		C505.4,375.1,504.8,374.8,504.1,374.8z"/>
	<path class="st2" d="M513.4,373.4l-0.3,1.5c1-1.1,2.2-1.7,3.6-1.7c1.1,0,1.9,0.4,2.4,1.1s0.7,1.8,0.6,3.1l-1.3,7.6h-1.9l1.3-7.6
		c0-0.4,0-0.7,0-1c-0.1-1-0.7-1.5-1.8-1.5c-1.2,0-2.2,0.6-3.1,1.9l-1.4,8.3h-1.9l2-11.6L513.4,373.4z"/>
	<path class="st2" d="M526.8,370.6l-0.5,2.8h2.1l-0.3,1.5H526l-1.2,7.2c0,0.2,0,0.4,0,0.5c0,0.6,0.4,0.8,0.9,0.8
		c0.2,0,0.6,0,0.9-0.1l-0.2,1.6c-0.5,0.1-0.9,0.2-1.4,0.2c-0.8,0-1.4-0.3-1.7-0.9c-0.4-0.6-0.5-1.3-0.5-2.2l1.2-7.2H522l0.3-1.5h2.1
		l0.5-2.8H526.8z"/>
	<path class="st2" d="M536.2,381.9c0.1-0.8-0.3-1.4-1.3-1.7l-2-0.6c-1.7-0.6-2.5-1.6-2.5-2.9c0-1,0.5-1.9,1.4-2.5
		c0.9-0.7,1.9-1,3.1-1c1.2,0,2.1,0.4,2.9,1c0.7,0.7,1.1,1.5,1.1,2.6l-1.9,0c0-0.6-0.2-1.1-0.5-1.4s-0.9-0.6-1.5-0.6
		c-0.7,0-1.3,0.2-1.7,0.5c-0.5,0.3-0.7,0.7-0.8,1.3c-0.1,0.7,0.3,1.2,1.2,1.5l1,0.3c1.3,0.3,2.3,0.8,2.8,1.3s0.8,1.2,0.8,2.1
		c0,0.7-0.3,1.4-0.7,1.9s-1,0.9-1.7,1.2c-0.7,0.3-1.5,0.4-2.3,0.4c-1.2,0-2.2-0.4-3.1-1.1c-0.8-0.7-1.2-1.6-1.2-2.7l1.9,0
		c0,0.7,0.2,1.2,0.6,1.6s1,0.6,1.7,0.6c0.7,0,1.3-0.1,1.8-0.4C535.8,382.8,536.1,382.4,536.2,381.9z"/>
</g>
</svg>
