<?xml version="1.0" encoding="utf-8"?>
<!-- Generator: Adobe Illustrator 19.1.0, SVG Export Plug-In . SVG Version: 6.00 Build 0)  -->
<svg version="1.1" id="Layer_1" xmlns="http://www.w3.org/2000/svg" xmlns:xlink="http://www.w3.org/1999/xlink" x="0px" y="0px"
	 viewBox="36 161 672 480" style="enable-background:new 36 161 672 480;" xml:space="preserve">
<style type="text/css">
	.st0{fill:#FFFFFF;}
	.st1{fill:#292933;}
</style>
<rect x="36" y="161" class="st0" width="672" height="480"/>
<g>
	<path class="st1" d="M221.6,410.5l-8.8-38.3c-0.5-2.1-2.4-4.2-4.5-4.8L168.1,355c-0.5-0.2-1.1-0.2-1.7-0.2c-1.7,0-3.5,0.7-4.7,1.7
		l-28.8,26.8c-1.6,1.4-2.4,4.2-1.9,6.2l9.4,41c0.5,2.1,2.4,4.2,4.5,4.8l37.6,11.7c0.5,0.2,1.1,0.2,1.7,0.2c1.7,0,3.5-0.7,4.7-1.7
		l30.8-28.6C221.3,415.3,222.1,412.6,221.6,410.5z M172.3,364.1l27.6,8.5c1.1,0.3,1.1,0.8,0,1.1l-14.5,3.3c-1.1,0.3-2.6-0.2-3.4-1
		l-10.1-10.9C171,364.2,171.2,363.8,172.3,364.1z M189.5,413.6c0.3,1.1-0.4,1.7-1.5,1.4l-29.8-9.2c-1.1-0.3-1.3-1.2-0.5-2l22.8-21.2
		c0.8-0.8,1.7-0.5,2,0.6L189.5,413.6z M140.4,386.6l24.2-22.5c0.8-0.8,2.1-0.7,2.9,0.1l12.1,13.1c0.8,0.8,0.7,2.1-0.1,2.9
		l-24.2,22.5c-0.8,0.8-2.1,0.7-2.9-0.1l-12.1-13.1C139.5,388.6,139.6,387.3,140.4,386.6z M146.3,422.3l-6.4-28.1
		c-0.3-1.1,0.2-1.3,0.9-0.5l10.1,10.9c0.8,0.8,1.1,2.4,0.8,3.5l-4.4,14.2C147,423.4,146.5,423.4,146.3,422.3z M181.7,438.8
		l-31.6-9.8c-1.1-0.3-1.7-1.5-1.4-2.6l5.3-17c0.3-1.1,1.5-1.7,2.6-1.4l31.6,9.7c1.1,0.3,1.7,1.5,1.4,2.6l-5.3,17
		C183.9,438.4,182.8,439,181.7,438.8z M209.7,415.8l-21.1,19.6c-0.8,0.8-1.2,0.5-0.9-0.6l4.4-14.2c0.3-1.1,1.5-2.2,2.6-2.4l14.5-3.3
		C210.3,414.5,210.5,415,209.7,415.8z M212,411.5l-17.4,4c-1.1,0.3-2.2-0.4-2.5-1.5l-7.4-32.2c-0.3-1.1,0.4-2.2,1.5-2.5l17.4-4
		c1.1-0.3,2.2,0.4,2.5,1.5l7.4,32.2C213.8,410.2,213.1,411.3,212,411.5z"/>
	<g>
		<path class="st1" d="M481.6,424c-0.1,1,0.3,1.2,0.7,1.2h2.4c0.9,0,1.1-0.8,1.1-1.2l9.8-55.7c0.2-1-0.5-1.2-1-1.1l0,0l-2.6,0.4
			c-0.7,0.1-1.1,0.7-1.1,1.1l0,0l-2.8,16.2c-2.5-0.8-7.2-1.3-9.9-1.3c-10.4,0-15.4,4-17.3,15.1l-3.1,17.5c-0.2,1.1-0.3,2.1-0.3,3
			c0,5,2.8,6.9,8,6.9c5.9,0,12-2.8,16.7-6.8L481.6,424z M466,421.9c-2.5,0-3.8-0.7-3.8-3.3c0-0.7,0.1-1.4,0.3-2.4l2.9-16.7
			c1.6-9.1,4.7-11.7,12.2-11.7c3.3,0,6.5,0.5,9.8,1.3l-4.4,24.7C477.7,418.5,471.2,421.9,466,421.9z"/>
		<path class="st1" d="M523,424c-0.1,1,0.3,1.2,0.8,1.2h2.4c0.9,0,1.1-0.8,1.1-1.2l0,0l6.7-37.7c-4.8-1.8-10.3-2.7-14.1-2.7
			c-11,0-15.4,4.4-17.3,15.1l-3.1,17.5c-0.2,1.1-0.3,2.1-0.3,3c0,5,2.8,6.9,8,6.9c5.9,0,11.7-2.8,16.4-6.8L523,424z M507.6,421.9
			c-2.5,0-3.8-0.7-3.8-3.3c0-0.7,0.1-1.4,0.3-2.4l2.9-16.7c1.6-9,4.5-11.7,12.2-11.7c3.4,0,7.3,0.7,9.6,1.3l-4.4,24.7
			C519.1,418.5,512.7,421.9,507.6,421.9z"/>
		<path class="st1" d="M589.9,424c-0.1,1,0.3,1.2,0.7,1.2h2.4c0.9,0,1.1-0.8,1.1-1.2l0,0l6.7-37.7c-4.8-1.8-10.3-2.7-14.1-2.7
			c-11,0-15.4,4.4-17.3,15.1l-3.1,17.5c-0.2,1.1-0.3,2.1-0.3,3c0,5,2.8,6.9,8,6.9c5.9,0,11.7-2.8,16.4-6.8L589.9,424z M574.6,421.9
			c-2.5,0-3.8-0.7-3.8-3.3c0-0.7,0.1-1.4,0.3-2.4l2.9-16.7c1.6-9,4.5-11.7,12.2-11.7c3.4,0,7.3,0.7,9.6,1.3l-4.4,24.7
			C586.1,418.5,579.7,421.9,574.6,421.9z"/>
		<g>
			<path class="st1" d="M550.5,374.4L550.5,374.4L550.5,374.4z"/>
			<path class="st1" d="M564.5,387.8L564.5,387.8l0.6-2.7c0.2-0.7-0.2-0.7-0.6-0.7H553l1.6-9.4l0,0c0.2-1-0.5-1.2-1-1.1l0,0
				l-2.6,0.4l0,0c-0.7,0.1-1.1,0.7-1.1,1.1l0,0l-1.6,9h-7.1c-0.2,0-0.8,0.1-0.9,0.7l-0.4,2.6l0,0c0,0.2,0,0.7,0.7,0.7h7l-5.4,30.6
				c-0.1,0.6-0.2,1.1-0.2,1.6c0,3.7,2.6,5.4,6.7,5.4c3.2,0,8.9-0.9,11.8-2.3c0.9-0.5,0.8-1.1,0.6-1.5l0,0l-0.6-1.6
				c-0.1-0.4-0.6-0.3-0.9-0.2l0,0c-2.8,1.1-4.4,1.7-10.1,1.7c-1.9,0-2.8-0.4-2.8-2c0-0.4,0.1-0.9,0.2-1.5l5.3-30.1h11.4
				C564.2,388.4,564.4,388.2,564.5,387.8z"/>
		</g>
		<path class="st1" d="M454.3,384.4h-11.7c-0.5,0-1.1,0.4-1.4,0.8l-8.3,12.1l-4.9-12.6c-0.3-0.7-0.9-0.9-1.5-0.8l-10.2,1.5l8.8,19.4
			l-16.2,20.5h11c0.7,0,1.8-0.4,2.3-1l7.6-9.2l4.3,9.2c0.2,0.5,0.9,1,1.6,1h10.7l-8.6-18.9L454.3,384.4z"/>
		<path class="st1" d="M403.9,424.5l7-39.9c0.1-0.8-0.5-0.8-1-0.7l-9.8,1.3c-1.1,0.2-1.4,0.9-1.4,1.3l0,0l-4.2,24.2
			c-3,1.5-8.4,3.9-10.6,3.9c-1.2,0-1.6-0.4-1.6-1.3c0-0.3,0.1-0.8,0.2-1.3l4.8-27.5l0,0c0.1-0.8-0.5-0.8-0.9-0.7l-9.8,1.4l0,0
			c-1.1,0.2-1.4,0.9-1.4,1.3l0,0l-4.7,26.6c-0.3,1.7-0.4,3-0.4,4.7c0,5.1,2.1,8.3,7.5,8.3c4.7,0,9.7-1.6,16.1-4.6l0.1,3
			c0,0.2,0.1,0.7,0.5,0.7h9C403.7,425.2,403.9,424.8,403.9,424.5z"/>
		<path class="st1" d="M306.8,383.6c-4.7,0-9.7,1.6-16.1,4.6l0.1-3.6c0-0.9-0.7-0.8-1.1-0.7l-7.7,1.3l0,0c-1.3,0.2-1.7,1-1.8,1.4
			l-6.4,36.8l0,0c-0.3,1.7-0.2,1.8,1.2,1.8h8.8c1,0,1.5,0,1.8-1.8l4.3-24.5c3.2-1.7,8.4-3.9,10.6-3.9c1.2,0,1.6,0.3,1.6,1.2
			c0,0.3-0.1,0.8-0.2,1.3l-4.5,25.9l0,0c-0.3,1.7-0.2,1.8,1.2,1.8h8.8c1,0,1.5,0,1.8-1.8l4.7-26.8c0.3-2.1,0.4-3.3,0.4-4.7
			C314.3,386.8,312.3,383.6,306.8,383.6z"/>
		<g>
			<path class="st1" d="M272.9,365.8l-9.8,1.4c-1.1,0.1-1.3,0.9-1.4,1.3l-1.8,10.2c-0.2,1.2-0.1,1.2,1,1.1l9.7-1.3l0,0
				c1-0.1,1.2-0.2,1.4-1.5l0,0l1.9-10.6C274,365.8,273.8,365.8,272.9,365.8z"/>
			<path class="st1" d="M258.7,385.3L258.7,385.3L258.7,385.3z"/>
			<path class="st1" d="M263.8,423.4L263.8,423.4l6.9-38.8c0.1-0.8-0.5-0.8-1-0.7l-9.8,1.3l0,0c-1.1,0.2-1.4,0.9-1.4,1.3l0,0
				l-6.6,37.2c-0.2,1.4,0,1.6,1.3,1.6h8.8C262.9,425.2,263.4,425.2,263.8,423.4z"/>
		</g>
		<path class="st1" d="M360.7,423.4l9.9-56.4c0.1-0.8-0.3-0.8-0.8-0.7l-11.3,1.9c-5.1-1.4-10.9-2-14.2-2c-10.5,0-14,3.6-15.7,13
			l-0.9,5.4h-4.6c-1.2,0-1.3,0.6-1.4,1.1l0,0l-1.4,7.8c-0.1,0.3,0.1,0.7,0.6,0.7h5.1l-5.5,31.2c-0.6,3.7-1.2,5.9-4.7,9.6l0,0
			c-0.7,0.7-0.5,0.9,0,1.3l0,0l6.2,5.8l0,0c0.6,0.6,0.9,0.5,1.6-0.2c5.7-5.8,7.5-9.7,8.5-15.1l5.7-32.5h9.1c0.5,0,0.6,0,0.8-0.6l0,0
			l2.1-8.2l0,0c0.2-0.6-0.4-0.8-0.8-0.8h-9.5l1.1-5.9c0.4-2.1,1.3-2.8,3.9-2.8c3.5,0,9.2,0.7,12.4,1.5l-8.1,46.2l0,0
			c-0.3,1.7-0.2,1.8,1.2,1.8h8.8C359.9,425.2,360.4,425.2,360.7,423.4z"/>
	</g>
	<path class="st1" d="M608.2,372.1h-1.1l-0.3,2h-1.1l1-5.9h2.2c1.2,0,1.8,0.5,1.8,1.3c0,0.1,0,0.2,0,0.4l-0.1,0.8
		c-0.1,0.8-0.4,1.1-1.1,1.4l1.1,2.1h-1.2L608.2,372.1z M609.5,369.9c0-0.1,0-0.2,0-0.2c0-0.4-0.2-0.5-0.7-0.5h-1.2l-0.3,2h1.2
		c0.7,0,0.8-0.2,0.9-0.7L609.5,369.9z M608.2,376.1c-2.8,0-5-2.2-5-5s2.2-5,5-5s5,2.2,5,5S610.9,376.1,608.2,376.1z M608.2,367
		c-2.3,0-4.1,1.8-4.1,4.1s1.8,4.1,4.1,4.1s4.1-1.8,4.1-4.1S610.4,367,608.2,367z"/>
</g>
</svg>
