<svg width="519" height="45" viewBox="0 0 519 45" fill="none" xmlns="http://www.w3.org/2000/svg">
<path d="M61.9161 15.5109H68.7524V35.0001H61.9161V15.5109ZM62.5582 11.394C61.828 10.689 61.4629 9.83287 61.4629 8.82568C61.4629 7.76813 61.828 6.89942 62.5582 6.21957C63.3136 5.51453 64.2327 5.16202 65.3154 5.16202C66.3981 5.16202 67.3046 5.51453 68.0348 6.21957C68.765 6.89942 69.1301 7.76813 69.1301 8.82568C69.1301 9.83287 68.765 10.689 68.0348 11.394C67.3046 12.0991 66.3981 12.4516 65.3154 12.4516C64.2327 12.4516 63.3136 12.0991 62.5582 11.394Z" fill="#020A47"/>
<path d="M73.3503 15.5109H80.0356L80.1111 17.9659C80.6399 16.9839 81.3953 16.2285 82.3773 15.6998C83.3593 15.171 84.4924 14.9066 85.7765 14.9066C87.942 14.9066 89.6039 15.6116 90.7621 17.0217C91.9204 18.4066 92.4996 20.4462 92.4996 23.1404V35.0001H85.6632V24.4246C85.6632 22.1332 84.7945 20.9875 83.0571 20.9875C82.1255 20.9875 81.4079 21.3149 80.9043 21.9695C80.4258 22.599 80.1866 23.5055 80.1866 24.689V35.0001H73.3503V15.5109Z" fill="#020A47"/>
<path d="M98.9582 20.9875H95.8233V15.5109H98.9582V13.6224C98.9582 10.626 99.6884 8.30949 101.149 6.6728C102.634 5.03612 104.724 4.21777 107.419 4.21777C108.199 4.21777 108.929 4.28072 109.609 4.40662C110.314 4.50734 110.906 4.65842 111.384 4.85986L111.044 10.5253C110.768 10.3994 110.428 10.2987 110.025 10.2232C109.647 10.1476 109.294 10.1098 108.967 10.1098C106.852 10.1098 105.794 11.4318 105.794 14.0757V15.5109H110.402V20.9875H105.794V35.0001H98.9582V20.9875ZM113.311 4.40662H120.147V35.0001H113.311V4.40662Z" fill="#020A47"/>
<path d="M143.691 35.0001H136.968L136.892 32.6206C136.389 33.5774 135.633 34.3202 134.626 34.849C133.619 35.3526 132.461 35.6044 131.151 35.6044C129.011 35.6044 127.374 34.9245 126.241 33.5648C125.108 32.1799 124.542 30.1656 124.542 27.5217V15.5109H131.378V26.1242C131.378 28.3904 132.259 29.5235 134.022 29.5235C134.928 29.5235 135.621 29.2087 136.099 28.5792C136.603 27.9246 136.854 27.0055 136.854 25.822V15.5109H143.691V35.0001Z" fill="#020A47"/>
<path d="M153.889 24.9533L147.166 15.5109H154.796L157.969 20.7987L161.066 15.5109H168.318L161.632 24.9911L168.771 35.0001H161.103L157.553 29.108L154.041 35.0001H146.789L153.889 24.9533Z" fill="#020A47"/>
<path d="M191.168 35.0001H188.033L187.958 31.563C187.202 32.8472 186.208 33.8418 184.974 34.5468C183.74 35.2519 182.33 35.6044 180.744 35.6044C179.006 35.6044 177.445 35.1763 176.06 34.3202C174.701 33.4641 173.63 32.2807 172.85 30.7699C172.069 29.2339 171.679 27.4965 171.679 25.5577C171.679 23.6944 172.094 22.0073 172.925 20.4965C173.782 18.9605 174.927 17.7519 176.362 16.8706C177.798 15.9642 179.384 15.5109 181.121 15.5109C182.557 15.5109 183.866 15.8634 185.049 16.5685C186.258 17.2735 187.228 18.2681 187.958 19.5523V4.40662H191.168V35.0001ZM175.796 29.2969C176.375 30.3796 177.156 31.2231 178.138 31.8274C179.145 32.4317 180.291 32.7339 181.575 32.7339C182.884 32.7339 184.03 32.4317 185.012 31.8274C185.994 31.2231 186.762 30.3796 187.316 29.2969C187.895 28.2141 188.184 26.9677 188.184 25.5577C188.184 24.1476 187.895 22.9012 187.316 21.8185C186.762 20.7357 185.994 19.8922 185.012 19.2879C184.03 18.6836 182.884 18.3814 181.575 18.3814C180.291 18.3814 179.145 18.6836 178.138 19.2879C177.156 19.8922 176.375 20.7357 175.796 21.8185C175.242 22.9012 174.965 24.1476 174.965 25.5577C174.965 26.9677 175.242 28.2141 175.796 29.2969Z" fill="#020A47"/>
<path d="M197.972 4.40662H201.182V19.5523C201.938 18.2681 202.932 17.2735 204.166 16.5685C205.4 15.8634 206.81 15.5109 208.396 15.5109C210.159 15.5109 211.72 15.939 213.08 16.7951C214.439 17.6512 215.509 18.8346 216.29 20.3454C217.071 21.8562 217.461 23.5936 217.461 25.5577C217.461 27.421 217.033 29.1206 216.177 30.6566C215.346 32.1674 214.213 33.376 212.777 34.2825C211.367 35.1638 209.781 35.6044 208.018 35.6044C206.533 35.6044 205.186 35.2519 203.977 34.5468C202.794 33.8418 201.862 32.8472 201.182 31.563L201.107 35.0001H197.972V4.40662ZM213.306 21.8185C212.752 20.7357 211.984 19.8922 211.002 19.2879C210.02 18.6836 208.875 18.3814 207.565 18.3814C206.281 18.3814 205.135 18.6836 204.128 19.2879C203.146 19.8922 202.366 20.7357 201.786 21.8185C201.233 22.9012 200.956 24.1476 200.956 25.5577C200.956 26.9677 201.233 28.2141 201.786 29.2969C202.366 30.3796 203.146 31.2231 204.128 31.8274C205.135 32.4317 206.281 32.7339 207.565 32.7339C208.875 32.7339 210.02 32.4317 211.002 31.8274C211.984 31.2231 212.752 30.3796 213.306 29.2969C213.885 28.2141 214.175 26.9677 214.175 25.5577C214.175 24.1476 213.885 22.9012 213.306 21.8185Z" fill="#020A47"/>
<path d="M231.388 20.421C232.244 18.9102 233.44 17.7393 234.976 16.9084C236.512 16.0523 238.3 15.6242 240.34 15.6242C241.322 15.6242 242.304 15.7501 243.286 16.0019C244.268 16.2537 245.149 16.5936 245.93 17.0217L245.476 19.7789C244.771 19.4012 243.94 19.099 242.984 18.8724C242.027 18.6206 241.145 18.4947 240.34 18.4947C238.25 18.4947 236.563 19.1368 235.278 20.421C234.019 21.68 233.39 23.3796 233.39 25.5199C233.39 27.7357 234.032 29.4731 235.316 30.7321C236.6 31.9911 238.35 32.6206 240.566 32.6206C241.397 32.6206 242.241 32.5199 243.097 32.3184C243.978 32.117 244.922 31.8022 245.93 31.3742L246.307 34.0558C245.501 34.5091 244.57 34.8616 243.512 35.1134C242.48 35.3652 241.435 35.4911 240.377 35.4911C238.287 35.4911 236.475 35.0882 234.939 34.2825C233.403 33.4767 232.207 32.3436 231.35 30.8832C230.519 29.3976 230.104 27.6602 230.104 25.671C230.104 23.6818 230.532 21.9318 231.388 20.421Z" fill="#020A47"/>
<path d="M251.786 4.40662H254.997V35.0001H251.786V4.40662Z" fill="#020A47"/>
<path d="M278.929 30.6566C278.048 32.1674 276.852 33.376 275.341 34.2825C273.856 35.1638 272.194 35.6044 270.356 35.6044C268.467 35.6044 266.78 35.1638 265.294 34.2825C263.809 33.4012 262.625 32.2051 261.744 30.6943C260.888 29.1835 260.46 27.4713 260.46 25.5577C260.46 23.6692 260.901 21.9695 261.782 20.4587C262.663 18.948 263.847 17.7519 265.332 16.8706C266.843 15.9642 268.517 15.5109 270.356 15.5109C272.244 15.5109 273.931 15.9516 275.417 16.8329C276.928 17.7141 278.111 18.9102 278.967 20.421C279.823 21.9318 280.251 23.644 280.251 25.5577C280.251 27.421 279.811 29.1206 278.929 30.6566ZM264.577 29.2969C265.156 30.3796 265.937 31.2231 266.919 31.8274C267.926 32.4317 269.071 32.7339 270.356 32.7339C271.665 32.7339 272.811 32.4317 273.793 31.8274C274.775 31.2231 275.543 30.3796 276.097 29.2969C276.676 28.2141 276.965 26.9677 276.965 25.5577C276.965 24.1476 276.676 22.9012 276.097 21.8185C275.543 20.7357 274.775 19.8922 273.793 19.2879C272.811 18.6836 271.665 18.3814 270.356 18.3814C269.071 18.3814 267.926 18.6836 266.919 19.2879C265.937 19.8922 265.156 20.7357 264.577 21.8185C264.023 22.9012 263.746 24.1476 263.746 25.5577C263.746 26.9677 264.023 28.2141 264.577 29.2969Z" fill="#020A47"/>
<path d="M301.848 35.0001H298.826L298.75 31.7519C298.247 32.9857 297.429 33.9425 296.295 34.6224C295.162 35.2771 293.815 35.6044 292.254 35.6044C290.114 35.6044 288.465 34.9623 287.306 33.6781C286.173 32.3688 285.607 30.5055 285.607 28.0882V16.1152H288.817V27.1818C288.817 29.171 289.17 30.6062 289.875 31.4875C290.58 32.3436 291.738 32.7717 293.349 32.7717C294.986 32.7717 296.27 32.2177 297.202 31.1098C298.159 29.9767 298.637 28.4533 298.637 26.5397V16.1152H301.848V35.0001Z" fill="#020A47"/>
<path d="M326.829 35.0001H323.694L323.619 31.563C322.863 32.8472 321.869 33.8418 320.635 34.5468C319.401 35.2519 317.991 35.6044 316.405 35.6044C314.667 35.6044 313.106 35.1763 311.721 34.3202C310.362 33.4641 309.292 32.2807 308.511 30.7699C307.73 29.2339 307.34 27.4965 307.34 25.5577C307.34 23.6944 307.756 22.0073 308.587 20.4965C309.443 18.9605 310.588 17.7519 312.024 16.8706C313.459 15.9642 315.045 15.5109 316.783 15.5109C318.218 15.5109 319.527 15.8634 320.711 16.5685C321.919 17.2735 322.889 18.2681 323.619 19.5523V4.40662H326.829V35.0001ZM311.457 29.2969C312.036 30.3796 312.817 31.2231 313.799 31.8274C314.806 32.4317 315.952 32.7339 317.236 32.7339C318.545 32.7339 319.691 32.4317 320.673 31.8274C321.655 31.2231 322.423 30.3796 322.977 29.2969C323.556 28.2141 323.845 26.9677 323.845 25.5577C323.845 24.1476 323.556 22.9012 322.977 21.8185C322.423 20.7357 321.655 19.8922 320.673 19.2879C319.691 18.6836 318.545 18.3814 317.236 18.3814C315.952 18.3814 314.806 18.6836 313.799 19.2879C312.817 19.8922 312.036 20.7357 311.457 21.8185C310.903 22.9012 310.626 24.1476 310.626 25.5577C310.626 26.9677 310.903 28.2141 311.457 29.2969Z" fill="#020A47"/>
<path d="M352.276 34.0558C350.866 35.0882 349.003 35.6044 346.686 35.6044C345.503 35.6044 344.32 35.4407 343.136 35.1134C341.978 34.7861 341.046 34.358 340.341 33.8292L340.832 30.9965C341.638 31.5756 342.57 32.0415 343.627 32.394C344.71 32.7465 345.73 32.9227 346.686 32.9227C348.097 32.9227 349.192 32.6835 349.972 32.2051C350.753 31.7015 351.143 31.0217 351.143 30.1656C351.143 29.6116 351.017 29.1584 350.766 28.8059C350.514 28.4282 350.06 28.0882 349.406 27.7861C348.751 27.4587 347.807 27.1188 346.573 26.7663C344.458 26.1368 342.947 25.3814 342.041 24.5001C341.134 23.6188 340.681 22.4731 340.681 21.0631C340.681 19.3508 341.311 18.0037 342.57 17.0217C343.854 16.0145 345.591 15.5109 347.782 15.5109C348.814 15.5109 349.859 15.662 350.917 15.9642C351.974 16.2411 352.83 16.5936 353.485 17.0217L352.956 19.7411C351.345 18.7088 349.595 18.1926 347.706 18.1926C346.447 18.1926 345.478 18.4192 344.798 18.8724C344.118 19.3005 343.778 19.9174 343.778 20.7231C343.778 21.5037 344.068 22.1206 344.647 22.5739C345.226 23.0271 346.296 23.4803 347.857 23.9336C350.275 24.6386 351.962 25.4443 352.918 26.3508C353.9 27.2573 354.391 28.4659 354.391 29.9767C354.391 31.6638 353.686 33.0235 352.276 34.0558Z" fill="#020A47"/>
<path d="M368.629 35.6044C366.489 35.6044 364.626 35.2015 363.039 34.3958C361.478 33.59 360.269 32.4443 359.413 30.9587C358.582 29.4479 358.167 27.6728 358.167 25.6332C358.167 23.644 358.57 21.894 359.376 20.3832C360.181 18.8724 361.289 17.689 362.699 16.8329C364.109 15.9516 365.721 15.5109 367.534 15.5109C369.246 15.5109 370.732 15.9012 371.991 16.6818C373.275 17.4624 374.269 18.5451 374.974 19.93C375.705 21.3149 376.07 22.939 376.07 24.8023C376.07 25.1296 376.057 25.4318 376.032 25.7087C376.032 25.9857 376.019 26.2753 375.994 26.5774H361.34C361.566 28.5666 362.322 30.09 363.606 31.1476C364.89 32.2051 366.615 32.7339 368.78 32.7339C370.996 32.7339 373.162 32.2177 375.277 31.1853L375.654 33.9048C374.798 34.4335 373.741 34.849 372.482 35.1512C371.248 35.4533 369.964 35.6044 368.629 35.6044ZM367.345 18.2681C365.708 18.2681 364.361 18.7843 363.304 19.8167C362.246 20.8239 361.604 22.2339 361.377 24.0469H372.973C372.973 23.7699 372.947 23.5055 372.897 23.2537C372.696 21.6422 372.104 20.4084 371.122 19.5523C370.165 18.6962 368.906 18.2681 367.345 18.2681Z" fill="#020A47"/>
<path d="M381.915 16.1152H384.936L384.974 20.0433C385.503 18.7339 386.271 17.7141 387.278 16.9839C388.285 16.2285 389.431 15.8508 390.715 15.8508C391.093 15.8508 391.496 15.8886 391.924 15.9642C392.377 16.0397 392.717 16.1404 392.943 16.2663L392.603 19.2879C392.276 19.162 391.911 19.0613 391.508 18.9857C391.105 18.885 390.715 18.8347 390.337 18.8347C388.726 18.8347 387.454 19.439 386.523 20.6476C385.591 21.8562 385.125 23.5433 385.125 25.7087V35.0001H381.915V16.1152Z" fill="#020A47"/>
<path d="M395.979 16.1152H399.454L405.422 31.4497L411.389 16.1152H414.638L406.895 35.0001H403.76L395.979 16.1152Z" fill="#020A47"/>
<path d="M427.202 35.6044C425.061 35.6044 423.198 35.2015 421.612 34.3958C420.051 33.59 418.842 32.4443 417.986 30.9587C417.155 29.4479 416.739 27.6728 416.739 25.6332C416.739 23.644 417.142 21.894 417.948 20.3832C418.754 18.8724 419.862 17.689 421.272 16.8329C422.682 15.9516 424.293 15.5109 426.106 15.5109C427.819 15.5109 429.304 15.9012 430.563 16.6818C431.847 17.4624 432.842 18.5451 433.547 19.93C434.277 21.3149 434.642 22.939 434.642 24.8023C434.642 25.1296 434.63 25.4318 434.605 25.7087C434.605 25.9857 434.592 26.2753 434.567 26.5774H419.912C420.139 28.5666 420.894 30.09 422.178 31.1476C423.462 32.2051 425.187 32.7339 427.353 32.7339C429.569 32.7339 431.734 32.2177 433.849 31.1853L434.227 33.9048C433.371 34.4335 432.313 34.849 431.054 35.1512C429.82 35.4533 428.536 35.6044 427.202 35.6044ZM425.918 18.2681C424.281 18.2681 422.934 18.7843 421.876 19.8167C420.819 20.8239 420.177 22.2339 419.95 24.0469H431.545C431.545 23.7699 431.52 23.5055 431.47 23.2537C431.268 21.6422 430.677 20.4084 429.694 19.5523C428.738 18.6962 427.479 18.2681 425.918 18.2681Z" fill="#020A47"/>
<path d="M440.487 16.1152H443.509L443.547 20.0433C444.075 18.7339 444.843 17.7141 445.85 16.9839C446.858 16.2285 448.003 15.8508 449.288 15.8508C449.665 15.8508 450.068 15.8886 450.496 15.9642C450.949 16.0397 451.289 16.1404 451.516 16.2663L451.176 19.2879C450.849 19.162 450.484 19.0613 450.081 18.9857C449.678 18.885 449.288 18.8347 448.91 18.8347C447.298 18.8347 446.027 19.439 445.095 20.6476C444.163 21.8562 443.698 23.5433 443.698 25.7087V35.0001H440.487V16.1152Z" fill="#020A47"/>
<path d="M456.237 4.40662H459.447V35.0001H456.237V4.40662Z" fill="#020A47"/>
<path d="M475.373 35.6044C473.233 35.6044 471.369 35.2015 469.783 34.3958C468.222 33.59 467.013 32.4443 466.157 30.9587C465.326 29.4479 464.911 27.6728 464.911 25.6332C464.911 23.644 465.313 21.894 466.119 20.3832C466.925 18.8724 468.033 17.689 469.443 16.8329C470.853 15.9516 472.465 15.5109 474.277 15.5109C475.99 15.5109 477.475 15.9012 478.734 16.6818C480.018 17.4624 481.013 18.5451 481.718 19.93C482.448 21.3149 482.813 22.939 482.813 24.8023C482.813 25.1296 482.801 25.4318 482.776 25.7087C482.776 25.9857 482.763 26.2753 482.738 26.5774H468.083C468.31 28.5666 469.065 30.09 470.349 31.1476C471.634 32.2051 473.358 32.7339 475.524 32.7339C477.74 32.7339 479.905 32.2177 482.02 31.1853L482.398 33.9048C481.542 34.4335 480.484 34.849 479.225 35.1512C477.992 35.4533 476.707 35.6044 475.373 35.6044ZM474.089 18.2681C472.452 18.2681 471.105 18.7843 470.047 19.8167C468.99 20.8239 468.348 22.2339 468.121 24.0469H479.716C479.716 23.7699 479.691 23.5055 479.641 23.2537C479.439 21.6422 478.848 20.4084 477.866 19.5523C476.909 18.6962 475.65 18.2681 474.089 18.2681Z" fill="#020A47"/>
<path d="M499.372 34.0558C497.962 35.0882 496.098 35.6044 493.782 35.6044C492.598 35.6044 491.415 35.4407 490.231 35.1134C489.073 34.7861 488.141 34.358 487.436 33.8292L487.927 30.9965C488.733 31.5756 489.665 32.0415 490.722 32.394C491.805 32.7465 492.825 32.9227 493.782 32.9227C495.192 32.9227 496.287 32.6835 497.068 32.2051C497.848 31.7015 498.239 31.0217 498.239 30.1656C498.239 29.6116 498.113 29.1584 497.861 28.8059C497.609 28.4282 497.156 28.0882 496.501 27.7861C495.846 27.4587 494.902 27.1188 493.668 26.7663C491.553 26.1368 490.042 25.3814 489.136 24.5001C488.23 23.6188 487.776 22.4731 487.776 21.0631C487.776 19.3508 488.406 18.0037 489.665 17.0217C490.949 16.0145 492.686 15.5109 494.877 15.5109C495.909 15.5109 496.954 15.662 498.012 15.9642C499.069 16.2411 499.926 16.5936 500.58 17.0217L500.051 19.7411C498.44 18.7088 496.69 18.1926 494.801 18.1926C493.542 18.1926 492.573 18.4192 491.893 18.8724C491.213 19.3005 490.873 19.9174 490.873 20.7231C490.873 21.5037 491.163 22.1206 491.742 22.5739C492.321 23.0271 493.391 23.4803 494.953 23.9336C497.37 24.6386 499.057 25.4443 500.014 26.3508C500.996 27.2573 501.487 28.4659 501.487 29.9767C501.487 31.6638 500.782 33.0235 499.372 34.0558Z" fill="#020A47"/>
<path d="M516.744 34.0558C515.334 35.0882 513.471 35.6044 511.154 35.6044C509.971 35.6044 508.787 35.4407 507.604 35.1134C506.446 34.7861 505.514 34.358 504.809 33.8292L505.3 30.9965C506.106 31.5756 507.037 32.0415 508.095 32.394C509.178 32.7465 510.197 32.9227 511.154 32.9227C512.564 32.9227 513.66 32.6835 514.44 32.2051C515.221 31.7015 515.611 31.0217 515.611 30.1656C515.611 29.6116 515.485 29.1584 515.233 28.8059C514.982 28.4282 514.528 28.0882 513.874 27.7861C513.219 27.4587 512.275 27.1188 511.041 26.7663C508.926 26.1368 507.415 25.3814 506.509 24.5001C505.602 23.6188 505.149 22.4731 505.149 21.0631C505.149 19.3508 505.778 18.0037 507.037 17.0217C508.322 16.0145 510.059 15.5109 512.25 15.5109C513.282 15.5109 514.327 15.662 515.384 15.9642C516.442 16.2411 517.298 16.5936 517.953 17.0217L517.424 19.7411C515.813 18.7088 514.063 18.1926 512.174 18.1926C510.915 18.1926 509.946 18.4192 509.266 18.8724C508.586 19.3005 508.246 19.9174 508.246 20.7231C508.246 21.5037 508.536 22.1206 509.115 22.5739C509.694 23.0271 510.764 23.4803 512.325 23.9336C514.742 24.6386 516.429 25.4443 517.386 26.3508C518.368 27.2573 518.859 28.4659 518.859 29.9767C518.859 31.6638 518.154 33.0235 516.744 34.0558Z" fill="#020A47"/>
<path fill-rule="evenodd" clip-rule="evenodd" d="M32.3034 30.6373L42.5565 28.2865C42.7145 28.2545 42.8641 28.19 42.9958 28.097C43.1274 28.004 43.2383 27.8847 43.3213 27.7465C43.4043 27.6083 43.4576 27.4544 43.4778 27.2945C43.498 27.1346 43.4847 26.9723 43.4387 26.8178L39.0783 7.90599C38.9996 7.59391 38.8003 7.32578 38.5241 7.16042C38.2479 6.99507 37.9174 6.94597 37.6051 7.02391L27.3562 9.3747C27.046 9.4543 26.7799 9.6535 26.6162 9.92873C26.4524 10.204 26.4043 10.5328 26.4825 10.8434L30.8302 29.7552C30.9089 30.0673 31.1082 30.3354 31.3844 30.5008C31.6606 30.6661 31.9911 30.7152 32.3034 30.6373Z" fill="#020A47"/>
<path fill-rule="evenodd" clip-rule="evenodd" d="M28.7703 42.3236L41.2015 30.8145C41.67 30.3418 41.5518 30.0506 40.906 30.2827L32.3624 32.2241C32.0091 32.3114 31.6835 32.4863 31.4157 32.7327C31.1479 32.9791 30.9465 33.289 30.8302 33.6337L28.2384 41.9733C28.0611 42.6191 28.2975 42.7963 28.7703 42.3236Z" fill="#020A47"/>
<path fill-rule="evenodd" clip-rule="evenodd" d="M6.09025 38.5674L24.7054 44.3199C25.0234 44.3791 25.3522 44.3233 25.6329 44.1625C25.9136 44.0017 26.1279 43.7463 26.2377 43.442L29.3571 33.4565C29.4022 33.3007 29.4162 33.1376 29.3982 32.9765C29.3802 32.8153 29.3305 32.6593 29.2521 32.5174C29.1737 32.3755 29.068 32.2504 28.9411 32.1494C28.8143 32.0483 28.6687 31.9734 28.5128 31.9287L9.8977 26.2311C9.58257 26.1409 9.24458 26.1791 8.95751 26.3373C8.67043 26.4954 8.45759 26.7607 8.36543 27.0752L5.26713 37.0396C5.1751 37.3514 5.20997 37.6868 5.36413 37.9729C5.5183 38.2591 5.77927 38.4728 6.09025 38.5674Z" fill="#020A47"/>
<path fill-rule="evenodd" clip-rule="evenodd" d="M0.0792906 18.1278L3.85297 34.6509C3.97116 35.2966 4.27508 35.2966 4.43971 34.6509L7.03148 26.3113C7.1198 25.9559 7.12341 25.5848 7.04203 25.2278C6.96064 24.8708 6.79654 24.5379 6.56293 24.2559L0.611152 17.8324C0.197482 17.3471 -0.11066 17.4821 0.0792906 18.1278Z" fill="#020A47"/>
<path fill-rule="evenodd" clip-rule="evenodd" d="M14.6338 0.465288L0.374854 13.6626C0.146094 13.8803 0.0117872 14.179 0.000739528 14.4946C-0.0103081 14.8102 0.102784 15.1176 0.315758 15.3508L7.44523 23.0615C7.66493 23.2946 7.96774 23.4315 8.28786 23.4426C8.60797 23.4536 8.91951 23.3379 9.15479 23.1206L23.4095 9.90219C23.6403 9.68559 23.776 9.38654 23.787 9.07028C23.7981 8.75402 23.6836 8.44622 23.4686 8.21402L16.3518 0.507492C16.2423 0.390994 16.1108 0.297397 15.9649 0.232135C15.8189 0.166872 15.6614 0.131244 15.5016 0.127317C15.3418 0.123391 15.1828 0.151245 15.0338 0.209263C14.8848 0.26728 14.7489 0.354306 14.6338 0.465288Z" fill="#020A47"/>
<path fill-rule="evenodd" clip-rule="evenodd" d="M28.4158 30.3418C29.0659 30.5191 29.4753 30.1688 29.3022 29.4978L25.1782 11.6453C25.0009 10.9996 24.4691 10.8223 24.0005 11.2908L10.5689 23.7664C10.0962 24.2349 10.2143 24.7624 10.8602 24.9397L28.4158 30.3418Z" fill="#020A47"/>
<path fill-rule="evenodd" clip-rule="evenodd" d="M35.427 5.44126L19.1672 0.465355C18.5214 0.288096 18.4032 0.524441 18.9309 1.052L24.8826 7.4544C25.1496 7.70394 25.4725 7.8859 25.8243 7.98502C26.1761 8.08415 26.5465 8.09757 26.9046 8.02416L35.4481 6.08698C36.077 5.90972 36.077 5.61429 35.427 5.44126Z" fill="#020A47"/>
<path d="M216.623 9.93012V5.91312H215.128V5.12012H219.028V5.91312H217.546V9.93012H216.623ZM219.86 9.93012L220.107 5.12012H221.004L222.473 8.17512L223.968 5.12012H224.865L225.112 9.93012H224.293L224.137 6.36812L222.811 9.09812H222.161L220.822 6.34212L220.679 9.93012H219.86Z" fill="#020A47"/>
</svg>
