<svg width="528" height="45" viewBox="0 0 528 45" fill="none" xmlns="http://www.w3.org/2000/svg">
<path d="M61.9161 15.5109H68.7524V35.0001H61.9161V15.5109ZM62.5582 11.394C61.828 10.689 61.4629 9.83287 61.4629 8.82568C61.4629 7.76813 61.828 6.89942 62.5582 6.21957C63.3136 5.51453 64.2327 5.16202 65.3154 5.16202C66.3981 5.16202 67.3046 5.51453 68.0348 6.21957C68.765 6.89942 69.1301 7.76813 69.1301 8.82568C69.1301 9.83287 68.765 10.689 68.0348 11.394C67.3046 12.0991 66.3981 12.4516 65.3154 12.4516C64.2327 12.4516 63.3136 12.0991 62.5582 11.394Z" fill="#020A47"/>
<path d="M73.3503 15.5109H80.0356L80.1111 17.9659C80.6399 16.9839 81.3953 16.2285 82.3773 15.6998C83.3593 15.171 84.4924 14.9066 85.7765 14.9066C87.942 14.9066 89.6039 15.6116 90.7621 17.0217C91.9204 18.4066 92.4996 20.4462 92.4996 23.1404V35.0001H85.6632V24.4246C85.6632 22.1332 84.7945 20.9875 83.0571 20.9875C82.1255 20.9875 81.4079 21.3149 80.9043 21.9695C80.4258 22.599 80.1866 23.5055 80.1866 24.689V35.0001H73.3503V15.5109Z" fill="#020A47"/>
<path d="M98.9582 20.9875H95.8233V15.5109H98.9582V13.6224C98.9582 10.626 99.6884 8.30949 101.149 6.6728C102.634 5.03612 104.724 4.21777 107.419 4.21777C108.199 4.21777 108.929 4.28072 109.609 4.40662C110.314 4.50734 110.906 4.65842 111.384 4.85986L111.044 10.5253C110.768 10.3994 110.428 10.2987 110.025 10.2232C109.647 10.1476 109.294 10.1098 108.967 10.1098C106.852 10.1098 105.794 11.4318 105.794 14.0757V15.5109H110.402V20.9875H105.794V35.0001H98.9582V20.9875ZM113.311 4.40662H120.147V35.0001H113.311V4.40662Z" fill="#020A47"/>
<path d="M143.691 35.0001H136.968L136.892 32.6206C136.389 33.5774 135.633 34.3202 134.626 34.849C133.619 35.3526 132.461 35.6044 131.151 35.6044C129.011 35.6044 127.374 34.9245 126.241 33.5648C125.108 32.1799 124.542 30.1656 124.542 27.5217V15.5109H131.378V26.1242C131.378 28.3904 132.259 29.5235 134.022 29.5235C134.928 29.5235 135.621 29.2087 136.099 28.5792C136.603 27.9246 136.854 27.0055 136.854 25.822V15.5109H143.691V35.0001Z" fill="#020A47"/>
<path d="M153.889 24.9533L147.166 15.5109H154.796L157.969 20.7987L161.066 15.5109H168.318L161.632 24.9911L168.771 35.0001H161.103L157.553 29.108L154.041 35.0001H146.789L153.889 24.9533Z" fill="#020A47"/>
<path d="M191.168 35.0001H188.033L187.958 31.563C187.202 32.8472 186.208 33.8418 184.974 34.5468C183.74 35.2519 182.33 35.6044 180.744 35.6044C179.006 35.6044 177.445 35.1763 176.06 34.3202C174.701 33.4641 173.63 32.2807 172.85 30.7699C172.069 29.2339 171.679 27.4965 171.679 25.5577C171.679 23.6944 172.094 22.0073 172.925 20.4965C173.782 18.9605 174.927 17.7519 176.362 16.8706C177.798 15.9642 179.384 15.5109 181.121 15.5109C182.557 15.5109 183.866 15.8634 185.049 16.5685C186.258 17.2735 187.228 18.2681 187.958 19.5523V4.40662H191.168V35.0001ZM175.796 29.2969C176.375 30.3796 177.156 31.2231 178.138 31.8274C179.145 32.4317 180.291 32.7339 181.575 32.7339C182.884 32.7339 184.03 32.4317 185.012 31.8274C185.994 31.2231 186.762 30.3796 187.316 29.2969C187.895 28.2141 188.184 26.9677 188.184 25.5577C188.184 24.1476 187.895 22.9012 187.316 21.8185C186.762 20.7357 185.994 19.8922 185.012 19.2879C184.03 18.6836 182.884 18.3814 181.575 18.3814C180.291 18.3814 179.145 18.6836 178.138 19.2879C177.156 19.8922 176.375 20.7357 175.796 21.8185C175.242 22.9012 174.965 24.1476 174.965 25.5577C174.965 26.9677 175.242 28.2141 175.796 29.2969Z" fill="#020A47"/>
<path d="M197.972 4.40662H201.182V19.5523C201.938 18.2681 202.932 17.2735 204.166 16.5685C205.4 15.8634 206.81 15.5109 208.396 15.5109C210.159 15.5109 211.72 15.939 213.08 16.7951C214.439 17.6512 215.509 18.8346 216.29 20.3454C217.071 21.8562 217.461 23.5936 217.461 25.5577C217.461 27.421 217.033 29.1206 216.177 30.6566C215.346 32.1674 214.213 33.376 212.777 34.2825C211.367 35.1638 209.781 35.6044 208.018 35.6044C206.533 35.6044 205.186 35.2519 203.977 34.5468C202.794 33.8418 201.862 32.8472 201.182 31.563L201.107 35.0001H197.972V4.40662ZM213.306 21.8185C212.752 20.7357 211.984 19.8922 211.002 19.2879C210.02 18.6836 208.875 18.3814 207.565 18.3814C206.281 18.3814 205.135 18.6836 204.128 19.2879C203.146 19.8922 202.366 20.7357 201.786 21.8185C201.233 22.9012 200.956 24.1476 200.956 25.5577C200.956 26.9677 201.233 28.2141 201.786 29.2969C202.366 30.3796 203.146 31.2231 204.128 31.8274C205.135 32.4317 206.281 32.7339 207.565 32.7339C208.875 32.7339 210.02 32.4317 211.002 31.8274C211.984 31.2231 212.752 30.3796 213.306 29.2969C213.885 28.2141 214.175 26.9677 214.175 25.5577C214.175 24.1476 213.885 22.9012 213.306 21.8185Z" fill="#020A47"/>
<path d="M231.388 20.421C232.244 18.9102 233.44 17.7393 234.976 16.9084C236.512 16.0523 238.3 15.6242 240.34 15.6242C241.322 15.6242 242.304 15.7501 243.286 16.0019C244.268 16.2537 245.149 16.5936 245.93 17.0217L245.476 19.7789C244.771 19.4012 243.94 19.099 242.984 18.8724C242.027 18.6206 241.145 18.4947 240.34 18.4947C238.25 18.4947 236.563 19.1368 235.278 20.421C234.019 21.68 233.39 23.3796 233.39 25.5199C233.39 27.7357 234.032 29.4731 235.316 30.7321C236.6 31.9911 238.35 32.6206 240.566 32.6206C241.397 32.6206 242.241 32.5199 243.097 32.3184C243.978 32.117 244.922 31.8022 245.93 31.3742L246.307 34.0558C245.501 34.5091 244.57 34.8616 243.512 35.1134C242.48 35.3652 241.435 35.4911 240.377 35.4911C238.287 35.4911 236.475 35.0882 234.939 34.2825C233.403 33.4767 232.207 32.3436 231.35 30.8832C230.519 29.3976 230.104 27.6602 230.104 25.671C230.104 23.6818 230.532 21.9318 231.388 20.421Z" fill="#020A47"/>
<path d="M251.786 4.40662H254.997V35.0001H251.786V4.40662Z" fill="#020A47"/>
<path d="M278.929 30.6566C278.048 32.1674 276.852 33.376 275.341 34.2825C273.856 35.1638 272.194 35.6044 270.356 35.6044C268.467 35.6044 266.78 35.1638 265.294 34.2825C263.809 33.4012 262.625 32.2051 261.744 30.6943C260.888 29.1835 260.46 27.4713 260.46 25.5577C260.46 23.6692 260.901 21.9695 261.782 20.4587C262.663 18.948 263.847 17.7519 265.332 16.8706C266.843 15.9642 268.517 15.5109 270.356 15.5109C272.244 15.5109 273.931 15.9516 275.417 16.8329C276.928 17.7141 278.111 18.9102 278.967 20.421C279.823 21.9318 280.251 23.644 280.251 25.5577C280.251 27.421 279.811 29.1206 278.929 30.6566ZM264.577 29.2969C265.156 30.3796 265.937 31.2231 266.919 31.8274C267.926 32.4317 269.071 32.7339 270.356 32.7339C271.665 32.7339 272.811 32.4317 273.793 31.8274C274.775 31.2231 275.543 30.3796 276.097 29.2969C276.676 28.2141 276.965 26.9677 276.965 25.5577C276.965 24.1476 276.676 22.9012 276.097 21.8185C275.543 20.7357 274.775 19.8922 273.793 19.2879C272.811 18.6836 271.665 18.3814 270.356 18.3814C269.071 18.3814 267.926 18.6836 266.919 19.2879C265.937 19.8922 265.156 20.7357 264.577 21.8185C264.023 22.9012 263.746 24.1476 263.746 25.5577C263.746 26.9677 264.023 28.2141 264.577 29.2969Z" fill="#020A47"/>
<path d="M301.848 35.0001H298.826L298.75 31.7519C298.247 32.9857 297.429 33.9425 296.295 34.6224C295.162 35.2771 293.815 35.6044 292.254 35.6044C290.114 35.6044 288.465 34.9623 287.306 33.6781C286.173 32.3688 285.607 30.5055 285.607 28.0882V16.1152H288.817V27.1818C288.817 29.171 289.17 30.6062 289.875 31.4875C290.58 32.3436 291.738 32.7717 293.349 32.7717C294.986 32.7717 296.27 32.2177 297.202 31.1098C298.159 29.9767 298.637 28.4533 298.637 26.5397V16.1152H301.848V35.0001Z" fill="#020A47"/>
<path d="M326.829 35.0001H323.694L323.619 31.563C322.863 32.8472 321.869 33.8418 320.635 34.5468C319.401 35.2519 317.991 35.6044 316.405 35.6044C314.667 35.6044 313.106 35.1763 311.721 34.3202C310.362 33.4641 309.292 32.2807 308.511 30.7699C307.73 29.2339 307.34 27.4965 307.34 25.5577C307.34 23.6944 307.756 22.0073 308.587 20.4965C309.443 18.9605 310.588 17.7519 312.024 16.8706C313.459 15.9642 315.045 15.5109 316.783 15.5109C318.218 15.5109 319.527 15.8634 320.711 16.5685C321.919 17.2735 322.889 18.2681 323.619 19.5523V4.40662H326.829V35.0001ZM311.457 29.2969C312.036 30.3796 312.817 31.2231 313.799 31.8274C314.806 32.4317 315.952 32.7339 317.236 32.7339C318.545 32.7339 319.691 32.4317 320.673 31.8274C321.655 31.2231 322.423 30.3796 322.977 29.2969C323.556 28.2141 323.845 26.9677 323.845 25.5577C323.845 24.1476 323.556 22.9012 322.977 21.8185C322.423 20.7357 321.655 19.8922 320.673 19.2879C319.691 18.6836 318.545 18.3814 317.236 18.3814C315.952 18.3814 314.806 18.6836 313.799 19.2879C312.817 19.8922 312.036 20.7357 311.457 21.8185C310.903 22.9012 310.626 24.1476 310.626 25.5577C310.626 26.9677 310.903 28.2141 311.457 29.2969Z" fill="#020A47"/>
<path d="M360.284 35.0001H357.149L357.073 31.563C356.318 32.8472 355.323 33.8418 354.089 34.5468C352.855 35.2519 351.445 35.6044 349.859 35.6044C348.122 35.6044 346.561 35.1763 345.176 34.3202C343.816 33.4641 342.746 32.2807 341.965 30.7699C341.185 29.2339 340.794 27.4965 340.794 25.5577C340.794 23.6944 341.21 22.0073 342.041 20.4965C342.897 18.9605 344.043 17.7519 345.478 16.8706C346.913 15.9642 348.499 15.5109 350.237 15.5109C351.672 15.5109 352.981 15.8634 354.165 16.5685C355.373 17.2735 356.343 18.2681 357.073 19.5523V4.40662H360.284V35.0001ZM344.911 29.2969C345.49 30.3796 346.271 31.2231 347.253 31.8274C348.26 32.4317 349.406 32.7339 350.69 32.7339C351.999 32.7339 353.145 32.4317 354.127 31.8274C355.109 31.2231 355.877 30.3796 356.431 29.2969C357.01 28.2141 357.3 26.9677 357.3 25.5577C357.3 24.1476 357.01 22.9012 356.431 21.8185C355.877 20.7357 355.109 19.8922 354.127 19.2879C353.145 18.6836 351.999 18.3814 350.69 18.3814C349.406 18.3814 348.26 18.6836 347.253 19.2879C346.271 19.8922 345.49 20.7357 344.911 21.8185C344.357 22.9012 344.08 24.1476 344.08 25.5577C344.08 26.9677 344.357 28.2141 344.911 29.2969Z" fill="#020A47"/>
<path d="M376.227 35.6044C374.087 35.6044 372.224 35.2015 370.637 34.3958C369.076 33.59 367.868 32.4443 367.012 30.9587C366.181 29.4479 365.765 27.6728 365.765 25.6332C365.765 23.644 366.168 21.894 366.974 20.3832C367.78 18.8724 368.887 17.689 370.298 16.8329C371.708 15.9516 373.319 15.5109 375.132 15.5109C376.844 15.5109 378.33 15.9012 379.589 16.6818C380.873 17.4624 381.868 18.5451 382.573 19.93C383.303 21.3149 383.668 22.939 383.668 24.8023C383.668 25.1296 383.655 25.4318 383.63 25.7087C383.63 25.9857 383.618 26.2753 383.592 26.5774H368.938C369.164 28.5666 369.92 30.09 371.204 31.1476C372.488 32.2051 374.213 32.7339 376.378 32.7339C378.594 32.7339 380.76 32.2177 382.875 31.1853L383.253 33.9048C382.396 34.4335 381.339 34.849 380.08 35.1512C378.846 35.4533 377.562 35.6044 376.227 35.6044ZM374.943 18.2681C373.306 18.2681 371.959 18.7843 370.902 19.8167C369.844 20.8239 369.202 22.2339 368.976 24.0469H380.571C380.571 23.7699 380.546 23.5055 380.495 23.2537C380.294 21.6422 379.702 20.4084 378.72 19.5523C377.763 18.6962 376.504 18.2681 374.943 18.2681Z" fill="#020A47"/>
<path d="M408.233 35.0001H405.098L405.023 31.563C404.268 32.8472 403.273 33.8418 402.039 34.5468C400.805 35.2519 399.395 35.6044 397.809 35.6044C396.071 35.6044 394.51 35.1763 393.125 34.3202C391.766 33.4641 390.696 32.2807 389.915 30.7699C389.134 29.2339 388.744 27.4965 388.744 25.5577C388.744 23.6944 389.16 22.0073 389.991 20.4965C390.847 18.9605 391.992 17.7519 393.428 16.8706C394.863 15.9642 396.449 15.5109 398.187 15.5109C399.622 15.5109 400.931 15.8634 402.115 16.5685C403.323 17.2735 404.293 18.2681 405.023 19.5523V4.40662H408.233V35.0001ZM392.861 29.2969C393.44 30.3796 394.221 31.2231 395.203 31.8274C396.21 32.4317 397.356 32.7339 398.64 32.7339C399.949 32.7339 401.095 32.4317 402.077 31.8274C403.059 31.2231 403.827 30.3796 404.381 29.2969C404.96 28.2141 405.25 26.9677 405.25 25.5577C405.25 24.1476 404.96 22.9012 404.381 21.8185C403.827 20.7357 403.059 19.8922 402.077 19.2879C401.095 18.6836 399.949 18.3814 398.64 18.3814C397.356 18.3814 396.21 18.6836 395.203 19.2879C394.221 19.8922 393.44 20.7357 392.861 21.8185C392.307 22.9012 392.03 24.1476 392.03 25.5577C392.03 26.9677 392.307 28.2141 392.861 29.2969Z" fill="#020A47"/>
<path d="M415.037 16.1152H418.247V35.0001H415.037V16.1152ZM415.037 10.412C414.634 9.98395 414.433 9.44258 414.433 8.78791C414.433 8.13323 414.634 7.59187 415.037 7.16381C415.465 6.73576 415.994 6.52173 416.623 6.52173C417.278 6.52173 417.807 6.73576 418.21 7.16381C418.612 7.59187 418.814 8.13323 418.814 8.78791C418.814 9.44258 418.612 9.98395 418.21 10.412C417.807 10.8401 417.278 11.0541 416.623 11.0541C415.994 11.0541 415.465 10.8401 415.037 10.412Z" fill="#020A47"/>
<path d="M424.995 20.421C425.851 18.9102 427.047 17.7393 428.583 16.9084C430.119 16.0523 431.907 15.6242 433.946 15.6242C434.928 15.6242 435.91 15.7501 436.892 16.0019C437.874 16.2537 438.756 16.5936 439.536 17.0217L439.083 19.7789C438.378 19.4012 437.547 19.099 436.59 18.8724C435.633 18.6206 434.752 18.4947 433.946 18.4947C431.856 18.4947 430.169 19.1368 428.885 20.421C427.626 21.68 426.997 23.3796 426.997 25.5199C426.997 27.7357 427.639 29.4731 428.923 30.7321C430.207 31.9911 431.957 32.6206 434.173 32.6206C435.004 32.6206 435.847 32.5199 436.703 32.3184C437.585 32.117 438.529 31.8022 439.536 31.3742L439.914 34.0558C439.108 34.5091 438.176 34.8616 437.119 35.1134C436.086 35.3652 435.042 35.4911 433.984 35.4911C431.894 35.4911 430.081 35.0882 428.545 34.2825C427.009 33.4767 425.813 32.3436 424.957 30.8832C424.126 29.3976 423.711 27.6602 423.711 25.671C423.711 23.6818 424.139 21.9318 424.995 20.421Z" fill="#020A47"/>
<path d="M463.191 35.0001H460.056L459.981 31.563C459.225 32.8472 458.231 33.8418 456.997 34.5468C455.763 35.2519 454.353 35.6044 452.767 35.6044C451.029 35.6044 449.468 35.1763 448.083 34.3202C446.724 33.4641 445.653 32.2807 444.873 30.7699C444.092 29.2339 443.702 27.4965 443.702 25.5577C443.702 23.6944 444.117 22.0073 444.948 20.4965C445.805 18.9605 446.95 17.7519 448.385 16.8706C449.821 15.9642 451.407 15.5109 453.144 15.5109C454.58 15.5109 455.889 15.8634 457.073 16.5685C458.281 17.2735 459.251 18.2681 459.981 19.5523L460.056 16.1152H463.191V35.0001ZM447.819 29.2969C448.398 30.3796 449.179 31.2231 450.161 31.8274C451.168 32.4317 452.314 32.7339 453.598 32.7339C454.907 32.7339 456.053 32.4317 457.035 31.8274C458.017 31.2231 458.785 30.3796 459.339 29.2969C459.918 28.2141 460.207 26.9677 460.207 25.5577C460.207 24.1476 459.918 22.9012 459.339 21.8185C458.785 20.7357 458.017 19.8922 457.035 19.2879C456.053 18.6836 454.907 18.3814 453.598 18.3814C452.314 18.3814 451.168 18.6836 450.161 19.2879C449.179 19.8922 448.398 20.7357 447.819 21.8185C447.265 22.9012 446.988 24.1476 446.988 25.5577C446.988 26.9677 447.265 28.2141 447.819 29.2969Z" fill="#020A47"/>
<path d="M471.279 18.8724H466.973V16.1152H471.279V10.6764H474.489V16.1152H481.099V18.8724H474.489V28.2393C474.489 29.8508 474.766 31.0217 475.32 31.7519C475.899 32.4569 476.818 32.8094 478.077 32.8094C479.286 32.8094 480.533 32.4821 481.817 31.8274L482.194 34.5091C481.615 34.8616 480.91 35.126 480.079 35.3022C479.274 35.5037 478.417 35.6044 477.511 35.6044C475.371 35.6044 473.797 35.0379 472.79 33.9048C471.783 32.7465 471.279 30.9461 471.279 28.5037V18.8724Z" fill="#020A47"/>
<path d="M495.696 35.6044C493.556 35.6044 491.693 35.2015 490.106 34.3958C488.545 33.59 487.336 32.4443 486.48 30.9587C485.649 29.4479 485.234 27.6728 485.234 25.6332C485.234 23.644 485.637 21.894 486.443 20.3832C487.248 18.8724 488.356 17.689 489.766 16.8329C491.176 15.9516 492.788 15.5109 494.601 15.5109C496.313 15.5109 497.799 15.9012 499.058 16.6818C500.342 17.4624 501.336 18.5451 502.041 19.93C502.772 21.3149 503.137 22.939 503.137 24.8023C503.137 25.1296 503.124 25.4318 503.099 25.7087C503.099 25.9857 503.086 26.2753 503.061 26.5774H488.407C488.633 28.5666 489.389 30.09 490.673 31.1476C491.957 32.2051 493.682 32.7339 495.847 32.7339C498.063 32.7339 500.229 32.2177 502.344 31.1853L502.721 33.9048C501.865 34.4335 500.808 34.849 499.549 35.1512C498.315 35.4533 497.031 35.6044 495.696 35.6044ZM494.412 18.2681C492.775 18.2681 491.428 18.7843 490.371 19.8167C489.313 20.8239 488.671 22.2339 488.444 24.0469H500.04C500.04 23.7699 500.015 23.5055 499.964 23.2537C499.763 21.6422 499.171 20.4084 498.189 19.5523C497.232 18.6962 495.973 18.2681 494.412 18.2681Z" fill="#020A47"/>
<path d="M527.702 35.0001H524.567L524.492 31.563C523.736 32.8472 522.742 33.8418 521.508 34.5468C520.274 35.2519 518.864 35.6044 517.278 35.6044C515.54 35.6044 513.979 35.1763 512.594 34.3202C511.235 33.4641 510.164 32.2807 509.384 30.7699C508.603 29.2339 508.213 27.4965 508.213 25.5577C508.213 23.6944 508.628 22.0073 509.459 20.4965C510.315 18.9605 511.461 17.7519 512.896 16.8706C514.332 15.9642 515.918 15.5109 517.655 15.5109C519.091 15.5109 520.4 15.8634 521.583 16.5685C522.792 17.2735 523.762 18.2681 524.492 19.5523V4.40662H527.702V35.0001ZM512.33 29.2969C512.909 30.3796 513.69 31.2231 514.672 31.8274C515.679 32.4317 516.824 32.7339 518.109 32.7339C519.418 32.7339 520.564 32.4317 521.546 31.8274C522.528 31.2231 523.296 30.3796 523.85 29.2969C524.429 28.2141 524.718 26.9677 524.718 25.5577C524.718 24.1476 524.429 22.9012 523.85 21.8185C523.296 20.7357 522.528 19.8922 521.546 19.2879C520.564 18.6836 519.418 18.3814 518.109 18.3814C516.824 18.3814 515.679 18.6836 514.672 19.2879C513.69 19.8922 512.909 20.7357 512.33 21.8185C511.776 22.9012 511.499 24.1476 511.499 25.5577C511.499 26.9677 511.776 28.2141 512.33 29.2969Z" fill="#020A47"/>
<path fill-rule="evenodd" clip-rule="evenodd" d="M32.3034 30.6373L42.5565 28.2865C42.7145 28.2545 42.8641 28.19 42.9958 28.097C43.1274 28.004 43.2383 27.8847 43.3213 27.7465C43.4043 27.6083 43.4576 27.4544 43.4778 27.2945C43.498 27.1346 43.4847 26.9723 43.4387 26.8178L39.0783 7.90599C38.9996 7.59391 38.8003 7.32578 38.5241 7.16042C38.2479 6.99507 37.9174 6.94597 37.6051 7.02391L27.3562 9.3747C27.046 9.4543 26.7799 9.6535 26.6162 9.92873C26.4524 10.204 26.4043 10.5328 26.4825 10.8434L30.8302 29.7552C30.9089 30.0673 31.1082 30.3354 31.3844 30.5008C31.6606 30.6661 31.9911 30.7152 32.3034 30.6373Z" fill="#020A47"/>
<path fill-rule="evenodd" clip-rule="evenodd" d="M28.7703 42.3236L41.2015 30.8145C41.67 30.3418 41.5518 30.0506 40.906 30.2827L32.3624 32.2241C32.0091 32.3114 31.6835 32.4863 31.4157 32.7327C31.1479 32.9791 30.9465 33.289 30.8302 33.6337L28.2384 41.9733C28.0611 42.6191 28.2975 42.7963 28.7703 42.3236Z" fill="#020A47"/>
<path fill-rule="evenodd" clip-rule="evenodd" d="M6.09025 38.5674L24.7054 44.3199C25.0234 44.3791 25.3522 44.3233 25.6329 44.1625C25.9136 44.0017 26.1279 43.7463 26.2377 43.442L29.3571 33.4565C29.4022 33.3007 29.4162 33.1376 29.3982 32.9765C29.3802 32.8153 29.3305 32.6593 29.2521 32.5174C29.1737 32.3755 29.068 32.2504 28.9411 32.1494C28.8143 32.0483 28.6687 31.9734 28.5128 31.9287L9.8977 26.2311C9.58257 26.1409 9.24458 26.1791 8.95751 26.3373C8.67043 26.4954 8.45759 26.7607 8.36543 27.0752L5.26713 37.0396C5.1751 37.3514 5.20997 37.6868 5.36413 37.9729C5.5183 38.2591 5.77927 38.4728 6.09025 38.5674Z" fill="#020A47"/>
<path fill-rule="evenodd" clip-rule="evenodd" d="M0.0792906 18.1278L3.85297 34.6509C3.97116 35.2966 4.27508 35.2966 4.43971 34.6509L7.03148 26.3113C7.1198 25.9559 7.12341 25.5848 7.04203 25.2278C6.96064 24.8708 6.79654 24.5379 6.56293 24.2559L0.611152 17.8324C0.197482 17.3471 -0.11066 17.4821 0.0792906 18.1278Z" fill="#020A47"/>
<path fill-rule="evenodd" clip-rule="evenodd" d="M14.6338 0.465288L0.374854 13.6626C0.146094 13.8803 0.0117872 14.179 0.000739528 14.4946C-0.0103081 14.8102 0.102784 15.1176 0.315758 15.3508L7.44523 23.0615C7.66493 23.2946 7.96774 23.4315 8.28786 23.4426C8.60797 23.4536 8.91951 23.3379 9.15479 23.1206L23.4095 9.90219C23.6403 9.68559 23.776 9.38654 23.787 9.07028C23.7981 8.75402 23.6836 8.44622 23.4686 8.21402L16.3518 0.507492C16.2423 0.390994 16.1108 0.297397 15.9649 0.232135C15.8189 0.166872 15.6614 0.131244 15.5016 0.127317C15.3418 0.123391 15.1828 0.151245 15.0338 0.209263C14.8848 0.26728 14.7489 0.354306 14.6338 0.465288Z" fill="#020A47"/>
<path fill-rule="evenodd" clip-rule="evenodd" d="M28.4158 30.3418C29.0659 30.5191 29.4753 30.1688 29.3022 29.4978L25.1782 11.6453C25.0009 10.9996 24.4691 10.8223 24.0005 11.2908L10.5689 23.7664C10.0962 24.2349 10.2143 24.7624 10.8602 24.9397L28.4158 30.3418Z" fill="#020A47"/>
<path fill-rule="evenodd" clip-rule="evenodd" d="M35.427 5.44126L19.1672 0.465355C18.5214 0.288096 18.4032 0.524441 18.9309 1.052L24.8826 7.4544C25.1496 7.70394 25.4725 7.8859 25.8243 7.98502C26.1761 8.08415 26.5465 8.09757 26.9046 8.02416L35.4481 6.08698C36.077 5.90972 36.077 5.61429 35.427 5.44126Z" fill="#020A47"/>
<path d="M216.623 9.93012V5.91312H215.128V5.12012H219.028V5.91312H217.546V9.93012H216.623ZM219.86 9.93012L220.107 5.12012H221.004L222.473 8.17512L223.968 5.12012H224.865L225.112 9.93012H224.293L224.137 6.36812L222.811 9.09812H222.161L220.822 6.34212L220.679 9.93012H219.86Z" fill="#020A47"/>
</svg>
