<svg width="345" height="55" viewBox="0 0 345 55" fill="none" xmlns="http://www.w3.org/2000/svg">
<path d="M65.3531 20.4515C64.2703 20.4515 63.3513 20.099 62.5959 19.3939C61.8657 18.6889 61.5005 17.8328 61.5005 16.8256C61.5005 15.768 61.8657 14.8993 62.5959 14.2195C63.3513 13.5145 64.2703 13.1619 65.3531 13.1619C66.4358 13.1619 67.3423 13.5145 68.0725 14.2195C68.8027 14.8993 69.1678 15.768 69.1678 16.8256C69.1678 17.8328 68.8027 18.6889 68.0725 19.3939C67.3423 20.099 66.4358 20.4515 65.3531 20.4515ZM61.916 43V23.5108H68.7523V43H61.916ZM73.3502 43V23.5108H80.0732L80.1487 25.9281C80.6523 24.9713 81.3951 24.2285 82.3772 23.6997C83.3592 23.1709 84.4923 22.9065 85.7764 22.9065C87.9671 22.9065 89.6289 23.6116 90.762 25.0216C91.9203 26.4065 92.4994 28.4461 92.4994 31.1403V43H85.6631V32.4245C85.6631 30.1331 84.7944 28.9874 83.057 28.9874C82.1254 28.9874 81.4077 29.3148 80.9041 29.9695C80.4257 30.5989 80.1865 31.5054 80.1865 32.6889V43H73.3502ZM98.9581 43V28.9874H95.8232V23.5108H98.9581V21.6223C98.9581 18.6259 99.6883 16.3094 101.149 14.6727C102.634 13.036 104.724 12.2177 107.418 12.2177C108.199 12.2177 108.929 12.2806 109.609 12.4065C110.314 12.5073 110.906 12.6583 111.384 12.8598L111.044 18.5252C110.767 18.3993 110.427 18.3112 110.025 18.2608C109.647 18.1853 109.294 18.1475 108.967 18.1475C107.884 18.1475 107.079 18.4623 106.55 19.0918C106.046 19.7213 105.794 20.7159 105.794 22.0756V23.5108H110.402V28.9874H105.794V43H98.9581ZM113.424 43V12.4065H120.26V43H113.424ZM131.299 43.6043C129.158 43.6043 127.522 42.9245 126.389 41.5648C125.256 40.1799 124.689 38.1655 124.689 35.5216V23.5108H131.563V34.1241C131.563 35.2824 131.764 36.1385 132.167 36.6925C132.595 37.2464 133.263 37.5234 134.169 37.5234C135.076 37.5234 135.768 37.2086 136.246 36.5792C136.75 35.9245 137.002 35.0054 137.002 33.822V23.5108H143.838V43H137.115L137.04 40.5827C136.536 41.5396 135.781 42.2824 134.773 42.8112C133.791 43.3399 132.633 43.6043 131.299 43.6043ZM146.936 43L154.037 32.9533L147.314 23.5108H154.943L158.116 28.7986L161.213 23.5108H168.465L161.78 33.0288L168.918 43H161.251L157.701 37.1079L154.188 43H146.936ZM180.891 43.6043C179.154 43.6043 177.593 43.1763 176.208 42.3201C174.848 41.464 173.778 40.2806 172.997 38.7698C172.217 37.2338 171.826 35.4964 171.826 33.5576C171.826 31.6943 172.242 30.0072 173.073 28.4964C173.929 26.9605 175.075 25.7518 176.51 24.8705C177.945 23.9641 179.531 23.5108 181.269 23.5108C182.704 23.5108 184.013 23.8633 185.197 24.5684C186.406 25.2734 187.375 26.268 188.105 27.5522V12.4065H191.316V43H188.181L188.105 39.563C187.35 40.8471 186.355 41.8417 185.121 42.5468C183.888 43.2518 182.477 43.6043 180.891 43.6043ZM181.722 40.7338C183.031 40.7338 184.177 40.4317 185.159 39.8273C186.141 39.223 186.909 38.3795 187.463 37.2968C188.042 36.214 188.332 34.9676 188.332 33.5576C188.332 32.1475 188.042 30.9011 187.463 29.8184C186.909 28.7356 186.141 27.8921 185.159 27.2878C184.177 26.6835 183.031 26.3813 181.722 26.3813C180.438 26.3813 179.292 26.6835 178.285 27.2878C177.303 27.8921 176.522 28.7356 175.943 29.8184C175.389 30.9011 175.112 32.1475 175.112 33.5576C175.112 34.9676 175.389 36.214 175.943 37.2968C176.522 38.3795 177.303 39.223 178.285 39.8273C179.292 40.4317 180.438 40.7338 181.722 40.7338ZM208.166 43.6043C206.68 43.6043 205.333 43.2518 204.125 42.5468C202.941 41.8417 202.009 40.8471 201.33 39.563L201.254 43H198.119V12.4065H201.33V27.5522C202.085 26.268 203.08 25.2734 204.313 24.5684C205.547 23.8633 206.957 23.5108 208.544 23.5108C210.306 23.5108 211.867 23.9389 213.227 24.795C214.587 25.6511 215.657 26.8346 216.437 28.3454C217.218 29.8561 217.608 31.5935 217.608 33.5576C217.608 35.4209 217.18 37.1205 216.324 38.6565C215.493 40.1673 214.36 41.3759 212.925 42.2824C211.515 43.1637 209.928 43.6043 208.166 43.6043ZM207.713 40.7338C209.022 40.7338 210.168 40.4317 211.15 39.8273C212.132 39.223 212.9 38.3795 213.454 37.2968C214.033 36.214 214.322 34.9676 214.322 33.5576C214.322 32.1475 214.033 30.9011 213.454 29.8184C212.9 28.7356 212.132 27.8921 211.15 27.2878C210.168 26.6835 209.022 26.3813 207.713 26.3813C206.429 26.3813 205.283 26.6835 204.276 27.2878C203.294 27.8921 202.513 28.7356 201.934 29.8184C201.38 30.9011 201.103 32.1475 201.103 33.5576C201.103 34.9676 201.38 36.214 201.934 37.2968C202.513 38.3795 203.294 39.223 204.276 39.8273C205.283 40.4317 206.429 40.7338 207.713 40.7338ZM240.525 43.491C238.435 43.491 236.622 43.0881 235.086 42.2824C233.55 41.4766 232.354 40.3435 231.498 38.8831C230.667 37.3975 230.251 35.6601 230.251 33.6709C230.251 31.6817 230.68 29.9317 231.536 28.4209C232.392 26.9101 233.588 25.7392 235.124 24.9083C236.66 24.0522 238.447 23.6241 240.487 23.6241C241.469 23.6241 242.451 23.75 243.433 24.0018C244.415 24.2536 245.296 24.5936 246.077 25.0216L245.624 27.7788C244.919 27.4011 244.088 27.099 243.131 26.8723C242.174 26.6205 241.293 26.4946 240.487 26.4946C238.397 26.4946 236.71 27.1367 235.426 28.4209C234.167 29.6799 233.537 31.3795 233.537 33.5198C233.537 35.7356 234.18 37.473 235.464 38.732C236.748 39.991 238.498 40.6205 240.714 40.6205C241.545 40.6205 242.388 40.5198 243.244 40.3184C244.126 40.1169 245.07 39.8022 246.077 39.3741L246.455 42.0558C245.649 42.509 244.717 42.8615 243.66 43.1133C242.627 43.3651 241.582 43.491 240.525 43.491ZM251.934 43V12.4065H255.144V43H251.934ZM270.503 43.6043C268.615 43.6043 266.928 43.1637 265.442 42.2824C263.956 41.4011 262.773 40.205 261.892 38.6943C261.035 37.1835 260.607 35.4712 260.607 33.5576C260.607 31.6691 261.048 29.9695 261.929 28.4587C262.811 26.9479 263.994 25.7518 265.48 24.8705C266.99 23.9641 268.665 23.5108 270.503 23.5108C272.392 23.5108 274.079 23.9515 275.564 24.8328C277.075 25.7141 278.258 26.9101 279.115 28.4209C279.971 29.9317 280.399 31.6439 280.399 33.5576C280.399 35.4209 279.958 37.1205 279.077 38.6565C278.195 40.1673 276.999 41.3759 275.489 42.2824C274.003 43.1637 272.341 43.6043 270.503 43.6043ZM270.503 40.7338C271.812 40.7338 272.958 40.4317 273.94 39.8273C274.922 39.223 275.69 38.3795 276.244 37.2968C276.823 36.214 277.113 34.9676 277.113 33.5576C277.113 32.1475 276.823 30.9011 276.244 29.8184C275.69 28.7356 274.922 27.8921 273.94 27.2878C272.958 26.6835 271.812 26.3813 270.503 26.3813C269.219 26.3813 268.073 26.6835 267.066 27.2878C266.084 27.8921 265.303 28.7356 264.724 29.8184C264.17 30.9011 263.893 32.1475 263.893 33.5576C263.893 34.9676 264.17 36.214 264.724 37.2968C265.303 38.3795 266.084 39.223 267.066 39.8273C268.073 40.4317 269.219 40.7338 270.503 40.7338ZM292.401 43.6043C290.261 43.6043 288.612 42.9622 287.454 41.6781C286.321 40.3687 285.754 38.5054 285.754 36.0881V24.1151H288.964V35.1817C288.964 37.1709 289.317 38.6061 290.022 39.4874C290.727 40.3435 291.885 40.7716 293.497 40.7716C295.134 40.7716 296.418 40.2176 297.349 39.1097C298.306 37.9766 298.785 36.4533 298.785 34.5396V24.1151H301.995V43H298.973L298.898 39.7518C298.394 40.9856 297.576 41.9424 296.443 42.6223C295.31 43.277 293.963 43.6043 292.401 43.6043ZM316.552 43.6043C314.815 43.6043 313.254 43.1763 311.869 42.3201C310.509 41.464 309.439 40.2806 308.658 38.7698C307.878 37.2338 307.488 35.4964 307.488 33.5576C307.488 31.6943 307.903 30.0072 308.734 28.4964C309.59 26.9605 310.736 25.7518 312.171 24.8705C313.606 23.9641 315.193 23.5108 316.93 23.5108C318.365 23.5108 319.675 23.8633 320.858 24.5684C322.067 25.2734 323.036 26.268 323.766 27.5522V12.4065H326.977V43H323.842L323.766 39.563C323.011 40.8471 322.016 41.8417 320.782 42.5468C319.549 43.2518 318.139 43.6043 316.552 43.6043ZM317.383 40.7338C318.693 40.7338 319.838 40.4317 320.82 39.8273C321.802 39.223 322.57 38.3795 323.124 37.2968C323.703 36.214 323.993 34.9676 323.993 33.5576C323.993 32.1475 323.703 30.9011 323.124 29.8184C322.57 28.7356 321.802 27.8921 320.82 27.2878C319.838 26.6835 318.693 26.3813 317.383 26.3813C316.099 26.3813 314.953 26.6835 313.946 27.2878C312.964 27.8921 312.184 28.7356 311.604 29.8184C311.05 30.9011 310.774 32.1475 310.774 33.5576C310.774 34.9676 311.05 36.214 311.604 37.2968C312.184 38.3795 312.964 39.223 313.946 39.8273C314.953 40.4317 316.099 40.7338 317.383 40.7338Z" fill="#020A47"/>
<path d="M335.623 17.93V13.913H334.128V13.12H338.028V13.913H336.546V17.93H335.623ZM338.86 17.93L339.107 13.12H340.004L341.473 16.175L342.968 13.12H343.865L344.112 17.93H343.293L343.137 14.368L341.811 17.098H341.161L339.822 14.342L339.679 17.93H338.86Z" fill="#020A47"/>
<path fill-rule="evenodd" clip-rule="evenodd" d="M32.3034 38.6372L42.5565 36.2864C42.7145 36.2544 42.8641 36.1899 42.9958 36.0969C43.1274 36.0039 43.2383 35.8846 43.3213 35.7464C43.4043 35.6082 43.4576 35.4543 43.4778 35.2944C43.498 35.1345 43.4847 34.9721 43.4387 34.8177L39.0783 15.9059C38.9996 15.5938 38.8003 15.3257 38.5241 15.1603C38.2479 14.9949 37.9174 14.9459 37.6051 15.0238L27.3562 17.3746C27.046 17.4542 26.7799 17.6534 26.6162 17.9286C26.4524 18.2038 26.4043 18.5327 26.4825 18.8433L30.8302 37.7551C30.9089 38.0672 31.1082 38.3353 31.3844 38.5006C31.6606 38.666 31.9911 38.7151 32.3034 38.6372Z" fill="#020A47"/>
<path fill-rule="evenodd" clip-rule="evenodd" d="M28.7703 50.3235L41.2015 38.8144C41.67 38.3417 41.5518 38.0505 40.906 38.2826L32.3624 40.224C32.0091 40.3113 31.6835 40.4862 31.4157 40.7326C31.1479 40.979 30.9465 41.2889 30.8302 41.6336L28.2384 49.9732C28.0611 50.6189 28.2975 50.7962 28.7703 50.3235Z" fill="#020A47"/>
<path fill-rule="evenodd" clip-rule="evenodd" d="M6.09025 46.5673L24.7054 52.3198C25.0234 52.379 25.3522 52.3232 25.6329 52.1624C25.9136 52.0016 26.1279 51.7462 26.2377 51.4419L29.3571 41.4564C29.4022 41.3006 29.4162 41.1375 29.3982 40.9764C29.3802 40.8152 29.3305 40.6592 29.2521 40.5173C29.1737 40.3753 29.068 40.2503 28.9411 40.1493C28.8143 40.0482 28.6687 39.9732 28.5128 39.9286L9.8977 34.231C9.58257 34.1408 9.24459 34.179 8.95751 34.3371C8.67043 34.4953 8.45759 34.7606 8.36543 35.075L5.26713 45.0395C5.17511 45.3512 5.20997 45.6867 5.36413 45.9728C5.5183 46.259 5.77927 46.4726 6.09025 46.5673Z" fill="#020A47"/>
<path fill-rule="evenodd" clip-rule="evenodd" d="M0.0792906 26.1277L3.85297 42.6507C3.97116 43.2965 4.27508 43.2965 4.43971 42.6507L7.03148 34.3111C7.11979 33.9558 7.12341 33.5847 7.04203 33.2277C6.96064 32.8707 6.79654 32.5378 6.56293 32.2558L0.611152 25.8323C0.197482 25.3469 -0.11066 25.482 0.0792906 26.1277Z" fill="#020A47"/>
<path fill-rule="evenodd" clip-rule="evenodd" d="M14.6338 8.46517L0.374854 21.6625C0.146094 21.8802 0.0117872 22.1789 0.000739528 22.4945C-0.0103081 22.8101 0.102784 23.1175 0.315758 23.3507L7.44523 31.0614C7.66493 31.2944 7.96774 31.4314 8.28786 31.4424C8.60797 31.4535 8.91951 31.3378 9.15479 31.1205L23.4095 17.9021C23.6403 17.6855 23.776 17.3864 23.787 17.0702C23.7981 16.7539 23.6836 16.4461 23.4686 16.2139L16.3518 8.50737C16.2423 8.39087 16.1108 8.29728 15.9649 8.23201C15.8189 8.16675 15.6614 8.13112 15.5016 8.1272C15.3418 8.12327 15.1828 8.15112 15.0338 8.20914C14.8848 8.26716 14.7489 8.35418 14.6338 8.46517Z" fill="#020A47"/>
<path fill-rule="evenodd" clip-rule="evenodd" d="M28.4158 38.3417C29.0659 38.519 29.4753 38.1687 29.3022 37.4976L25.1782 19.6452C25.0009 18.9994 24.4691 18.8222 24.0005 19.2907L10.5689 31.7663C10.0962 32.2347 10.2143 32.7623 10.8602 32.9396L28.4158 38.3417Z" fill="#020A47"/>
<path fill-rule="evenodd" clip-rule="evenodd" d="M35.427 13.4411L19.1672 8.46523C18.5214 8.28797 18.4032 8.52432 18.9309 9.05187L24.8826 15.4543C25.1496 15.7038 25.4725 15.8858 25.8243 15.9849C26.1761 16.084 26.5465 16.0975 26.9046 16.024L35.4481 14.0869C36.077 13.9096 36.077 13.6142 35.427 13.4411Z" fill="#020A47"/>
</svg>
