<svg width="287" height="56" viewBox="0 0 287 56" fill="none" xmlns="http://www.w3.org/2000/svg">
<path d="M261.623 20.93V16.913H260.128V16.12H264.028V16.913H262.546V20.93H261.623ZM264.86 20.93L265.107 16.12H266.004L267.473 19.175L268.968 16.12H269.865L270.112 20.93H269.293L269.137 17.368L267.811 20.098H267.161L265.822 17.342L265.679 20.93H264.86Z" fill="#020A47"/>
<path d="M66.3932 20.0762C65.2924 20.0762 64.3581 19.7178 63.5901 19.0011C62.8477 18.2843 62.4766 17.4139 62.4766 16.39C62.4766 15.3148 62.8477 14.4317 63.5901 13.7405C64.3581 13.0237 65.2924 12.6653 66.3932 12.6653C67.4939 12.6653 68.4155 13.0237 69.1579 13.7405C69.9002 14.4317 70.2714 15.3148 70.2714 16.39C70.2714 17.4139 69.9002 18.2843 69.1579 19.0011C68.4155 19.7178 67.4939 20.0762 66.3932 20.0762ZM62.8989 43V23.1865H69.849V43H62.8989ZM74.5234 43V23.1865H81.3583L81.4351 25.644C81.9471 24.6712 82.7023 23.916 83.7006 23.3785C84.699 22.8409 85.8509 22.5721 87.1565 22.5721C89.3836 22.5721 91.0731 23.2889 92.225 24.7224C93.4026 26.1303 93.9914 28.2039 93.9914 30.9429V43H87.0413V32.2485C87.0413 29.919 86.1581 28.7542 84.3918 28.7542C83.4446 28.7542 82.7151 29.087 82.2031 29.7526C81.7167 30.3926 81.4735 31.3141 81.4735 32.5173V43H74.5234ZM100.557 43V28.7542H97.3704V23.1865H100.557V21.2666C100.557 18.2203 101.3 15.8652 102.785 14.2013C104.295 12.5373 106.42 11.7054 109.159 11.7054C109.952 11.7054 110.695 11.7694 111.386 11.8974C112.103 11.9998 112.704 12.1534 113.191 12.3581L112.845 18.1179C112.563 17.9899 112.218 17.9003 111.808 17.8491C111.424 17.7723 111.066 17.7339 110.733 17.7339C109.632 17.7339 108.813 18.0539 108.276 18.6939C107.764 19.3338 107.508 20.345 107.508 21.7273V23.1865H112.192V28.7542H107.508V43H100.557ZM115.264 43V11.8974H122.214V43H115.264ZM133.436 43.6144C131.26 43.6144 129.597 42.9232 128.445 41.5409C127.293 40.1329 126.717 38.085 126.717 35.3971V23.1865H133.705V33.9764C133.705 35.1539 133.91 36.0243 134.319 36.5875C134.755 37.1507 135.433 37.4322 136.355 37.4322C137.276 37.4322 137.98 37.1123 138.467 36.4723C138.978 35.8067 139.234 34.8724 139.234 33.6692V23.1865H146.185V43H139.35L139.273 40.5425C138.761 41.5153 137.993 42.2704 136.969 42.808C135.971 43.3456 134.793 43.6144 133.436 43.6144ZM149.334 43L156.553 32.7861L149.718 23.1865H157.475L160.7 28.5622L163.849 23.1865H171.221L164.425 32.8628L171.682 43H163.887L160.278 37.0099L156.707 43H149.334ZM183.854 43.6144C182.088 43.6144 180.501 43.1792 179.093 42.3088C177.71 41.4385 176.623 40.2353 175.829 38.6994C175.035 37.1379 174.639 35.3715 174.639 33.4004C174.639 31.5061 175.061 29.791 175.906 28.255C176.776 26.6935 177.941 25.4648 179.4 24.5688C180.859 23.6473 182.472 23.1865 184.238 23.1865C185.697 23.1865 187.028 23.5449 188.232 24.2616C189.46 24.9784 190.446 25.9895 191.188 27.2951L191.265 23.8008H194.452V43H191.265L191.188 39.5058C190.42 40.8113 189.409 41.8225 188.155 42.5392C186.9 43.256 185.467 43.6144 183.854 43.6144ZM184.699 40.6961C186.03 40.6961 187.195 40.3889 188.193 39.7745C189.192 39.1602 189.972 38.3026 190.536 37.2019C191.124 36.1011 191.419 34.834 191.419 33.4004C191.419 31.9669 191.124 30.6997 190.536 29.599C189.972 28.4982 189.192 27.6407 188.193 27.0263C187.195 26.4119 186.03 26.1047 184.699 26.1047C183.393 26.1047 182.229 26.4119 181.205 27.0263C180.206 27.6407 179.413 28.4982 178.824 29.599C178.261 30.6997 177.979 31.9669 177.979 33.4004C177.979 34.834 178.261 36.1011 178.824 37.2019C179.413 38.3026 180.206 39.1602 181.205 39.7745C182.229 40.3889 183.393 40.6961 184.699 40.6961ZM210.469 43.4992C208.345 43.4992 206.502 43.0896 204.94 42.2704C203.378 41.4513 202.162 40.2993 201.292 38.8146C200.447 37.3043 200.025 35.5379 200.025 33.5156C200.025 31.4933 200.46 29.7142 201.331 28.1783C202.201 26.6423 203.417 25.452 204.978 24.6072C206.54 23.7368 208.357 23.3017 210.431 23.3017C211.429 23.3017 212.428 23.4297 213.426 23.6857C214.424 23.9416 215.32 24.2872 216.114 24.7224L215.653 27.5255C214.936 27.1415 214.092 26.8343 213.119 26.6039C212.146 26.3479 211.25 26.2199 210.431 26.2199C208.306 26.2199 206.591 26.8727 205.286 28.1783C204.006 29.4582 203.366 31.1861 203.366 33.362C203.366 35.6147 204.018 37.381 205.324 38.661C206.63 39.9409 208.409 40.5809 210.661 40.5809C211.506 40.5809 212.364 40.4785 213.234 40.2737C214.13 40.0689 215.09 39.7489 216.114 39.3138L216.498 42.04C215.679 42.5008 214.732 42.8592 213.656 43.1152C212.607 43.3712 211.544 43.4992 210.469 43.4992ZM231.173 43.6144C228.997 43.6144 227.103 43.2048 225.49 42.3856C223.903 41.5665 222.674 40.4017 221.804 38.8914C220.959 37.3554 220.537 35.5507 220.537 33.4772C220.537 31.4549 220.946 29.6758 221.765 28.1399C222.584 26.6039 223.711 25.4008 225.144 24.5304C226.578 23.6345 228.216 23.1865 230.059 23.1865C231.8 23.1865 233.31 23.5833 234.59 24.3768C235.896 25.1704 236.907 26.2711 237.624 27.6791C238.366 29.087 238.737 30.7381 238.737 32.6325C238.737 32.9652 238.725 33.2724 238.699 33.554C238.699 33.8356 238.686 34.13 238.661 34.4372H223.762C223.992 36.4595 224.76 38.0082 226.066 39.0834C227.371 40.1585 229.125 40.6961 231.327 40.6961C233.579 40.6961 235.781 40.1713 237.931 39.1218L238.315 41.8864C237.445 42.424 236.369 42.8464 235.09 43.1536C233.835 43.4608 232.53 43.6144 231.173 43.6144ZM229.867 25.9895C228.203 25.9895 226.834 26.5143 225.759 27.5639C224.684 28.5878 224.031 30.0214 223.8 31.8645H235.589C235.589 31.5829 235.563 31.3141 235.512 31.0581C235.307 29.4198 234.706 28.1655 233.707 27.2951C232.734 26.4247 231.455 25.9895 229.867 25.9895ZM249.888 43.6144C248.685 43.6144 247.482 43.448 246.279 43.1152C245.101 42.7824 244.154 42.3472 243.437 41.8097L243.936 38.9298C244.756 39.5186 245.703 39.9921 246.778 40.3505C247.879 40.7089 248.915 40.8881 249.888 40.8881C251.322 40.8881 252.435 40.6449 253.229 40.1585C254.022 39.6465 254.419 38.9554 254.419 38.085C254.419 37.5218 254.291 37.0611 254.035 36.7027C253.779 36.3187 253.318 35.9731 252.653 35.6659C251.987 35.3331 251.027 34.9876 249.773 34.6292C247.623 33.9892 246.087 33.2212 245.165 32.3253C244.244 31.4293 243.783 30.2646 243.783 28.831C243.783 27.0903 244.423 25.7208 245.703 24.7224C247.008 23.6984 248.775 23.1865 251.002 23.1865C252.051 23.1865 253.114 23.3401 254.189 23.6473C255.264 23.9288 256.134 24.2872 256.8 24.7224L256.262 27.4871C254.624 26.4375 252.845 25.9128 250.925 25.9128C249.645 25.9128 248.659 26.1431 247.968 26.6039C247.277 27.0391 246.932 27.6663 246.932 28.4854C246.932 29.279 247.226 29.9062 247.815 30.367C248.403 30.8277 249.491 31.2885 251.079 31.7493C253.536 32.4661 255.251 33.2852 256.224 34.2068C257.222 35.1283 257.721 36.3571 257.721 37.893C257.721 39.6081 257.005 40.9905 255.571 42.04C254.138 43.0896 252.243 43.6144 249.888 43.6144Z" fill="#020A47"/>
<path fill-rule="evenodd" clip-rule="evenodd" d="M32.841 39.2803L43.2648 36.8904C43.4254 36.8579 43.5775 36.7923 43.7113 36.6978C43.8452 36.6033 43.9579 36.4819 44.0423 36.3414C44.1267 36.201 44.1809 36.0445 44.2014 35.8819C44.222 35.7194 44.2084 35.5543 44.1617 35.3973L39.7287 16.1707C39.6487 15.8534 39.446 15.5808 39.1653 15.4127C38.8845 15.2446 38.5485 15.1947 38.231 15.274L27.8115 17.6639C27.4961 17.7448 27.2256 17.9473 27.0591 18.2271C26.8927 18.5069 26.8438 18.8413 26.9232 19.157L31.3433 38.3836C31.4234 38.7008 31.626 38.9734 31.9067 39.1415C32.1875 39.3097 32.5235 39.3596 32.841 39.2803Z" fill="#020A47"/>
<path fill-rule="evenodd" clip-rule="evenodd" d="M29.2491 51.1612L41.8872 39.4605C42.3635 38.9799 42.2434 38.6839 41.5868 38.9199L32.901 40.8936C32.5419 40.9823 32.2108 41.1601 31.9386 41.4106C31.6663 41.6611 31.4616 41.9762 31.3433 42.3267L28.7084 50.805C28.5281 51.4615 28.7685 51.6417 29.2491 51.1612Z" fill="#020A47"/>
<path fill-rule="evenodd" clip-rule="evenodd" d="M6.19161 47.3425L25.1166 53.1907C25.4399 53.2509 25.7741 53.1942 26.0595 53.0307C26.3449 52.8672 26.5628 52.6076 26.6743 52.2982L29.8457 42.1464C29.8916 41.9881 29.9058 41.8223 29.8875 41.6584C29.8691 41.4946 29.8187 41.336 29.7389 41.1917C29.6592 41.0474 29.5518 40.9203 29.4228 40.8176C29.2938 40.7149 29.1459 40.6386 28.9874 40.5932L10.0624 34.8008C9.74206 34.7092 9.39844 34.748 9.10659 34.9087C8.81474 35.0695 8.59835 35.3392 8.50466 35.6589L5.35479 45.7892C5.26123 46.1061 5.29668 46.4472 5.45341 46.7381C5.61014 47.029 5.87546 47.2462 6.19161 47.3425Z" fill="#020A47"/>
<path fill-rule="evenodd" clip-rule="evenodd" d="M0.0806102 26.5627L3.9171 43.3607C4.03726 44.0172 4.34624 44.0172 4.5136 43.3607L7.1485 34.8823C7.23829 34.5211 7.24196 34.1438 7.15923 33.7808C7.07649 33.4179 6.90965 33.0794 6.67216 32.7928L0.621323 26.2623C0.200769 25.7689 -0.112502 25.9062 0.0806102 26.5627Z" fill="#020A47"/>
<path fill-rule="evenodd" clip-rule="evenodd" d="M14.8774 8.60617L0.381093 22.0231C0.148526 22.2445 0.0119833 22.5482 0.000751836 22.869C-0.0104797 23.1899 0.104495 23.5023 0.321014 23.7394L7.56914 31.5785C7.7925 31.8154 8.10035 31.9546 8.42579 31.9659C8.75123 31.9771 9.06796 31.8595 9.30715 31.6386L23.7991 18.2001C24.0337 17.9799 24.1717 17.6759 24.1829 17.3544C24.1942 17.0329 24.0778 16.7199 23.8592 16.4839L16.6239 8.64908C16.5126 8.53064 16.3789 8.43549 16.2306 8.36914C16.0822 8.30279 15.9221 8.26657 15.7596 8.26258C15.5971 8.25859 15.4355 8.2869 15.284 8.34589C15.1326 8.40487 14.9943 8.49334 14.8774 8.60617Z" fill="#020A47"/>
<path fill-rule="evenodd" clip-rule="evenodd" d="M28.8887 38.98C29.5496 39.1602 29.9659 38.8041 29.7899 38.1218L25.5973 19.9723C25.417 19.3158 24.8763 19.1356 24.4 19.6118L10.7448 32.2951C10.2642 32.7714 10.3843 33.3077 11.0409 33.4879L28.8887 38.98Z" fill="#020A47"/>
<path fill-rule="evenodd" clip-rule="evenodd" d="M36.0166 13.665L19.4862 8.60624C18.8297 8.42603 18.7095 8.66631 19.2459 9.20265L25.2968 15.7116C25.5682 15.9653 25.8965 16.1503 26.2541 16.2511C26.6118 16.3518 26.9883 16.3655 27.3523 16.2909L36.0381 14.3214C36.6775 14.1412 36.6775 13.8409 36.0166 13.665Z" fill="#020A47"/>
</svg>
