<?xml version="1.0" encoding="utf-8"?>
<!-- Generator: Adobe Illustrator 19.1.0, SVG Export Plug-In . SVG Version: 6.00 Build 0)  -->
<svg version="1.1" id="Layer_1" xmlns="http://www.w3.org/2000/svg" xmlns:xlink="http://www.w3.org/1999/xlink" x="0px" y="0px"
	 viewBox="316 -220 672 480" style="enable-background:new 316 -220 672 480;" xml:space="preserve">
<style type="text/css">
	.st0{fill:#FFFFFF;}
	.st1{fill:none;}
	.st2{fill:#292933;}
	.st3{fill:#8E91A1;}
</style>
<rect x="316" y="-220" class="st0" width="672" height="480"/>
<g>
	<rect x="422.2" y="-35" class="st1" width="458.8" height="110"/>
	<path id="Cuboctahedron_1_" class="st2" d="M508.6,18l-8.4-36.5c-0.5-2-2.3-4-4.3-4.6l-38.3-11.8c-0.5-0.2-1-0.2-1.6-0.2
		c-1.6,0-3.3,0.7-4.5,1.6L424.1-7.9c-1.5,1.3-2.3,4-1.8,5.9l9,39c0.5,2,2.3,4,4.3,4.6l35.8,11.1c0.5,0.2,1,0.2,1.6,0.2
		c1.6,0,3.3-0.7,4.5-1.6l29.3-27.2C508.3,22.6,509.1,20,508.6,18z M461.7-26.1l26.3,8.1c1,0.3,1,0.8,0,1l-13.8,3.1
		c-1,0.3-2.5-0.2-3.2-1l-9.6-10.4C460.4-26,460.6-26.4,461.7-26.1z M478,21c0.3,1-0.4,1.6-1.4,1.3l-28.4-8.8c-1-0.3-1.2-1.1-0.5-1.9
		l21.7-20.2c0.8-0.8,1.6-0.5,1.9,0.6L478,21z M431.3-4.7l23-21.4c0.8-0.8,2-0.7,2.8,0.1l11.5,12.5c0.8,0.8,0.7,2-0.1,2.8l-23,21.4
		c-0.8,0.8-2,0.7-2.8-0.1L431.2-2C430.4-2.8,430.5-4,431.3-4.7z M436.9,29.3l-6.1-26.8c-0.3-1,0.2-1.2,0.9-0.5l9.6,10.4
		c0.8,0.8,1,2.3,0.8,3.3l-4.2,13.5C437.6,30.3,437.1,30.3,436.9,29.3z M470.6,45l-30.1-9.3c-1-0.3-1.6-1.4-1.3-2.5l5-16.2
		c0.3-1,1.4-1.6,2.5-1.3l30.1,9.2c1,0.3,1.6,1.4,1.3,2.5l-5,16.2C472.7,44.6,471.7,45.2,470.6,45z M497.3,23.1l-20.1,18.7
		c-0.8,0.8-1.1,0.5-0.9-0.6l4.2-13.5c0.3-1,1.4-2.1,2.5-2.3l13.8-3.1C497.8,21.9,498,22.3,497.3,23.1z M499.5,19l-16.6,3.8
		c-1,0.3-2.1-0.4-2.4-1.4l-7-30.7c-0.3-1,0.4-2.1,1.4-2.4l16.6-3.8c1-0.3,2.1,0.4,2.4,1.4l7,30.7C501.2,17.8,500.5,18.8,499.5,19z"
		/>
	<g id="Type_1_">
		<path class="st2" d="M756.2,30.9c-0.1,1,0.3,1.1,0.7,1.1h2.3c0.9,0,1-0.8,1-1.1l9.3-53c0.2-1-0.5-1.1-1-1l0,0l-2.5,0.4
			c-0.7,0.1-1,0.7-1,1l0,0l-2.7,15.4c-2.4-0.8-6.9-1.2-9.4-1.2c-9.9,0-14.7,3.8-16.5,14.4l-3,16.7c-0.2,1-0.3,2-0.3,2.9
			c0,4.8,2.7,6.6,7.6,6.6c5.6,0,11.4-2.7,15.9-6.5L756.2,30.9z M741.4,28.9c-2.4,0-3.6-0.7-3.6-3.1c0-0.7,0.1-1.3,0.3-2.3l2.8-15.9
			c1.5-8.7,4.5-11.1,11.6-11.1c3.1,0,6.2,0.5,9.3,1.2l-4.2,23.5C752.5,25.7,746.3,28.9,741.4,28.9z"/>
		<path class="st2" d="M795.7,30.9c-0.1,1,0.3,1.1,0.8,1.1h2.3c0.9,0,1-0.8,1-1.1l0,0L806.1-5c-4.6-1.7-9.8-2.6-13.4-2.6
			c-10.5,0-14.7,4.2-16.5,14.4l-3,16.7c-0.2,1-0.3,2-0.3,2.9c0,4.8,2.7,6.6,7.6,6.6c5.6,0,11.1-2.7,15.6-6.5L795.7,30.9z M781,28.9
			c-2.4,0-3.6-0.7-3.6-3.1c0-0.7,0.1-1.3,0.3-2.3l2.8-15.9C781.9-1,784.7-3.6,792-3.6c3.2,0,7,0.7,9.1,1.2L797,21.2
			C791.9,25.7,785.8,28.9,781,28.9z"/>
		<path class="st2" d="M859.4,30.9c-0.1,1,0.3,1.1,0.7,1.1h2.3c0.9,0,1-0.8,1-1.1l0,0L869.7-5c-4.6-1.7-9.8-2.6-13.4-2.6
			c-10.5,0-14.7,4.2-16.5,14.4l-3,16.7c-0.2,1-0.3,2-0.3,2.9c0,4.8,2.7,6.6,7.6,6.6c5.6,0,11.1-2.7,15.6-6.5L859.4,30.9z
			 M844.8,28.9c-2.4,0-3.6-0.7-3.6-3.1c0-0.7,0.1-1.3,0.3-2.3l2.8-15.9c1.5-8.6,4.3-11.1,11.6-11.1c3.2,0,7,0.7,9.1,1.2l-4.2,23.5
			C855.7,25.7,849.7,28.9,844.8,28.9z"/>
		<g>
			<path class="st2" d="M821.8-16.3L821.8-16.3L821.8-16.3z"/>
			<path class="st2" d="M835.2-3.6L835.2-3.6l0.6-2.6c0.2-0.7-0.2-0.7-0.6-0.7h-11l1.5-9l0,0c0.2-1-0.5-1.1-1-1l0,0l-2.5,0.4l0,0
				c-0.7,0.1-1,0.7-1,1l0,0l-1.5,8.6H813c-0.2,0-0.8,0.1-0.9,0.7l-0.4,2.5l0,0c0,0.2,0,0.7,0.7,0.7h6.7l-5.1,29.1
				c-0.1,0.6-0.2,1-0.2,1.5c0,3.5,2.5,5.1,6.4,5.1c3,0,8.5-0.9,11.2-2.2c0.9-0.5,0.8-1,0.6-1.4l0,0l-0.6-1.5
				c-0.1-0.4-0.6-0.3-0.9-0.2l0,0c-2.7,1-4.2,1.6-9.6,1.6c-1.8,0-2.7-0.4-2.7-1.9c0-0.4,0.1-0.9,0.2-1.4l5-28.7h10.9
				C834.9-3,835.1-3.2,835.2-3.6z"/>
		</g>
		<path class="st2" d="M730.2-6.8h-11.1c-0.5,0-1,0.4-1.3,0.8l-7.9,11.5l-4.7-12c-0.3-0.7-0.9-0.9-1.4-0.8L694-5.9l8.4,18.5
			L687,32.1h10.5c0.7,0,1.7-0.4,2.2-1l7.2-8.8l4.1,8.8c0.2,0.5,0.9,1,1.5,1h10.2l-8.2-18L730.2-6.8z"/>
		<path class="st2" d="M682.2,31.4l6.7-38c0.1-0.8-0.5-0.8-1-0.7L678.6-6c-1,0.2-1.3,0.9-1.3,1.2l0,0l-4,23c-2.9,1.4-8,3.7-10.1,3.7
			c-1.1,0-1.5-0.4-1.5-1.2c0-0.3,0.1-0.8,0.2-1.2l4.6-26.2l0,0c0.1-0.8-0.5-0.8-0.9-0.7L656.2-6l0,0c-1,0.2-1.3,0.9-1.3,1.2l0,0
			l-4.5,25.3c-0.3,1.6-0.4,2.9-0.4,4.5c0,4.9,2,7.9,7.1,7.9c4.5,0,9.2-1.5,15.3-4.4l0.1,2.9c0,0.2,0.1,0.7,0.5,0.7h8.6
			C682,32,682.2,31.7,682.2,31.4z"/>
		<path class="st2" d="M589.7-7.6c-4.5,0-9.2,1.5-15.3,4.4l0.1-3.4c0-0.9-0.7-0.8-1-0.7L566.1-6l0,0c-1.2,0.2-1.6,1-1.7,1.3l-6.1,35
			l0,0c-0.3,1.6-0.2,1.7,1.1,1.7h8.4c1,0,1.4,0,1.7-1.7L573.7,7c3-1.6,8-3.7,10.1-3.7c1.1,0,1.5,0.3,1.5,1.1c0,0.3-0.1,0.8-0.2,1.2
			l-4.3,24.7l0,0c-0.3,1.6-0.2,1.7,1.1,1.7h8.4c1,0,1.4,0,1.7-1.7l4.5-25.5c0.3-2,0.4-3.1,0.4-4.5C596.9-4.5,595-7.6,589.7-7.6z"/>
		<g>
			<path class="st2" d="M557.5-24.5l-9.3,1.3c-1,0.1-1.2,0.9-1.3,1.2l-1.7,9.7c-0.2,1.1-0.1,1.1,1,1l9.2-1.2l0,0
				c1-0.1,1.1-0.2,1.3-1.4l0,0l1.8-10.1C558.5-24.5,558.3-24.5,557.5-24.5z"/>
			<path class="st2" d="M543.9-6L543.9-6L543.9-6z"/>
			<path class="st2" d="M548.8,30.3L548.8,30.3l6.6-37c0.1-0.8-0.5-0.8-1-0.7L545.1-6l0,0c-1,0.2-1.3,0.9-1.3,1.2l0,0l-6.3,35.4
				c-0.2,1.3,0,1.5,1.2,1.5h8.4C547.9,32,548.4,32,548.8,30.3z"/>
		</g>
		<path class="st2" d="M641.1,30.3l9.4-53.7c0.1-0.8-0.3-0.8-0.8-0.7L639-22.2c-4.9-1.3-10.4-1.9-13.5-1.9c-10,0-13.3,3.4-15,12.4
			l-0.9,5.1h-4.4c-1.1,0-1.2,0.6-1.3,1l0,0l-1.3,7.4c-0.1,0.3,0.1,0.7,0.6,0.7h4.9l-5.2,29.7c-0.6,3.5-1.1,5.6-4.5,9.1l0,0
			c-0.7,0.7-0.5,0.9,0,1.2l0,0l5.9,5.5l0,0c0.6,0.6,0.9,0.5,1.5-0.2c5.4-5.5,7.1-9.2,8.1-14.4l5.4-31h8.7c0.5,0,0.6,0,0.8-0.6l0,0
			l2-7.8l0,0c0.2-0.6-0.4-0.8-0.8-0.8h-9l1-5.6c0.4-2,1.2-2.7,3.7-2.7c3.3,0,8.8,0.7,11.8,1.4l-7.7,44l0,0c-0.3,1.6-0.2,1.7,1.1,1.7
			h8.4C640.3,32,640.8,32,641.1,30.3z"/>
	</g>
	<path id="Registered_Trademark_1_" class="st2" d="M877.1-18.5h-1l-0.3,1.9h-1l1-5.6h2.1c1.1,0,1.7,0.5,1.7,1.2c0,0.1,0,0.2,0,0.4
		l-0.1,0.8c-0.1,0.8-0.4,1-1,1.3l1,2h-1.1L877.1-18.5z M878.3-20.6c0-0.1,0-0.2,0-0.2c0-0.4-0.2-0.5-0.7-0.5h-1.1l-0.3,1.9h1.1
		c0.7,0,0.8-0.2,0.9-0.7L878.3-20.6z M877.1-14.7c-2.7,0-4.8-2.1-4.8-4.8s2.1-4.8,4.8-4.8c2.7,0,4.8,2.1,4.8,4.8
		S879.6-14.7,877.1-14.7z M877.1-23.4c-2.2,0-3.9,1.7-3.9,3.9s1.7,3.9,3.9,3.9c2.2,0,3.9-1.7,3.9-3.9S879.2-23.4,877.1-23.4z"/>
	<g id="Tagline_1_">
		<path class="st3" d="M544.1,59.3h-3.8l-1.9,11h-1.6l1.9-11h-3.8l0.2-1.3h9.2L544.1,59.3z"/>
		<path class="st3" d="M546.9,62.3c0.8-0.9,1.7-1.3,2.8-1.3c0.9,0,1.5,0.3,1.9,0.9c0.4,0.6,0.6,1.4,0.5,2.4l-1,6h-1.5l1-6
			c0-0.3,0-0.5,0-0.8c-0.1-0.8-0.6-1.2-1.4-1.2c-0.9,0-1.7,0.5-2.4,1.5l-1.1,6.5H544l2.3-13h1.5L546.9,62.3z"/>
		<path class="st3" d="M557.5,70.5c-1.1,0-2-0.4-2.7-1.3c-0.6-0.8-0.9-1.9-0.8-3.1l0-0.4c0.1-0.9,0.4-1.7,0.8-2.5
			c0.4-0.7,1-1.3,1.6-1.7c0.6-0.4,1.3-0.6,2.1-0.5c0.9,0,1.7,0.3,2.2,0.9c0.5,0.6,0.8,1.4,0.9,2.4c0,0.4,0,0.7,0,1.1l-0.1,0.7h-6
			c-0.1,0.8,0,1.5,0.4,2.1c0.4,0.6,0.9,0.9,1.7,0.9c0.9,0,1.7-0.4,2.5-1.2l0.9,0.7c-0.4,0.6-0.9,1-1.5,1.3
			C558.9,70.3,558.2,70.5,557.5,70.5z M558.5,62.3c-0.6,0-1.2,0.2-1.7,0.6c-0.5,0.4-0.8,1.1-1.1,2l4.4,0l0-0.1
			c0.1-0.7,0-1.3-0.3-1.8C559.5,62.5,559.1,62.3,558.5,62.3z"/>
		<path class="st3" d="M571.5,58l2.2,10l5.6-10h2.1l-2.1,12.3h-1.6l0.8-4.9l1-4.9l-5.6,9.8h-1.2l-2.2-10l-0.8,5.3l-0.8,4.7h-1.6
			l2.1-12.3H571.5z"/>
		<path class="st3" d="M587.2,61c0.8,0,1.4,0.2,2,0.6c0.5,0.4,0.9,1,1.2,1.7c0.3,0.7,0.4,1.5,0.3,2.3l0,0.2
			c-0.1,0.9-0.4,1.7-0.8,2.4c-0.4,0.7-1,1.3-1.6,1.7c-0.7,0.4-1.4,0.6-2.2,0.6c-0.8,0-1.4-0.2-2-0.6c-0.5-0.4-0.9-1-1.2-1.7
			c-0.3-0.7-0.3-1.5-0.3-2.3c0.1-0.9,0.3-1.8,0.8-2.5c0.4-0.8,1-1.3,1.7-1.8C585.6,61.2,586.4,61,587.2,61z M584.1,65.9
			c0,0.4,0,0.7,0,1.1c0.1,0.7,0.3,1.2,0.6,1.6c0.3,0.4,0.8,0.6,1.4,0.6c0.5,0,1-0.1,1.4-0.4c0.4-0.3,0.8-0.7,1.1-1.2
			c0.3-0.5,0.5-1.1,0.6-1.8c0-0.5,0.1-1,0-1.3c-0.1-0.7-0.3-1.2-0.6-1.6c-0.3-0.4-0.8-0.6-1.4-0.6c-0.8,0-1.5,0.3-2,0.9
			c-0.6,0.6-0.9,1.5-1,2.5L584.1,65.9z"/>
		<path class="st3" d="M592.4,65.7c0.1-0.9,0.4-1.8,0.8-2.5c0.4-0.7,0.9-1.3,1.5-1.7c0.6-0.4,1.2-0.5,1.9-0.5c1,0,1.8,0.4,2.3,1.1
			l0.9-4.8h1.5l-2.2,13h-1.4l0.2-1c-0.7,0.8-1.6,1.2-2.7,1.1c-0.8,0-1.5-0.4-2-1c-0.5-0.6-0.8-1.5-0.8-2.6
			C592.3,66.6,592.3,66.2,592.4,65.7z M593.9,66.6c0,0.8,0.1,1.4,0.4,1.9c0.3,0.4,0.7,0.7,1.3,0.7c0.9,0,1.7-0.4,2.4-1.3l0.7-4.2
			c-0.3-0.8-1-1.3-1.8-1.3c-0.6,0-1.1,0.2-1.6,0.5c-0.5,0.4-0.8,0.9-1,1.6C594,65.1,593.9,65.8,593.9,66.6z"/>
		<path class="st3" d="M605.6,70.5c-1.1,0-2-0.4-2.7-1.3c-0.6-0.8-0.9-1.9-0.8-3.1l0-0.4c0.1-0.9,0.4-1.7,0.8-2.5
			c0.4-0.7,1-1.3,1.6-1.7c0.6-0.4,1.3-0.6,2.1-0.5c0.9,0,1.7,0.3,2.2,0.9c0.5,0.6,0.8,1.4,0.9,2.4c0,0.4,0,0.7,0,1.1l-0.1,0.7h-6
			c-0.1,0.8,0,1.5,0.4,2.1c0.4,0.6,0.9,0.9,1.7,0.9c0.9,0,1.7-0.4,2.5-1.2l0.9,0.7c-0.4,0.6-0.9,1-1.5,1.3
			C607.1,70.3,606.4,70.5,605.6,70.5z M606.6,62.3c-0.6,0-1.2,0.2-1.7,0.6c-0.5,0.4-0.8,1.1-1.1,2l4.4,0l0-0.1
			c0.1-0.7,0-1.3-0.3-1.8C607.7,62.5,607.2,62.3,606.6,62.3z"/>
		<path class="st3" d="M616.5,62.5l-0.7-0.1c-1,0-1.8,0.4-2.3,1.3l-1.1,6.5h-1.5l1.6-9.1l1.5,0l-0.2,1.1c0.6-0.8,1.4-1.3,2.3-1.2
			c0.2,0,0.4,0,0.7,0.1L616.5,62.5z"/>
		<path class="st3" d="M619.9,61.1l-0.2,1.2c0.8-0.9,1.8-1.3,2.8-1.3c0.9,0,1.5,0.3,1.9,0.9c0.4,0.6,0.6,1.4,0.5,2.4l-1,6h-1.5l1-6
			c0-0.3,0-0.5,0-0.8c-0.1-0.8-0.6-1.2-1.4-1.2c-0.9,0-1.7,0.5-2.4,1.5l-1.1,6.5h-1.5l1.6-9.1L619.9,61.1z"/>
		<path class="st3" d="M638.8,64.6h-5.2l-0.8,4.4h6l-0.2,1.3h-7.6l2.1-12.3h7.5l-0.2,1.3h-5.9l-0.7,4h5.2L638.8,64.6z"/>
		<path class="st3" d="M643.7,61.1l-0.2,1.2c0.8-0.9,1.8-1.3,2.8-1.3c0.9,0,1.5,0.3,1.9,0.9c0.4,0.6,0.6,1.4,0.5,2.4l-1,6h-1.5l1-6
			c0-0.3,0-0.5,0-0.8c-0.1-0.8-0.6-1.2-1.4-1.2c-0.9,0-1.7,0.5-2.4,1.5l-1.1,6.5h-1.5l1.6-9.1L643.7,61.1z"/>
		<path class="st3" d="M650.6,65.7c0.1-1,0.4-1.9,0.8-2.6c0.4-0.7,0.9-1.3,1.5-1.6c0.6-0.4,1.2-0.5,1.9-0.5c1.1,0,1.9,0.4,2.4,1.2
			l0.3-1h1.4l-1.5,8.9c-0.2,1.2-0.6,2.1-1.4,2.8c-0.8,0.7-1.7,1-2.9,1c-0.6,0-1.2-0.2-1.8-0.4c-0.6-0.3-1-0.7-1.3-1.2l0.9-0.9
			c0.6,0.8,1.3,1.2,2.2,1.3c0.7,0,1.3-0.2,1.8-0.6c0.5-0.4,0.8-1,1-1.8l0.2-0.8c-0.7,0.7-1.6,1.1-2.6,1.1c-0.6,0-1.1-0.2-1.5-0.5
			c-0.4-0.3-0.7-0.7-1-1.3c-0.2-0.5-0.4-1.2-0.4-1.8C650.6,66.6,650.6,66.2,650.6,65.7z M652.1,66.6c0,0.8,0.1,1.4,0.4,1.9
			c0.3,0.4,0.7,0.7,1.3,0.7c0.9,0,1.7-0.4,2.4-1.3l0.7-4.2c-0.3-0.8-0.9-1.3-1.8-1.3c-0.8,0-1.5,0.3-2,1c-0.5,0.7-0.8,1.6-0.9,2.8
			L652.1,66.6z"/>
		<path class="st3" d="M661.5,70.3H660l1.6-9.1h1.5L661.5,70.3z M662.8,57.8c0.3,0,0.5,0.1,0.6,0.2c0.2,0.2,0.3,0.4,0.3,0.7
			c0,0.3-0.1,0.5-0.3,0.6c-0.2,0.2-0.4,0.3-0.6,0.3c-0.3,0-0.5-0.1-0.6-0.2c-0.2-0.2-0.3-0.4-0.2-0.6c0-0.3,0.1-0.5,0.3-0.7
			C662.3,57.9,662.5,57.8,662.8,57.8z"/>
		<path class="st3" d="M667.3,61.1l-0.2,1.2c0.8-0.9,1.8-1.3,2.8-1.3c0.9,0,1.5,0.3,1.9,0.9s0.6,1.4,0.5,2.4l-1,6h-1.5l1-6
			c0-0.3,0-0.5,0-0.8c-0.1-0.8-0.6-1.2-1.4-1.2c-0.9,0-1.7,0.5-2.4,1.5l-1.1,6.5h-1.5l1.6-9.1L667.3,61.1z"/>
		<path class="st3" d="M677.7,70.5c-1.1,0-2-0.4-2.7-1.3c-0.6-0.8-0.9-1.9-0.8-3.1l0-0.4c0.1-0.9,0.4-1.7,0.8-2.5
			c0.4-0.7,1-1.3,1.6-1.7c0.6-0.4,1.3-0.6,2.1-0.5c0.9,0,1.7,0.3,2.2,0.9s0.8,1.4,0.9,2.4c0,0.4,0,0.7,0,1.1l-0.1,0.7h-6
			c-0.1,0.8,0,1.5,0.4,2.1c0.4,0.6,0.9,0.9,1.7,0.9c0.9,0,1.7-0.4,2.5-1.2l0.9,0.7c-0.4,0.6-0.9,1-1.5,1.3
			C679.2,70.3,678.5,70.5,677.7,70.5z M678.7,62.3c-0.6,0-1.2,0.2-1.6,0.6c-0.5,0.4-0.8,1.1-1.1,2l4.4,0l0-0.1
			c0.1-0.7,0-1.3-0.3-1.8C679.7,62.5,679.3,62.3,678.7,62.3z"/>
		<path class="st3" d="M688.1,70.3l1.4-7.9h-1.4l0.2-1.2h1.4l0.2-1.1c0.1-0.9,0.5-1.6,1.1-2.2c0.6-0.5,1.3-0.8,2.3-0.8
			c0.3,0,0.6,0,1.1,0.1l-0.2,1.3c-0.3-0.1-0.5-0.1-0.8-0.1c-0.5,0-1,0.2-1.3,0.5c-0.3,0.3-0.5,0.8-0.6,1.3l-0.1,0.9h1.9l-0.2,1.2
			H691l-1.4,7.9H688.1z"/>
		<path class="st3" d="M698.6,61c0.8,0,1.4,0.2,2,0.6c0.5,0.4,0.9,1,1.2,1.7c0.3,0.7,0.3,1.5,0.3,2.3l0,0.2
			c-0.1,0.9-0.4,1.7-0.8,2.4c-0.4,0.7-1,1.3-1.6,1.7c-0.7,0.4-1.4,0.6-2.2,0.6c-0.8,0-1.4-0.2-2-0.6c-0.5-0.4-0.9-1-1.2-1.7
			c-0.3-0.7-0.3-1.5-0.3-2.3c0.1-0.9,0.3-1.8,0.8-2.5c0.4-0.8,1-1.3,1.7-1.8C697,61.2,697.8,61,698.6,61z M695.5,65.9
			c0,0.4,0,0.7,0,1.1c0.1,0.7,0.3,1.2,0.6,1.6c0.3,0.4,0.8,0.6,1.4,0.6c0.5,0,1-0.1,1.4-0.4c0.4-0.3,0.8-0.7,1.1-1.2
			c0.3-0.5,0.5-1.1,0.6-1.8c0-0.5,0.1-1,0-1.3c-0.1-0.7-0.3-1.2-0.6-1.6c-0.3-0.4-0.8-0.6-1.4-0.6c-0.8,0-1.5,0.3-2,0.9
			c-0.6,0.6-0.9,1.5-1,2.5L695.5,65.9z"/>
		<path class="st3" d="M709.1,62.5l-0.7-0.1c-1,0-1.8,0.4-2.3,1.3l-1.1,6.5h-1.5l1.6-9.1l1.5,0l-0.2,1.1c0.6-0.8,1.4-1.3,2.3-1.2
			c0.2,0,0.4,0,0.7,0.1L709.1,62.5z"/>
		<path class="st3" d="M718.1,58l2.2,10l5.6-10h2.1l-2.1,12.3h-1.6l0.8-4.9l1-4.9l-5.6,9.8h-1.2l-2.2-10l-0.8,5.3l-0.8,4.7H714
			l2.1-12.3H718.1z"/>
		<path class="st3" d="M732.7,70.5c-1.1,0-2-0.4-2.7-1.3c-0.6-0.8-0.9-1.9-0.8-3.1l0-0.4c0.1-0.9,0.4-1.7,0.8-2.5
			c0.4-0.7,1-1.3,1.6-1.7c0.6-0.4,1.3-0.6,2.1-0.5c0.9,0,1.7,0.3,2.2,0.9c0.5,0.6,0.8,1.4,0.9,2.4c0,0.4,0,0.7,0,1.1l-0.1,0.7h-6
			c-0.1,0.8,0,1.5,0.4,2.1c0.4,0.6,0.9,0.9,1.7,0.9c0.9,0,1.7-0.4,2.5-1.2l0.9,0.7c-0.4,0.6-0.9,1-1.5,1.3
			C734.1,70.3,733.4,70.5,732.7,70.5z M733.6,62.3c-0.6,0-1.2,0.2-1.6,0.6c-0.5,0.4-0.8,1.1-1.1,2l4.4,0l0-0.1
			c0.1-0.7,0-1.3-0.3-1.8C734.7,62.5,734.2,62.3,733.6,62.3z"/>
		<path class="st3" d="M741.9,58.9l-0.4,2.2h1.7l-0.2,1.2h-1.7l-1,5.7c0,0.1,0,0.3,0,0.4c0,0.4,0.3,0.7,0.7,0.7c0.2,0,0.4,0,0.7-0.1
			l-0.1,1.3c-0.4,0.1-0.7,0.2-1.1,0.2c-0.6,0-1.1-0.2-1.4-0.7c-0.3-0.4-0.4-1-0.4-1.8l0.9-5.7h-1.6l0.2-1.2h1.6l0.4-2.2H741.9z"/>
		<path class="st3" d="M749.3,62.5l-0.7-0.1c-1,0-1.8,0.4-2.3,1.3l-1.1,6.5h-1.5l1.6-9.1l1.5,0l-0.2,1.1c0.6-0.8,1.4-1.3,2.3-1.2
			c0.2,0,0.4,0,0.7,0.1L749.3,62.5z"/>
		<path class="st3" d="M751.3,70.3h-1.5l1.6-9.1h1.5L751.3,70.3z M752.5,57.8c0.3,0,0.5,0.1,0.6,0.2c0.2,0.2,0.3,0.4,0.3,0.7
			c0,0.3-0.1,0.5-0.3,0.6c-0.2,0.2-0.4,0.3-0.6,0.3c-0.3,0-0.5-0.1-0.6-0.2c-0.2-0.2-0.3-0.4-0.2-0.6c0-0.3,0.1-0.5,0.3-0.7
			C752,57.9,752.3,57.8,752.5,57.8z"/>
		<path class="st3" d="M757.8,69.2c0.5,0,1-0.1,1.5-0.5c0.4-0.3,0.7-0.8,0.9-1.3l1.4,0c-0.1,0.6-0.3,1.1-0.7,1.6
			c-0.4,0.5-0.8,0.8-1.4,1.1c-0.6,0.3-1.2,0.4-1.7,0.4c-0.8,0-1.4-0.2-1.9-0.6c-0.5-0.4-0.9-0.9-1.2-1.6c-0.2-0.7-0.3-1.5-0.3-2.3
			l0-0.4c0.1-0.9,0.4-1.7,0.8-2.4s0.9-1.2,1.6-1.6c0.7-0.4,1.4-0.6,2.2-0.5c1,0,1.7,0.3,2.3,1c0.6,0.6,0.9,1.4,0.9,2.4l-1.4,0
			c0-0.6-0.2-1.1-0.5-1.4c-0.3-0.4-0.8-0.6-1.3-0.6c-0.8,0-1.5,0.3-2,0.9c-0.5,0.6-0.9,1.5-1,2.5l0,0.2c0,0.4,0,0.7,0,1.1
			c0,0.7,0.2,1.2,0.6,1.6C756.8,69,757.2,69.2,757.8,69.2z"/>
		<path class="st3" d="M768.7,67.8c0.1-0.6-0.3-1.1-1-1.3l-1.6-0.5c-1.3-0.5-2-1.2-1.9-2.3c0-0.8,0.4-1.5,1.1-2
			c0.7-0.5,1.5-0.8,2.5-0.8c0.9,0,1.7,0.3,2.2,0.8c0.6,0.5,0.9,1.2,0.8,2.1l-1.5,0c0-0.5-0.1-0.8-0.4-1.1c-0.3-0.3-0.7-0.4-1.2-0.4
			c-0.5,0-1,0.1-1.4,0.4c-0.4,0.3-0.6,0.6-0.6,1c-0.1,0.5,0.3,0.9,1,1.2l0.8,0.2c1,0.3,1.8,0.6,2.2,1.1s0.6,1,0.6,1.6
			c0,0.6-0.2,1.1-0.6,1.5c-0.3,0.4-0.8,0.7-1.4,1c-0.6,0.2-1.2,0.3-1.8,0.3c-1,0-1.8-0.3-2.4-0.8c-0.6-0.6-0.9-1.3-0.9-2.1l1.5,0
			c0,0.5,0.2,0.9,0.5,1.2c0.3,0.3,0.8,0.5,1.3,0.5c0.6,0,1-0.1,1.4-0.3C768.4,68.6,768.6,68.2,768.7,67.8z"/>
		<path class="st3" d="M782,70.3c0-0.2-0.1-0.3-0.1-0.5l0-0.5c-0.8,0.8-1.7,1.2-2.7,1.1c-0.8,0-1.5-0.3-2-0.8
			c-0.5-0.5-0.7-1.1-0.7-1.9c0.1-1,0.5-1.7,1.3-2.3c0.8-0.5,1.8-0.8,3.1-0.8l1.6,0l0.1-0.7c0.1-0.5,0-1-0.3-1.3
			c-0.3-0.3-0.7-0.5-1.2-0.5c-0.5,0-1,0.1-1.4,0.4c-0.4,0.3-0.6,0.6-0.7,1.1l-1.5,0c0.1-0.5,0.3-1,0.6-1.4c0.4-0.4,0.8-0.7,1.4-1
			c0.6-0.2,1.2-0.3,1.8-0.3c1,0,1.7,0.3,2.2,0.9c0.5,0.6,0.8,1.3,0.7,2.2l-0.7,4.5l0,0.6c0,0.3,0,0.6,0.1,0.9l0,0.1H782z
			 M779.6,69.1c0.5,0,1-0.1,1.4-0.3c0.4-0.2,0.8-0.6,1.1-1l0.3-1.9l-1.2,0c-1,0-1.7,0.2-2.2,0.5c-0.5,0.3-0.8,0.7-0.9,1.3
			c-0.1,0.4,0,0.8,0.3,1.1C778.8,68.9,779.1,69.1,779.6,69.1z"/>
		<path class="st3" d="M788.9,61.1l-0.2,1.2c0.8-0.9,1.8-1.3,2.8-1.3c0.9,0,1.5,0.3,1.9,0.9c0.4,0.6,0.6,1.4,0.5,2.4l-1,6h-1.5l1-6
			c0-0.3,0-0.5,0-0.8c-0.1-0.8-0.6-1.2-1.4-1.2c-0.9,0-1.7,0.5-2.4,1.5l-1.1,6.5h-1.5l1.6-9.1L788.9,61.1z"/>
		<path class="st3" d="M795.8,65.7c0.1-0.9,0.4-1.8,0.8-2.5c0.4-0.7,0.9-1.3,1.5-1.7s1.2-0.5,1.9-0.5c1,0,1.8,0.4,2.3,1.1l0.9-4.8
			h1.5l-2.2,13h-1.4l0.2-1c-0.7,0.8-1.6,1.2-2.7,1.1c-0.8,0-1.5-0.4-2-1c-0.5-0.6-0.8-1.5-0.8-2.6C795.8,66.6,795.8,66.2,795.8,65.7
			z M797.3,66.6c0,0.8,0.1,1.4,0.4,1.9c0.3,0.4,0.7,0.7,1.3,0.7c0.9,0,1.7-0.4,2.4-1.3l0.7-4.2c-0.3-0.8-1-1.3-1.8-1.3
			c-0.6,0-1.1,0.2-1.6,0.5c-0.5,0.4-0.8,0.9-1,1.6C797.4,65.1,797.3,65.8,797.3,66.6z"/>
		<path class="st3" d="M817.5,64.6h-5.2l-0.8,4.4h6l-0.2,1.3h-7.6l2.1-12.3h7.5l-0.2,1.3h-5.9l-0.7,4h5.2L817.5,64.6z"/>
		<path class="st3" d="M822.5,68.2l3.3-7h1.6l-4.6,9.1h-1.2l-1.8-9.1h1.5L822.5,68.2z"/>
		<path class="st3" d="M831.4,70.5c-1.1,0-2-0.4-2.7-1.3c-0.6-0.8-0.9-1.9-0.8-3.1l0-0.4c0.1-0.9,0.4-1.7,0.8-2.5
			c0.4-0.7,1-1.3,1.6-1.7c0.6-0.4,1.3-0.6,2.1-0.5c0.9,0,1.7,0.3,2.2,0.9c0.5,0.6,0.8,1.4,0.9,2.4c0,0.4,0,0.7,0,1.1l-0.1,0.7h-6
			c-0.1,0.8,0,1.5,0.4,2.1c0.4,0.6,0.9,0.9,1.7,0.9c0.9,0,1.7-0.4,2.5-1.2l0.9,0.7c-0.4,0.6-0.9,1-1.5,1.3
			C832.8,70.3,832.2,70.5,831.4,70.5z M832.4,62.3c-0.6,0-1.2,0.2-1.6,0.6c-0.5,0.4-0.8,1.1-1.1,2l4.4,0l0-0.1
			c0.1-0.7,0-1.3-0.3-1.8C833.4,62.5,833,62.3,832.4,62.3z"/>
		<path class="st3" d="M839.7,61.1l-0.2,1.2c0.8-0.9,1.8-1.3,2.8-1.3c0.9,0,1.5,0.3,1.9,0.9s0.6,1.4,0.5,2.4l-1,6h-1.5l1-6
			c0-0.3,0-0.5,0-0.8c-0.1-0.8-0.6-1.2-1.4-1.2c-0.9,0-1.7,0.5-2.4,1.5l-1.1,6.5h-1.5l1.6-9.1L839.7,61.1z"/>
		<path class="st3" d="M850.2,58.9l-0.4,2.2h1.7l-0.2,1.2h-1.7l-1,5.7c0,0.1,0,0.3,0,0.4c0,0.4,0.3,0.7,0.7,0.7c0.2,0,0.4,0,0.7-0.1
			l-0.1,1.3c-0.4,0.1-0.7,0.2-1.1,0.2c-0.6,0-1.1-0.2-1.4-0.7c-0.3-0.4-0.4-1-0.4-1.8l0.9-5.7h-1.6l0.2-1.2h1.6l0.4-2.2H850.2z"/>
		<path class="st3" d="M857.6,67.8c0.1-0.6-0.3-1.1-1-1.3L855,66c-1.3-0.5-2-1.2-1.9-2.3c0-0.8,0.4-1.5,1.1-2
			c0.7-0.5,1.5-0.8,2.5-0.8c0.9,0,1.7,0.3,2.2,0.8c0.6,0.5,0.9,1.2,0.8,2.1l-1.5,0c0-0.5-0.1-0.8-0.4-1.1c-0.3-0.3-0.7-0.4-1.2-0.4
			c-0.5,0-1,0.1-1.4,0.4c-0.4,0.3-0.6,0.6-0.6,1c-0.1,0.5,0.3,0.9,1,1.2l0.8,0.2c1,0.3,1.8,0.6,2.2,1.1s0.6,1,0.6,1.6
			c0,0.6-0.2,1.1-0.6,1.5c-0.3,0.4-0.8,0.7-1.4,1c-0.6,0.2-1.2,0.3-1.8,0.3c-1,0-1.8-0.3-2.4-0.8c-0.6-0.6-0.9-1.3-0.9-2.1l1.5,0
			c0,0.5,0.2,0.9,0.5,1.2c0.3,0.3,0.8,0.5,1.3,0.5c0.6,0,1-0.1,1.4-0.3C857.3,68.6,857.6,68.2,857.6,67.8z"/>
	</g>
</g>
</svg>
