<?xml version="1.0" encoding="utf-8"?>
<!-- Generator: Adobe Illustrator 19.1.0, SVG Export Plug-In . SVG Version: 6.00 Build 0)  -->
<svg version="1.1" id="InfluxData_Symbol_Only" xmlns="http://www.w3.org/2000/svg" xmlns:xlink="http://www.w3.org/1999/xlink"
	 x="0px" y="0px" viewBox="-23 7 600 600" style="enable-background:new -23 7 600 600;" xml:space="preserve">
<style type="text/css">
	.st0{fill:#FFFFFF;}
</style>
<path id="Cuboctahedron" class="st0" d="M570.6,368.9l-57-248.3c-3.2-13.6-15.6-27.2-29.2-31.1L223.9,9.1c-3.2-1.3-7.1-1.3-11-1.3
	c-11,0-22.7,4.5-30.5,11L-4.3,192.6c-10.4,9.1-15.6,27.2-12.3,40.2l60.9,265.8c3.2,13.6,15.6,27.2,29.2,31.1l243.7,75.2
	c3.2,1.3,7.1,1.3,11,1.3c11,0,22.7-4.5,30.5-11l199.6-185.4C568.7,400,573.8,382.5,570.6,368.9z M251.1,68.1L430,123.2
	c7.1,1.9,7.1,5.2,0,7.1l-94,21.4c-7.1,1.9-16.9-1.3-22-6.5l-65.5-70.7C242.6,68.8,243.9,66.2,251.1,68.1z M362.6,389
	c1.9,7.1-2.6,11-9.7,9.1l-193.1-59.6c-7.1-1.9-8.4-7.8-3.2-13l147.8-137.4c5.2-5.2,11-3.2,13,3.9L362.6,389z M44.3,214L201.2,68.1
	c5.2-5.2,13.6-4.5,18.8,0.6l78.4,84.9c5.2,5.2,4.5,13.6-0.6,18.8L140.9,318.3c-5.2,5.2-13.6,4.5-18.8-0.6l-78.4-84.9
	C38.5,226.9,39.1,218.5,44.3,214z M82.6,445.4L41.1,263.2c-1.9-7.1,1.3-8.4,5.8-3.2l65.5,70.7c5.2,5.2,7.1,15.6,5.2,22.7l-28.5,92
	C87.1,452.5,83.9,452.5,82.6,445.4z M312,551.7l-204.8-62.9c-7.1-1.9-11-9.7-9.1-16.9l34.4-110.2c1.9-7.1,9.7-11,16.9-9.1
	l204.8,62.9c7.1,1.9,11,9.7,9.1,16.9l-34.4,110.2C326.3,549.8,319.1,553.6,312,551.7z M493.5,402.6L356.7,529.7
	c-5.2,5.2-7.8,3.2-5.8-3.9l28.5-92c1.9-7.1,9.7-14.3,16.9-15.6l94-21.4C497.4,394.8,498.7,398.1,493.5,402.6z M508.4,375.4
	l-112.8,25.9c-7.1,1.9-14.3-2.6-16.2-9.7l-48-208.7c-1.9-7.1,2.6-14.3,9.7-16.2l112.8-25.9c7.1-1.9,14.3,2.6,16.2,9.7l48,208.7
	C520.1,367,515.5,374.1,508.4,375.4z"/>
</svg>
