<svg width="448" height="46" viewBox="0 0 448 46" fill="none" xmlns="http://www.w3.org/2000/svg">
<path d="M243.32 10.3669H231.083V7.42091H246.984V10.2159L238.977 19.1295C241.671 19.1799 243.811 19.9479 245.398 21.4335C246.984 22.8939 247.777 24.8579 247.777 27.3255C247.777 30.0701 246.896 32.223 245.133 33.7842C243.371 35.3453 240.928 36.1259 237.806 36.1259C236.497 36.1259 235.212 35.9622 233.953 35.6349C232.694 35.3327 231.624 34.9047 230.743 34.3507L231.045 31.4047C233.034 32.6637 235.326 33.2932 237.919 33.2932C239.959 33.2932 241.57 32.7644 242.754 31.7068C243.937 30.6493 244.529 29.214 244.529 27.4011C244.529 25.6133 243.95 24.2158 242.792 23.2086C241.633 22.2015 240.047 21.6979 238.033 21.6979C237.277 21.6979 236.459 21.7986 235.577 22L234.671 19.9982L243.32 10.3669Z" fill="#020A47"/>
<path d="M272.015 36.1259C269.875 36.1259 268.011 35.723 266.425 34.9173C264.864 34.1115 263.655 32.9658 262.799 31.4802C261.968 29.9694 261.553 28.1942 261.553 26.1547C261.553 24.1655 261.956 22.4155 262.761 20.9047C263.567 19.3939 264.675 18.2105 266.085 17.3543C267.495 16.473 269.107 16.0324 270.92 16.0324C272.632 16.0324 274.117 16.4227 275.376 17.2033C276.661 17.9838 277.655 19.0666 278.36 20.4515C279.09 21.8363 279.456 23.4604 279.456 25.3237C279.456 25.6511 279.443 25.9532 279.418 26.2302C279.418 26.5072 279.405 26.7968 279.38 27.0989H264.725C264.952 29.0881 265.707 30.6115 266.992 31.6691C268.276 32.7266 270.001 33.2554 272.166 33.2554C274.382 33.2554 276.547 32.7392 278.662 31.7068L279.04 34.4262C278.184 34.955 277.126 35.3705 275.867 35.6726C274.634 35.9748 273.349 36.1259 272.015 36.1259ZM270.731 18.7896C269.094 18.7896 267.747 19.3058 266.689 20.3381C265.632 21.3453 264.99 22.7554 264.763 24.5684H276.358C276.358 24.2914 276.333 24.027 276.283 23.7752C276.081 22.1637 275.49 20.9299 274.508 20.0738C273.551 19.2176 272.292 18.7896 270.731 18.7896Z" fill="#020A47"/>
<path d="M285.3 16.6367H288.322L288.36 19.8849C288.889 18.6763 289.707 17.732 290.815 17.0522C291.948 16.3723 293.232 16.0324 294.667 16.0324C296.908 16.0324 298.633 16.7374 299.842 18.1475C301.05 19.5324 301.655 21.5216 301.655 24.1151V35.5216H298.444V24.6817C298.444 20.804 296.934 18.8651 293.912 18.8651C292.225 18.8651 290.903 19.4191 289.946 20.527C288.989 21.6349 288.511 23.1583 288.511 25.0971V35.5216H285.3V16.6367Z" fill="#020A47"/>
<path d="M309.637 19.3939H305.332V16.6367H309.637V11.1979H312.848V16.6367H319.458V19.3939H312.848V28.7608C312.848 30.3723 313.125 31.5432 313.679 32.2734C314.258 32.9784 315.177 33.3309 316.436 33.3309C317.645 33.3309 318.891 33.0036 320.175 32.3489L320.553 35.0306C319.974 35.3831 319.269 35.6475 318.438 35.8237C317.632 36.0252 316.776 36.1259 315.869 36.1259C313.729 36.1259 312.155 35.5593 311.148 34.4262C310.141 33.268 309.637 31.4676 309.637 29.0252V19.3939Z" fill="#020A47"/>
<path d="M334.055 36.1259C331.914 36.1259 330.051 35.723 328.465 34.9173C326.904 34.1115 325.695 32.9658 324.839 31.4802C324.008 29.9694 323.592 28.1942 323.592 26.1547C323.592 24.1655 323.995 22.4155 324.801 20.9047C325.607 19.3939 326.715 18.2105 328.125 17.3543C329.535 16.473 331.146 16.0324 332.959 16.0324C334.672 16.0324 336.157 16.4227 337.416 17.2033C338.7 17.9838 339.695 19.0666 340.4 20.4515C341.13 21.8363 341.495 23.4604 341.495 25.3237C341.495 25.6511 341.483 25.9532 341.457 26.2302C341.457 26.5072 341.445 26.7968 341.42 27.0989H326.765C326.992 29.0881 327.747 30.6115 329.031 31.6691C330.315 32.7266 332.04 33.2554 334.206 33.2554C336.422 33.2554 338.587 32.7392 340.702 31.7068L341.08 34.4262C340.224 34.955 339.166 35.3705 337.907 35.6726C336.673 35.9748 335.389 36.1259 334.055 36.1259ZM332.77 18.7896C331.134 18.7896 329.787 19.3058 328.729 20.3381C327.672 21.3453 327.029 22.7554 326.803 24.5684H338.398C338.398 24.2914 338.373 24.027 338.323 23.7752C338.121 22.1637 337.529 20.9299 336.547 20.0738C335.591 19.2176 334.332 18.7896 332.77 18.7896Z" fill="#020A47"/>
<path d="M347.34 16.6367H350.362L350.399 20.5648C350.928 19.2554 351.696 18.2356 352.703 17.5054C353.711 16.75 354.856 16.3723 356.14 16.3723C356.518 16.3723 356.921 16.4101 357.349 16.4856C357.802 16.5612 358.142 16.6619 358.369 16.7878L358.029 19.8094C357.702 19.6835 357.336 19.5828 356.934 19.5072C356.531 19.4065 356.14 19.3561 355.763 19.3561C354.151 19.3561 352.88 19.9604 351.948 21.1691C351.016 22.3777 350.551 24.0648 350.551 26.2302V35.5216H347.34V16.6367Z" fill="#020A47"/>
<path d="M363.09 16.6367H366.111L366.187 20.3004C366.917 18.9155 367.912 17.8579 369.171 17.1277C370.43 16.3975 371.878 16.0324 373.514 16.0324C375.277 16.0324 376.838 16.4605 378.198 17.3166C379.557 18.1727 380.628 19.3561 381.408 20.8669C382.189 22.3777 382.579 24.1151 382.579 26.0791C382.579 27.9424 382.151 29.6421 381.295 31.1781C380.464 32.6888 379.331 33.8975 377.896 34.8039C376.485 35.6852 374.899 36.1259 373.137 36.1259C371.651 36.1259 370.316 35.786 369.133 35.1061C367.975 34.4011 367.03 33.4065 366.3 32.1223V44.7751H363.09V16.6367ZM372.683 33.2554C373.993 33.2554 375.138 32.9532 376.12 32.3489C377.102 31.7446 377.87 30.9011 378.424 29.8183C379.003 28.7356 379.293 27.4892 379.293 26.0791C379.293 24.6691 379.003 23.4227 378.424 22.3399C377.87 21.2572 377.102 20.4137 376.12 19.8094C375.138 19.2051 373.993 18.9029 372.683 18.9029C371.399 18.9029 370.253 19.2051 369.246 19.8094C368.264 20.4137 367.484 21.2572 366.905 22.3399C366.351 23.4227 366.074 24.6691 366.074 26.0791C366.074 27.4892 366.351 28.7356 366.905 29.8183C367.484 30.9011 368.264 31.7446 369.246 32.3489C370.253 32.9532 371.399 33.2554 372.683 33.2554Z" fill="#020A47"/>
<path d="M388.061 16.6367H391.082L391.12 20.5648C391.649 19.2554 392.417 18.2356 393.424 17.5054C394.431 16.75 395.577 16.3723 396.861 16.3723C397.239 16.3723 397.641 16.4101 398.07 16.4856C398.523 16.5612 398.863 16.6619 399.089 16.7878L398.749 19.8094C398.422 19.6835 398.057 19.5828 397.654 19.5072C397.251 19.4065 396.861 19.3561 396.483 19.3561C394.872 19.3561 393.6 19.9604 392.668 21.1691C391.737 22.3777 391.271 24.0648 391.271 26.2302V35.5216H388.061V16.6367Z" fill="#020A47"/>
<path d="M403.81 16.6367H407.021V35.5216H403.81V16.6367ZM403.81 10.9335C403.407 10.5054 403.206 9.96407 403.206 9.30939C403.206 8.65472 403.407 8.11335 403.81 7.6853C404.238 7.25724 404.767 7.04321 405.397 7.04321C406.051 7.04321 406.58 7.25724 406.983 7.6853C407.386 8.11335 407.587 8.65472 407.587 9.30939C407.587 9.96407 407.386 10.5054 406.983 10.9335C406.58 11.3615 406.051 11.5756 405.397 11.5756C404.767 11.5756 404.238 11.3615 403.81 10.9335Z" fill="#020A47"/>
<path d="M423.966 34.5773C422.556 35.6097 420.693 36.1259 418.376 36.1259C417.193 36.1259 416.009 35.9622 414.826 35.6349C413.667 35.3075 412.736 34.8795 412.031 34.3507L412.522 31.518C413.328 32.0971 414.259 32.5629 415.317 32.9155C416.399 33.268 417.419 33.4442 418.376 33.4442C419.786 33.4442 420.881 33.205 421.662 32.7266C422.443 32.223 422.833 31.5432 422.833 30.687C422.833 30.1331 422.707 29.6799 422.455 29.3273C422.203 28.9496 421.75 28.6097 421.096 28.3076C420.441 27.9802 419.497 27.6403 418.263 27.2878C416.148 26.6583 414.637 25.9029 413.73 25.0216C412.824 24.1403 412.371 22.9946 412.371 21.5845C412.371 19.8723 413 18.5252 414.259 17.5432C415.543 16.536 417.281 16.0324 419.471 16.0324C420.504 16.0324 421.549 16.1835 422.606 16.4856C423.664 16.7626 424.52 17.1151 425.175 17.5432L424.646 20.2626C423.034 19.2302 421.284 18.7141 419.396 18.7141C418.137 18.7141 417.167 18.9407 416.488 19.3939C415.808 19.822 415.468 20.4389 415.468 21.2446C415.468 22.0252 415.757 22.6421 416.337 23.0953C416.916 23.5486 417.986 24.0018 419.547 24.455C421.964 25.1601 423.651 25.9658 424.608 26.8723C425.59 27.7788 426.081 28.9874 426.081 30.4982C426.081 32.1852 425.376 33.545 423.966 34.5773Z" fill="#020A47"/>
<path d="M440.319 36.1259C438.178 36.1259 436.315 35.723 434.729 34.9173C433.168 34.1115 431.959 32.9658 431.103 31.4802C430.272 29.9694 429.857 28.1942 429.857 26.1547C429.857 24.1655 430.259 22.4155 431.065 20.9047C431.871 19.3939 432.979 18.2105 434.389 17.3543C435.799 16.473 437.411 16.0324 439.223 16.0324C440.936 16.0324 442.421 16.4227 443.68 17.2033C444.964 17.9838 445.959 19.0666 446.664 20.4515C447.394 21.8363 447.759 23.4604 447.759 25.3237C447.759 25.6511 447.747 25.9532 447.722 26.2302C447.722 26.5072 447.709 26.7968 447.684 27.0989H433.029C433.256 29.0881 434.011 30.6115 435.295 31.6691C436.58 32.7266 438.304 33.2554 440.47 33.2554C442.686 33.2554 444.851 32.7392 446.966 31.7068L447.344 34.4262C446.488 34.955 445.43 35.3705 444.171 35.6726C442.938 35.9748 441.653 36.1259 440.319 36.1259ZM439.035 18.7896C437.398 18.7896 436.051 19.3058 434.993 20.3381C433.936 21.3453 433.294 22.7554 433.067 24.5684H444.662C444.662 24.2914 444.637 24.027 444.587 23.7752C444.385 22.1637 443.794 20.9299 442.812 20.0738C441.855 19.2176 440.596 18.7896 439.035 18.7896Z" fill="#020A47"/>
<path d="M61.4864 16.0053H68.3228V35.4945H61.4864V16.0053ZM62.1285 11.8884C61.3983 11.1834 61.0332 10.3273 61.0332 9.32006C61.0332 8.26251 61.3983 7.39381 62.1285 6.71395C62.8839 6.00892 63.803 5.6564 64.8857 5.6564C65.9684 5.6564 66.8749 6.00892 67.6051 6.71395C68.3354 7.39381 68.7005 8.26251 68.7005 9.32006C68.7005 10.3273 68.3354 11.1834 67.6051 11.8884C66.8749 12.5934 65.9684 12.946 64.8857 12.946C63.803 12.946 62.8839 12.5934 62.1285 11.8884Z" fill="#020A47"/>
<path d="M72.9206 16.0053H79.6059L79.6814 18.4603C80.2102 17.4783 80.9656 16.7229 81.9476 16.1941C82.9296 15.6654 84.0627 15.401 85.3469 15.401C87.5123 15.401 89.1742 16.106 90.3325 17.5161C91.4907 18.901 92.0699 20.9405 92.0699 23.6348V35.4945H85.2336V24.919C85.2336 22.6276 84.3648 21.4819 82.6274 21.4819C81.6958 21.4819 80.9782 21.8092 80.4746 22.4639C79.9961 23.0934 79.7569 23.9999 79.7569 25.1833V35.4945H72.9206V16.0053Z" fill="#020A47"/>
<path d="M98.5285 21.4819H95.3936V16.0053H98.5285V14.1168C98.5285 11.1204 99.2587 8.80388 100.719 7.16719C102.205 5.5305 104.295 4.71216 106.989 4.71216C107.769 4.71216 108.5 4.77511 109.18 4.90101C109.885 5.00173 110.476 5.15281 110.955 5.35424L110.615 11.0197C110.338 10.8938 109.998 10.7931 109.595 10.7175C109.217 10.642 108.865 10.6042 108.537 10.6042C106.422 10.6042 105.365 11.9262 105.365 14.5701V16.0053H109.973V21.4819H105.365V35.4945H98.5285V21.4819ZM112.881 4.90101H119.717V35.4945H112.881V4.90101Z" fill="#020A47"/>
<path d="M143.261 35.4945H136.538L136.463 33.115C135.959 34.0718 135.204 34.8146 134.196 35.3434C133.189 35.847 132.031 36.0988 130.722 36.0988C128.581 36.0988 126.945 35.4189 125.811 34.0592C124.678 32.6743 124.112 30.6599 124.112 28.0161V16.0053H130.948V26.6186C130.948 28.8848 131.829 30.0179 133.592 30.0179C134.499 30.0179 135.191 29.7031 135.669 29.0736C136.173 28.4189 136.425 27.4999 136.425 26.3164V16.0053H143.261V35.4945Z" fill="#020A47"/>
<path d="M153.46 25.4477L146.737 16.0053H154.366L157.539 21.2931L160.636 16.0053H167.888L161.203 25.4855L168.341 35.4945H160.674L157.123 29.6024L153.611 35.4945H146.359L153.46 25.4477Z" fill="#020A47"/>
<path d="M190.738 35.4945H187.604L187.528 32.0574C186.773 33.3416 185.778 34.3362 184.544 35.0412C183.31 35.7463 181.9 36.0988 180.314 36.0988C178.577 36.0988 177.015 35.6707 175.631 34.8146C174.271 33.9585 173.201 32.7751 172.42 31.2643C171.64 29.7283 171.249 27.9909 171.249 26.052C171.249 24.1887 171.665 22.5017 172.496 20.9909C173.352 19.4549 174.498 18.2463 175.933 17.365C177.368 16.4585 178.954 16.0053 180.692 16.0053C182.127 16.0053 183.436 16.3578 184.62 17.0629C185.828 17.7679 186.798 18.7625 187.528 20.0467V4.90101H190.738V35.4945ZM175.366 29.7912C175.945 30.874 176.726 31.7175 177.708 32.3218C178.715 32.9261 179.861 33.2283 181.145 33.2283C182.454 33.2283 183.6 32.9261 184.582 32.3218C185.564 31.7175 186.332 30.874 186.886 29.7912C187.465 28.7085 187.755 27.4621 187.755 26.052C187.755 24.642 187.465 23.3956 186.886 22.3128C186.332 21.2301 185.564 20.3866 184.582 19.7823C183.6 19.178 182.454 18.8758 181.145 18.8758C179.861 18.8758 178.715 19.178 177.708 19.7823C176.726 20.3866 175.945 21.2301 175.366 22.3128C174.812 23.3956 174.535 24.642 174.535 26.052C174.535 27.4621 174.812 28.7085 175.366 29.7912Z" fill="#020A47"/>
<path d="M197.542 4.90101H200.752V20.0467C201.508 18.7625 202.502 17.7679 203.736 17.0629C204.97 16.3578 206.38 16.0053 207.967 16.0053C209.729 16.0053 211.29 16.4334 212.65 17.2895C214.01 18.1456 215.08 19.329 215.86 20.8398C216.641 22.3506 217.031 24.088 217.031 26.052C217.031 27.9153 216.603 29.615 215.747 31.151C214.916 32.6617 213.783 33.8704 212.348 34.7768C210.938 35.6581 209.351 36.0988 207.589 36.0988C206.103 36.0988 204.756 35.7463 203.547 35.0412C202.364 34.3362 201.432 33.3416 200.752 32.0574L200.677 35.4945H197.542V4.90101ZM212.877 22.3128C212.323 21.2301 211.555 20.3866 210.573 19.7823C209.591 19.178 208.445 18.8758 207.136 18.8758C205.851 18.8758 204.706 19.178 203.699 19.7823C202.717 20.3866 201.936 21.2301 201.357 22.3128C200.803 23.3956 200.526 24.642 200.526 26.052C200.526 27.4621 200.803 28.7085 201.357 29.7912C201.936 30.874 202.717 31.7175 203.699 32.3218C204.706 32.9261 205.851 33.2283 207.136 33.2283C208.445 33.2283 209.591 32.9261 210.573 32.3218C211.555 31.7175 212.323 30.874 212.877 29.7912C213.456 28.7085 213.745 27.4621 213.745 26.052C213.745 24.642 213.456 23.3956 212.877 22.3128Z" fill="#020A47"/>
<path d="M216.193 10.4245V6.4075H214.698V5.6145H218.598V6.4075H217.116V10.4245H216.193ZM219.43 10.4245L219.677 5.6145H220.574L222.043 8.6695L223.538 5.6145H224.435L224.682 10.4245H223.863L223.707 6.8625L222.381 9.5925H221.731L220.392 6.8365L220.249 10.4245H219.43Z" fill="#020A47"/>
<path fill-rule="evenodd" clip-rule="evenodd" d="M32.3063 31.3651L42.5604 29.0141C42.7184 28.9822 42.868 28.9176 42.9997 28.8247C43.1314 28.7317 43.2422 28.6123 43.3252 28.4741C43.4082 28.3359 43.4615 28.182 43.4818 28.0221C43.502 27.8622 43.4887 27.6998 43.4427 27.5453L39.0818 8.63179C39.0031 8.31968 38.8038 8.05153 38.5276 7.88616C38.2514 7.72079 37.9209 7.67169 37.6085 7.74964L27.3587 10.1006C27.0485 10.1802 26.7823 10.3795 26.6186 10.6547C26.4548 10.93 26.4067 11.2589 26.4849 11.5695L30.833 30.483C30.9118 30.7951 31.1111 31.0633 31.3873 31.2286C31.6635 31.394 31.994 31.4431 32.3063 31.3651Z" fill="#020A47"/>
<path fill-rule="evenodd" clip-rule="evenodd" d="M28.7729 43.0526L41.2052 31.5424C41.6738 31.0696 41.5556 30.7784 40.9097 31.0106L32.3654 32.9521C32.012 33.0394 31.6864 33.2144 31.4186 33.4608C31.1507 33.7072 30.9493 34.0171 30.833 34.3619L28.241 42.7022C28.0637 43.348 28.3001 43.5253 28.7729 43.0526Z" fill="#020A47"/>
<path fill-rule="evenodd" clip-rule="evenodd" d="M6.09081 39.296L24.7076 45.049C25.0257 45.1082 25.3545 45.0524 25.6352 44.8916C25.9159 44.7308 26.1303 44.4754 26.24 44.1711L29.3597 34.1846C29.4049 34.0288 29.4189 33.8657 29.4009 33.7046C29.3828 33.5434 29.3332 33.3874 29.2548 33.2454C29.1763 33.1035 29.0706 32.9784 28.9438 32.8774C28.8169 32.7763 28.6713 32.7013 28.5154 32.6567L9.8986 26.9585C9.58345 26.8684 9.24543 26.9066 8.95833 27.0647C8.67123 27.2229 8.45836 27.4882 8.36619 27.8027L5.26761 37.7681C5.17558 38.0798 5.21044 38.4153 5.36462 38.7015C5.5188 38.9877 5.7798 39.2013 6.09081 39.296Z" fill="#020A47"/>
<path fill-rule="evenodd" clip-rule="evenodd" d="M0.0792977 18.8546L3.85332 35.3791C3.97153 36.0249 4.27547 36.0249 4.44011 35.3791L7.03212 27.0387C7.12044 26.6834 7.12406 26.3122 7.04267 25.9552C6.96128 25.5981 6.79716 25.2652 6.56353 24.9832L0.611208 18.5591C0.197501 18.0737 -0.11067 18.2088 0.0792977 18.8546Z" fill="#020A47"/>
<path fill-rule="evenodd" clip-rule="evenodd" d="M14.6351 1.19042L0.374893 14.3889C0.146113 14.6067 0.0117882 14.9054 0.000739567 15.221C-0.0103091 15.5367 0.102798 15.844 0.315792 16.0773L7.44591 23.7887C7.66563 24.0218 7.96847 24.1587 8.28861 24.1698C8.60875 24.1808 8.92032 24.0651 9.15562 23.8478L23.4116 10.6282C23.6424 10.4116 23.7781 10.1125 23.7892 9.79619C23.8003 9.4799 23.6858 9.17207 23.4707 8.93985L16.3533 1.23262C16.2438 1.11612 16.1123 1.02251 15.9663 0.957242C15.8203 0.891973 15.6629 0.856342 15.503 0.852415C15.3432 0.848488 15.1842 0.876345 15.0352 0.934368C14.8862 0.992391 14.7502 1.07942 14.6351 1.19042Z" fill="#020A47"/>
<path fill-rule="evenodd" clip-rule="evenodd" d="M28.4184 31.0697C29.0685 31.247 29.478 30.8966 29.3049 30.2255L25.1805 12.3714C25.0032 11.7257 24.4713 11.5484 24.0027 12.0169L10.5699 24.4936C10.0971 24.9622 10.2153 25.4898 10.8612 25.667L28.4184 31.0697Z" fill="#020A47"/>
<path fill-rule="evenodd" clip-rule="evenodd" d="M35.4302 6.16684L19.169 1.19048C18.5231 1.01321 18.4049 1.24957 18.9326 1.77718L24.8849 8.18017C25.1519 8.42973 25.4749 8.6117 25.8267 8.71084C26.1785 8.80997 26.5489 8.8234 26.907 8.74998L35.4513 6.81262C36.0803 6.63535 36.0803 6.33989 35.4302 6.16684Z" fill="#020A47"/>
</svg>
