<?xml version="1.0" encoding="utf-8"?>
<!-- Generator: Adobe Illustrator 21.1.0, SVG Export Plug-In . SVG Version: 6.00 Build 0)  -->
<svg version="1.1" id="InfluxData_Complete_Logo" xmlns="http://www.w3.org/2000/svg" xmlns:xlink="http://www.w3.org/1999/xlink"
	 x="0px" y="0px" width="1400px" height="800px" viewBox="-425.5 -79 1400 800" style="enable-background:new -425.5 -79 1400 800;"
	 xml:space="preserve">
<style type="text/css">
	.st0{fill-rule:evenodd;clip-rule:evenodd;fill:#292933;}
</style>
<path class="st0" d="M478.5,366.6c11.5,0,25.8-7.5,37.5-17.8l9.7-54.2c-7.3-1.8-14.3-2.9-21.6-2.9c-16.6,0-23.4,5.7-26.9,25.7
	l-6.4,36.6c-0.4,2.2-0.7,3.7-0.7,5.3C470.1,365,473,366.6,478.5,366.6z M512.9,371.2l1.3-10.3c-10.4,8.8-23.8,14.9-36.9,14.9
	c-11.5,0-17.7-4.2-17.7-15.1c0-2,0.2-4.2,0.7-6.6l6.8-38.4c4.2-24.3,15.2-33.1,38.2-33.1c6,0,16.3,1.1,21.8,2.9l6.2-35.5
	c0-0.9,0.9-2.2,2.4-2.4l5.7-0.9c1.1-0.2,2.6,0.2,2.2,2.4l-21.6,122.2c0,0.9-0.4,2.6-2.4,2.6h-5.3
	C513.6,373.8,512.7,373.4,512.9,371.2z M568.1,366.6c11,0,24.8-7.5,36.3-17.8l9.5-54.2c-5-1.3-13.4-2.9-20.7-2.9
	c-16.6,0-22.9,5.9-26.3,25.7l-6.3,36.6c-0.4,2.2-0.6,3.7-0.6,5.3C559.9,365,562.7,366.6,568.1,366.6z M601.3,371.2l1.3-10.3
	c-10.1,8.8-22.7,14.9-35.4,14.9c-11.2,0-17.3-4.2-17.3-15.1c0-2,0.2-4.2,0.6-6.6l6.7-38.4c4.1-23.5,13.6-33.1,37.4-33.1
	c8.2,0,20.1,2,30.4,5.9l-14.5,82.7c0,0.9-0.4,2.6-2.4,2.6h-5.2C602,373.8,601.1,373.4,601.3,371.2z M715.8,366.6
	c11,0,24.8-7.5,36.3-17.8l9.5-54.2c-5-1.3-13.4-2.9-20.7-2.9c-16.6,0-22.9,5.9-26.3,25.7l-6.3,36.6c-0.4,2.2-0.6,3.7-0.6,5.3
	C707.6,365,710.4,366.6,715.8,366.6z M748.8,371.2l1.1-10.3c-10.1,8.8-22.7,14.9-35.4,14.9c-11.2,0-17.3-4.2-17.3-15.1
	c0-2,0.2-4.2,0.6-6.6l6.7-38.4c4.1-23.5,13.6-33.1,37.4-33.1c8.2,0,20.1,2,30.4,5.9l-14.5,82.7c0,0.9-0.4,2.6-2.4,2.6h-5.2
	C749.5,373.8,748.6,373.4,748.8,371.2z M692.8,292.1c-0.2,0.9-0.6,1.3-1.9,1.5h-24.4l-11.4,66c-0.2,1.3-0.4,2.4-0.4,3.3
	c0,3.5,1.9,4.4,6,4.4c12.2,0,15.6-1.3,21.6-3.7c0.6-0.2,1.7-0.4,1.9,0.4l1.3,3.5c0.4,0.9,0.6,2.2-1.3,3.3c-6.2,3.1-18.4,5-25.3,5
	c-8.8,0-14.4-3.7-14.4-11.8c0-1.1,0.2-2.2,0.4-3.5l11.6-67.1h-15c-1.5,0-1.5-1.1-1.5-1.5l0.9-5.7c0.2-1.3,1.5-1.5,1.9-1.5h15.2
	l3.4-19.7c0-0.9,0.9-2.2,2.4-2.4l5.6-0.9c1.1-0.2,2.6,0.2,2.1,2.4l-3.4,20.6h24.6c0.9,0,1.7,0,1.3,1.5L692.8,292.1z M453.7,286.7
	l-36.1,47.9l18.8,41.1h-23.4c-1.5,0-3.1-1.1-3.5-2.2l-9.4-20l-16.6,20c-1.1,1.3-3.5,2.2-5,2.2h-24l35.4-44.6l-19.2-42.2l22.3-3.3
	c1.3-0.2,2.6,0.2,3.3,1.7l10.7,27.4l18.1-26.3c0.7-0.9,2-1.7,3.1-1.7H453.7z M345.1,372.2c0,0.7-0.4,1.5-1.3,1.5h-19.9
	c-0.9,0-1.1-1.1-1.1-1.5l-0.2-6.6c-14.1,6.6-25.2,10.1-35.6,10.1c-11.9,0-16.6-7-16.6-18.3c0-3.7,0.2-6.6,0.9-10.3l10.4-58.5
	c0-0.9,0.7-2.4,3.1-2.9l21.7-3.1c0.9-0.2,2.2-0.2,2,1.5l-10.6,60.5c-0.2,1.1-0.4,2.2-0.4,2.9c0,2,0.9,2.9,3.5,2.9
	c4.9,0,16.8-5.3,23.4-8.6l9.3-53.3c0-0.9,0.7-2.4,3.1-2.9l21.7-2.9c1.1-0.2,2.4-0.2,2.2,1.5L345.1,372.2z M131.1,282.6
	c11.8,0,16.1,6.9,16.1,18c0,3-0.2,5.6-0.9,10.2l-10.1,58.1c-0.6,3.9-1.7,3.9-3.9,3.9h-18.9c-3,0-3.2-0.2-2.6-3.9l9.7-56.1
	c0.2-1.1,0.4-2.2,0.4-2.8c0-1.9-0.9-2.6-3.4-2.6c-4.7,0-15.9,4.8-22.7,8.5l-9.2,53.1c-0.6,3.9-1.7,3.9-3.9,3.9H62.8
	c-3,0-3.2-0.2-2.6-3.9L74,289.1c0.2-0.9,1.1-2.6,3.9-3l16.5-2.8c0.9-0.2,2.4-0.4,2.4,1.5l-0.2,7.8C110.3,286,121,282.6,131.1,282.6z
	 M57.8,246.5c1.9,0,2.3,0,2.1,1.3l-4,22.7c-0.4,2.8-0.9,3-3,3.2l-20.7,2.8c-2.3,0.2-2.6,0.2-2.1-2.4l3.8-21.8c0.2-0.9,0.6-2.6,3-2.8
	L57.8,246.5z M38.6,371.6c-0.9,3.9-2,3.9-4,4.1H14.9c-2.9,0-3.3-0.4-2.9-3.5l14.7-80.9c0-0.9,0.7-2.4,3.1-2.8l21.8-2.8
	c1.1-0.2,2.5-0.2,2.2,1.5L38.6,371.6z M248.8,370.5c-0.7,3.9-1.7,3.9-4.1,4.6h-19.1c-3,0-3.3-0.2-2.6-3.9L240.5,271
	c-7-1.7-19.4-3.3-27-3.3c-5.7,0-7.6,1.5-8.5,6.1l-2.4,12.8h20.7c0.9,0,2.2,0.4,1.7,1.7l-4.6,17.8c-0.4,1.3-0.7,1.3-1.7,1.3H199
	l-12.4,70.4c-2.2,11.7-6.1,20.2-18.5,32.7c-1.5,1.5-2.2,1.7-3.5,0.4l-13.5-12.6c-1.1-0.9-1.5-1.3,0-2.8c7.6-8,8.9-12.8,10.2-20.8
	l12-67.6h-11.1c-1.1,0-1.5-0.9-1.3-1.5l3-16.9c0.2-1.1,0.4-2.4,3-2.4h10l2-11.7c3.7-20.4,11.3-28.2,34.2-28.2
	c7.2,0,19.8,1.3,30.9,4.3l24.6-4.1c1.1-0.2,2-0.2,1.7,1.5L248.8,370.5z M786.4,248.7c-5.2,0-9.2,4-9.2,9.2c0,5.2,4,9.2,9.2,9.2
	c5.2,0,9.2-4,9.2-9.2C795.6,252.8,791.4,248.7,786.4,248.7z M786.4,269.1c-6.3,0-11.2-4.9-11.2-11.2c0-6.3,4.9-11.2,11.2-11.2
	c6.3,0,11.2,4.9,11.2,11.2C797.6,264.2,792.5,269.1,786.4,269.1z M789.3,255.2v-0.4c0-0.9-0.4-1.1-1.6-1.1h-2.7l-0.7,4.5h2.7
	c1.6,0,1.8-0.4,2-1.6L789.3,255.2z M786.4,260.2H784l-0.7,4.5h-2.5l2.2-13.2h4.9c2.7,0,4,1.1,4,2.9v0.9l-0.2,1.8
	c-0.2,1.8-0.9,2.5-2.5,3.1l2.5,4.7h-2.7L786.4,260.2z M-73.8,345.7c2.4-0.4,3.9-2.8,3.2-5.4l-16-69.6c-0.6-2.4-3-3.9-5.4-3.2
	l-37.7,8.6c-2.4,0.6-3.9,3-3.2,5.4l16,69.6c0.7,2.4,3,3.9,5.4,3.2L-73.8,345.7z M-78.8,355c1.7-1.7,1.3-2.8-1.1-1.9l-31.4,7.1
	c-2.4,0.4-5,2.8-5.6,5.2l-9.5,30.7c-0.6,2.4,0.2,3,1.9,1.3L-78.8,355z M-139.5,404.7c2.4,0.4,4.8-0.9,5.6-3.2l11.5-36.7
	c0.7-2.4-0.6-5-3-5.6l-68.5-21c-2.4-0.6-5,0.6-5.6,3l-11.5,36.7c-0.6,2.4,0.7,5,3,5.6L-139.5,404.7z M-216.2,369
	c0.4,2.4,1.5,2.4,2.2,0l9.5-30.7c0.6-2.4,0-5.8-1.7-7.6l-21.9-23.5c-1.5-1.7-2.6-1.3-1.9,1.1L-216.2,369z M-228.9,291.9
	c-1.7,1.5-1.9,4.3-0.2,6.3l26.2,28.3c1.7,1.7,4.6,1.9,6.3,0.2l52.4-48.6c1.7-1.7,1.9-4.5,0.2-6.3l-26.2-28.3
	c-1.7-1.7-4.6-1.9-6.3-0.2L-228.9,291.9z M-122.6,350.2l-15.2-65.7c-0.7-2.4-2.6-3-4.3-1.3l-49.4,45.8c-1.7,1.7-1.3,3.7,1.1,4.3
	l64.6,19.9C-123.4,353.9-121.9,352.6-122.6,350.2z M-159.8,243.3c-2.4-0.6-2.8,0.2-0.9,2.2l21.9,23.5c1.7,1.7,5,2.8,7.4,2.2
	l31.4-7.1c2.4-0.6,2.4-1.7,0-2.4L-159.8,243.3z M-53,343.5c1.1,4.5-0.7,10.4-4.1,13.8l-66.7,61.8c-2.6,2.2-6.5,3.7-10.2,3.7
	c-1.3,0-2.6,0-3.7-0.4l-81.5-25.3c-4.6-1.3-8.7-5.8-9.7-10.4l-20.4-88.6c-1.1-4.3,0.7-10.4,4.1-13.4l62.4-57.9
	c2.6-2.2,6.5-3.7,10.2-3.7c1.3,0,2.6,0,3.7,0.4l87.1,26.8c4.6,1.3,8.7,5.8,9.7,10.4L-53,343.5z"/>
</svg>
