<svg width="474" height="185" viewBox="0 0 474 185" fill="none" xmlns="http://www.w3.org/2000/svg">
<path d="M8.71057 132.472C6.2625 132.472 4.18449 131.672 2.47653 130.073C0.825512 128.473 0 126.531 0 124.246C0 121.846 0.825512 119.875 2.47653 118.333C4.18449 116.734 6.2625 115.934 8.71057 115.934C11.1586 115.934 13.2082 116.734 14.8592 118.333C16.5102 119.875 17.3357 121.846 17.3357 124.246C17.3357 126.531 16.5102 128.473 14.8592 130.073C13.2082 131.672 11.1586 132.472 8.71057 132.472ZM0.939375 183.629V139.413H16.3964V183.629H0.939375Z" fill="#020A47"/>
<path d="M26.7922 183.629V139.413H41.993L42.1638 144.897C43.3024 142.726 44.9819 141.041 47.2022 139.841C49.4226 138.642 51.9845 138.042 54.888 138.042C59.8411 138.042 63.5986 139.641 66.1605 142.84C68.7794 145.982 70.0888 150.61 70.0888 156.722V183.629H54.6318V159.636C54.6318 154.437 52.6677 151.838 48.7394 151.838C46.6329 151.838 45.0104 152.581 43.8717 154.066C42.79 155.494 42.2492 157.551 42.2492 160.236V183.629H26.7922Z" fill="#020A47"/>
<path d="M84.6918 183.629V151.838H77.6038V139.413H84.6918V135.128C84.6918 128.33 86.3429 123.075 89.6449 119.361C93.0039 115.648 97.7292 113.791 103.821 113.791C105.586 113.791 107.237 113.934 108.774 114.22C110.368 114.448 111.706 114.791 112.788 115.248L112.019 128.102C111.393 127.816 110.624 127.616 109.713 127.502C108.859 127.331 108.062 127.245 107.322 127.245C104.874 127.245 103.052 127.959 101.857 129.387C100.718 130.815 100.149 133.072 100.149 136.157V139.413H110.567V151.838H100.149V183.629H84.6918ZM117.399 183.629V114.22H132.856V183.629H117.399Z" fill="#020A47"/>
<path d="M157.814 185C152.975 185 149.275 183.458 146.713 180.373C144.151 177.231 142.87 172.661 142.87 166.662V139.413H158.412V163.492C158.412 166.12 158.868 168.062 159.778 169.319C160.746 170.576 162.255 171.204 164.305 171.204C166.354 171.204 167.92 170.49 169.001 169.062C170.14 167.576 170.709 165.491 170.709 162.806V139.413H186.166V183.629H170.966L170.795 178.145C169.656 180.316 167.948 182.001 165.671 183.201C163.451 184.4 160.832 185 157.814 185Z" fill="#020A47"/>
<path d="M193.171 183.629L209.226 160.835L194.025 139.413H211.275L218.449 151.409L225.451 139.413H241.848L226.732 161.007L242.872 183.629H225.537L217.509 170.261L209.567 183.629H193.171Z" fill="#020A47"/>
<path d="M269.943 185C266.015 185 262.485 184.029 259.354 182.087C256.28 180.144 253.86 177.459 252.095 174.032C250.33 170.547 249.448 166.605 249.448 162.206C249.448 157.979 250.387 154.152 252.266 150.724C254.202 147.239 256.792 144.497 260.037 142.498C263.282 140.441 266.869 139.413 270.797 139.413C274.043 139.413 277.003 140.213 279.679 141.812C282.412 143.412 284.603 145.668 286.254 148.582V114.22H293.513V183.629H286.425L286.254 175.831C284.547 178.745 282.298 181.001 279.508 182.601C276.718 184.2 273.53 185 269.943 185ZM271.822 178.488C274.783 178.488 277.373 177.802 279.593 176.431C281.814 175.06 283.55 173.146 284.803 170.69C286.112 168.233 286.767 165.406 286.767 162.206C286.767 159.007 286.112 156.18 284.803 153.723C283.55 151.267 281.814 149.353 279.593 147.982C277.373 146.611 274.783 145.925 271.822 145.925C268.919 145.925 266.328 146.611 264.051 147.982C261.831 149.353 260.066 151.267 258.756 153.723C257.504 156.18 256.878 159.007 256.878 162.206C256.878 165.406 257.504 168.233 258.756 170.69C260.066 173.146 261.831 175.06 264.051 176.431C266.328 177.802 268.919 178.488 271.822 178.488Z" fill="#020A47"/>
<path d="M326.403 185C322.474 185 318.945 184.029 315.813 182.087C312.739 180.144 310.319 177.459 308.555 174.032C306.79 170.547 305.907 166.605 305.907 162.206C305.907 157.979 306.847 154.152 308.725 150.724C310.661 147.239 313.251 144.497 316.497 142.498C319.742 140.441 323.328 139.413 327.257 139.413C330.502 139.413 333.462 140.213 336.138 141.812C338.871 143.412 341.063 145.668 342.714 148.582L342.884 140.784H349.972V183.629H342.884L342.714 175.831C341.006 178.745 338.757 181.001 335.967 182.601C333.178 184.2 329.989 185 326.403 185ZM328.281 178.488C331.242 178.488 333.832 177.802 336.053 176.431C338.273 175.06 340.009 173.146 341.262 170.69C342.571 168.233 343.226 165.406 343.226 162.206C343.226 159.007 342.571 156.18 341.262 153.723C340.009 151.267 338.273 149.353 336.053 147.982C333.832 146.611 331.242 145.925 328.281 145.925C325.378 145.925 322.788 146.611 320.51 147.982C318.29 149.353 316.525 151.267 315.216 153.723C313.963 156.18 313.337 159.007 313.337 162.206C313.337 165.406 313.963 168.233 315.216 170.69C316.525 173.146 318.29 175.06 320.51 176.431C322.788 177.802 325.378 178.488 328.281 178.488Z" fill="#020A47"/>
<path d="M382.35 185C377.51 185 373.952 183.715 371.675 181.144C369.398 178.516 368.259 174.432 368.259 168.89V147.039H358.524V140.784H368.259V128.445H375.518V140.784H390.462V147.039H375.518V168.29C375.518 171.947 376.144 174.603 377.396 176.26C378.706 177.859 380.784 178.659 383.63 178.659C386.363 178.659 389.181 177.916 392.085 176.431L392.939 182.515C391.629 183.315 390.035 183.915 388.157 184.314C386.335 184.772 384.399 185 382.35 185Z" fill="#020A47"/>
<path d="M419.89 185C415.962 185 412.432 184.029 409.3 182.087C406.226 180.144 403.807 177.459 402.042 174.032C400.277 170.547 399.394 166.605 399.394 162.206C399.394 157.979 400.334 154.152 402.212 150.724C404.148 147.239 406.739 144.497 409.984 142.498C413.229 140.441 416.816 139.413 420.744 139.413C423.989 139.413 426.949 140.213 429.625 141.812C432.358 143.412 434.55 145.668 436.201 148.582L436.372 140.784H443.46V183.629H436.372L436.201 175.831C434.493 178.745 432.244 181.001 429.454 182.601C426.665 184.2 423.477 185 419.89 185ZM421.769 178.488C424.729 178.488 427.319 177.802 429.54 176.431C431.76 175.06 433.497 173.146 434.749 170.69C436.058 168.233 436.713 165.406 436.713 162.206C436.713 159.007 436.058 156.18 434.749 153.723C433.497 151.267 431.76 149.353 429.54 147.982C427.319 146.611 424.729 145.925 421.769 145.925C418.865 145.925 416.275 146.611 413.997 147.982C411.777 149.353 410.012 151.267 408.703 153.723C407.45 156.18 406.824 159.007 406.824 162.206C406.824 165.406 407.45 168.233 408.703 170.69C410.012 173.146 411.777 175.06 413.997 176.431C416.275 177.802 418.865 178.488 421.769 178.488Z" fill="#020A47"/>
<path fill-rule="evenodd" clip-rule="evenodd" d="M245.412 68.6575L268.484 63.3675C268.84 63.2956 269.177 63.1504 269.473 62.9412C269.769 62.7319 270.019 62.4633 270.205 62.1524C270.392 61.8415 270.512 61.4951 270.558 61.1353C270.603 60.7754 270.573 60.4101 270.47 60.0625L260.657 17.5052C260.48 16.8029 260.032 16.1996 259.41 15.8275C258.789 15.4553 258.045 15.3449 257.342 15.5203L234.279 20.8102C233.581 20.9894 232.982 21.4376 232.614 22.057C232.245 22.6764 232.137 23.4164 232.313 24.1153L242.097 66.6726C242.274 67.3749 242.722 67.9782 243.344 68.3503C243.965 68.7224 244.709 68.8329 245.412 68.6575Z" fill="#020A47"/>
<path fill-rule="evenodd" clip-rule="evenodd" d="M237.461 94.9554L265.435 69.0563C266.49 67.9926 266.223 67.3373 264.77 67.8596L245.545 72.2284C244.75 72.4248 244.017 72.8185 243.414 73.3729C242.812 73.9273 242.358 74.6246 242.097 75.4005L236.264 94.1671C235.865 95.6202 236.397 96.0191 237.461 94.9554Z" fill="#020A47"/>
<path fill-rule="evenodd" clip-rule="evenodd" d="M186.424 86.5028L228.314 99.4476C229.03 99.5808 229.769 99.4553 230.401 99.0934C231.033 98.7316 231.515 98.1569 231.762 97.4721L238.782 75.0016C238.883 74.6511 238.915 74.284 238.874 73.9214C238.834 73.5588 238.722 73.2077 238.545 72.8883C238.369 72.569 238.131 72.2875 237.846 72.0602C237.56 71.8329 237.233 71.6641 236.882 71.5636L194.992 58.7422C194.283 58.5394 193.522 58.6253 192.876 58.9812C192.23 59.337 191.751 59.934 191.544 60.6417L184.572 83.0648C184.365 83.7662 184.443 84.5211 184.79 85.165C185.137 85.8089 185.724 86.2897 186.424 86.5028Z" fill="#020A47"/>
<path fill-rule="evenodd" clip-rule="evenodd" d="M172.898 40.5075L181.39 77.6893C181.656 79.1424 182.339 79.1424 182.71 77.6893L188.542 58.9227C188.741 58.123 188.749 57.2879 188.566 56.4846C188.383 55.6812 188.014 54.9321 187.488 54.2975L174.095 39.8427C173.164 38.7505 172.47 39.0544 172.898 40.5075Z" fill="#020A47"/>
<path fill-rule="evenodd" clip-rule="evenodd" d="M205.65 0.761356L173.563 30.4593C173.048 30.9493 172.746 31.6215 172.721 32.3317C172.696 33.0418 172.951 33.7335 173.43 34.2583L189.473 51.6098C189.968 52.1342 190.649 52.4423 191.369 52.4672C192.09 52.4921 192.791 52.2318 193.32 51.7427L225.398 21.9973C225.917 21.5098 226.222 20.8369 226.247 20.1252C226.272 19.4135 226.015 18.7209 225.531 18.1984L209.516 0.856329C209.269 0.594173 208.973 0.383552 208.645 0.236691C208.317 0.08983 207.962 0.00965504 207.603 0.000819551C207.243 -0.00801594 206.885 0.0546644 206.55 0.185222C206.215 0.315779 205.909 0.511613 205.65 0.761356Z" fill="#020A47"/>
<path fill-rule="evenodd" clip-rule="evenodd" d="M236.663 67.9927C238.126 68.3916 239.048 67.6033 238.658 66.0933L229.378 25.9198C228.979 24.4667 227.782 24.0678 226.728 25.122L196.503 53.196C195.439 54.2501 195.705 55.4373 197.158 55.8362L236.663 67.9927Z" fill="#020A47"/>
<path fill-rule="evenodd" clip-rule="evenodd" d="M252.441 11.9588L215.851 0.761507C214.398 0.362621 214.132 0.894469 215.319 2.08163L228.713 16.489C229.314 17.0505 230.04 17.46 230.832 17.6831C231.623 17.9061 232.457 17.9363 233.263 17.7711L252.488 13.4119C253.904 13.013 253.904 12.3482 252.441 11.9588Z" fill="#020A47"/>
<path d="M463.82 135.564C461.926 135.564 460.208 135.115 458.668 134.216C457.127 133.317 455.907 132.097 455.008 130.556C454.109 129.015 453.66 127.298 453.66 125.404C453.66 123.51 454.109 121.793 455.008 120.252C455.907 118.711 457.127 117.491 458.668 116.592C460.208 115.693 461.926 115.244 463.82 115.244C465.746 115.244 467.463 115.693 468.972 116.592C470.513 117.491 471.733 118.711 472.632 120.252C473.53 121.793 473.98 123.51 473.98 125.404C473.98 127.298 473.53 129.015 472.632 130.556C471.733 132.097 470.513 133.317 468.972 134.216C467.463 135.115 465.746 135.564 463.82 135.564ZM463.82 133.782C465.393 133.782 466.789 133.413 468.009 132.675C469.261 131.937 470.256 130.941 470.994 129.689C471.733 128.405 472.102 126.977 472.102 125.404C472.102 123.831 471.733 122.419 470.994 121.167C470.256 119.883 469.261 118.871 468.009 118.133C466.789 117.395 465.393 117.026 463.82 117.026C462.279 117.026 460.883 117.395 459.631 118.133C458.379 118.871 457.384 119.883 456.645 121.167C455.907 122.419 455.538 123.831 455.538 125.404C455.538 126.977 455.907 128.405 456.645 129.689C457.384 130.941 458.379 131.937 459.631 132.675C460.883 133.413 462.279 133.782 463.82 133.782ZM460.401 130.027V120.3H463.675C464.895 120.3 465.826 120.573 466.468 121.119C467.142 121.664 467.479 122.419 467.479 123.382C467.479 123.992 467.335 124.553 467.046 125.067C466.757 125.548 466.324 125.918 465.746 126.174L468.154 130.027H466.131L464.012 126.511H462.135V130.027H460.401ZM463.531 121.841H462.135V124.971H463.483C464.285 124.971 464.847 124.842 465.168 124.585C465.489 124.329 465.65 123.927 465.65 123.382C465.65 122.354 464.943 121.841 463.531 121.841Z" fill="#020A47"/>
</svg>
