<?xml version="1.0" encoding="utf-8"?>
<!-- Generator: Adobe Illustrator 26.3.1, SVG Export Plug-In . SVG Version: 6.00 Build 0)  -->
<svg version="1.1" id="Layer_1" xmlns="http://www.w3.org/2000/svg" xmlns:xlink="http://www.w3.org/1999/xlink" x="0px" y="0px"
	 viewBox="0 0 433 55" style="enable-background:new 0 0 433 55;" xml:space="preserve">
<style type="text/css">
	.st0{fill:#020A47;}
	.st1{fill-rule:evenodd;clip-rule:evenodd;fill:#020A47;}
</style>
<g>
	<path class="st0" d="M52.9,21.9h5.7v16.1h-5.7V21.9z M53.4,18.5c-0.6-0.6-0.9-1.3-0.9-2.1c0-0.9,0.3-1.6,0.9-2.2
		c0.6-0.6,1.4-0.9,2.3-0.9s1.6,0.3,2.3,0.9c0.6,0.6,0.9,1.3,0.9,2.2c0,0.8-0.3,1.5-0.9,2.1c-0.6,0.6-1.4,0.9-2.3,0.9
		S54.1,19.1,53.4,18.5z"/>
	<path class="st0" d="M62.4,21.9h5.5l0.1,2c0.4-0.8,1.1-1.4,1.9-1.9c0.8-0.4,1.8-0.7,2.8-0.7c1.8,0,3.2,0.6,4.1,1.8
		c1,1.1,1.4,2.8,1.4,5.1v9.8h-5.7v-8.8c0-1.9-0.7-2.8-2.2-2.8c-0.8,0-1.4,0.3-1.8,0.8c-0.4,0.5-0.6,1.3-0.6,2.3v8.5h-5.7V21.9z"/>
	<path class="st0" d="M83.6,26.5H81v-4.5h2.6v-1.6c0-2.5,0.6-4.4,1.8-5.8c1.2-1.4,3-2,5.2-2c0.6,0,1.3,0.1,1.8,0.2
		c0.6,0.1,1.1,0.2,1.5,0.4l-0.3,4.7c-0.2-0.1-0.5-0.2-0.8-0.3c-0.3-0.1-0.6-0.1-0.9-0.1c-1.8,0-2.6,1.1-2.6,3.3v1.2h3.8v4.5h-3.8
		v11.6h-5.7V26.5z M95.5,12.7h5.7v25.3h-5.7V12.7z"/>
	<path class="st0" d="M120.6,38.1h-5.6l-0.1-2c-0.4,0.8-1,1.4-1.9,1.8c-0.8,0.4-1.8,0.6-2.9,0.6c-1.8,0-3.1-0.6-4.1-1.7
		c-0.9-1.1-1.4-2.8-1.4-5v-9.9h5.7v8.8c0,1.9,0.7,2.8,2.2,2.8c0.8,0,1.3-0.3,1.7-0.8c0.4-0.5,0.6-1.3,0.6-2.3v-8.5h5.7V38.1z"/>
	<path class="st0" d="M129.1,29.8l-5.6-7.8h6.3l2.6,4.4l2.6-4.4h6l-5.5,7.9l5.9,8.3h-6.4l-2.9-4.9l-2.9,4.9h-6L129.1,29.8z"/>
	<path class="st0" d="M160,38.1h-2.6l-0.1-2.8c-0.6,1.1-1.4,1.9-2.5,2.5c-1,0.6-2.2,0.9-3.5,0.9c-1.4,0-2.7-0.4-3.9-1.1
		c-1.1-0.7-2-1.7-2.7-2.9c-0.6-1.3-1-2.7-1-4.3c0-1.5,0.3-2.9,1-4.2c0.7-1.3,1.7-2.3,2.8-3c1.2-0.8,2.5-1.1,3.9-1.1
		c1.2,0,2.3,0.3,3.3,0.9c1,0.6,1.8,1.4,2.4,2.5V12.7h2.7V38.1z M147.2,33.3c0.5,0.9,1.1,1.6,1.9,2.1c0.8,0.5,1.8,0.8,2.8,0.8
		c1.1,0,2-0.3,2.8-0.8c0.8-0.5,1.4-1.2,1.9-2.1c0.5-0.9,0.7-1.9,0.7-3.1c0-1.2-0.2-2.2-0.7-3.1c-0.5-0.9-1.1-1.6-1.9-2.1
		c-0.8-0.5-1.8-0.8-2.8-0.8c-1.1,0-2,0.3-2.8,0.8c-0.8,0.5-1.5,1.2-1.9,2.1c-0.5,0.9-0.7,1.9-0.7,3.1
		C146.5,31.4,146.8,32.5,147.2,33.3z"/>
	<path class="st0" d="M165.6,12.7h2.7v12.5c0.6-1.1,1.4-1.9,2.5-2.5c1-0.6,2.2-0.9,3.5-0.9c1.5,0,2.8,0.4,3.9,1.1
		c1.1,0.7,2,1.7,2.7,2.9c0.6,1.3,1,2.7,1,4.3c0,1.5-0.4,3-1.1,4.2c-0.7,1.3-1.6,2.3-2.8,3c-1.2,0.7-2.5,1.1-3.9,1.1
		c-1.2,0-2.3-0.3-3.3-0.9c-1-0.6-1.8-1.4-2.3-2.5l-0.1,2.8h-2.6V12.7z M178.3,27.2c-0.5-0.9-1.1-1.6-1.9-2.1
		c-0.8-0.5-1.8-0.8-2.8-0.8c-1.1,0-2,0.3-2.8,0.8c-0.8,0.5-1.5,1.2-1.9,2.1c-0.5,0.9-0.7,1.9-0.7,3.1c0,1.2,0.2,2.2,0.7,3.1
		c0.5,0.9,1.1,1.6,1.9,2.1c0.8,0.5,1.8,0.8,2.8,0.8c1.1,0,2-0.3,2.8-0.8s1.4-1.2,1.9-2.1c0.5-0.9,0.7-1.9,0.7-3.1
		C179,29.1,178.8,28.1,178.3,27.2z"/>
	<path class="st0" d="M193.3,26c0.7-1.3,1.7-2.2,3-2.9c1.3-0.7,2.8-1.1,4.4-1.1c0.8,0,1.6,0.1,2.4,0.3c0.8,0.2,1.5,0.5,2.2,0.8
		l-0.4,2.3c-0.6-0.3-1.3-0.6-2.1-0.8c-0.8-0.2-1.5-0.3-2.2-0.3c-1.7,0-3.1,0.5-4.2,1.6c-1,1-1.6,2.5-1.6,4.2c0,1.8,0.5,3.3,1.6,4.3
		s2.5,1.6,4.3,1.6c0.7,0,1.4-0.1,2.1-0.3c0.7-0.2,1.5-0.4,2.3-0.8l0.3,2.2c-0.7,0.4-1.4,0.7-2.3,0.9c-0.9,0.2-1.7,0.3-2.6,0.3
		c-1.7,0-3.2-0.3-4.5-1c-1.3-0.7-2.3-1.6-3-2.8c-0.7-1.2-1-2.7-1-4.3C192.2,28.7,192.6,27.2,193.3,26z"/>
	<path class="st0" d="M210.2,12.7h2.7v25.3h-2.7V12.7z"/>
	<path class="st0" d="M232.7,34.5c-0.7,1.3-1.7,2.3-3,3c-1.2,0.7-2.6,1.1-4.1,1.1c-1.6,0-3-0.4-4.2-1.1c-1.2-0.7-2.2-1.7-2.9-3
		c-0.7-1.3-1.1-2.7-1.1-4.3c0-1.6,0.4-3,1.1-4.2c0.7-1.3,1.7-2.2,2.9-3c1.3-0.8,2.6-1.1,4.2-1.1c1.6,0,3,0.4,4.2,1.1
		c1.3,0.7,2.2,1.7,2.9,3c0.7,1.3,1.1,2.7,1.1,4.3C233.7,31.8,233.4,33.2,232.7,34.5z M220.8,33.3c0.5,0.9,1.1,1.6,1.9,2.1
		c0.8,0.5,1.8,0.8,2.8,0.8c1.1,0,2-0.3,2.8-0.8c0.8-0.5,1.4-1.2,1.9-2.1c0.5-0.9,0.7-1.9,0.7-3.1c0-1.2-0.2-2.2-0.7-3.1
		c-0.5-0.9-1.1-1.6-1.9-2.1c-0.8-0.5-1.8-0.8-2.8-0.8c-1.1,0-2,0.3-2.8,0.8c-0.8,0.5-1.5,1.2-1.9,2.1c-0.5,0.9-0.7,1.9-0.7,3.1
		C220.1,31.4,220.3,32.5,220.8,33.3z"/>
	<path class="st0" d="M251.6,38.1h-2.5l-0.1-2.7c-0.4,1-1.1,1.8-2,2.4c-0.9,0.5-2.1,0.8-3.3,0.8c-1.8,0-3.1-0.5-4.1-1.6
		c-0.9-1.1-1.4-2.6-1.4-4.6v-9.9h2.7v9.2c0,1.6,0.3,2.8,0.9,3.6c0.6,0.7,1.5,1.1,2.9,1.1c1.4,0,2.4-0.5,3.2-1.4
		c0.8-0.9,1.2-2.2,1.2-3.8v-8.6h2.7V38.1z"/>
	<path class="st0" d="M272.3,38.1h-2.6l-0.1-2.8c-0.6,1.1-1.4,1.9-2.5,2.5c-1,0.6-2.2,0.9-3.5,0.9c-1.4,0-2.7-0.4-3.9-1.1
		c-1.1-0.7-2-1.7-2.7-2.9c-0.6-1.3-1-2.7-1-4.3c0-1.5,0.3-2.9,1-4.2c0.7-1.3,1.7-2.3,2.8-3c1.2-0.8,2.5-1.1,3.9-1.1
		c1.2,0,2.3,0.3,3.3,0.9c1,0.6,1.8,1.4,2.4,2.5V12.7h2.7V38.1z M259.6,33.3c0.5,0.9,1.1,1.6,1.9,2.1c0.8,0.5,1.8,0.8,2.8,0.8
		c1.1,0,2-0.3,2.8-0.8s1.4-1.2,1.9-2.1c0.5-0.9,0.7-1.9,0.7-3.1c0-1.2-0.2-2.2-0.7-3.1c-0.5-0.9-1.1-1.6-1.9-2.1
		c-0.8-0.5-1.8-0.8-2.8-0.8c-1.1,0-2,0.3-2.8,0.8c-0.8,0.5-1.5,1.2-1.9,2.1c-0.5,0.9-0.7,1.9-0.7,3.1
		C258.9,31.4,259.1,32.5,259.6,33.3z"/>
	<path class="st0" d="M293.4,37.3c-1.2,0.9-2.7,1.3-4.6,1.3c-1,0-2-0.1-2.9-0.4c-1-0.3-1.7-0.6-2.3-1.1l0.4-2.3
		c0.7,0.5,1.4,0.9,2.3,1.2c0.9,0.3,1.7,0.4,2.5,0.4c1.2,0,2.1-0.2,2.7-0.6c0.6-0.4,1-1,1-1.7c0-0.5-0.1-0.8-0.3-1.1
		c-0.2-0.3-0.6-0.6-1.1-0.8c-0.5-0.3-1.3-0.6-2.3-0.8c-1.8-0.5-3-1.1-3.8-1.9c-0.8-0.7-1.1-1.7-1.1-2.8c0-1.4,0.5-2.5,1.6-3.3
		c1.1-0.8,2.5-1.3,4.3-1.3c0.9,0,1.7,0.1,2.6,0.4c0.9,0.2,1.6,0.5,2.1,0.9l-0.4,2.3c-1.3-0.9-2.8-1.3-4.3-1.3c-1,0-1.8,0.2-2.4,0.6
		c-0.6,0.4-0.8,0.9-0.8,1.5c0,0.6,0.2,1.2,0.7,1.5c0.5,0.4,1.4,0.8,2.7,1.1c2,0.6,3.4,1.3,4.2,2c0.8,0.8,1.2,1.8,1.2,3
		C295.2,35.3,294.6,36.4,293.4,37.3z"/>
	<path class="st0" d="M306.9,38.6c-1.8,0-3.3-0.3-4.6-1c-1.3-0.7-2.3-1.6-3-2.8c-0.7-1.3-1-2.7-1-4.4c0-1.6,0.3-3.1,1-4.3
		c0.7-1.3,1.6-2.2,2.8-2.9c1.2-0.7,2.5-1.1,4-1.1c1.4,0,2.6,0.3,3.7,1c1.1,0.6,1.9,1.5,2.5,2.7c0.6,1.1,0.9,2.5,0.9,4
		c0,0.3,0,0.5,0,0.8c0,0.2,0,0.5,0,0.7h-12.1c0.2,1.6,0.8,2.9,1.9,3.8c1.1,0.9,2.5,1.3,4.3,1.3c1.8,0,3.6-0.4,5.4-1.3l0.3,2.3
		c-0.7,0.4-1.6,0.8-2.6,1C309.1,38.4,308,38.6,306.9,38.6z M305.9,24.2c-1.4,0-2.5,0.4-3.3,1.3c-0.9,0.8-1.4,2-1.6,3.5h9.6
		c0-0.2,0-0.4-0.1-0.7c-0.2-1.3-0.7-2.4-1.5-3.1C308.2,24.6,307.2,24.2,305.9,24.2z"/>
	<path class="st0" d="M317.9,22.4h2.5l0,3.3c0.4-1.1,1.1-1.9,1.9-2.5c0.8-0.6,1.8-0.9,2.8-0.9c0.3,0,0.6,0,1,0.1
		c0.4,0.1,0.7,0.1,0.8,0.3l-0.3,2.5c-0.3-0.1-0.6-0.2-0.9-0.3c-0.3-0.1-0.7-0.1-1-0.1c-1.3,0-2.4,0.5-3.2,1.5
		c-0.8,1-1.2,2.4-1.2,4.2v7.7h-2.7V22.4z"/>
	<path class="st0" d="M329.6,22.4h2.9l4.9,12.7l4.9-12.7h2.7l-6.4,15.6H336L329.6,22.4z"/>
	<path class="st0" d="M355.5,38.6c-1.8,0-3.3-0.3-4.6-1c-1.3-0.7-2.3-1.6-3-2.8c-0.7-1.3-1-2.7-1-4.4c0-1.6,0.3-3.1,1-4.3
		c0.7-1.3,1.6-2.2,2.8-2.9c1.2-0.7,2.5-1.1,4-1.1c1.4,0,2.6,0.3,3.7,1c1.1,0.6,1.9,1.5,2.5,2.7c0.6,1.1,0.9,2.5,0.9,4
		c0,0.3,0,0.5,0,0.8c0,0.2,0,0.5,0,0.7h-12.1c0.2,1.6,0.8,2.9,1.9,3.8c1.1,0.9,2.5,1.3,4.3,1.3c1.8,0,3.6-0.4,5.4-1.3l0.3,2.3
		c-0.7,0.4-1.6,0.8-2.6,1C357.6,38.4,356.6,38.6,355.5,38.6z M354.4,24.2c-1.4,0-2.5,0.4-3.3,1.3c-0.9,0.8-1.4,2-1.6,3.5h9.6
		c0-0.2,0-0.4-0.1-0.7c-0.2-1.3-0.7-2.4-1.5-3.1C356.7,24.6,355.7,24.2,354.4,24.2z"/>
	<path class="st0" d="M366.5,22.4h2.5l0,3.3c0.4-1.1,1.1-1.9,1.9-2.5c0.8-0.6,1.8-0.9,2.8-0.9c0.3,0,0.6,0,1,0.1
		c0.4,0.1,0.7,0.1,0.8,0.3l-0.3,2.5c-0.3-0.1-0.6-0.2-0.9-0.3c-0.3-0.1-0.7-0.1-1-0.1c-1.3,0-2.4,0.5-3.2,1.5
		c-0.8,1-1.2,2.4-1.2,4.2v7.7h-2.7V22.4z"/>
	<path class="st0" d="M379.5,12.7h2.7v25.3h-2.7V12.7z"/>
	<path class="st0" d="M395.4,38.6c-1.8,0-3.3-0.3-4.6-1c-1.3-0.7-2.3-1.6-3-2.8c-0.7-1.3-1-2.7-1-4.4c0-1.6,0.3-3.1,1-4.3
		c0.7-1.3,1.6-2.2,2.8-2.9c1.2-0.7,2.5-1.1,4-1.1c1.4,0,2.6,0.3,3.7,1c1.1,0.6,1.9,1.5,2.5,2.7c0.6,1.1,0.9,2.5,0.9,4
		c0,0.3,0,0.5,0,0.8c0,0.2,0,0.5,0,0.7h-12.1c0.2,1.6,0.8,2.9,1.9,3.8c1.1,0.9,2.5,1.3,4.3,1.3c1.8,0,3.6-0.4,5.4-1.3l0.3,2.3
		c-0.7,0.4-1.6,0.8-2.6,1C397.5,38.4,396.5,38.6,395.4,38.6z M394.3,24.2c-1.4,0-2.5,0.4-3.3,1.3c-0.9,0.8-1.4,2-1.6,3.5h9.6
		c0-0.2,0-0.4-0.1-0.7c-0.2-1.3-0.7-2.4-1.5-3.1C396.6,24.6,395.6,24.2,394.3,24.2z"/>
	<path class="st0" d="M415.2,37.3c-1.2,0.9-2.7,1.3-4.6,1.3c-1,0-2-0.1-2.9-0.4c-1-0.3-1.7-0.6-2.3-1.1l0.4-2.3
		c0.7,0.5,1.4,0.9,2.3,1.2c0.9,0.3,1.7,0.4,2.5,0.4c1.2,0,2.1-0.2,2.7-0.6c0.6-0.4,1-1,1-1.7c0-0.5-0.1-0.8-0.3-1.1
		c-0.2-0.3-0.6-0.6-1.1-0.8c-0.5-0.3-1.3-0.6-2.3-0.8c-1.8-0.5-3-1.1-3.8-1.9c-0.8-0.7-1.1-1.7-1.1-2.8c0-1.4,0.5-2.5,1.6-3.3
		c1.1-0.8,2.5-1.3,4.3-1.3c0.9,0,1.7,0.1,2.6,0.4c0.9,0.2,1.6,0.5,2.1,0.9l-0.4,2.3c-1.3-0.9-2.8-1.3-4.3-1.3c-1,0-1.8,0.2-2.4,0.6
		c-0.6,0.4-0.8,0.9-0.8,1.5c0,0.6,0.2,1.2,0.7,1.5c0.5,0.4,1.4,0.8,2.7,1.1c2,0.6,3.4,1.3,4.2,2c0.8,0.8,1.2,1.8,1.2,3
		C417,35.3,416.4,36.4,415.2,37.3z"/>
	<path class="st0" d="M429.6,37.3c-1.2,0.9-2.7,1.3-4.6,1.3c-1,0-2-0.1-2.9-0.4c-1-0.3-1.7-0.6-2.3-1.1l0.4-2.3
		c0.7,0.5,1.4,0.9,2.3,1.2c0.9,0.3,1.7,0.4,2.5,0.4c1.2,0,2.1-0.2,2.7-0.6c0.6-0.4,1-1,1-1.7c0-0.5-0.1-0.8-0.3-1.1
		c-0.2-0.3-0.6-0.6-1.1-0.8c-0.5-0.3-1.3-0.6-2.3-0.8c-1.8-0.5-3-1.1-3.8-1.9c-0.8-0.7-1.1-1.7-1.1-2.8c0-1.4,0.5-2.5,1.6-3.3
		c1.1-0.8,2.5-1.3,4.3-1.3c0.9,0,1.7,0.1,2.6,0.4c0.9,0.2,1.6,0.5,2.1,0.9l-0.4,2.3c-1.3-0.9-2.8-1.3-4.3-1.3c-1,0-1.8,0.2-2.4,0.6
		c-0.6,0.4-0.8,0.9-0.8,1.5c0,0.6,0.2,1.2,0.7,1.5c0.5,0.4,1.4,0.8,2.7,1.1c2,0.6,3.4,1.3,4.2,2c0.8,0.8,1.2,1.8,1.2,3
		C431.4,35.3,430.8,36.4,429.6,37.3z"/>
	<path class="st1" d="M28.4,34.5l8.5-1.9c0.1,0,0.3-0.1,0.4-0.2c0.1-0.1,0.2-0.2,0.3-0.3c0.1-0.1,0.1-0.2,0.1-0.4s0-0.3,0-0.4
		L34,15.6c-0.1-0.3-0.2-0.5-0.5-0.6c-0.2-0.1-0.5-0.2-0.8-0.1l-8.5,1.9c-0.3,0.1-0.5,0.2-0.6,0.5c-0.1,0.2-0.2,0.5-0.1,0.8l3.6,15.7
		c0.1,0.3,0.2,0.5,0.5,0.6C27.9,34.5,28.1,34.5,28.4,34.5z"/>
	<path class="st1" d="M25.5,44.1l10.3-9.5c0.4-0.4,0.3-0.6-0.2-0.4l-7.1,1.6c-0.3,0.1-0.6,0.2-0.8,0.4c-0.2,0.2-0.4,0.5-0.5,0.7
		L25,43.8C24.9,44.4,25.1,44.5,25.5,44.1z"/>
	<path class="st1" d="M6.7,41l15.4,4.8c0.3,0,0.5,0,0.8-0.1c0.2-0.1,0.4-0.3,0.5-0.6l2.6-8.3c0-0.1,0-0.3,0-0.4
		c0-0.1-0.1-0.3-0.1-0.4s-0.2-0.2-0.3-0.3c-0.1-0.1-0.2-0.1-0.4-0.2L9.8,30.8c-0.3-0.1-0.5,0-0.8,0.1c-0.2,0.1-0.4,0.4-0.5,0.6
		L6,39.8c-0.1,0.3,0,0.5,0.1,0.8C6.2,40.8,6.4,40.9,6.7,41z"/>
	<path class="st1" d="M1.7,24.1l3.1,13.7c0.1,0.5,0.3,0.5,0.5,0l2.1-6.9c0.1-0.3,0.1-0.6,0-0.9c-0.1-0.3-0.2-0.6-0.4-0.8l-4.9-5.3
		C1.8,23.5,1.5,23.6,1.7,24.1z"/>
	<path class="st1" d="M13.8,9.5L1.9,20.4c-0.2,0.2-0.3,0.4-0.3,0.7c0,0.3,0.1,0.5,0.3,0.7l5.9,6.4c0.2,0.2,0.4,0.3,0.7,0.3
		c0.3,0,0.5-0.1,0.7-0.3L21,17.3c0.2-0.2,0.3-0.4,0.3-0.7c0-0.3-0.1-0.5-0.3-0.7l-5.9-6.4c-0.1-0.1-0.2-0.2-0.3-0.2
		c-0.1-0.1-0.3-0.1-0.4-0.1c-0.1,0-0.3,0-0.4,0.1C14,9.3,13.8,9.4,13.8,9.5z"/>
	<path class="st1" d="M25.2,34.2c0.5,0.1,0.9-0.1,0.7-0.7l-3.4-14.8c-0.1-0.5-0.6-0.7-1-0.3L10.4,28.8c-0.4,0.4-0.3,0.8,0.2,1
		L25.2,34.2z"/>
	<path class="st1" d="M31,13.6L17.5,9.5c-0.5-0.1-0.6,0-0.2,0.5l4.9,5.3c0.2,0.2,0.5,0.4,0.8,0.4c0.3,0.1,0.6,0.1,0.9,0l7.1-1.6
		C31.5,14,31.5,13.7,31,13.6z"/>
	<path class="st0" d="M181,17.3V14h-1.2v-0.7h3.2V14h-1.2v3.3H181z M183.7,17.3l0.2-4h0.7l1.2,2.5l1.2-2.5h0.7l0.2,4h-0.7l-0.1-3
		l-1.1,2.3h-0.5l-1.1-2.3l-0.1,3H183.7z"/>
</g>
</svg>
