<svg width="284" height="55" viewBox="0 0 284 55" fill="none" xmlns="http://www.w3.org/2000/svg">
<path d="M65.6991 20.3158C64.6099 20.3158 63.6853 19.9612 62.9253 19.2519C62.1907 18.5426 61.8234 17.6814 61.8234 16.6681C61.8234 15.6042 62.1907 14.7303 62.9253 14.0463C63.6853 13.3371 64.6099 12.9824 65.6991 12.9824C66.7884 12.9824 67.7003 13.3371 68.4349 14.0463C69.1695 14.7303 69.5368 15.6042 69.5368 16.6681C69.5368 17.6814 69.1695 18.5426 68.4349 19.2519C67.7003 19.9612 66.7884 20.3158 65.6991 20.3158ZM62.2414 43V23.3936H69.1188V43H62.2414ZM73.7444 43V23.3936H80.5078L80.5838 25.8254C81.0904 24.8628 81.8377 24.1155 82.8256 23.5836C83.8136 23.0516 84.9535 22.7856 86.2454 22.7856C88.4492 22.7856 90.1211 23.4949 91.261 24.9135C92.4262 26.3067 93.0088 28.3585 93.0088 31.069V43H86.1314V32.3609C86.1314 30.0557 85.2574 28.9031 83.5096 28.9031C82.5723 28.9031 81.8504 29.2324 81.3438 29.8911C80.8625 30.5243 80.6218 31.4363 80.6218 32.6268V43H73.7444ZM99.5063 43V28.9031H96.3525V23.3936H99.5063V21.4937C99.5063 18.4793 100.241 16.1488 101.71 14.5023C103.205 12.8558 105.307 12.0325 108.018 12.0325C108.803 12.0325 109.537 12.0958 110.221 12.2225C110.931 12.3238 111.526 12.4758 112.007 12.6784L111.665 18.378C111.387 18.2513 111.045 18.1627 110.639 18.112C110.259 18.036 109.905 17.998 109.575 17.998C108.486 17.998 107.676 18.3147 107.144 18.9479C106.637 19.5812 106.384 20.5818 106.384 21.9497V23.3936H111.019V28.9031H106.384V43H99.5063ZM114.059 43V12.2225H120.937V43H114.059ZM132.041 43.608C129.888 43.608 128.242 42.924 127.102 41.5561C125.962 40.1629 125.392 38.1364 125.392 35.4766V23.3936H132.307V34.0707C132.307 35.236 132.51 36.0972 132.915 36.6545C133.346 37.2118 134.017 37.4904 134.929 37.4904C135.841 37.4904 136.538 37.1738 137.019 36.5405C137.526 35.8819 137.779 34.9573 137.779 33.7667V23.3936H144.656V43H137.893L137.817 40.5682C137.31 41.5308 136.55 42.2781 135.537 42.81C134.549 43.342 133.384 43.608 132.041 43.608ZM147.773 43L154.917 32.8928L148.153 23.3936H155.828L159.02 28.7132L162.136 23.3936H169.431L162.706 32.9688L169.887 43H162.174L158.602 37.0725L155.068 43H147.773ZM181.932 43.608C180.184 43.608 178.614 43.1773 177.221 42.3161C175.853 41.4548 174.776 40.2642 173.991 38.7443C173.206 37.1991 172.813 35.4513 172.813 33.5008C172.813 31.6263 173.231 29.9291 174.067 28.4092C174.928 26.864 176.081 25.6481 177.525 24.7615C178.969 23.8495 180.564 23.3936 182.312 23.3936C183.756 23.3936 185.073 23.7482 186.264 24.4575C187.48 25.1668 188.455 26.1674 189.19 27.4593V12.2225H192.419V43H189.266L189.19 39.5423C188.43 40.8342 187.429 41.8348 186.188 42.544C184.947 43.2533 183.528 43.608 181.932 43.608ZM182.768 40.7202C184.085 40.7202 185.238 40.4162 186.226 39.8083C187.214 39.2003 187.987 38.3517 188.544 37.2625C189.126 36.1732 189.418 34.9193 189.418 33.5008C189.418 32.0822 189.126 30.8283 188.544 29.7391C187.987 28.6498 187.214 27.8012 186.226 27.1933C185.238 26.5853 184.085 26.2813 182.768 26.2813C181.476 26.2813 180.324 26.5853 179.311 27.1933C178.323 27.8012 177.537 28.6498 176.955 29.7391C176.397 30.8283 176.119 32.0822 176.119 33.5008C176.119 34.9193 176.397 36.1732 176.955 37.2625C177.537 38.3517 178.323 39.2003 179.311 39.8083C180.324 40.4162 181.476 40.7202 182.768 40.7202ZM207.053 43.608C205.305 43.608 203.735 43.1773 202.342 42.3161C200.974 41.4548 199.897 40.2642 199.112 38.7443C198.327 37.1991 197.934 35.4513 197.934 33.5008C197.934 31.6263 198.352 29.9291 199.188 28.4092C200.049 26.864 201.202 25.6481 202.646 24.7615C204.09 23.8495 205.685 23.3936 207.433 23.3936C208.877 23.3936 210.194 23.7482 211.385 24.4575C212.601 25.1668 213.576 26.1674 214.311 27.4593L214.387 24.0015H217.541V43H214.387L214.311 39.5423C213.551 40.8342 212.55 41.8348 211.309 42.544C210.068 43.2533 208.649 43.608 207.053 43.608ZM207.889 40.7202C209.207 40.7202 210.359 40.4162 211.347 39.8083C212.335 39.2003 213.108 38.3517 213.665 37.2625C214.247 36.1732 214.539 34.9193 214.539 33.5008C214.539 32.0822 214.247 30.8283 213.665 29.7391C213.108 28.6498 212.335 27.8012 211.347 27.1933C210.359 26.5853 209.207 26.2813 207.889 26.2813C206.597 26.2813 205.445 26.5853 204.432 27.1933C203.444 27.8012 202.658 28.6498 202.076 29.7391C201.518 30.8283 201.24 32.0822 201.24 33.5008C201.24 34.9193 201.518 36.1732 202.076 37.2625C202.658 38.3517 203.444 39.2003 204.432 39.8083C205.445 40.4162 206.597 40.7202 207.889 40.7202ZM224.651 52.3092L229.895 41.4421L221.725 24.0015H225.221L231.604 37.9844L237.76 24.0015H241.142L227.995 52.3092H224.651ZM249.799 43.608C248.609 43.608 247.418 43.4433 246.228 43.114C245.062 42.7847 244.125 42.3541 243.416 41.8221L243.91 38.9723C244.72 39.5549 245.658 40.0236 246.722 40.3782C247.811 40.7328 248.837 40.9102 249.799 40.9102C251.218 40.9102 252.32 40.6695 253.105 40.1882C253.89 39.6816 254.283 38.9977 254.283 38.1364C254.283 37.5791 254.156 37.1231 253.903 36.7685C253.65 36.3885 253.194 36.0466 252.535 35.7426C251.876 35.4133 250.927 35.0713 249.685 34.7167C247.557 34.0834 246.038 33.3234 245.126 32.4369C244.214 31.5503 243.758 30.3977 243.758 28.9791C243.758 27.2566 244.391 25.9014 245.658 24.9135C246.95 23.9002 248.697 23.3936 250.901 23.3936C251.94 23.3936 252.991 23.5456 254.055 23.8495C255.119 24.1282 255.98 24.4828 256.639 24.9135L256.107 27.6492C254.486 26.6107 252.725 26.0914 250.825 26.0914C249.559 26.0914 248.583 26.3193 247.899 26.7753C247.216 27.2059 246.874 27.8266 246.874 28.6372C246.874 29.4224 247.165 30.043 247.747 30.499C248.33 30.955 249.407 31.4109 250.977 31.8669C253.409 32.5762 255.106 33.3868 256.069 34.2987C257.057 35.2106 257.551 36.4265 257.551 37.9464C257.551 39.6436 256.841 41.0115 255.423 42.0501C254.004 43.0887 252.13 43.608 249.799 43.608Z" fill="#020A47"/>
<path fill-rule="evenodd" clip-rule="evenodd" d="M32.4977 38.8697L42.8125 36.5048C42.9715 36.4726 43.122 36.4077 43.2544 36.3142C43.3869 36.2206 43.4984 36.1006 43.5819 35.9616C43.6654 35.8226 43.719 35.6677 43.7394 35.5068C43.7597 35.346 43.7463 35.1827 43.7001 35.0273L39.3134 16.0017C39.2342 15.6877 39.0337 15.418 38.7559 15.2516C38.478 15.0853 38.1456 15.0359 37.8314 15.1143L27.5208 17.4792C27.2087 17.5593 26.941 17.7597 26.7763 18.0366C26.6116 18.3135 26.5632 18.6443 26.6418 18.9568L31.0157 37.9823C31.0949 38.2963 31.2954 38.566 31.5732 38.7324C31.8511 38.8988 32.1835 38.9481 32.4977 38.8697Z" fill="#020A47"/>
<path fill-rule="evenodd" clip-rule="evenodd" d="M28.9433 50.6264L41.4493 39.048C41.9207 38.5725 41.8018 38.2795 41.1521 38.513L32.5571 40.4661C32.2017 40.5539 31.8742 40.7299 31.6047 40.9778C31.3353 41.2256 31.1327 41.5374 31.0156 41.8842L28.4083 50.274C28.2299 50.9236 28.4677 51.1019 28.9433 50.6264Z" fill="#020A47"/>
<path fill-rule="evenodd" clip-rule="evenodd" d="M6.12689 46.8476L24.854 52.6347C25.174 52.6942 25.5047 52.6381 25.7871 52.4763C26.0695 52.3146 26.2851 52.0577 26.3955 51.7515L29.5337 41.7059C29.5791 41.5492 29.5932 41.3851 29.575 41.223C29.5569 41.0609 29.507 40.9039 29.4281 40.7611C29.3492 40.6184 29.2429 40.4925 29.1153 40.3909C28.9876 40.2893 28.8412 40.2138 28.6844 40.1689L9.95725 34.437C9.64023 34.3463 9.3002 34.3847 9.0114 34.5438C8.7226 34.7029 8.50847 34.9698 8.41576 35.2862L5.29882 45.3106C5.20624 45.6242 5.24131 45.9617 5.3964 46.2495C5.55149 46.5374 5.81404 46.7523 6.12689 46.8476Z" fill="#020A47"/>
<path fill-rule="evenodd" clip-rule="evenodd" d="M0.0797676 26.285L3.87615 42.9075C3.99506 43.5571 4.3008 43.5571 4.46642 42.9075L7.07378 34.5177C7.16263 34.1602 7.16626 33.7869 7.08439 33.4277C7.00252 33.0686 6.83743 32.7337 6.60242 32.45L0.614829 25.9878C0.19867 25.4995 -0.111326 25.6354 0.0797676 26.285Z" fill="#020A47"/>
<path fill-rule="evenodd" clip-rule="evenodd" d="M14.7218 8.51621L0.377109 21.7929C0.146973 22.012 0.0118581 22.3125 0.000743977 22.63C-0.0103701 22.9475 0.103402 23.2567 0.317658 23.4913L7.49002 31.2484C7.71105 31.4828 8.01568 31.6206 8.33772 31.6317C8.65975 31.6429 8.97317 31.5265 9.20986 31.3078L23.5503 18.0099C23.7825 17.792 23.919 17.4911 23.9301 17.173C23.9413 16.8548 23.8261 16.5452 23.6098 16.3116L16.4502 8.55867C16.34 8.44147 16.2077 8.34731 16.0609 8.28166C15.9141 8.216 15.7557 8.18016 15.5949 8.17621C15.4341 8.17226 15.2741 8.20028 15.1242 8.25865C14.9744 8.31701 14.8376 8.40456 14.7218 8.51621Z" fill="#020A47"/>
<path fill-rule="evenodd" clip-rule="evenodd" d="M28.5868 38.5725C29.2407 38.7508 29.6526 38.3984 29.4785 37.7234L25.3297 19.7635C25.1513 19.1139 24.6163 18.9355 24.1449 19.4068L10.6325 31.9575C10.1569 32.4288 10.2758 32.9595 10.9255 33.1379L28.5868 38.5725Z" fill="#020A47"/>
<path fill-rule="evenodd" clip-rule="evenodd" d="M35.6401 13.5221L19.2825 8.51628C18.6328 8.33796 18.5139 8.57572 19.0447 9.10645L25.0323 15.5474C25.3009 15.7984 25.6258 15.9815 25.9797 16.0812C26.3336 16.1809 26.7062 16.1944 27.0664 16.1206L35.6614 14.1717C36.2941 13.9934 36.2941 13.6962 35.6401 13.5221Z" fill="#020A47"/>
</svg>
