<?xml version="1.0" encoding="utf-8"?>
<!-- Generator: Adobe Illustrator 19.1.0, SVG Export Plug-In . SVG Version: 6.00 Build 0)  -->
<svg version="1.1" id="Layer_1" xmlns="http://www.w3.org/2000/svg" xmlns:xlink="http://www.w3.org/1999/xlink" x="0px" y="0px"
	 viewBox="-59 67 672 480" style="enable-background:new -59 67 672 480;" xml:space="preserve">
<style type="text/css">
	.st0{fill:#292933;}
	.st1{fill:#FFFFFF;}
</style>
<rect x="-59" y="67" class="st0" width="672" height="480"/>
<path class="st1" d="M412.1,335.5l-26.2-114.2c-1.5-6.3-7.2-12.5-13.4-14.3l-119.9-37c-1.5-0.6-3.3-0.6-5.1-0.6
	c-5.1,0-10.4,2.1-14,5.1l-85.9,79.9c-4.8,4.2-7.2,12.5-5.7,18.5l28,122.3c1.5,6.3,7.2,12.5,13.4,14.3L295.5,444
	c1.5,0.6,3.3,0.6,5.1,0.6c5.1,0,10.4-2.1,14-5.1l91.8-85.3C411.2,349.8,413.6,341.7,412.1,335.5z M265.1,197.1l82.3,25.3
	c3.3,0.9,3.3,2.4,0,3.3l-43.2,9.8c-3.3,0.9-7.8-0.6-10.1-3l-30.1-32.5C261.2,197.4,261.8,196.2,265.1,197.1z M316.4,344.7
	c0.9,3.3-1.2,5.1-4.5,4.2L223,321.5c-3.3-0.9-3.9-3.6-1.5-6l68-63.2c2.4-2.4,5.1-1.5,6,1.8L316.4,344.7z M170,264.2l72.2-67.1
	c2.4-2.4,6.3-2.1,8.6,0.3l36.1,39.1c2.4,2.4,2.1,6.3-0.3,8.6l-72.2,67.1c-2.4,2.4-6.3,2.1-8.6-0.3l-36.1-39.1
	C167.3,270.2,167.6,266.3,170,264.2z M187.6,370.7l-19.1-83.8c-0.9-3.3,0.6-3.9,2.7-1.5l30.1,32.5c2.4,2.4,3.3,7.2,2.4,10.4
	l-13.1,42.3C189.6,373.9,188.2,373.9,187.6,370.7z M293.1,419.6l-94.2-28.9c-3.3-0.9-5.1-4.5-4.2-7.8l15.8-50.7
	c0.9-3.3,4.5-5.1,7.8-4.2l94.2,28.9c3.3,0.9,5.1,4.5,4.2,7.8l-15.8,50.7C299.7,418.7,296.4,420.5,293.1,419.6z M376.6,351
	l-62.9,58.4c-2.4,2.4-3.6,1.5-2.7-1.8l13.1-42.3c0.9-3.3,4.5-6.6,7.8-7.2l43.2-9.8C378.4,347.4,379,348.9,376.6,351z M383.4,338.5
	l-51.9,11.9c-3.3,0.9-6.6-1.2-7.5-4.5l-22.1-96c-0.9-3.3,1.2-6.6,4.5-7.5l51.9-11.9c3.3-0.9,6.6,1.2,7.5,4.5l22.1,96
	C388.8,334.6,386.7,337.9,383.4,338.5z"/>
</svg>
