<?xml version="1.0" encoding="utf-8"?>
<!-- Generator: Adobe Illustrator 21.1.0, SVG Export Plug-In . SVG Version: 6.00 Build 0)  -->
<svg version="1.1" id="Layer_1" xmlns="http://www.w3.org/2000/svg" xmlns:xlink="http://www.w3.org/1999/xlink" x="0px" y="0px"
	 width="900px" height="900px" viewBox="0 0 900 900" style="enable-background:new 0 0 900 900;" xml:space="preserve">
<style type="text/css">
	.st0{fill:#FFFFFF;}
	.st1{fill:#292933;}
</style>
<rect class="st0" width="900" height="900"/>
<g>
	<g>
		<path class="st1" d="M247.9,467.7l-15.7-68.6c-0.6-2.7-3.5-5.8-6.2-6.6l-71.9-22.2c-2.7-0.9-6.8,0-8.8,2l-51.6,48
			c-2.2,2-3.3,5.9-2.7,8.6l16.7,73.3c0.6,2.7,3.5,5.8,6.2,6.6l67.1,20.7c2.7,0.9,6.8,0,8.8-2l55.2-51.1
			C247.3,474.5,248.5,470.6,247.9,467.7z M162.5,386l48,14.7c1.9,0.6,1.9,1.4,0,1.9l-25.2,5.8c-1.9,0.4-4.6-0.4-5.9-1.9l-17.9-18.9
			C160.1,386.2,160.6,385.5,162.5,386z M180.3,419.3l12.1,52.9c0.4,1.9-0.7,3-2.6,2.4l-51.9-16c-1.9-0.6-2.2-2.2-0.9-3.5l39.8-36.9
			C178.3,417,179.9,417.4,180.3,419.3z M107,425.1l42.1-39c1.4-1.3,3.7-1.3,5,0.1l21.2,22.8c1.3,1.4,1.3,3.7-0.1,5l-42.1,39
			c-1.4,1.3-3.7,1.3-5-0.1l-21.2-22.8C105.5,428.7,105.5,426.4,107,425.1z M117.2,487.3L106,438.5c-0.4-1.9,0.3-2.3,1.6-0.9l17.7,19
			c1.3,1.4,2,4.2,1.4,6.1l-7.6,24.8C118.5,489.2,117.7,489.2,117.2,487.3z M183.2,513.4c-0.6,1.9-2.6,2.9-4.5,2.3l-54.9-16.9
			c-1.9-0.6-2.9-2.6-2.3-4.5l9.1-29.7c0.6-1.9,2.6-2.9,4.5-2.3l54.9,16.9c1.9,0.6,2.9,2.6,2.3,4.5L183.2,513.4z M227.6,475.8
			l-36.7,34.1c-1.4,1.3-2.2,0.9-1.6-1l7.6-24.8c0.6-1.9,2.6-3.7,4.5-4.2l25.2-5.8C228.6,473.8,229,474.5,227.6,475.8z M231.5,468.4
			l-30.3,6.9c-1.9,0.4-3.9-0.7-4.3-2.7l-12.8-55.9c-0.4-1.9,0.7-3.9,2.7-4.3l30.3-6.9c1.9-0.4,3.9,0.7,4.3,2.7l12.8,55.9
			C234.6,466.1,233.5,468,231.5,468.4z"/>
		<g>
			<g>
				<path class="st1" d="M310.7,423.5l20.6-2.9l-12.5,70.7h-20L310.7,423.5z M316.2,392.8l20.6-2.9l-3.9,21.3l-20.5,2.9L316.2,392.8
					z"/>
				<path class="st1" d="M384.6,444.1c0.1-0.9,0.3-1.6,0.3-2.2c0-1.4-0.7-2-2.7-2c-3.7,0-12.5,3.7-18,6.5l-7.8,44.8h-20l11.8-67.7
					l17.7-3l-0.1,7.6c10.8-5.2,19.3-7.8,27.4-7.8c9.2,0,12.7,5.3,12.7,14.1c0,2.4-0.1,4.5-0.7,7.9l-8.5,48.7h-20L384.6,444.1z"/>
				<path class="st1" d="M407.6,508.8c6.9-7.1,7.9-10.8,9.1-17.6l9.4-53h-9.9l2.9-16.4h9.9l1.6-9.1c2.9-16,8.8-22,26.7-22
					c5.8,0,15.6,1,24.2,3.5l20.7-3.5l-17.7,100.6h-20l14.3-81.7c-5.5-1.4-15.1-2.6-21-2.6c-4.6,0-6.1,1.2-6.6,4.8l-1.9,10.1h18
					l-4.3,16.4h-16.6l-9.7,55.3c-1.7,9.7-5.2,16.6-16,27.2L407.6,508.8z"/>
				<path class="st1" d="M522.6,468.9c-0.1,0.7-0.3,1.6-0.3,2.2c0,1.4,0.7,2.2,2.7,2.2c3.7,0,12.8-4,18-6.5l7.5-43.2l20.6-2.9
					l-12.4,70.7h-17.1l-0.1-6.5c-10.8,5.2-19.3,7.8-27.4,7.8c-9.1,0-12.7-5.5-12.7-14.1c0-2.9,0.3-5.2,0.7-7.9l8.2-47.1l20.5-2.9
					L522.6,468.9z"/>
				<path class="st1" d="M603.6,473.9l-14.4,17.4H568l27.5-34.9l-15-32.8l19.3-2.9l8.9,23l15-21.8h21.3l-27.9,37.2l14.7,32.1h-20
					L603.6,473.9z"/>
				<path class="st1" d="M693,481.1c-7.9,6.8-18.4,11.5-28.4,11.5c-8.8,0-13.7-3.2-13.7-11.7c0-1.6,0.1-3.3,0.4-5.2l5.3-29.8
					c3.3-18.9,11.8-25.6,29.5-25.6c4.6,0,12.5,1,16.9,2.3l5.2-29.2l8.1-1.2l-17.6,99h-7.2L693,481.1z M701.7,429.8
					c-5.6-1.4-11.1-2.3-16.7-2.3c-12.7,0-18,4.6-20.6,19.9l-5,28.4c-0.3,1.7-0.4,3-0.4,4.2c0,4.5,2.2,5.6,6.5,5.6
					c8.8,0,19.9-5.8,29-13.7L701.7,429.8z"/>
				<path class="st1" d="M739.3,393.5l8.1-1.2l-6.8,39.3c7.8-6.6,18.2-11.2,27.9-11.2c8.8,0,13.8,3.2,13.8,11.7
					c0,1.6-0.3,3.3-0.6,5.2l-5.3,29.8c-3.2,17.9-10.8,25.6-29.5,25.6c-6.5,0-16-1.2-24.5-4L739.3,393.5z M731.4,483.9
					c4.5,1,11.1,1.7,16.9,1.7c13,0,18-4.8,20.6-19.9l5-28.4c0.3-1.7,0.4-3,0.4-4.3c0-4.5-2.2-5.5-6.5-5.5c-8.8,0-19.9,5.8-29,13.7
					L731.4,483.9z"/>
			</g>
		</g>
	</g>
	<g>
		<path class="st1" d="M794.3,397.8h-1.7l1.4-8.1h-2.7l0.3-1.6h7.2l-0.3,1.6h-2.7L794.3,397.8z"/>
		<path class="st1" d="M807,391.7l-2.7,4.9h-1.9l-0.9-4.9l-1.4,6.2h-1.9l2.2-9.7h1.9l1.3,6.5l3.6-6.5h2l-1.2,9.7h-1.7L807,391.7z"/>
	</g>
</g>
</svg>
