<?xml version="1.0" encoding="utf-8"?>
<!-- Generator: Adobe Illustrator 19.1.0, SVG Export Plug-In . SVG Version: 6.00 Build 0)  -->
<svg version="1.1" id="Layer_1" xmlns="http://www.w3.org/2000/svg" xmlns:xlink="http://www.w3.org/1999/xlink" x="0px" y="0px"
	 viewBox="-59 67 672 480" style="enable-background:new -59 67 672 480;" xml:space="preserve">
<style type="text/css">
	.st0{fill:#FFFFFF;}
	.st1{fill:#292933;}
</style>
<g>
	<rect x="-59" y="67" class="st0" width="672" height="480"/>
	<g>
		<path class="st1" d="M120.4,316.8l-9.1-39.4c-0.5-2.2-2.5-4.3-4.6-4.9l-41.4-12.8c-0.5-0.2-1.1-0.2-1.7-0.2
			c-1.7,0-3.6,0.7-4.8,1.7l-29.6,27.6c-1.6,1.4-2.5,4.3-2,6.4l9.7,42.2c0.5,2.2,2.5,4.3,4.6,4.9l38.7,11.9c0.5,0.2,1.1,0.2,1.7,0.2
			c1.7,0,3.6-0.7,4.8-1.7l31.7-29.4C120.1,321.8,120.9,319,120.4,316.8z M69.7,269.1l28.4,8.7c1.1,0.3,1.1,0.8,0,1.1l-14.9,3.4
			c-1.1,0.3-2.7-0.2-3.5-1l-10.4-11.2C68.3,269.2,68.5,268.8,69.7,269.1z M87.4,320c0.3,1.1-0.4,1.7-1.5,1.4L55.1,312
			c-1.1-0.3-1.3-1.2-0.5-2.1l23.5-21.8c0.8-0.8,1.7-0.5,2.1,0.6L87.4,320z M36.8,292.2l24.9-23.2c0.8-0.8,2.2-0.7,3,0.1l12.5,13.5
			c0.8,0.8,0.7,2.2-0.1,3l-24.9,23.2c-0.8,0.8-2.2,0.7-3-0.1l-12.5-13.5C35.9,294.3,36,293,36.8,292.2z M42.9,329l-6.6-28.9
			c-0.3-1.1,0.2-1.3,0.9-0.5l10.4,11.2c0.8,0.8,1.1,2.5,0.8,3.6L43.9,329C43.6,330.1,43.1,330.1,42.9,329z M79.3,345.9l-32.5-10
			c-1.1-0.3-1.7-1.5-1.4-2.7l5.5-17.5c0.3-1.1,1.5-1.7,2.7-1.4l32.5,10c1.1,0.3,1.7,1.5,1.4,2.7L82,344.4
			C81.6,345.5,80.5,346.2,79.3,345.9z M108.1,322.2l-21.7,20.2c-0.8,0.8-1.2,0.5-0.9-0.6l4.5-14.6c0.3-1.1,1.5-2.3,2.7-2.5l14.9-3.4
			C108.8,320.9,109,321.5,108.1,322.2z M110.5,317.9L92.6,322c-1.1,0.3-2.3-0.4-2.6-1.5l-7.6-33.1c-0.3-1.1,0.4-2.3,1.5-2.6
			l17.9-4.1c1.1-0.3,2.3,0.4,2.6,1.5l7.6,33.1C112.4,316.5,111.6,317.7,110.5,317.9z"/>
		<g>
			<path class="st1" d="M388,330.7c-0.1,1,0.3,1.2,0.7,1.2h2.5c0.9,0,1.1-0.8,1.1-1.2l10.1-57.3c0.2-1-0.5-1.2-1-1.1l0,0l-2.7,0.4
				c-0.7,0.1-1.1,0.7-1.1,1.1l0,0l-2.9,16.7c-2.6-0.8-7.4-1.3-10.2-1.3c-10.7,0-15.8,4.1-17.8,15.5l-3.2,18
				c-0.2,1.1-0.3,2.2-0.3,3.1c0,5.1,2.9,7.1,8.2,7.1c6.1,0,12.3-2.9,17.2-7L388,330.7z M371.9,328.6c-2.6,0-3.9-0.7-3.9-3.4
				c0-0.7,0.1-1.4,0.3-2.5l3-17.2c1.6-9.4,4.8-12,12.6-12c3.4,0,6.7,0.5,10.1,1.3l-4.5,25.4C384,325.1,377.3,328.6,371.9,328.6z"/>
			<path class="st1" d="M430.6,330.7c-0.1,1,0.3,1.2,0.8,1.2h2.5c0.9,0,1.1-0.8,1.1-1.2l0,0l6.9-38.8c-4.9-1.9-10.6-2.8-14.5-2.8
				c-11.3,0-15.8,4.5-17.8,15.5l-3.2,18c-0.2,1.1-0.3,2.2-0.3,3.1c0,5.1,2.9,7.1,8.2,7.1c6.1,0,12-2.9,16.9-7L430.6,330.7z
				 M414.7,328.6c-2.6,0-3.9-0.7-3.9-3.4c0-0.7,0.1-1.4,0.3-2.5l3-17.2c1.6-9.3,4.6-12,12.6-12c3.5,0,7.5,0.7,9.9,1.3l-4.5,25.4
				C426.6,325.1,420,328.6,414.7,328.6z"/>
			<path class="st1" d="M499.4,330.7c-0.1,1,0.3,1.2,0.7,1.2h2.5c0.9,0,1.1-0.8,1.1-1.2l0,0l6.9-38.8c-4.9-1.9-10.6-2.8-14.5-2.8
				c-11.3,0-15.8,4.5-17.8,15.5l-3.2,18c-0.2,1.1-0.3,2.2-0.3,3.1c0,5.1,2.9,7.1,8.2,7.1c6.1,0,12-2.9,16.9-7L499.4,330.7z
				 M483.7,328.6c-2.6,0-3.9-0.7-3.9-3.4c0-0.7,0.1-1.4,0.3-2.5l3-17.2c1.6-9.3,4.6-12,12.6-12c3.5,0,7.5,0.7,9.9,1.3l-4.5,25.4
				C495.5,325.1,488.9,328.6,483.7,328.6z"/>
			<g>
				<path class="st1" d="M458.9,279.7L458.9,279.7L458.9,279.7z"/>
				<path class="st1" d="M473.3,293.5L473.3,293.5l0.6-2.8c0.2-0.7-0.2-0.7-0.6-0.7h-11.8l1.6-9.7l0,0c0.2-1-0.5-1.2-1-1.1l0,0
					l-2.7,0.4l0,0c-0.7,0.1-1.1,0.7-1.1,1.1l0,0l-1.6,9.3h-7.3c-0.2,0-0.8,0.1-0.9,0.7l-0.4,2.7l0,0c0,0.2,0,0.7,0.7,0.7h7.2
					l-5.6,31.5c-0.1,0.6-0.2,1.1-0.2,1.6c0,3.8,2.7,5.6,6.9,5.6c3.3,0,9.2-0.9,12.1-2.4c0.9-0.5,0.8-1.1,0.6-1.5l0,0l-0.6-1.6
					c-0.1-0.4-0.6-0.3-0.9-0.2l0,0c-2.9,1.1-4.5,1.7-10.4,1.7c-2,0-2.9-0.4-2.9-2.1c0-0.4,0.1-0.9,0.2-1.5l5.5-31h11.7
					C473,294.1,473.2,293.9,473.3,293.5z"/>
			</g>
			<path class="st1" d="M359.9,290h-12c-0.5,0-1.1,0.4-1.4,0.8l-8.5,12.5l-5-13c-0.3-0.7-0.9-0.9-1.5-0.8l-10.5,1.5l9.1,20
				l-16.7,21.1h11.3c0.7,0,1.9-0.4,2.4-1l7.8-9.5l4.4,9.5c0.2,0.5,0.9,1,1.6,1h11l-8.9-19.5L359.9,290z"/>
			<path class="st1" d="M308,331.2l7.2-41.1c0.1-0.8-0.5-0.8-1-0.7l-10.1,1.3c-1.1,0.2-1.4,0.9-1.4,1.3l0,0l-4.3,24.9
				c-3.1,1.5-8.6,4-10.9,4c-1.2,0-1.6-0.4-1.6-1.3c0-0.3,0.1-0.8,0.2-1.3l4.9-28.3l0,0c0.1-0.8-0.5-0.8-0.9-0.7l-10.1,1.4l0,0
				c-1.1,0.2-1.4,0.9-1.4,1.3l0,0l-4.8,27.4c-0.3,1.7-0.4,3.1-0.4,4.8c0,5.2,2.2,8.5,7.7,8.5c4.8,0,10-1.6,16.6-4.7l0.1,3.1
				c0,0.2,0.1,0.7,0.5,0.7h9.3C307.8,332,308,331.5,308,331.2z"/>
			<path class="st1" d="M208.1,289.1c-4.8,0-10,1.6-16.6,4.7l0.1-3.7c0-0.9-0.7-0.8-1.1-0.7l-7.9,1.3l0,0c-1.3,0.2-1.7,1-1.9,1.4
				l-6.6,37.9l0,0c-0.3,1.7-0.2,1.9,1.2,1.9h9.1c1,0,1.5,0,1.9-1.9l4.4-25.2c3.3-1.7,8.6-4,10.9-4c1.2,0,1.6,0.3,1.6,1.2
				c0,0.3-0.1,0.8-0.2,1.3l-4.6,26.7l0,0c-0.3,1.7-0.2,1.9,1.2,1.9h9.1c1,0,1.5,0,1.9-1.9l4.8-27.6c0.3-2.2,0.4-3.4,0.4-4.8
				C215.8,292.3,213.7,289.1,208.1,289.1z"/>
			<g>
				<path class="st1" d="M173.2,270.8l-10.1,1.4c-1.1,0.1-1.3,0.9-1.4,1.3l-1.9,10.5c-0.2,1.2-0.1,1.2,1,1.1l10-1.3l0,0
					c1-0.1,1.2-0.2,1.4-1.5l0,0l2-10.9C174.3,270.7,174.1,270.7,173.2,270.8z"/>
				<path class="st1" d="M158.6,290.9L158.6,290.9L158.6,290.9z"/>
				<path class="st1" d="M163.8,330.1L163.8,330.1l7.1-39.9c0.1-0.8-0.5-0.8-1-0.7l-10.1,1.3l0,0c-1.1,0.2-1.4,0.9-1.4,1.3l0,0
					l-6.8,38.3c-0.2,1.4,0,1.6,1.3,1.6h9.1C162.9,332,163.4,332,163.8,330.1z"/>
			</g>
			<path class="st1" d="M263.5,330.1l10.2-58c0.1-0.8-0.3-0.8-0.8-0.7l-11.6,2c-5.2-1.4-11.2-2.1-14.6-2.1
				c-10.8,0-14.4,3.7-16.2,13.4l-0.9,5.6h-4.7c-1.2,0-1.3,0.6-1.4,1.1l0,0l-1.4,8c-0.1,0.3,0.1,0.7,0.6,0.7h5.2l-5.7,32.1
				c-0.6,3.8-1.2,6.1-4.8,9.9l0,0c-0.7,0.7-0.5,0.9,0,1.3l0,0l6.4,6l0,0c0.6,0.6,0.9,0.5,1.6-0.2c5.9-6,7.7-10,8.7-15.5l5.9-33.5
				h9.4c0.5,0,0.6,0,0.8-0.6l0,0l2.2-8.4l0,0c0.2-0.6-0.4-0.8-0.8-0.8h-9.8l1.1-6.1c0.4-2.2,1.3-2.9,4-2.9c3.6,0,9.5,0.7,12.8,1.5
				l-8.3,47.6l0,0c-0.3,1.7-0.2,1.9,1.2,1.9h9.1C262.7,332,263.2,332,263.5,330.1z"/>
		</g>
		<g>
			<path class="st1" d="M516.3,279.7h-1.2l1-5.8h-2l0.2-1.1h5.1l-0.2,1.1h-2L516.3,279.7z"/>
			<path class="st1" d="M525.4,275.2l-2,3.5h-1.3l-0.6-3.5l-1,4.4h-1.2l1.5-6.9h1.3l0.9,4.6l2.6-4.6h1.4l-0.8,6.9h-1.2L525.4,275.2z
				"/>
		</g>
	</g>
</g>
</svg>
