<svg width="708" height="136" viewBox="0 0 708 136" fill="none" xmlns="http://www.w3.org/2000/svg">
<path d="M695.854 44.2588C693.59 44.2588 691.537 43.7201 689.695 42.6428C687.852 41.5654 686.394 40.1033 685.32 38.2564C684.245 36.4095 683.708 34.351 683.708 32.0809C683.708 29.8108 684.245 27.7522 685.32 25.9053C686.394 24.0585 687.852 22.5963 689.695 21.519C691.537 20.4416 693.59 19.903 695.854 19.903C698.156 19.903 700.21 20.4416 702.013 21.519C703.855 22.5963 705.314 24.0585 706.388 25.9053C707.463 27.7522 708 29.8108 708 32.0809C708 34.351 707.463 36.4095 706.388 38.2564C705.314 40.1033 703.855 41.5654 702.013 42.6428C700.21 43.7201 698.156 44.2588 695.854 44.2588ZM695.854 42.1233C697.734 42.1233 699.404 41.6809 700.862 40.7959C702.359 39.9109 703.548 38.7181 704.431 37.2175C705.314 35.6785 705.755 33.9663 705.755 32.0809C705.755 30.1955 705.314 28.5025 704.431 27.0019C703.548 25.4629 702.359 24.2508 700.862 23.3659C699.404 22.4809 697.734 22.0384 695.854 22.0384C694.012 22.0384 692.343 22.4809 690.846 23.3659C689.349 24.2508 688.159 25.4629 687.277 27.0019C686.394 28.5025 685.953 30.1955 685.953 32.0809C685.953 33.9663 686.394 35.6785 687.277 37.2175C688.159 38.7181 689.349 39.9109 690.846 40.7959C692.343 41.6809 694.012 42.1233 695.854 42.1233ZM691.767 37.6216V25.9631H695.681C697.14 25.9631 698.252 26.2901 699.02 26.9442C699.826 27.5983 700.229 28.5025 700.229 29.6568C700.229 30.3879 700.056 31.0613 699.711 31.6769C699.365 32.254 698.847 32.6965 698.156 33.0043L701.035 37.6216H698.617L696.084 33.4083H693.839V37.6216H691.767ZM695.509 27.81H693.839V31.5614H695.451C696.41 31.5614 697.082 31.4075 697.466 31.0997C697.849 30.7919 698.041 30.311 698.041 29.6568C698.041 28.4256 697.197 27.81 695.509 27.81Z" fill="white"/>
<path d="M178.658 41.6328C175.872 41.6328 173.508 40.7204 171.564 38.8957C169.686 37.0709 168.747 34.8551 168.747 32.2483C168.747 29.5112 169.686 27.2628 171.564 25.5032C173.508 23.6785 175.872 22.7661 178.658 22.7661C181.443 22.7661 183.775 23.6785 185.654 25.5032C187.532 27.2628 188.471 29.5112 188.471 32.2483C188.471 34.8551 187.532 37.0709 185.654 38.8957C183.775 40.7204 181.443 41.6328 178.658 41.6328ZM169.815 99.9925V49.551H187.403V99.9925H169.815Z" fill="white"/>
<path d="M199.231 99.9925V49.551H216.527L216.721 55.8073C218.017 53.3308 219.928 51.4083 222.454 50.0397C224.98 48.6712 227.895 47.9869 231.199 47.9869C236.835 47.9869 241.11 49.8116 244.025 53.4612C247.005 57.0455 248.495 62.3243 248.495 69.2975V99.9925H230.907V72.6211C230.907 66.6907 228.673 63.7254 224.203 63.7254C221.806 63.7254 219.96 64.5726 218.664 66.2671C217.434 67.8963 216.818 70.2424 216.818 73.3054V99.9925H199.231Z" fill="white"/>
<path d="M265.11 99.9925V63.7254H257.045V49.551H265.11V44.6632C265.11 36.908 266.989 30.9123 270.746 26.6763C274.568 22.4402 279.944 20.3222 286.875 20.3222C288.884 20.3222 290.762 20.4851 292.511 20.811C294.325 21.0717 295.847 21.4627 297.078 21.9841L296.203 36.6473C295.491 36.3215 294.616 36.0934 293.58 35.963C292.608 35.7675 291.701 35.6698 290.859 35.6698C288.074 35.6698 286.001 36.4844 284.641 38.1136C283.345 39.7429 282.697 42.3171 282.697 45.8363V49.551H294.552V63.7254H282.697V99.9925H265.11ZM302.325 99.9925V20.811H319.912V99.9925H302.325Z" fill="white"/>
<path d="M348.31 101.557C342.804 101.557 338.593 99.797 335.678 96.2779C332.763 92.6935 331.306 87.4799 331.306 80.6371V49.551H348.99V77.0201C348.99 80.0179 349.508 82.2337 350.545 83.6675C351.646 85.1012 353.363 85.8181 355.695 85.8181C358.027 85.8181 359.808 85.0034 361.039 83.3742C362.334 81.6798 362.982 79.3011 362.982 76.2381V49.551H380.569V99.9925H363.274L363.079 93.7362C361.784 96.2127 359.84 98.1352 357.249 99.5038C354.723 100.872 351.743 101.557 348.31 101.557Z" fill="white"/>
<path d="M388.539 99.9925L406.806 73.9897L389.511 49.551H409.139L417.301 63.2367L425.268 49.551H443.924L426.726 74.1852L445.09 99.9925H425.365L416.232 84.7428L407.195 99.9925H388.539Z" fill="white"/>
<path d="M475.892 101.557C471.422 101.557 467.406 100.449 463.843 98.233C460.345 96.0172 457.592 92.9542 455.584 89.044C453.576 85.0686 452.572 80.5719 452.572 75.5538C452.572 70.7312 453.641 66.3648 455.779 62.4546C457.981 58.4793 460.928 55.3511 464.621 53.0701C468.313 50.724 472.394 49.551 476.864 49.551C480.556 49.551 483.924 50.4633 486.969 52.2881C490.078 54.1129 492.572 56.6871 494.451 60.0108V20.811H502.71V99.9925H494.645L494.451 91.0968C492.508 94.4205 489.949 96.9947 486.775 98.8195C483.601 100.644 479.973 101.557 475.892 101.557ZM478.03 94.1272C481.398 94.1272 484.346 93.3452 486.872 91.7811C489.398 90.217 491.374 88.0339 492.799 85.2315C494.289 82.4292 495.034 79.2033 495.034 75.5538C495.034 71.9043 494.289 68.6784 492.799 65.876C491.374 63.0737 489.398 60.8905 486.872 59.3265C484.346 57.7624 481.398 56.9803 478.03 56.9803C474.726 56.9803 471.779 57.7624 469.188 59.3265C466.661 60.8905 464.653 63.0737 463.163 65.876C461.738 68.6784 461.026 71.9043 461.026 75.5538C461.026 79.2033 461.738 82.4292 463.163 85.2315C464.653 88.0339 466.661 90.217 469.188 91.7811C471.779 93.3452 474.726 94.1272 478.03 94.1272Z" fill="white"/>
<path d="M540.132 101.557C535.662 101.557 531.646 100.449 528.083 98.233C524.585 96.0172 521.832 92.9542 519.824 89.044C517.816 85.0686 516.812 80.5719 516.812 75.5538C516.812 70.7312 517.881 66.3648 520.019 62.4546C522.221 58.4793 525.168 55.3511 528.861 53.0701C532.553 50.724 536.634 49.551 541.104 49.551C544.796 49.551 548.165 50.4633 551.209 52.2881C554.318 54.1129 556.812 56.6871 558.691 60.0108L558.885 51.115H566.95V99.9925H558.885L558.691 91.0968C556.748 94.4205 554.189 96.9947 551.015 98.8195C547.841 100.644 544.213 101.557 540.132 101.557ZM542.27 94.1272C545.638 94.1272 548.586 93.3452 551.112 91.7811C553.638 90.217 555.614 88.0339 557.039 85.2315C558.529 82.4292 559.274 79.2033 559.274 75.5538C559.274 71.9043 558.529 68.6784 557.039 65.876C555.614 63.0737 553.638 60.8905 551.112 59.3265C548.586 57.7624 545.638 56.9803 542.27 56.9803C538.966 56.9803 536.019 57.7624 533.428 59.3265C530.901 60.8905 528.893 63.0737 527.403 65.876C525.978 68.6784 525.266 71.9043 525.266 75.5538C525.266 79.2033 525.978 82.4292 527.403 85.2315C528.893 88.0339 530.901 90.217 533.428 91.7811C536.019 93.3452 538.966 94.1272 542.27 94.1272Z" fill="white"/>
<path d="M603.789 101.557C598.283 101.557 594.234 100.09 591.643 97.1577C589.052 94.1598 587.757 89.5002 587.757 83.1787V58.2512H576.68V51.115H587.757V37.0383H596.016V51.115H613.02V58.2512H596.016V82.4944C596.016 86.6653 596.729 89.6957 598.154 91.5856C599.643 93.4104 602.008 94.3228 605.247 94.3228C608.356 94.3228 611.563 93.4755 614.866 91.7811L615.838 98.7217C614.348 99.6341 612.534 100.318 610.397 100.775C608.324 101.296 606.121 101.557 603.789 101.557Z" fill="white"/>
<path d="M646.503 101.557C642.033 101.557 638.017 100.449 634.454 98.233C630.956 96.0172 628.203 92.9542 626.195 89.044C624.187 85.0686 623.183 80.5719 623.183 75.5538C623.183 70.7312 624.252 66.3648 626.39 62.4546C628.592 58.4793 631.539 55.3511 635.232 53.0701C638.924 50.724 643.005 49.551 647.475 49.551C651.167 49.551 654.536 50.4633 657.58 52.2881C660.689 54.1129 663.183 56.6871 665.062 60.0108L665.256 51.115H673.321V99.9925H665.256L665.062 91.0968C663.119 94.4205 660.56 96.9947 657.386 98.8195C654.212 100.644 650.584 101.557 646.503 101.557ZM648.641 94.1272C652.009 94.1272 654.957 93.3452 657.483 91.7811C660.009 90.217 661.985 88.0339 663.41 85.2315C664.9 82.4292 665.645 79.2033 665.645 75.5538C665.645 71.9043 664.9 68.6784 663.41 65.876C661.985 63.0737 660.009 60.8905 657.483 59.3265C654.957 57.7624 652.009 56.9803 648.641 56.9803C645.337 56.9803 642.39 57.7624 639.799 59.3265C637.272 60.8905 635.264 63.0737 633.774 65.876C632.349 68.6784 631.637 71.9043 631.637 75.5538C631.637 79.2033 632.349 82.4292 633.774 85.2315C635.264 88.0339 637.272 90.217 639.799 91.7811C642.39 93.3452 645.337 94.1272 648.641 94.1272Z" fill="white"/>
<path fill-rule="evenodd" clip-rule="evenodd" d="M121.456 28.1248L121.424 28.0073C120.749 25.4887 119.467 23.1765 117.691 21.2752C115.916 19.3738 113.703 17.942 111.246 17.1061L111.159 17.0765L57.7882 0.581181L57.7697 0.575362C56.3474 0.130248 54.8587 -0.0589928 53.3717 0.0159792C49.6848 0.11647 46.133 1.44124 43.2712 3.78586L43.1088 3.91884L4.72094 39.7128L4.65474 39.7782C2.81025 41.5985 1.4463 43.8531 0.68653 46.3377C-0.0732373 48.8223 -0.204785 51.4584 0.303818 54.0071L0.321767 54.097L12.8288 108.816L12.8627 108.941C13.542 111.454 14.8252 113.761 16.5992 115.658C18.3733 117.554 20.5837 118.983 23.0357 119.818L23.1151 119.845L73.0034 135.414L73.0175 135.418C74.4594 135.872 75.9698 136.063 77.4776 135.982C81.1358 135.888 84.6649 134.593 87.5254 132.292L87.7108 132.143L128.842 93.8232L128.977 93.6821C130.756 91.8145 132.068 89.547 132.803 87.0676C133.538 84.5882 133.676 81.9683 133.203 79.4249L133.178 79.2894L121.456 28.1248ZM120.247 84.1479L94.2062 90.1546C93.413 90.3538 92.5736 90.2284 91.8722 89.8058C91.1708 89.3833 90.6646 88.6982 90.4647 87.9008L79.4221 39.5774C79.2237 38.7838 79.3458 37.9435 79.7617 37.2402C80.1776 36.5369 80.8534 36.0279 81.6414 35.8245L107.672 29.8178C108.465 29.6186 109.304 29.7441 110.006 30.1666C110.707 30.5891 111.213 31.2742 111.413 32.0717L122.488 80.3951C122.605 80.7898 122.639 81.2046 122.587 81.6132C122.536 82.0218 122.401 82.4151 122.19 82.7681C121.979 83.1212 121.697 83.4262 121.363 83.6637C121.029 83.9013 120.649 84.0662 120.247 84.1479ZM116.807 90.6076L85.2337 120.016C84.0329 121.224 83.4325 120.771 83.8828 119.121L90.4654 97.8113C90.761 96.9303 91.2725 96.1385 91.9527 95.509C92.6329 94.8794 93.4598 94.4325 94.3571 94.2094L116.056 89.2488C117.697 88.6556 117.997 89.3997 116.807 90.6076ZM74.9096 125.117L27.6304 110.418C26.8406 110.176 26.1778 109.63 25.7862 108.899C25.3947 108.168 25.3061 107.311 25.5399 106.514L33.409 81.0528C33.6431 80.2492 34.1837 79.5714 34.9128 79.1673C35.6419 78.7632 36.5003 78.6657 37.3007 78.896L84.5798 93.4545C84.9758 93.5687 85.3454 93.7603 85.6676 94.0184C85.9898 94.2766 86.2582 94.5961 86.4574 94.9588C86.6566 95.3214 86.7826 95.7201 86.8284 96.1318C86.8741 96.5436 86.8387 96.9604 86.724 97.3583L78.8012 122.873C78.5226 123.651 77.9782 124.303 77.2652 124.714C76.5523 125.125 75.7173 125.268 74.9096 125.117ZM21.9474 100.41L12.3629 58.1906C11.8805 56.5407 12.6631 56.1956 13.7138 57.4358L28.8302 73.8491C29.4236 74.5696 29.8403 75.4203 30.047 76.3325C30.2537 77.2447 30.2446 78.1929 30.0203 79.1009L23.4376 100.41C23.0195 102.06 22.2476 102.06 21.9474 100.41ZM13.1135 46.781L49.3287 13.0592C49.6209 12.7756 49.9662 12.5532 50.3446 12.405C50.723 12.2567 51.1269 12.1856 51.5328 12.1956C51.9387 12.2056 52.3386 12.2967 52.7093 12.4634C53.08 12.6302 53.414 12.8694 53.6921 13.167L71.7675 32.8587C72.3137 33.4521 72.6044 34.2386 72.5763 35.0467C72.5481 35.8548 72.2035 36.6189 71.6174 37.1724L35.413 70.948C34.8154 71.5033 34.0242 71.799 33.2111 71.7707C32.3981 71.7424 31.629 71.3925 31.071 70.7971L12.9634 51.0946C12.4225 50.4987 12.1353 49.7134 12.1633 48.907C12.1914 48.1006 12.5325 47.3373 13.1135 46.781ZM86.5841 87.2431C87.0237 88.9578 85.9838 89.8529 84.3327 89.4L39.7446 75.5964C38.1043 75.1434 37.8041 73.7954 39.0048 72.5984L73.1187 40.7207C74.3087 39.5237 75.6595 39.9766 76.1098 41.6265L86.5841 87.2431ZM60.8431 13.0595L102.14 25.7739C103.791 26.216 103.791 26.9709 102.194 27.4239L80.4945 32.3737C79.5852 32.5613 78.6444 32.527 77.7509 32.2737C76.8575 32.0204 76.0373 31.5555 75.3592 30.9179L60.2428 14.5585C58.9026 13.2105 59.2028 12.6065 60.8431 13.0595Z" fill="white"/>
</svg>
