<svg width="257" height="45" viewBox="0 0 257 45" fill="none" xmlns="http://www.w3.org/2000/svg">
<g clip-path="url(#clip0_316_561)">
<path d="M63.0114 35.0001V4.40662H66.2218V23.6692L74.871 16.1152H79.0257L69.3567 24.4246L80.5365 35.0001H76.1552L66.2218 25.4821V35.0001H63.0114Z" fill="#020A47"/>
<path d="M91.5201 35.6044C89.7827 35.6044 88.2215 35.1763 86.8367 34.3202C85.4769 33.4641 84.4068 32.2807 83.6262 30.7699C82.8457 29.2339 82.4554 27.4965 82.4554 25.5577C82.4554 23.6943 82.8708 22.0073 83.7018 20.4965C84.5579 18.9605 85.7036 17.7519 87.1388 16.8706C88.5741 15.9641 90.1604 15.5109 91.8978 15.5109C93.333 15.5109 94.6424 15.8634 95.8258 16.5685C97.0345 17.2735 98.0039 18.2681 98.7341 19.5523L98.8097 16.1152H101.945V35.0001H98.8097L98.7341 31.563C97.9787 32.8472 96.9841 33.8418 95.7503 34.5468C94.5165 35.2519 93.1064 35.6044 91.5201 35.6044ZM92.351 32.7339C93.6604 32.7339 94.8061 32.4317 95.7881 31.8274C96.7701 31.2231 97.5381 30.3796 98.092 29.2969C98.6712 28.2141 98.9607 26.9677 98.9607 25.5577C98.9607 24.1476 98.6712 22.9012 98.092 21.8185C97.5381 20.7357 96.7701 19.8922 95.7881 19.2879C94.8061 18.6836 93.6604 18.3814 92.351 18.3814C91.0669 18.3814 89.9212 18.6836 88.914 19.2879C87.932 19.8922 87.1514 20.7357 86.5723 21.8185C86.0183 22.9012 85.7413 24.1476 85.7413 25.5577C85.7413 26.9677 86.0183 28.2141 86.5723 29.2969C87.1514 30.3796 87.932 31.2231 88.914 31.8274C89.9212 32.4317 91.0669 32.7339 92.351 32.7339Z" fill="#020A47"/>
<path d="M108.748 44.2537V16.1152H111.77L111.845 19.7789C112.575 18.394 113.57 17.3364 114.829 16.6062C116.088 15.876 117.536 15.5109 119.173 15.5109C120.935 15.5109 122.496 15.939 123.856 16.7951C125.216 17.6512 126.286 18.8346 127.066 20.3454C127.847 21.8562 128.237 23.5936 128.237 25.5577C128.237 27.421 127.809 29.1206 126.953 30.6566C126.122 32.1673 124.989 33.376 123.554 34.2825C122.144 35.1637 120.557 35.6044 118.795 35.6044C117.309 35.6044 115.975 35.2645 114.791 34.5846C113.633 33.8796 112.689 32.885 111.959 31.6008V44.2537H108.748ZM118.342 32.7339C119.651 32.7339 120.797 32.4317 121.779 31.8274C122.761 31.2231 123.529 30.3796 124.083 29.2969C124.662 28.2141 124.951 26.9677 124.951 25.5577C124.951 24.1476 124.662 22.9012 124.083 21.8185C123.529 20.7357 122.761 19.8922 121.779 19.2879C120.797 18.6836 119.651 18.3814 118.342 18.3814C117.057 18.3814 115.912 18.6836 114.905 19.2879C113.923 19.8922 113.142 20.7357 112.563 21.8185C112.009 22.9012 111.732 24.1476 111.732 25.5577C111.732 26.9677 112.009 28.2141 112.563 29.2969C113.142 30.3796 113.923 31.2231 114.905 31.8274C115.912 32.4317 117.057 32.7339 118.342 32.7339Z" fill="#020A47"/>
<path d="M141.646 35.6044C139.909 35.6044 138.348 35.1763 136.963 34.3202C135.603 33.4641 134.533 32.2807 133.752 30.7699C132.972 29.2339 132.581 27.4965 132.581 25.5577C132.581 23.6943 132.997 22.0073 133.828 20.4965C134.684 18.9605 135.83 17.7519 137.265 16.8706C138.7 15.9641 140.286 15.5109 142.024 15.5109C143.459 15.5109 144.768 15.8634 145.952 16.5685C147.16 17.2735 148.13 18.2681 148.86 19.5523L148.936 16.1152H152.071V35.0001H148.936L148.86 31.563C148.105 32.8472 147.11 33.8418 145.876 34.5468C144.642 35.2519 143.232 35.6044 141.646 35.6044ZM142.477 32.7339C143.786 32.7339 144.932 32.4317 145.914 31.8274C146.896 31.2231 147.664 30.3796 148.218 29.2969C148.797 28.2141 149.087 26.9677 149.087 25.5577C149.087 24.1476 148.797 22.9012 148.218 21.8185C147.664 20.7357 146.896 19.8922 145.914 19.2879C144.932 18.6836 143.786 18.3814 142.477 18.3814C141.193 18.3814 140.047 18.6836 139.04 19.2879C138.058 19.8922 137.277 20.7357 136.698 21.8185C136.144 22.9012 135.867 24.1476 135.867 25.5577C135.867 26.9677 136.144 28.2141 136.698 29.2969C137.277 30.3796 138.058 31.2231 139.04 31.8274C140.047 32.4317 141.193 32.7339 142.477 32.7339Z" fill="#020A47"/>
<path d="M167.826 35.4911C165.736 35.4911 163.923 35.0882 162.387 34.2825C160.851 33.4767 159.655 32.3436 158.799 30.8832C157.968 29.3976 157.552 27.6602 157.552 25.671C157.552 23.6818 157.98 21.9318 158.836 20.421C159.692 18.9102 160.888 17.7393 162.424 16.9084C163.96 16.0523 165.748 15.6242 167.788 15.6242C168.77 15.6242 169.752 15.7501 170.734 16.0019C171.716 16.2537 172.597 16.5936 173.378 17.0217L172.924 19.7789C172.219 19.4012 171.388 19.099 170.432 18.8724C169.475 18.6206 168.594 18.4947 167.788 18.4947C165.698 18.4947 164.011 19.1368 162.727 20.421C161.468 21.68 160.838 23.3796 160.838 25.5199C160.838 27.7357 161.48 29.4731 162.764 30.7321C164.049 31.9911 165.799 32.6206 168.014 32.6206C168.845 32.6206 169.689 32.5199 170.545 32.3184C171.426 32.117 172.37 31.8022 173.378 31.3742L173.755 34.0558C172.95 34.5091 172.018 34.8616 170.96 35.1134C169.928 35.3652 168.883 35.4911 167.826 35.4911Z" fill="#020A47"/>
<path d="M180.821 11.0541C180.191 11.0541 179.662 10.8401 179.234 10.412C178.831 9.98394 178.63 9.44258 178.63 8.7879C178.63 8.13323 178.831 7.59186 179.234 7.16381C179.662 6.73575 180.191 6.52172 180.821 6.52172C181.475 6.52172 182.004 6.73575 182.407 7.16381C182.81 7.59186 183.011 8.13323 183.011 8.7879C183.011 9.44258 182.81 9.98394 182.407 10.412C182.004 10.8401 181.475 11.0541 180.821 11.0541ZM179.234 35.0001V16.1152H182.445V35.0001H179.234Z" fill="#020A47"/>
<path d="M196.746 35.6044C194.606 35.6044 193.032 35.0378 192.025 33.9048C191.018 32.7465 190.514 30.9461 190.514 28.5037V18.8724H186.208V16.1152H190.514V10.6764H193.725V16.1152H200.334V18.8724H193.725V28.2393C193.725 29.8508 194.002 31.0217 194.556 31.7519C195.135 32.4569 196.054 32.8094 197.313 32.8094C198.521 32.8094 199.768 32.4821 201.052 31.8274L201.43 34.5091C200.851 34.8616 200.145 35.126 199.315 35.3022C198.509 35.5037 197.653 35.6044 196.746 35.6044Z" fill="#020A47"/>
<path d="M214.18 35.6044C212.292 35.6044 210.605 35.1637 209.119 34.2825C207.634 33.4012 206.45 32.2051 205.569 30.6943C204.713 29.1835 204.285 27.4713 204.285 25.5577C204.285 23.6692 204.725 21.9695 205.607 20.4587C206.488 18.948 207.671 17.7519 209.157 16.8706C210.668 15.9641 212.342 15.5109 214.18 15.5109C216.069 15.5109 217.756 15.9516 219.242 16.8328C220.752 17.7141 221.936 18.9102 222.792 20.421C223.648 21.9318 224.076 23.644 224.076 25.5577C224.076 27.421 223.635 29.1206 222.754 30.6566C221.873 32.1673 220.677 33.376 219.166 34.2825C217.68 35.1637 216.019 35.6044 214.18 35.6044ZM214.18 32.7339C215.49 32.7339 216.635 32.4317 217.617 31.8274C218.6 31.2231 219.367 30.3796 219.921 29.2969C220.501 28.2141 220.79 26.9677 220.79 25.5577C220.79 24.1476 220.501 22.9012 219.921 21.8185C219.367 20.7357 218.6 19.8922 217.617 19.2879C216.635 18.6836 215.49 18.3814 214.18 18.3814C212.896 18.3814 211.751 18.6836 210.743 19.2879C209.761 19.8922 208.981 20.7357 208.402 21.8185C207.848 22.9012 207.571 24.1476 207.571 25.5577C207.571 26.9677 207.848 28.2141 208.402 29.2969C208.981 30.3796 209.761 31.2231 210.743 31.8274C211.751 32.4317 212.896 32.7339 214.18 32.7339Z" fill="#020A47"/>
<path d="M229.545 35.0001V16.1152H232.566L232.604 20.0433C233.133 18.7339 233.901 17.7141 234.908 16.9839C235.915 16.2285 237.061 15.8508 238.345 15.8508C238.723 15.8508 239.126 15.8886 239.554 15.9641C240.007 16.0397 240.347 16.1404 240.574 16.2663L240.234 19.2879C239.906 19.162 239.541 19.0613 239.138 18.9857C238.735 18.885 238.345 18.8346 237.967 18.8346C236.356 18.8346 235.084 19.439 234.153 20.6476C233.221 21.8562 232.755 23.5433 232.755 25.7087V35.0001H229.545Z" fill="#020A47"/>
<path fill-rule="evenodd" clip-rule="evenodd" d="M32.3034 30.6373L42.5565 28.2865C42.7145 28.2545 42.8641 28.19 42.9958 28.097C43.1274 28.004 43.2383 27.8847 43.3213 27.7465C43.4043 27.6083 43.4576 27.4544 43.4778 27.2945C43.498 27.1346 43.4847 26.9723 43.4387 26.8178L39.0783 7.90599C38.9996 7.59391 38.8003 7.32578 38.5241 7.16042C38.2479 6.99507 37.9174 6.94597 37.6051 7.02392L27.3562 9.3747C27.046 9.4543 26.7799 9.6535 26.6162 9.92873C26.4524 10.204 26.4043 10.5328 26.4825 10.8434L30.8302 29.7552C30.9089 30.0673 31.1082 30.3354 31.3844 30.5008C31.6606 30.6661 31.9911 30.7152 32.3034 30.6373Z" fill="#020A47"/>
<path fill-rule="evenodd" clip-rule="evenodd" d="M28.7703 42.3236L41.2015 30.8145C41.67 30.3418 41.5518 30.0506 40.906 30.2827L32.3624 32.2241C32.0091 32.3114 31.6835 32.4863 31.4157 32.7327C31.1479 32.9791 30.9465 33.289 30.8302 33.6338L28.2384 41.9733C28.0611 42.6191 28.2975 42.7963 28.7703 42.3236Z" fill="#020A47"/>
<path fill-rule="evenodd" clip-rule="evenodd" d="M6.09025 38.5674L24.7054 44.3199C25.0234 44.3791 25.3522 44.3233 25.6329 44.1625C25.9136 44.0017 26.1279 43.7463 26.2377 43.442L29.3571 33.4565C29.4022 33.3007 29.4162 33.1376 29.3982 32.9765C29.3802 32.8153 29.3305 32.6593 29.2521 32.5174C29.1737 32.3755 29.068 32.2504 28.9411 32.1494C28.8143 32.0483 28.6687 31.9734 28.5128 31.9287L9.8977 26.2311C9.58257 26.1409 9.24458 26.1791 8.95751 26.3373C8.67043 26.4954 8.45759 26.7607 8.36543 27.0752L5.26713 37.0396C5.1751 37.3514 5.20997 37.6868 5.36413 37.9729C5.5183 38.2591 5.77927 38.4728 6.09025 38.5674Z" fill="#020A47"/>
<path fill-rule="evenodd" clip-rule="evenodd" d="M0.0792906 18.1278L3.85297 34.6509C3.97116 35.2966 4.27508 35.2966 4.43971 34.6509L7.03148 26.3113C7.1198 25.9559 7.12341 25.5848 7.04203 25.2278C6.96064 24.8708 6.79654 24.5379 6.56293 24.2559L0.611152 17.8324C0.197482 17.3471 -0.11066 17.4821 0.0792906 18.1278Z" fill="#020A47"/>
<path fill-rule="evenodd" clip-rule="evenodd" d="M14.6338 0.465288L0.374854 13.6626C0.146094 13.8803 0.0117872 14.179 0.000739528 14.4946C-0.0103081 14.8102 0.102784 15.1176 0.315758 15.3508L7.44523 23.0615C7.66493 23.2946 7.96774 23.4315 8.28786 23.4426C8.60797 23.4536 8.91951 23.3379 9.15479 23.1206L23.4095 9.90219C23.6403 9.68559 23.776 9.38654 23.787 9.07028C23.7981 8.75402 23.6836 8.44622 23.4686 8.21402L16.3518 0.507492C16.2423 0.390994 16.1108 0.297397 15.9649 0.232135C15.8189 0.166872 15.6614 0.131244 15.5016 0.127317C15.3418 0.123391 15.1828 0.151245 15.0338 0.209263C14.8848 0.26728 14.7489 0.354306 14.6338 0.465288Z" fill="#020A47"/>
<path fill-rule="evenodd" clip-rule="evenodd" d="M28.4158 30.3419C29.0659 30.5191 29.4753 30.1688 29.3022 29.4978L25.1782 11.6453C25.0009 10.9996 24.4691 10.8223 24.0005 11.2908L10.5689 23.7664C10.0962 24.2349 10.2143 24.7624 10.8602 24.9397L28.4158 30.3419Z" fill="#020A47"/>
<path fill-rule="evenodd" clip-rule="evenodd" d="M35.427 5.44126L19.1672 0.465355C18.5214 0.288096 18.4032 0.524441 18.9309 1.052L24.8826 7.45441C25.1496 7.70395 25.4725 7.8859 25.8243 7.98503C26.1761 8.08415 26.5465 8.09758 26.9046 8.02417L35.4481 6.08698C36.077 5.90972 36.077 5.61429 35.427 5.44126Z" fill="#020A47"/>
<path d="M247.623 9.93012V5.91312H246.128V5.12012H250.028V5.91312H248.546V9.93012H247.623ZM250.86 9.93012L251.107 5.12012H252.004L253.473 8.17512L254.968 5.12012H255.865L256.112 9.93012H255.293L255.137 6.36812L253.811 9.09812H253.161L251.822 6.34212L251.679 9.93012H250.86Z" fill="#020A47"/>
</g>
<defs>
<clipPath id="clip0_316_561">
<rect width="257" height="45" fill="white"/>
</clipPath>
</defs>
</svg>
