<?xml version="1.0" encoding="utf-8"?>
<!-- Generator: Adobe Illustrator 21.1.0, SVG Export Plug-In . SVG Version: 6.00 Build 0)  -->
<svg version="1.1" id="Layer_1" xmlns="http://www.w3.org/2000/svg" xmlns:xlink="http://www.w3.org/1999/xlink" x="0px" y="0px"
	 width="900px" height="900px" viewBox="0 0 900 900" style="enable-background:new 0 0 900 900;" xml:space="preserve">
<style type="text/css">
	.st0{fill:#FFFFFF;}
	.st1{fill:#292933;}
</style>
<rect class="st0" width="900" height="900"/>
<g>
	<g>
		<path class="st1" d="M261.6,470l-15.9-69.2c-0.6-2.8-3.5-5.8-6.3-6.7l-72.6-22.4c-2.8-0.9-6.8,0-8.9,2L106,422
			c-2.2,2-3.3,6-2.8,8.7l16.9,74c0.6,2.8,3.5,5.8,6.3,6.7l67.8,20.9c2.8,0.9,6.8,0,8.9-2l55.7-51.6
			C261.2,476.8,262.3,472.9,261.6,470z M175.5,387.5l48.4,14.8c1.9,0.6,1.9,1.5,0,1.9l-25.5,5.8c-1.9,0.4-4.7-0.4-6-1.9L174.6,389
			C173,387.6,173.6,386.9,175.5,387.5z M193.4,421.1l12.2,53.4c0.4,1.9-0.7,3.1-2.6,2.5l-52.2-16.1c-1.9-0.6-2.2-2.2-0.9-3.5
			l40.1-37.2C191.5,418.8,193,419.2,193.4,421.1z M119.5,426.9l42.5-39.4c1.5-1.3,3.8-1.3,5.1,0.1l21.4,23c1.3,1.5,1.3,3.8-0.1,5.1
			l-42.5,39.4c-1.5,1.3-3.8,1.3-5.1-0.1l-21.4-23C117.9,430.5,118.1,428.2,119.5,426.9z M129.8,489.7l-11.3-49.3
			c-0.4-1.9,0.3-2.3,1.6-0.9l17.9,19.2c1.3,1.5,2,4.2,1.5,6.1l-7.7,25C131.1,491.6,130.3,491.6,129.8,489.7z M196.4,516.1
			c-0.6,1.9-2.6,2.9-4.5,2.3l-55.4-17c-1.9-0.6-2.9-2.6-2.3-4.5l9.2-30c0.6-1.9,2.6-2.9,4.5-2.3l55.4,17c1.9,0.6,2.9,2.6,2.3,4.5
			L196.4,516.1z M241.1,478.1L204,512.6c-1.5,1.3-2.2,0.9-1.6-1l7.7-25c0.6-1.9,2.6-3.8,4.5-4.2l25.5-5.8
			C242.3,476.1,242.5,476.8,241.1,478.1z M245.2,470.7l-30.5,7c-1.9,0.4-3.9-0.7-4.4-2.8l-12.9-56.4c-0.4-1.9,0.7-3.9,2.8-4.4
			l30.5-7c1.9-0.4,3.9,0.7,4.4,2.8l12.9,56.4C248.4,468.4,247.1,470.3,245.2,470.7z"/>
		<g>
			<g>
				<path class="st1" d="M346.4,439.9l-6.3,34.9c-0.1,0.7-0.3,1.5-0.3,1.9c0,1,0.6,1.5,2,1.5c3.5,0,7.3-1.5,10.9-2.9l4.1,14.1
					c-5.8,3.2-14.1,5.8-22.3,5.8c-10.2,0-15.7-4.9-15.7-13.2c0-1,0.1-2,0.3-3.1l6.8-39h-10.3l2.9-16.3h10.3l2.9-16.9l20.8-2.9
					l-3.5,19.6h16.7l-4.1,16.3h-15.4L346.4,439.9L346.4,439.9z"/>
				<path class="st1" d="M371.1,448.7c2.9-16.1,10-26.5,32.3-26.5c13.2,0,23.3,5.8,23.3,17.6c0,13.7-7,19.9-24.3,25.2
					c-8.4,2.6-8.6,2.6-14.7,4.2l-0.9,4.9c-0.4,2.6-0.1,4.9,3.6,4.9c7.3,0,18-3.6,27.5-7.7l3.9,14.4c-8.4,5.4-21.8,9.6-34.2,9.6
					c-14.5,0-20.7-6.4-20.7-18.3c0-2.6,0.3-5.5,0.9-8.4L371.1,448.7z M407.9,441.9c0-2.5-2.2-4.1-6-4.1c-7.3,0-9.5,4.2-10.5,9.9
					l-0.9,4.9c3.5-0.9,5.1-1.2,9.2-2.5C405.3,448.7,407.9,446.1,407.9,441.9z"/>
				<path class="st1" d="M448.8,395.1l20.8-2.9l-17.9,101.5h-20.2L448.8,395.1z"/>
				<path class="st1" d="M474.5,448.7c2.9-16.1,10-26.5,32.3-26.5c13.2,0,23.3,5.8,23.3,17.6c0,13.7-7,19.9-24.3,25.2
					c-8.4,2.6-8.6,2.6-14.7,4.2l-0.9,4.9c-0.4,2.6-0.1,4.9,3.6,4.9c7.3,0,18-3.6,27.5-7.7l3.9,14.4c-8.4,5.4-21.8,9.6-34.2,9.6
					c-14.5,0-20.7-6.4-20.7-18.3c0-2.6,0.3-5.5,0.9-8.4L474.5,448.7z M511.3,441.9c0-2.5-2.2-4.1-6-4.1c-7.3,0-9.5,4.2-10.5,9.9
					l-0.9,4.9c3.5-0.9,5.1-1.2,9.2-2.5C508.7,448.7,511.3,446.1,511.3,441.9z"/>
				<path class="st1" d="M574.1,486.2c-6,3.5-12.8,6.1-20.4,6.1c-15.3,0-19.1-9.3-16.3-25l2.9-16c3.2-17.7,7.6-29.1,37.5-29.1
					c7.3,0,18.3,1.3,27.2,4.2l-13.8,77.7c-2.8,15.7-9.5,19.5-28.2,19.5c-8.3,0-22.5-2.6-31.3-5.5l3.6-14.3
					c10.8,2.6,19.5,4.1,27.9,4.1c6.1,0,7.4-2.3,8.3-7L574.1,486.2z M557.3,469.8c-0.7,3.8,0.3,5.5,3.9,5.5c4.5,0,11.6-2.9,15.9-5.5
					l5.4-30.2c-2.5-0.3-5.1-0.4-7.9-0.4c-10.5,0-12.5,5.2-13.8,11.9L557.3,469.8z"/>
				<path class="st1" d="M658.3,440.6c-8.9,4.9-12.2,6.7-20.2,11.8l-7.3,41.3h-20.2l11.9-68.4l17.9-3.1l-0.4,9.5
					c6.7-4.1,12.2-6.8,18.3-9.5L658.3,440.6z"/>
				<path class="st1" d="M698.5,493.7l-0.6-6.1c-4.9,3.8-12.2,7.4-22.3,7.4c-15.3,0-18.3-9.2-15.6-24.9l3.3-18.9
					c2.9-16.7,9.5-29.1,37.1-29.1c7.3,0,17,1.3,26.8,4.4l-11.6,67h-17.2V493.7z M680.1,472.4c-0.6,3.8,0.3,5.2,3.9,5.2
					c5.2,0,10.8-3.1,15.4-6.8l5.4-30.4c-2.8-0.6-5.8-0.7-7.9-0.7c-10.5,0-11.8,5.2-13.1,11.9L680.1,472.4z"/>
				<path class="st1" d="M727.1,511.4c7-7.1,8-10.9,9.2-17.7l9.5-53.5h-10l2.9-16.6h10l1.7-9.2c2.9-15.6,8.3-22.3,25.3-22.3
					c5.8,0,12.5,1,18,3.1l-4.2,16c-3.2-1.2-8.7-2.2-11.9-2.2c-4.7,0-6.1,1.2-6.7,4.8l-1.9,9.9h18.2l-4.4,16.6h-16.7l-9.7,55.8
					c-1.7,9.7-5.2,16.7-16.1,27.5L727.1,511.4z"/>
			</g>
		</g>
	</g>
	<g>
		<path class="st1" d="M813.9,399.4h-1.7l1.5-8.1h-2.8l0.3-1.6h7.3l-0.3,1.6h-2.8L813.9,399.4z"/>
		<path class="st1" d="M826.7,393.2l-2.8,4.9h-1.9l-0.9-4.9l-1.5,6.3h-1.9l2.2-9.7h1.9l1.3,6.5l3.6-6.5h2l-1.2,9.7H826L826.7,393.2z
			"/>
	</g>
</g>
</svg>
