<?xml version="1.0" encoding="utf-8"?>
<!-- Generator: Adobe Illustrator 19.1.0, SVG Export Plug-In . SVG Version: 6.00 Build 0)  -->
<svg version="1.1" id="Layer_1" xmlns="http://www.w3.org/2000/svg" xmlns:xlink="http://www.w3.org/1999/xlink" x="0px" y="0px"
	 viewBox="-383 211 672 480" style="enable-background:new -383 211 672 480;" xml:space="preserve">
<style type="text/css">
	.st0{fill:#FFFFFF;}
	.st1{fill:#757888;}
	.st2{fill:none;stroke:#22ADF6;stroke-width:2;stroke-miterlimit:10;}
	.st3{fill:#22ADF6;}
	.st4{fill:#7A65F2;}
	.st5{fill:none;stroke:#7A65F2;stroke-width:2;stroke-miterlimit:10;}
</style>
<rect x="-383" y="211" class="st0" width="672" height="480"/>
<g>
	<path class="st1" d="M-191.3,460.6l-8.8-38.3c-0.5-2.1-2.4-4.2-4.5-4.8l-40.2-12.4c-0.5-0.2-1.1-0.2-1.7-0.2
		c-1.7,0-3.5,0.7-4.7,1.7l-28.8,26.8c-1.6,1.4-2.4,4.2-1.9,6.2l9.4,41c0.5,2.1,2.4,4.2,4.5,4.8l37.6,11.6c0.5,0.2,1.1,0.2,1.7,0.2
		c1.7,0,3.5-0.7,4.7-1.7l30.8-28.6C-191.6,465.4-190.8,462.7-191.3,460.6z M-240.6,414.2l27.6,8.5c1.1,0.3,1.1,0.8,0,1.1l-14.5,3.3
		c-1.1,0.3-2.6-0.2-3.4-1l-10.1-10.9C-241.9,414.3-241.7,413.9-240.6,414.2z M-223.4,463.7c0.3,1.1-0.4,1.7-1.5,1.4l-29.8-9.2
		c-1.1-0.3-1.3-1.2-0.5-2l22.8-21.2c0.8-0.8,1.7-0.5,2,0.6L-223.4,463.7z M-272.5,436.7l24.2-22.5c0.8-0.8,2.1-0.7,2.9,0.1
		l12.1,13.1c0.8,0.8,0.7,2.1-0.1,2.9l-24.2,22.5c-0.8,0.8-2.1,0.7-2.9-0.1l-12.1-13.1C-273.4,438.7-273.3,437.4-272.5,436.7z
		 M-266.6,472.4l-6.4-28.1c-0.3-1.1,0.2-1.3,0.9-0.5l10.1,10.9c0.8,0.8,1.1,2.4,0.8,3.5l-4.4,14.2
		C-265.9,473.5-266.4,473.5-266.6,472.4z M-231.2,488.8l-31.6-9.7c-1.1-0.3-1.7-1.5-1.4-2.6l5.3-17c0.3-1.1,1.5-1.7,2.6-1.4
		l31.6,9.7c1.1,0.3,1.7,1.5,1.4,2.6l-5.3,17C-229,488.5-230.1,489.1-231.2,488.8z M-203.2,465.8l-21.1,19.6
		c-0.8,0.8-1.2,0.5-0.9-0.6l4.4-14.2c0.3-1.1,1.5-2.2,2.6-2.4l14.5-3.3C-202.6,464.6-202.4,465.1-203.2,465.8z M-200.9,461.6
		l-17.4,4c-1.1,0.3-2.2-0.4-2.5-1.5l-7.4-32.2c-0.3-1.1,0.4-2.2,1.5-2.5l17.4-4c1.1-0.3,2.2,0.4,2.5,1.5l7.4,32.2
		C-199.1,460.3-199.8,461.4-200.9,461.6z"/>
	<g>
		<path class="st1" d="M68.7,474.1c-0.1,1,0.3,1.2,0.7,1.2h2.4c0.9,0,1.1-0.8,1.1-1.2l9.8-55.7c0.2-1-0.5-1.2-1-1.1l0,0l-2.6,0.4
			c-0.7,0.1-1.1,0.7-1.1,1.1l0,0L75.2,435c-2.5-0.8-7.2-1.3-9.9-1.3c-10.4,0-15.4,4-17.3,15.1l-3.1,17.5c-0.2,1.1-0.3,2.1-0.3,3
			c0,5,2.8,6.9,8,6.9c5.9,0,12-2.8,16.7-6.8L68.7,474.1z M53.1,472c-2.5,0-3.8-0.7-3.8-3.3c0-0.7,0.1-1.4,0.3-2.4l2.9-16.7
			c1.6-9.1,4.7-11.7,12.2-11.7c3.3,0,6.5,0.5,9.8,1.3l-4.4,24.7C64.8,468.6,58.3,472,53.1,472z"/>
		<path class="st1" d="M110.1,474.1c-0.1,1,0.3,1.2,0.8,1.2h2.4c0.9,0,1.1-0.8,1.1-1.2l0,0l6.7-37.7c-4.8-1.8-10.3-2.7-14.1-2.7
			c-11,0-15.4,4.4-17.3,15.1l-3.1,17.5c-0.2,1.1-0.3,2.1-0.3,3c0,5,2.8,6.9,8,6.9c5.9,0,11.7-2.8,16.4-6.8L110.1,474.1z M94.7,472
			c-2.5,0-3.8-0.7-3.8-3.3c0-0.7,0.1-1.4,0.3-2.4l2.9-16.7c1.6-9,4.5-11.7,12.2-11.7c3.4,0,7.3,0.7,9.6,1.3l-4.4,24.7
			C106.2,468.6,99.8,472,94.7,472z"/>
		<path class="st1" d="M177,474.1c-0.1,1,0.3,1.2,0.7,1.2h2.4c0.9,0,1.1-0.8,1.1-1.2l0,0l6.7-37.7c-4.8-1.8-10.3-2.7-14.1-2.7
			c-11,0-15.4,4.4-17.3,15.1l-3.1,17.5c-0.2,1.1-0.3,2.1-0.3,3c0,5,2.8,6.9,8,6.9c5.9,0,11.7-2.8,16.4-6.8L177,474.1z M161.7,472
			c-2.5,0-3.8-0.7-3.8-3.3c0-0.7,0.1-1.4,0.3-2.4l2.9-16.7c1.6-9,4.5-11.7,12.2-11.7c3.4,0,7.3,0.7,9.6,1.3l-4.4,24.7
			C173.2,468.6,166.8,472,161.7,472z"/>
		<g>
			<path class="st1" d="M137.6,424.5L137.6,424.5L137.6,424.5z"/>
			<path class="st1" d="M151.6,437.9L151.6,437.9l0.6-2.7c0.2-0.7-0.2-0.7-0.6-0.7h-11.5l1.6-9.4l0,0c0.2-1-0.5-1.2-1-1.1l0,0
				l-2.6,0.4l0,0c-0.7,0.1-1.1,0.7-1.1,1.1l0,0l-1.6,9h-7.1c-0.2,0-0.8,0.1-0.9,0.7l-0.4,2.6l0,0c0,0.2,0,0.7,0.7,0.7h7l-5.4,30.6
				c-0.1,0.6-0.2,1.1-0.2,1.6c0,3.7,2.6,5.4,6.7,5.4c3.2,0,8.9-0.9,11.8-2.3c0.9-0.5,0.8-1.1,0.6-1.5l0,0l-0.6-1.6
				c-0.1-0.4-0.6-0.3-0.9-0.2l0,0c-2.8,1.1-4.4,1.7-10.1,1.7c-1.9,0-2.8-0.4-2.8-2c0-0.4,0.1-0.9,0.2-1.5l5.3-30.1h11.4
				C151.3,438.5,151.5,438.3,151.6,437.9z"/>
		</g>
		<path class="st1" d="M41.4,434.5H29.7c-0.5,0-1.1,0.4-1.4,0.8L20,447.4l-4.9-12.6c-0.3-0.7-0.9-0.9-1.5-0.8l-10.2,1.5l8.8,19.4
			L-4,475.4H7c0.7,0,1.8-0.4,2.3-1l7.6-9.2l4.3,9.2c0.2,0.5,0.9,1,1.6,1h10.7l-8.6-18.9L41.4,434.5z"/>
		<path class="st1" d="M-9,474.6l7-39.9c0.1-0.8-0.5-0.8-1-0.7l-9.8,1.3c-1.1,0.2-1.4,0.9-1.4,1.3l0,0l-4.2,24.2
			c-3,1.5-8.4,3.9-10.6,3.9c-1.2,0-1.6-0.4-1.6-1.3c0-0.3,0.1-0.8,0.2-1.3l4.8-27.5l0,0c0.1-0.8-0.5-0.8-0.9-0.7l-9.8,1.4l0,0
			c-1.1,0.2-1.4,0.9-1.4,1.3l0,0l-4.7,26.6c-0.3,1.7-0.4,3-0.4,4.7c0,5.1,2.1,8.3,7.5,8.3c4.7,0,9.7-1.6,16.1-4.6l0.1,3
			c0,0.2,0.1,0.7,0.5,0.7h9C-9.2,475.3-9,474.9-9,474.6z"/>
		<path class="st1" d="M-106.1,433.7c-4.7,0-9.7,1.6-16.1,4.6l0.1-3.6c0-0.9-0.7-0.8-1.1-0.7l-7.7,1.3l0,0c-1.3,0.2-1.7,1-1.8,1.4
			l-6.4,36.8l0,0c-0.3,1.7-0.2,1.8,1.2,1.8h8.8c1,0,1.5,0,1.8-1.8l4.3-24.5c3.2-1.7,8.4-3.9,10.6-3.9c1.2,0,1.6,0.3,1.6,1.2
			c0,0.3-0.1,0.8-0.2,1.3l-4.5,25.9l0,0c-0.3,1.7-0.2,1.8,1.2,1.8h8.8c1,0,1.5,0,1.8-1.8l4.7-26.8c0.3-2.1,0.4-3.3,0.4-4.7
			C-98.6,436.8-100.6,433.7-106.1,433.7z"/>
		<g>
			<path class="st1" d="M-140,415.9l-9.8,1.4c-1.1,0.1-1.3,0.9-1.4,1.3l-1.8,10.2c-0.2,1.2-0.1,1.2,1,1.1l9.7-1.3l0,0
				c1-0.1,1.2-0.2,1.4-1.5l0,0l1.9-10.6C-138.9,415.8-139.1,415.8-140,415.9z"/>
			<path class="st1" d="M-154.2,435.4L-154.2,435.4L-154.2,435.4z"/>
			<path class="st1" d="M-149.1,473.5L-149.1,473.5l6.9-38.8c0.1-0.8-0.5-0.8-1-0.7l-9.8,1.3l0,0c-1.1,0.2-1.4,0.9-1.4,1.3l0,0
				l-6.6,37.2c-0.2,1.4,0,1.6,1.3,1.6h8.8C-150,475.3-149.5,475.3-149.1,473.5z"/>
		</g>
		<path class="st1" d="M-52.2,473.5l9.9-56.4c0.1-0.8-0.3-0.8-0.8-0.7l-11.3,1.9c-5.1-1.4-10.9-2-14.2-2c-10.5,0-14,3.6-15.7,13
			l-0.9,5.4h-4.6c-1.2,0-1.3,0.6-1.4,1.1l0,0l-1.4,7.8c-0.1,0.3,0.1,0.7,0.6,0.7h5.1l-5.5,31.2c-0.6,3.7-1.2,5.9-4.7,9.6l0,0
			c-0.7,0.7-0.5,0.9,0,1.3l0,0l6.2,5.8l0,0c0.6,0.6,0.9,0.5,1.6-0.2c5.7-5.8,7.5-9.7,8.5-15.1l5.7-32.5h9.1c0.5,0,0.6,0,0.8-0.6l0,0
			l2.1-8.2l0,0c0.2-0.6-0.4-0.8-0.8-0.8h-9.5l1.1-5.9c0.4-2.1,1.3-2.8,3.9-2.8c3.5,0,9.2,0.7,12.4,1.5l-8.1,46.2l0,0
			c-0.3,1.7-0.2,1.8,1.2,1.8h8.8C-53,475.3-52.5,475.3-52.2,473.5z"/>
	</g>
</g>
<g>
	<path class="st2" d="M-252.9,443.7v-93.6c0-3.4,2.7-6.1,6.1-6.1h160.4"/>
</g>
<g>
	<path class="st2" d="M-6.5,344h108.9c3.4,0,6.1,2.7,6.1,6.1v79.9"/>
</g>
<g>
	<path class="st3" d="M-71.3,340.7h-3v8.3h-2.1v-8.3h-3V339h8.1V340.7z"/>
	<path class="st3" d="M-68.4,342.4c0.5-0.6,1.2-0.9,2-0.9c1.6,0,2.4,0.9,2.4,2.8v4.7h-2v-4.7c0-0.4-0.1-0.7-0.3-0.9
		s-0.5-0.3-0.9-0.3c-0.6,0-1,0.2-1.3,0.7v5.3h-2v-10.5h2V342.4z"/>
	<path class="st3" d="M-62.5,339.7c0-0.3,0.1-0.5,0.3-0.7s0.5-0.3,0.8-0.3c0.3,0,0.6,0.1,0.8,0.3s0.3,0.4,0.3,0.7
		c0,0.3-0.1,0.5-0.3,0.7s-0.5,0.3-0.8,0.3s-0.6-0.1-0.8-0.3S-62.5,340-62.5,339.7z M-60.4,349h-2v-7.4h2V349z"/>
	<path class="st3" d="M-56.9,341.6l0.1,0.9c0.5-0.7,1.2-1,2.1-1c0.8,0,1.4,0.2,1.8,0.7s0.6,1.1,0.6,2.1v4.8h-2v-4.7
		c0-0.4-0.1-0.7-0.3-0.9s-0.5-0.3-0.9-0.3c-0.6,0-1,0.2-1.3,0.7v5.2h-2v-7.4H-56.9z"/>
	<path class="st3" d="M-45.2,347.4h4.4v1.6h-6.4v-10h2.1V347.4z"/>
	<path class="st3" d="M-39.9,339.7c0-0.3,0.1-0.5,0.3-0.7s0.5-0.3,0.8-0.3c0.3,0,0.6,0.1,0.8,0.3c0.2,0.2,0.3,0.4,0.3,0.7
		c0,0.3-0.1,0.5-0.3,0.7c-0.2,0.2-0.5,0.3-0.8,0.3c-0.3,0-0.6-0.1-0.8-0.3C-39.8,340.2-39.9,340-39.9,339.7z M-37.8,349h-2v-7.4h2
		V349z"/>
	<path class="st3" d="M-34.3,341.6l0.1,0.9c0.5-0.7,1.2-1,2.1-1c0.8,0,1.4,0.2,1.8,0.7s0.6,1.1,0.6,2.1v4.8h-2v-4.7
		c0-0.4-0.1-0.7-0.3-0.9c-0.2-0.2-0.5-0.3-0.9-0.3c-0.6,0-1,0.2-1.3,0.7v5.2h-2v-7.4H-34.3z"/>
	<path class="st3" d="M-24.9,349.1c-1.1,0-2-0.3-2.6-1c-0.7-0.7-1-1.6-1-2.7v-0.2c0-0.7,0.1-1.4,0.4-2c0.3-0.6,0.7-1,1.2-1.4
		c0.5-0.3,1.1-0.5,1.8-0.5c1,0,1.8,0.3,2.4,1s0.9,1.5,0.9,2.7v0.8h-4.7c0.1,0.5,0.3,0.9,0.6,1.2s0.7,0.4,1.2,0.4
		c0.8,0,1.4-0.3,1.8-0.8l1,1.1c-0.3,0.4-0.7,0.7-1.2,1C-23.7,349-24.3,349.1-24.9,349.1z M-25.1,343.1c-0.4,0-0.7,0.1-1,0.4
		c-0.2,0.3-0.4,0.6-0.5,1.1h2.7v-0.2c0-0.4-0.1-0.8-0.4-1C-24.4,343.2-24.7,343.1-25.1,343.1z"/>
	<path class="st3" d="M-16.7,347c0-0.2-0.1-0.4-0.4-0.6c-0.2-0.1-0.6-0.3-1.2-0.4c-1.8-0.4-2.6-1.1-2.6-2.2c0-0.7,0.3-1.2,0.8-1.6
		c0.5-0.4,1.3-0.7,2.1-0.7c0.9,0,1.7,0.2,2.3,0.7c0.6,0.4,0.8,1,0.8,1.7h-2c0-0.3-0.1-0.5-0.3-0.7c-0.2-0.2-0.5-0.3-0.9-0.3
		c-0.3,0-0.6,0.1-0.8,0.2c-0.2,0.2-0.3,0.3-0.3,0.6c0,0.2,0.1,0.4,0.3,0.5c0.2,0.1,0.6,0.2,1,0.3c0.5,0.1,0.9,0.2,1.2,0.3
		c1,0.4,1.6,1,1.6,2c0,0.7-0.3,1.2-0.9,1.6c-0.6,0.4-1.3,0.6-2.2,0.6c-0.6,0-1.2-0.1-1.7-0.3c-0.5-0.2-0.9-0.5-1.1-0.9
		c-0.3-0.4-0.4-0.8-0.4-1.2h1.9c0,0.4,0.1,0.6,0.4,0.8c0.2,0.2,0.6,0.3,1,0.3c0.4,0,0.7-0.1,0.9-0.2
		C-16.8,347.4-16.7,347.2-16.7,347z"/>
</g>
<g>
	<path class="st4" d="M-74.8,562.7h-3v8.3h-2.1v-8.3h-3V561h8.1V562.7z"/>
	<path class="st4" d="M-71.8,564.4c0.5-0.6,1.2-0.9,2-0.9c1.6,0,2.4,0.9,2.4,2.8v4.7h-2v-4.7c0-0.4-0.1-0.7-0.3-0.9
		s-0.5-0.3-0.9-0.3c-0.6,0-1,0.2-1.3,0.7v5.3h-2v-10.5h2V564.4z"/>
	<path class="st4" d="M-65.9,561.7c0-0.3,0.1-0.5,0.3-0.7s0.5-0.3,0.8-0.3c0.3,0,0.6,0.1,0.8,0.3s0.3,0.4,0.3,0.7
		c0,0.3-0.1,0.5-0.3,0.7s-0.5,0.3-0.8,0.3s-0.6-0.1-0.8-0.3S-65.9,562-65.9,561.7z M-63.8,571h-2v-7.4h2V571z"/>
	<path class="st4" d="M-59.1,569.5c0.4,0,0.7-0.1,0.9-0.3s0.3-0.5,0.4-0.8h1.9c0,0.5-0.1,1-0.4,1.4c-0.3,0.4-0.6,0.7-1.1,1
		c-0.5,0.2-1,0.3-1.5,0.3c-1.1,0-1.9-0.3-2.5-1c-0.6-0.7-0.9-1.6-0.9-2.8v-0.1c0-1.1,0.3-2,0.9-2.7s1.4-1,2.5-1
		c0.9,0,1.7,0.3,2.2,0.8c0.6,0.5,0.8,1.2,0.9,2.1h-1.9c0-0.4-0.1-0.7-0.4-0.9c-0.2-0.2-0.5-0.4-0.9-0.4c-0.5,0-0.8,0.2-1,0.5
		c-0.2,0.3-0.4,0.9-0.4,1.6v0.2c0,0.8,0.1,1.3,0.3,1.6S-59.6,569.5-59.1,569.5z"/>
	<path class="st4" d="M-52.2,568l-0.7,0.7v2.3h-2v-10.5h2v5.8l0.4-0.5l1.9-2.2h2.4l-2.7,3.1l2.9,4.3h-2.3L-52.2,568z"/>
	<path class="st4" d="M-41.8,569.4h4.4v1.6h-6.4v-10h2.1V569.4z"/>
	<path class="st4" d="M-36.4,561.7c0-0.3,0.1-0.5,0.3-0.7s0.5-0.3,0.8-0.3c0.3,0,0.6,0.1,0.8,0.3c0.2,0.2,0.3,0.4,0.3,0.7
		c0,0.3-0.1,0.5-0.3,0.7c-0.2,0.2-0.5,0.3-0.8,0.3c-0.3,0-0.6-0.1-0.8-0.3C-36.3,562.2-36.4,562-36.4,561.7z M-34.3,571h-2v-7.4h2
		V571z"/>
	<path class="st4" d="M-30.8,563.6l0.1,0.9c0.5-0.7,1.2-1,2.1-1c0.8,0,1.4,0.2,1.8,0.7s0.6,1.1,0.6,2.1v4.8h-2v-4.7
		c0-0.4-0.1-0.7-0.3-0.9c-0.2-0.2-0.5-0.3-0.9-0.3c-0.6,0-1,0.2-1.3,0.7v5.2h-2v-7.4H-30.8z"/>
	<path class="st4" d="M-21.4,571.1c-1.1,0-2-0.3-2.6-1c-0.7-0.7-1-1.6-1-2.7v-0.2c0-0.7,0.1-1.4,0.4-2c0.3-0.6,0.7-1,1.2-1.4
		c0.5-0.3,1.1-0.5,1.8-0.5c1,0,1.8,0.3,2.4,1s0.9,1.5,0.9,2.7v0.8h-4.7c0.1,0.5,0.3,0.9,0.6,1.2s0.7,0.4,1.2,0.4
		c0.8,0,1.4-0.3,1.8-0.8l1,1.1c-0.3,0.4-0.7,0.7-1.2,1C-20.2,571-20.8,571.1-21.4,571.1z M-21.6,565.1c-0.4,0-0.7,0.1-1,0.4
		c-0.2,0.3-0.4,0.6-0.5,1.1h2.7v-0.2c0-0.4-0.1-0.8-0.4-1C-20.9,565.2-21.2,565.1-21.6,565.1z"/>
	<path class="st4" d="M-13.2,569c0-0.2-0.1-0.4-0.4-0.6c-0.2-0.1-0.6-0.3-1.2-0.4c-1.8-0.4-2.6-1.1-2.6-2.2c0-0.7,0.3-1.2,0.8-1.6
		c0.5-0.4,1.3-0.7,2.1-0.7c0.9,0,1.7,0.2,2.3,0.7c0.6,0.4,0.8,1,0.8,1.7h-2c0-0.3-0.1-0.5-0.3-0.7c-0.2-0.2-0.5-0.3-0.9-0.3
		c-0.3,0-0.6,0.1-0.8,0.2c-0.2,0.2-0.3,0.3-0.3,0.6c0,0.2,0.1,0.4,0.3,0.5c0.2,0.1,0.6,0.2,1,0.3c0.5,0.1,0.9,0.2,1.2,0.3
		c1,0.4,1.6,1,1.6,2c0,0.7-0.3,1.2-0.9,1.6c-0.6,0.4-1.3,0.6-2.2,0.6c-0.6,0-1.2-0.1-1.7-0.3c-0.5-0.2-0.9-0.5-1.1-0.9
		c-0.3-0.4-0.4-0.8-0.4-1.2h1.9c0,0.4,0.1,0.6,0.4,0.8c0.2,0.2,0.6,0.3,1,0.3c0.4,0,0.7-0.1,0.9-0.2
		C-13.3,569.4-13.2,569.2-13.2,569z"/>
</g>
<path class="st5" d="M-91.6,566h-139.1c-3.3,0-5.9-2.6-5.9-5.9v-61"/>
<path class="st5" d="M-132,481.3v78.8c0,3.3,2.6,5.9,5.9,5.9h20.6"/>
</svg>
