<?xml version="1.0" encoding="utf-8"?>
<!-- Generator: Adobe Illustrator 19.1.0, SVG Export Plug-In . SVG Version: 6.00 Build 0)  -->
<svg version="1.1" id="Layer_1" xmlns="http://www.w3.org/2000/svg" xmlns:xlink="http://www.w3.org/1999/xlink" x="0px" y="0px"
	 viewBox="36 161 672 480" style="enable-background:new 36 161 672 480;" xml:space="preserve">
<style type="text/css">
	.st0{fill:#FFFFFF;}
	.st1{opacity:0.1;}
	.st2{fill:#22ADF6;}
	.st3{fill:none;stroke:#22ADF6;stroke-width:2;stroke-miterlimit:10;}
	.st4{enable-background:new    ;}
	.st5{fill:#FF7D55;}
	.st6{fill:none;stroke:#FF7D55;stroke-width:2;stroke-miterlimit:10;}
	.st7{fill:#757888;}
</style>
<rect x="36" y="161" class="st0" width="672" height="480"/>
<g>
	<g id="Spacing">
		<g class="st1">
			<rect x="61.8" y="285.8" class="st2" width="620.3" height="230.3"/>
		</g>
		<rect x="130.3" y="354.3" class="st0" width="91.9" height="93.3"/>
		<rect x="130.3" y="354.3" class="st3" width="91.9" height="93.3"/>
		<rect x="251.2" y="365.8" class="st0" width="361.9" height="77.1"/>
		<rect x="251.2" y="365.8" class="st3" width="362.4" height="77.1"/>
		<line class="st3" x1="176.2" y1="354.8" x2="176.2" y2="285.8"/>
		<line class="st3" x1="130.8" y1="401" x2="61.8" y2="401"/>
		<line class="st3" x1="176.2" y1="447.2" x2="176.2" y2="516.2"/>
		<line class="st3" x1="613" y1="401" x2="682" y2="401"/>
		<g class="st4">
			<path class="st2" d="M190.8,318.8l1.9-3.4h2.4l-2.9,4.9l3,5h-2.4l-1.9-3.5l-1.9,3.5h-2.4l3-5l-2.9-4.9h2.2L190.8,318.8z"/>
			<path class="st2" d="M205.8,320.2h-6.1v-1.6h6.1V320.2z M205.8,323.2h-6.1v-1.6h6.1V323.2z"/>
		</g>
		<g class="st4">
			<path class="st5" d="M219.1,321.2c0,1.4-0.3,2.4-0.9,3.2c-0.6,0.8-1.4,1.1-2.5,1.1c-1.1,0-1.9-0.4-2.5-1.1
				c-0.6-0.7-0.9-1.7-0.9-3.1v-1.8c0-1.4,0.3-2.4,0.9-3.2c0.6-0.8,1.4-1.1,2.5-1.1c1.1,0,1.9,0.4,2.5,1.1c0.6,0.7,0.9,1.7,0.9,3.1
				V321.2z M217.1,319.2c0-0.8-0.1-1.4-0.3-1.8c-0.2-0.4-0.6-0.6-1.1-0.6s-0.8,0.2-1,0.5s-0.3,0.9-0.4,1.7v2.4
				c0,0.8,0.1,1.4,0.3,1.8c0.2,0.4,0.6,0.6,1.1,0.6s0.8-0.2,1-0.6s0.3-1,0.3-1.7L217.1,319.2L217.1,319.2z"/>
			<path class="st5" d="M220.6,324.4c0-0.3,0.1-0.6,0.3-0.8c0.2-0.2,0.5-0.3,0.8-0.3s0.6,0.1,0.8,0.3c0.2,0.2,0.3,0.5,0.3,0.8
				s-0.1,0.6-0.3,0.8c-0.2,0.2-0.5,0.3-0.8,0.3s-0.6-0.1-0.8-0.3C220.8,324.9,220.6,324.7,220.6,324.4z"/>
			<path class="st5" d="M231.3,316.5l-3.8,8.9h-2.1l3.9-8.4h-4.9v-1.6h7L231.3,316.5L231.3,316.5z"/>
			<path class="st5" d="M232.8,320.4l0.6-5.1h5.6v1.6h-4l-0.2,2.1c0.5-0.3,1-0.4,1.5-0.4c0.9,0,1.7,0.3,2.2,0.9s0.8,1.4,0.8,2.5
				c0,0.6-0.1,1.2-0.4,1.7s-0.7,0.9-1.2,1.2s-1.1,0.4-1.8,0.4c-0.6,0-1.2-0.1-1.7-0.4c-0.5-0.2-0.9-0.6-1.2-1s-0.5-0.9-0.5-1.5h2
				c0,0.4,0.2,0.7,0.4,1c0.2,0.2,0.6,0.3,1,0.3s0.8-0.2,1-0.5c0.2-0.3,0.4-0.8,0.4-1.4c0-0.6-0.1-1-0.4-1.3s-0.7-0.5-1.2-0.5
				s-0.9,0.1-1.1,0.4l-0.2,0.2L232.8,320.4z"/>
			<path class="st5" d="M242.8,323.7h4.4v1.6h-6.4v-10h2.1L242.8,323.7L242.8,323.7z"/>
		</g>
		<g class="st4">
			<path class="st5" d="M240.8,404.4h4.4v1.6h-6.4v-10h2.1v8.4H240.8z"/>
		</g>
		<g class="st4">
			<path class="st2" d="M190.8,480.1l1.9-3.4h2.4l-2.9,4.9l3,5h-2.4l-1.9-3.5l-1.9,3.5h-2.4l3-5l-2.9-4.9h2.2L190.8,480.1z"/>
		</g>
		<g class="st4">
			<path class="st2" d="M96.1,388.5l1.9-3.4h2.4l-2.9,4.9l3,5h-2.4l-1.9-3.5l-1.9,3.5h-2.5l3-5l-2.9-4.9h2.4L96.1,388.5z"/>
		</g>
		<g class="st4">
			<path class="st2" d="M647.5,388.5l1.9-3.4h2.4L649,390l3,5h-2.4l-1.9-3.5l-1.9,3.5h-2.5l3-5l-2.9-4.9h2.4L647.5,388.5z"/>
		</g>
		<line class="st6" x1="229.8" y1="354.8" x2="229.8" y2="447.2"/>
		<rect x="61.8" y="285.8" class="st3" width="620.3" height="230.3"/>
	</g>
	<g>
		<path class="st7" d="M221.5,410.5l-8.8-38.3c-0.5-2.1-2.4-4.2-4.5-4.8L168,355c-0.5-0.2-1.1-0.2-1.7-0.2c-1.7,0-3.5,0.7-4.7,1.7
			l-28.8,26.8c-1.6,1.4-2.4,4.2-1.9,6.2l9.4,41c0.5,2.1,2.4,4.2,4.5,4.8l37.6,11.7c0.5,0.2,1.1,0.2,1.7,0.2c1.7,0,3.5-0.7,4.7-1.7
			l30.8-28.6C221.2,415.3,222,412.6,221.5,410.5z M172.2,364.1l27.6,8.5c1.1,0.3,1.1,0.8,0,1.1l-14.5,3.3c-1.1,0.3-2.6-0.2-3.4-1
			l-10.1-10.9C170.9,364.2,171.1,363.8,172.2,364.1z M189.4,413.6c0.3,1.1-0.4,1.7-1.5,1.4l-29.8-9.2c-1.1-0.3-1.3-1.2-0.5-2
			l22.8-21.2c0.8-0.8,1.7-0.5,2,0.6L189.4,413.6z M140.3,386.6l24.2-22.5c0.8-0.8,2.1-0.7,2.9,0.1l12.1,13.1
			c0.8,0.8,0.7,2.1-0.1,2.9l-24.2,22.5c-0.8,0.8-2.1,0.7-2.9-0.1l-12.1-13.1C139.4,388.6,139.5,387.3,140.3,386.6z M146.2,422.3
			l-6.4-28.1c-0.3-1.1,0.2-1.3,0.9-0.5l10.1,10.9c0.8,0.8,1.1,2.4,0.8,3.5l-4.4,14.2C146.9,423.4,146.4,423.4,146.2,422.3z
			 M181.6,438.8L150,429c-1.1-0.3-1.7-1.5-1.4-2.6l5.3-17c0.3-1.1,1.5-1.7,2.6-1.4l31.6,9.7c1.1,0.3,1.7,1.5,1.4,2.6l-5.3,17
			C183.8,438.4,182.7,439,181.6,438.8z M209.6,415.8l-21.1,19.6c-0.8,0.8-1.2,0.5-0.9-0.6l4.4-14.2c0.3-1.1,1.5-2.2,2.6-2.4
			l14.5-3.3C210.2,414.5,210.4,415,209.6,415.8z M211.9,411.5l-17.4,4c-1.1,0.3-2.2-0.4-2.5-1.5l-7.4-32.2c-0.3-1.1,0.4-2.2,1.5-2.5
			l17.4-4c1.1-0.3,2.2,0.4,2.5,1.5l7.4,32.2C213.7,410.2,213,411.3,211.9,411.5z"/>
		<g>
			<path class="st7" d="M481.5,424c-0.1,1,0.3,1.2,0.7,1.2h2.4c0.9,0,1.1-0.8,1.1-1.2l9.8-55.7c0.2-1-0.5-1.2-1-1.1l0,0l-2.6,0.4
				c-0.7,0.1-1.1,0.7-1.1,1.1l0,0l-2.8,16.2c-2.5-0.8-7.2-1.3-9.9-1.3c-10.4,0-15.4,4-17.3,15.1l-3.1,17.5c-0.2,1.1-0.3,2.1-0.3,3
				c0,5,2.8,6.9,8,6.9c5.9,0,12-2.8,16.7-6.8L481.5,424z M465.9,421.9c-2.5,0-3.8-0.7-3.8-3.3c0-0.7,0.1-1.4,0.3-2.4l2.9-16.7
				c1.6-9.1,4.7-11.7,12.2-11.7c3.3,0,6.5,0.5,9.8,1.3l-4.4,24.7C477.6,418.5,471.1,421.9,465.9,421.9z"/>
			<path class="st7" d="M522.9,424c-0.1,1,0.3,1.2,0.8,1.2h2.4c0.9,0,1.1-0.8,1.1-1.2l0,0l6.7-37.7c-4.8-1.8-10.3-2.7-14.1-2.7
				c-11,0-15.4,4.4-17.3,15.1l-3.1,17.5c-0.2,1.1-0.3,2.1-0.3,3c0,5,2.8,6.9,8,6.9c5.9,0,11.7-2.8,16.4-6.8L522.9,424z M507.5,421.9
				c-2.5,0-3.8-0.7-3.8-3.3c0-0.7,0.1-1.4,0.3-2.4l2.9-16.7c1.6-9,4.5-11.7,12.2-11.7c3.4,0,7.3,0.7,9.6,1.3l-4.4,24.7
				C519,418.5,512.6,421.9,507.5,421.9z"/>
			<path class="st7" d="M589.8,424c-0.1,1,0.3,1.2,0.7,1.2h2.4c0.9,0,1.1-0.8,1.1-1.2l0,0l6.7-37.7c-4.8-1.8-10.3-2.7-14.1-2.7
				c-11,0-15.4,4.4-17.3,15.1l-3.1,17.5c-0.2,1.1-0.3,2.1-0.3,3c0,5,2.8,6.9,8,6.9c5.9,0,11.7-2.8,16.4-6.8L589.8,424z M574.5,421.9
				c-2.5,0-3.8-0.7-3.8-3.3c0-0.7,0.1-1.4,0.3-2.4l2.9-16.7c1.6-9,4.5-11.7,12.2-11.7c3.4,0,7.3,0.7,9.6,1.3l-4.4,24.7
				C586,418.5,579.6,421.9,574.5,421.9z"/>
			<g>
				<path class="st7" d="M550.4,374.4L550.4,374.4L550.4,374.4z"/>
				<path class="st7" d="M564.4,387.8L564.4,387.8l0.6-2.7c0.2-0.7-0.2-0.7-0.6-0.7h-11.5l1.6-9.4l0,0c0.2-1-0.5-1.2-1-1.1l0,0
					l-2.6,0.4l0,0c-0.7,0.1-1.1,0.7-1.1,1.1l0,0l-1.6,9h-7.1c-0.2,0-0.8,0.1-0.9,0.7l-0.4,2.6l0,0c0,0.2,0,0.7,0.7,0.7h7l-5.4,30.6
					c-0.1,0.6-0.2,1.1-0.2,1.6c0,3.7,2.6,5.4,6.7,5.4c3.2,0,8.9-0.9,11.8-2.3c0.9-0.5,0.8-1.1,0.6-1.5l0,0l-0.6-1.6
					c-0.1-0.4-0.6-0.3-0.9-0.2l0,0c-2.8,1.1-4.4,1.7-10.1,1.7c-1.9,0-2.8-0.4-2.8-2c0-0.4,0.1-0.9,0.2-1.5l5.3-30.1h11.4
					C564.1,388.4,564.3,388.2,564.4,387.8z"/>
			</g>
			<path class="st7" d="M454.2,384.4h-11.7c-0.5,0-1.1,0.4-1.4,0.8l-8.3,12.1l-4.9-12.6c-0.3-0.7-0.9-0.9-1.5-0.8l-10.2,1.5
				l8.8,19.4l-16.2,20.5h11c0.7,0,1.8-0.4,2.3-1l7.6-9.2l4.3,9.2c0.2,0.5,0.9,1,1.6,1h10.7l-8.6-18.9L454.2,384.4z"/>
			<path class="st7" d="M403.8,424.5l7-39.9c0.1-0.8-0.5-0.8-1-0.7l-9.8,1.3c-1.1,0.2-1.4,0.9-1.4,1.3l0,0l-4.2,24.2
				c-3,1.5-8.4,3.9-10.6,3.9c-1.2,0-1.6-0.4-1.6-1.3c0-0.3,0.1-0.8,0.2-1.3l4.8-27.5l0,0c0.1-0.8-0.5-0.8-0.9-0.7l-9.8,1.4l0,0
				c-1.1,0.2-1.4,0.9-1.4,1.3l0,0l-4.7,26.6c-0.3,1.7-0.4,3-0.4,4.7c0,5.1,2.1,8.3,7.5,8.3c4.7,0,9.7-1.6,16.1-4.6l0.1,3
				c0,0.2,0.1,0.7,0.5,0.7h9C403.6,425.2,403.8,424.8,403.8,424.5z"/>
			<path class="st7" d="M306.7,383.6c-4.7,0-9.7,1.6-16.1,4.6l0.1-3.6c0-0.9-0.7-0.8-1.1-0.7l-7.7,1.3l0,0c-1.3,0.2-1.7,1-1.8,1.4
				l-6.4,36.8l0,0c-0.3,1.7-0.2,1.8,1.2,1.8h8.8c1,0,1.5,0,1.8-1.8l4.3-24.5c3.2-1.7,8.4-3.9,10.6-3.9c1.2,0,1.6,0.3,1.6,1.2
				c0,0.3-0.1,0.8-0.2,1.3l-4.5,25.9l0,0c-0.3,1.7-0.2,1.8,1.2,1.8h8.8c1,0,1.5,0,1.8-1.8l4.7-26.8c0.3-2.1,0.4-3.3,0.4-4.7
				C314.2,386.8,312.2,383.6,306.7,383.6z"/>
			<g>
				<path class="st7" d="M272.8,365.8l-9.8,1.4c-1.1,0.1-1.3,0.9-1.4,1.3l-1.8,10.2c-0.2,1.2-0.1,1.2,1,1.1l9.7-1.3l0,0
					c1-0.1,1.2-0.2,1.4-1.5l0,0l1.9-10.6C273.9,365.8,273.7,365.8,272.8,365.8z"/>
				<path class="st7" d="M258.6,385.3L258.6,385.3L258.6,385.3z"/>
				<path class="st7" d="M263.7,423.4L263.7,423.4l6.9-38.8c0.1-0.8-0.5-0.8-1-0.7l-9.8,1.3l0,0c-1.1,0.2-1.4,0.9-1.4,1.3l0,0
					l-6.6,37.2c-0.2,1.4,0,1.6,1.3,1.6h8.8C262.8,425.2,263.3,425.2,263.7,423.4z"/>
			</g>
			<path class="st7" d="M360.6,423.4l9.9-56.4c0.1-0.8-0.3-0.8-0.8-0.7l-11.3,1.9c-5.1-1.4-10.9-2-14.2-2c-10.5,0-14,3.6-15.7,13
				l-0.9,5.4H323c-1.2,0-1.3,0.6-1.4,1.1l0,0l-1.4,7.8c-0.1,0.3,0.1,0.7,0.6,0.7h5.1l-5.5,31.2c-0.6,3.7-1.2,5.9-4.7,9.6l0,0
				c-0.7,0.7-0.5,0.9,0,1.3l0,0l6.2,5.8l0,0c0.6,0.6,0.9,0.5,1.6-0.2c5.7-5.8,7.5-9.7,8.5-15.1l5.7-32.5h9.1c0.5,0,0.6,0,0.8-0.6
				l0,0l2.1-8.2l0,0c0.2-0.6-0.4-0.8-0.8-0.8h-9.5l1.1-5.9c0.4-2.1,1.3-2.8,3.9-2.8c3.5,0,9.2,0.7,12.4,1.5l-8.1,46.2l0,0
				c-0.3,1.7-0.2,1.8,1.2,1.8h8.8C359.8,425.2,360.3,425.2,360.6,423.4z"/>
		</g>
		<path class="st7" d="M608.1,372.1H607l-0.3,2h-1.1l1-5.9h2.2c1.2,0,1.8,0.5,1.8,1.3c0,0.1,0,0.2,0,0.4l-0.1,0.8
			c-0.1,0.8-0.4,1.1-1.1,1.4l1.1,2.1h-1.2L608.1,372.1z M609.4,369.9c0-0.1,0-0.2,0-0.2c0-0.4-0.2-0.5-0.7-0.5h-1.2l-0.3,2h1.2
			c0.7,0,0.8-0.2,0.9-0.7L609.4,369.9z M608.1,376.1c-2.8,0-5-2.2-5-5s2.2-5,5-5s5,2.2,5,5S610.8,376.1,608.1,376.1z M608.1,367
			c-2.3,0-4.1,1.8-4.1,4.1s1.8,4.1,4.1,4.1s4.1-1.8,4.1-4.1S610.3,367,608.1,367z"/>
	</g>
</g>
</svg>
