<?xml version="1.0" encoding="utf-8"?>
<!-- Generator: Adobe Illustrator 19.1.0, SVG Export Plug-In . SVG Version: 6.00 Build 0)  -->
<svg version="1.1" id="Layer_1" xmlns="http://www.w3.org/2000/svg" xmlns:xlink="http://www.w3.org/1999/xlink" x="0px" y="0px"
	 viewBox="36 161 672 480" style="enable-background:new 36 161 672 480;" xml:space="preserve">
<style type="text/css">
	.st0{fill:#FFFFFF;}
	.st1{opacity:0.1;}
	.st2{fill:#22ADF6;}
	.st3{fill:none;stroke:#22ADF6;stroke-width:2;stroke-miterlimit:10;}
	.st4{fill:#757888;}
	.st5{enable-background:new    ;}
	.st6{fill:#FF7D55;}
	.st7{fill:none;stroke:#FF7D55;stroke-width:2;stroke-miterlimit:10;}
</style>
<rect x="36" y="161" class="st0" width="672" height="480"/>
<g id="Spacing">
	<g class="st1">
		<rect x="58.9" y="285.8" class="st2" width="626.3" height="230.3"/>
	</g>
	<path class="st3" d="M685.1,285.8v230.3H58.9V285.8H685.1"/>
	<rect x="127.4" y="354.3" class="st0" width="91.9" height="93.3"/>
	<rect x="127.4" y="354.3" class="st3" width="91.9" height="93.3"/>
	<rect x="248.3" y="365.8" class="st0" width="367.9" height="77.1"/>
	<rect x="248.3" y="365.8" class="st3" width="368.4" height="77.1"/>
	<g>
		<path class="st4" d="M218.6,410.6l-8.8-38.3c-0.5-2.1-2.4-4.2-4.5-4.8l-40.2-12.4c-0.5-0.2-1.1-0.2-1.7-0.2
			c-1.7,0-3.5,0.7-4.7,1.7l-28.8,26.8c-1.6,1.4-2.4,4.2-1.9,6.2l9.4,41c0.5,2.1,2.4,4.2,4.5,4.8l37.6,11.6c0.5,0.2,1.1,0.2,1.7,0.2
			c1.7,0,3.5-0.7,4.7-1.7l30.8-28.6C218.3,415.4,219.1,412.7,218.6,410.6z M169.3,364.2l27.6,8.5c1.1,0.3,1.1,0.8,0,1.1l-14.5,3.3
			c-1.1,0.3-2.6-0.2-3.4-1l-10.1-10.9C168,364.3,168.2,363.9,169.3,364.2z M186.5,413.7c0.3,1.1-0.4,1.7-1.5,1.4l-29.8-9.2
			c-1.1-0.3-1.3-1.2-0.5-2l22.8-21.2c0.8-0.8,1.7-0.5,2,0.6L186.5,413.7z M137.4,386.7l24.2-22.5c0.8-0.8,2.1-0.7,2.9,0.1l12.1,13.1
			c0.8,0.8,0.7,2.1-0.1,2.9l-24.2,22.5c-0.8,0.8-2.1,0.7-2.9-0.1l-12.1-13.1C136.5,388.7,136.6,387.4,137.4,386.7z M143.3,422.4
			l-6.4-28.1c-0.3-1.1,0.2-1.3,0.9-0.5l10.1,10.9c0.8,0.8,1.1,2.4,0.8,3.5l-4.4,14.2C144,423.5,143.5,423.5,143.3,422.4z
			 M178.7,438.8l-31.6-9.7c-1.1-0.3-1.7-1.5-1.4-2.6l5.3-17c0.3-1.1,1.5-1.7,2.6-1.4l31.6,9.7c1.1,0.3,1.7,1.5,1.4,2.6l-5.3,17
			C180.9,438.5,179.8,439.1,178.7,438.8z M206.7,415.8l-21.1,19.6c-0.8,0.8-1.2,0.5-0.9-0.6l4.4-14.2c0.3-1.1,1.5-2.2,2.6-2.4
			l14.5-3.3C207.3,414.6,207.5,415.1,206.7,415.8z M209,411.6l-17.4,4c-1.1,0.3-2.2-0.4-2.5-1.5l-7.4-32.2c-0.3-1.1,0.4-2.2,1.5-2.5
			l17.4-4c1.1-0.3,2.2,0.4,2.5,1.5l7.4,32.2C210.8,410.3,210.1,411.4,209,411.6z"/>
		<path id="Registered_Trademark" class="st4" d="M611.2,371.9h-1.1l-0.3,2h-1.1l1-6h2.2c1.2,0,1.8,0.5,1.8,1.3c0,0.1,0,0.2,0,0.4
			l-0.1,0.8c-0.1,0.8-0.4,1.1-1.1,1.4l1.1,2.1h-1.2L611.2,371.9z M612.5,369.6c0-0.1,0-0.2,0-0.2c0-0.4-0.2-0.5-0.7-0.5h-1.2l-0.3,2
			h1.2c0.7,0,0.8-0.2,0.9-0.7L612.5,369.6z M611.2,375.8c-2.8,0-5.1-2.2-5.1-5.1s2.2-5.1,5.1-5.1s5.1,2.2,5.1,5.1
			S613.9,375.8,611.2,375.8z M611.2,366.7c-2.3,0-4.2,1.8-4.2,4.2s1.8,4.2,4.2,4.2c2.3,0,4.2-1.8,4.2-4.2S613.4,366.7,611.2,366.7z"
			/>
		<g>
			<path class="st4" d="M478.6,424.1c-0.1,1,0.3,1.2,0.7,1.2h2.4c0.9,0,1.1-0.8,1.1-1.2l9.8-55.7c0.2-1-0.5-1.2-1-1.1l0,0l-2.6,0.4
				c-0.7,0.1-1.1,0.7-1.1,1.1l0,0l-2.8,16.2c-2.5-0.8-7.2-1.3-9.9-1.3c-10.4,0-15.4,4-17.3,15.1l-3.1,17.5c-0.2,1.1-0.3,2.1-0.3,3
				c0,5,2.8,6.9,8,6.9c5.9,0,12-2.8,16.7-6.8L478.6,424.1z M463,422c-2.5,0-3.8-0.7-3.8-3.3c0-0.7,0.1-1.4,0.3-2.4l2.9-16.7
				c1.6-9.1,4.7-11.7,12.2-11.7c3.3,0,6.5,0.5,9.8,1.3l-4.4,24.7C474.7,418.6,468.2,422,463,422z"/>
			<path class="st4" d="M520,424.1c-0.1,1,0.3,1.2,0.8,1.2h2.4c0.9,0,1.1-0.8,1.1-1.2l0,0l6.7-37.7c-4.8-1.8-10.3-2.7-14.1-2.7
				c-11,0-15.4,4.4-17.3,15.1l-3.1,17.5c-0.2,1.1-0.3,2.1-0.3,3c0,5,2.8,6.9,8,6.9c5.9,0,11.7-2.8,16.4-6.8L520,424.1z M504.6,422
				c-2.5,0-3.8-0.7-3.8-3.3c0-0.7,0.1-1.4,0.3-2.4l2.9-16.7c1.6-9,4.5-11.7,12.2-11.7c3.4,0,7.3,0.7,9.6,1.3l-4.4,24.7
				C516.1,418.6,509.7,422,504.6,422z"/>
			<path class="st4" d="M586.9,424.1c-0.1,1,0.3,1.2,0.7,1.2h2.4c0.9,0,1.1-0.8,1.1-1.2l0,0l6.7-37.7c-4.8-1.8-10.3-2.7-14.1-2.7
				c-11,0-15.4,4.4-17.3,15.1l-3.1,17.5c-0.2,1.1-0.3,2.1-0.3,3c0,5,2.8,6.9,8,6.9c5.9,0,11.7-2.8,16.4-6.8L586.9,424.1z M571.6,422
				c-2.5,0-3.8-0.7-3.8-3.3c0-0.7,0.1-1.4,0.3-2.4l2.9-16.7c1.6-9,4.5-11.7,12.2-11.7c3.4,0,7.3,0.7,9.6,1.3l-4.4,24.7
				C583.1,418.6,576.7,422,571.6,422z"/>
			<g>
				<path class="st4" d="M547.5,374.5L547.5,374.5L547.5,374.5z"/>
				<path class="st4" d="M561.5,387.9L561.5,387.9l0.6-2.7c0.2-0.7-0.2-0.7-0.6-0.7H550l1.6-9.4l0,0c0.2-1-0.5-1.2-1-1.1l0,0
					l-2.6,0.4l0,0c-0.7,0.1-1.1,0.7-1.1,1.1l0,0l-1.6,9h-7.1c-0.2,0-0.8,0.1-0.9,0.7l-0.4,2.6l0,0c0,0.2,0,0.7,0.7,0.7h7l-5.4,30.6
					c-0.1,0.6-0.2,1.1-0.2,1.6c0,3.7,2.6,5.4,6.7,5.4c3.2,0,8.9-0.9,11.8-2.3c0.9-0.5,0.8-1.1,0.6-1.5l0,0l-0.6-1.6
					c-0.1-0.4-0.6-0.3-0.9-0.2l0,0c-2.8,1.1-4.4,1.7-10.1,1.7c-1.9,0-2.8-0.4-2.8-2c0-0.4,0.1-0.9,0.2-1.5l5.3-30.1h11.4
					C561.2,388.5,561.4,388.3,561.5,387.9z"/>
			</g>
			<path class="st4" d="M451.3,384.5h-11.7c-0.5,0-1.1,0.4-1.4,0.8l-8.3,12.1l-4.9-12.6c-0.3-0.7-0.9-0.9-1.5-0.8l-10.2,1.5
				l8.8,19.4l-16.2,20.5h11c0.7,0,1.8-0.4,2.3-1l7.6-9.2l4.3,9.2c0.2,0.5,0.9,1,1.6,1h10.7l-8.6-18.9L451.3,384.5z"/>
			<path class="st4" d="M400.9,424.6l7-39.9c0.1-0.8-0.5-0.8-1-0.7l-9.8,1.3c-1.1,0.2-1.4,0.9-1.4,1.3l0,0l-4.2,24.2
				c-3,1.5-8.4,3.9-10.6,3.9c-1.2,0-1.6-0.4-1.6-1.3c0-0.3,0.1-0.8,0.2-1.3l4.8-27.5l0,0c0.1-0.8-0.5-0.8-0.9-0.7l-9.8,1.4l0,0
				c-1.1,0.2-1.4,0.9-1.4,1.3l0,0l-4.7,26.6c-0.3,1.7-0.4,3-0.4,4.7c0,5.1,2.1,8.3,7.5,8.3c4.7,0,9.7-1.6,16.1-4.6l0.1,3
				c0,0.2,0.1,0.7,0.5,0.7h9C400.7,425.3,400.9,424.9,400.9,424.6z"/>
			<path class="st4" d="M303.8,383.7c-4.7,0-9.7,1.6-16.1,4.6l0.1-3.6c0-0.9-0.7-0.8-1.1-0.7l-7.7,1.3l0,0c-1.3,0.2-1.7,1-1.8,1.4
				l-6.4,36.8l0,0c-0.3,1.7-0.2,1.8,1.2,1.8h8.8c1,0,1.5,0,1.8-1.8l4.3-24.5c3.2-1.7,8.4-3.9,10.6-3.9c1.2,0,1.6,0.3,1.6,1.2
				c0,0.3-0.1,0.8-0.2,1.3l-4.5,25.9l0,0c-0.3,1.7-0.2,1.8,1.2,1.8h8.8c1,0,1.5,0,1.8-1.8l4.7-26.8c0.3-2.1,0.4-3.3,0.4-4.7
				C311.3,386.8,309.3,383.7,303.8,383.7z"/>
			<g>
				<path class="st4" d="M269.9,365.9l-9.8,1.4c-1.1,0.1-1.3,0.9-1.4,1.3l-1.8,10.2c-0.2,1.2-0.1,1.2,1,1.1l9.7-1.3l0,0
					c1-0.1,1.2-0.2,1.4-1.5l0,0l1.9-10.6C271,365.8,270.8,365.8,269.9,365.9z"/>
				<path class="st4" d="M255.7,385.4L255.7,385.4L255.7,385.4z"/>
				<path class="st4" d="M260.8,423.5L260.8,423.5l6.9-38.8c0.1-0.8-0.5-0.8-1-0.7l-9.8,1.3l0,0c-1.1,0.2-1.4,0.9-1.4,1.3l0,0
					l-6.6,37.2c-0.2,1.4,0,1.6,1.3,1.6h8.8C259.9,425.3,260.4,425.3,260.8,423.5z"/>
			</g>
			<path class="st4" d="M357.7,423.5l9.9-56.4c0.1-0.8-0.3-0.8-0.8-0.7l-11.3,1.9c-5.1-1.4-10.9-2-14.2-2c-10.5,0-14,3.6-15.7,13
				l-0.9,5.4h-4.6c-1.2,0-1.3,0.6-1.4,1.1l0,0l-1.4,7.8c-0.1,0.3,0.1,0.7,0.6,0.7h5.1l-5.5,31.2c-0.6,3.7-1.2,5.9-4.7,9.6l0,0
				c-0.7,0.7-0.5,0.9,0,1.3l0,0l6.2,5.8l0,0c0.6,0.6,0.9,0.5,1.6-0.2c5.7-5.8,7.5-9.7,8.5-15.1l5.7-32.5h9.1c0.5,0,0.6,0,0.8-0.6
				l0,0l2.1-8.2l0,0c0.2-0.6-0.4-0.8-0.8-0.8h-9.5l1.1-5.9c0.4-2.1,1.3-2.8,3.9-2.8c3.5,0,9.2,0.7,12.4,1.5l-8.1,46.2l0,0
				c-0.3,1.7-0.2,1.8,1.2,1.8h8.8C356.9,425.3,357.4,425.3,357.7,423.5z"/>
		</g>
	</g>
	<line class="st3" x1="173.3" y1="354.8" x2="173.3" y2="285.8"/>
	<line class="st3" x1="127.9" y1="401" x2="58.9" y2="401"/>
	<line class="st3" x1="173.3" y1="447.2" x2="173.3" y2="516.2"/>
	<line class="st3" x1="616.1" y1="401" x2="685.1" y2="401"/>
	<g class="st5">
		<path class="st2" d="M187.8,318.8l1.9-3.4h2.4l-2.9,4.9l3,5h-2.4l-1.9-3.5l-1.9,3.5h-2.4l3-5l-2.9-4.9h2.2L187.8,318.8z"/>
		<path class="st2" d="M202.8,320.2h-6.1v-1.6h6.1V320.2z M202.8,323.2h-6.1v-1.6h6.1V323.2z"/>
	</g>
	<g class="st5">
		<path class="st6" d="M216.2,321.2c0,1.4-0.3,2.4-0.9,3.2c-0.6,0.8-1.4,1.1-2.5,1.1c-1.1,0-1.9-0.4-2.5-1.1
			c-0.6-0.7-0.9-1.7-0.9-3.1v-1.8c0-1.4,0.3-2.4,0.9-3.2c0.6-0.8,1.4-1.1,2.5-1.1c1.1,0,1.9,0.4,2.5,1.1c0.6,0.7,0.9,1.7,0.9,3.1
			V321.2z M214.2,319.2c0-0.8-0.1-1.4-0.3-1.8s-0.6-0.6-1.1-0.6s-0.8,0.2-1,0.5c-0.2,0.3-0.3,0.9-0.4,1.7v2.4c0,0.8,0.1,1.4,0.3,1.8
			s0.6,0.6,1.1,0.6s0.8-0.2,1-0.6c0.2-0.4,0.3-1,0.3-1.7L214.2,319.2L214.2,319.2z"/>
		<path class="st6" d="M217.7,324.4c0-0.3,0.1-0.6,0.3-0.8c0.2-0.2,0.5-0.3,0.8-0.3s0.6,0.1,0.8,0.3c0.2,0.2,0.3,0.5,0.3,0.8
			s-0.1,0.6-0.3,0.8c-0.2,0.2-0.5,0.3-0.8,0.3s-0.6-0.1-0.8-0.3C217.8,324.9,217.7,324.7,217.7,324.4z"/>
		<path class="st6" d="M228.4,316.5l-3.8,8.9h-2.1l3.9-8.4h-4.9v-1.6h7L228.4,316.5L228.4,316.5z"/>
		<path class="st6" d="M229.9,320.4l0.6-5.1h5.6v1.6h-4l-0.2,2.1c0.5-0.3,1-0.4,1.5-0.4c0.9,0,1.7,0.3,2.2,0.9s0.8,1.4,0.8,2.5
			c0,0.6-0.1,1.2-0.4,1.7s-0.7,0.9-1.2,1.2s-1.1,0.4-1.8,0.4c-0.6,0-1.2-0.1-1.7-0.4c-0.5-0.2-0.9-0.6-1.2-1s-0.5-0.9-0.5-1.5h2
			c0,0.4,0.2,0.7,0.4,1c0.2,0.2,0.6,0.3,1,0.3s0.8-0.2,1-0.5c0.2-0.3,0.4-0.8,0.4-1.4c0-0.6-0.1-1-0.4-1.3s-0.7-0.5-1.2-0.5
			s-0.9,0.1-1.1,0.4l-0.2,0.2L229.9,320.4z"/>
		<path class="st6" d="M239.9,323.7h4.4v1.6h-6.4v-10h2.1L239.9,323.7L239.9,323.7z"/>
	</g>
	<g class="st5">
		<path class="st6" d="M237.8,404.4h4.4v1.6h-6.4v-10h2.1v8.4H237.8z"/>
	</g>
	<g class="st5">
		<path class="st2" d="M187.8,480.1l1.9-3.4h2.4l-2.9,4.9l3,5h-2.4l-1.9-3.5l-1.9,3.5h-2.4l3-5l-2.9-4.9h2.2L187.8,480.1z"/>
	</g>
	<g class="st5">
		<path class="st2" d="M93.2,388.5l1.9-3.4h2.4l-2.9,4.9l3,5h-2.4l-1.9-3.5l-1.9,3.5h-2.5l3-5l-2.9-4.9h2.4L93.2,388.5z"/>
	</g>
	<g class="st5">
		<path class="st2" d="M650.6,388.5l1.9-3.4h2.4L652,390l3,5h-2.4l-1.9-3.5l-1.9,3.5h-2.5l3-5l-2.9-4.9h2.4L650.6,388.5z"/>
	</g>
	<line class="st7" x1="226.9" y1="354.8" x2="226.9" y2="447.2"/>
</g>
</svg>
