<?xml version="1.0" encoding="utf-8"?>
<!-- Generator: Adobe Illustrator 19.1.0, SVG Export Plug-In . SVG Version: 6.00 Build 0)  -->
<svg version="1.1" id="Layer_1" xmlns="http://www.w3.org/2000/svg" xmlns:xlink="http://www.w3.org/1999/xlink" x="0px" y="0px"
	 viewBox="-59 67 672 480" style="enable-background:new -59 67 672 480;" xml:space="preserve">
<style type="text/css">
	.st0{fill:#FFFFFF;}
	.st1{fill:#757888;}
</style>
<rect x="-59" y="67" class="st0" width="672" height="480"/>
<g>
	<path class="st1" d="M124.9,316.5l-8.8-38.3c-0.5-2.1-2.4-4.2-4.5-4.8L71.4,261c-0.5-0.2-1.1-0.2-1.7-0.2c-1.7,0-3.5,0.7-4.7,1.7
		l-28.8,26.8c-1.6,1.4-2.4,4.2-1.9,6.2l9.4,41c0.5,2.1,2.4,4.2,4.5,4.8L85.8,353c0.5,0.2,1.1,0.2,1.7,0.2c1.7,0,3.5-0.7,4.7-1.7
		l30.8-28.6C124.6,321.3,125.4,318.6,124.9,316.5z M75.6,270.1l27.6,8.5c1.1,0.3,1.1,0.8,0,1.1L88.7,283c-1.1,0.3-2.6-0.2-3.4-1
		l-10.1-10.9C74.3,270.2,74.5,269.8,75.6,270.1z M92.8,319.6c0.3,1.1-0.4,1.7-1.5,1.4l-29.8-9.2c-1.1-0.3-1.3-1.2-0.5-2l22.8-21.2
		c0.8-0.8,1.7-0.5,2,0.6L92.8,319.6z M43.7,292.6l24.2-22.5c0.8-0.8,2.1-0.7,2.9,0.1l12.1,13.1c0.8,0.8,0.7,2.1-0.1,2.9l-24.2,22.5
		c-0.8,0.8-2.1,0.7-2.9-0.1l-12.1-13.1C42.8,294.6,42.9,293.3,43.7,292.6z M49.6,328.3l-6.4-28.1c-0.3-1.1,0.2-1.3,0.9-0.5
		l10.1,10.9c0.8,0.8,1.1,2.4,0.8,3.5l-4.4,14.2C50.3,329.4,49.8,329.4,49.6,328.3z M85,344.8L53.4,335c-1.1-0.3-1.7-1.5-1.4-2.6
		l5.3-17c0.3-1.1,1.5-1.7,2.6-1.4l31.6,9.7c1.1,0.3,1.7,1.5,1.4,2.6l-5.3,17C87.2,344.4,86.1,345,85,344.8z M113,321.8l-21.1,19.6
		c-0.8,0.8-1.2,0.5-0.9-0.6l4.4-14.2c0.3-1.1,1.5-2.2,2.6-2.4l14.5-3.3C113.6,320.5,113.8,321,113,321.8z M115.3,317.5l-17.4,4
		c-1.1,0.3-2.2-0.4-2.5-1.5L88,287.8c-0.3-1.1,0.4-2.2,1.5-2.5l17.4-4c1.1-0.3,2.2,0.4,2.5,1.5l7.4,32.2
		C117.1,316.2,116.4,317.3,115.3,317.5z"/>
	<g>
		<path class="st1" d="M384.9,330c-0.1,1,0.3,1.2,0.7,1.2h2.4c0.9,0,1.1-0.8,1.1-1.2l9.8-55.7c0.2-1-0.5-1.2-1-1.1l0,0l-2.6,0.4
			c-0.7,0.1-1.1,0.7-1.1,1.1l0,0l-2.8,16.2c-2.5-0.8-7.2-1.3-9.9-1.3c-10.4,0-15.4,4-17.3,15.1l-3.1,17.5c-0.2,1.1-0.3,2.1-0.3,3
			c0,5,2.8,6.9,8,6.9c5.9,0,12-2.8,16.7-6.8L384.9,330z M369.3,327.9c-2.5,0-3.8-0.7-3.8-3.3c0-0.7,0.1-1.4,0.3-2.4l2.9-16.7
			c1.6-9.1,4.7-11.7,12.2-11.7c3.3,0,6.5,0.5,9.8,1.3l-4.4,24.7C381,324.5,374.5,327.9,369.3,327.9z"/>
		<path class="st1" d="M426.3,330c-0.1,1,0.3,1.2,0.8,1.2h2.4c0.9,0,1.1-0.8,1.1-1.2l0,0l6.7-37.7c-4.8-1.8-10.3-2.7-14.1-2.7
			c-11,0-15.4,4.4-17.3,15.1l-3.1,17.5c-0.2,1.1-0.3,2.1-0.3,3c0,5,2.8,6.9,8,6.9c5.9,0,11.7-2.8,16.4-6.8L426.3,330z M410.9,327.9
			c-2.5,0-3.8-0.7-3.8-3.3c0-0.7,0.1-1.4,0.3-2.4l2.9-16.7c1.6-9,4.5-11.7,12.2-11.7c3.4,0,7.3,0.7,9.6,1.3l-4.4,24.7
			C422.4,324.5,416,327.9,410.9,327.9z"/>
		<path class="st1" d="M493.2,330c-0.1,1,0.3,1.2,0.7,1.2h2.4c0.9,0,1.1-0.8,1.1-1.2l0,0l6.7-37.7c-4.8-1.8-10.3-2.7-14.1-2.7
			c-11,0-15.4,4.4-17.3,15.1l-3.1,17.5c-0.2,1.1-0.3,2.1-0.3,3c0,5,2.8,6.9,8,6.9c5.9,0,11.7-2.8,16.4-6.8L493.2,330z M477.9,327.9
			c-2.5,0-3.8-0.7-3.8-3.3c0-0.7,0.1-1.4,0.3-2.4l2.9-16.7c1.6-9,4.5-11.7,12.2-11.7c3.4,0,7.3,0.7,9.6,1.3l-4.4,24.7
			C489.4,324.5,483,327.9,477.9,327.9z"/>
		<g>
			<path class="st1" d="M453.8,280.4L453.8,280.4L453.8,280.4z"/>
			<path class="st1" d="M467.8,293.8L467.8,293.8l0.6-2.7c0.2-0.7-0.2-0.7-0.6-0.7h-11.5l1.6-9.4l0,0c0.2-1-0.5-1.2-1-1.1l0,0
				l-2.6,0.4l0,0c-0.7,0.1-1.1,0.7-1.1,1.1l0,0l-1.6,9h-7.1c-0.2,0-0.8,0.1-0.9,0.7l-0.4,2.6l0,0c0,0.2,0,0.7,0.7,0.7h7l-5.4,30.6
				c-0.1,0.6-0.2,1.1-0.2,1.6c0,3.7,2.6,5.4,6.7,5.4c3.2,0,8.9-0.9,11.8-2.3c0.9-0.5,0.8-1.1,0.6-1.5l0,0l-0.6-1.6
				c-0.1-0.4-0.6-0.3-0.9-0.2l0,0c-2.8,1.1-4.4,1.7-10.1,1.7c-1.9,0-2.8-0.4-2.8-2c0-0.4,0.1-0.9,0.2-1.5l5.3-30.1h11.4
				C467.5,294.4,467.7,294.2,467.8,293.8z"/>
		</g>
		<path class="st1" d="M357.6,290.4h-11.7c-0.5,0-1.1,0.4-1.4,0.8l-8.3,12.1l-4.9-12.6c-0.3-0.7-0.9-0.9-1.5-0.8l-10.2,1.5l8.8,19.4
			l-16.2,20.5h11c0.7,0,1.8-0.4,2.3-1l7.6-9.2l4.3,9.2c0.2,0.5,0.9,1,1.6,1h10.7l-8.6-18.9L357.6,290.4z"/>
		<path class="st1" d="M307.2,330.5l7-39.9c0.1-0.8-0.5-0.8-1-0.7l-9.8,1.3c-1.1,0.2-1.4,0.9-1.4,1.3l0,0l-4.2,24.2
			c-3,1.5-8.4,3.9-10.6,3.9c-1.2,0-1.6-0.4-1.6-1.3c0-0.3,0.1-0.8,0.2-1.3l4.8-27.5l0,0c0.1-0.8-0.5-0.8-0.9-0.7l-9.8,1.4l0,0
			c-1.1,0.2-1.4,0.9-1.4,1.3l0,0l-4.7,26.6c-0.3,1.7-0.4,3-0.4,4.7c0,5.1,2.1,8.3,7.5,8.3c4.7,0,9.7-1.6,16.1-4.6l0.1,3
			c0,0.2,0.1,0.7,0.5,0.7h9C307,331.2,307.2,330.8,307.2,330.5z"/>
		<path class="st1" d="M210.1,289.6c-4.7,0-9.7,1.6-16.1,4.6l0.1-3.6c0-0.9-0.7-0.8-1.1-0.7l-7.7,1.3l0,0c-1.3,0.2-1.7,1-1.8,1.4
			l-6.4,36.8l0,0c-0.3,1.7-0.2,1.8,1.2,1.8h8.8c1,0,1.5,0,1.8-1.8l4.3-24.5c3.2-1.7,8.4-3.9,10.6-3.9c1.2,0,1.6,0.3,1.6,1.2
			c0,0.3-0.1,0.8-0.2,1.3l-4.5,25.9l0,0c-0.3,1.7-0.2,1.8,1.2,1.8h8.8c1,0,1.5,0,1.8-1.8l4.7-26.8c0.3-2.1,0.4-3.3,0.4-4.7
			C217.6,292.8,215.6,289.6,210.1,289.6z"/>
		<g>
			<path class="st1" d="M176.2,271.8l-9.8,1.4c-1.1,0.1-1.3,0.9-1.4,1.3l-1.8,10.2c-0.2,1.2-0.1,1.2,1,1.1l9.7-1.3l0,0
				c1-0.1,1.2-0.2,1.4-1.5l0,0l1.9-10.6C177.3,271.8,177.1,271.8,176.2,271.8z"/>
			<path class="st1" d="M162,291.3L162,291.3L162,291.3z"/>
			<path class="st1" d="M167.1,329.4L167.1,329.4l6.9-38.8c0.1-0.8-0.5-0.8-1-0.7l-9.8,1.3l0,0c-1.1,0.2-1.4,0.9-1.4,1.3l0,0
				l-6.6,37.2c-0.2,1.4,0,1.6,1.3,1.6h8.8C166.2,331.2,166.7,331.2,167.1,329.4z"/>
		</g>
		<path class="st1" d="M264,329.4l9.9-56.4c0.1-0.8-0.3-0.8-0.8-0.7l-11.3,1.9c-5.1-1.4-10.9-2-14.2-2c-10.5,0-14,3.6-15.7,13
			l-0.9,5.4h-4.6c-1.2,0-1.3,0.6-1.4,1.1l0,0l-1.4,7.8c-0.1,0.3,0.1,0.7,0.6,0.7h5.1l-5.5,31.2c-0.6,3.7-1.2,5.9-4.7,9.6l0,0
			c-0.7,0.7-0.5,0.9,0,1.3l0,0l6.2,5.8l0,0c0.6,0.6,0.9,0.5,1.6-0.2c5.7-5.8,7.5-9.7,8.5-15.1l5.7-32.5h9.1c0.5,0,0.6,0,0.8-0.6l0,0
			l2.1-8.2l0,0c0.2-0.6-0.4-0.8-0.8-0.8h-9.5l1.1-5.9c0.4-2.1,1.3-2.8,3.9-2.8c3.5,0,9.2,0.7,12.4,1.5l-8.1,46.2l0,0
			c-0.3,1.7-0.2,1.8,1.2,1.8h8.8C263.2,331.2,263.7,331.2,264,329.4z"/>
	</g>
	<g>
		<path class="st1" d="M509.5,280.5h-1.2l1-5.6h-1.9l0.2-1.1h5l-0.2,1.1h-1.9L509.5,280.5z"/>
		<path class="st1" d="M518.3,276.2l-1.9,3.4h-1.3l-0.6-3.4l-1,4.3h-1.2l1.5-6.7h1.3l0.9,4.5l2.5-4.5h1.4l-0.8,6.7h-1.2L518.3,276.2
			z"/>
	</g>
</g>
</svg>
