<?xml version="1.0" encoding="utf-8"?>
<!-- Generator: Adobe Illustrator 19.1.0, SVG Export Plug-In . SVG Version: 6.00 Build 0)  -->
<svg version="1.1" id="Layer_1" xmlns="http://www.w3.org/2000/svg" xmlns:xlink="http://www.w3.org/1999/xlink" x="0px" y="0px"
	 viewBox="-59 67 672 480" style="enable-background:new -59 67 672 480;" xml:space="preserve">
<style type="text/css">
	.st0{fill:#FFFFFF;}
	.st1{fill:#757888;}
	.st2{fill:none;stroke:#4ED8A0;stroke-width:2;stroke-miterlimit:10;}
	.st3{enable-background:new    ;}
	.st4{fill:#4ED8A0;}
	.st5{fill:none;stroke:#22ADF6;stroke-width:2;stroke-miterlimit:10;}
	.st6{fill:#22ADF6;}
	.st7{fill:none;stroke:#FF8564;stroke-width:2;stroke-miterlimit:10;}
	.st8{fill:#FF8564;}
</style>
<rect x="-59" y="67" class="st0" width="672" height="480"/>
<g id="Anatomy_1_">
	<g>
		<path class="st1" d="M124.2,316.6l-8.8-38.3c-0.5-2.1-2.4-4.2-4.5-4.8l-40.2-12.4c-0.5-0.2-1.1-0.2-1.7-0.2
			c-1.7,0-3.5,0.7-4.7,1.7l-28.8,26.8c-1.6,1.4-2.4,4.2-1.9,6.2l9.4,41c0.5,2.1,2.4,4.2,4.5,4.8L85.1,353c0.5,0.2,1.1,0.2,1.7,0.2
			c1.7,0,3.5-0.7,4.7-1.7l30.8-28.6C123.9,321.4,124.7,318.7,124.2,316.6z M74.9,270.2l27.6,8.5c1.1,0.3,1.1,0.8,0,1.1L88,283.1
			c-1.1,0.3-2.6-0.2-3.4-1l-10.1-10.9C73.6,270.3,73.8,269.9,74.9,270.2z M92.1,319.7c0.3,1.1-0.4,1.7-1.5,1.4l-29.8-9.2
			c-1.1-0.3-1.3-1.2-0.5-2l22.8-21.2c0.8-0.8,1.7-0.5,2,0.6L92.1,319.7z M43,292.7l24.2-22.5c0.8-0.8,2.1-0.7,2.9,0.1l12.1,13.1
			c0.8,0.8,0.7,2.1-0.1,2.9l-24.2,22.5c-0.8,0.8-2.1,0.7-2.9-0.1l-12.1-13.1C42.1,294.7,42.2,293.4,43,292.7z M48.9,328.4l-6.4-28.1
			c-0.3-1.1,0.2-1.3,0.9-0.5l10.1,10.9c0.8,0.8,1.1,2.4,0.8,3.5l-4.4,14.2C49.6,329.5,49.1,329.5,48.9,328.4z M84.3,344.8l-31.6-9.7
			c-1.1-0.3-1.7-1.5-1.4-2.6l5.3-17c0.3-1.1,1.5-1.7,2.6-1.4l31.6,9.7c1.1,0.3,1.7,1.5,1.4,2.6l-5.3,17
			C86.5,344.5,85.4,345.1,84.3,344.8z M112.3,321.8l-21.1,19.6c-0.8,0.8-1.2,0.5-0.9-0.6l4.4-14.2c0.3-1.1,1.5-2.2,2.6-2.4l14.5-3.3
			C112.9,320.6,113.1,321.1,112.3,321.8z M114.6,317.6l-17.4,4c-1.1,0.3-2.2-0.4-2.5-1.5l-7.4-32.2c-0.3-1.1,0.4-2.2,1.5-2.5l17.4-4
			c1.1-0.3,2.2,0.4,2.5,1.5l7.4,32.2C116.4,316.3,115.7,317.4,114.6,317.6z"/>
		<g>
			<path class="st1" d="M384.2,330.1c-0.1,1,0.3,1.2,0.7,1.2h2.4c0.9,0,1.1-0.8,1.1-1.2l9.8-55.7c0.2-1-0.5-1.2-1-1.1l0,0l-2.6,0.4
				c-0.7,0.1-1.1,0.7-1.1,1.1l0,0l-2.8,16.2c-2.5-0.8-7.2-1.3-9.9-1.3c-10.4,0-15.4,4-17.3,15.1l-3.1,17.5c-0.2,1.1-0.3,2.1-0.3,3
				c0,5,2.8,6.9,8,6.9c5.9,0,12-2.8,16.7-6.8L384.2,330.1z M368.6,328c-2.5,0-3.8-0.7-3.8-3.3c0-0.7,0.1-1.4,0.3-2.4l2.9-16.7
				c1.6-9.1,4.7-11.7,12.2-11.7c3.3,0,6.5,0.5,9.8,1.3l-4.4,24.7C380.3,324.6,373.8,328,368.6,328z"/>
			<path class="st1" d="M425.6,330.1c-0.1,1,0.3,1.2,0.8,1.2h2.4c0.9,0,1.1-0.8,1.1-1.2l0,0l6.7-37.7c-4.8-1.8-10.3-2.7-14.1-2.7
				c-11,0-15.4,4.4-17.3,15.1l-3.1,17.5c-0.2,1.1-0.3,2.1-0.3,3c0,5,2.8,6.9,8,6.9c5.9,0,11.7-2.8,16.4-6.8L425.6,330.1z M410.2,328
				c-2.5,0-3.8-0.7-3.8-3.3c0-0.7,0.1-1.4,0.3-2.4l2.9-16.7c1.6-9,4.5-11.7,12.2-11.7c3.4,0,7.3,0.7,9.6,1.3l-4.4,24.7
				C421.7,324.6,415.3,328,410.2,328z"/>
			<path class="st1" d="M492.5,330.1c-0.1,1,0.3,1.2,0.7,1.2h2.4c0.9,0,1.1-0.8,1.1-1.2l0,0l6.7-37.7c-4.8-1.8-10.3-2.7-14.1-2.7
				c-11,0-15.4,4.4-17.3,15.1l-3.1,17.5c-0.2,1.1-0.3,2.1-0.3,3c0,5,2.8,6.9,8,6.9c5.9,0,11.7-2.8,16.4-6.8L492.5,330.1z M477.2,328
				c-2.5,0-3.8-0.7-3.8-3.3c0-0.7,0.1-1.4,0.3-2.4l2.9-16.7c1.6-9,4.5-11.7,12.2-11.7c3.4,0,7.3,0.7,9.6,1.3l-4.4,24.7
				C488.7,324.6,482.3,328,477.2,328z"/>
			<g>
				<path class="st1" d="M453.1,280.5L453.1,280.5L453.1,280.5z"/>
				<path class="st1" d="M467.1,293.9L467.1,293.9l0.6-2.7c0.2-0.7-0.2-0.7-0.6-0.7h-11.5l1.6-9.4l0,0c0.2-1-0.5-1.2-1-1.1l0,0
					l-2.6,0.4l0,0c-0.7,0.1-1.1,0.7-1.1,1.1l0,0l-1.6,9h-7.1c-0.2,0-0.8,0.1-0.9,0.7l-0.4,2.6l0,0c0,0.2,0,0.7,0.7,0.7h7l-5.4,30.6
					c-0.1,0.6-0.2,1.1-0.2,1.6c0,3.7,2.6,5.4,6.7,5.4c3.2,0,8.9-0.9,11.8-2.3c0.9-0.5,0.8-1.1,0.6-1.5l0,0l-0.6-1.6
					c-0.1-0.4-0.6-0.3-0.9-0.2l0,0c-2.8,1.1-4.4,1.7-10.1,1.7c-1.9,0-2.8-0.4-2.8-2c0-0.4,0.1-0.9,0.2-1.5l5.3-30.1h11.4
					C466.8,294.5,467,294.3,467.1,293.9z"/>
			</g>
			<path class="st1" d="M356.9,290.5h-11.7c-0.5,0-1.1,0.4-1.4,0.8l-8.3,12.1l-4.9-12.6c-0.3-0.7-0.9-0.9-1.5-0.8l-10.2,1.5
				l8.8,19.4l-16.2,20.5h11c0.7,0,1.8-0.4,2.3-1l7.6-9.2l4.3,9.2c0.2,0.5,0.9,1,1.6,1H349l-8.6-18.9L356.9,290.5z"/>
			<path class="st1" d="M306.5,330.6l7-39.9c0.1-0.8-0.5-0.8-1-0.7l-9.8,1.3c-1.1,0.2-1.4,0.9-1.4,1.3l0,0l-4.2,24.2
				c-3,1.5-8.4,3.9-10.6,3.9c-1.2,0-1.6-0.4-1.6-1.3c0-0.3,0.1-0.8,0.2-1.3l4.8-27.5l0,0c0.1-0.8-0.5-0.8-0.9-0.7l-9.8,1.4l0,0
				c-1.1,0.2-1.4,0.9-1.4,1.3l0,0l-4.7,26.6c-0.3,1.7-0.4,3-0.4,4.7c0,5.1,2.1,8.3,7.5,8.3c4.7,0,9.7-1.6,16.1-4.6l0.1,3
				c0,0.2,0.1,0.7,0.5,0.7h9C306.3,331.3,306.5,330.9,306.5,330.6z"/>
			<path class="st1" d="M209.4,289.7c-4.7,0-9.7,1.6-16.1,4.6l0.1-3.6c0-0.9-0.7-0.8-1.1-0.7l-7.7,1.3l0,0c-1.3,0.2-1.7,1-1.8,1.4
				l-6.4,36.8l0,0c-0.3,1.7-0.2,1.8,1.2,1.8h8.8c1,0,1.5,0,1.8-1.8l4.3-24.5c3.2-1.7,8.4-3.9,10.6-3.9c1.2,0,1.6,0.3,1.6,1.2
				c0,0.3-0.1,0.8-0.2,1.3l-4.5,25.9l0,0c-0.3,1.7-0.2,1.8,1.2,1.8h8.8c1,0,1.5,0,1.8-1.8l4.7-26.8c0.3-2.1,0.4-3.3,0.4-4.7
				C216.9,292.8,214.9,289.7,209.4,289.7z"/>
			<g>
				<path class="st1" d="M175.5,271.9l-9.8,1.4c-1.1,0.1-1.3,0.9-1.4,1.3l-1.8,10.2c-0.2,1.2-0.1,1.2,1,1.1l9.7-1.3l0,0
					c1-0.1,1.2-0.2,1.4-1.5l0,0l1.9-10.6C176.6,271.8,176.4,271.8,175.5,271.9z"/>
				<path class="st1" d="M161.3,291.4L161.3,291.4L161.3,291.4z"/>
				<path class="st1" d="M166.4,329.5L166.4,329.5l6.9-38.8c0.1-0.8-0.5-0.8-1-0.7l-9.8,1.3l0,0c-1.1,0.2-1.4,0.9-1.4,1.3l0,0
					l-6.6,37.2c-0.2,1.4,0,1.6,1.3,1.6h8.8C165.5,331.3,166,331.3,166.4,329.5z"/>
			</g>
			<path class="st1" d="M263.3,329.5l9.9-56.4c0.1-0.8-0.3-0.8-0.8-0.7l-11.3,1.9c-5.1-1.4-10.9-2-14.2-2c-10.5,0-14,3.6-15.7,13
				l-0.9,5.4h-4.6c-1.2,0-1.3,0.6-1.4,1.1l0,0l-1.4,7.8c-0.1,0.3,0.1,0.7,0.6,0.7h5.1l-5.5,31.2c-0.6,3.7-1.2,5.9-4.7,9.6l0,0
				c-0.7,0.7-0.5,0.9,0,1.3l0,0l6.2,5.8l0,0c0.6,0.6,0.9,0.5,1.6-0.2c5.7-5.8,7.5-9.7,8.5-15.1l5.7-32.5h9.1c0.5,0,0.6,0,0.8-0.6
				l0,0l2.1-8.2l0,0c0.2-0.6-0.4-0.8-0.8-0.8h-9.5l1.1-5.9c0.4-2.1,1.3-2.8,3.9-2.8c3.5,0,9.2,0.7,12.4,1.5l-8.1,46.2l0,0
				c-0.3,1.7-0.2,1.8,1.2,1.8h8.8C262.5,331.3,263,331.3,263.3,329.5z"/>
		</g>
		<g>
			<path class="st1" d="M508.9,280.5h-1.2l1-5.6h-1.9l0.2-1.1h5l-0.2,1.1h-1.9L508.9,280.5z"/>
			<path class="st1" d="M517.7,276.2l-1.9,3.4h-1.3l-0.6-3.4l-1,4.3h-1.2l1.5-6.7h1.3l0.9,4.5l2.5-4.5h1.4l-0.8,6.7h-1.2
				L517.7,276.2z"/>
		</g>
	</g>
	<g>
		<path class="st2" d="M520.5,272.3v76.1H154.4v-76.1H520.5z"/>
		<g class="st3">
			<path class="st4" d="M157.4,249.2h4.4v1.6h-6.4v-10h2.1L157.4,249.2L157.4,249.2z"/>
			<path class="st4" d="M162.4,247.1c0-0.7,0.1-1.4,0.4-2s0.7-1,1.2-1.3s1.1-0.5,1.8-0.5c1,0,1.8,0.3,2.4,0.9c0.6,0.6,1,1.4,1.1,2.5
				v0.5c0,1.1-0.3,2-1,2.7c-0.6,0.7-1.5,1-2.5,1s-1.9-0.3-2.6-1S162.4,248.3,162.4,247.1L162.4,247.1z M164.4,247.2
				c0,0.7,0.1,1.2,0.4,1.6s0.6,0.6,1.1,0.6s0.9-0.2,1.1-0.6c0.3-0.4,0.4-1,0.4-1.8c0-0.7-0.1-1.2-0.4-1.6s-0.6-0.6-1.1-0.6
				s-0.9,0.2-1.1,0.6C164.6,245.8,164.4,246.4,164.4,247.2z"/>
			<path class="st4" d="M170.4,247.1c0-1.1,0.3-2,0.8-2.7s1.3-1,2.2-1c0.8,0,1.4,0.3,1.9,0.8l0.1-0.7h1.8v7.2c0,0.6-0.1,1.2-0.4,1.7
				s-0.7,0.8-1.2,1.1s-1.2,0.4-1.9,0.4c-0.5,0-1.1-0.1-1.6-0.3s-0.9-0.5-1.2-0.8l0.9-1.2c0.5,0.6,1.1,0.8,1.8,0.8
				c0.5,0,0.9-0.1,1.2-0.4c0.3-0.3,0.4-0.7,0.4-1.2v-0.4c-0.5,0.5-1.1,0.8-1.8,0.8c-0.9,0-1.6-0.3-2.2-1
				C170.7,249.2,170.4,248.3,170.4,247.1L170.4,247.1z M172.4,247.2c0,0.7,0.1,1.2,0.4,1.6c0.3,0.4,0.6,0.6,1.1,0.6
				c0.6,0,1-0.2,1.3-0.7v-3.1c-0.3-0.5-0.7-0.7-1.3-0.7c-0.5,0-0.8,0.2-1.1,0.6C172.5,245.9,172.4,246.4,172.4,247.2z"/>
			<path class="st4" d="M178.4,247.1c0-0.7,0.1-1.4,0.4-2s0.7-1,1.2-1.3s1.1-0.5,1.8-0.5c1,0,1.8,0.3,2.4,0.9s1,1.4,1.1,2.5v0.5
				c0,1.1-0.3,2-1,2.7c-0.6,0.7-1.5,1-2.5,1s-1.9-0.3-2.6-1S178.4,248.3,178.4,247.1L178.4,247.1z M180.3,247.2
				c0,0.7,0.1,1.2,0.4,1.6s0.6,0.6,1.1,0.6s0.9-0.2,1.1-0.6c0.3-0.4,0.4-1,0.4-1.8c0-0.7-0.1-1.2-0.4-1.6s-0.6-0.6-1.1-0.6
				s-0.9,0.2-1.1,0.6C180.5,245.8,180.3,246.4,180.3,247.2z"/>
			<path class="st4" d="M197.3,242.5h-3v8.3h-2.1v-8.3h-3v-1.7h8.1V242.5z"/>
			<path class="st4" d="M200.5,248l1.4-4.6h2.1l-3,8.5l-0.2,0.4c-0.4,1-1.2,1.4-2.2,1.4c-0.3,0-0.6,0-0.9-0.1v-1.5h0.3
				c0.4,0,0.7-0.1,0.8-0.2s0.3-0.3,0.4-0.6l0.2-0.6l-2.6-7.4h2.1L200.5,248z"/>
			<path class="st4" d="M211.4,247.2c0,1.1-0.3,2.1-0.8,2.7c-0.5,0.7-1.2,1-2.1,1c-0.7,0-1.4-0.3-1.8-0.8v3.5h-2v-10.2h1.8l0.1,0.7
				c0.5-0.6,1.1-0.9,1.9-0.9c0.9,0,1.6,0.3,2.1,1s0.8,1.6,0.8,2.8V247.2z M209.5,247.1c0-0.7-0.1-1.2-0.4-1.6s-0.6-0.6-1.1-0.6
				c-0.6,0-1,0.2-1.3,0.7v3c0.2,0.5,0.7,0.7,1.3,0.7C209,249.4,209.5,248.6,209.5,247.1z"/>
			<path class="st4" d="M216.1,251c-1.1,0-2-0.3-2.6-1s-1-1.6-1-2.7v-0.2c0-0.7,0.1-1.4,0.4-2c0.3-0.6,0.7-1,1.2-1.4
				c0.5-0.3,1.1-0.5,1.8-0.5c1,0,1.8,0.3,2.4,1s0.9,1.5,0.9,2.7v0.8h-4.7c0.1,0.5,0.3,0.9,0.6,1.2s0.7,0.4,1.2,0.4
				c0.8,0,1.4-0.3,1.8-0.8l1,1.1c-0.3,0.4-0.7,0.7-1.2,1C217.2,250.9,216.7,251,216.1,251z M215.8,244.9c-0.4,0-0.7,0.1-1,0.4
				s-0.4,0.6-0.5,1.1h2.7v-0.2c0-0.4-0.1-0.8-0.4-1S216.3,244.9,215.8,244.9z"/>
		</g>
	</g>
	<g>
		<path class="st5" d="M124.4,260.8v92.3H33.5v-92.3H124.4"/>
		<g class="st3">
			<path class="st6" d="M36.4,249.2h4.4v1.6h-6.4v-10h2.1L36.4,249.2L36.4,249.2z"/>
			<path class="st6" d="M41.5,247.1c0-0.7,0.1-1.4,0.4-2s0.7-1,1.2-1.3s1.1-0.5,1.8-0.5c1,0,1.8,0.3,2.4,0.9c0.6,0.6,1,1.4,1.1,2.5
				v0.5c0,1.1-0.3,2-1,2.7c-0.6,0.7-1.5,1-2.5,1s-1.9-0.3-2.6-1C41.6,249.2,41.5,248.3,41.5,247.1L41.5,247.1z M43.5,247.2
				c0,0.7,0.1,1.2,0.4,1.6s0.6,0.6,1.1,0.6s0.9-0.2,1.1-0.6c0.3-0.4,0.4-1,0.4-1.8c0-0.7-0.1-1.2-0.4-1.6s-0.6-0.6-1.1-0.6
				s-0.9,0.2-1.1,0.6C43.6,245.8,43.5,246.4,43.5,247.2z"/>
			<path class="st6" d="M49.5,247.1c0-1.1,0.3-2,0.8-2.7s1.3-1,2.2-1c0.8,0,1.4,0.3,1.9,0.8l0.1-0.7h1.8v7.2c0,0.6-0.1,1.2-0.4,1.7
				s-0.7,0.8-1.2,1.1s-1.2,0.4-1.9,0.4c-0.5,0-1.1-0.1-1.6-0.3s-0.9-0.5-1.2-0.8l0.9-1.2c0.5,0.6,1.1,0.8,1.8,0.8
				c0.5,0,0.9-0.1,1.2-0.4c0.3-0.3,0.4-0.7,0.4-1.2v-0.4c-0.5,0.5-1.1,0.8-1.8,0.8c-0.9,0-1.6-0.3-2.2-1
				C49.7,249.2,49.5,248.3,49.5,247.1L49.5,247.1z M51.4,247.2c0,0.7,0.1,1.2,0.4,1.6c0.3,0.4,0.6,0.6,1.1,0.6c0.6,0,1-0.2,1.3-0.7
				v-3.1c-0.3-0.5-0.7-0.7-1.3-0.7c-0.5,0-0.8,0.2-1.1,0.6C51.6,245.9,51.4,246.4,51.4,247.2z"/>
			<path class="st6" d="M57.4,247.1c0-0.7,0.1-1.4,0.4-2s0.7-1,1.2-1.3s1.1-0.5,1.8-0.5c1,0,1.8,0.3,2.4,0.9c0.6,0.6,1,1.4,1.1,2.5
				v0.5c0,1.1-0.3,2-1,2.7c-0.6,0.7-1.5,1-2.5,1s-1.9-0.3-2.6-1S57.4,248.3,57.4,247.1L57.4,247.1z M59.4,247.2
				c0,0.7,0.1,1.2,0.4,1.6s0.6,0.6,1.1,0.6s0.9-0.2,1.1-0.6c0.3-0.4,0.4-1,0.4-1.8c0-0.7-0.1-1.2-0.4-1.6s-0.6-0.6-1.1-0.6
				s-0.9,0.2-1.1,0.6C59.5,245.8,59.4,246.4,59.4,247.2z"/>
			<path class="st6" d="M74.4,248.2c0-0.4-0.1-0.7-0.4-0.9c-0.3-0.2-0.8-0.4-1.5-0.7c-0.7-0.2-1.3-0.5-1.7-0.7
				c-1.1-0.6-1.7-1.4-1.7-2.5c0-0.5,0.2-1,0.5-1.4c0.3-0.4,0.7-0.8,1.3-1s1.2-0.4,1.9-0.4s1.3,0.1,1.9,0.4c0.6,0.3,1,0.6,1.3,1.1
				c0.3,0.5,0.5,1,0.5,1.6h-2.1c0-0.5-0.1-0.8-0.4-1.1c-0.3-0.3-0.7-0.4-1.2-0.4s-0.9,0.1-1.2,0.3c-0.3,0.2-0.4,0.5-0.4,0.8
				s0.2,0.6,0.5,0.8c0.3,0.2,0.8,0.4,1.4,0.6c1.2,0.4,2,0.8,2.5,1.3s0.8,1.2,0.8,1.9c0,0.9-0.3,1.5-1,2c-0.7,0.5-1.5,0.7-2.6,0.7
				c-0.8,0-1.5-0.1-2.1-0.4c-0.6-0.3-1.1-0.7-1.4-1.2c-0.3-0.5-0.5-1.1-0.5-1.7h2.1c0,1.1,0.7,1.6,2,1.6c0.5,0,0.9-0.1,1.1-0.3
				C74.3,248.9,74.4,248.6,74.4,248.2z"/>
			<path class="st6" d="M80.5,248l1.4-4.6H84l-3,8.5l-0.2,0.4c-0.4,1-1.2,1.4-2.2,1.4c-0.3,0-0.6,0-0.9-0.1v-1.5H78
				c0.4,0,0.7-0.1,0.8-0.2s0.3-0.3,0.4-0.6l0.2-0.6l-2.6-7.4h2.1L80.5,248z"/>
			<path class="st6" d="M86.6,243.4l0.1,0.8c0.5-0.6,1.2-1,2.1-1c1,0,1.6,0.4,2,1.1c0.5-0.8,1.3-1.1,2.2-1.1c0.8,0,1.4,0.2,1.8,0.7
				s0.6,1.2,0.6,2.1v4.7h-2V246c0-0.4-0.1-0.7-0.2-0.9c-0.1-0.2-0.5-0.3-0.9-0.3c-0.6,0-1,0.3-1.2,0.8v5.1h-2V246
				c0-0.4-0.1-0.7-0.3-0.9c-0.2-0.2-0.5-0.3-0.9-0.3c-0.6,0-1,0.2-1.2,0.7v5.2h-2v-7.4L86.6,243.4L86.6,243.4z"/>
			<path class="st6" d="M103.6,247.2c0,1.2-0.3,2.1-0.8,2.8s-1.2,1-2.1,1c-0.8,0-1.4-0.3-1.9-0.9l-0.1,0.8h-1.8v-10.5h2v3.8
				c0.5-0.5,1.1-0.8,1.8-0.8c0.9,0,1.6,0.3,2.1,1S103.6,246,103.6,247.2L103.6,247.2z M101.6,247.1c0-0.8-0.1-1.3-0.4-1.6
				c-0.2-0.3-0.6-0.5-1.1-0.5c-0.6,0-1.1,0.3-1.3,0.8v2.9c0.2,0.5,0.7,0.8,1.3,0.8s1.1-0.3,1.3-0.9
				C101.5,248.1,101.6,247.7,101.6,247.1z"/>
			<path class="st6" d="M104.5,247.1c0-0.7,0.1-1.4,0.4-2s0.7-1,1.2-1.3s1.1-0.5,1.8-0.5c1,0,1.8,0.3,2.4,0.9s1,1.4,1.1,2.5v0.5
				c0,1.1-0.3,2-1,2.7c-0.6,0.7-1.5,1-2.5,1s-1.9-0.3-2.6-1S104.5,248.3,104.5,247.1L104.5,247.1z M106.5,247.2
				c0,0.7,0.1,1.2,0.4,1.6s0.6,0.6,1.1,0.6s0.9-0.2,1.1-0.6c0.3-0.4,0.4-1,0.4-1.8c0-0.7-0.1-1.2-0.4-1.6s-0.6-0.6-1.1-0.6
				s-0.9,0.2-1.1,0.6C106.6,245.8,106.5,246.4,106.5,247.2z"/>
			<path class="st6" d="M114.8,250.8h-2v-10.5h2V250.8z"/>
		</g>
		<path class="st6" d="M78.9,367.8l1.9-3.4h2.4l-2.9,4.9l3,5h-2.4l-1.9-3.5l-1.9,3.5h-2.4l3-5l-2.9-4.9h2.4L78.9,367.8z"/>
	</g>
	<g>
		<line class="st7" x1="124.4" y1="307" x2="154.4" y2="307"/>
		<g>
			<path class="st8" d="M132.8,377.8l1.9-3.4h2.4l-2.9,4.9l3,5h-2.4l-1.9-3.5l-1.9,3.5h-2.5l3-5l-2.9-4.9h2.4L132.8,377.8z"/>
			<path class="st8" d="M138.6,385.2h-1.5l3.7-10.8h1.5L138.6,385.2z"/>
			<path class="st8" d="M145.1,378.5h1.1c0.5,0,0.9-0.1,1.1-0.4s0.4-0.6,0.4-1s-0.1-0.7-0.4-0.9s-0.6-0.3-1-0.3
				c-0.4,0-0.7,0.1-1,0.3c-0.3,0.2-0.4,0.5-0.4,0.8h-2c0-0.5,0.1-1,0.4-1.4s0.7-0.7,1.2-1s1.1-0.3,1.7-0.3c1.1,0,1.9,0.3,2.5,0.8
				c0.6,0.5,0.9,1.2,0.9,2.1c0,0.5-0.1,0.9-0.4,1.3s-0.6,0.7-1.1,0.9c0.6,0.2,1,0.5,1.3,0.9s0.4,0.9,0.4,1.4c0,0.9-0.3,1.6-1,2.1
				s-1.5,0.8-2.6,0.8c-1,0-1.8-0.3-2.4-0.8c-0.6-0.5-0.9-1.2-0.9-2.1h2c0,0.4,0.1,0.7,0.4,0.9s0.6,0.4,1,0.4c0.5,0,0.8-0.1,1.1-0.4
				c0.3-0.2,0.4-0.6,0.4-1c0-1-0.5-1.5-1.6-1.5h-1v-1.6H145.1z"/>
		</g>
		<line class="st7" x1="139.4" y1="307" x2="139.4" y2="364.5"/>
	</g>
</g>
</svg>
