<?xml version="1.0" encoding="utf-8"?>
<!-- Generator: Adobe Illustrator 19.1.0, SVG Export Plug-In . SVG Version: 6.00 Build 0)  -->
<svg version="1.1" id="Layer_1" xmlns="http://www.w3.org/2000/svg" xmlns:xlink="http://www.w3.org/1999/xlink" x="0px" y="0px"
	 viewBox="-59 67 672 480" style="enable-background:new -59 67 672 480;" xml:space="preserve">
<style type="text/css">
	.st0{fill:#FFFFFF;}
	.st1{opacity:0.1;}
	.st2{fill:#22ADF6;}
	.st3{fill:none;stroke:#22ADF6;stroke-width:2;stroke-miterlimit:10;}
	.st4{fill:#757888;}
	.st5{enable-background:new    ;}
	.st6{fill:#FF7D55;}
	.st7{fill:none;stroke:#FF7D55;stroke-width:2;stroke-miterlimit:10;}
</style>
<rect x="-59" y="67" class="st0" width="672" height="480"/>
<g id="Spacing">
	<g class="st1">
		<rect x="-36.1" y="191.8" class="st2" width="626.3" height="230.3"/>
	</g>
	<path class="st3" d="M590.1,191.8v230.3H-36.1V191.8H590.1"/>
	<rect x="32.4" y="260.3" class="st0" width="91.9" height="93.3"/>
	<rect x="32.4" y="260.3" class="st3" width="91.9" height="93.3"/>
	<rect x="153.3" y="271.8" class="st0" width="367.9" height="77.1"/>
	<rect x="153.3" y="271.8" class="st3" width="368.4" height="77.1"/>
	<g>
		<path class="st4" d="M123.6,316.6l-8.8-38.3c-0.5-2.1-2.4-4.2-4.5-4.8l-40.2-12.4c-0.5-0.2-1.1-0.2-1.7-0.2
			c-1.7,0-3.5,0.7-4.7,1.7l-28.8,26.8c-1.6,1.4-2.4,4.2-1.9,6.2l9.4,41c0.5,2.1,2.4,4.2,4.5,4.8L84.5,353c0.5,0.2,1.1,0.2,1.7,0.2
			c1.7,0,3.5-0.7,4.7-1.7l30.8-28.6C123.3,321.4,124.1,318.7,123.6,316.6z M74.3,270.2l27.6,8.5c1.1,0.3,1.1,0.8,0,1.1l-14.5,3.3
			c-1.1,0.3-2.6-0.2-3.4-1l-10.1-10.9C73,270.3,73.2,269.9,74.3,270.2z M91.5,319.7c0.3,1.1-0.4,1.7-1.5,1.4l-29.8-9.2
			c-1.1-0.3-1.3-1.2-0.5-2l22.8-21.2c0.8-0.8,1.7-0.5,2,0.6L91.5,319.7z M42.4,292.7l24.2-22.5c0.8-0.8,2.1-0.7,2.9,0.1l12.1,13.1
			c0.8,0.8,0.7,2.1-0.1,2.9l-24.2,22.5c-0.8,0.8-2.1,0.7-2.9-0.1l-12.1-13.1C41.5,294.7,41.6,293.4,42.4,292.7z M48.3,328.4
			l-6.4-28.1c-0.3-1.1,0.2-1.3,0.9-0.5l10.1,10.9c0.8,0.8,1.1,2.4,0.8,3.5l-4.4,14.2C49,329.5,48.5,329.5,48.3,328.4z M83.7,344.8
			l-31.6-9.7c-1.1-0.3-1.7-1.5-1.4-2.6l5.3-17c0.3-1.1,1.5-1.7,2.6-1.4l31.6,9.7c1.1,0.3,1.7,1.5,1.4,2.6l-5.3,17
			C85.9,344.5,84.8,345.1,83.7,344.8z M111.7,321.8l-21.1,19.6c-0.8,0.8-1.2,0.5-0.9-0.6l4.4-14.2c0.3-1.1,1.5-2.2,2.6-2.4l14.5-3.3
			C112.3,320.6,112.5,321.1,111.7,321.8z M114,317.6l-17.4,4c-1.1,0.3-2.2-0.4-2.5-1.5l-7.4-32.2c-0.3-1.1,0.4-2.2,1.5-2.5l17.4-4
			c1.1-0.3,2.2,0.4,2.5,1.5l7.4,32.2C115.8,316.3,115.1,317.4,114,317.6z"/>
		<g>
			<path class="st4" d="M508.3,280.5H507l1-5.6h-1.9l0.2-1.1h5l-0.2,1.1h-1.9L508.3,280.5z"/>
			<path class="st4" d="M517.1,276.2l-1.9,3.4h-1.3l-0.6-3.4l-1,4.3H511l1.5-6.7h1.3l0.9,4.5l2.5-4.5h1.4l-0.8,6.7h-1.2L517.1,276.2
				z"/>
		</g>
		<g>
			<path class="st4" d="M383.6,330.1c-0.1,1,0.3,1.2,0.7,1.2h2.4c0.9,0,1.1-0.8,1.1-1.2l9.8-55.7c0.2-1-0.5-1.2-1-1.1l0,0l-2.6,0.4
				c-0.7,0.1-1.1,0.7-1.1,1.1l0,0l-2.8,16.2c-2.5-0.8-7.2-1.3-9.9-1.3c-10.4,0-15.4,4-17.3,15.1l-3.1,17.5c-0.2,1.1-0.3,2.1-0.3,3
				c0,5,2.8,6.9,8,6.9c5.9,0,12-2.8,16.7-6.8L383.6,330.1z M368,328c-2.5,0-3.8-0.7-3.8-3.3c0-0.7,0.1-1.4,0.3-2.4l2.9-16.7
				c1.6-9.1,4.7-11.7,12.2-11.7c3.3,0,6.5,0.5,9.8,1.3l-4.4,24.7C379.7,324.6,373.2,328,368,328z"/>
			<path class="st4" d="M425,330.1c-0.1,1,0.3,1.2,0.8,1.2h2.4c0.9,0,1.1-0.8,1.1-1.2l0,0l6.7-37.7c-4.8-1.8-10.3-2.7-14.1-2.7
				c-11,0-15.4,4.4-17.3,15.1l-3.1,17.5c-0.2,1.1-0.3,2.1-0.3,3c0,5,2.8,6.9,8,6.9c5.9,0,11.7-2.8,16.4-6.8L425,330.1z M409.6,328
				c-2.5,0-3.8-0.7-3.8-3.3c0-0.7,0.1-1.4,0.3-2.4l2.9-16.7c1.6-9,4.5-11.7,12.2-11.7c3.4,0,7.3,0.7,9.6,1.3l-4.4,24.7
				C421.1,324.6,414.7,328,409.6,328z"/>
			<path class="st4" d="M491.9,330.1c-0.1,1,0.3,1.2,0.7,1.2h2.4c0.9,0,1.1-0.8,1.1-1.2l0,0l6.7-37.7c-4.8-1.8-10.3-2.7-14.1-2.7
				c-11,0-15.4,4.4-17.3,15.1l-3.1,17.5c-0.2,1.1-0.3,2.1-0.3,3c0,5,2.8,6.9,8,6.9c5.9,0,11.7-2.8,16.4-6.8L491.9,330.1z M476.6,328
				c-2.5,0-3.8-0.7-3.8-3.3c0-0.7,0.1-1.4,0.3-2.4l2.9-16.7c1.6-9,4.5-11.7,12.2-11.7c3.4,0,7.3,0.7,9.6,1.3l-4.4,24.7
				C488.1,324.6,481.7,328,476.6,328z"/>
			<g>
				<path class="st4" d="M452.5,280.5L452.5,280.5L452.5,280.5z"/>
				<path class="st4" d="M466.5,293.9L466.5,293.9l0.6-2.7c0.2-0.7-0.2-0.7-0.6-0.7H455l1.6-9.4l0,0c0.2-1-0.5-1.2-1-1.1l0,0
					l-2.6,0.4l0,0c-0.7,0.1-1.1,0.7-1.1,1.1l0,0l-1.6,9h-7.1c-0.2,0-0.8,0.1-0.9,0.7l-0.4,2.6l0,0c0,0.2,0,0.7,0.7,0.7h7l-5.4,30.6
					c-0.1,0.6-0.2,1.1-0.2,1.6c0,3.7,2.6,5.4,6.7,5.4c3.2,0,8.9-0.9,11.8-2.3c0.9-0.5,0.8-1.1,0.6-1.5l0,0l-0.6-1.6
					c-0.1-0.4-0.6-0.3-0.9-0.2l0,0c-2.8,1.1-4.4,1.7-10.1,1.7c-1.9,0-2.8-0.4-2.8-2c0-0.4,0.1-0.9,0.2-1.5l5.3-30.1h11.4
					C466.2,294.5,466.4,294.3,466.5,293.9z"/>
			</g>
			<path class="st4" d="M356.3,290.5h-11.7c-0.5,0-1.1,0.4-1.4,0.8l-8.3,12.1l-4.9-12.6c-0.3-0.7-0.9-0.9-1.5-0.8l-10.2,1.5
				l8.8,19.4l-16.2,20.5h11c0.7,0,1.8-0.4,2.3-1l7.6-9.2l4.3,9.2c0.2,0.5,0.9,1,1.6,1h10.7l-8.6-18.9L356.3,290.5z"/>
			<path class="st4" d="M305.9,330.6l7-39.9c0.1-0.8-0.5-0.8-1-0.7l-9.8,1.3c-1.1,0.2-1.4,0.9-1.4,1.3l0,0l-4.2,24.2
				c-3,1.5-8.4,3.9-10.6,3.9c-1.2,0-1.6-0.4-1.6-1.3c0-0.3,0.1-0.8,0.2-1.3l4.8-27.5l0,0c0.1-0.8-0.5-0.8-0.9-0.7l-9.8,1.4l0,0
				c-1.1,0.2-1.4,0.9-1.4,1.3l0,0l-4.7,26.6c-0.3,1.7-0.4,3-0.4,4.7c0,5.1,2.1,8.3,7.5,8.3c4.7,0,9.7-1.6,16.1-4.6l0.1,3
				c0,0.2,0.1,0.7,0.5,0.7h9C305.7,331.3,305.9,330.9,305.9,330.6z"/>
			<path class="st4" d="M208.8,289.7c-4.7,0-9.7,1.6-16.1,4.6l0.1-3.6c0-0.9-0.7-0.8-1.1-0.7l-7.7,1.3l0,0c-1.3,0.2-1.7,1-1.8,1.4
				l-6.4,36.8l0,0c-0.3,1.7-0.2,1.8,1.2,1.8h8.8c1,0,1.5,0,1.8-1.8l4.3-24.5c3.2-1.7,8.4-3.9,10.6-3.9c1.2,0,1.6,0.3,1.6,1.2
				c0,0.3-0.1,0.8-0.2,1.3l-4.5,25.9l0,0c-0.3,1.7-0.2,1.8,1.2,1.8h8.8c1,0,1.5,0,1.8-1.8l4.7-26.8c0.3-2.1,0.4-3.3,0.4-4.7
				C216.3,292.8,214.3,289.7,208.8,289.7z"/>
			<g>
				<path class="st4" d="M174.9,271.9l-9.8,1.4c-1.1,0.1-1.3,0.9-1.4,1.3l-1.8,10.2c-0.2,1.2-0.1,1.2,1,1.1l9.7-1.3l0,0
					c1-0.1,1.2-0.2,1.4-1.5l0,0l1.9-10.6C176,271.8,175.8,271.8,174.9,271.9z"/>
				<path class="st4" d="M160.7,291.4L160.7,291.4L160.7,291.4z"/>
				<path class="st4" d="M165.8,329.5L165.8,329.5l6.9-38.8c0.1-0.8-0.5-0.8-1-0.7l-9.8,1.3l0,0c-1.1,0.2-1.4,0.9-1.4,1.3l0,0
					l-6.6,37.2c-0.2,1.4,0,1.6,1.3,1.6h8.8C164.9,331.3,165.4,331.3,165.8,329.5z"/>
			</g>
			<path class="st4" d="M262.7,329.5l9.9-56.4c0.1-0.8-0.3-0.8-0.8-0.7l-11.3,1.9c-5.1-1.4-10.9-2-14.2-2c-10.5,0-14,3.6-15.7,13
				l-0.9,5.4h-4.6c-1.2,0-1.3,0.6-1.4,1.1l0,0l-1.4,7.8c-0.1,0.3,0.1,0.7,0.6,0.7h5.1l-5.5,31.2c-0.6,3.7-1.2,5.9-4.7,9.6l0,0
				c-0.7,0.7-0.5,0.9,0,1.3l0,0l6.2,5.8l0,0c0.6,0.6,0.9,0.5,1.6-0.2c5.7-5.8,7.5-9.7,8.5-15.1l5.7-32.5h9.1c0.5,0,0.6,0,0.8-0.6
				l0,0l2.1-8.2l0,0c0.2-0.6-0.4-0.8-0.8-0.8h-9.5l1.1-5.9c0.4-2.1,1.3-2.8,3.9-2.8c3.5,0,9.2,0.7,12.4,1.5l-8.1,46.2l0,0
				c-0.3,1.7-0.2,1.8,1.2,1.8h8.8C261.9,331.3,262.4,331.3,262.7,329.5z"/>
		</g>
	</g>
	<line class="st3" x1="78.3" y1="260.8" x2="78.3" y2="191.8"/>
	<line class="st3" x1="32.9" y1="307" x2="-36.1" y2="307"/>
	<line class="st3" x1="78.3" y1="353.2" x2="78.3" y2="422.2"/>
	<line class="st3" x1="521.1" y1="307" x2="590.1" y2="307"/>
	<g class="st5">
		<path class="st2" d="M92.8,224.8l1.9-3.4h2.4l-2.9,4.9l3,5h-2.4l-1.9-3.5l-1.9,3.5h-2.4l3-5l-2.9-4.9h2.2L92.8,224.8z"/>
		<path class="st2" d="M107.8,226.2h-6.1v-1.6h6.1V226.2z M107.8,229.2h-6.1v-1.6h6.1V229.2z"/>
	</g>
	<g class="st5">
		<path class="st6" d="M121.2,227.2c0,1.4-0.3,2.4-0.9,3.2s-1.4,1.1-2.5,1.1s-1.9-0.4-2.5-1.1s-0.9-1.7-0.9-3.1v-1.8
			c0-1.4,0.3-2.4,0.9-3.2s1.4-1.1,2.5-1.1s1.9,0.4,2.5,1.1c0.6,0.7,0.9,1.7,0.9,3.1V227.2z M119.2,225.2c0-0.8-0.1-1.4-0.3-1.8
			s-0.6-0.6-1.1-0.6s-0.8,0.2-1,0.5s-0.3,0.9-0.4,1.7v2.4c0,0.8,0.1,1.4,0.3,1.8s0.6,0.6,1.1,0.6s0.8-0.2,1-0.6
			c0.2-0.4,0.3-1,0.3-1.7L119.2,225.2L119.2,225.2z"/>
		<path class="st6" d="M122.7,230.4c0-0.3,0.1-0.6,0.3-0.8s0.5-0.3,0.8-0.3s0.6,0.1,0.8,0.3s0.3,0.5,0.3,0.8s-0.1,0.6-0.3,0.8
			c-0.2,0.2-0.5,0.3-0.8,0.3s-0.6-0.1-0.8-0.3C122.8,230.9,122.7,230.7,122.7,230.4z"/>
		<path class="st6" d="M133.4,222.5l-3.8,8.9h-2.1l3.9-8.4h-4.9v-1.6h7L133.4,222.5L133.4,222.5z"/>
		<path class="st6" d="M134.9,226.4l0.6-5.1h5.6v1.6h-4l-0.2,2.1c0.5-0.3,1-0.4,1.5-0.4c0.9,0,1.7,0.3,2.2,0.9s0.8,1.4,0.8,2.5
			c0,0.6-0.1,1.2-0.4,1.7s-0.7,0.9-1.2,1.2s-1.1,0.4-1.8,0.4c-0.6,0-1.2-0.1-1.7-0.4c-0.5-0.2-0.9-0.6-1.2-1
			c-0.3-0.4-0.5-0.9-0.5-1.5h2c0,0.4,0.2,0.7,0.4,1c0.2,0.2,0.6,0.3,1,0.3c0.4,0,0.8-0.2,1-0.5s0.4-0.8,0.4-1.4c0-0.6-0.1-1-0.4-1.3
			s-0.7-0.5-1.2-0.5s-0.9,0.1-1.1,0.4l-0.2,0.2L134.9,226.4z"/>
		<path class="st6" d="M144.9,229.7h4.4v1.6h-6.4v-10h2.1L144.9,229.7L144.9,229.7z"/>
	</g>
	<g class="st5">
		<path class="st6" d="M142.8,310.4h4.4v1.6h-6.4v-10h2.1v8.4H142.8z"/>
	</g>
	<g class="st5">
		<path class="st2" d="M92.8,386.1l1.9-3.4h2.4l-2.9,4.9l3,5h-2.4l-1.9-3.5l-1.9,3.5h-2.4l3-5l-2.9-4.9h2.2L92.8,386.1z"/>
	</g>
	<g class="st5">
		<path class="st2" d="M-1.8,294.5l1.9-3.4h2.4l-2.9,4.9l3,5H0.2l-1.9-3.5l-1.9,3.5h-2.5l3-5l-2.9-4.9h2.4L-1.8,294.5z"/>
	</g>
	<g class="st5">
		<path class="st2" d="M555.6,294.5l1.9-3.4h2.4L557,296l3,5h-2.4l-1.9-3.5l-1.9,3.5h-2.5l3-5l-2.9-4.9h2.4L555.6,294.5z"/>
	</g>
	<line class="st7" x1="131.9" y1="260.8" x2="131.9" y2="353.2"/>
</g>
</svg>
