<?xml version="1.0" encoding="utf-8"?>
<!-- Generator: Adobe Illustrator 19.1.0, SVG Export Plug-In . SVG Version: 6.00 Build 0)  -->
<svg version="1.1" id="Layer_1" xmlns="http://www.w3.org/2000/svg" xmlns:xlink="http://www.w3.org/1999/xlink" x="0px" y="0px"
	 viewBox="-113 36 672 530" style="enable-background:new -113 36 672 530;" xml:space="preserve">
<style type="text/css">
	.st0{fill:#FFFFFF;}
	.st1{fill:#22ADF6;}
	.st2{fill:#757888;}
	.st3{enable-background:new    ;}
</style>
<rect x="-113" y="36" class="st0" width="672" height="530"/>
<g id="Symbol_Spacing_copy">
	<g>
		<g>
			<g>
				<rect x="94.4" y="172.5" class="st0" width="256.5" height="256.5"/>
				<path class="st1" d="M349.4,174.1v253.4H96V174.1H349.4 M352.5,171h-3.1H96h-3.1v3.1v253.4v3.1H96h253.4h3.1v-3.1V174.1V171
					L352.5,171z"/>
			</g>
			<path class="st2" d="M347.1,327l-24.1-105.2c-1.3-5.6-6.7-11.4-12.3-13.2l-110.5-33.9c-1.4-0.5-3.1-0.6-4.7-0.6
				c-4.7,0-9.7,1.8-12.8,4.6l-79.1,73.5c-4.4,4-6.7,11.5-5.2,17.2l25.9,112.6c1.4,5.6,6.7,11.4,12.3,13.2l103.2,31.7
				c1.4,0.5,3.1,0.6,4.7,0.6c4.7,0,9.7-1.8,12.8-4.6l84.6-78.6C346,340.2,348.3,332.5,347.1,327z M211.6,199.8l75.5,23.3
				c2.9,0.9,2.9,2.2-0.1,2.9l-39.9,9.1c-3.1,0.6-7.2-0.6-9.3-2.9l-27.8-30C207.9,199.8,208.5,198.8,211.6,199.8z M258.8,335.6
				c0.6,3.1-1.3,4.7-4.1,3.8l-81.8-25.2c-2.9-0.9-3.6-3.3-1.3-5.5l62.7-58.2c2.3-2.2,4.7-1.4,5.4,1.7L258.8,335.6z M124,261.2
				l66.3-61.6c2.3-2.2,5.9-2,7.9,0.3l33.3,35.8c2.2,2.3,2,5.9-0.3,7.9L165,305.3c-2.3,2.2-5.9,2-7.9-0.3l-33.3-35.8
				C121.7,267.1,121.7,263.4,124,261.2z M140.1,359.4l-17.7-77.1c-0.6-3.1,0.5-3.7,2.6-1.4l27.8,30c2.2,2.3,3.1,6.7,2.2,9.5
				l-12,39.2C142.2,362.5,140.9,362.5,140.1,359.4z M237.4,404.5l-86.7-26.8c-2.9-0.9-4.6-4.1-3.7-7l14.5-46.8
				c0.9-2.9,4.1-4.6,7-3.7l86.7,26.8c2.9,0.9,4.6,4.1,3.7,7l-14.5,46.8C243.4,403.4,240.4,405.4,237.4,404.5z M314.2,341.5
				l-58.1,53.8c-2.3,2.2-3.3,1.4-2.4-1.5l12-39.2c0.9-2.9,4.1-6,7.2-6.7l39.9-9.1C315.9,338,316.5,339.3,314.2,341.5z M320.6,329.7
				l-47.7,10.9c-3.1,0.6-6-1.3-6.8-4.4l-20.2-88.3c-0.6-3.1,1.3-6,4.4-6.8l47.7-10.9c3.1-0.6,6,1.3,6.8,4.4l20.2,88.3
				C325.6,326.3,323.6,329.3,320.6,329.7z"/>
		</g>
		<g class="st3">
			<path class="st1" d="M222.3,134.5l2.4-4.5h3.1l-3.8,6.4l3.8,6.7h-3.1l-2.4-4.6l-2.4,4.6h-3.1l3.8-6.7l-3.8-6.4h3.1L222.3,134.5z"
				/>
		</g>
		<g class="st3">
			<path class="st1" d="M379.8,296.6l2.4-4.5h3.1l-3.8,6.4l3.8,6.7h-3.1l-2.4-4.6l-2.4,4.6h-3.1l3.8-6.7l-3.8-6.4h3.1L379.8,296.6z"
				/>
		</g>
	</g>
</g>
</svg>
