<?xml version="1.0" encoding="utf-8"?>
<!-- Generator: Adobe Illustrator 19.1.0, SVG Export Plug-In . SVG Version: 6.00 Build 0)  -->
<svg version="1.1" id="Layer_1" xmlns="http://www.w3.org/2000/svg" xmlns:xlink="http://www.w3.org/1999/xlink" x="0px" y="0px"
	 viewBox="-383 211 672 480" style="enable-background:new -383 211 672 480;" xml:space="preserve">
<style type="text/css">
	.st0{fill:#FFFFFF;}
	.st1{fill:#757888;}
	.st2{fill:#FF8564;}
	.st3{fill:none;stroke:#FF8564;stroke-width:2;stroke-miterlimit:10;}
</style>
<rect x="-383" y="211" class="st0" width="672" height="480"/>
<g>
	<path class="st1" d="M-123.8,634.3c-1.8,10.2-1.2,10.8,7.2,10.8h53c6,0,9,0,10.8-10.8l28.3-161.4c1.8-12.6,2.4-19.9,2.4-28.3
		c0-31.3-12-50-45.2-50c-28.3,0-58.4,9.6-96.9,27.7l0.6-21.7c0-5.4-4.2-4.8-6.6-4.2l-46.4,7.8c-7.8,1.2-10.2,6-10.8,8.4l-38.5,221.6
		c-1.8,10.2-1.2,10.8,7.2,10.8h53c6,0,9,0,10.8-10.8l25.9-147.5c19.3-10.2,50.6-23.5,63.8-23.5c7.2,0,9.6,1.8,9.6,7.2
		c0,1.8-0.6,4.8-1.2,7.8L-123.8,634.3z"/>
	<path class="st1" d="M289,294.4l-44.9,7.6c-30.7-8.4-65.6-12-85.5-12c-63.2,0-84.3,21.7-94.5,78.3l-5.4,32.5H30.9
		c-7.2,0-7.8,3.6-8.4,6.6l-8.4,47c-0.6,1.8,0.6,4.2,3.6,4.2h30.7L15.3,646.3c-2.8,17.5-5.7,29.5-17.1,44.7h76.1
		c5.2-11.5,8.4-23.1,10.8-36.2l34.3-195.7h54.8c3,0,3.6,0,4.8-3.6l12.6-49.4c1.2-3.6-2.4-4.8-4.8-4.8h-57.2l6.6-35.5
		c2.4-12.6,7.8-16.9,23.5-16.9c21.1,0,55.4,4.2,74.7,9l-48.8,278.2c-1.8,10.2-1.2,10.8,7.2,10.8h53c6.6-1.8,9.6-1.8,11.4-12.6
		L289,453.9V294.4z"/>
	<path class="st1" d="M-383,645.7h46c5.4-0.6,8.4-0.6,10.8-11.4l41.5-233.6c0.6-4.8-3-4.8-6-4.2l-59,7.8c-6.6,1.2-8.4,5.4-8.4,7.8
		l-25,140.8V645.7z"/>
	<path class="st1" d="M-271.3,287.5l-59,8.4c-6.6,0.6-7.8,5.4-8.4,7.8l-10.8,61.4c-1.2,7.2-0.6,7.2,6,6.6l58.4-7.8
		c6-0.6,7.2-1.2,8.4-9l11.4-63.8C-264.7,286.9-265.9,286.9-271.3,287.5z"/>
</g>
<g>
	<path class="st2" d="M-165.3,260.4c0-0.4-0.1-0.7-0.4-0.9c-0.3-0.2-0.8-0.4-1.5-0.7c-0.7-0.2-1.3-0.5-1.7-0.7
		c-1.1-0.6-1.7-1.4-1.7-2.5c0-0.5,0.2-1,0.5-1.4c0.3-0.4,0.7-0.8,1.3-1s1.2-0.4,1.9-0.4c0.7,0,1.3,0.1,1.9,0.4
		c0.6,0.3,1,0.6,1.3,1.1s0.5,1,0.5,1.6h-2.1c0-0.5-0.1-0.8-0.4-1.1c-0.3-0.3-0.7-0.4-1.2-0.4c-0.5,0-0.9,0.1-1.2,0.3
		c-0.3,0.2-0.4,0.5-0.4,0.8c0,0.3,0.2,0.6,0.5,0.8s0.8,0.4,1.4,0.6c1.2,0.4,2,0.8,2.5,1.3s0.8,1.2,0.8,1.9c0,0.9-0.3,1.5-1,2
		c-0.7,0.5-1.5,0.7-2.6,0.7c-0.8,0-1.5-0.1-2.1-0.4c-0.6-0.3-1.1-0.7-1.4-1.2s-0.5-1.1-0.5-1.7h2.1c0,1.1,0.7,1.6,2,1.6
		c0.5,0,0.9-0.1,1.1-0.3C-165.4,261-165.3,260.8-165.3,260.4z"/>
	<path class="st2" d="M-157.5,262.3c-0.5,0.6-1.2,0.9-2,0.9c-0.8,0-1.4-0.2-1.8-0.7s-0.6-1.1-0.6-2v-4.8h2v4.8
		c0,0.8,0.4,1.2,1.1,1.2c0.7,0,1.1-0.2,1.4-0.7v-5.2h2v7.4h-1.9L-157.5,262.3z"/>
	<path class="st2" d="M-147.5,259.4c0,1.2-0.3,2.1-0.8,2.8c-0.5,0.7-1.2,1-2.1,1c-0.8,0-1.4-0.3-1.9-0.9l-0.1,0.8h-1.8v-10.5h2v3.8
		c0.5-0.5,1.1-0.8,1.8-0.8c0.9,0,1.6,0.3,2.1,1c0.5,0.7,0.8,1.6,0.8,2.8V259.4z M-149.4,259.2c0-0.8-0.1-1.3-0.4-1.6
		c-0.2-0.3-0.6-0.5-1.1-0.5c-0.6,0-1.1,0.3-1.3,0.8v2.9c0.2,0.5,0.7,0.8,1.3,0.8c0.6,0,1.1-0.3,1.3-0.9
		C-149.5,260.3-149.4,259.9-149.4,259.2z"/>
	<path class="st2" d="M-143.9,253.8v1.8h1.3v1.4h-1.3v3.7c0,0.3,0.1,0.5,0.2,0.6s0.3,0.2,0.6,0.2c0.2,0,0.4,0,0.6,0v1.5
		c-0.4,0.1-0.8,0.2-1.2,0.2c-1.4,0-2.1-0.7-2.1-2.1v-4h-1.1v-1.4h1.1v-1.8H-143.9z"/>
	<path class="st2" d="M-139.4,263h-2v-10.5h2V263z"/>
	<path class="st2" d="M-134.4,263.2c-1.1,0-2-0.3-2.6-1s-1-1.6-1-2.7v-0.2c0-0.7,0.1-1.4,0.4-2c0.3-0.6,0.7-1,1.2-1.4
		c0.5-0.3,1.1-0.5,1.8-0.5c1,0,1.8,0.3,2.4,1s0.9,1.5,0.9,2.7v0.8h-4.7c0.1,0.5,0.3,0.9,0.6,1.2s0.7,0.4,1.2,0.4
		c0.8,0,1.4-0.3,1.8-0.8l1,1.1c-0.3,0.4-0.7,0.7-1.2,1C-133.2,263-133.8,263.2-134.4,263.2z M-134.6,257.1c-0.4,0-0.7,0.1-1,0.4
		s-0.4,0.6-0.5,1.1h2.7v-0.2c0-0.4-0.1-0.8-0.4-1S-134.2,257.1-134.6,257.1z"/>
	<path class="st2" d="M-122.9,259.4h-1.6v3.6h-2.1v-10h3.7c1.2,0,2.1,0.3,2.7,0.8s1,1.3,1,2.2c0,0.7-0.1,1.2-0.4,1.7
		c-0.3,0.5-0.7,0.8-1.3,1.1l2.2,4.1v0.1h-2.2L-122.9,259.4z M-124.6,257.7h1.7c0.5,0,0.9-0.1,1.2-0.4c0.3-0.3,0.4-0.6,0.4-1.1
		c0-0.5-0.1-0.8-0.4-1.1s-0.7-0.4-1.2-0.4h-1.6V257.7z"/>
	<path class="st2" d="M-118.1,259.2c0-0.7,0.1-1.4,0.4-2s0.7-1,1.2-1.3s1.1-0.5,1.8-0.5c1,0,1.8,0.3,2.4,0.9s1,1.4,1.1,2.5l0,0.5
		c0,1.1-0.3,2-1,2.7c-0.6,0.7-1.5,1-2.5,1s-1.9-0.3-2.6-1S-118.1,260.5-118.1,259.2L-118.1,259.2z M-116.2,259.4
		c0,0.7,0.1,1.2,0.4,1.6s0.6,0.6,1.1,0.6c0.5,0,0.9-0.2,1.1-0.6c0.3-0.4,0.4-1,0.4-1.8c0-0.7-0.1-1.2-0.4-1.6s-0.6-0.6-1.1-0.6
		c-0.5,0-0.9,0.2-1.1,0.6C-116,258-116.2,258.6-116.2,259.4z"/>
	<path class="st2" d="M-105.5,262.3c-0.5,0.6-1.2,0.9-2,0.9c-0.8,0-1.4-0.2-1.8-0.7s-0.6-1.1-0.6-2v-4.8h2v4.8
		c0,0.8,0.4,1.2,1.1,1.2c0.7,0,1.1-0.2,1.4-0.7v-5.2h2v7.4h-1.9L-105.5,262.3z"/>
	<path class="st2" d="M-100.3,255.6l0.1,0.9c0.5-0.7,1.2-1,2.1-1c0.8,0,1.4,0.2,1.8,0.7s0.6,1.1,0.6,2.1v4.8h-2v-4.7
		c0-0.4-0.1-0.7-0.3-0.9s-0.5-0.3-0.9-0.3c-0.6,0-1,0.2-1.3,0.7v5.2h-2v-7.4H-100.3z"/>
	<path class="st2" d="M-94.5,259.3c0-1.2,0.3-2.1,0.8-2.8s1.2-1,2.1-1c0.7,0,1.3,0.3,1.8,0.8v-3.8h2V263h-1.8l-0.1-0.8
		c-0.5,0.6-1.1,0.9-1.9,0.9c-0.9,0-1.6-0.3-2.1-1C-94.3,261.4-94.5,260.5-94.5,259.3z M-92.6,259.4c0,0.7,0.1,1.2,0.4,1.6
		c0.2,0.4,0.6,0.6,1.1,0.6c0.6,0,1-0.3,1.3-0.8v-2.9c-0.2-0.5-0.7-0.8-1.3-0.8C-92.1,257.1-92.6,257.9-92.6,259.4z"/>
	<path class="st2" d="M-82.9,263.2c-1.1,0-2-0.3-2.6-1s-1-1.6-1-2.7v-0.2c0-0.7,0.1-1.4,0.4-2c0.3-0.6,0.7-1,1.2-1.4
		c0.5-0.3,1.1-0.5,1.8-0.5c1,0,1.8,0.3,2.4,1s0.9,1.5,0.9,2.7v0.8h-4.7c0.1,0.5,0.3,0.9,0.6,1.2s0.7,0.4,1.2,0.4
		c0.8,0,1.4-0.3,1.8-0.8l1,1.1c-0.3,0.4-0.7,0.7-1.2,1C-81.8,263-82.3,263.2-82.9,263.2z M-83.2,257.1c-0.4,0-0.7,0.1-1,0.4
		s-0.4,0.6-0.5,1.1h2.7v-0.2c0-0.4-0.1-0.8-0.4-1S-82.7,257.1-83.2,257.1z"/>
	<path class="st2" d="M-79.1,259.3c0-1.2,0.3-2.1,0.8-2.8s1.2-1,2.1-1c0.7,0,1.3,0.3,1.8,0.8v-3.8h2V263h-1.8l-0.1-0.8
		c-0.5,0.6-1.1,0.9-1.9,0.9c-0.9,0-1.6-0.3-2.1-1C-78.8,261.4-79.1,260.5-79.1,259.3z M-77.1,259.4c0,0.7,0.1,1.2,0.4,1.6
		c0.2,0.4,0.6,0.6,1.1,0.6c0.6,0,1-0.3,1.3-0.8v-2.9c-0.2-0.5-0.7-0.8-1.3-0.8C-76.6,257.1-77.1,257.9-77.1,259.4z"/>
	<path class="st2" d="M-59.5,259.7c-0.1,1.1-0.5,1.9-1.2,2.5s-1.7,0.9-2.8,0.9c-1.3,0-2.3-0.4-3-1.3c-0.7-0.9-1.1-2-1.1-3.5v-0.6
		c0-1,0.2-1.8,0.5-2.5s0.8-1.3,1.4-1.7c0.6-0.4,1.4-0.6,2.2-0.6c1.1,0,2.1,0.3,2.8,0.9s1.1,1.5,1.2,2.6h-2.1
		c-0.1-0.6-0.2-1.1-0.5-1.4c-0.3-0.3-0.8-0.4-1.4-0.4c-0.7,0-1.2,0.2-1.5,0.7c-0.3,0.5-0.5,1.2-0.5,2.3v0.8c0,1.1,0.2,1.9,0.5,2.4
		s0.8,0.7,1.5,0.7c0.6,0,1.1-0.1,1.4-0.4c0.3-0.3,0.5-0.7,0.5-1.3H-59.5z"/>
	<path class="st2" d="M-58.5,259.2c0-0.7,0.1-1.4,0.4-2s0.7-1,1.2-1.3s1.1-0.5,1.8-0.5c1,0,1.8,0.3,2.4,0.9s1,1.4,1.1,2.5l0,0.5
		c0,1.1-0.3,2-1,2.7c-0.6,0.7-1.5,1-2.5,1s-1.9-0.3-2.6-1S-58.5,260.5-58.5,259.2L-58.5,259.2z M-56.6,259.4c0,0.7,0.1,1.2,0.4,1.6
		s0.6,0.6,1.1,0.6c0.5,0,0.9-0.2,1.1-0.6c0.3-0.4,0.4-1,0.4-1.8c0-0.7-0.1-1.2-0.4-1.6s-0.6-0.6-1.1-0.6c-0.5,0-0.9,0.2-1.1,0.6
		C-56.4,258-56.6,258.6-56.6,259.4z"/>
	<path class="st2" d="M-46.2,257.5c-0.3,0-0.5-0.1-0.7-0.1c-0.7,0-1.2,0.3-1.5,0.8v4.8h-2v-7.4h1.9l0.1,0.9c0.4-0.7,0.9-1,1.6-1
		c0.2,0,0.4,0,0.6,0.1L-46.2,257.5z"/>
	<path class="st2" d="M-43.4,255.6l0.1,0.9c0.5-0.7,1.2-1,2.1-1c0.8,0,1.4,0.2,1.8,0.7s0.6,1.1,0.6,2.1v4.8h-2v-4.7
		c0-0.4-0.1-0.7-0.3-0.9c-0.2-0.2-0.5-0.3-0.9-0.3c-0.6,0-1,0.2-1.3,0.7v5.2h-2v-7.4H-43.4z"/>
	<path class="st2" d="M-34,263.2c-1.1,0-2-0.3-2.6-1c-0.7-0.7-1-1.6-1-2.7v-0.2c0-0.7,0.1-1.4,0.4-2c0.3-0.6,0.7-1,1.2-1.4
		c0.5-0.3,1.1-0.5,1.8-0.5c1,0,1.8,0.3,2.4,1s0.9,1.5,0.9,2.7v0.8h-4.7c0.1,0.5,0.3,0.9,0.6,1.2s0.7,0.4,1.2,0.4
		c0.8,0,1.4-0.3,1.8-0.8l1,1.1c-0.3,0.4-0.7,0.7-1.2,1C-32.8,263-33.4,263.2-34,263.2z M-34.2,257.1c-0.4,0-0.7,0.1-1,0.4
		c-0.2,0.3-0.4,0.6-0.5,1.1h2.7v-0.2c0-0.4-0.1-0.8-0.4-1C-33.5,257.2-33.8,257.1-34.2,257.1z"/>
	<path class="st2" d="M-25.7,257.5c-0.3,0-0.5-0.1-0.7-0.1c-0.7,0-1.2,0.3-1.5,0.8v4.8h-2v-7.4h1.9l0.1,0.9c0.4-0.7,0.9-1,1.6-1
		c0.2,0,0.4,0,0.6,0.1L-25.7,257.5z"/>
	<path class="st2" d="M-20.7,261c0-0.2-0.1-0.4-0.4-0.6c-0.2-0.1-0.6-0.3-1.2-0.4c-1.8-0.4-2.6-1.1-2.6-2.2c0-0.7,0.3-1.2,0.8-1.6
		c0.5-0.4,1.3-0.7,2.1-0.7c0.9,0,1.7,0.2,2.3,0.7c0.6,0.4,0.8,1,0.8,1.7h-2c0-0.3-0.1-0.5-0.3-0.7c-0.2-0.2-0.5-0.3-0.9-0.3
		c-0.3,0-0.6,0.1-0.8,0.2c-0.2,0.2-0.3,0.3-0.3,0.6c0,0.2,0.1,0.4,0.3,0.5c0.2,0.1,0.6,0.2,1,0.3c0.5,0.1,0.9,0.2,1.2,0.3
		c1,0.4,1.6,1,1.6,2c0,0.7-0.3,1.2-0.9,1.6c-0.6,0.4-1.3,0.6-2.2,0.6c-0.6,0-1.2-0.1-1.7-0.3c-0.5-0.2-0.9-0.5-1.1-0.9
		c-0.3-0.4-0.4-0.8-0.4-1.2h1.9c0,0.4,0.1,0.6,0.4,0.8c0.2,0.2,0.6,0.3,1,0.3c0.4,0,0.7-0.1,0.9-0.2
		C-20.8,261.4-20.7,261.2-20.7,261z"/>
</g>
<path class="st3" d="M-103,277c0,42.5-106.9,78.3-162.2,85"/>
<path class="st3" d="M-103,277c0,73.7-115.7,111.8-170,117.7"/>
<path class="st3" d="M-103,277c0,73,80.3,56.3,121.7,117.7"/>
</svg>
