<?xml version="1.0" encoding="utf-8"?>
<!-- Generator: Adobe Illustrator 19.1.0, SVG Export Plug-In . SVG Version: 6.00 Build 0)  -->
<svg version="1.1" id="Layer_1" xmlns="http://www.w3.org/2000/svg" xmlns:xlink="http://www.w3.org/1999/xlink" x="0px" y="0px"
	 viewBox="-113 61 672 480" style="enable-background:new -113 61 672 480;" xml:space="preserve">
<style type="text/css">
	.st0{fill:#FFFFFF;}
	.st1{fill:#757888;}
	.st2{fill:none;stroke:#4ED8A0;stroke-width:2;stroke-miterlimit:10;}
	.st3{enable-background:new    ;}
	.st4{fill:#4ED8A0;}
	.st5{fill:none;stroke:#22ADF6;stroke-width:2;stroke-miterlimit:10;}
	.st6{fill:#22ADF6;}
	.st7{fill:none;stroke:#FF8564;stroke-width:2;stroke-miterlimit:10;}
	.st8{fill:#FF8564;}
</style>
<rect x="-113" y="61" class="st0" width="672" height="480"/>
<g id="Anatomy_1_">
	<g>
		<path class="st1" d="M78.7,310.6l-8.8-38.3c-0.5-2.1-2.4-4.2-4.5-4.8l-40.2-12.4c-0.5-0.2-1.1-0.2-1.7-0.2c-1.7,0-3.5,0.7-4.7,1.7
			L-10,283.4c-1.6,1.4-2.4,4.2-1.9,6.2l9.4,41c0.5,2.1,2.4,4.2,4.5,4.8L39.6,347c0.5,0.2,1.1,0.2,1.7,0.2c1.7,0,3.5-0.7,4.7-1.7
			l30.8-28.6C78.4,315.4,79.2,312.7,78.7,310.6z M29.4,264.2l27.6,8.5c1.1,0.3,1.1,0.8,0,1.1l-14.5,3.3c-1.1,0.3-2.6-0.2-3.4-1
			L29,265.2C28.1,264.3,28.3,263.9,29.4,264.2z M46.6,313.7c0.3,1.1-0.4,1.7-1.5,1.4l-29.8-9.2c-1.1-0.3-1.3-1.2-0.5-2l22.8-21.2
			c0.8-0.8,1.7-0.5,2,0.6L46.6,313.7z M-2.5,286.7l24.2-22.5c0.8-0.8,2.1-0.7,2.9,0.1l12.1,13.1c0.8,0.8,0.7,2.1-0.1,2.9l-24.2,22.5
			c-0.8,0.8-2.1,0.7-2.9-0.1l-12.1-13.1C-3.4,288.7-3.3,287.4-2.5,286.7z M3.4,322.4L-3,294.3c-0.3-1.1,0.2-1.3,0.9-0.5L8,304.7
			c0.8,0.8,1.1,2.4,0.8,3.5l-4.4,14.2C4.1,323.5,3.6,323.5,3.4,322.4z M38.8,338.8l-31.6-9.7c-1.1-0.3-1.7-1.5-1.4-2.6l5.3-17
			c0.3-1.1,1.5-1.7,2.6-1.4l31.6,9.7c1.1,0.3,1.7,1.5,1.4,2.6l-5.3,17C41,338.5,39.9,339.1,38.8,338.8z M66.8,315.8l-21.1,19.6
			c-0.8,0.8-1.2,0.5-0.9-0.6l4.4-14.2c0.3-1.1,1.5-2.2,2.6-2.4l14.5-3.3C67.4,314.6,67.6,315.1,66.8,315.8z M69.1,311.6l-17.4,4
			c-1.1,0.3-2.2-0.4-2.5-1.5l-7.4-32.2c-0.3-1.1,0.4-2.2,1.5-2.5l17.4-4c1.1-0.3,2.2,0.4,2.5,1.5l7.4,32.2
			C70.9,310.3,70.2,311.4,69.1,311.6z"/>
		<g>
			<path class="st1" d="M338.7,324.1c-0.1,1,0.3,1.2,0.7,1.2h2.4c0.9,0,1.1-0.8,1.1-1.2l9.8-55.7c0.2-1-0.5-1.2-1-1.1l0,0l-2.6,0.4
				c-0.7,0.1-1.1,0.7-1.1,1.1l0,0l-2.8,16.2c-2.5-0.8-7.2-1.3-9.9-1.3c-10.4,0-15.4,4-17.3,15.1l-3.1,17.5c-0.2,1.1-0.3,2.1-0.3,3
				c0,5,2.8,6.9,8,6.9c5.9,0,12-2.8,16.7-6.8L338.7,324.1z M323.1,322c-2.5,0-3.8-0.7-3.8-3.3c0-0.7,0.1-1.4,0.3-2.4l2.9-16.7
				c1.6-9.1,4.7-11.7,12.2-11.7c3.3,0,6.5,0.5,9.8,1.3l-4.4,24.7C334.8,318.6,328.3,322,323.1,322z"/>
			<path class="st1" d="M380.1,324.1c-0.1,1,0.3,1.2,0.8,1.2h2.4c0.9,0,1.1-0.8,1.1-1.2l0,0l6.7-37.7c-4.8-1.8-10.3-2.7-14.1-2.7
				c-11,0-15.4,4.4-17.3,15.1l-3.1,17.5c-0.2,1.1-0.3,2.1-0.3,3c0,5,2.8,6.9,8,6.9c5.9,0,11.7-2.8,16.4-6.8L380.1,324.1z M364.7,322
				c-2.5,0-3.8-0.7-3.8-3.3c0-0.7,0.1-1.4,0.3-2.4l2.9-16.7c1.6-9,4.5-11.7,12.2-11.7c3.4,0,7.3,0.7,9.6,1.3l-4.4,24.7
				C376.2,318.6,369.8,322,364.7,322z"/>
			<path class="st1" d="M447,324.1c-0.1,1,0.3,1.2,0.7,1.2h2.4c0.9,0,1.1-0.8,1.1-1.2l0,0l6.7-37.7c-4.8-1.8-10.3-2.7-14.1-2.7
				c-11,0-15.4,4.4-17.3,15.1l-3.1,17.5c-0.2,1.1-0.3,2.1-0.3,3c0,5,2.8,6.9,8,6.9c5.9,0,11.7-2.8,16.4-6.8L447,324.1z M431.7,322
				c-2.5,0-3.8-0.7-3.8-3.3c0-0.7,0.1-1.4,0.3-2.4l2.9-16.7c1.6-9,4.5-11.7,12.2-11.7c3.4,0,7.3,0.7,9.6,1.3l-4.4,24.7
				C443.2,318.6,436.8,322,431.7,322z"/>
			<g>
				<path class="st1" d="M407.6,274.5L407.6,274.5L407.6,274.5z"/>
				<path class="st1" d="M421.6,287.9L421.6,287.9l0.6-2.7c0.2-0.7-0.2-0.7-0.6-0.7h-11.5l1.6-9.4l0,0c0.2-1-0.5-1.2-1-1.1l0,0
					l-2.6,0.4l0,0c-0.7,0.1-1.1,0.7-1.1,1.1l0,0l-1.6,9h-7.1c-0.2,0-0.8,0.1-0.9,0.7l-0.4,2.6l0,0c0,0.2,0,0.7,0.7,0.7h7l-5.4,30.6
					c-0.1,0.6-0.2,1.1-0.2,1.6c0,3.7,2.6,5.4,6.7,5.4c3.2,0,8.9-0.9,11.8-2.3c0.9-0.5,0.8-1.1,0.6-1.5l0,0l-0.6-1.6
					c-0.1-0.4-0.6-0.3-0.9-0.2l0,0c-2.8,1.1-4.4,1.7-10.1,1.7c-1.9,0-2.8-0.4-2.8-2c0-0.4,0.1-0.9,0.2-1.5l5.3-30.1h11.4
					C421.3,288.5,421.5,288.3,421.6,287.9z"/>
			</g>
			<path class="st1" d="M311.4,284.5h-11.7c-0.5,0-1.1,0.4-1.4,0.8l-8.3,12.1l-4.9-12.6c-0.3-0.7-0.9-0.9-1.5-0.8l-10.2,1.5
				l8.8,19.4L266,325.4h11c0.7,0,1.8-0.4,2.3-1l7.6-9.2l4.3,9.2c0.2,0.5,0.9,1,1.6,1h10.7l-8.6-18.9L311.4,284.5z"/>
			<path class="st1" d="M261,324.6l7-39.9c0.1-0.8-0.5-0.8-1-0.7l-9.8,1.3c-1.1,0.2-1.4,0.9-1.4,1.3l0,0l-4.2,24.2
				c-3,1.5-8.4,3.9-10.6,3.9c-1.2,0-1.6-0.4-1.6-1.3c0-0.3,0.1-0.8,0.2-1.3l4.8-27.5l0,0c0.1-0.8-0.5-0.8-0.9-0.7l-9.8,1.4l0,0
				c-1.1,0.2-1.4,0.9-1.4,1.3l0,0l-4.7,26.6c-0.3,1.7-0.4,3-0.4,4.7c0,5.1,2.1,8.3,7.5,8.3c4.7,0,9.7-1.6,16.1-4.6l0.1,3
				c0,0.2,0.1,0.7,0.5,0.7h9C260.8,325.3,261,324.9,261,324.6z"/>
			<path class="st1" d="M163.9,283.7c-4.7,0-9.7,1.6-16.1,4.6l0.1-3.6c0-0.9-0.7-0.8-1.1-0.7l-7.7,1.3l0,0c-1.3,0.2-1.7,1-1.8,1.4
				l-6.4,36.8l0,0c-0.3,1.7-0.2,1.8,1.2,1.8h8.8c1,0,1.5,0,1.8-1.8L147,299c3.2-1.7,8.4-3.9,10.6-3.9c1.2,0,1.6,0.3,1.6,1.2
				c0,0.3-0.1,0.8-0.2,1.3l-4.5,25.9l0,0c-0.3,1.7-0.2,1.8,1.2,1.8h8.8c1,0,1.5,0,1.8-1.8l4.7-26.8c0.3-2.1,0.4-3.3,0.4-4.7
				C171.4,286.8,169.4,283.7,163.9,283.7z"/>
			<g>
				<path class="st1" d="M130,265.9l-9.8,1.4c-1.1,0.1-1.3,0.9-1.4,1.3l-1.8,10.2c-0.2,1.2-0.1,1.2,1,1.1l9.7-1.3l0,0
					c1-0.1,1.2-0.2,1.4-1.5l0,0l1.9-10.6C131.1,265.8,130.9,265.8,130,265.9z"/>
				<path class="st1" d="M115.8,285.4L115.8,285.4L115.8,285.4z"/>
				<path class="st1" d="M120.9,323.5L120.9,323.5l6.9-38.8c0.1-0.8-0.5-0.8-1-0.7l-9.8,1.3l0,0c-1.1,0.2-1.4,0.9-1.4,1.3l0,0
					l-6.6,37.2c-0.2,1.4,0,1.6,1.3,1.6h8.8C120,325.3,120.5,325.3,120.9,323.5z"/>
			</g>
			<path class="st1" d="M217.8,323.5l9.9-56.4c0.1-0.8-0.3-0.8-0.8-0.7l-11.3,1.9c-5.1-1.4-10.9-2-14.2-2c-10.5,0-14,3.6-15.7,13
				l-0.9,5.4h-4.6c-1.2,0-1.3,0.6-1.4,1.1l0,0l-1.4,7.8c-0.1,0.3,0.1,0.7,0.6,0.7h5.1l-5.5,31.2c-0.6,3.7-1.2,5.9-4.7,9.6l0,0
				c-0.7,0.7-0.5,0.9,0,1.3l0,0l6.2,5.8l0,0c0.6,0.6,0.9,0.5,1.6-0.2c5.7-5.8,7.5-9.7,8.5-15.1l5.7-32.5h9.1c0.5,0,0.6,0,0.8-0.6
				l0,0l2.1-8.2l0,0c0.2-0.6-0.4-0.8-0.8-0.8h-9.5l1.1-5.9c0.4-2.1,1.3-2.8,3.9-2.8c3.5,0,9.2,0.7,12.4,1.5l-8.1,46.2l0,0
				c-0.3,1.7-0.2,1.8,1.2,1.8h8.8C217,325.3,217.5,325.3,217.8,323.5z"/>
		</g>
	</g>
	<g>
		<path class="st2" d="M458,266.3v76.1H108.9v-76.1H458"/>
		<g class="st3">
			<path class="st4" d="M111.9,243.2h4.4v1.6h-6.4v-10h2.1L111.9,243.2L111.9,243.2z"/>
			<path class="st4" d="M116.9,241.1c0-0.7,0.1-1.4,0.4-2s0.7-1,1.2-1.3s1.1-0.5,1.8-0.5c1,0,1.8,0.3,2.4,0.9s1,1.4,1.1,2.5v0.5
				c0,1.1-0.3,2-1,2.7c-0.6,0.7-1.5,1-2.5,1s-1.9-0.3-2.6-1S116.9,242.3,116.9,241.1L116.9,241.1z M118.9,241.2
				c0,0.7,0.1,1.2,0.4,1.6s0.6,0.6,1.1,0.6s0.9-0.2,1.1-0.6c0.3-0.4,0.4-1,0.4-1.8c0-0.7-0.1-1.2-0.4-1.6s-0.6-0.6-1.1-0.6
				s-0.9,0.2-1.1,0.6C119.1,239.8,118.9,240.4,118.9,241.2z"/>
			<path class="st4" d="M124.9,241.1c0-1.1,0.3-2,0.8-2.7s1.3-1,2.2-1c0.8,0,1.4,0.3,1.9,0.8l0.1-0.7h1.8v7.2c0,0.6-0.1,1.2-0.4,1.7
				s-0.7,0.8-1.2,1.1s-1.2,0.4-1.9,0.4c-0.5,0-1.1-0.1-1.6-0.3s-0.9-0.5-1.2-0.8l0.9-1.2c0.5,0.6,1.1,0.8,1.8,0.8
				c0.5,0,0.9-0.1,1.2-0.4c0.3-0.3,0.4-0.7,0.4-1.2v-0.4c-0.5,0.5-1.1,0.8-1.8,0.8c-0.9,0-1.6-0.3-2.2-1
				C125.2,243.2,124.9,242.3,124.9,241.1L124.9,241.1z M126.9,241.2c0,0.7,0.1,1.2,0.4,1.6c0.3,0.4,0.6,0.6,1.1,0.6
				c0.6,0,1-0.2,1.3-0.7v-3.1c-0.3-0.5-0.7-0.7-1.3-0.7c-0.5,0-0.8,0.2-1.1,0.6C127,239.9,126.9,240.4,126.9,241.2z"/>
			<path class="st4" d="M132.9,241.1c0-0.7,0.1-1.4,0.4-2s0.7-1,1.2-1.3s1.1-0.5,1.8-0.5c1,0,1.8,0.3,2.4,0.9s1,1.4,1.1,2.5v0.5
				c0,1.1-0.3,2-1,2.7c-0.6,0.7-1.5,1-2.5,1s-1.9-0.3-2.6-1S132.9,242.3,132.9,241.1L132.9,241.1z M134.8,241.2
				c0,0.7,0.1,1.2,0.4,1.6s0.6,0.6,1.1,0.6s0.9-0.2,1.1-0.6c0.3-0.4,0.4-1,0.4-1.8c0-0.7-0.1-1.2-0.4-1.6s-0.6-0.6-1.1-0.6
				s-0.9,0.2-1.1,0.6C135,239.8,134.8,240.4,134.8,241.2z"/>
			<path class="st4" d="M151.8,236.5h-3v8.3h-2.1v-8.3h-3v-1.7h8.1V236.5z"/>
			<path class="st4" d="M155,242l1.4-4.6h2.1l-3,8.5l-0.2,0.4c-0.4,1-1.2,1.4-2.2,1.4c-0.3,0-0.6,0-0.9-0.1v-1.5h0.3
				c0.4,0,0.7-0.1,0.8-0.2s0.3-0.3,0.4-0.6l0.2-0.6l-2.6-7.4h2.1L155,242z"/>
			<path class="st4" d="M165.9,241.2c0,1.1-0.3,2.1-0.8,2.7c-0.5,0.7-1.2,1-2.1,1c-0.7,0-1.4-0.3-1.8-0.8v3.5h-2v-10.2h1.8l0.1,0.7
				c0.5-0.6,1.1-0.9,1.9-0.9c0.9,0,1.6,0.3,2.1,1s0.8,1.6,0.8,2.8V241.2z M164,241.1c0-0.7-0.1-1.2-0.4-1.6s-0.6-0.6-1.1-0.6
				c-0.6,0-1,0.2-1.3,0.7v3c0.2,0.5,0.7,0.7,1.3,0.7C163.5,243.4,164,242.6,164,241.1z"/>
			<path class="st4" d="M170.6,245c-1.1,0-2-0.3-2.6-1s-1-1.6-1-2.7v-0.2c0-0.7,0.1-1.4,0.4-2c0.3-0.6,0.7-1,1.2-1.4
				c0.5-0.3,1.1-0.5,1.8-0.5c1,0,1.8,0.3,2.4,1s0.9,1.5,0.9,2.7v0.8H169c0.1,0.5,0.3,0.9,0.6,1.2s0.7,0.4,1.2,0.4
				c0.8,0,1.4-0.3,1.8-0.8l1,1.1c-0.3,0.4-0.7,0.7-1.2,1C171.7,244.9,171.2,245,170.6,245z M170.3,238.9c-0.4,0-0.7,0.1-1,0.4
				s-0.4,0.6-0.5,1.1h2.7v-0.2c0-0.4-0.1-0.8-0.4-1S170.8,238.9,170.3,238.9z"/>
		</g>
	</g>
	<g>
		<path class="st5" d="M78.9,254.8v92.3H-12v-92.3H78.9"/>
		<g class="st3">
			<path class="st6" d="M-9.1,243.2h4.4v1.6h-6.4v-10H-9v8.4H-9.1z"/>
			<path class="st6" d="M-4,241.1c0-0.7,0.1-1.4,0.4-2s0.7-1,1.2-1.3s1.1-0.5,1.8-0.5c1,0,1.8,0.3,2.4,0.9s1,1.4,1.1,2.5v0.5
				c0,1.1-0.3,2-1,2.7c-0.6,0.7-1.5,1-2.5,1s-1.9-0.3-2.6-1S-4,242.3-4,241.1L-4,241.1z M-2,241.2c0,0.7,0.1,1.2,0.4,1.6
				s0.6,0.6,1.1,0.6s0.9-0.2,1.1-0.6c0.3-0.4,0.4-1,0.4-1.8c0-0.7-0.1-1.2-0.4-1.6s-0.6-0.6-1.1-0.6s-0.9,0.2-1.1,0.6
				C-1.9,239.8-2,240.4-2,241.2z"/>
			<path class="st6" d="M4,241.1c0-1.1,0.3-2,0.8-2.7s1.3-1,2.2-1c0.8,0,1.4,0.3,1.9,0.8l0.1-0.7h1.8v7.2c0,0.6-0.1,1.2-0.4,1.7
				s-0.7,0.8-1.2,1.1s-1.2,0.4-1.9,0.4c-0.5,0-1.1-0.1-1.6-0.3s-0.9-0.5-1.2-0.8l0.9-1.2c0.5,0.6,1.1,0.8,1.8,0.8
				c0.5,0,0.9-0.1,1.2-0.4c0.3-0.3,0.4-0.7,0.4-1.2v-0.4c-0.5,0.5-1.1,0.8-1.8,0.8c-0.9,0-1.6-0.3-2.2-1C4.2,243.2,4,242.3,4,241.1
				L4,241.1z M5.9,241.2c0,0.7,0.1,1.2,0.4,1.6c0.3,0.4,0.6,0.6,1.1,0.6c0.6,0,1-0.2,1.3-0.7v-3.1c-0.3-0.5-0.7-0.7-1.3-0.7
				c-0.5,0-0.8,0.2-1.1,0.6C6.1,239.9,5.9,240.4,5.9,241.2z"/>
			<path class="st6" d="M11.9,241.1c0-0.7,0.1-1.4,0.4-2s0.7-1,1.2-1.3s1.1-0.5,1.8-0.5c1,0,1.8,0.3,2.4,0.9s1,1.4,1.1,2.5v0.5
				c0,1.1-0.3,2-1,2.7c-0.6,0.7-1.5,1-2.5,1s-1.9-0.3-2.6-1S11.9,242.3,11.9,241.1L11.9,241.1z M13.9,241.2c0,0.7,0.1,1.2,0.4,1.6
				s0.6,0.6,1.1,0.6s0.9-0.2,1.1-0.6c0.3-0.4,0.4-1,0.4-1.8c0-0.7-0.1-1.2-0.4-1.6s-0.6-0.6-1.1-0.6s-0.9,0.2-1.1,0.6
				C14,239.8,13.9,240.4,13.9,241.2z"/>
			<path class="st6" d="M28.9,242.2c0-0.4-0.1-0.7-0.4-0.9s-0.8-0.4-1.5-0.7c-0.7-0.2-1.3-0.5-1.7-0.7c-1.1-0.6-1.7-1.4-1.7-2.5
				c0-0.5,0.2-1,0.5-1.4s0.7-0.8,1.3-1s1.2-0.4,1.9-0.4c0.7,0,1.3,0.1,1.9,0.4c0.6,0.3,1,0.6,1.3,1.1s0.5,1,0.5,1.6h-2.1
				c0-0.5-0.1-0.8-0.4-1.1s-0.7-0.4-1.2-0.4s-0.9,0.1-1.2,0.3c-0.3,0.2-0.4,0.5-0.4,0.8s0.2,0.6,0.5,0.8s0.8,0.4,1.4,0.6
				c1.2,0.4,2,0.8,2.5,1.3s0.8,1.2,0.8,1.9c0,0.9-0.3,1.5-1,2s-1.5,0.7-2.6,0.7c-0.8,0-1.5-0.1-2.1-0.4c-0.6-0.3-1.1-0.7-1.4-1.2
				s-0.5-1.1-0.5-1.7h2.1c0,1.1,0.7,1.6,2,1.6c0.5,0,0.9-0.1,1.1-0.3C28.8,242.9,28.9,242.6,28.9,242.2z"/>
			<path class="st6" d="M35,242l1.4-4.6h2.1l-3,8.5l-0.2,0.4c-0.4,1-1.2,1.4-2.2,1.4c-0.3,0-0.6,0-0.9-0.1v-1.5h0.3
				c0.4,0,0.7-0.1,0.8-0.2s0.3-0.3,0.4-0.6l0.2-0.6l-2.6-7.4h2.1L35,242z"/>
			<path class="st6" d="M41.1,237.4l0.1,0.8c0.5-0.6,1.2-1,2.1-1c1,0,1.6,0.4,2,1.1c0.5-0.8,1.3-1.1,2.2-1.1c0.8,0,1.4,0.2,1.8,0.7
				c0.4,0.5,0.6,1.2,0.6,2.1v4.7h-2V240c0-0.4-0.1-0.7-0.2-0.9s-0.5-0.3-0.9-0.3c-0.6,0-1,0.3-1.2,0.8v5.1h-2V240
				c0-0.4-0.1-0.7-0.3-0.9s-0.5-0.3-0.9-0.3c-0.6,0-1,0.2-1.2,0.7v5.2h-2v-7.4L41.1,237.4L41.1,237.4z"/>
			<path class="st6" d="M58.1,241.2c0,1.2-0.3,2.1-0.8,2.8s-1.2,1-2.1,1c-0.8,0-1.4-0.3-1.9-0.9l-0.1,0.8h-1.8v-10.5h2v3.8
				c0.5-0.5,1.1-0.8,1.8-0.8c0.9,0,1.6,0.3,2.1,1S58.1,240,58.1,241.2L58.1,241.2z M56.1,241.1c0-0.8-0.1-1.3-0.4-1.6
				c-0.2-0.3-0.6-0.5-1.1-0.5c-0.6,0-1.1,0.3-1.3,0.8v2.9c0.2,0.5,0.7,0.8,1.3,0.8s1.1-0.3,1.3-0.9C56,242.1,56.1,241.7,56.1,241.1z
				"/>
			<path class="st6" d="M59,241.1c0-0.7,0.1-1.4,0.4-2s0.7-1,1.2-1.3s1.1-0.5,1.8-0.5c1,0,1.8,0.3,2.4,0.9s1,1.4,1.1,2.5v0.5
				c0,1.1-0.3,2-1,2.7c-0.6,0.7-1.5,1-2.5,1s-1.9-0.3-2.6-1S59,242.3,59,241.1L59,241.1z M61,241.2c0,0.7,0.1,1.2,0.4,1.6
				s0.6,0.6,1.1,0.6s0.9-0.2,1.1-0.6c0.3-0.4,0.4-1,0.4-1.8c0-0.7-0.1-1.2-0.4-1.6s-0.6-0.6-1.1-0.6s-0.9,0.2-1.1,0.6
				C61.1,239.8,61,240.4,61,241.2z"/>
			<path class="st6" d="M69.3,244.8h-2v-10.5h2V244.8z"/>
		</g>
		<path class="st6" d="M33.4,361.8l1.9-3.4h2.4l-2.9,4.9l3,5h-2.4l-1.9-3.5l-1.9,3.5h-2.4l3-5l-2.9-4.9h2.4L33.4,361.8z"/>
	</g>
	<g>
		<line class="st7" x1="78.9" y1="301" x2="108.9" y2="301"/>
		<g>
			<path class="st8" d="M87.3,371.8l1.9-3.4h2.4l-2.9,4.9l3,5h-2.4l-1.9-3.5l-1.9,3.5H83l3-5l-2.9-4.9h2.4L87.3,371.8z"/>
			<path class="st8" d="M93.1,379.2h-1.5l3.7-10.8h1.5L93.1,379.2z"/>
			<path class="st8" d="M99.6,372.5h1.1c0.5,0,0.9-0.1,1.1-0.4s0.4-0.6,0.4-1c0-0.4-0.1-0.7-0.4-0.9s-0.6-0.3-1-0.3
				c-0.4,0-0.7,0.1-1,0.3c-0.3,0.2-0.4,0.5-0.4,0.8h-2c0-0.5,0.1-1,0.4-1.4c0.3-0.4,0.7-0.7,1.2-1s1.1-0.3,1.7-0.3
				c1.1,0,1.9,0.3,2.5,0.8c0.6,0.5,0.9,1.2,0.9,2.1c0,0.5-0.1,0.9-0.4,1.3s-0.6,0.7-1.1,0.9c0.6,0.2,1,0.5,1.3,0.9s0.4,0.9,0.4,1.4
				c0,0.9-0.3,1.6-1,2.1s-1.5,0.8-2.6,0.8c-1,0-1.8-0.3-2.4-0.8s-0.9-1.2-0.9-2.1h2c0,0.4,0.1,0.7,0.4,0.9s0.6,0.4,1,0.4
				c0.5,0,0.8-0.1,1.1-0.4c0.3-0.2,0.4-0.6,0.4-1c0-1-0.5-1.5-1.6-1.5h-1V372.5z"/>
		</g>
		<line class="st7" x1="93.9" y1="301" x2="93.9" y2="358.5"/>
	</g>
</g>
</svg>
