<?xml version="1.0" encoding="utf-8"?>
<!-- Generator: Adobe Illustrator 19.1.0, SVG Export Plug-In . SVG Version: 6.00 Build 0)  -->
<svg version="1.1" id="Layer_1" xmlns="http://www.w3.org/2000/svg" xmlns:xlink="http://www.w3.org/1999/xlink" x="0px" y="0px"
	 viewBox="36 161 672 480" style="enable-background:new 36 161 672 480;" xml:space="preserve">
<style type="text/css">
	.st0{fill:#FFFFFF;}
	.st1{fill:#757888;}
	.st2{fill:none;stroke:#22ADF6;stroke-width:2;stroke-linecap:round;stroke-miterlimit:10;}
	.st3{fill:#22ADF6;}
	.st4{fill:#7A65F2;}
	.st5{fill:none;stroke:#7A65F2;stroke-width:2;stroke-linecap:round;stroke-miterlimit:10;}
</style>
<rect x="36" y="161" class="st0" width="672" height="480"/>
<g>
	<g>
		<path class="st1" d="M219.9,410.6l-8.8-38.3c-0.5-2.1-2.4-4.2-4.5-4.8l-40.2-12.4c-0.5-0.2-1.1-0.2-1.7-0.2
			c-1.7,0-3.5,0.7-4.7,1.7l-28.8,26.8c-1.6,1.4-2.4,4.2-1.9,6.2l9.4,41c0.5,2.1,2.4,4.2,4.5,4.8l37.6,11.6c0.5,0.2,1.1,0.2,1.7,0.2
			c1.7,0,3.5-0.7,4.7-1.7l30.8-28.6C219.6,415.4,220.4,412.7,219.9,410.6z M170.6,364.2l27.6,8.5c1.1,0.3,1.1,0.8,0,1.1l-14.5,3.3
			c-1.1,0.3-2.6-0.2-3.4-1l-10.1-10.9C169.3,364.3,169.5,363.9,170.6,364.2z M187.8,413.7c0.3,1.1-0.4,1.7-1.5,1.4l-29.8-9.2
			c-1.1-0.3-1.3-1.2-0.5-2l22.8-21.2c0.8-0.8,1.7-0.5,2,0.6L187.8,413.7z M138.7,386.7l24.2-22.5c0.8-0.8,2.1-0.7,2.9,0.1l12.1,13.1
			c0.8,0.8,0.7,2.1-0.1,2.9l-24.2,22.5c-0.8,0.8-2.1,0.7-2.9-0.1l-12.1-13.1C137.8,388.7,137.9,387.4,138.7,386.7z M144.6,422.4
			l-6.4-28.1c-0.3-1.1,0.2-1.3,0.9-0.5l10.1,10.9c0.8,0.8,1.1,2.4,0.8,3.5l-4.4,14.2C145.3,423.5,144.8,423.5,144.6,422.4z
			 M180,438.8l-31.6-9.7c-1.1-0.3-1.7-1.5-1.4-2.6l5.3-17c0.3-1.1,1.5-1.7,2.6-1.4l31.6,9.7c1.1,0.3,1.7,1.5,1.4,2.6l-5.3,17
			C182.2,438.5,181.1,439.1,180,438.8z M208,415.8l-21.1,19.6c-0.8,0.8-1.2,0.5-0.9-0.6l4.4-14.2c0.3-1.1,1.5-2.2,2.6-2.4l14.5-3.3
			C208.6,414.6,208.8,415.1,208,415.8z M210.3,411.6l-17.4,4c-1.1,0.3-2.2-0.4-2.5-1.5l-7.4-32.2c-0.3-1.1,0.4-2.2,1.5-2.5l17.4-4
			c1.1-0.3,2.2,0.4,2.5,1.5l7.4,32.2C212.1,410.3,211.4,411.4,210.3,411.6z"/>
		<g>
			<path class="st1" d="M479.9,424.1c-0.1,1,0.3,1.2,0.7,1.2h2.4c0.9,0,1.1-0.8,1.1-1.2l9.8-55.7c0.2-1-0.5-1.2-1-1.1l0,0l-2.6,0.4
				c-0.7,0.1-1.1,0.7-1.1,1.1l0,0l-2.8,16.2c-2.5-0.8-7.2-1.3-9.9-1.3c-10.4,0-15.4,4-17.3,15.1l-3.1,17.5c-0.2,1.1-0.3,2.1-0.3,3
				c0,5,2.8,6.9,8,6.9c5.9,0,12-2.8,16.7-6.8L479.9,424.1z M464.3,422c-2.5,0-3.8-0.7-3.8-3.3c0-0.7,0.1-1.4,0.3-2.4l2.9-16.7
				c1.6-9.1,4.7-11.7,12.2-11.7c3.3,0,6.5,0.5,9.8,1.3l-4.4,24.7C476,418.6,469.5,422,464.3,422z"/>
			<path class="st1" d="M521.3,424.1c-0.1,1,0.3,1.2,0.8,1.2h2.4c0.9,0,1.1-0.8,1.1-1.2l0,0l6.7-37.7c-4.8-1.8-10.3-2.7-14.1-2.7
				c-11,0-15.4,4.4-17.3,15.1l-3.1,17.5c-0.2,1.1-0.3,2.1-0.3,3c0,5,2.8,6.9,8,6.9c5.9,0,11.7-2.8,16.4-6.8L521.3,424.1z M505.9,422
				c-2.5,0-3.8-0.7-3.8-3.3c0-0.7,0.1-1.4,0.3-2.4l2.9-16.7c1.6-9,4.5-11.7,12.2-11.7c3.4,0,7.3,0.7,9.6,1.3l-4.4,24.7
				C517.4,418.6,511,422,505.9,422z"/>
			<path class="st1" d="M588.2,424.1c-0.1,1,0.3,1.2,0.7,1.2h2.4c0.9,0,1.1-0.8,1.1-1.2l0,0l6.7-37.7c-4.8-1.8-10.3-2.7-14.1-2.7
				c-11,0-15.4,4.4-17.3,15.1l-3.1,17.5c-0.2,1.1-0.3,2.1-0.3,3c0,5,2.8,6.9,8,6.9c5.9,0,11.7-2.8,16.4-6.8L588.2,424.1z M572.9,422
				c-2.5,0-3.8-0.7-3.8-3.3c0-0.7,0.1-1.4,0.3-2.4l2.9-16.7c1.6-9,4.5-11.7,12.2-11.7c3.4,0,7.3,0.7,9.6,1.3l-4.4,24.7
				C584.4,418.6,578,422,572.9,422z"/>
			<g>
				<path class="st1" d="M548.8,374.5L548.8,374.5L548.8,374.5z"/>
				<path class="st1" d="M562.8,387.9L562.8,387.9l0.6-2.7c0.2-0.7-0.2-0.7-0.6-0.7h-11.5l1.6-9.4l0,0c0.2-1-0.5-1.2-1-1.1l0,0
					l-2.6,0.4l0,0c-0.7,0.1-1.1,0.7-1.1,1.1l0,0l-1.6,9h-7.1c-0.2,0-0.8,0.1-0.9,0.7l-0.4,2.6l0,0c0,0.2,0,0.7,0.7,0.7h7l-5.4,30.6
					c-0.1,0.6-0.2,1.1-0.2,1.6c0,3.7,2.6,5.4,6.7,5.4c3.2,0,8.9-0.9,11.8-2.3c0.9-0.5,0.8-1.1,0.6-1.5l0,0l-0.6-1.6
					c-0.1-0.4-0.6-0.3-0.9-0.2l0,0c-2.8,1.1-4.4,1.7-10.1,1.7c-1.9,0-2.8-0.4-2.8-2c0-0.4,0.1-0.9,0.2-1.5l5.3-30.1h11.4
					C562.5,388.5,562.7,388.3,562.8,387.9z"/>
			</g>
			<path class="st1" d="M452.6,384.5h-11.7c-0.5,0-1.1,0.4-1.4,0.8l-8.3,12.1l-4.9-12.6c-0.3-0.7-0.9-0.9-1.5-0.8l-10.2,1.5
				l8.8,19.4l-16.2,20.5h11c0.7,0,1.8-0.4,2.3-1l7.6-9.2l4.3,9.2c0.2,0.5,0.9,1,1.6,1h10.7l-8.6-18.9L452.6,384.5z"/>
			<path class="st1" d="M402.2,424.6l7-39.9c0.1-0.8-0.5-0.8-1-0.7l-9.8,1.3c-1.1,0.2-1.4,0.9-1.4,1.3l0,0l-4.2,24.2
				c-3,1.5-8.4,3.9-10.6,3.9c-1.2,0-1.6-0.4-1.6-1.3c0-0.3,0.1-0.8,0.2-1.3l4.8-27.5l0,0c0.1-0.8-0.5-0.8-0.9-0.7l-9.8,1.4l0,0
				c-1.1,0.2-1.4,0.9-1.4,1.3l0,0l-4.7,26.6c-0.3,1.7-0.4,3-0.4,4.7c0,5.1,2.1,8.3,7.5,8.3c4.7,0,9.7-1.6,16.1-4.6l0.1,3
				c0,0.2,0.1,0.7,0.5,0.7h9C402,425.3,402.2,424.9,402.2,424.6z"/>
			<path class="st1" d="M305.1,383.7c-4.7,0-9.7,1.6-16.1,4.6l0.1-3.6c0-0.9-0.7-0.8-1.1-0.7l-7.7,1.3l0,0c-1.3,0.2-1.7,1-1.8,1.4
				l-6.4,36.8l0,0c-0.3,1.7-0.2,1.8,1.2,1.8h8.8c1,0,1.5,0,1.8-1.8l4.3-24.5c3.2-1.7,8.4-3.9,10.6-3.9c1.2,0,1.6,0.3,1.6,1.2
				c0,0.3-0.1,0.8-0.2,1.3l-4.5,25.9l0,0c-0.3,1.7-0.2,1.8,1.2,1.8h8.8c1,0,1.5,0,1.8-1.8l4.7-26.8c0.3-2.1,0.4-3.3,0.4-4.7
				C312.6,386.8,310.6,383.7,305.1,383.7z"/>
			<g>
				<path class="st1" d="M271.2,365.9l-9.8,1.4c-1.1,0.1-1.3,0.9-1.4,1.3l-1.8,10.2c-0.2,1.2-0.1,1.2,1,1.1l9.7-1.3l0,0
					c1-0.1,1.2-0.2,1.4-1.5l0,0l1.9-10.6C272.3,365.8,272.1,365.8,271.2,365.9z"/>
				<path class="st1" d="M257,385.4L257,385.4L257,385.4z"/>
				<path class="st1" d="M262.1,423.5L262.1,423.5l6.9-38.8c0.1-0.8-0.5-0.8-1-0.7l-9.8,1.3l0,0c-1.1,0.2-1.4,0.9-1.4,1.3l0,0
					l-6.6,37.2c-0.2,1.4,0,1.6,1.3,1.6h8.8C261.2,425.3,261.7,425.3,262.1,423.5z"/>
			</g>
			<path class="st1" d="M359,423.5l9.9-56.4c0.1-0.8-0.3-0.8-0.8-0.7l-11.3,1.9c-5.1-1.4-10.9-2-14.2-2c-10.5,0-14,3.6-15.7,13
				l-0.9,5.4h-4.6c-1.2,0-1.3,0.6-1.4,1.1l0,0l-1.4,7.8c-0.1,0.3,0.1,0.7,0.6,0.7h5.1l-5.5,31.2c-0.6,3.7-1.2,5.9-4.7,9.6l0,0
				c-0.7,0.7-0.5,0.9,0,1.3l0,0l6.2,5.8l0,0c0.6,0.6,0.9,0.5,1.6-0.2c5.7-5.8,7.5-9.7,8.5-15.1l5.7-32.5h9.1c0.5,0,0.6,0,0.8-0.6
				l0,0l2.1-8.2l0,0c0.2-0.6-0.4-0.8-0.8-0.8h-9.5l1.1-5.9c0.4-2.1,1.3-2.8,3.9-2.8c3.5,0,9.2,0.7,12.4,1.5l-8.1,46.2l0,0
				c-0.3,1.7-0.2,1.8,1.2,1.8h8.8C358.2,425.3,358.7,425.3,359,423.5z"/>
		</g>
	</g>
	<g>
		<path class="st2" d="M158.3,393.7v-93.6c0-3.4,2.7-6.1,6.1-6.1h160.4"/>
	</g>
	<g>
		<path class="st2" d="M404.7,294h108.9c3.4,0,6.1,2.7,6.1,6.1V380"/>
	</g>
	<g>
		<path class="st3" d="M339.9,290.7h-3v8.3h-2.1v-8.3h-3V289h8.1V290.7z"/>
		<path class="st3" d="M342.8,292.4c0.5-0.6,1.2-0.9,2-0.9c1.6,0,2.4,0.9,2.4,2.8v4.7h-2v-4.7c0-0.4-0.1-0.7-0.3-0.9
			c-0.2-0.2-0.5-0.3-0.9-0.3c-0.6,0-1,0.2-1.3,0.7v5.3h-2v-10.5h2L342.8,292.4L342.8,292.4L342.8,292.4z"/>
		<path class="st3" d="M348.7,289.7c0-0.3,0.1-0.5,0.3-0.7s0.5-0.3,0.8-0.3c0.3,0,0.6,0.1,0.8,0.3s0.3,0.4,0.3,0.7
			c0,0.3-0.1,0.5-0.3,0.7s-0.5,0.3-0.8,0.3c-0.3,0-0.6-0.1-0.8-0.3S348.7,290,348.7,289.7z M350.8,299h-2v-7.4h2V299z"/>
		<path class="st3" d="M354.3,291.6l0.1,0.9c0.5-0.7,1.2-1,2.1-1c0.8,0,1.4,0.2,1.8,0.7s0.6,1.1,0.6,2.1v4.8h-2v-4.7
			c0-0.4-0.1-0.7-0.3-0.9c-0.2-0.2-0.5-0.3-0.9-0.3c-0.6,0-1,0.2-1.3,0.7v5.2h-2v-7.4h1.9L354.3,291.6L354.3,291.6z"/>
		<path class="st3" d="M366,297.4h4.4v1.6H364v-10h2.1L366,297.4L366,297.4z"/>
		<path class="st3" d="M371.3,289.7c0-0.3,0.1-0.5,0.3-0.7c0.2-0.2,0.5-0.3,0.8-0.3s0.6,0.1,0.8,0.3c0.2,0.2,0.3,0.4,0.3,0.7
			c0,0.3-0.1,0.5-0.3,0.7c-0.2,0.2-0.5,0.3-0.8,0.3s-0.6-0.1-0.8-0.3S371.3,290,371.3,289.7z M373.4,299h-2v-7.4h2V299z"/>
		<path class="st3" d="M376.9,291.6l0.1,0.9c0.5-0.7,1.2-1,2.1-1c0.8,0,1.4,0.2,1.8,0.7s0.6,1.1,0.6,2.1v4.8h-2v-4.7
			c0-0.4-0.1-0.7-0.3-0.9c-0.2-0.2-0.5-0.3-0.9-0.3c-0.6,0-1,0.2-1.3,0.7v5.2h-2v-7.4h1.9L376.9,291.6L376.9,291.6z"/>
		<path class="st3" d="M386.3,299.1c-1.1,0-2-0.3-2.6-1c-0.7-0.7-1-1.6-1-2.7v-0.2c0-0.7,0.1-1.4,0.4-2s0.7-1,1.2-1.4
			c0.5-0.3,1.1-0.5,1.8-0.5c1,0,1.8,0.3,2.4,1s0.9,1.5,0.9,2.7v0.8h-4.7c0.1,0.5,0.3,0.9,0.6,1.2c0.3,0.3,0.7,0.4,1.2,0.4
			c0.8,0,1.4-0.3,1.8-0.8l1,1.1c-0.3,0.4-0.7,0.7-1.2,1C387.5,299,386.9,299.1,386.3,299.1z M386.1,293.1c-0.4,0-0.7,0.1-1,0.4
			c-0.2,0.3-0.4,0.6-0.5,1.1h2.7v-0.2c0-0.4-0.1-0.8-0.4-1C386.8,293.2,386.5,293.1,386.1,293.1z"/>
		<path class="st3" d="M394.5,297c0-0.2-0.1-0.4-0.4-0.6c-0.2-0.1-0.6-0.3-1.2-0.4c-1.8-0.4-2.6-1.1-2.6-2.2c0-0.7,0.3-1.2,0.8-1.6
			c0.5-0.4,1.3-0.7,2.1-0.7c0.9,0,1.7,0.2,2.3,0.7c0.6,0.4,0.8,1,0.8,1.7h-2c0-0.3-0.1-0.5-0.3-0.7c-0.2-0.2-0.5-0.3-0.9-0.3
			c-0.3,0-0.6,0.1-0.8,0.2c-0.2,0.2-0.3,0.3-0.3,0.6c0,0.2,0.1,0.4,0.3,0.5c0.2,0.1,0.6,0.2,1,0.3c0.5,0.1,0.9,0.2,1.2,0.3
			c1,0.4,1.6,1,1.6,2c0,0.7-0.3,1.2-0.9,1.6c-0.6,0.4-1.3,0.6-2.2,0.6c-0.6,0-1.2-0.1-1.7-0.3s-0.9-0.5-1.1-0.9
			c-0.3-0.4-0.4-0.8-0.4-1.2h1.9c0,0.4,0.1,0.6,0.4,0.8c0.2,0.2,0.6,0.3,1,0.3s0.7-0.1,0.9-0.2C394.4,297.4,394.5,297.2,394.5,297z"
			/>
	</g>
	<g>
		<path class="st4" d="M336.4,512.7h-3v8.3h-2.1v-8.3h-3V511h8.1V512.7z"/>
		<path class="st4" d="M339.4,514.4c0.5-0.6,1.2-0.9,2-0.9c1.6,0,2.4,0.9,2.4,2.8v4.7h-2v-4.7c0-0.4-0.1-0.7-0.3-0.9
			c-0.2-0.2-0.5-0.3-0.9-0.3c-0.6,0-1,0.2-1.3,0.7v5.3h-2v-10.5h2v3.8H339.4z"/>
		<path class="st4" d="M345.3,511.7c0-0.3,0.1-0.5,0.3-0.7s0.5-0.3,0.8-0.3c0.3,0,0.6,0.1,0.8,0.3s0.3,0.4,0.3,0.7
			c0,0.3-0.1,0.5-0.3,0.7s-0.5,0.3-0.8,0.3c-0.3,0-0.6-0.1-0.8-0.3C345.4,512.2,345.3,512,345.3,511.7z M347.4,521h-2v-7.4h2V521z"
			/>
		<path class="st4" d="M352.1,519.5c0.4,0,0.7-0.1,0.9-0.3c0.2-0.2,0.3-0.5,0.4-0.8h1.9c0,0.5-0.1,1-0.4,1.4c-0.3,0.4-0.6,0.7-1.1,1
			c-0.5,0.2-1,0.3-1.5,0.3c-1.1,0-1.9-0.3-2.5-1c-0.6-0.7-0.9-1.6-0.9-2.8v-0.1c0-1.1,0.3-2,0.9-2.7c0.6-0.7,1.4-1,2.5-1
			c0.9,0,1.7,0.3,2.2,0.8c0.6,0.5,0.8,1.2,0.9,2.1h-1.9c0-0.4-0.1-0.7-0.4-0.9c-0.2-0.2-0.5-0.4-0.9-0.4c-0.5,0-0.8,0.2-1,0.5
			c-0.2,0.3-0.4,0.9-0.4,1.6v0.2c0,0.8,0.1,1.3,0.3,1.6S351.6,519.5,352.1,519.5z"/>
		<path class="st4" d="M359,518l-0.7,0.7v2.3h-2v-10.5h2v5.8l0.4-0.5l1.9-2.2h2.4l-2.7,3.1l2.9,4.3h-2.3L359,518z"/>
		<path class="st4" d="M369.4,519.4h4.4v1.6h-6.4v-10h2.1v8.4H369.4z"/>
		<path class="st4" d="M374.8,511.7c0-0.3,0.1-0.5,0.3-0.7c0.2-0.2,0.5-0.3,0.8-0.3s0.6,0.1,0.8,0.3c0.2,0.2,0.3,0.4,0.3,0.7
			c0,0.3-0.1,0.5-0.3,0.7c-0.2,0.2-0.5,0.3-0.8,0.3s-0.6-0.1-0.8-0.3C374.9,512.2,374.8,512,374.8,511.7z M376.9,521h-2v-7.4h2V521z
			"/>
		<path class="st4" d="M380.4,513.6l0.1,0.9c0.5-0.7,1.2-1,2.1-1c0.8,0,1.4,0.2,1.8,0.7s0.6,1.1,0.6,2.1v4.8h-2v-4.7
			c0-0.4-0.1-0.7-0.3-0.9c-0.2-0.2-0.5-0.3-0.9-0.3c-0.6,0-1,0.2-1.3,0.7v5.2h-2v-7.4L380.4,513.6L380.4,513.6z"/>
		<path class="st4" d="M389.8,521.1c-1.1,0-2-0.3-2.6-1c-0.7-0.7-1-1.6-1-2.7v-0.2c0-0.7,0.1-1.4,0.4-2c0.3-0.6,0.7-1,1.2-1.4
			c0.5-0.3,1.1-0.5,1.8-0.5c1,0,1.8,0.3,2.4,1s0.9,1.5,0.9,2.7v0.8h-4.7c0.1,0.5,0.3,0.9,0.6,1.2c0.3,0.3,0.7,0.4,1.2,0.4
			c0.8,0,1.4-0.3,1.8-0.8l1,1.1c-0.3,0.4-0.7,0.7-1.2,1C391,521,390.4,521.1,389.8,521.1z M389.6,515.1c-0.4,0-0.7,0.1-1,0.4
			c-0.2,0.3-0.4,0.6-0.5,1.1h2.7v-0.2c0-0.4-0.1-0.8-0.4-1C390.3,515.2,390,515.1,389.6,515.1z"/>
		<path class="st4" d="M398,519c0-0.2-0.1-0.4-0.4-0.6c-0.2-0.1-0.6-0.3-1.2-0.4c-1.8-0.4-2.6-1.1-2.6-2.2c0-0.7,0.3-1.2,0.8-1.6
			c0.5-0.4,1.3-0.7,2.1-0.7c0.9,0,1.7,0.2,2.3,0.7c0.6,0.4,0.8,1,0.8,1.7h-2c0-0.3-0.1-0.5-0.3-0.7c-0.2-0.2-0.5-0.3-0.9-0.3
			c-0.3,0-0.6,0.1-0.8,0.2c-0.2,0.2-0.3,0.3-0.3,0.6c0,0.2,0.1,0.4,0.3,0.5c0.2,0.1,0.6,0.2,1,0.3c0.5,0.1,0.9,0.2,1.2,0.3
			c1,0.4,1.6,1,1.6,2c0,0.7-0.3,1.2-0.9,1.6c-0.6,0.4-1.3,0.6-2.2,0.6c-0.6,0-1.2-0.1-1.7-0.3s-0.9-0.5-1.1-0.9
			c-0.3-0.4-0.4-0.8-0.4-1.2h1.9c0,0.4,0.1,0.6,0.4,0.8c0.2,0.2,0.6,0.3,1,0.3s0.7-0.1,0.9-0.2C397.9,519.4,398,519.2,398,519z"/>
	</g>
	<path class="st5" d="M319.6,516H180.5c-3.3,0-5.9-2.6-5.9-5.9v-61"/>
	<path class="st5" d="M279.2,431.3v78.8c0,3.3,2.6,5.9,5.9,5.9h20.6"/>
	<path id="Registered_Trademark" class="st1" d="M609.8,371.9h-1.1l-0.3,2h-1.1l1-6h2.2c1.2,0,1.8,0.5,1.8,1.3c0,0.1,0,0.2,0,0.4
		l-0.1,0.8c-0.1,0.8-0.4,1.1-1.1,1.4l1.1,2.1h-1.2L609.8,371.9z M611.2,369.6c0-0.1,0-0.2,0-0.2c0-0.4-0.2-0.5-0.7-0.5h-1.2l-0.3,2
		h1.2c0.7,0,0.8-0.2,0.9-0.7L611.2,369.6z M609.8,375.8c-2.8,0-5.1-2.2-5.1-5.1s2.2-5.1,5.1-5.1s5.1,2.2,5.1,5.1
		S612.6,375.8,609.8,375.8z M609.8,366.7c-2.3,0-4.2,1.8-4.2,4.2s1.8,4.2,4.2,4.2c2.3,0,4.2-1.8,4.2-4.2S612.1,366.7,609.8,366.7z"
		/>
</g>
</svg>
