<svg width="361" height="200" viewBox="0 0 361 200" fill="none" xmlns="http://www.w3.org/2000/svg">
<rect width="345" height="200" fill="white"/>
<path d="M23.798 29H25.086L21.32 19.662H19.878L16.126 29H17.414L18.24 26.928H22.972L23.798 29ZM20.606 20.698L22.622 25.892H18.576L20.606 20.698ZM27.7974 29H28.9454L31.7594 22.238H30.6114L28.3714 27.782L26.1174 22.238H24.9834L27.7974 29ZM35.8087 29.168C37.8667 29.168 39.1547 27.572 39.1547 25.612C39.1547 23.652 37.8667 22.07 35.8087 22.07C33.7507 22.07 32.4627 23.652 32.4627 25.612C32.4627 27.572 33.7507 29.168 35.8087 29.168ZM35.8087 28.23C34.3667 28.23 33.5547 26.998 33.5547 25.612C33.5547 24.24 34.3667 23.008 35.8087 23.008C37.2507 23.008 38.0487 24.24 38.0487 25.612C38.0487 26.998 37.2507 28.23 35.8087 28.23ZM41.3844 21.104C41.7764 21.104 42.0984 20.782 42.0984 20.39C42.0984 19.998 41.7764 19.69 41.3844 19.69C41.0064 19.69 40.6844 19.998 40.6844 20.39C40.6844 20.782 41.0064 21.104 41.3844 21.104ZM40.8664 29H41.9164V22.238H40.8664V29ZM48.9109 29H49.9609V19.662H48.9109V23.26C48.3649 22.518 47.5389 22.07 46.6289 22.07C44.8509 22.07 43.6189 23.47 43.6189 25.626C43.6189 27.824 44.8649 29.168 46.6289 29.168C47.5809 29.168 48.4069 28.678 48.9109 27.992V29ZM48.9109 27.166C48.5329 27.754 47.7209 28.23 46.8809 28.23C45.5229 28.23 44.7109 27.124 44.7109 25.626C44.7109 24.128 45.5229 23.008 46.8809 23.008C47.7209 23.008 48.5329 23.512 48.9109 24.1V27.166ZM55.673 29H56.723V27.992C57.227 28.678 58.053 29.168 59.005 29.168C60.769 29.168 62.015 27.824 62.015 25.626C62.015 23.47 60.769 22.07 59.005 22.07C58.081 22.07 57.269 22.518 56.723 23.26V19.662H55.673V29ZM56.723 27.166V24.1C57.087 23.512 57.913 23.008 58.739 23.008C60.111 23.008 60.923 24.128 60.923 25.626C60.923 27.124 60.111 28.23 58.739 28.23C57.913 28.23 57.087 27.754 56.723 27.166ZM66.6798 29.168C68.7378 29.168 70.0258 27.572 70.0258 25.612C70.0258 23.652 68.7378 22.07 66.6798 22.07C64.6218 22.07 63.3338 23.652 63.3338 25.612C63.3338 27.572 64.6218 29.168 66.6798 29.168ZM66.6798 28.23C65.2378 28.23 64.4258 26.998 64.4258 25.612C64.4258 24.24 65.2378 23.008 66.6798 23.008C68.1218 23.008 68.9198 24.24 68.9198 25.612C68.9198 26.998 68.1218 28.23 66.6798 28.23ZM75.682 29H76.9L74.296 25.528L76.746 22.238H75.528L73.652 24.814L71.776 22.238H70.558L73.008 25.528L70.418 29H71.622L73.652 26.228L75.682 29ZM78.6266 21.104C79.0186 21.104 79.3406 20.782 79.3406 20.39C79.3406 19.998 79.0186 19.69 78.6266 19.69C78.2486 19.69 77.9266 19.998 77.9266 20.39C77.9266 20.782 78.2486 21.104 78.6266 21.104ZM78.1086 29H79.1586V22.238H78.1086V29ZM85.8171 29H86.8671V24.254C86.8671 22.784 86.1251 22.07 84.7111 22.07C83.7031 22.07 82.7791 22.658 82.3031 23.218V22.238H81.2531V29H82.3031V24.058C82.6951 23.512 83.4791 23.008 84.3051 23.008C85.2151 23.008 85.8171 23.386 85.8171 24.576V29ZM88.9501 30.736C89.7481 31.52 90.5321 31.744 91.6801 31.744C93.3321 31.744 94.9001 31.044 94.9001 28.804V22.238H93.8501V23.26C93.3041 22.518 92.4921 22.07 91.5821 22.07C89.8041 22.07 88.5721 23.414 88.5721 25.584C88.5721 27.768 89.8181 29.084 91.5821 29.084C92.5341 29.084 93.3601 28.566 93.8501 27.88V28.846C93.8501 30.33 92.8001 30.876 91.6801 30.876C90.7141 30.876 90.0421 30.624 89.4821 29.952L88.9501 30.736ZM93.8501 27.054C93.4861 27.642 92.6741 28.16 91.8341 28.16C90.4761 28.16 89.6641 27.068 89.6641 25.584C89.6641 24.086 90.4761 23.008 91.8341 23.008C92.6741 23.008 93.4861 23.512 93.8501 24.1V27.054ZM101.131 21.104C101.523 21.104 101.845 20.782 101.845 20.39C101.845 19.998 101.523 19.69 101.131 19.69C100.753 19.69 100.431 19.998 100.431 20.39C100.431 20.782 100.753 21.104 101.131 21.104ZM100.613 29H101.663V22.238H100.613V29ZM108.321 29H109.371V24.254C109.371 22.784 108.629 22.07 107.215 22.07C106.207 22.07 105.283 22.658 104.807 23.218V22.238H103.757V29H104.807V24.058C105.199 23.512 105.983 23.008 106.809 23.008C107.719 23.008 108.321 23.386 108.321 24.576V29ZM115.119 29H120.621V27.964H116.281V19.662H115.119V29ZM124.867 29.168C126.925 29.168 128.213 27.572 128.213 25.612C128.213 23.652 126.925 22.07 124.867 22.07C122.809 22.07 121.521 23.652 121.521 25.612C121.521 27.572 122.809 29.168 124.867 29.168ZM124.867 28.23C123.425 28.23 122.613 26.998 122.613 25.612C122.613 24.24 123.425 23.008 124.867 23.008C126.309 23.008 127.107 24.24 127.107 25.612C127.107 26.998 126.309 28.23 124.867 28.23ZM129.911 30.736C130.709 31.52 131.493 31.744 132.641 31.744C134.293 31.744 135.861 31.044 135.861 28.804V22.238H134.811V23.26C134.265 22.518 133.453 22.07 132.543 22.07C130.765 22.07 129.533 23.414 129.533 25.584C129.533 27.768 130.779 29.084 132.543 29.084C133.495 29.084 134.321 28.566 134.811 27.88V28.846C134.811 30.33 133.761 30.876 132.641 30.876C131.675 30.876 131.003 30.624 130.443 29.952L129.911 30.736ZM134.811 27.054C134.447 27.642 133.635 28.16 132.795 28.16C131.437 28.16 130.625 27.068 130.625 25.584C130.625 24.086 131.437 23.008 132.795 23.008C133.635 23.008 134.447 23.512 134.811 24.1V27.054ZM140.918 29.168C142.976 29.168 144.264 27.572 144.264 25.612C144.264 23.652 142.976 22.07 140.918 22.07C138.86 22.07 137.572 23.652 137.572 25.612C137.572 27.572 138.86 29.168 140.918 29.168ZM140.918 28.23C139.476 28.23 138.664 26.998 138.664 25.612C138.664 24.24 139.476 23.008 140.918 23.008C142.36 23.008 143.158 24.24 143.158 25.612C143.158 26.998 142.36 28.23 140.918 28.23Z" fill="#020A47"/>
<rect x="0.5" y="0.5" width="344" height="199" stroke="#E4E4E4"/>
<path fill-rule="evenodd" clip-rule="evenodd" d="M322.707 28.293C323.098 28.684 323.098 29.316 322.707 29.707C322.512 29.902 322.256 30 322 30C321.744 30 321.488 29.902 321.293 29.707L319 27.414L316.707 29.707C316.512 29.902 316.256 30 316 30C315.744 30 315.488 29.902 315.293 29.707C314.902 29.316 314.902 28.684 315.293 28.293L317.586 26L315.293 23.707C314.902 23.316 314.902 22.684 315.293 22.293C315.684 21.902 316.316 21.902 316.707 22.293L319 24.586L321.293 22.293C321.684 21.902 322.316 21.902 322.707 22.293C323.098 22.684 323.098 23.316 322.707 23.707L320.414 26L322.707 28.293ZM319 18C314.582 18 311 21.582 311 26C311 30.418 314.582 34 319 34C323.418 34 327 30.418 327 26C327 21.582 323.418 18 319 18Z" fill="#DE1C22"/>
<rect x="38.5" y="71.5" width="269" height="76" fill="#FAFAFA" stroke="#D4D3D3"/>
<path d="M120.851 103.116C120.047 103.116 119.364 102.854 118.803 102.331C118.261 101.807 117.99 101.171 117.99 100.423C117.99 99.6373 118.261 98.992 118.803 98.487C119.364 97.9633 120.047 97.7014 120.851 97.7014C121.655 97.7014 122.329 97.9633 122.871 98.487C123.413 98.992 123.684 99.6373 123.684 100.423C123.684 101.171 123.413 101.807 122.871 102.331C122.329 102.854 121.655 103.116 120.851 103.116ZM118.298 119.866V105.389H123.376V119.866H118.298Z" fill="#020A47"/>
<path d="M126.791 119.866V105.389H131.784L131.84 107.184C132.214 106.474 132.766 105.922 133.495 105.529C134.225 105.136 135.066 104.94 136.02 104.94C137.647 104.94 138.881 105.464 139.723 106.511C140.583 107.54 141.013 109.055 141.013 111.056V119.866H135.936V112.01C135.936 110.308 135.291 109.457 134 109.457C133.308 109.457 132.775 109.7 132.401 110.186C132.046 110.654 131.868 111.327 131.868 112.206V119.866H126.791Z" fill="#020A47"/>
<path d="M145.81 119.866V109.457H143.482V105.389H145.81V103.986C145.81 101.76 146.353 100.039 147.437 98.8237C148.541 97.6079 150.093 97 152.094 97C152.674 97 153.216 97.0468 153.721 97.1403C154.245 97.2151 154.684 97.3273 155.039 97.477L154.787 101.685C154.581 101.592 154.329 101.526 154.03 101.489C153.749 101.433 153.487 101.405 153.244 101.405C152.44 101.405 151.841 101.639 151.449 102.106C151.075 102.574 150.888 103.313 150.888 104.323V105.389H154.31V109.457H150.888V119.866H145.81ZM156.554 119.866V97.1403H161.632V119.866H156.554Z" fill="#020A47"/>
<path d="M169.83 120.315C168.241 120.315 167.025 119.81 166.183 118.8C165.342 117.771 164.921 116.275 164.921 114.311V105.389H170.027V113.273C170.027 114.133 170.176 114.769 170.475 115.18C170.793 115.592 171.289 115.798 171.962 115.798C172.635 115.798 173.15 115.564 173.505 115.096C173.879 114.61 174.066 113.927 174.066 113.048V105.389H179.144V119.866H174.15L174.094 118.07C173.72 118.781 173.159 119.333 172.411 119.726C171.682 120.118 170.821 120.315 169.83 120.315Z" fill="#020A47"/>
<path d="M181.444 119.866L186.718 112.403L181.725 105.389H187.392L189.748 109.317L192.048 105.389H197.434L192.469 112.459L197.771 119.866H192.076L189.439 115.489L186.831 119.866H181.444Z" fill="#020A47"/>
<path d="M206.663 120.315C205.373 120.315 204.214 119.997 203.185 119.361C202.175 118.725 201.38 117.846 200.801 116.723C200.221 115.583 199.931 114.292 199.931 112.852C199.931 111.468 200.239 110.214 200.857 109.092C201.492 107.951 202.343 107.053 203.409 106.399C204.475 105.725 205.654 105.389 206.944 105.389C208.01 105.389 208.982 105.651 209.861 106.174C210.759 106.698 211.479 107.437 212.021 108.391V97.1403H214.406V119.866H212.078L212.021 117.313C211.46 118.267 210.722 119.005 209.805 119.529C208.889 120.053 207.842 120.315 206.663 120.315ZM207.281 118.182C208.253 118.182 209.104 117.958 209.833 117.509C210.563 117.06 211.133 116.434 211.545 115.629C211.975 114.825 212.19 113.899 212.19 112.852C212.19 111.804 211.975 110.878 211.545 110.074C211.133 109.27 210.563 108.643 209.833 108.194C209.104 107.746 208.253 107.521 207.281 107.521C206.327 107.521 205.476 107.746 204.728 108.194C203.998 108.643 203.419 109.27 202.989 110.074C202.577 110.878 202.371 111.804 202.371 112.852C202.371 113.899 202.577 114.825 202.989 115.629C203.419 116.434 203.998 117.06 204.728 117.509C205.476 117.958 206.327 118.182 207.281 118.182Z" fill="#020A47"/>
<path d="M225.21 120.315C223.919 120.315 222.76 119.997 221.731 119.361C220.721 118.725 219.927 117.846 219.347 116.723C218.767 115.583 218.477 114.292 218.477 112.852C218.477 111.468 218.786 110.214 219.403 109.092C220.039 107.951 220.89 107.053 221.956 106.399C223.022 105.725 224.2 105.389 225.49 105.389C226.556 105.389 227.529 105.651 228.408 106.174C229.305 106.698 230.025 107.437 230.568 108.391L230.624 105.838H232.952V119.866H230.624L230.568 117.313C230.007 118.267 229.268 119.005 228.352 119.529C227.435 120.053 226.388 120.315 225.21 120.315ZM225.827 118.182C226.799 118.182 227.65 117.958 228.38 117.509C229.109 117.06 229.679 116.434 230.091 115.629C230.521 114.825 230.736 113.899 230.736 112.852C230.736 111.804 230.521 110.878 230.091 110.074C229.679 109.27 229.109 108.643 228.38 108.194C227.65 107.746 226.799 107.521 225.827 107.521C224.873 107.521 224.022 107.746 223.274 108.194C222.545 108.643 221.965 109.27 221.535 110.074C221.123 110.878 220.918 111.804 220.918 112.852C220.918 113.899 221.123 114.825 221.535 115.629C221.965 116.434 222.545 117.06 223.274 117.509C224.022 117.958 224.873 118.182 225.827 118.182Z" fill="#020A47"/>
<path d="M243.588 120.315C241.998 120.315 240.829 119.894 240.081 119.052C239.333 118.192 238.959 116.854 238.959 115.04V107.886H235.761V105.838H238.959V101.798H241.343V105.838H246.253V107.886H241.343V114.844C241.343 116.041 241.549 116.911 241.961 117.453C242.391 117.977 243.073 118.239 244.008 118.239C244.906 118.239 245.832 117.995 246.786 117.509L247.066 119.501C246.636 119.763 246.112 119.959 245.495 120.09C244.897 120.24 244.261 120.315 243.588 120.315Z" fill="#020A47"/>
<path d="M255.919 120.315C254.629 120.315 253.469 119.997 252.441 119.361C251.431 118.725 250.636 117.846 250.056 116.723C249.477 115.583 249.187 114.292 249.187 112.852C249.187 111.468 249.495 110.214 250.112 109.092C250.748 107.951 251.599 107.053 252.665 106.399C253.731 105.725 254.909 105.389 256.2 105.389C257.266 105.389 258.238 105.651 259.117 106.174C260.015 106.698 260.735 107.437 261.277 108.391L261.333 105.838H263.662V119.866H261.333L261.277 117.313C260.716 118.267 259.977 119.005 259.061 119.529C258.145 120.053 257.097 120.315 255.919 120.315ZM256.536 118.182C257.509 118.182 258.36 117.958 259.089 117.509C259.819 117.06 260.389 116.434 260.8 115.629C261.23 114.825 261.446 113.899 261.446 112.852C261.446 111.804 261.23 110.878 260.8 110.074C260.389 109.27 259.819 108.643 259.089 108.194C258.36 107.746 257.509 107.521 256.536 107.521C255.583 107.521 254.732 107.746 253.984 108.194C253.254 108.643 252.675 109.27 252.244 110.074C251.833 110.878 251.627 111.804 251.627 112.852C251.627 113.899 251.833 114.825 252.244 115.629C252.675 116.434 253.254 117.06 253.984 117.509C254.732 117.958 255.583 118.182 256.536 118.182Z" fill="#020A47"/>
<path fill-rule="evenodd" clip-rule="evenodd" d="M96.6277 116.836L104.207 115.104C104.324 115.081 104.434 115.033 104.532 114.965C104.629 114.896 104.711 114.808 104.772 114.706C104.834 114.604 104.873 114.491 104.888 114.373C104.903 114.255 104.893 114.136 104.859 114.022L101.636 100.088C101.578 99.8582 101.43 99.6606 101.226 99.5388C101.022 99.417 100.778 99.3808 100.547 99.4382L92.9708 101.17C92.7415 101.229 92.5448 101.376 92.4237 101.578C92.3027 101.781 92.2672 102.024 92.3249 102.252L95.5388 116.186C95.597 116.416 95.7443 116.614 95.9484 116.736C96.1526 116.857 96.3969 116.894 96.6277 116.836Z" fill="#020A47"/>
<path fill-rule="evenodd" clip-rule="evenodd" d="M94.016 125.446L103.205 116.967C103.552 116.618 103.464 116.404 102.987 116.575L96.6714 118.005C96.4102 118.07 96.1695 118.198 95.9716 118.38C95.7736 118.562 95.6247 118.79 95.5387 119.044L93.6229 125.188C93.4918 125.664 93.6666 125.795 94.016 125.446Z" fill="#020A47"/>
<path fill-rule="evenodd" clip-rule="evenodd" d="M77.2509 122.679L91.0113 126.917C91.2464 126.961 91.4894 126.92 91.6969 126.801C91.9044 126.683 92.0628 126.495 92.1439 126.27L94.4498 118.913C94.4832 118.799 94.4935 118.678 94.4802 118.56C94.4669 118.441 94.4302 118.326 94.3722 118.221C94.3142 118.117 94.2361 118.025 94.1424 117.95C94.0486 117.876 93.941 117.821 93.8258 117.788L80.0654 113.59C79.8325 113.523 79.5826 113.551 79.3704 113.668C79.1582 113.784 79.0009 113.98 78.9328 114.212L76.6425 121.553C76.5745 121.783 76.6002 122.03 76.7142 122.241C76.8282 122.452 77.0211 122.609 77.2509 122.679Z" fill="#020A47"/>
<path fill-rule="evenodd" clip-rule="evenodd" d="M72.8076 107.619L75.5971 119.793C75.6845 120.269 75.9092 120.269 76.0309 119.793L77.9467 113.649C78.012 113.387 78.0147 113.114 77.9545 112.851C77.8943 112.587 77.773 112.342 77.6004 112.134L73.2008 107.402C72.895 107.044 72.6672 107.144 72.8076 107.619Z" fill="#020A47"/>
<path fill-rule="evenodd" clip-rule="evenodd" d="M83.5663 94.606L73.0261 104.329C72.857 104.49 72.7577 104.71 72.7496 104.943C72.7414 105.175 72.825 105.402 72.9824 105.573L78.2525 111.254C78.415 111.426 78.6388 111.527 78.8754 111.535C79.112 111.543 79.3423 111.458 79.5163 111.298L90.0534 101.559C90.2239 101.399 90.3242 101.179 90.3324 100.946C90.3406 100.713 90.256 100.486 90.097 100.315L84.8363 94.637C84.7554 94.5512 84.6581 94.4823 84.5503 94.4342C84.4424 94.3861 84.326 94.3598 84.2078 94.3569C84.0897 94.354 83.9722 94.3746 83.862 94.4173C83.7519 94.4601 83.6514 94.5242 83.5663 94.606Z" fill="#020A47"/>
<path fill-rule="evenodd" clip-rule="evenodd" d="M93.754 116.618C94.2346 116.749 94.5372 116.491 94.4093 115.997L91.3608 102.843C91.2297 102.367 90.8366 102.237 90.4902 102.582L80.5616 111.774C80.2121 112.119 80.2995 112.508 80.7769 112.638L93.754 116.618Z" fill="#020A47"/>
<path fill-rule="evenodd" clip-rule="evenodd" d="M98.9367 98.2722L86.9175 94.606C86.4401 94.4754 86.3527 94.6495 86.7427 95.0382L91.1423 99.7554C91.3397 99.9393 91.5784 100.073 91.8384 100.146C92.0984 100.219 92.3722 100.229 92.6369 100.175L98.9523 98.7479C99.4172 98.6173 99.4172 98.3996 98.9367 98.2722Z" fill="#020A47"/>
<path d="M356 113C355.068 113 354.223 112.779 353.464 112.336C352.706 111.894 352.106 111.294 351.664 110.536C351.221 109.777 351 108.932 351 108C351 107.068 351.221 106.223 351.664 105.464C352.106 104.706 352.706 104.106 353.464 103.664C354.223 103.221 355.068 103 356 103C356.948 103 357.793 103.221 358.536 103.664C359.294 104.106 359.894 104.706 360.336 105.464C360.779 106.223 361 107.068 361 108C361 108.932 360.779 109.777 360.336 110.536C359.894 111.294 359.294 111.894 358.536 112.336C357.793 112.779 356.948 113 356 113ZM356 112.123C356.774 112.123 357.461 111.942 358.062 111.578C358.678 111.215 359.167 110.725 359.531 110.109C359.894 109.477 360.076 108.774 360.076 108C360.076 107.226 359.894 106.531 359.531 105.915C359.167 105.283 358.678 104.785 358.062 104.422C357.461 104.058 356.774 103.877 356 103.877C355.242 103.877 354.555 104.058 353.938 104.422C353.322 104.785 352.833 105.283 352.469 105.915C352.106 106.531 351.924 107.226 351.924 108C351.924 108.774 352.106 109.477 352.469 110.109C352.833 110.725 353.322 111.215 353.938 111.578C354.555 111.942 355.242 112.123 356 112.123ZM354.318 110.275V105.488H355.929C356.529 105.488 356.987 105.622 357.303 105.891C357.635 106.16 357.801 106.531 357.801 107.005C357.801 107.305 357.73 107.581 357.588 107.834C357.445 108.071 357.232 108.253 356.948 108.379L358.133 110.275H357.137L356.095 108.545H355.171V110.275H354.318ZM355.858 106.246H355.171V107.787H355.834C356.229 107.787 356.506 107.724 356.664 107.597C356.821 107.471 356.9 107.273 356.9 107.005C356.9 106.499 356.553 106.246 355.858 106.246Z" fill="#020A47"/>
<path d="M268.925 102.85C268.193 102.85 267.53 102.676 266.935 102.329C266.339 101.982 265.868 101.511 265.521 100.915C265.174 100.32 265 99.6566 265 98.9249C265 98.1933 265.174 97.5298 265.521 96.9346C265.868 96.3393 266.339 95.8681 266.935 95.5208C267.53 95.1736 268.193 95 268.925 95C269.669 95 270.332 95.1736 270.915 95.5208C271.511 95.8681 271.982 96.3393 272.329 96.9346C272.676 97.5298 272.85 98.1933 272.85 98.9249C272.85 99.6566 272.676 100.32 272.329 100.915C271.982 101.511 271.511 101.982 270.915 102.329C270.332 102.676 269.669 102.85 268.925 102.85ZM268.925 102.162C269.533 102.162 270.072 102.019 270.543 101.734C271.027 101.449 271.411 101.064 271.697 100.58C271.982 100.084 272.124 99.5326 272.124 98.9249C272.124 98.3173 271.982 97.7716 271.697 97.288C271.411 96.7919 271.027 96.4013 270.543 96.1161C270.072 95.8309 269.533 95.6883 268.925 95.6883C268.33 95.6883 267.79 95.8309 267.307 96.1161C266.823 96.4013 266.439 96.7919 266.153 97.288C265.868 97.7716 265.725 98.3173 265.725 98.9249C265.725 99.5326 265.868 100.084 266.153 100.58C266.439 101.064 266.823 101.449 267.307 101.734C267.79 102.019 268.33 102.162 268.925 102.162ZM267.604 100.711V96.9532H268.869C269.34 96.9532 269.7 97.0586 269.948 97.2694C270.208 97.4802 270.339 97.7716 270.339 98.1437C270.339 98.3793 270.283 98.5963 270.171 98.7947C270.06 98.9807 269.892 99.1233 269.669 99.2225L270.599 100.711H269.818L268.999 99.3527H268.274V100.711H267.604ZM268.813 97.5484H268.274V98.7575H268.795C269.105 98.7575 269.322 98.7079 269.446 98.6087C269.57 98.5095 269.632 98.3545 269.632 98.1437C269.632 97.7468 269.359 97.5484 268.813 97.5484Z" fill="#020A47"/>
</svg>
