<?xml version="1.0" encoding="utf-8"?>
<!-- Generator: Adobe Illustrator 19.1.0, SVG Export Plug-In . SVG Version: 6.00 Build 0)  -->
<svg version="1.1" id="Layer_1" xmlns="http://www.w3.org/2000/svg" xmlns:xlink="http://www.w3.org/1999/xlink" x="0px" y="0px"
	 viewBox="-171 37 328 328" style="enable-background:new -171 37 328 328;" xml:space="preserve">
<style type="text/css">
	.st0{fill:#5CCDFF;}
	.st1{fill:#FFFFFF;}
</style>
<rect x="-170.8" y="37" class="st0" width="328" height="328"/>
<g>
	<path class="st1" d="M-97.4,56.8h-9.1l-2.4,5.2h-6.4l12.8-26.6h8l3.8,26.6h-6.2L-97.4,56.8z M-104.3,51.9h6.4l-1.1-11.6
		L-104.3,51.9z"/>
	<path class="st1" d="M-79.3,47l-1.7,9.7c0,0.2-0.1,0.4-0.1,0.5c0,0.3,0.2,0.4,0.6,0.4c1,0,2-0.4,3-0.8l1.1,3.9
		c-1.6,0.9-3.9,1.6-6.2,1.6c-2.8,0-4.4-1.4-4.4-3.7c0-0.3,0-0.6,0.1-0.8l1.9-10.8h-2.9l0.8-4.5h2.9l0.8-4.7l5.8-0.8l-1,5.5h4.6
		L-75,47H-79.3z"/>
	<path class="st1" d="M-63.1,62l-0.2-1.7c-1.4,1-3.4,2.1-6.2,2.1c-4.2,0-5.1-2.6-4.3-6.9l0.9-5.2c0.8-4.6,2.6-8.1,10.3-8.1
		c2,0,4.7,0.4,7.4,1.2L-58.4,62H-63.1z M-68.2,56.1c-0.2,1,0.1,1.4,1.1,1.4c1.4,0,3-0.8,4.3-1.9l1.5-8.4C-62.1,47-63,47-63.6,47
		c-2.9,0-3.3,1.4-3.6,3.3L-68.2,56.1z"/>
	<path class="st1" d="M-40.8,47.2c-2.5,1.4-3.4,1.9-5.6,3.3l-2,11.5h-5.6l3.3-19l5-0.8l-0.1,2.6c1.9-1.1,3.4-1.9,5.1-2.6L-40.8,47.2
		z"/>
	<path class="st1" d="M-30.1,62l-0.2-1.7c-1.4,1-3.4,2.1-6.2,2.1c-4.2,0-5.1-2.6-4.3-6.9l0.9-5.2c0.8-4.6,2.6-8.1,10.3-8.1
		c2,0,4.7,0.4,7.4,1.2L-25.4,62H-30.1z M-35.2,56.1c-0.2,1,0.1,1.4,1.1,1.4c1.4,0,3-0.8,4.3-1.9l1.5-8.4C-29.1,47-30,47-30.6,47
		c-2.9,0-3.3,1.4-3.6,3.3L-35.2,56.1z"/>
	<path class="st1" d="M-12.6,57.1l-4,4.9h-6l7.7-9.8l-4.2-9.2l5.4-0.8l2.5,6.5l4.2-6.1h6L-8.8,53l4.1,9h-5.6L-12.6,57.1z"/>
	<path class="st1" d="M1.1,43l5.8-0.8L3.4,62h-5.6L1.1,43z M2.6,34.4l5.8-0.8l-1.1,6l-5.8,0.8L2.6,34.4z"/>
	<path class="st1" d="M19,62l-0.2-1.7c-1.4,1-3.4,2.1-6.2,2.1c-4.2,0-5.1-2.6-4.3-6.9l0.9-5.2c0.8-4.6,2.6-8.1,10.3-8.1
		c2,0,4.7,0.4,7.4,1.2L23.8,62H19z M13.9,56.1c-0.2,1,0.1,1.4,1.1,1.4c1.4,0,3-0.8,4.3-1.9l1.5-8.4C20,47,19.1,47,18.5,47
		c-2.9,0-3.3,1.4-3.6,3.3L13.9,56.1z"/>
	<path class="st1" d="M35.3,61.1l1.1-4.2c1.5,0.5,3.2,1,5.3,1c1.9,0,2-0.6,2.2-1.5c0.2-0.9-0.4-1.4-2.6-2.5
		c-4.1-2.2-4.2-3.6-3.7-6.5c0.8-4.2,2-5.3,7.4-5.3c1.8,0,4.2,0.4,5.8,0.9l-0.9,4.2c-1.4-0.4-3.6-0.7-4.9-0.7c-1.7,0-1.9,0.2-2.1,1.2
		c-0.2,0.9,0,1.1,1.9,2.1c4.5,2.4,5.2,3.2,4.6,6.3c-0.8,4.4-2.1,6.2-7.9,6.2C39.6,62.4,37.1,61.9,35.3,61.1z"/>
	<path class="st1" d="M54.7,43l5.8-0.8L57,62h-5.6L54.7,43z M56.2,34.4l5.8-0.8l-1.1,6l-5.8,0.8L56.2,34.4z"/>
	<path class="st1" d="M66.2,34.6l5.8-0.8L67,62h-5.6L66.2,34.6z"/>
	<path class="st1" d="M75.3,62l-2.7-18.9l5.6-0.8l1.5,14.5l4.1-9.7c0.4-1,0.5-1.8,0.5-2.5c0-0.6-0.1-1.2-0.2-1.7l5.5-0.8
		c0.2,0.6,0.3,1.4,0.3,2.4c0,1.1-0.2,2.4-0.6,3.5l-6.3,14H75.3z"/>
	<path class="st1" d="M91.2,49.5c0.8-4.5,2.8-7.4,9-7.4c3.7,0,6.5,1.6,6.5,4.9c0,3.8-2,5.6-6.8,7c-2.4,0.7-2.4,0.7-4.1,1.2l-0.2,1.4
		c-0.1,0.7,0,1.4,1,1.4c2,0,5-1,7.6-2.2l1.1,4c-2.4,1.5-6.1,2.7-9.5,2.7c-4,0-5.8-1.8-5.8-5.1c0-0.7,0.1-1.5,0.2-2.4L91.2,49.5z
		 M101.4,47.6c0-0.7-0.6-1.1-1.6-1.1c-2,0-2.6,1.2-2.9,2.8l-0.2,1.4c1-0.2,1.4-0.3,2.6-0.7C100.6,49.5,101.4,48.8,101.4,47.6z"/>
	<path class="st1" d="M120.8,47.2c-2.5,1.4-3.4,1.9-5.6,3.3l-2,11.5h-5.6l3.3-19l5-0.8l-0.1,2.6c1.9-1.1,3.4-1.9,5.1-2.6L120.8,47.2
		z"/>
	<path class="st1" d="M152.6,48.8c0-0.2,0.1-0.4,0.1-0.6c0-0.4-0.2-0.6-0.8-0.6c-1,0-3.5,1-5.1,1.9L144.6,62H139l2.3-13.2
		c0-0.2,0.1-0.4,0.1-0.6c0-0.4-0.2-0.6-0.8-0.6c-1,0-3.5,1-5,1.8L133.4,62h-5.6l3.3-19l5-0.8l0,2.2c3-1.4,5.4-2.2,7.7-2.2
		c1.9,0,2.9,0.8,3.4,2.3c3-1.7,5.6-2.3,7.9-2.3c2.6,0,3.6,1.5,3.6,4c0,0.7,0,1.4-0.2,2.2L155.9,62h-5.6L152.6,48.8z"/>
	<path class="st1" d="M161.5,49.5c0.8-4.5,2.8-7.4,9-7.4c3.7,0,6.5,1.6,6.5,4.9c0,3.8-2,5.6-6.8,7c-2.4,0.7-2.4,0.7-4.1,1.2
		l-0.2,1.4c-0.1,0.7,0,1.4,1,1.4c2,0,5-1,7.6-2.2l1.1,4c-2.4,1.5-6.1,2.7-9.5,2.7c-4,0-5.8-1.8-5.8-5.1c0-0.7,0.1-1.5,0.2-2.4
		L161.5,49.5z M171.7,47.6c0-0.7-0.6-1.1-1.6-1.1c-2,0-2.6,1.2-2.9,2.8l-0.2,1.4c1-0.2,1.4-0.3,2.6-0.7
		C171,49.5,171.7,48.8,171.7,47.6z"/>
	<path class="st1" d="M188.6,59.9c-1.6,1-3.6,1.7-5.7,1.7c-4.2,0-5.3-2.6-4.5-7l0.8-4.4c0.9-4.9,2.1-8.1,10.4-8.1
		c2,0,5.1,0.4,7.6,1.2l-3.8,21.6c-0.8,4.4-2.6,5.4-7.8,5.4c-2.3,0-6.3-0.7-8.7-1.5l1-4c3,0.7,5.4,1.1,7.8,1.1c1.7,0,2.1-0.6,2.3-2
		L188.6,59.9z M184,55.4c-0.2,1,0.1,1.5,1.1,1.5c1.2,0,3.2-0.8,4.4-1.5l1.5-8.4c-0.7-0.1-1.4-0.1-2.2-0.1c-2.9,0-3.5,1.4-3.8,3.3
		L184,55.4z"/>
	<path class="st1" d="M209.5,62l-0.2-1.7c-1.4,1-3.4,2.1-6.2,2.1c-4.2,0-5.1-2.6-4.3-6.9l0.9-5.2c0.8-4.6,2.6-8.1,10.3-8.1
		c2,0,4.7,0.4,7.4,1.2L214.2,62H209.5z M204.4,56.1c-0.2,1,0.1,1.4,1.1,1.4c1.4,0,3-0.8,4.3-1.9l1.5-8.4c-0.8-0.2-1.6-0.2-2.2-0.2
		c-2.9,0-3.3,1.4-3.6,3.3L204.4,56.1z"/>
	<path class="st1" d="M223.3,34.6l5.8-0.8l-5,28.2h-5.6L223.3,34.6z"/>
	<path class="st1" d="M228.8,55.9c0-0.4,0-0.9,0.1-1.4l0.8-4.5c0.9-5,3.3-7.9,10.1-7.9c5.2,0,7.6,3,7.6,6.5c0,0.4,0,0.9-0.1,1.4
		l-0.8,4.5c-0.8,4.7-3.1,7.9-10.2,7.9C231.4,62.4,228.8,59.4,228.8,55.9z M241.8,49c0-1.4-0.9-2.2-2.7-2.2c-2.1,0-3.4,1.1-3.7,3
		l-0.8,4.8c0,0.3-0.1,0.6-0.1,0.8c0,1.4,0.9,2.2,2.7,2.2c2.2,0,3.4-1.1,3.7-3l0.8-4.8C241.7,49.6,241.8,49.3,241.8,49z"/>
	<path class="st1" d="M273.4,48.8c0-0.2,0.1-0.4,0.1-0.6c0-0.4-0.2-0.6-0.8-0.6c-1,0-3.5,1-5.1,1.9L265.4,62h-5.6l2.3-13.2
		c0-0.2,0.1-0.4,0.1-0.6c0-0.4-0.2-0.6-0.8-0.6c-1,0-3.5,1-5,1.8L254.2,62h-5.6l3.3-19l5-0.8l0,2.2c3-1.4,5.4-2.2,7.7-2.2
		c1.9,0,2.9,0.8,3.4,2.3c3-1.7,5.6-2.3,7.9-2.3c2.6,0,3.6,1.5,3.6,4c0,0.7,0,1.4-0.2,2.2L276.7,62H271L273.4,48.8z"/>
	<path class="st1" d="M292.1,62l-0.2-1.7c-1.4,1-3.4,2.1-6.2,2.1c-4.2,0-5.1-2.6-4.3-6.9l0.9-5.2c0.8-4.6,2.6-8.1,10.3-8.1
		c2,0,4.7,0.4,7.4,1.2L296.9,62H292.1z M287,56.1c-0.2,1,0.1,1.4,1.1,1.4c1.4,0,3-0.8,4.3-1.9l1.5-8.4c-0.8-0.2-1.6-0.2-2.2-0.2
		c-2.9,0-3.3,1.4-3.6,3.3L287,56.1z"/>
	<path class="st1" d="M314.7,48.8c0-0.2,0.1-0.4,0.1-0.6c0-0.4-0.2-0.6-0.8-0.6c-1,0-3.5,1-5,1.8L306.8,62h-5.6l3.3-19l5-0.8l0,2.2
		c3-1.4,5.4-2.2,7.7-2.2c2.6,0,3.6,1.5,3.6,4c0,0.7,0,1.2-0.2,2.2L318,62h-5.6L314.7,48.8z"/>
	<path class="st1" d="M325.6,43l5.8-0.8L327.9,62h-5.6L325.6,43z M327.1,34.4l5.8-0.8l-1.1,6l-5.8,0.8L327.1,34.4z"/>
	<path class="st1" d="M343.5,62l-0.2-1.7c-1.4,1-3.4,2.1-6.2,2.1c-4.2,0-5.1-2.6-4.3-6.9l0.9-5.2c0.8-4.6,2.6-8.1,10.3-8.1
		c2,0,4.7,0.4,7.4,1.2L348.3,62H343.5z M338.4,56.1c-0.2,1,0.1,1.4,1.1,1.4c1.4,0,3-0.8,4.3-1.9l1.5-8.4c-0.8-0.2-1.6-0.2-2.2-0.2
		c-2.9,0-3.3,1.4-3.6,3.3L338.4,56.1z"/>
	<path class="st1" d="M352.9,57.4c0-1,0.1-1.8,0.3-3l1.1-5.4c1.1-5.5,3.8-6.9,9.3-6.9c1.7,0,3.4,0.4,4.5,0.8l-1.4,4.6
		c-1-0.3-2.1-0.6-3.2-0.6c-2.6,0-3.4,0.8-3.8,3l-1,5.9c0,0.2-0.1,0.6-0.1,0.8c0,0.6,0.3,1,1,1c1.4,0,4.1-0.8,5.5-1.2l0.5,4.5
		c-1.6,0.8-4.4,1.5-6.4,1.5C354.7,62.4,352.9,60.9,352.9,57.4z"/>
	<path class="st1" d="M-113.4,109.1l1.1-4.2c1.5,0.5,3.2,1,5.3,1c1.9,0,2-0.6,2.2-1.5c0.2-0.9-0.4-1.4-2.6-2.5
		c-4.1-2.2-4.2-3.6-3.7-6.5c0.8-4.2,2-5.3,7.4-5.3c1.8,0,4.2,0.4,5.8,0.9l-0.9,4.2c-1.4-0.4-3.6-0.7-4.9-0.7c-1.7,0-1.9,0.2-2.1,1.2
		c-0.2,0.9,0,1.1,1.9,2.1c4.5,2.4,5.2,3.2,4.6,6.3c-0.8,4.4-2.1,6.2-7.9,6.2C-109.1,110.4-111.7,109.9-113.4,109.1z"/>
	<path class="st1" d="M-86.1,110l-0.2-1.7c-1.4,1-3.4,2.1-6.2,2.1c-4.2,0-5.1-2.6-4.3-6.9l0.9-5.2c0.8-4.6,2.6-8.1,10.3-8.1
		c2,0,4.7,0.4,7.4,1.2l-3.2,18.6H-86.1z M-91.2,104.1c-0.2,1,0.1,1.4,1.1,1.4c1.4,0,3-0.8,4.3-1.9l1.5-8.4C-85.1,95-86,95-86.6,95
		c-2.9,0-3.3,1.4-3.6,3.3L-91.2,104.1z"/>
	<path class="st1" d="M-67.8,95l-1.7,9.7c0,0.2-0.1,0.4-0.1,0.5c0,0.3,0.2,0.4,0.6,0.4c1,0,2-0.4,3-0.8l1.1,3.9
		c-1.6,0.9-3.9,1.6-6.2,1.6c-2.8,0-4.4-1.4-4.4-3.7c0-0.3,0-0.6,0.1-0.8l1.9-10.8h-2.9l0.8-4.5h2.9l0.8-4.7L-66,85l-1,5.5h4.6
		l-1.1,4.5H-67.8z"/>
	<path class="st1" d="M-59.5,91l5.8-0.8l-3.5,19.8h-5.6L-59.5,91z M-57.9,82.4l5.8-0.8l-1.1,6l-5.8,0.8L-57.9,82.4z"/>
	<path class="st1" d="M-53.1,109.1l1.1-4.2c1.5,0.5,3.2,1,5.3,1c1.9,0,2-0.6,2.2-1.5c0.2-0.9-0.4-1.4-2.6-2.5
		c-4.1-2.2-4.2-3.6-3.7-6.5c0.8-4.2,2-5.3,7.4-5.3c1.8,0,4.2,0.4,5.8,0.9l-0.9,4.2c-1.4-0.4-3.6-0.7-4.9-0.7c-1.7,0-1.9,0.2-2.1,1.2
		c-0.2,0.9,0,1.1,1.9,2.1c4.5,2.4,5.2,3.2,4.6,6.3c-0.8,4.4-2.1,6.2-7.9,6.2C-48.9,110.4-51.4,109.9-53.1,109.1z"/>
	<path class="st1" d="M-38.7,114.9c2-2,2.2-3,2.6-4.9l2.6-14.9h-2.8l0.8-4.6h2.8l0.5-2.6c0.8-4.3,2.3-6.2,7-6.2c1.6,0,3.5,0.3,5,0.8
		l-1.2,4.4c-0.9-0.3-2.4-0.6-3.3-0.6c-1.3,0-1.7,0.3-1.9,1.3l-0.5,2.8h5l-1.2,4.6h-4.6l-2.7,15.5c-0.5,2.7-1.4,4.6-4.5,7.6
		L-38.7,114.9z"/>
	<path class="st1" d="M-12.3,110l-0.2-1.7c-1.4,1-3.4,2.1-6.2,2.1c-4.2,0-5.1-2.6-4.3-6.9l0.9-5.2c0.8-4.6,2.6-8.1,10.3-8.1
		c2,0,4.7,0.4,7.4,1.2L-7.6,110H-12.3z M-17.4,104.1c-0.2,1,0.1,1.4,1.1,1.4c1.4,0,3-0.8,4.3-1.9l1.5-8.4c-0.8-0.2-1.6-0.2-2.2-0.2
		c-2.9,0-3.3,1.4-3.6,3.3L-17.4,104.1z"/>
	<path class="st1" d="M-2.9,105.4c0-1,0.1-1.8,0.3-3l1.1-5.4c1.1-5.5,3.8-6.9,9.3-6.9c1.7,0,3.4,0.4,4.5,0.8l-1.4,4.6
		c-1-0.3-2.1-0.6-3.2-0.6c-2.6,0-3.4,0.8-3.8,3l-1,5.9c0,0.2-0.1,0.6-0.1,0.8c0,0.6,0.3,1,1,1c1.4,0,4.1-0.8,5.5-1.2l0.5,4.5
		c-1.6,0.8-4.4,1.5-6.4,1.5C-1.1,110.4-2.9,108.9-2.9,105.4z"/>
	<path class="st1" d="M21.9,95l-1.7,9.7c0,0.2-0.1,0.4-0.1,0.5c0,0.3,0.2,0.4,0.6,0.4c1,0,2-0.4,3-0.8l1.1,3.9
		c-1.6,0.9-3.9,1.6-6.2,1.6c-2.8,0-4.4-1.4-4.4-3.7c0-0.3,0-0.6,0.1-0.8L16.3,95h-2.9l0.8-4.5h2.9l0.8-4.7l5.8-0.8l-1,5.5h4.6
		L26.2,95H21.9z"/>
	<path class="st1" d="M30.2,91l5.8-0.8L32.5,110h-5.6L30.2,91z M31.7,82.4l5.8-0.8l-1.1,6l-5.8,0.8L31.7,82.4z"/>
	<path class="st1" d="M37.1,103.9c0-0.4,0-0.9,0.1-1.4L38,98c0.9-5,3.3-7.9,10.1-7.9c5.2,0,7.6,3,7.6,6.5c0,0.4,0,0.9-0.1,1.4
		l-0.8,4.5c-0.8,4.7-3.1,7.9-10.2,7.9C39.7,110.4,37.1,107.4,37.1,103.9z M50.1,97c0-1.4-0.9-2.2-2.7-2.2c-2.1,0-3.4,1.1-3.7,3
		l-0.8,4.8c0,0.3-0.1,0.6-0.1,0.8c0,1.4,0.9,2.2,2.7,2.2c2.2,0,3.4-1.1,3.7-3l0.8-4.8C50,97.6,50.1,97.3,50.1,97z"/>
	<path class="st1" d="M70.4,96.8c0-0.2,0.1-0.4,0.1-0.6c0-0.4-0.2-0.6-0.8-0.6c-1,0-3.5,1-5,1.8L62.5,110h-5.6l3.3-19l5-0.8l0,2.2
		c3-1.4,5.4-2.2,7.7-2.2c2.6,0,3.6,1.5,3.6,4c0,0.7,0,1.2-0.2,2.2L73.8,110h-5.6L70.4,96.8z"/>
	<path class="st1" d="M110.4,96.8c0-0.2,0.1-0.4,0.1-0.6c0-0.4-0.2-0.6-0.8-0.6c-1,0-3.5,1-5.1,1.9l-2.2,12.5h-5.6l2.3-13.2
		c0-0.2,0.1-0.4,0.1-0.6c0-0.4-0.2-0.6-0.8-0.6c-1,0-3.5,1-5,1.8L91.2,110h-5.6l3.3-19l5-0.8l0,2.2c3-1.4,5.4-2.2,7.7-2.2
		c1.9,0,2.9,0.8,3.4,2.3c3-1.7,5.6-2.3,7.9-2.3c2.6,0,3.6,1.5,3.6,4c0,0.7,0,1.4-0.2,2.2l-2.4,13.7H108L110.4,96.8z"/>
	<path class="st1" d="M124.4,103.7c0,0.2-0.1,0.4-0.1,0.6c0,0.4,0.2,0.6,0.8,0.6c1,0,3.6-1.1,5-1.8l2.1-12.1l5.8-0.8l-3.5,19.8h-4.8
		l0-1.8c-3,1.4-5.4,2.2-7.7,2.2c-2.6,0-3.6-1.5-3.6-4c0-0.8,0.1-1.4,0.2-2.2L121,91l5.8-0.8L124.4,103.7z"/>
	<path class="st1" d="M143.8,82.6l5.8-0.8l-5,28.2H139L143.8,82.6z"/>
	<path class="st1" d="M158.3,95l-1.7,9.7c0,0.2-0.1,0.4-0.1,0.5c0,0.3,0.2,0.4,0.6,0.4c1,0,2-0.4,3-0.8l1.1,3.9
		c-1.6,0.9-3.9,1.6-6.2,1.6c-2.8,0-4.4-1.4-4.4-3.7c0-0.3,0-0.6,0.1-0.8l1.9-10.8h-2.9l0.8-4.5h2.9l0.8-4.7l5.8-0.8l-1,5.5h4.6
		l-1.1,4.5H158.3z"/>
	<path class="st1" d="M166.6,91l5.8-0.8l-3.5,19.8h-5.6L166.6,91z M168.2,82.4l5.8-0.8l-1.1,6l-5.8,0.8L168.2,82.4z"/>
	<path class="st1" d="M181.5,90.5l0.2,1.7c1.4-1.2,3.4-2.1,6.2-2.1c4.2,0,5.3,2.6,4.5,6.9l-0.9,5.2c-0.8,4.6-2,8.1-10.2,8.1
		c-0.6,0-1.8-0.1-2.4-0.2l-1.4,7.7l-5.8,0.8l5-28.2H181.5z M186.9,96.4c0.2-1-0.1-1.5-1.1-1.5c-2,0-3.4,1-4.5,2l-1.5,8.7
		c0.6,0.1,1.4,0.2,2.2,0.2c2.9,0,3.5-1.6,3.9-3.4L186.9,96.4z"/>
	<path class="st1" d="M195,118.6l-1.4-4.4c2.7-1,4.4-2.2,5.8-4.2h-1.8l-2.7-18.9l5.6-0.8l1.5,14.5l4.1-9.7c0.4-1,0.5-1.8,0.5-2.5
		c0-0.6-0.1-1.2-0.2-1.7l5.5-0.8c0.2,0.6,0.3,1.4,0.3,2.4c0,1.1-0.2,2.4-0.6,3.5l-6.3,14C203,114.5,201,116.7,195,118.6z"/>
	<path class="st1" d="M230.9,110l-0.2-1.7c-1.4,1.2-3.4,2.1-6.2,2.1c-4.2,0-5.3-2.6-4.5-6.9l0.9-5.2c0.8-4.6,2-8.1,10.2-8.1
		c0.6,0,1.8,0.1,2.4,0.2l1.4-7.8l5.8-0.8l-5,28.2H230.9z M225.5,104.2c-0.2,1,0.1,1.5,1.1,1.5c2,0,3.4-1,4.5-2l1.5-8.7
		c-0.6-0.1-1.4-0.2-2.2-0.2c-2.9,0-3.5,1.6-3.9,3.4L225.5,104.2z"/>
	<path class="st1" d="M241.4,97.5c0.8-4.5,2.8-7.4,9-7.4c3.7,0,6.5,1.6,6.5,4.9c0,3.8-2,5.6-6.8,7c-2.4,0.7-2.4,0.7-4.1,1.2
		l-0.2,1.4c-0.1,0.7,0,1.4,1,1.4c2,0,5-1,7.6-2.2l1.1,4c-2.4,1.5-6.1,2.7-9.5,2.7c-4,0-5.8-1.8-5.8-5.1c0-0.7,0.1-1.5,0.2-2.4
		L241.4,97.5z M251.6,95.6c0-0.7-0.6-1.1-1.6-1.1c-2,0-2.6,1.2-2.9,2.8l-0.2,1.4c1-0.2,1.4-0.3,2.6-0.7
		C250.9,97.5,251.6,96.8,251.6,95.6z"/>
	<path class="st1" d="M257.4,109.1l1.1-4.2c1.5,0.5,3.2,1,5.3,1c1.9,0,2-0.6,2.2-1.5c0.2-0.9-0.4-1.4-2.6-2.5
		c-4.1-2.2-4.2-3.6-3.7-6.5c0.8-4.2,2-5.3,7.4-5.3c1.8,0,4.2,0.4,5.8,0.9l-0.9,4.2c-1.4-0.4-3.6-0.7-4.9-0.7c-1.7,0-1.9,0.2-2.1,1.2
		c-0.2,0.9,0,1.1,1.9,2.1c4.5,2.4,5.2,3.2,4.6,6.3c-0.8,4.4-2.1,6.2-7.9,6.2C261.6,110.4,259.1,109.9,257.4,109.1z"/>
	<path class="st1" d="M276.8,91l5.8-0.8l-3.5,19.8h-5.6L276.8,91z M278.3,82.4l5.8-0.8l-1.1,6l-5.8,0.8L278.3,82.4z"/>
	<path class="st1" d="M294.4,107.9c-1.6,1-3.6,1.7-5.7,1.7c-4.2,0-5.3-2.6-4.5-7l0.8-4.4c0.9-4.9,2.1-8.1,10.4-8.1
		c2,0,5.1,0.4,7.6,1.2l-3.8,21.6c-0.8,4.4-2.6,5.4-7.8,5.4c-2.3,0-6.3-0.7-8.7-1.5l1-4c3,0.7,5.4,1.1,7.8,1.1c1.7,0,2.1-0.6,2.3-2
		L294.4,107.9z M289.7,103.4c-0.2,1,0.1,1.5,1.1,1.5c1.2,0,3.2-0.8,4.4-1.5l1.5-8.4c-0.7-0.1-1.4-0.1-2.2-0.1
		c-2.9,0-3.5,1.4-3.8,3.3L289.7,103.4z"/>
	<path class="st1" d="M317.5,96.8c0-0.2,0.1-0.4,0.1-0.6c0-0.4-0.2-0.6-0.8-0.6c-1,0-3.5,1-5,1.8l-2.2,12.6H304l3.3-19l5-0.8l0,2.2
		c3-1.4,5.4-2.2,7.7-2.2c2.6,0,3.6,1.5,3.6,4c0,0.7,0,1.2-0.2,2.2l-2.4,13.7h-5.6L317.5,96.8z"/>
	<path class="st1" d="M343.9,110l-0.2-1.7c-1.4,1.2-3.4,2.1-6.2,2.1c-4.2,0-5.3-2.6-4.5-6.9l0.9-5.2c0.8-4.6,2-8.1,10.2-8.1
		c0.6,0,1.8,0.1,2.4,0.2l1.4-7.8l5.8-0.8l-5,28.2H343.9z M338.5,104.2c-0.2,1,0.1,1.5,1.1,1.5c2,0,3.4-1,4.5-2l1.5-8.7
		c-0.6-0.1-1.4-0.2-2.2-0.2c-2.9,0-3.5,1.6-3.9,3.4L338.5,104.2z"/>
	<path class="st1" d="M359.6,103.7c0,0.2-0.1,0.4-0.1,0.6c0,0.4,0.2,0.6,0.8,0.6c1,0,3.6-1.1,5-1.8l2.1-12.1l5.8-0.8l-3.5,19.8H365
		l0-1.8c-3,1.4-5.4,2.2-7.7,2.2c-2.6,0-3.6-1.5-3.6-4c0-0.8,0.1-1.4,0.2-2.2l2.3-13.2l5.8-0.8L359.6,103.7z"/>
	<path class="st1" d="M374.4,103.9c0-0.4,0-0.9,0.1-1.4l0.8-4.5c0.9-5,3.3-7.9,10.1-7.9c5.2,0,7.6,3,7.6,6.5c0,0.4,0,0.9-0.1,1.4
		l-0.8,4.5c-0.8,4.7-3.1,7.9-10.2,7.9C377,110.4,374.4,107.4,374.4,103.9z M387.4,97c0-1.4-0.9-2.2-2.7-2.2c-2.1,0-3.4,1.1-3.7,3
		l-0.8,4.8c0,0.3-0.1,0.6-0.1,0.8c0,1.4,0.9,2.2,2.7,2.2c2.2,0,3.4-1.1,3.7-3l0.8-4.8C387.3,97.6,387.4,97.3,387.4,97z"/>
</g>
<g>
	<path class="st1" d="M-113.1,282.9c0-0.2,0-0.5,0.1-0.8l1-5.8c0.5-2.7,2.1-3.9,5.4-3.9c1.3,0,2.5,0.2,3.8,0.6l-0.7,2.5
		c-1.1-0.2-2.5-0.4-3.5-0.4c-1.4,0-2,0.5-2.2,1.9l-0.8,4.6c0,0.2-0.1,0.5-0.1,0.6c0,0.9,0.5,1.3,1.6,1.3c1,0,2.3-0.1,3.5-0.4
		l0.1,2.5c-1.1,0.3-2.5,0.5-4,0.5C-111.8,286.2-113.1,284.8-113.1,282.9z"/>
	<path class="st1" d="M-102.2,279.7c0.4-2.2,1.4-3.7,4.5-3.7c1.8,0,3.2,0.8,3.2,2.4c0,1.9-1,2.8-3.4,3.5c-1.2,0.4-1.2,0.4-2,0.6
		l-0.1,0.7c-0.1,0.4,0,0.7,0.5,0.7c1,0,2.5-0.5,3.8-1.1l0.5,2c-1.2,0.7-3,1.3-4.8,1.3c-2,0-2.9-0.9-2.9-2.5c0-0.4,0-0.8,0.1-1.2
		L-102.2,279.7z M-97.1,278.8c0-0.3-0.3-0.6-0.8-0.6c-1,0-1.3,0.6-1.5,1.4l-0.1,0.7c0.5-0.1,0.7-0.2,1.3-0.3
		C-97.4,279.7-97.1,279.4-97.1,278.8z"/>
	<path class="st1" d="M-91.2,272.3l2.9-0.4l-2.5,14.1h-2.8L-91.2,272.3z"/>
	<path class="st1" d="M-87.5,279.7c0.4-2.2,1.4-3.7,4.5-3.7c1.8,0,3.2,0.8,3.2,2.4c0,1.9-1,2.8-3.4,3.5c-1.2,0.4-1.2,0.4-2,0.6
		l-0.1,0.7c-0.1,0.4,0,0.7,0.5,0.7c1,0,2.5-0.5,3.8-1.1l0.5,2c-1.2,0.7-3,1.3-4.8,1.3c-2,0-2.9-0.9-2.9-2.5c0-0.4,0-0.8,0.1-1.2
		L-87.5,279.7z M-82.4,278.8c0-0.3-0.3-0.6-0.8-0.6c-1,0-1.3,0.6-1.5,1.4l-0.1,0.7c0.5-0.1,0.7-0.2,1.3-0.3
		C-82.8,279.7-82.4,279.4-82.4,278.8z"/>
	<path class="st1" d="M-72.3,278.6c-1.2,0.7-1.7,0.9-2.8,1.6l-1,5.7H-79l1.7-9.5l2.5-0.4l-0.1,1.3c0.9-0.6,1.7-1,2.5-1.3
		L-72.3,278.6z"/>
	<path class="st1" d="M-71.5,290.3l-0.7-2.2c1.3-0.5,2.2-1.1,2.9-2.1h-0.9l-1.3-9.4l2.8-0.4l0.7,7.3l2-4.9c0.2-0.5,0.2-0.9,0.2-1.2
		c0-0.3,0-0.6-0.1-0.8l2.7-0.4c0.1,0.3,0.1,0.7,0.1,1.2c0,0.6-0.1,1.2-0.3,1.8l-3.1,7C-67.6,288.2-68.6,289.4-71.5,290.3z"/>
	<path class="st1" d="M-51.8,278.6c-1.2,0.7-1.7,0.9-2.8,1.6l-1,5.7h-2.8l1.7-9.5l2.5-0.4l-0.1,1.3c0.9-0.6,1.7-1,2.5-1.3
		L-51.8,278.6z"/>
	<path class="st1" d="M-51.6,282.9c0-0.2,0-0.5,0.1-0.7l0.4-2.3c0.4-2.5,1.7-3.9,5.1-3.9c2.6,0,3.8,1.5,3.8,3.2c0,0.2,0,0.5-0.1,0.7
		l-0.4,2.3c-0.4,2.3-1.5,3.9-5.1,3.9C-50.3,286.2-51.6,284.7-51.6,282.9z M-45.1,279.5c0-0.7-0.4-1.1-1.4-1.1
		c-1.1,0-1.7,0.5-1.8,1.5l-0.4,2.4c0,0.1,0,0.3,0,0.4c0,0.7,0.4,1.1,1.4,1.1c1.1,0,1.7-0.5,1.8-1.5l0.4-2.4
		C-45.1,279.8-45.1,279.6-45.1,279.5z"/>
	<path class="st1" d="M-41.2,282.9c0-0.2,0-0.5,0.1-0.7l0.4-2.3c0.4-2.5,1.7-3.9,5.1-3.9c2.6,0,3.8,1.5,3.8,3.2c0,0.2,0,0.5-0.1,0.7
		l-0.4,2.3c-0.4,2.3-1.5,3.9-5.1,3.9C-39.9,286.2-41.2,284.7-41.2,282.9z M-34.7,279.5c0-0.7-0.4-1.1-1.4-1.1
		c-1.1,0-1.7,0.5-1.8,1.5l-0.4,2.4c0,0.1,0,0.3,0,0.4c0,0.7,0.4,1.1,1.4,1.1c1.1,0,1.7-0.5,1.8-1.5l0.4-2.4
		C-34.7,279.8-34.7,279.6-34.7,279.5z"/>
	<path class="st1" d="M-26.2,278.5l-0.9,4.9c0,0.1,0,0.2,0,0.3c0,0.1,0.1,0.2,0.3,0.2c0.5,0,1-0.2,1.5-0.4l0.6,2
		c-0.8,0.4-2,0.8-3.1,0.8c-1.4,0-2.2-0.7-2.2-1.8c0-0.1,0-0.3,0-0.4l1-5.4h-1.4l0.4-2.3h1.4l0.4-2.3l2.9-0.4l-0.5,2.7h2.3l-0.6,2.3
		H-26.2z"/>
	<path class="st1" d="M-18.5,279.7c0.4-2.2,1.4-3.7,4.5-3.7c1.8,0,3.2,0.8,3.2,2.4c0,1.9-1,2.8-3.4,3.5c-1.2,0.4-1.2,0.4-2,0.6
		l-0.1,0.7c-0.1,0.4,0,0.7,0.5,0.7c1,0,2.5-0.5,3.8-1.1l0.5,2c-1.2,0.7-3,1.3-4.8,1.3c-2,0-2.9-0.9-2.9-2.5c0-0.4,0-0.8,0.1-1.2
		L-18.5,279.7z M-13.4,278.8c0-0.3-0.3-0.6-0.8-0.6c-1,0-1.3,0.6-1.5,1.4l-0.1,0.7c0.5-0.1,0.7-0.2,1.3-0.3
		C-13.7,279.7-13.4,279.4-13.4,278.8z"/>
	<path class="st1" d="M-5.7,283.6l-2,2.4h-3l3.9-4.9l-2.1-4.6l2.7-0.4l1.3,3.2l2.1-3.1h3l-3.9,5.2l2.1,4.5h-2.8L-5.7,283.6z"/>
	<path class="st1" d="M4.5,278.5l-0.9,4.9c0,0.1,0,0.2,0,0.3c0,0.1,0.1,0.2,0.3,0.2c0.5,0,1-0.2,1.5-0.4l0.6,2
		c-0.8,0.4-2,0.8-3.1,0.8c-1.4,0-2.2-0.7-2.2-1.8c0-0.1,0-0.3,0-0.4l1-5.4H0.3l0.4-2.3h1.4l0.4-2.3l2.9-0.4l-0.5,2.7h2.3l-0.6,2.3
		H4.5z"/>
	<path class="st1" d="M14.1,278.6c-1.2,0.7-1.7,0.9-2.8,1.6l-1,5.7H7.4l1.7-9.5l2.5-0.4l-0.1,1.3c0.9-0.6,1.7-1,2.5-1.3L14.1,278.6z
		"/>
	<path class="st1" d="M19.8,286l-0.1-0.8c-0.7,0.5-1.7,1-3.1,1c-2.1,0-2.5-1.3-2.2-3.5l0.5-2.6c0.4-2.3,1.3-4,5.2-4
		c1,0,2.4,0.2,3.7,0.6l-1.6,9.3H19.8z M17.2,283c-0.1,0.5,0,0.7,0.5,0.7c0.7,0,1.5-0.4,2.1-1l0.7-4.2c-0.4-0.1-0.8-0.1-1.1-0.1
		c-1.5,0-1.6,0.7-1.8,1.7L17.2,283z"/>
	<path class="st1" d="M24.9,283.7c0-0.5,0-0.9,0.2-1.5l0.5-2.7c0.5-2.8,1.9-3.5,4.6-3.5c0.9,0,1.7,0.2,2.3,0.4l-0.7,2.3
		c-0.5-0.2-1.1-0.3-1.6-0.3c-1.3,0-1.7,0.4-1.9,1.5l-0.5,3c0,0.1,0,0.3,0,0.4c0,0.3,0.2,0.5,0.5,0.5c0.7,0,2.1-0.4,2.7-0.6l0.3,2.3
		c-0.8,0.4-2.2,0.7-3.2,0.7C25.8,286.2,24.9,285.4,24.9,283.7z"/>
	<path class="st1" d="M37.7,278.5l-0.9,4.9c0,0.1,0,0.2,0,0.3c0,0.1,0.1,0.2,0.3,0.2c0.5,0,1-0.2,1.5-0.4l0.6,2
		c-0.8,0.4-2,0.8-3.1,0.8c-1.4,0-2.2-0.7-2.2-1.8c0-0.1,0-0.3,0-0.4l1-5.4h-1.4l0.4-2.3h1.4l0.4-2.3l2.9-0.4l-0.5,2.7h2.3l-0.6,2.3
		H37.7z"/>
	<path class="st1" d="M50.4,286l-0.1-0.8c-0.7,0.5-1.7,1-3.1,1c-2.1,0-2.5-1.3-2.2-3.5l0.5-2.6c0.4-2.3,1.3-4,5.2-4
		c1,0,2.4,0.2,3.7,0.6l-1.6,9.3H50.4z M47.8,283c-0.1,0.5,0,0.7,0.5,0.7c0.7,0,1.5-0.4,2.1-1l0.7-4.2c-0.4-0.1-0.8-0.1-1.1-0.1
		c-1.5,0-1.6,0.7-1.8,1.7L47.8,283z"/>
	<path class="st1" d="M62.1,279.4c0-0.1,0-0.2,0-0.3c0-0.2-0.1-0.3-0.4-0.3c-0.5,0-1.8,0.5-2.5,0.9l-1.1,6.3h-2.8l1.7-9.5l2.5-0.4
		l0,1.1c1.5-0.7,2.7-1.1,3.8-1.1c1.3,0,1.8,0.7,1.8,2c0,0.3,0,0.6-0.1,1.1l-1.2,6.8h-2.8L62.1,279.4z"/>
	<path class="st1" d="M71.9,286l-0.1-0.8c-0.7,0.6-1.7,1-3.1,1c-2.1,0-2.6-1.3-2.3-3.5l0.5-2.6c0.4-2.3,1-4.1,5.1-4.1
		c0.3,0,0.9,0,1.2,0.1l0.7-3.9l2.9-0.4L74.2,286H71.9z M69.2,283.1c-0.1,0.5,0,0.8,0.5,0.8c1,0,1.7-0.5,2.3-1l0.8-4.3
		c-0.3-0.1-0.7-0.1-1.1-0.1c-1.5,0-1.8,0.8-1.9,1.7L69.2,283.1z"/>
	<path class="st1" d="M81.1,282.9c0-0.2,0-0.5,0.1-0.7l0.4-2.3c0.4-2.5,1.7-3.9,5.1-3.9c2.6,0,3.8,1.5,3.8,3.2c0,0.2,0,0.5-0.1,0.7
		l-0.4,2.3c-0.4,2.3-1.5,3.9-5.1,3.9C82.4,286.2,81.1,284.7,81.1,282.9z M87.6,279.5c0-0.7-0.4-1.1-1.4-1.1c-1.1,0-1.7,0.5-1.8,1.5
		l-0.4,2.4c0,0.1,0,0.3,0,0.4c0,0.7,0.4,1.1,1.4,1.1c1.1,0,1.7-0.5,1.8-1.5l0.4-2.4C87.6,279.8,87.6,279.6,87.6,279.5z"/>
	<path class="st1" d="M98.1,278.6c-1.2,0.7-1.7,0.9-2.8,1.6l-1,5.7h-2.8l1.7-9.5l2.5-0.4l-0.1,1.3c0.9-0.6,1.7-1,2.5-1.3L98.1,278.6
		z"/>
	<path class="st1" d="M103.8,286l-0.1-0.8c-0.7,0.5-1.7,1-3.1,1c-2.1,0-2.5-1.3-2.2-3.5l0.5-2.6c0.4-2.3,1.3-4,5.2-4
		c1,0,2.4,0.2,3.7,0.6l-1.6,9.3H103.8z M101.3,283c-0.1,0.5,0,0.7,0.5,0.7c0.7,0,1.5-0.4,2.1-1l0.7-4.2c-0.4-0.1-0.8-0.1-1.1-0.1
		c-1.5,0-1.6,0.7-1.8,1.7L101.3,283z"/>
	<path class="st1" d="M115.5,279.4c0-0.1,0-0.2,0-0.3c0-0.2-0.1-0.3-0.4-0.3c-0.5,0-1.8,0.5-2.5,0.9l-1.1,6.3h-2.8l1.7-9.5l2.5-0.4
		l0,1.1c1.5-0.7,2.7-1.1,3.8-1.1c1.3,0,1.8,0.7,1.8,2c0,0.3,0,0.6-0.1,1.1l-1.2,6.8h-2.8L115.5,279.4z"/>
	<path class="st1" d="M125.1,285c-0.8,0.5-1.8,0.8-2.8,0.8c-2.1,0-2.6-1.3-2.3-3.5l0.4-2.2c0.4-2.5,1.1-4,5.2-4c1,0,2.5,0.2,3.8,0.6
		l-1.9,10.8c-0.4,2.2-1.3,2.7-3.9,2.7c-1.2,0-3.1-0.4-4.3-0.8l0.5-2c1.5,0.4,2.7,0.6,3.9,0.6c0.8,0,1-0.3,1.2-1L125.1,285z
		 M122.8,282.7c-0.1,0.5,0,0.8,0.5,0.8c0.6,0,1.6-0.4,2.2-0.8l0.7-4.2c-0.3,0-0.7-0.1-1.1-0.1c-1.5,0-1.7,0.7-1.9,1.7L122.8,282.7z"
		/>
	<path class="st1" d="M131,279.7c0.4-2.2,1.4-3.7,4.5-3.7c1.8,0,3.2,0.8,3.2,2.4c0,1.9-1,2.8-3.4,3.5c-1.2,0.4-1.2,0.4-2,0.6
		l-0.1,0.7c-0.1,0.4,0,0.7,0.5,0.7c1,0,2.5-0.5,3.8-1.1l0.5,2c-1.2,0.7-3,1.3-4.8,1.3c-2,0-2.9-0.9-2.9-2.5c0-0.4,0-0.8,0.1-1.2
		L131,279.7z M136.1,278.8c0-0.3-0.3-0.6-0.8-0.6c-1,0-1.3,0.6-1.5,1.4l-0.1,0.7c0.5-0.1,0.7-0.2,1.3-0.3
		C135.8,279.7,136.1,279.4,136.1,278.8z"/>
	<path class="st1" d="M143.8,286l2.4-13.7l2.9-0.4l-2.5,14.1H143.8z M151.1,276l2.9,0.4l-3.4,4.6l1.8,4.9h-3l-1.7-4.9L151.1,276z"/>
	<path class="st1" d="M154.7,279.7c0.4-2.2,1.4-3.7,4.5-3.7c1.8,0,3.2,0.8,3.2,2.4c0,1.9-1,2.8-3.4,3.5c-1.2,0.4-1.2,0.4-2,0.6
		l-0.1,0.7c-0.1,0.4,0,0.7,0.5,0.7c1,0,2.5-0.5,3.8-1.1l0.5,2c-1.2,0.7-3,1.3-4.8,1.3c-2,0-2.9-0.9-2.9-2.5c0-0.4,0-0.8,0.1-1.2
		L154.7,279.7z M159.8,278.8c0-0.3-0.3-0.6-0.8-0.6c-1,0-1.3,0.6-1.5,1.4l-0.1,0.7c0.5-0.1,0.7-0.2,1.3-0.3
		C159.4,279.7,159.8,279.4,159.8,278.8z"/>
	<path class="st1" d="M167.9,278.5l-0.9,4.9c0,0.1,0,0.2,0,0.3c0,0.1,0.1,0.2,0.3,0.2c0.5,0,1-0.2,1.5-0.4l0.6,2
		c-0.8,0.4-2,0.8-3.1,0.8c-1.4,0-2.2-0.7-2.2-1.8c0-0.1,0-0.3,0-0.4l1-5.4h-1.4l0.4-2.3h1.4l0.4-2.3l2.9-0.4l-0.5,2.7h2.3l-0.6,2.3
		H167.9z"/>
	<path class="st1" d="M170.9,283.7c0-0.5,0-0.9,0.2-1.5l0.5-2.7c0.5-2.8,1.9-3.5,4.6-3.5c0.9,0,1.7,0.2,2.3,0.4l-0.7,2.3
		c-0.5-0.2-1.1-0.3-1.6-0.3c-1.3,0-1.7,0.4-1.9,1.5l-0.5,3c0,0.1,0,0.3,0,0.4c0,0.3,0.2,0.5,0.5,0.5c0.7,0,2.1-0.4,2.7-0.6l0.3,2.3
		c-0.8,0.4-2.2,0.7-3.2,0.7C171.8,286.2,170.9,285.4,170.9,283.7z"/>
	<path class="st1" d="M185.9,279.4c0-0.1,0-0.2,0-0.3c0-0.2-0.1-0.3-0.4-0.3c-0.5,0-1.8,0.5-2.5,0.9l-1.1,6.3h-2.8l2.4-13.7l2.9-0.4
		l-0.9,5.2c1.2-0.6,2.5-1,3.6-1c1.3,0,1.8,0.7,1.8,2c0,0.3,0,0.7-0.1,1.1l-1.2,6.8h-2.8L185.9,279.4z"/>
	<path class="st1" d="M193.3,282.9c0,0.1,0,0.2,0,0.3c0,0.2,0.1,0.3,0.4,0.3c0.5,0,1.8-0.6,2.5-0.9l1.1-6.1l2.9-0.4l-1.7,9.9H196
		l0-0.9c-1.5,0.7-2.7,1.1-3.8,1.1c-1.3,0-1.8-0.8-1.8-2c0-0.4,0-0.7,0.1-1.1l1.2-6.6l2.9-0.4L193.3,282.9z"/>
	<path class="st1" d="M205.1,276.3l0.1,0.8c0.7-0.6,1.7-1,3.1-1c2.1,0,2.6,1.3,2.3,3.5l-0.5,2.6c-0.4,2.3-1,4.1-5.1,4.1
		c-0.3,0-0.9,0-1.2-0.1l-0.7,3.8l-2.9,0.4l2.5-14.1H205.1z M207.8,279.2c0.1-0.5,0-0.8-0.5-0.8c-1,0-1.7,0.5-2.3,1l-0.8,4.3
		c0.3,0.1,0.7,0.1,1.1,0.1c1.5,0,1.8-0.8,1.9-1.7L207.8,279.2z"/>
	<path class="st1" d="M-113.6,309.3l0.6-2.3c1.3,0.4,2.3,0.7,3.6,0.7c1.6,0,1.9-0.3,2.1-1.5c0.1-0.3,0.1-0.5,0.1-0.7
		c0-0.6-0.4-0.8-2-1.2c-2.2-0.6-3-1.3-3-2.9c0-0.4,0.1-0.9,0.2-1.4c0.6-3,1.4-3.6,5-3.6c1,0,2.7,0.2,3.9,0.5l-0.5,2.5
		c-1.2-0.3-2.7-0.5-3.6-0.5c-1.4,0-1.7,0.2-1.9,1.3c0,0.3-0.1,0.5-0.1,0.7c0,0.6,0.4,0.7,2,1.1c2.5,0.6,3.2,1.4,3.2,2.7
		c0,0.4-0.1,0.9-0.2,1.4c-0.5,2.7-1.4,3.9-5.2,3.9C-110.6,310.2-112.5,309.8-113.6,309.3z"/>
	<path class="st1" d="M-102.6,306.9c0-0.2,0-0.5,0.1-0.7l0.4-2.3c0.4-2.5,1.7-3.9,5.1-3.9c2.6,0,3.8,1.5,3.8,3.2
		c0,0.2,0,0.5-0.1,0.7l-0.4,2.3c-0.4,2.3-1.5,3.9-5.1,3.9C-101.3,310.2-102.6,308.7-102.6,306.9z M-96.1,303.5
		c0-0.7-0.4-1.1-1.4-1.1c-1.1,0-1.7,0.5-1.8,1.5l-0.4,2.4c0,0.1,0,0.3,0,0.4c0,0.7,0.4,1.1,1.4,1.1c1.1,0,1.7-0.5,1.8-1.5l0.4-2.4
		C-96.1,303.8-96.1,303.6-96.1,303.5z"/>
	<path class="st1" d="M-89.9,296.3l2.9-0.4l-2.5,14.1h-2.8L-89.9,296.3z"/>
	<path class="st1" d="M-81.2,310l-0.1-0.8c-0.7,0.6-1.7,1-3.1,1c-2.1,0-2.6-1.3-2.3-3.5l0.5-2.6c0.4-2.3,1-4.1,5.1-4.1
		c0.3,0,0.9,0,1.2,0.1l0.7-3.9l2.9-0.4l-2.5,14.1H-81.2z M-83.9,307.1c-0.1,0.5,0,0.8,0.5,0.8c1,0,1.7-0.5,2.3-1l0.8-4.3
		c-0.3-0.1-0.7-0.1-1.1-0.1c-1.5,0-1.8,0.8-1.9,1.7L-83.9,307.1z"/>
	<path class="st1" d="M-71.4,303.7c0.4-2.2,1.4-3.7,4.5-3.7c1.8,0,3.2,0.8,3.2,2.4c0,1.9-1,2.8-3.4,3.5c-1.2,0.4-1.2,0.4-2,0.6
		l-0.1,0.7c-0.1,0.4,0,0.7,0.5,0.7c1,0,2.5-0.5,3.8-1.1l0.5,2c-1.2,0.7-3,1.3-4.8,1.3c-2,0-2.9-0.9-2.9-2.5c0-0.4,0-0.8,0.1-1.2
		L-71.4,303.7z M-66.3,302.8c0-0.3-0.3-0.6-0.8-0.6c-1,0-1.3,0.6-1.5,1.4l-0.1,0.7c0.5-0.1,0.7-0.2,1.3-0.3
		C-66.6,303.7-66.3,303.4-66.3,302.8z"/>
	<path class="st1" d="M-60.9,310l-1.3-9.4l2.8-0.4l0.7,7.3l2-4.9c0.2-0.5,0.2-0.9,0.2-1.2c0-0.3,0-0.6-0.1-0.8l2.7-0.4
		c0.1,0.3,0.1,0.7,0.1,1.2c0,0.6-0.1,1.2-0.3,1.8l-3.1,7H-60.9z"/>
	<path class="st1" d="M-52.6,303.7c0.4-2.2,1.4-3.7,4.5-3.7c1.8,0,3.2,0.8,3.2,2.4c0,1.9-1,2.8-3.4,3.5c-1.2,0.4-1.2,0.4-2,0.6
		l-0.1,0.7c-0.1,0.4,0,0.7,0.5,0.7c1,0,2.5-0.5,3.8-1.1l0.5,2c-1.2,0.7-3,1.3-4.8,1.3c-2,0-2.9-0.9-2.9-2.5c0-0.4,0-0.8,0.1-1.2
		L-52.6,303.7z M-47.5,302.8c0-0.3-0.3-0.6-0.8-0.6c-1,0-1.3,0.6-1.5,1.4l-0.1,0.7c0.5-0.1,0.7-0.2,1.3-0.3
		C-47.8,303.7-47.5,303.4-47.5,302.8z"/>
	<path class="st1" d="M-37.4,302.6c-1.2,0.7-1.7,0.9-2.8,1.6l-1,5.7H-44l1.7-9.5l2.5-0.4l-0.1,1.3c0.9-0.6,1.7-1,2.5-1.3
		L-37.4,302.6z"/>
	<path class="st1" d="M-36.6,314.3l-0.7-2.2c1.3-0.5,2.2-1.1,2.9-2.1h-0.9l-1.3-9.4l2.8-0.4l0.7,7.3l2-4.9c0.2-0.5,0.2-0.9,0.2-1.2
		c0-0.3,0-0.6-0.1-0.8l2.7-0.4c0.1,0.3,0.1,0.7,0.1,1.2c0,0.6-0.1,1.2-0.3,1.8l-3.1,7C-32.6,312.2-33.6,313.4-36.6,314.3z"/>
	<path class="st1" d="M-23.9,304.9c0,0.6,0,1.3-0.1,2l2.4-4.7l-0.3-1.5l2.6-0.4l1.2,6.5l1.1-4.1c0.1-0.4,0.1-0.7,0.1-1
		c0-0.3,0-0.6-0.2-1.1l2.7-0.5c0.1,0.6,0.2,1,0.2,1.5c0,0.7-0.1,1.4-0.6,2.5l-2,5.9H-20l-0.8-4.4l-2.4,4.4h-3.2
		c0-4.1-0.3-6.7-0.6-9.4l2.7-0.4C-24,301.7-23.9,303.2-23.9,304.9z"/>
	<path class="st1" d="M-6.7,303.4c0-0.1,0-0.2,0-0.3c0-0.2-0.1-0.3-0.4-0.3c-0.5,0-1.8,0.5-2.5,0.9l-1.1,6.3h-2.8l2.4-13.7l2.9-0.4
		L-9,301c1.2-0.6,2.5-1,3.6-1c1.3,0,1.8,0.7,1.8,2c0,0.3,0,0.7-0.1,1.1L-5,310h-2.8L-6.7,303.4z"/>
	<path class="st1" d="M-1.8,303.7c0.4-2.2,1.4-3.7,4.5-3.7c1.8,0,3.2,0.8,3.2,2.4c0,1.9-1,2.8-3.4,3.5c-1.2,0.4-1.2,0.4-2,0.6
		l-0.1,0.7c-0.1,0.4,0,0.7,0.5,0.7c1,0,2.5-0.5,3.8-1.1l0.5,2c-1.2,0.7-3,1.3-4.8,1.3c-2,0-2.9-0.9-2.9-2.5c0-0.4,0-0.8,0.1-1.2
		L-1.8,303.7z M3.3,302.8c0-0.3-0.3-0.6-0.8-0.6c-1,0-1.3,0.6-1.5,1.4l-0.1,0.7c0.5-0.1,0.7-0.2,1.3-0.3
		C2.9,303.7,3.3,303.4,3.3,302.8z"/>
	<path class="st1" d="M13.4,302.6c-1.2,0.7-1.7,0.9-2.8,1.6l-1,5.7H6.7l1.7-9.5l2.5-0.4l-0.1,1.3c0.9-0.6,1.7-1,2.5-1.3L13.4,302.6z
		"/>
	<path class="st1" d="M14.2,303.7c0.4-2.2,1.4-3.7,4.5-3.7c1.8,0,3.2,0.8,3.2,2.4c0,1.9-1,2.8-3.4,3.5c-1.2,0.4-1.2,0.4-2,0.6
		l-0.1,0.7c-0.1,0.4,0,0.7,0.5,0.7c1,0,2.5-0.5,3.8-1.1l0.5,2c-1.2,0.7-3,1.3-4.8,1.3c-2,0-2.9-0.9-2.9-2.5c0-0.4,0-0.8,0.1-1.2
		L14.2,303.7z M19.3,302.8c0-0.3-0.3-0.6-0.8-0.6c-1,0-1.3,0.6-1.5,1.4l-0.1,0.7c0.5-0.1,0.7-0.2,1.3-0.3
		C18.9,303.7,19.3,303.4,19.3,302.8z"/>
	<path class="st1" d="M27.6,303.7c0.4-2.2,1.4-3.7,4.5-3.7c1.8,0,3.2,0.8,3.2,2.4c0,1.9-1,2.8-3.4,3.5c-1.2,0.4-1.2,0.4-2,0.6
		l-0.1,0.7c-0.1,0.4,0,0.7,0.5,0.7c1,0,2.5-0.5,3.8-1.1l0.5,2c-1.2,0.7-3,1.3-4.8,1.3c-2,0-2.9-0.9-2.9-2.5c0-0.4,0-0.8,0.1-1.2
		L27.6,303.7z M32.7,302.8c0-0.3-0.3-0.6-0.8-0.6c-1,0-1.3,0.6-1.5,1.4l-0.1,0.7c0.5-0.1,0.7-0.2,1.3-0.3
		C32.4,303.7,32.7,303.4,32.7,302.8z"/>
	<path class="st1" d="M40.4,307.6l-2,2.4h-3l3.9-4.9l-2.1-4.6l2.7-0.4l1.3,3.2l2.1-3.1h3l-3.9,5.2l2.1,4.5h-2.8L40.4,307.6z"/>
	<path class="st1" d="M46.1,307.7c0-0.5,0-0.9,0.2-1.5l0.5-2.7c0.5-2.8,1.9-3.5,4.6-3.5c0.9,0,1.7,0.2,2.3,0.4l-0.7,2.3
		c-0.5-0.2-1.1-0.3-1.6-0.3c-1.3,0-1.7,0.4-1.9,1.5l-0.5,3c0,0.1,0,0.3,0,0.4c0,0.3,0.2,0.5,0.5,0.5c0.7,0,2.1-0.4,2.7-0.6l0.3,2.3
		c-0.8,0.4-2.2,0.7-3.2,0.7C47,310.2,46.1,309.4,46.1,307.7z"/>
	<path class="st1" d="M55,303.7c0.4-2.2,1.4-3.7,4.5-3.7c1.8,0,3.2,0.8,3.2,2.4c0,1.9-1,2.8-3.4,3.5c-1.2,0.4-1.2,0.4-2,0.6
		l-0.1,0.7c-0.1,0.4,0,0.7,0.5,0.7c1,0,2.5-0.5,3.8-1.1l0.5,2c-1.2,0.7-3,1.3-4.8,1.3c-2,0-2.9-0.9-2.9-2.5c0-0.4,0-0.8,0.1-1.2
		L55,303.7z M60.1,302.8c0-0.3-0.3-0.6-0.8-0.6c-1,0-1.3,0.6-1.5,1.4l-0.1,0.7c0.5-0.1,0.7-0.2,1.3-0.3
		C59.8,303.7,60.1,303.4,60.1,302.8z"/>
	<path class="st1" d="M67.7,300.3l0.1,0.8c0.7-0.6,1.7-1,3.1-1c2.1,0,2.6,1.3,2.3,3.5l-0.5,2.6c-0.4,2.3-1,4.1-5.1,4.1
		c-0.3,0-0.9,0-1.2-0.1l-0.7,3.8l-2.9,0.4l2.5-14.1H67.7z M70.3,303.2c0.1-0.5,0-0.8-0.5-0.8c-1,0-1.7,0.5-2.3,1l-0.8,4.3
		c0.3,0.1,0.7,0.1,1.1,0.1c1.5,0,1.8-0.8,1.9-1.7L70.3,303.2z"/>
	<path class="st1" d="M78.8,302.5l-0.9,4.9c0,0.1,0,0.2,0,0.3c0,0.1,0.1,0.2,0.3,0.2c0.5,0,1-0.2,1.5-0.4l0.6,2
		c-0.8,0.4-2,0.8-3.1,0.8c-1.4,0-2.2-0.7-2.2-1.8c0-0.1,0-0.3,0-0.4l1-5.4h-1.4l0.4-2.3h1.4l0.4-2.3l2.9-0.4l-0.5,2.7h2.3l-0.6,2.3
		H78.8z"/>
	<path class="st1" d="M92.7,303.4c0-0.1,0-0.2,0-0.3c0-0.2-0.1-0.3-0.4-0.3c-0.5,0-1.8,0.5-2.5,0.9l-1.1,6.3h-2.8l2.4-13.7l2.9-0.4
		l-0.9,5.2c1.2-0.6,2.5-1,3.6-1c1.3,0,1.8,0.7,1.8,2c0,0.3,0,0.7-0.1,1.1l-1.2,6.8h-2.8L92.7,303.4z"/>
	<path class="st1" d="M97.5,303.7c0.4-2.2,1.4-3.7,4.5-3.7c1.8,0,3.2,0.8,3.2,2.4c0,1.9-1,2.8-3.4,3.5c-1.2,0.4-1.2,0.4-2,0.6
		l-0.1,0.7c-0.1,0.4,0,0.7,0.5,0.7c1,0,2.5-0.5,3.8-1.1l0.5,2c-1.2,0.7-3,1.3-4.8,1.3c-2,0-2.9-0.9-2.9-2.5c0-0.4,0-0.8,0.1-1.2
		L97.5,303.7z M102.6,302.8c0-0.3-0.3-0.6-0.8-0.6c-1,0-1.3,0.6-1.5,1.4l-0.1,0.7c0.5-0.1,0.7-0.2,1.3-0.3
		C102.3,303.7,102.6,303.4,102.6,302.8z"/>
	<path class="st1" d="M112.7,302.6c-1.2,0.7-1.7,0.9-2.8,1.6l-1,5.7h-2.8l1.7-9.5l2.5-0.4l-0.1,1.3c0.9-0.6,1.7-1,2.5-1.3
		L112.7,302.6z"/>
	<path class="st1" d="M113.5,303.7c0.4-2.2,1.4-3.7,4.5-3.7c1.8,0,3.2,0.8,3.2,2.4c0,1.9-1,2.8-3.4,3.5c-1.2,0.4-1.2,0.4-2,0.6
		l-0.1,0.7c-0.1,0.4,0,0.7,0.5,0.7c1,0,2.5-0.5,3.8-1.1l0.5,2c-1.2,0.7-3,1.3-4.8,1.3c-2,0-2.9-0.9-2.9-2.5c0-0.4,0-0.8,0.1-1.2
		L113.5,303.7z M118.6,302.8c0-0.3-0.3-0.6-0.8-0.6c-1,0-1.3,0.6-1.5,1.4l-0.1,0.7c0.5-0.1,0.7-0.2,1.3-0.3
		C118.3,303.7,118.6,303.4,118.6,302.8z"/>
	<path class="st1" d="M121.7,312.2l1.5-2.2h-1.1l0.6-3.3h2.8l-0.6,3.6l-2.2,2.8L121.7,312.2z"/>
	<path class="st1" d="M131.8,306.9c0-0.2,0-0.5,0.1-0.7l0.4-2.3c0.4-2.5,1.7-3.9,5.1-3.9c2.6,0,3.8,1.5,3.8,3.2c0,0.2,0,0.5-0.1,0.7
		l-0.4,2.3c-0.4,2.3-1.5,3.9-5.1,3.9C133.1,310.2,131.8,308.7,131.8,306.9z M138.3,303.5c0-0.7-0.4-1.1-1.4-1.1
		c-1.1,0-1.7,0.5-1.8,1.5l-0.4,2.4c0,0.1,0,0.3,0,0.4c0,0.7,0.4,1.1,1.4,1.1c1.1,0,1.7-0.5,1.8-1.5l0.4-2.4
		C138.3,303.8,138.3,303.6,138.3,303.5z"/>
	<path class="st1" d="M142.1,310l2.4-13.7l2.9-0.4L145,310H142.1z M149.5,300l2.9,0.4l-3.4,4.6l1.8,4.9h-3l-1.7-4.9L149.5,300z"/>
	<path class="st1" d="M-112.4,327.3c0-3.8,2.5-6.9,6.8-6.9s6.8,3.1,6.8,6.9c0,3.8-2.5,6.9-6.8,6.9S-112.4,331.1-112.4,327.3z
		 M-111.4,327.3c0,3.3,2.2,6,5.9,6s5.9-2.7,5.9-6c0-3.3-2.2-6-5.9-6S-111.4,324-111.4,327.3z M-107.9,328.8v-2.9c0-1.4,0.6-2,2.4-2
		c0.7,0,1.5,0.1,2,0.3l-0.1,0.7c-0.6-0.1-1.3-0.2-1.8-0.2c-1.3,0-1.6,0.2-1.6,1.3v2.8c0,1,0.3,1.3,1.6,1.3c0.5,0,1.2-0.1,1.8-0.2
		l0.1,0.7c-0.5,0.2-1.3,0.3-2,0.3C-107.3,330.8-107.9,330.2-107.9,328.8z"/>
	<path class="st1" d="M-97.1,333c2.1-2.1,2.6-2.7,4.4-4.6c1.9-2,2.7-2.8,2.9-3.9l0.1-0.4c0.1-0.3,0.1-0.6,0.1-0.8
		c0-0.9-0.5-1.3-2.4-1.3c-0.9,0-2.3,0.3-3,0.5l-0.1-0.9c1-0.3,2.2-0.6,3.5-0.6c2.2,0,3.2,0.8,3.2,2.3c0,0.2,0,0.4-0.1,0.7l-0.1,0.6
		c-0.3,1.5-0.9,2.1-3.2,4.6c-1.6,1.7-2.1,2.2-3.8,4h5.7l-0.2,1h-7.1L-97.1,333z"/>
	<path class="st1" d="M-86.8,331.6c0-0.2,0-0.5,0.1-0.8l1.2-6.6c0.4-2.5,1.7-3.4,4.6-3.4c2.3,0,3.4,1.1,3.4,2.8c0,0.2,0,0.5-0.1,0.8
		l-1.1,6.3c-0.4,2.2-1.3,3.5-4.6,3.5C-85.7,334.2-86.8,333.2-86.8,331.6z M-78.7,324.5c0.1-0.3,0.1-0.5,0.1-0.8
		c0-1.2-0.7-1.8-2.5-1.8c-2.2,0-3,0.8-3.3,2.5l-1.1,6.4c-0.1,0.3-0.1,0.5-0.1,0.8c0,1.1,0.7,1.6,2.5,1.6c2.2,0,3-0.8,3.3-2.5
		L-78.7,324.5z"/>
	<path class="st1" d="M-72.3,322.4l-2.9,1.5l-0.4-0.9l3.7-1.9h1l-2.3,12.9h-1.1L-72.3,322.4z"/>
	<path class="st1" d="M-70,333.7l0.3-0.9c1,0.3,2,0.5,3.1,0.5c2.1,0,2.8-0.6,3.1-2.3l0.2-0.9c0-0.2,0.1-0.5,0.1-0.7
		c0-1-0.6-1.5-2.1-1.5c-0.3,0-2.8,0-3.1,0l1.2-6.7h6.5l-0.2,1h-5.4l-0.8,4.7c0.9,0,1.1,0,2.2,0c2,0,2.9,1,2.9,2.4
		c0,0.2,0,0.4-0.1,0.7l-0.2,1c-0.4,2.2-1.2,3.2-4.4,3.2C-67.7,334.2-69,334-70,333.7z"/>
	<path class="st1" d="M-53,320.7h1.1l-2.3,13.3h-1.1L-53,320.7z"/>
	<path class="st1" d="M-43.2,326.1c0-0.1,0-0.2,0-0.3c0-0.5-0.3-0.7-0.8-0.7c-1,0-2.9,0.9-4.2,1.7l-1.3,7.2h-1.1l1.7-9.7l1-0.2
		l-0.2,1.5c1-0.7,3.1-1.6,4.2-1.6c1.2,0,1.7,0.6,1.7,1.6c0,0.2,0,0.4-0.1,0.6l-1.4,7.7h-1.1L-43.2,326.1z"/>
	<path class="st1" d="M-31.1,321.2c-1-0.2-2-0.4-3-0.4c-1.5,0-1.9,0.5-2.1,1.6l-0.3,1.8h2.8l-0.3,1h-2.7l-1.7,9.7
		c-0.2,1.4-0.7,2.3-1.8,3.2l-0.7-0.7c0.8-0.7,1.2-1.2,1.4-2.6l1.7-9.6h-1.8l0.2-1h1.8l0.3-1.8c0.3-1.8,1-2.5,3.3-2.5
		c0.9,0,2.1,0.2,3.1,0.4l1.1-0.2l-2.4,13.9h-1.1L-31.1,321.2z"/>
	<path class="st1" d="M-27.5,332.2c0,0.1,0,0.3,0,0.4c0,0.4,0.3,0.6,0.8,0.6c1,0,2.9-0.9,4.2-1.7l1.3-7.1l1.2-0.2l-1.7,9.8h-1
		l0.2-1.4c-1.1,0.8-3,1.6-4.2,1.6c-1.2,0-1.7-0.6-1.7-1.6c0-0.2,0-0.4,0.1-0.6l1.3-7.6l1.2-0.2L-27.5,332.2z"/>
	<path class="st1" d="M-15.6,329.1l-2.3-4.8l1-0.2l2,4.1l3.3-4h1.3l-4.2,4.9l2.4,4.8h-1.2l-1.9-3.9l-3.3,3.9h-1.3L-15.6,329.1z"/>
	<path class="st1" d="M-9.7,334l2.3-13.3H-3c2.6,0,3.6,1.2,3.6,3c0,0.3,0,0.7-0.1,1l-1,5.6C-1,332.9-2,334-5.2,334H-9.7z
		 M-0.6,323.7c0-1.3-0.7-2-2.6-2h-3.3l-2,11.3h3.3c2.5,0,3.2-0.9,3.5-2.9l1-5.4C-0.6,324.3-0.6,324-0.6,323.7z"/>
	<path class="st1" d="M7.9,332.6c-1.1,1-2.5,1.6-3.9,1.6c-1.2,0-1.9-0.4-1.9-1.6c0-0.2,0-0.5,0.1-0.7l0.7-4.2
		c0.5-2.6,1.5-3.6,4.1-3.6c0.9,0,2.2,0.2,3.4,0.6L8.7,334h-1L7.9,332.6z M9.1,325.4c-0.5-0.2-1.5-0.3-2.3-0.3
		c-1.8,0-2.5,0.7-2.9,2.8l-0.7,4c0,0.2-0.1,0.4-0.1,0.6c0,0.6,0.3,0.8,0.9,0.8c1.2,0,2.7-0.8,4-1.9L9.1,325.4z"/>
	<path class="st1" d="M12.9,332.9c0-0.1,0-0.2,0-0.4l1.3-7.3h-1.9l0.2-1h1.9l0.4-2.4l1.1-0.2l-0.4,2.5h2.9l-0.2,1h-2.9l-1.3,7.2
		c0,0.1,0,0.3,0,0.4c0,0.4,0.2,0.5,0.7,0.5c0.5,0,1.2-0.2,1.9-0.5l0.3,0.8c-0.7,0.4-1.6,0.7-2.4,0.7
		C13.6,334.2,12.9,333.8,12.9,332.9z"/>
	<path class="st1" d="M25,332.6c-1.1,1-2.5,1.6-3.9,1.6c-1.2,0-1.9-0.4-1.9-1.6c0-0.2,0-0.5,0.1-0.7l0.7-4.2
		c0.5-2.6,1.5-3.6,4.1-3.6c0.9,0,2.2,0.2,3.4,0.6l-1.6,9.3h-1L25,332.6z M26.3,325.4c-0.5-0.2-1.5-0.3-2.3-0.3
		c-1.8,0-2.5,0.7-2.9,2.8l-0.7,4c0,0.2-0.1,0.4-0.1,0.6c0,0.6,0.3,0.8,0.9,0.8c1.2,0,2.7-0.8,4-1.9L26.3,325.4z"/>
</g>
<g>
	<path class="st1" d="M-29.9,206l-8.2-35.8c-0.4-1.9-2.3-3.9-4.2-4.5l-37.6-11.6c-0.5-0.2-1-0.2-1.6-0.2c-1.6,0-3.3,0.6-4.4,1.6
		l-26.9,25c-1.4,1.3-2.2,3.9-1.8,5.8l8.8,38.3c0.4,2,2.2,3.9,4.2,4.5l35.1,10.8c0.5,0.2,1,0.2,1.6,0.2c1.6,0,3.3-0.6,4.4-1.6
		l28.8-26.7C-30.3,210.5-29.5,208-29.9,206z M-76,162.8l25.7,7.9c1,0.3,1,0.8,0,1l-13.6,3.1c-1,0.2-2.5-0.2-3.2-1l-9.5-10.2
		C-77.2,162.8-77,162.5-76,162.8z M-59.9,209c0.2,1-0.4,1.6-1.4,1.3l-27.8-8.6c-1-0.3-1.2-1.1-0.4-1.9l21.3-19.8
		c0.8-0.7,1.6-0.5,1.8,0.6L-59.9,209z M-105.7,183.7l22.6-21c0.8-0.7,2-0.7,2.7,0.1l11.3,12.2c0.7,0.8,0.7,2-0.1,2.7l-22.6,21
		c-0.8,0.7-2,0.7-2.7-0.1l-11.3-12.2C-106.6,185.7-106.5,184.4-105.7,183.7z M-100.3,217.1l-6-26.2c-0.2-1,0.2-1.2,0.9-0.5l9.5,10.2
		c0.7,0.8,1,2.2,0.7,3.2l-4.1,13.3C-99.6,218.1-100,218.1-100.3,217.1z M-67.2,232.4l-29.5-9.1c-1-0.3-1.6-1.4-1.3-2.4l4.9-15.9
		c0.3-1,1.4-1.6,2.4-1.3l29.5,9.1c1,0.3,1.6,1.4,1.3,2.4l-4.9,15.9C-65.1,232.1-66.2,232.7-67.2,232.4z M-41.1,210.9l-19.7,18.3
		c-0.8,0.7-1.1,0.5-0.8-0.5l4.1-13.3c0.3-1,1.4-2,2.4-2.3l13.6-3.1C-40.5,209.8-40.3,210.2-41.1,210.9z M-38.9,207l-16.2,3.7
		c-1,0.2-2.1-0.4-2.3-1.4l-6.9-30c-0.2-1,0.4-2.1,1.4-2.3l16.2-3.7c1-0.2,2.1,0.4,2.3,1.4l6.9,30C-37.2,205.8-37.9,206.8-38.9,207z"
		/>
	<g>
		<path class="st1" d="M212.8,218.7c-0.1,0.9,0.3,1.1,0.7,1.1h2.3c0.8,0,1-0.8,1-1.1l9.1-52c0.2-0.9-0.5-1.1-0.9-1l0,0l-2.4,0.3
			c-0.7,0.1-1,0.7-1.1,1l0,0l-2.7,15.1c-2.3-0.7-6.7-1.3-9.2-1.3c-9.7,0-14.4,3.8-16.2,14.1l-2.9,16.3c-0.2,1-0.2,2-0.2,2.8
			c0,4.7,2.7,6.4,7.5,6.4c5.5,0,11.2-2.6,15.6-6.3L212.8,218.7z M198.2,216.7c-2.3,0-3.5-0.6-3.5-3.1c0-0.6,0.1-1.3,0.2-2.3
			l2.7-15.6c1.5-8.4,4.4-11,11.3-11c3.1,0,6.1,0.5,9.2,1.3l-4.1,23.1C209.2,213.5,203,216.7,198.2,216.7z"/>
		<path class="st1" d="M251.4,218.7c-0.1,0.9,0.3,1.1,0.7,1.1h2.3c0.8,0,1-0.8,1-1.1l0,0l6.2-35.2c-4.5-1.6-9.6-2.5-13.1-2.5
			c-10.2,0-14.4,4.1-16.2,14.1l-2.9,16.3c-0.2,1-0.2,2-0.2,2.8c0,4.7,2.7,6.4,7.5,6.4c5.5,0,11-2.6,15.3-6.3L251.4,218.7z
			 M237.1,216.7c-2.3,0-3.5-0.6-3.5-3.1c0-0.6,0.1-1.3,0.2-2.3l2.7-15.6c1.5-8.4,4.2-11,11.3-11c3.1,0,6.8,0.6,8.9,1.3l-4.1,23.1
			C247.8,213.5,241.9,216.7,237.1,216.7z"/>
		<path class="st1" d="M313.9,218.7c-0.1,0.9,0.3,1.1,0.7,1.1h2.3c0.8,0,1-0.8,1-1.1l0,0l6.2-35.2c-4.5-1.6-9.6-2.5-13.1-2.5
			c-10.2,0-14.4,4.1-16.2,14.1l-2.9,16.3c-0.2,1-0.2,2-0.2,2.8c0,4.7,2.7,6.4,7.5,6.4c5.5,0,11-2.6,15.3-6.3L313.9,218.7z
			 M299.6,216.7c-2.3,0-3.5-0.6-3.5-3.1c0-0.6,0.1-1.3,0.2-2.3l2.7-15.6c1.5-8.4,4.2-11,11.3-11c3.1,0,6.8,0.6,8.9,1.3l-4.1,23.1
			C310.3,213.5,304.4,216.7,299.6,216.7z"/>
		<g>
			<rect x="277.1" y="172.4" class="st1" width="0" height="0"/>
			<path class="st1" d="M290.1,184.9L290.1,184.9l0.6-2.5c0.2-0.7-0.2-0.7-0.5-0.7h-10.7l1.5-8.7l0,0c0.2-0.9-0.5-1.1-0.9-1l0,0
				l-2.4,0.3l0,0c-0.7,0.1-1,0.7-1.1,1l0,0l-1.5,8.4h-6.6c-0.2,0-0.7,0.1-0.8,0.7l-0.4,2.4l0,0c0,0.2,0,0.7,0.6,0.7h6.5l-5,28.6
				c-0.1,0.5-0.2,1-0.2,1.5c0,3.4,2.4,5.1,6.3,5.1c2.9,0,8.3-0.8,11-2.2c0.8-0.5,0.7-1,0.6-1.4l0,0l-0.6-1.5
				c-0.1-0.3-0.5-0.3-0.8-0.2v0c-2.6,1-4.1,1.6-9.4,1.6c-1.8,0-2.6-0.4-2.6-1.9c0-0.4,0.1-0.9,0.2-1.4l4.9-28.1h10.6
				C289.9,185.5,290.1,185.2,290.1,184.9z"/>
		</g>
		<path class="st1" d="M187.3,181.7h-10.9c-0.5,0-1.1,0.4-1.3,0.7l-7.7,11.3l-4.6-11.8c-0.2-0.6-0.8-0.8-1.4-0.8l-9.6,1.4l8.2,18.1
			L145,219.8h10.3c0.7,0,1.6-0.3,2.2-1l7.1-8.6l4,8.6c0.2,0.4,0.9,1,1.5,1h10l-8.1-17.7L187.3,181.7z"/>
		<path class="st1" d="M140.3,219.1l6.5-37.3c0.1-0.8-0.5-0.8-0.9-0.7l-9.1,1.3c-1,0.1-1.3,0.9-1.3,1.2l0,0l-4,22.6
			c-2.8,1.4-7.8,3.6-9.9,3.6c-1.1,0-1.5-0.4-1.5-1.2c0-0.3,0.1-0.8,0.2-1.2l4.5-25.7v0c0.1-0.8-0.4-0.8-0.9-0.7l-9.1,1.3h0
			c-1,0.1-1.3,0.9-1.3,1.2l0,0l-4.4,24.8c-0.2,1.6-0.4,2.8-0.4,4.4c0,4.8,2,7.7,7,7.7c4.4,0,9.1-1.5,15-4.3l0.1,2.8
			c0,0.2,0.1,0.7,0.5,0.7h8.4C140,219.8,140.2,219.4,140.3,219.1z"/>
		<path class="st1" d="M49.6,180.9c-4.4,0-9.1,1.5-15,4.3l0.1-3.4c0-0.8-0.6-0.7-1.1-0.7l-7.2,1.2l0,0c-1.2,0.2-1.6,1-1.7,1.3
			l-6,34.4l0,0c-0.3,1.6-0.2,1.7,1.1,1.7h8.2c0.9,0,1.4,0,1.7-1.7l4-22.9c3-1.6,7.8-3.6,9.9-3.6c1.1,0,1.5,0.3,1.5,1.1
			c0,0.3-0.1,0.7-0.2,1.2l-4.2,24.2l0,0c-0.3,1.6-0.2,1.7,1.1,1.7h8.2c0.9,0,1.4,0,1.7-1.7l4.4-25c0.3-2,0.4-3.1,0.4-4.4
			C56.6,183.8,54.7,180.9,49.6,180.9z"/>
		<g>
			<path class="st1" d="M17.9,164.3l-9.1,1.3c-1,0.1-1.2,0.8-1.3,1.2l-1.7,9.6c-0.2,1.1-0.1,1.1,0.9,1l9-1.3l0,0
				c0.9-0.1,1.1-0.2,1.3-1.4l0,0l1.8-9.9C18.9,164.2,18.8,164.2,17.9,164.3z"/>
			<polygon class="st1" points="4.6,182.6 4.6,182.6 4.6,182.6 			"/>
			<path class="st1" d="M9.4,218.1L9.4,218.1l6.4-36.3c0.1-0.8-0.5-0.7-0.9-0.7l-9.1,1.3l0,0c-1,0.1-1.3,0.9-1.3,1.2v0l-6.1,34.7
				c-0.2,1.3,0,1.5,1.2,1.5h8.2C8.6,219.8,9.1,219.8,9.4,218.1z"/>
		</g>
		<path class="st1" d="M99.9,218.1l9.3-52.7c0.1-0.8-0.3-0.8-0.7-0.7l-10.6,1.7c-4.8-1.3-10.2-1.9-13.3-1.9
			c-9.8,0-13.1,3.4-14.6,12.1l-0.9,5h-4.3c-1.2,0-1.2,0.5-1.3,1.1l0,0l-1.3,7.3c-0.1,0.3,0.1,0.6,0.6,0.6h4.8l-5.2,29.1
			c-0.6,3.5-1.1,5.5-4.4,9h0c-0.6,0.7-0.4,0.8,0,1.2l0,0l5.8,5.4l0,0c0.6,0.6,0.9,0.4,1.5-0.2c5.3-5.4,7-9,7.9-14.1l5.3-30.4H87
			c0.5,0,0.6,0,0.8-0.6l0,0l2-7.7l0,0c0.1-0.6-0.4-0.7-0.8-0.7h-8.9l1-5.6c0.4-2,1.2-2.6,3.7-2.6c3.3,0,8.6,0.6,11.6,1.4l-7.5,43.1
			l0,0c-0.3,1.6-0.2,1.7,1.1,1.7h8.2C99.1,219.8,99.6,219.8,99.9,218.1z"/>
	</g>
</g>
</svg>
