<svg width="626" height="291" viewBox="0 0 626 291" fill="none" xmlns="http://www.w3.org/2000/svg">
<path d="M283.754 168.508C283.255 168.508 282.832 168.345 282.485 168.019C282.149 167.694 281.981 167.298 281.981 166.833C281.981 166.345 282.149 165.943 282.485 165.629C282.832 165.304 283.255 165.141 283.754 165.141C284.252 165.141 284.669 165.304 285.006 165.629C285.342 165.943 285.51 166.345 285.51 166.833C285.51 167.298 285.342 167.694 285.006 168.019C284.669 168.345 284.252 168.508 283.754 168.508ZM282.172 178.922V169.921H285.319V178.922H282.172Z" fill="#020A47"/>
<path d="M287.435 178.922V169.921H290.529L290.564 171.037C290.796 170.595 291.138 170.252 291.59 170.008C292.042 169.764 292.563 169.642 293.155 169.642C294.163 169.642 294.928 169.967 295.449 170.619C295.982 171.258 296.249 172.2 296.249 173.445V178.922H293.102V174.038C293.102 172.979 292.703 172.45 291.903 172.45C291.474 172.45 291.144 172.601 290.912 172.904C290.692 173.195 290.582 173.613 290.582 174.16V178.922H287.435Z" fill="#020A47"/>
<path d="M299.222 178.922V172.45H297.779V169.921H299.222V169.049C299.222 167.665 299.558 166.595 300.23 165.839C300.914 165.083 301.876 164.705 303.116 164.705C303.475 164.705 303.812 164.734 304.124 164.792C304.449 164.839 304.721 164.908 304.942 165.001L304.785 167.618C304.658 167.56 304.501 167.519 304.316 167.496C304.142 167.461 303.98 167.444 303.829 167.444C303.331 167.444 302.96 167.589 302.716 167.88C302.484 168.17 302.369 168.63 302.369 169.258V169.921H304.49V172.45H302.369V178.922H299.222ZM305.88 178.922V164.792H309.027V178.922H305.88Z" fill="#020A47"/>
<path d="M314.108 179.201C313.123 179.201 312.369 178.887 311.848 178.259C311.326 177.62 311.066 176.689 311.066 175.468V169.921H314.23V174.823C314.23 175.358 314.322 175.753 314.508 176.009C314.705 176.265 315.012 176.393 315.429 176.393C315.846 176.393 316.165 176.247 316.385 175.957C316.617 175.654 316.733 175.23 316.733 174.683V169.921H319.88V178.922H316.785L316.75 177.806C316.519 178.248 316.171 178.591 315.707 178.835C315.255 179.079 314.722 179.201 314.108 179.201Z" fill="#020A47"/>
<path d="M321.306 178.922L324.574 174.282L321.48 169.921H324.991L326.452 172.363L327.877 169.921H331.215L328.138 174.317L331.424 178.922H327.895L326.26 176.201L324.644 178.922H321.306Z" fill="#020A47"/>
<path d="M336.935 179.201C336.135 179.201 335.417 179.004 334.779 178.608C334.153 178.213 333.661 177.666 333.301 176.968C332.942 176.259 332.762 175.456 332.762 174.561C332.762 173.7 332.954 172.921 333.336 172.223C333.73 171.514 334.258 170.956 334.918 170.549C335.579 170.13 336.309 169.921 337.109 169.921C337.769 169.921 338.372 170.084 338.917 170.409C339.473 170.735 339.919 171.194 340.255 171.787V164.792H341.733V178.922H340.29L340.255 177.335C339.908 177.928 339.45 178.387 338.882 178.713C338.314 179.038 337.665 179.201 336.935 179.201ZM337.317 177.875C337.92 177.875 338.447 177.736 338.899 177.457C339.351 177.178 339.705 176.788 339.96 176.288C340.226 175.788 340.36 175.212 340.36 174.561C340.36 173.91 340.226 173.334 339.96 172.834C339.705 172.334 339.351 171.944 338.899 171.665C338.447 171.386 337.92 171.247 337.317 171.247C336.726 171.247 336.199 171.386 335.735 171.665C335.283 171.944 334.924 172.334 334.657 172.834C334.402 173.334 334.275 173.91 334.275 174.561C334.275 175.212 334.402 175.788 334.657 176.288C334.924 176.788 335.283 177.178 335.735 177.457C336.199 177.736 336.726 177.875 337.317 177.875Z" fill="#020A47"/>
<path d="M348.429 179.201C347.629 179.201 346.91 179.004 346.273 178.608C345.647 178.213 345.155 177.666 344.795 176.968C344.436 176.259 344.256 175.456 344.256 174.561C344.256 173.7 344.448 172.921 344.83 172.223C345.224 171.514 345.751 170.956 346.412 170.549C347.073 170.13 347.803 169.921 348.603 169.921C349.263 169.921 349.866 170.084 350.411 170.409C350.967 170.735 351.413 171.194 351.749 171.787L351.784 170.2H353.227V178.922H351.784L351.749 177.335C351.402 177.928 350.944 178.387 350.376 178.713C349.808 179.038 349.159 179.201 348.429 179.201ZM348.811 177.875C349.414 177.875 349.941 177.736 350.393 177.457C350.845 177.178 351.199 176.788 351.454 176.288C351.72 175.788 351.854 175.212 351.854 174.561C351.854 173.91 351.72 173.334 351.454 172.834C351.199 172.334 350.845 171.944 350.393 171.665C349.941 171.386 349.414 171.247 348.811 171.247C348.22 171.247 347.693 171.386 347.229 171.665C346.777 171.944 346.418 172.334 346.151 172.834C345.896 173.334 345.769 173.91 345.769 174.561C345.769 175.212 345.896 175.788 346.151 176.288C346.418 176.788 346.777 177.178 347.229 177.457C347.693 177.736 348.22 177.875 348.811 177.875Z" fill="#020A47"/>
<path d="M359.818 179.201C358.833 179.201 358.109 178.94 357.645 178.416C357.181 177.881 356.95 177.05 356.95 175.922V171.473H354.968V170.2H356.95V167.688H358.427V170.2H361.47V171.473H358.427V175.8C358.427 176.544 358.555 177.085 358.81 177.422C359.076 177.748 359.499 177.91 360.079 177.91C360.635 177.91 361.209 177.759 361.8 177.457L361.974 178.695C361.707 178.858 361.383 178.98 361 179.062C360.629 179.155 360.235 179.201 359.818 179.201Z" fill="#020A47"/>
<path d="M367.461 179.201C366.661 179.201 365.942 179.004 365.305 178.608C364.679 178.213 364.186 177.666 363.827 176.968C363.468 176.259 363.288 175.456 363.288 174.561C363.288 173.7 363.479 172.921 363.862 172.223C364.256 171.514 364.783 170.956 365.444 170.549C366.104 170.13 366.835 169.921 367.634 169.921C368.295 169.921 368.898 170.084 369.442 170.409C369.999 170.735 370.445 171.194 370.781 171.787L370.816 170.2H372.259V178.922H370.816L370.781 177.335C370.433 177.928 369.976 178.387 369.408 178.713C368.84 179.038 368.191 179.201 367.461 179.201ZM367.843 177.875C368.446 177.875 368.973 177.736 369.425 177.457C369.877 177.178 370.231 176.788 370.486 176.288C370.752 175.788 370.885 175.212 370.885 174.561C370.885 173.91 370.752 173.334 370.486 172.834C370.231 172.334 369.877 171.944 369.425 171.665C368.973 171.386 368.446 171.247 367.843 171.247C367.252 171.247 366.725 171.386 366.261 171.665C365.809 171.944 365.45 172.334 365.183 172.834C364.928 173.334 364.801 173.91 364.801 174.561C364.801 175.212 364.928 175.788 365.183 176.288C365.45 176.788 365.809 177.178 366.261 177.457C366.725 177.736 367.252 177.875 367.843 177.875Z" fill="#020A47"/>
<path fill-rule="evenodd" clip-rule="evenodd" d="M268.742 177.038L273.439 175.961C273.511 175.947 273.58 175.917 273.64 175.875C273.7 175.832 273.751 175.777 273.789 175.714C273.827 175.651 273.851 175.58 273.861 175.507C273.87 175.434 273.864 175.359 273.843 175.289L271.845 166.625C271.809 166.482 271.718 166.359 271.591 166.283C271.465 166.208 271.313 166.185 271.17 166.221L266.475 167.298C266.333 167.334 266.211 167.425 266.136 167.552C266.061 167.678 266.039 167.828 266.075 167.971L268.067 176.634C268.103 176.777 268.194 176.9 268.321 176.976C268.447 177.052 268.599 177.074 268.742 177.038Z" fill="#020A47"/>
<path fill-rule="evenodd" clip-rule="evenodd" d="M267.123 182.392L272.818 177.12C273.033 176.903 272.978 176.77 272.683 176.876L268.769 177.765C268.607 177.805 268.458 177.885 268.335 177.998C268.212 178.111 268.12 178.253 268.067 178.411L266.879 182.232C266.798 182.527 266.906 182.609 267.123 182.392Z" fill="#020A47"/>
<path fill-rule="evenodd" clip-rule="evenodd" d="M256.733 180.671L265.261 183.307C265.407 183.334 265.557 183.308 265.686 183.234C265.814 183.161 265.913 183.044 265.963 182.904L267.392 178.33C267.413 178.259 267.419 178.184 267.411 178.11C267.402 178.036 267.38 177.965 267.344 177.9C267.308 177.835 267.259 177.777 267.201 177.731C267.143 177.685 267.077 177.65 267.005 177.63L258.477 175.02C258.333 174.979 258.178 174.996 258.047 175.068C257.915 175.141 257.818 175.262 257.775 175.407L256.356 179.971C256.314 180.114 256.33 180.268 256.4 180.399C256.471 180.53 256.591 180.628 256.733 180.671Z" fill="#020A47"/>
<path fill-rule="evenodd" clip-rule="evenodd" d="M253.979 171.308L255.708 178.877C255.762 179.173 255.902 179.173 255.977 178.877L257.164 175.057C257.205 174.894 257.206 174.724 257.169 174.56C257.132 174.397 257.057 174.244 256.95 174.115L254.223 171.172C254.034 170.95 253.892 171.012 253.979 171.308Z" fill="#020A47"/>
<path fill-rule="evenodd" clip-rule="evenodd" d="M260.647 163.216L254.115 169.262C254.01 169.362 253.949 169.499 253.943 169.643C253.938 169.788 253.99 169.929 254.088 170.035L257.354 173.568C257.455 173.675 257.593 173.737 257.74 173.742C257.887 173.747 258.029 173.694 258.137 173.595L264.667 167.539C264.773 167.44 264.835 167.303 264.84 167.158C264.845 167.013 264.793 166.872 264.694 166.766L261.434 163.236C261.384 163.182 261.324 163.139 261.257 163.109C261.19 163.08 261.118 163.063 261.045 163.061C260.971 163.06 260.899 163.072 260.83 163.099C260.762 163.126 260.7 163.165 260.647 163.216Z" fill="#020A47"/>
<path fill-rule="evenodd" clip-rule="evenodd" d="M266.961 176.903C267.258 176.984 267.446 176.824 267.367 176.516L265.478 168.338C265.396 168.042 265.153 167.961 264.938 168.176L258.785 173.891C258.568 174.105 258.622 174.347 258.918 174.428L266.961 176.903Z" fill="#020A47"/>
<path fill-rule="evenodd" clip-rule="evenodd" d="M270.173 165.496L262.724 163.216C262.428 163.135 262.374 163.243 262.616 163.485L265.342 166.418C265.464 166.532 265.612 166.616 265.774 166.661C265.935 166.707 266.104 166.713 266.268 166.679L270.182 165.792C270.47 165.71 270.47 165.575 270.173 165.496Z" fill="#020A47"/>
<path d="M375.878 169.008C375.474 169.008 375.107 168.912 374.779 168.72C374.45 168.529 374.19 168.268 373.998 167.94C373.806 167.611 373.71 167.244 373.71 166.84C373.71 166.436 373.806 166.07 373.998 165.741C374.19 165.412 374.45 165.152 374.779 164.96C375.107 164.768 375.474 164.672 375.878 164.672C376.289 164.672 376.656 164.768 376.978 164.96C377.306 165.152 377.567 165.412 377.758 165.741C377.95 166.07 378.046 166.436 378.046 166.84C378.046 167.244 377.95 167.611 377.758 167.94C377.567 168.268 377.306 168.529 376.978 168.72C376.656 168.912 376.289 169.008 375.878 169.008ZM375.878 168.628C376.214 168.628 376.512 168.549 376.772 168.392C377.039 168.234 377.252 168.022 377.409 167.755C377.567 167.481 377.645 167.176 377.645 166.84C377.645 166.504 377.567 166.203 377.409 165.936C377.252 165.662 377.039 165.446 376.772 165.289C376.512 165.131 376.214 165.052 375.878 165.052C375.549 165.052 375.251 165.131 374.984 165.289C374.717 165.446 374.505 165.662 374.347 165.936C374.19 166.203 374.111 166.504 374.111 166.84C374.111 167.176 374.19 167.481 374.347 167.755C374.505 168.022 374.717 168.234 374.984 168.392C375.251 168.549 375.549 168.628 375.878 168.628ZM375.149 167.827V165.751H375.847C376.108 165.751 376.306 165.809 376.443 165.926C376.587 166.042 376.659 166.203 376.659 166.409C376.659 166.539 376.628 166.659 376.567 166.768C376.505 166.871 376.412 166.95 376.289 167.005L376.803 167.827H376.371L375.919 167.076H375.518V167.827H375.149ZM375.816 166.08H375.518V166.748H375.806C375.977 166.748 376.097 166.72 376.166 166.665C376.234 166.611 376.269 166.525 376.269 166.409C376.269 166.189 376.118 166.08 375.816 166.08Z" fill="#020A47"/>
<rect x="0.5" y="155.5" width="625" height="34" stroke="#E4E4E4"/>
<mask maskUnits="userSpaceOnUse" x="0" y="0" width="0" height="0" fill="black">
<rect fill="white" width="0" height="0"/>
</mask>
<path d="M189.854 156.146C189.658 155.951 189.342 155.951 189.146 156.146L185.964 159.328C185.769 159.524 185.769 159.84 185.964 160.036C186.16 160.231 186.476 160.231 186.672 160.036L189.5 157.207L192.328 160.036C192.524 160.231 192.84 160.231 193.036 160.036C193.231 159.84 193.231 159.524 193.036 159.328L189.854 156.146ZM189.146 188.854C189.342 189.049 189.658 189.049 189.854 188.854L193.036 185.672C193.231 185.476 193.231 185.16 193.036 184.964C192.84 184.769 192.524 184.769 192.328 184.964L189.5 187.793L186.672 184.964C186.476 184.769 186.16 184.769 185.964 184.964C185.769 185.16 185.769 185.476 185.964 185.672L189.146 188.854ZM189 156.5L189 188.5L190 188.5L190 156.5L189 156.5Z" fill="#A1A1A1" mask="url(#)"/>
<rect x="249.5" y="0.5" width="129" height="290" stroke="#E4E4E4"/>
<mask maskUnits="userSpaceOnUse" x="0" y="0" width="0" height="0" fill="black">
<rect fill="white" width="0" height="0"/>
</mask>
<path d="M250.146 124.146C249.951 124.342 249.951 124.658 250.146 124.854L253.328 128.036C253.524 128.231 253.84 128.231 254.036 128.036C254.231 127.84 254.231 127.524 254.036 127.328L251.207 124.5L254.036 121.672C254.231 121.476 254.231 121.16 254.036 120.964C253.84 120.769 253.524 120.769 253.328 120.964L250.146 124.146ZM377.854 124.854C378.049 124.658 378.049 124.342 377.854 124.146L374.672 120.964C374.476 120.769 374.16 120.769 373.964 120.964C373.769 121.16 373.769 121.476 373.964 121.672L376.793 124.5L373.964 127.328C373.769 127.524 373.769 127.84 373.964 128.036C374.16 128.231 374.476 128.231 374.672 128.036L377.854 124.854ZM250.5 125L377.5 125L377.5 124L250.5 124L250.5 125Z" fill="#A1A1A1" mask="url(#)"/>
<path d="M297.379 98V87.328H296.211L293.539 90.08L294.339 90.896L296.051 89.088V98H297.379ZM306.817 98V96.816H301.585C304.561 94.464 306.769 92.48 306.769 90.304C306.769 88.176 304.961 87.168 303.185 87.168C301.681 87.168 300.289 87.776 299.473 88.848L300.289 89.696C300.913 88.896 301.905 88.352 303.185 88.352C304.289 88.352 305.409 88.944 305.409 90.304C305.409 92.144 303.329 93.92 299.489 96.944V98H306.817ZM308.863 95.296C308.863 97.12 310.575 98.192 312.687 98.192C314.783 98.192 316.511 97.104 316.511 95.296C316.511 93.872 315.295 92.896 313.967 92.496C315.199 92.144 316.351 91.344 316.351 89.936C316.351 88.016 314.447 87.168 312.687 87.168C310.911 87.168 309.039 88.016 309.039 89.936C309.039 91.344 310.175 92.144 311.407 92.496C310.079 92.896 308.863 93.872 308.863 95.296ZM315.007 90.112C315.007 91.408 313.343 91.84 312.687 91.952C312.047 91.84 310.367 91.408 310.367 90.112C310.367 89.008 311.391 88.352 312.687 88.352C313.967 88.352 315.007 89.008 315.007 90.112ZM315.167 95.152C315.167 96.304 313.999 97.008 312.687 97.008C311.359 97.008 310.191 96.304 310.191 95.152C310.191 93.76 312.031 93.168 312.687 93.088C313.343 93.168 315.167 93.76 315.167 95.152ZM319.728 96.832C320.352 97.696 321.28 98.192 322.336 98.192C324.368 98.192 325.776 96.624 325.776 94.128C325.776 91.616 324.368 90.08 322.336 90.08C321.248 90.08 320.288 90.64 319.728 91.424V90.272H318.528V100.944H319.728V96.832ZM324.512 94.128C324.512 95.84 323.584 97.12 322.032 97.12C321.088 97.12 320.144 96.544 319.728 95.872V92.384C320.144 91.712 321.088 91.152 322.032 91.152C323.584 91.152 324.512 92.416 324.512 94.128ZM333.616 98L330.64 94.032L333.44 90.272H332.048L329.904 93.216L327.76 90.272H326.368L329.168 94.032L326.208 98H327.584L329.904 94.832L332.224 98H333.616Z" fill="#020A47"/>
<path d="M141.464 177.432C142.12 178.392 143.448 179.192 145.256 179.192C147.608 179.192 149.032 177.896 149.032 176.12C149.032 174.408 147.544 173.576 146.568 173.496C147.576 173.32 148.872 172.552 148.872 171.016C148.872 169.208 147.304 168.168 145.256 168.168C143.608 168.168 142.376 168.888 141.608 169.816L142.344 170.648C143.128 169.8 143.992 169.352 145.16 169.352C146.456 169.352 147.544 169.992 147.544 171.176C147.544 172.408 146.408 172.936 145.064 172.936C144.632 172.936 144.136 172.936 143.96 172.92V174.136C144.12 174.12 144.616 174.12 145.064 174.12C146.632 174.12 147.72 174.68 147.72 176.008C147.72 177.24 146.776 178.008 145.224 178.008C143.96 178.008 142.872 177.432 142.248 176.6L141.464 177.432ZM150.37 177.432C151.026 178.392 152.354 179.192 154.162 179.192C156.514 179.192 157.938 177.896 157.938 176.12C157.938 174.408 156.45 173.576 155.474 173.496C156.482 173.32 157.778 172.552 157.778 171.016C157.778 169.208 156.21 168.168 154.162 168.168C152.514 168.168 151.282 168.888 150.514 169.816L151.25 170.648C152.034 169.8 152.898 169.352 154.066 169.352C155.362 169.352 156.45 169.992 156.45 171.176C156.45 172.408 155.314 172.936 153.97 172.936C153.538 172.936 153.042 172.936 152.866 172.92V174.136C153.026 174.12 153.522 174.12 153.97 174.12C155.538 174.12 156.626 174.68 156.626 176.008C156.626 177.24 155.682 178.008 154.13 178.008C152.866 178.008 151.778 177.432 151.154 176.6L150.37 177.432ZM161.213 177.832C161.837 178.696 162.765 179.192 163.821 179.192C165.853 179.192 167.26 177.624 167.26 175.128C167.26 172.616 165.853 171.08 163.821 171.08C162.733 171.08 161.773 171.64 161.213 172.424V171.272H160.013V181.944H161.213V177.832ZM165.997 175.128C165.997 176.84 165.069 178.12 163.516 178.12C162.573 178.12 161.629 177.544 161.213 176.872V173.384C161.629 172.712 162.573 172.152 163.516 172.152C165.069 172.152 165.997 173.416 165.997 175.128ZM175.1 179L172.124 175.032L174.924 171.272H173.532L171.388 174.216L169.244 171.272H167.852L170.652 175.032L167.692 179H169.068L171.388 175.832L173.708 179H175.1Z" fill="#020A47"/>
</svg>
