<svg width="345" height="200" viewBox="0 0 345 200" fill="none" xmlns="http://www.w3.org/2000/svg">
<rect width="345" height="200" fill="white"/>
<path d="M23.798 29H25.086L21.32 19.662H19.878L16.126 29H17.414L18.24 26.928H22.972L23.798 29ZM20.606 20.698L22.622 25.892H18.576L20.606 20.698ZM27.7974 29H28.9454L31.7594 22.238H30.6114L28.3714 27.782L26.1174 22.238H24.9834L27.7974 29ZM35.8087 29.168C37.8667 29.168 39.1547 27.572 39.1547 25.612C39.1547 23.652 37.8667 22.07 35.8087 22.07C33.7507 22.07 32.4627 23.652 32.4627 25.612C32.4627 27.572 33.7507 29.168 35.8087 29.168ZM35.8087 28.23C34.3667 28.23 33.5547 26.998 33.5547 25.612C33.5547 24.24 34.3667 23.008 35.8087 23.008C37.2507 23.008 38.0487 24.24 38.0487 25.612C38.0487 26.998 37.2507 28.23 35.8087 28.23ZM41.3844 21.104C41.7764 21.104 42.0984 20.782 42.0984 20.39C42.0984 19.998 41.7764 19.69 41.3844 19.69C41.0064 19.69 40.6844 19.998 40.6844 20.39C40.6844 20.782 41.0064 21.104 41.3844 21.104ZM40.8664 29H41.9164V22.238H40.8664V29ZM48.9109 29H49.9609V19.662H48.9109V23.26C48.3649 22.518 47.5389 22.07 46.6289 22.07C44.8509 22.07 43.6189 23.47 43.6189 25.626C43.6189 27.824 44.8649 29.168 46.6289 29.168C47.5809 29.168 48.4069 28.678 48.9109 27.992V29ZM48.9109 27.166C48.5329 27.754 47.7209 28.23 46.8809 28.23C45.5229 28.23 44.7109 27.124 44.7109 25.626C44.7109 24.128 45.5229 23.008 46.8809 23.008C47.7209 23.008 48.5329 23.512 48.9109 24.1V27.166ZM57.479 29H58.627L61.441 22.238H60.293L58.053 27.782L55.799 22.238H54.665L57.479 29ZM62.1443 25.612C62.1443 27.726 63.5863 29.168 65.5883 29.168C66.6943 29.168 67.6043 28.804 68.2763 28.132L67.7723 27.446C67.2403 27.992 66.4563 28.3 65.6863 28.3C64.2303 28.3 63.3343 27.236 63.2503 25.962H68.7243V25.696C68.7243 23.666 67.5203 22.07 65.4763 22.07C63.5443 22.07 62.1443 23.652 62.1443 25.612ZM65.4623 22.938C67.0023 22.938 67.6743 24.184 67.6883 25.192H63.2503C63.3063 24.156 64.0203 22.938 65.4623 22.938ZM70.425 29H71.475V24.212C71.783 23.666 72.665 23.134 73.309 23.134C73.477 23.134 73.603 23.148 73.729 23.176V22.098C72.805 22.098 72.021 22.616 71.475 23.33V22.238H70.425V29ZM76.7541 29.168C77.3701 29.168 77.7481 28.986 78.0141 28.734L77.7061 27.95C77.5661 28.104 77.2861 28.23 76.9921 28.23C76.5301 28.23 76.3061 27.866 76.3061 27.362V23.162H77.6781V22.238H76.3061V20.39H75.2561V22.238H74.1361V23.162H75.2561V27.586C75.2561 28.594 75.7601 29.168 76.7541 29.168ZM79.6793 21.104C80.0713 21.104 80.3933 20.782 80.3933 20.39C80.3933 19.998 80.0713 19.69 79.6793 19.69C79.3013 19.69 78.9793 19.998 78.9793 20.39C78.9793 20.782 79.3013 21.104 79.6793 21.104ZM79.1613 29H80.2113V22.238H79.1613V29ZM81.9139 25.612C81.9139 27.628 83.2719 29.168 85.2879 29.168C86.5199 29.168 87.2479 28.664 87.7659 27.992L87.0659 27.348C86.6179 27.95 86.0439 28.23 85.3439 28.23C83.9019 28.23 83.0059 27.11 83.0059 25.612C83.0059 24.114 83.9019 23.008 85.3439 23.008C86.0439 23.008 86.6179 23.274 87.0659 23.89L87.7659 23.246C87.2479 22.574 86.5199 22.07 85.2879 22.07C83.2719 22.07 81.9139 23.61 81.9139 25.612ZM93.4655 29H94.5155V24.352C94.5155 22.714 93.3255 22.07 91.8975 22.07C90.7915 22.07 89.9235 22.434 89.1955 23.19L89.6855 23.918C90.2875 23.274 90.9455 22.98 91.7575 22.98C92.7375 22.98 93.4655 23.498 93.4655 24.408V25.626C92.9195 24.996 92.1495 24.702 91.2255 24.702C90.0775 24.702 88.8595 25.416 88.8595 26.928C88.8595 28.398 90.0775 29.168 91.2255 29.168C92.1355 29.168 92.9055 28.846 93.4655 28.23V29ZM93.4655 27.572C93.0595 28.132 92.3455 28.412 91.6035 28.412C90.6235 28.412 89.9375 27.796 89.9375 26.942C89.9375 26.074 90.6235 25.458 91.6035 25.458C92.3455 25.458 93.0595 25.738 93.4655 26.298V27.572ZM96.6203 29H97.6703V19.662H96.6203V29ZM102.786 28.104C103.472 28.832 104.41 29.168 105.516 29.168C107.266 29.168 108.176 28.258 108.176 27.124C108.176 25.626 106.818 25.29 105.642 25.024C104.76 24.814 103.99 24.604 103.99 23.946C103.99 23.344 104.564 22.924 105.488 22.924C106.356 22.924 107.098 23.288 107.504 23.778L107.994 23.05C107.448 22.504 106.636 22.07 105.488 22.07C103.878 22.07 102.968 22.966 102.968 24.016C102.968 25.416 104.27 25.724 105.418 25.99C106.328 26.214 107.154 26.452 107.154 27.194C107.154 27.852 106.594 28.314 105.558 28.314C104.634 28.314 103.78 27.866 103.332 27.348L102.786 28.104ZM114.488 29H115.832L112.822 25.304L115.818 22.238H114.488L110.932 25.836V19.662H109.882V29H110.932V27.068L112.052 25.962L114.488 29ZM116.353 25.612C116.353 27.726 117.795 29.168 119.797 29.168C120.903 29.168 121.813 28.804 122.485 28.132L121.981 27.446C121.449 27.992 120.665 28.3 119.895 28.3C118.439 28.3 117.543 27.236 117.459 25.962H122.933V25.696C122.933 23.666 121.729 22.07 119.685 22.07C117.753 22.07 116.353 23.652 116.353 25.612ZM119.671 22.938C121.211 22.938 121.883 24.184 121.897 25.192H117.459C117.515 24.156 118.229 22.938 119.671 22.938ZM130.486 29H131.536L133.692 22.238H132.6L130.948 27.628L129.17 22.238H128.274L126.496 27.628L124.844 22.238H123.752L125.908 29H126.958L128.722 23.568L130.486 29ZM135.433 21.104C135.825 21.104 136.147 20.782 136.147 20.39C136.147 19.998 135.825 19.69 135.433 19.69C135.055 19.69 134.733 19.998 134.733 20.39C134.733 20.782 135.055 21.104 135.433 21.104ZM134.915 29H135.965V22.238H134.915V29ZM142.624 29H143.674V24.254C143.674 22.784 142.932 22.07 141.518 22.07C140.51 22.07 139.586 22.658 139.11 23.218V22.238H138.06V29H139.11V24.058C139.502 23.512 140.286 23.008 141.112 23.008C142.022 23.008 142.624 23.386 142.624 24.576V29ZM145.757 30.736C146.555 31.52 147.339 31.744 148.487 31.744C150.139 31.744 151.707 31.044 151.707 28.804V22.238H150.657V23.26C150.111 22.518 149.299 22.07 148.389 22.07C146.611 22.07 145.379 23.414 145.379 25.584C145.379 27.768 146.625 29.084 148.389 29.084C149.341 29.084 150.167 28.566 150.657 27.88V28.846C150.657 30.33 149.607 30.876 148.487 30.876C147.521 30.876 146.849 30.624 146.289 29.952L145.757 30.736ZM150.657 27.054C150.293 27.642 149.481 28.16 148.641 28.16C147.283 28.16 146.471 27.068 146.471 25.584C146.471 24.086 147.283 23.008 148.641 23.008C149.481 23.008 150.293 23.512 150.657 24.1V27.054Z" fill="#020A47"/>
<rect x="0.5" y="0.5" width="344" height="199" stroke="#E4E4E4"/>
<path fill-rule="evenodd" clip-rule="evenodd" d="M322.707 28.293C323.098 28.684 323.098 29.316 322.707 29.707C322.512 29.902 322.256 30 322 30C321.744 30 321.488 29.902 321.293 29.707L319 27.414L316.707 29.707C316.512 29.902 316.256 30 316 30C315.744 30 315.488 29.902 315.293 29.707C314.902 29.316 314.902 28.684 315.293 28.293L317.586 26L315.293 23.707C314.902 23.316 314.902 22.684 315.293 22.293C315.684 21.902 316.316 21.902 316.707 22.293L319 24.586L321.293 22.293C321.684 21.902 322.316 21.902 322.707 22.293C323.098 22.684 323.098 23.316 322.707 23.707L320.414 26L322.707 28.293ZM319 18C314.582 18 311 21.582 311 26C311 30.418 314.582 34 319 34C323.418 34 327 30.418 327 26C327 21.582 323.418 18 319 18Z" fill="#DE1C22"/>
<path d="M125.805 119.659C125.047 119.862 124.404 119.745 123.875 119.308C123.364 118.866 123.109 118.231 123.109 117.404C123.109 116.535 123.364 115.753 123.875 115.058C124.404 114.337 125.047 113.875 125.805 113.672C126.563 113.469 127.197 113.589 127.708 114.031C128.22 114.452 128.475 115.097 128.475 115.966C128.475 116.793 128.22 117.565 127.708 118.281C127.197 118.997 126.563 119.456 125.805 119.659ZM123.399 138.823V122.816L128.184 121.534V137.541L123.399 138.823Z" fill="#020A47"/>
<path d="M131.402 136.678V120.672L136.108 119.411L136.161 121.382C136.513 120.502 137.033 119.753 137.72 119.134C138.408 118.516 139.201 118.086 140.1 117.845C141.633 117.434 142.796 117.702 143.589 118.647C144.4 119.567 144.805 121.134 144.805 123.347V133.087L140.02 134.369V125.683C140.02 123.802 139.412 123.024 138.196 123.349C137.544 123.524 137.042 123.928 136.689 124.56C136.355 125.166 136.187 125.956 136.187 126.928V135.396L131.402 136.678Z" fill="#020A47"/>
<path d="M149.326 131.876V120.367L147.131 120.955V116.457L149.326 115.869V114.318C149.326 111.858 149.837 109.818 150.859 108.2C151.899 106.577 153.361 105.513 155.247 105.008C155.794 104.861 156.305 104.776 156.78 104.752C157.274 104.703 157.688 104.716 158.023 104.791L157.785 109.508C157.591 109.457 157.353 109.448 157.071 109.482C156.807 109.491 156.56 109.526 156.331 109.587C155.573 109.791 155.009 110.2 154.639 110.816C154.287 111.428 154.11 112.292 154.11 113.409V114.587L157.336 113.723V118.221L154.11 119.085V130.594L149.326 131.876ZM159.45 129.163V104.037L164.235 102.755V127.881L159.45 129.163Z" fill="#020A47"/>
<path d="M171.961 126.307C170.463 126.708 169.318 126.457 168.525 125.553C167.732 124.628 167.335 123.08 167.335 120.908V111.044L172.146 109.755V118.471C172.146 119.423 172.287 120.088 172.569 120.467C172.869 120.842 173.336 120.944 173.97 120.774C174.605 120.604 175.089 120.216 175.424 119.609C175.777 118.977 175.953 118.175 175.953 117.203V108.735L180.738 107.453V123.459L176.032 124.72L175.979 122.749C175.627 123.629 175.098 124.381 174.393 125.004C173.706 125.622 172.895 126.057 171.961 126.307Z" fill="#020A47"/>
<path d="M182.906 122.878L187.876 113.295L183.171 106.801L188.51 105.37L190.731 109.118L192.899 104.194L197.974 102.834L193.295 111.905L198.292 118.755L192.925 120.193L190.44 116.02L187.982 121.518L182.906 122.878Z" fill="#020A47"/>
<path d="M206.672 117.006C205.456 117.332 204.363 117.273 203.394 116.83C202.442 116.382 201.693 115.61 201.147 114.516C200.6 113.401 200.327 112.047 200.327 110.455C200.327 108.925 200.618 107.461 201.2 106.064C201.799 104.642 202.601 103.435 203.605 102.442C204.61 101.428 205.72 100.759 206.936 100.433C207.941 100.164 208.857 100.208 209.685 100.565C210.531 100.917 211.21 101.552 211.721 102.47V90.0308L213.968 89.4287V114.555L211.774 115.143L211.721 112.334C211.192 113.53 210.496 114.534 209.632 115.344C208.769 116.155 207.782 116.709 206.672 117.006ZM207.253 114.493C208.17 114.247 208.972 113.784 209.659 113.104C210.346 112.423 210.884 111.586 211.271 110.593C211.677 109.596 211.879 108.518 211.879 107.359C211.879 106.201 211.677 105.232 211.271 104.451C210.884 103.666 210.346 103.117 209.659 102.805C208.972 102.493 208.17 102.46 207.253 102.705C206.354 102.946 205.553 103.409 204.848 104.094C204.16 104.775 203.614 105.614 203.209 106.612C202.821 107.605 202.627 108.681 202.627 109.839C202.627 110.997 202.821 111.968 203.209 112.754C203.614 113.534 204.16 114.081 204.848 114.393C205.553 114.7 206.354 114.734 207.253 114.493Z" fill="#020A47"/>
<path d="M224.149 112.323C222.933 112.649 221.84 112.59 220.871 112.147C219.919 111.699 219.17 110.927 218.624 109.833C218.078 108.718 217.805 107.364 217.805 105.772C217.805 104.242 218.095 102.778 218.677 101.381C219.276 99.9594 220.078 98.7519 221.083 97.7589C222.087 96.7453 223.197 96.0755 224.413 95.7497C225.418 95.4805 226.334 95.5245 227.163 95.8816C228.009 96.234 228.687 96.869 229.198 97.7867L229.251 94.9498L231.445 94.3618V109.872L229.251 110.46L229.198 107.651C228.67 108.847 227.973 109.851 227.11 110.661C226.246 111.472 225.259 112.026 224.149 112.323ZM224.731 109.81C225.647 109.564 226.449 109.101 227.136 108.421C227.824 107.74 228.361 106.903 228.749 105.91C229.154 104.912 229.357 103.834 229.357 102.676C229.357 101.518 229.154 100.549 228.749 99.7684C228.361 98.983 227.824 98.4343 227.136 98.1221C226.449 97.81 225.647 97.7767 224.731 98.0222C223.832 98.2631 223.03 98.7261 222.325 99.4113C221.638 100.092 221.091 100.931 220.686 101.929C220.298 102.922 220.104 103.998 220.104 105.156C220.104 106.314 220.298 107.285 220.686 108.071C221.091 108.851 221.638 109.398 222.325 109.71C223.03 110.017 223.832 110.051 224.731 109.81Z" fill="#020A47"/>
<path d="M241.468 107.683C239.97 108.084 238.868 107.914 238.163 107.172C237.458 106.41 237.106 105.026 237.106 103.02V95.1095L234.092 95.917V93.6526L237.106 92.8451V88.3782L239.353 87.7761V92.243L243.979 91.0034V93.2678L239.353 94.5074V102.2C239.353 103.524 239.547 104.434 239.935 104.929C240.34 105.4 240.983 105.517 241.864 105.281C242.71 105.054 243.583 104.552 244.481 103.773L244.746 105.905C244.34 106.303 243.847 106.652 243.265 106.953C242.701 107.269 242.102 107.513 241.468 107.683Z" fill="#020A47"/>
<path d="M253.089 104.569C251.873 104.895 250.78 104.836 249.811 104.392C248.859 103.944 248.11 103.173 247.564 102.079C247.017 100.964 246.744 99.6099 246.744 98.0175C246.744 96.4872 247.035 95.0237 247.617 93.6271C248.216 92.205 249.018 90.9975 250.022 90.0046C251.027 88.9909 252.137 88.3212 253.353 87.9954C254.358 87.7262 255.274 87.7701 256.102 88.1272C256.948 88.4796 257.627 89.1147 258.138 90.0324L258.191 87.1954L260.385 86.6075V102.117L258.191 102.705L258.138 99.8967C257.609 101.093 256.913 102.096 256.049 102.907C255.186 103.717 254.199 104.271 253.089 104.569ZM253.67 102.055C254.587 101.81 255.389 101.347 256.076 100.666C256.763 99.9859 257.301 99.1491 257.688 98.156C258.094 97.1581 258.297 96.0801 258.297 94.9221C258.297 93.764 258.094 92.7946 257.688 92.014C257.301 91.2287 256.763 90.6799 256.076 90.3678C255.389 90.0556 254.587 90.0223 253.67 90.2679C252.771 90.5087 251.97 90.9717 251.265 91.6569C250.577 92.3374 250.031 93.1766 249.626 94.1744C249.238 95.1676 249.044 96.2432 249.044 97.4012C249.044 98.5593 249.238 99.531 249.626 100.316C250.031 101.097 250.577 101.643 251.265 101.956C251.97 102.263 252.771 102.296 253.67 102.055Z" fill="#020A47"/>
<path fill-rule="evenodd" clip-rule="evenodd" d="M102.978 140.944L110.12 137.116C110.23 137.06 110.334 136.98 110.426 136.879C110.518 136.779 110.595 136.661 110.653 136.533C110.71 136.405 110.748 136.27 110.762 136.135C110.776 136.001 110.766 135.872 110.734 135.754L107.697 121.163C107.642 120.923 107.503 120.742 107.311 120.659C107.119 120.575 106.888 120.597 106.671 120.719L99.5314 124.547C99.3153 124.67 99.1299 124.882 99.0159 125.136C98.9018 125.391 98.8683 125.668 98.9228 125.906L101.951 140.501C102.006 140.74 102.145 140.921 102.337 141.005C102.53 141.088 102.76 141.066 102.978 140.944Z" fill="#020A47"/>
<path fill-rule="evenodd" clip-rule="evenodd" d="M100.516 151.124L109.176 139.428C109.502 138.955 109.42 138.74 108.97 139.05L103.019 142.226C102.773 142.363 102.546 142.566 102.359 142.817C102.173 143.068 102.032 143.358 101.951 143.66L100.146 150.938C100.022 151.497 100.187 151.597 100.516 151.124Z" fill="#020A47"/>
<path fill-rule="evenodd" clip-rule="evenodd" d="M84.7176 152.297L97.6848 153.509C97.9064 153.497 98.1354 153.391 98.3309 153.207C98.5265 153.024 98.6758 152.776 98.7522 152.507L100.925 143.791C100.957 143.655 100.966 143.52 100.954 143.392C100.941 143.264 100.907 143.146 100.852 143.045C100.797 142.944 100.724 142.862 100.635 142.804C100.547 142.745 100.446 142.711 100.337 142.704L87.3698 141.537C87.1503 141.522 86.9149 141.617 86.7149 141.799C86.5149 141.981 86.3666 142.237 86.3024 142.511L84.1442 151.206C84.0801 151.477 84.1044 151.744 84.2117 151.948C84.3191 152.153 84.5009 152.278 84.7176 152.297Z" fill="#020A47"/>
<path fill-rule="evenodd" clip-rule="evenodd" d="M80.5303 136.769L83.1591 149.524C83.2414 150.028 83.4531 149.971 83.5678 149.415L85.3732 142.137C85.4347 141.831 85.4373 141.528 85.3806 141.253C85.3239 140.977 85.2096 140.737 85.0468 140.55L80.9008 136.429C80.6127 136.111 80.398 136.278 80.5303 136.769Z" fill="#020A47"/>
<path fill-rule="evenodd" clip-rule="evenodd" d="M90.669 119.664L80.7362 133.076C80.5769 133.296 80.4833 133.565 80.4756 133.824C80.4679 134.083 80.5467 134.312 80.6951 134.462L85.6614 139.413C85.8145 139.562 86.0254 139.617 86.2484 139.566C86.4714 139.515 86.6884 139.363 86.8523 139.142L96.7821 125.713C96.9429 125.494 97.0374 125.225 97.0451 124.965C97.0528 124.705 96.9731 124.476 96.8233 124.327L91.8657 119.378C91.7895 119.303 91.6979 119.251 91.5962 119.226C91.4945 119.2 91.3848 119.2 91.2735 119.227C91.1622 119.253 91.0514 119.306 90.9476 119.381C90.8438 119.456 90.7491 119.552 90.669 119.664Z" fill="#020A47"/>
<path fill-rule="evenodd" clip-rule="evenodd" d="M100.27 141.429C100.722 141.452 101.008 141.091 100.887 140.576L98.0142 126.803C97.8907 126.31 97.5202 126.265 97.1938 126.734L87.8374 139.404C87.5081 139.874 87.5904 140.282 88.0403 140.305L100.27 141.429Z" fill="#020A47"/>
<path fill-rule="evenodd" clip-rule="evenodd" d="M105.153 119.836L93.827 118.818C93.3771 118.794 93.2948 119.009 93.6623 119.34L97.8083 123.444C97.9943 123.598 98.2192 123.686 98.4643 123.701C98.7093 123.716 98.9674 123.658 99.2168 123.531L105.168 120.358C105.606 120.097 105.606 119.856 105.153 119.836Z" fill="#020A47"/>
<path d="M266.076 82.3948C265.503 82.5484 264.983 82.5469 264.516 82.3901C264.05 82.2334 263.68 81.95 263.408 81.5399C263.136 81.1299 263 80.628 263 80.0343C263 79.4406 263.136 78.8659 263.408 78.3099C263.68 77.754 264.05 77.2727 264.516 76.866C264.983 76.4592 265.503 76.179 266.076 76.0253C266.659 75.8691 267.179 75.8706 267.636 76.03C268.103 76.1867 268.472 76.4701 268.744 76.8802C269.016 77.2902 269.152 77.7921 269.152 78.3858C269.152 78.9795 269.016 79.5543 268.744 80.1102C268.472 80.6661 268.103 81.1474 267.636 81.5542C267.179 81.9583 266.659 82.2385 266.076 82.3948ZM266.076 81.8363C266.552 81.7087 266.975 81.4797 267.345 81.1493C267.724 80.8163 268.025 80.4236 268.248 79.9713C268.472 79.5089 268.584 79.0312 268.584 78.5381C268.584 78.0451 268.472 77.6323 268.248 77.2998C268.025 76.9572 267.724 76.721 267.345 76.5911C266.975 76.4586 266.552 76.4562 266.076 76.5838C265.61 76.7088 265.187 76.9378 264.808 77.2708C264.429 77.6038 264.127 78.0015 263.904 78.4639C263.68 78.9162 263.569 79.3889 263.569 79.882C263.569 80.375 263.68 80.7928 263.904 81.1354C264.127 81.468 264.429 81.6992 264.808 81.829C265.187 81.9589 265.61 81.9613 266.076 81.8363ZM265.041 80.9364V77.8875L266.032 77.6219C266.402 77.5229 266.684 77.5329 266.878 77.6519C267.082 77.7683 267.184 77.9774 267.184 78.2792C267.184 78.4704 267.14 78.6582 267.053 78.8427C266.966 79.017 266.834 79.1679 266.659 79.2953L267.388 80.3074L266.776 80.4715L266.135 79.5416L265.566 79.6939V80.7958L265.041 80.9364ZM265.989 78.1166L265.566 78.2299V79.2109L265.974 79.1016C266.217 79.0365 266.387 78.9506 266.484 78.8441C266.582 78.7375 266.63 78.5987 266.63 78.4277C266.63 78.1057 266.416 78.002 265.989 78.1166Z" fill="#020A47"/>
</svg>
