<?xml version="1.0" encoding="utf-8"?>
<!-- Generator: Adobe Illustrator 19.1.0, SVG Export Plug-In . SVG Version: 6.00 Build 0)  -->
<svg version="1.1" id="Layer_1" xmlns="http://www.w3.org/2000/svg" xmlns:xlink="http://www.w3.org/1999/xlink" x="0px" y="0px"
	 viewBox="-144 -5 610 610" style="enable-background:new -144 -5 610 610;" xml:space="preserve">
<style type="text/css">
	.st0{fill:#EEEFF2;}
	.st1{fill:#7A65F2;}
	.st2{fill:#22ADF6;}
	.st3{fill:#4ED8A0;}
	.st4{fill:#FF8564;}
	.st5{fill:url(#SVGID_1_);}
	.st6{fill:url(#SVGID_2_);}
	.st7{fill:url(#SVGID_3_);}
	.st8{fill:#FFFFFF;}
</style>
<path class="st0" d="M161-5C-7.4-5-144,131.6-144,300S-7.4,605,161,605s305-136.6,305-305S329.4-5,161-5z M158.5,561.9
	c0,1.7-1.4,3-3.1,3C13.5,562-101,447.5-103.9,305.6c-0.1-1.7,1.3-3.1,3-3.1h79c1.6,0,3,1.4,3,3c2.8,95,79.3,171.6,174.4,174.4
	c1.7,0.1,3,1.4,3,3V561.9z M161,475c-96.6,0-175-78.4-175-175s78.4-175,175-175s175,78.4,175,175S257.6,475,161,475z"/>
<g>
	<path class="st1" d="M355.7,113c100.3,104.4,100.3,269.6,0,374c-1.1,1.2-1.1,3.1,0,4.2l16.9,16.9c1.2,1.2,3.1,1.2,4.3,0
		C489,392,489,208,377,91.9c-1.2-1.2-3.1-1.2-4.3,0l-16.9,16.9C354.6,109.9,354.6,111.8,355.7,113z"/>
	<path class="st2" d="M-26,105.3C78.4,5,243.6,5,348,105.3c1.2,1.1,3.1,1.1,4.2,0l16.9-16.9c1.2-1.2,1.2-3.1,0-4.3
		C253-28,69-28-47.1,84c-1.2,1.2-1.2,3.1,0,4.3l16.9,16.9C-29.1,106.4-27.2,106.4-26,105.3z"/>
	<path class="st3" d="M-33.7,487c-100.4-104.4-100.4-269.6,0-374c1.1-1.2,1.1-3.1,0-4.2l-17-17c-1.2-1.2-3.1-1.2-4.3,0
		C-167,208-167,392-55,508.1c1.2,1.2,3.1,1.2,4.3,0l16.9-16.9C-32.6,490.1-32.6,488.2-33.7,487z"/>
	<path class="st4" d="M348,494.7C243.6,595,78.4,595-26,494.7c-1.2-1.1-3.1-1.1-4.2,0l-16.9,16.9c-1.2,1.2-1.2,3.1,0,4.3
		C69,628,253,628,369.1,516c1.2-1.2,1.2-3.1,0-4.3l-16.9-16.9C351.1,493.6,349.2,493.6,348,494.7z"/>
</g>
<g>
	<linearGradient id="SVGID_1_" gradientUnits="userSpaceOnUse" x1="-109.0506" y1="290.5756" x2="151.5939" y2="29.9311">
		<stop  offset="0" style="stop-color:#4ED8A0"/>
		<stop  offset="1" style="stop-color:#22ADF6"/>
	</linearGradient>
	<path class="st5" d="M-18.9,294.5c2.8-95.1,79.4-171.6,174.4-174.4c1.6,0,3-1.4,3-3v-79c0-1.7-1.4-3.1-3.1-3
		C13.5,38-101,152.5-103.9,294.4c0,1.7,1.3,3.1,3,3.1h79C-20.3,297.5-19,296.2-18.9,294.5z"/>
	<linearGradient id="SVGID_2_" gradientUnits="userSpaceOnUse" x1="431.0689" y1="290.5939" x2="170.4244" y2="29.9495">
		<stop  offset="0" style="stop-color:#7A65F2"/>
		<stop  offset="1" style="stop-color:#22ADF6"/>
	</linearGradient>
	<path class="st6" d="M166.5,120.1c95.1,2.8,171.6,79.4,174.4,174.4c0,1.6,1.4,3,3,3h79c1.7,0,3.1-1.4,3-3.1
		C423,152.5,308.5,38,166.6,35.1c-1.7,0-3.1,1.3-3.1,3v79C163.5,118.7,164.8,120,166.5,120.1z"/>
	<linearGradient id="SVGID_3_" gradientUnits="userSpaceOnUse" x1="170.4061" y1="570.0689" x2="431.0505" y2="309.4244">
		<stop  offset="0" style="stop-color:#FF8564"/>
		<stop  offset="1" style="stop-color:#7A65F2"/>
	</linearGradient>
	<path class="st7" d="M340.9,305.5c-2.8,95.1-79.4,171.6-174.4,174.4c-1.6,0-3,1.4-3,3v79c0,1.7,1.4,3.1,3.1,3
		C308.5,562,423,447.5,425.9,305.6c0-1.7-1.3-3.1-3-3.1h-79C342.3,302.5,341,303.8,340.9,305.5z"/>
</g>
<g>
	<g>
		<path class="st8" d="M162.6,20h-3.2V6.5h3.2V20z"/>
	</g>
	<g>
		<path class="st8" d="M-124,300.5l1.5,1.3h3.5v3.3h-13.5v-3.3h6l-1.7-1.1l-4.2-2.9v-4l6,4.6l7.5-4.6v3.9L-124,300.5z"/>
	</g>
	<g>
		<path class="st8" d="M155.1,591h4.1v-11h3.3v11h4v2.5h-11.3V591H155.1z"/>
	</g>
	<g>
		<path class="st8" d="M445.6,305.7c-0.9,0-1.8-0.3-2.5-0.8s-1.3-1.1-1.7-2c-0.4-0.8-0.6-1.8-0.6-2.9c0-1.8,0.6-3.2,1.7-4.2
			s2.8-1.5,4.9-1.5h0.7c1.3,0,2.5,0.2,3.5,0.7s1.8,1.1,2.3,2s0.8,1.9,0.8,3c0,1.6-0.4,3-1.3,4s-2.1,1.6-3.6,1.7v-3.2
			c0.8,0,1.4-0.2,1.8-0.6s0.5-1,0.5-1.8s-0.3-1.4-0.9-1.8s-1.6-0.6-2.9-0.6h-1c-1.4,0-2.5,0.2-3.1,0.5c-0.6,0.4-0.9,1-0.9,1.9
			c0,0.7,0.2,1.3,0.5,1.7c0.4,0.4,0.9,0.6,1.7,0.6L445.6,305.7L445.6,305.7z"/>
	</g>
	<g>
		<path class="st8" d="M-4.8,152.8l0.1,2l2.5,2.5l-2.3,2.3l-9.6-9.6l2.3-2.3l4.2,4.2l-0.4-2l-0.9-5.1l2.8-2.8l1,7.5l8.6,2.1
			l-2.7,2.7L-4.8,152.8z"/>
		<path class="st8" d="M5.9,138.3l2.2-2.2L10,138l-2.2,2.2l2.6,2.6l-2.1,2.1l-2.6-2.6l-2.2,2.2l-1.9-1.9l2.2-2.2l-2.5-2.5l2.1-2.1
			L5.9,138.3z"/>
		<path class="st8" d="M20.4,134.7l-2.3,2.3l-9.6-9.6l2.3-2.3L20.4,134.7z"/>
	</g>
	<g>
		<path class="st8" d="M323.9,449.5c-0.6-0.7-1-1.5-1.2-2.3s-0.1-1.7,0.2-2.6c0.3-0.9,0.8-1.7,1.6-2.5c1.3-1.3,2.7-1.8,4.2-1.7
			c1.5,0.1,3.1,0.9,4.5,2.4l0.5,0.5c0.9,0.9,1.6,1.9,2,2.9s0.4,2,0.2,3c-0.2,1-0.7,1.9-1.6,2.7c-1.2,1.2-2.4,1.8-3.7,1.9
			c-1.3,0.1-2.6-0.3-3.7-1.3l2.3-2.3c0.6,0.6,1.2,0.8,1.7,0.8s1.1-0.3,1.6-0.9c0.6-0.6,0.8-1.2,0.6-1.9s-0.7-1.5-1.6-2.5l-0.7-0.7
			c-1-1-1.9-1.6-2.6-1.8s-1.4,0-2,0.7c-0.5,0.5-0.8,1.1-0.8,1.6s0.2,1.1,0.7,1.6L323.9,449.5z"/>
		<path class="st8" d="M317.8,460l-2.2,2.2l-1.9-1.9l2.2-2.2l-2.6-2.6l2.1-2.1l2.6,2.6l2.2-2.2l1.9,1.9l-2.2,2.2l2.5,2.5l-2.1,2.1
			L317.8,460z"/>
		<path class="st8" d="M306.4,476.1l2.9-2.9l-7.8-7.8l2.3-2.3l7.8,7.8l2.8-2.8l1.8,1.8l-8,8L306.4,476.1z"/>
	</g>
	<g>
		<path class="st8" d="M303.8,136.8l-2.3-2.3l9.6-9.6l2.3,2.3L303.8,136.8z"/>
		<path class="st8" d="M318,140.2l2.2,2.2l-1.9,1.9l-2.2-2.2l-2.6,2.6l-2.1-2.1l2.6-2.6l-2.2-2.2l1.9-1.9l2.2,2.2l2.5-2.5l2.1,2.1
			L318,140.2z"/>
		<path class="st8" d="M330.2,156.8c-0.7,0.6-1.5,1-2.3,1.2s-1.7,0.1-2.6-0.2s-1.7-0.8-2.5-1.6c-1.3-1.3-1.8-2.7-1.7-4.2
			s0.9-3.1,2.4-4.5l0.5-0.5c0.9-0.9,1.9-1.6,2.9-2s2-0.4,3-0.2s1.9,0.7,2.7,1.6c1.2,1.2,1.8,2.4,1.9,3.7s-0.3,2.6-1.3,3.7l-2.3-2.3
			c0.6-0.6,0.8-1.2,0.8-1.7s-0.3-1.1-0.9-1.6c-0.6-0.6-1.2-0.8-1.9-0.6c-0.7,0.2-1.5,0.7-2.5,1.6l-0.7,0.7c-1,1-1.6,1.9-1.8,2.6
			c-0.2,0.7,0,1.4,0.7,2c0.5,0.5,1.1,0.8,1.6,0.8s1.1-0.2,1.6-0.7L330.2,156.8z"/>
	</g>
</g>
</svg>
