<?xml version="1.0" encoding="utf-8"?>
<!-- Generator: Adobe Illustrator 21.1.0, SVG Export Plug-In . SVG Version: 6.00 Build 0)  -->
<svg version="1.1" id="Layer_1" xmlns="http://www.w3.org/2000/svg" xmlns:xlink="http://www.w3.org/1999/xlink" x="0px" y="0px"
	 width="672px" height="168px" viewBox="0 0 672 168" style="enable-background:new 0 0 672 168;" xml:space="preserve">
<style type="text/css">
	.st0{fill:#FFFFFF;}
</style>
<g>
	<path class="st0" d="M129.6,97l-12.1-52.6c-0.7-2.9-3.3-5.8-6.2-6.6l-55.2-17c-0.7-0.3-1.5-0.3-2.3-0.3c-2.3,0-4.8,1-6.5,2.3
		L7.9,59.7c-2.2,1.9-3.3,5.8-2.6,8.5l12.9,56.3c0.7,2.9,3.3,5.8,6.2,6.6L76,147.2c0.7,0.3,1.5,0.3,2.3,0.3c2.3,0,4.8-1,6.5-2.3
		l42.3-39.2C129.2,103.6,130.3,99.9,129.6,97z M61.9,33.4L99.8,45c1.5,0.4,1.5,1.1,0,1.5L79.9,51c-1.5,0.4-3.6-0.3-4.7-1.4l-13.9-15
		C60.1,33.5,60.4,32.9,61.9,33.4z M85.5,101.3c0.4,1.5-0.5,2.3-2.1,1.9L42.6,90.6c-1.5-0.4-1.8-1.6-0.7-2.7l31.3-29.1
		c1.1-1.1,2.3-0.7,2.7,0.8L85.5,101.3z M18.2,64.2l33.2-30.9c1.1-1.1,2.9-1,4,0.1l16.6,18c1.1,1.1,1,2.9-0.1,4L38.6,86.3
		c-1.1,1.1-2.9,1-4-0.1L18,68.2C16.9,67,17.1,65.2,18.2,64.2z M26.3,113.2l-8.8-38.6c-0.4-1.5,0.3-1.8,1.2-0.7l13.9,15
		c1.1,1.1,1.5,3.3,1.1,4.8l-6,19.5C27.2,114.7,26.5,114.7,26.3,113.2z M74.8,135.9l-43.4-13.4c-1.5-0.4-2.3-2.1-1.9-3.6l7.3-23.3
		c0.4-1.5,2.1-2.3,3.6-1.9L83.8,107c1.5,0.4,2.3,2.1,1.9,3.6l-7.3,23.3C77.9,135.3,76.3,136.1,74.8,135.9z M113.3,104.3l-29,26.9
		c-1.1,1.1-1.6,0.7-1.2-0.8l6-19.5c0.4-1.5,2.1-3,3.6-3.3l19.9-4.5C114.1,102.5,114.4,103.2,113.3,104.3z M116.4,98.4l-23.9,5.5
		c-1.5,0.4-3-0.5-3.4-2.1L79,57.7c-0.4-1.5,0.5-3,2.1-3.4l23.9-5.5c1.5-0.4,3,0.5,3.4,2.1L118.5,95
		C118.9,96.6,117.9,98.1,116.4,98.4z"/>
	<g>
		<path class="st0" d="M486.4,115.6c-0.1,1.4,0.4,1.6,1,1.6h3.3c1.2,0,1.5-1.1,1.5-1.6l13.4-76.4c0.3-1.4-0.7-1.6-1.4-1.5l0,0
			l-3.6,0.5c-1,0.1-1.5,1-1.5,1.5l0,0l-3.8,22.2c-3.4-1.1-9.9-1.8-13.6-1.8c-14.3,0-21.1,5.5-23.7,20.7l-4.3,24
			c-0.3,1.5-0.4,2.9-0.4,4.1c0,6.9,3.8,9.5,11,9.5c8.1,0,16.5-3.8,22.9-9.3L486.4,115.6z M465,112.7c-3.4,0-5.2-1-5.2-4.5
			c0-1,0.1-1.9,0.4-3.3l4-22.9c2.2-12.5,6.5-16.1,16.7-16.1c4.5,0,8.9,0.7,13.4,1.8l-6,33.9C481,108,472.1,112.7,465,112.7z"/>
		<path class="st0" d="M543.2,115.6c-0.1,1.4,0.4,1.6,1.1,1.6h3.3c1.2,0,1.5-1.1,1.5-1.6l0,0l9.2-51.7c-6.6-2.5-14.1-3.7-19.4-3.7
			c-15.1,0-21.1,6-23.7,20.7l-4.3,24c-0.3,1.5-0.4,2.9-0.4,4.1c0,6.9,3.8,9.5,11,9.5c8.1,0,16.1-3.8,22.5-9.3L543.2,115.6z
			 M522.1,112.7c-3.4,0-5.2-1-5.2-4.5c0-1,0.1-1.9,0.4-3.3l4-22.9c2.2-12.4,6.2-16.1,16.7-16.1c4.7,0,10,1,13.2,1.8l-6,33.9
			C537.9,108,529.1,112.7,522.1,112.7z"/>
		<path class="st0" d="M635,115.6c-0.1,1.4,0.4,1.6,1,1.6h3.3c1.2,0,1.5-1.1,1.5-1.6l0,0l9.2-51.7c-6.6-2.5-14.1-3.7-19.4-3.7
			c-15.1,0-21.1,6-23.7,20.7l-4.3,24c-0.3,1.5-0.4,2.9-0.4,4.1c0,6.9,3.8,9.5,11,9.5c8.1,0,16.1-3.8,22.5-9.3L635,115.6z M614,112.7
			c-3.4,0-5.2-1-5.2-4.5c0-1,0.1-1.9,0.4-3.3l4-22.9c2.2-12.4,6.2-16.1,16.7-16.1c4.7,0,10,1,13.2,1.8l-6,33.9
			C629.8,108,621,112.7,614,112.7z"/>
		<g>
			<path class="st0" d="M581,47.5L581,47.5L581,47.5z"/>
			<path class="st0" d="M600.2,65.9L600.2,65.9l0.8-3.7c0.3-1-0.3-1-0.8-1h-15.8l2.2-12.9l0,0c0.3-1.4-0.7-1.6-1.4-1.5l0,0l-3.6,0.5
				l0,0c-1,0.1-1.5,1-1.5,1.5l0,0l-2.2,12.4h-9.7c-0.3,0-1.1,0.1-1.2,1l-0.5,3.6l0,0c0,0.3,0,1,1,1h9.6l-7.4,42
				c-0.1,0.8-0.3,1.5-0.3,2.2c0,5.1,3.6,7.4,9.2,7.4c4.4,0,12.2-1.2,16.2-3.2c1.2-0.7,1.1-1.5,0.8-2.1l0,0l-0.8-2.2
				c-0.1-0.5-0.8-0.4-1.2-0.3l0,0c-3.8,1.5-6,2.3-13.9,2.3c-2.6,0-3.8-0.5-3.8-2.7c0-0.5,0.1-1.2,0.3-2.1l7.3-41.3h15.6
				C599.8,66.7,600,66.4,600.2,65.9z"/>
		</g>
		<path class="st0" d="M448.9,61.2h-16.1c-0.7,0-1.5,0.5-1.9,1.1l-11.4,16.6l-6.7-17.3c-0.4-1-1.2-1.2-2.1-1.1l-14,2.1l12.1,26.6
			l-22.2,28.1h15.1c1,0,2.5-0.5,3.2-1.4l10.4-12.6l5.9,12.6c0.3,0.7,1.2,1.4,2.2,1.4h14.7l-11.8-25.9L448.9,61.2z"/>
		<path class="st0" d="M379.8,116.3l9.6-54.8c0.1-1.1-0.7-1.1-1.4-1l-13.4,1.8c-1.5,0.3-1.9,1.2-1.9,1.8l0,0l-5.8,33.2
			c-4.1,2.1-11.5,5.4-14.5,5.4c-1.6,0-2.2-0.5-2.2-1.8c0-0.4,0.1-1.1,0.3-1.8l6.6-37.7l0,0c0.1-1.1-0.7-1.1-1.2-1l-13.4,1.9l0,0
			c-1.5,0.3-1.9,1.2-1.9,1.8l0,0l-6.5,36.5c-0.4,2.3-0.5,4.1-0.5,6.5c0,7,2.9,11.4,10.3,11.4c6.5,0,13.3-2.2,22.1-6.3l0.1,4.1
			c0,0.3,0.1,1,0.7,1h12.4C379.5,117.2,379.8,116.7,379.8,116.3z"/>
		<path class="st0" d="M246.5,60.1c-6.5,0-13.3,2.2-22.1,6.3l0.1-4.9c0-1.2-1-1.1-1.5-1l-10.6,1.8l0,0c-1.8,0.3-2.3,1.4-2.5,1.9
			l-8.8,50.5l0,0c-0.4,2.3-0.3,2.5,1.6,2.5h12.1c1.4,0,2.1,0,2.5-2.5l5.9-33.6c4.4-2.3,11.5-5.4,14.5-5.4c1.6,0,2.2,0.4,2.2,1.6
			c0,0.4-0.1,1.1-0.3,1.8l-6.2,35.5l0,0c-0.4,2.3-0.3,2.5,1.6,2.5h12.1c1.4,0,2.1,0,2.5-2.5l6.5-36.8c0.4-2.9,0.5-4.5,0.5-6.5
			C256.8,64.5,254.1,60.1,246.5,60.1z"/>
		<g>
			<path class="st0" d="M200,35.7l-13.4,1.9c-1.5,0.1-1.8,1.2-1.9,1.8l-2.5,14c-0.3,1.6-0.1,1.6,1.4,1.5l13.3-1.8l0,0
				c1.4-0.1,1.6-0.3,1.9-2.1l0,0l2.6-14.5C201.5,35.7,201.2,35.7,200,35.7z"/>
			<path class="st0" d="M180.5,62.5L180.5,62.5L180.5,62.5z"/>
			<path class="st0" d="M187.5,114.7L187.5,114.7l9.5-53.2c0.1-1.1-0.7-1.1-1.4-1l-13.4,1.8l0,0c-1.5,0.3-1.9,1.2-1.9,1.8l0,0
				l-9.1,51.1c-0.3,1.9,0,2.2,1.8,2.2h12C186.3,117.2,187,117.2,187.5,114.7z"/>
		</g>
		<path class="st0" d="M320.5,114.7l13.6-77.4c0.1-1.1-0.4-1.1-1.1-1L317.5,39c-7-1.9-15-2.7-19.5-2.7c-14.4,0-19.2,4.9-21.5,17.8
			l-1.2,7.4H269c-1.6,0-1.8,0.8-1.9,1.5l0,0L265,73.7c-0.1,0.4,0.1,1,0.8,1h7l-7.5,42.8c-0.8,5.1-1.6,8.1-6.5,13.2l0,0
			c-1,1-0.7,1.2,0,1.8l0,0l8.5,8l0,0c0.8,0.8,1.2,0.7,2.2-0.3c7.8-8,10.3-13.3,11.7-20.7l7.8-44.6h12.5c0.7,0,0.8,0,1.1-0.8l0,0
			l2.9-11.3l0,0c0.3-0.8-0.5-1.1-1.1-1.1h-13l1.5-8.1c0.5-2.9,1.8-3.8,5.4-3.8c4.8,0,12.6,1,17,2.1l-11.1,63.4l0,0
			c-0.4,2.3-0.3,2.5,1.6,2.5h12.1C319.4,117.2,320.1,117.2,320.5,114.7z"/>
	</g>
	<path class="st0" d="M660.1,44.3h-1.5l-0.4,2.7h-1.5l1.4-8.1h3c1.6,0,2.5,0.7,2.5,1.8c0,0.1,0,0.3,0,0.5l-0.1,1.1
		c-0.1,1.1-0.5,1.5-1.5,1.9l1.5,2.9h-1.6L660.1,44.3z M661.9,41.3c0-0.1,0-0.3,0-0.3c0-0.5-0.3-0.7-1-0.7h-1.6l-0.4,2.7h1.6
		c1,0,1.1-0.3,1.2-1L661.9,41.3z M660.1,49.8c-3.8,0-6.9-3-6.9-6.9s3-6.9,6.9-6.9c3.8,0,6.9,3,6.9,6.9S663.8,49.8,660.1,49.8z
		 M660.1,37.3c-3.2,0-5.6,2.5-5.6,5.6c0,3.2,2.5,5.6,5.6,5.6c3.2,0,5.6-2.5,5.6-5.6C665.8,39.8,663.2,37.3,660.1,37.3z"/>
</g>
</svg>
