<?xml version="1.0" encoding="utf-8"?>
<!-- Generator: Adobe Illustrator 19.1.0, SVG Export Plug-In . SVG Version: 6.00 Build 0)  -->
<svg version="1.1" id="Layer_1" xmlns="http://www.w3.org/2000/svg" xmlns:xlink="http://www.w3.org/1999/xlink" x="0px" y="0px"
	 viewBox="36 161 672 480" style="enable-background:new 36 161 672 480;" xml:space="preserve">
<style type="text/css">
	.st0{fill:#FFFFFF;}
	.st1{fill:#757888;}
	.st2{fill:none;stroke:#4ED8A0;stroke-width:2;stroke-miterlimit:10;}
	.st3{enable-background:new    ;}
	.st4{fill:#4ED8A0;}
	.st5{fill:none;stroke:#22ADF6;stroke-width:2;stroke-miterlimit:10;}
	.st6{fill:#22ADF6;}
	.st7{fill:none;stroke:#FF8564;stroke-width:2;stroke-miterlimit:10;}
	.st8{fill:#FF8564;}
</style>
<rect x="36" y="161" class="st0" width="672" height="480"/>
<g id="Anatomy_1_">
	<g>
		<path class="st1" d="M219.2,410.6l-8.8-38.3c-0.5-2.1-2.4-4.2-4.5-4.8l-40.2-12.4c-0.5-0.2-1.1-0.2-1.7-0.2
			c-1.7,0-3.5,0.7-4.7,1.7l-28.8,26.8c-1.6,1.4-2.4,4.2-1.9,6.2l9.4,41c0.5,2.1,2.4,4.2,4.5,4.8l37.6,11.6c0.5,0.2,1.1,0.2,1.7,0.2
			c1.7,0,3.5-0.7,4.7-1.7l30.8-28.6C218.9,415.4,219.7,412.7,219.2,410.6z M169.9,364.2l27.6,8.5c1.1,0.3,1.1,0.8,0,1.1l-14.5,3.3
			c-1.1,0.3-2.6-0.2-3.4-1l-10.1-10.9C168.6,364.3,168.8,363.9,169.9,364.2z M187.1,413.7c0.3,1.1-0.4,1.7-1.5,1.4l-29.8-9.2
			c-1.1-0.3-1.3-1.2-0.5-2l22.8-21.2c0.8-0.8,1.7-0.5,2,0.6L187.1,413.7z M138,386.7l24.2-22.5c0.8-0.8,2.1-0.7,2.9,0.1l12.1,13.1
			c0.8,0.8,0.7,2.1-0.1,2.9l-24.2,22.5c-0.8,0.8-2.1,0.7-2.9-0.1l-12.1-13.1C137.1,388.7,137.2,387.4,138,386.7z M143.9,422.4
			l-6.4-28.1c-0.3-1.1,0.2-1.3,0.9-0.5l10.1,10.9c0.8,0.8,1.1,2.4,0.8,3.5l-4.4,14.2C144.6,423.5,144.1,423.5,143.9,422.4z
			 M179.3,438.8l-31.6-9.7c-1.1-0.3-1.7-1.5-1.4-2.6l5.3-17c0.3-1.1,1.5-1.7,2.6-1.4l31.6,9.7c1.1,0.3,1.7,1.5,1.4,2.6l-5.3,17
			C181.5,438.5,180.4,439.1,179.3,438.8z M207.3,415.8l-21.1,19.6c-0.8,0.8-1.2,0.5-0.9-0.6l4.4-14.2c0.3-1.1,1.5-2.2,2.6-2.4
			l14.5-3.3C207.9,414.6,208.1,415.1,207.3,415.8z M209.6,411.6l-17.4,4c-1.1,0.3-2.2-0.4-2.5-1.5l-7.4-32.2
			c-0.3-1.1,0.4-2.2,1.5-2.5l17.4-4c1.1-0.3,2.2,0.4,2.5,1.5l7.4,32.2C211.4,410.3,210.7,411.4,209.6,411.6z"/>
		<g>
			<path class="st1" d="M479.2,424.1c-0.1,1,0.3,1.2,0.7,1.2h2.4c0.9,0,1.1-0.8,1.1-1.2l9.8-55.7c0.2-1-0.5-1.2-1-1.1l0,0l-2.6,0.4
				c-0.7,0.1-1.1,0.7-1.1,1.1l0,0l-2.8,16.2c-2.5-0.8-7.2-1.3-9.9-1.3c-10.4,0-15.4,4-17.3,15.1l-3.1,17.5c-0.2,1.1-0.3,2.1-0.3,3
				c0,5,2.8,6.9,8,6.9c5.9,0,12-2.8,16.7-6.8L479.2,424.1z M463.6,422c-2.5,0-3.8-0.7-3.8-3.3c0-0.7,0.1-1.4,0.3-2.4l2.9-16.7
				c1.6-9.1,4.7-11.7,12.2-11.7c3.3,0,6.5,0.5,9.8,1.3l-4.4,24.7C475.3,418.6,468.8,422,463.6,422z"/>
			<path class="st1" d="M520.6,424.1c-0.1,1,0.3,1.2,0.8,1.2h2.4c0.9,0,1.1-0.8,1.1-1.2l0,0l6.7-37.7c-4.8-1.8-10.3-2.7-14.1-2.7
				c-11,0-15.4,4.4-17.3,15.1l-3.1,17.5c-0.2,1.1-0.3,2.1-0.3,3c0,5,2.8,6.9,8,6.9c5.9,0,11.7-2.8,16.4-6.8L520.6,424.1z M505.2,422
				c-2.5,0-3.8-0.7-3.8-3.3c0-0.7,0.1-1.4,0.3-2.4l2.9-16.7c1.6-9,4.5-11.7,12.2-11.7c3.4,0,7.3,0.7,9.6,1.3l-4.4,24.7
				C516.7,418.6,510.3,422,505.2,422z"/>
			<path class="st1" d="M587.5,424.1c-0.1,1,0.3,1.2,0.7,1.2h2.4c0.9,0,1.1-0.8,1.1-1.2l0,0l6.7-37.7c-4.8-1.8-10.3-2.7-14.1-2.7
				c-11,0-15.4,4.4-17.3,15.1l-3.1,17.5c-0.2,1.1-0.3,2.1-0.3,3c0,5,2.8,6.9,8,6.9c5.9,0,11.7-2.8,16.4-6.8L587.5,424.1z M572.2,422
				c-2.5,0-3.8-0.7-3.8-3.3c0-0.7,0.1-1.4,0.3-2.4l2.9-16.7c1.6-9,4.5-11.7,12.2-11.7c3.4,0,7.3,0.7,9.6,1.3l-4.4,24.7
				C583.7,418.6,577.3,422,572.2,422z"/>
			<g>
				<path class="st1" d="M548.1,374.5L548.1,374.5L548.1,374.5z"/>
				<path class="st1" d="M562.1,387.9L562.1,387.9l0.6-2.7c0.2-0.7-0.2-0.7-0.6-0.7h-11.5l1.6-9.4l0,0c0.2-1-0.5-1.2-1-1.1l0,0
					l-2.6,0.4l0,0c-0.7,0.1-1.1,0.7-1.1,1.1l0,0l-1.6,9h-7.1c-0.2,0-0.8,0.1-0.9,0.7l-0.4,2.6l0,0c0,0.2,0,0.7,0.7,0.7h7l-5.4,30.6
					c-0.1,0.6-0.2,1.1-0.2,1.6c0,3.7,2.6,5.4,6.7,5.4c3.2,0,8.9-0.9,11.8-2.3c0.9-0.5,0.8-1.1,0.6-1.5l0,0l-0.6-1.6
					c-0.1-0.4-0.6-0.3-0.9-0.2l0,0c-2.8,1.1-4.4,1.7-10.1,1.7c-1.9,0-2.8-0.4-2.8-2c0-0.4,0.1-0.9,0.2-1.5l5.3-30.1h11.4
					C561.8,388.5,562,388.3,562.1,387.9z"/>
			</g>
			<path class="st1" d="M451.9,384.5h-11.7c-0.5,0-1.1,0.4-1.4,0.8l-8.3,12.1l-4.9-12.6c-0.3-0.7-0.9-0.9-1.5-0.8l-10.2,1.5
				l8.8,19.4l-16.2,20.5h11c0.7,0,1.8-0.4,2.3-1l7.6-9.2l4.3,9.2c0.2,0.5,0.9,1,1.6,1H444l-8.6-18.9L451.9,384.5z"/>
			<path class="st1" d="M401.5,424.6l7-39.9c0.1-0.8-0.5-0.8-1-0.7l-9.8,1.3c-1.1,0.2-1.4,0.9-1.4,1.3l0,0l-4.2,24.2
				c-3,1.5-8.4,3.9-10.6,3.9c-1.2,0-1.6-0.4-1.6-1.3c0-0.3,0.1-0.8,0.2-1.3l4.8-27.5l0,0c0.1-0.8-0.5-0.8-0.9-0.7l-9.8,1.4l0,0
				c-1.1,0.2-1.4,0.9-1.4,1.3l0,0l-4.7,26.6c-0.3,1.7-0.4,3-0.4,4.7c0,5.1,2.1,8.3,7.5,8.3c4.7,0,9.7-1.6,16.1-4.6l0.1,3
				c0,0.2,0.1,0.7,0.5,0.7h9C401.3,425.3,401.5,424.9,401.5,424.6z"/>
			<path class="st1" d="M304.4,383.7c-4.7,0-9.7,1.6-16.1,4.6l0.1-3.6c0-0.9-0.7-0.8-1.1-0.7l-7.7,1.3l0,0c-1.3,0.2-1.7,1-1.8,1.4
				l-6.4,36.8l0,0c-0.3,1.7-0.2,1.8,1.2,1.8h8.8c1,0,1.5,0,1.8-1.8l4.3-24.5c3.2-1.7,8.4-3.9,10.6-3.9c1.2,0,1.6,0.3,1.6,1.2
				c0,0.3-0.1,0.8-0.2,1.3l-4.5,25.9l0,0c-0.3,1.7-0.2,1.8,1.2,1.8h8.8c1,0,1.5,0,1.8-1.8l4.7-26.8c0.3-2.1,0.4-3.3,0.4-4.7
				C311.9,386.8,309.9,383.7,304.4,383.7z"/>
			<g>
				<path class="st1" d="M270.5,365.9l-9.8,1.4c-1.1,0.1-1.3,0.9-1.4,1.3l-1.8,10.2c-0.2,1.2-0.1,1.2,1,1.1l9.7-1.3l0,0
					c1-0.1,1.2-0.2,1.4-1.5l0,0l1.9-10.6C271.6,365.8,271.4,365.8,270.5,365.9z"/>
				<path class="st1" d="M256.3,385.4L256.3,385.4L256.3,385.4z"/>
				<path class="st1" d="M261.4,423.5L261.4,423.5l6.9-38.8c0.1-0.8-0.5-0.8-1-0.7l-9.8,1.3l0,0c-1.1,0.2-1.4,0.9-1.4,1.3l0,0
					l-6.6,37.2c-0.2,1.4,0,1.6,1.3,1.6h8.8C260.5,425.3,261,425.3,261.4,423.5z"/>
			</g>
			<path class="st1" d="M358.3,423.5l9.9-56.4c0.1-0.8-0.3-0.8-0.8-0.7l-11.3,1.9c-5.1-1.4-10.9-2-14.2-2c-10.5,0-14,3.6-15.7,13
				l-0.9,5.4h-4.6c-1.2,0-1.3,0.6-1.4,1.1l0,0l-1.4,7.8c-0.1,0.3,0.1,0.7,0.6,0.7h5.1l-5.5,31.2c-0.6,3.7-1.2,5.9-4.7,9.6l0,0
				c-0.7,0.7-0.5,0.9,0,1.3l0,0l6.2,5.8l0,0c0.6,0.6,0.9,0.5,1.6-0.2c5.7-5.8,7.5-9.7,8.5-15.1l5.7-32.5h9.1c0.5,0,0.6,0,0.8-0.6
				l0,0l2.1-8.2l0,0c0.2-0.6-0.4-0.8-0.8-0.8h-9.5l1.1-5.9c0.4-2.1,1.3-2.8,3.9-2.8c3.5,0,9.2,0.7,12.4,1.5l-8.1,46.2l0,0
				c-0.3,1.7-0.2,1.8,1.2,1.8h8.8C357.5,425.3,358,425.3,358.3,423.5z"/>
		</g>
		<path id="Registered_Trademark" class="st1" d="M609.4,373.5h-1.1l-0.3,2h-1.1l1-6h2.2c1.2,0,1.8,0.5,1.8,1.3c0,0.1,0,0.2,0,0.4
			l-0.1,0.8c-0.1,0.8-0.4,1.1-1.1,1.4l1.1,2.1h-1.2L609.4,373.5z M610.8,371.2c0-0.1,0-0.2,0-0.2c0-0.4-0.2-0.5-0.7-0.5h-1.2l-0.3,2
			h1.2c0.7,0,0.8-0.2,0.9-0.7L610.8,371.2z M609.4,377.5c-2.8,0-5.1-2.2-5.1-5.1s2.2-5.1,5.1-5.1s5.1,2.2,5.1,5.1
			S612.2,377.5,609.4,377.5z M609.4,368.3c-2.3,0-4.2,1.8-4.2,4.2s1.8,4.2,4.2,4.2c2.3,0,4.2-1.8,4.2-4.2S611.7,368.3,609.4,368.3z"
			/>
	</g>
	<g>
		<path class="st2" d="M615.5,366.3v76.1H249.4v-76.1H615.5z"/>
		<g class="st3">
			<path class="st4" d="M252.4,343.2h4.4v1.6h-6.4v-10h2.1L252.4,343.2L252.4,343.2z"/>
			<path class="st4" d="M257.4,341.1c0-0.7,0.1-1.4,0.4-2s0.7-1,1.2-1.3c0.5-0.3,1.1-0.5,1.8-0.5c1,0,1.8,0.3,2.4,0.9
				c0.6,0.6,1,1.4,1.1,2.5v0.5c0,1.1-0.3,2-1,2.7c-0.6,0.7-1.5,1-2.5,1s-1.9-0.3-2.6-1S257.4,342.3,257.4,341.1L257.4,341.1z
				 M259.4,341.2c0,0.7,0.1,1.2,0.4,1.6c0.3,0.4,0.6,0.6,1.1,0.6s0.9-0.2,1.1-0.6c0.3-0.4,0.4-1,0.4-1.8c0-0.7-0.1-1.2-0.4-1.6
				s-0.6-0.6-1.1-0.6s-0.9,0.2-1.1,0.6C259.6,339.8,259.4,340.4,259.4,341.2z"/>
			<path class="st4" d="M265.4,341.1c0-1.1,0.3-2,0.8-2.7c0.5-0.7,1.3-1,2.2-1c0.8,0,1.4,0.3,1.9,0.8l0.1-0.7h1.8v7.2
				c0,0.6-0.1,1.2-0.4,1.7s-0.7,0.8-1.2,1.1c-0.5,0.3-1.2,0.4-1.9,0.4c-0.5,0-1.1-0.1-1.6-0.3s-0.9-0.5-1.2-0.8l0.9-1.2
				c0.5,0.6,1.1,0.8,1.8,0.8c0.5,0,0.9-0.1,1.2-0.4c0.3-0.3,0.4-0.7,0.4-1.2v-0.4c-0.5,0.5-1.1,0.8-1.8,0.8c-0.9,0-1.6-0.3-2.2-1
				C265.7,343.2,265.4,342.3,265.4,341.1L265.4,341.1z M267.4,341.2c0,0.7,0.1,1.2,0.4,1.6c0.3,0.4,0.6,0.6,1.1,0.6
				c0.6,0,1-0.2,1.3-0.7v-3.1c-0.3-0.5-0.7-0.7-1.3-0.7c-0.5,0-0.8,0.2-1.1,0.6S267.4,340.4,267.4,341.2z"/>
			<path class="st4" d="M273.4,341.1c0-0.7,0.1-1.4,0.4-2s0.7-1,1.2-1.3c0.5-0.3,1.1-0.5,1.8-0.5c1,0,1.8,0.3,2.4,0.9
				c0.6,0.6,1,1.4,1.1,2.5v0.5c0,1.1-0.3,2-1,2.7c-0.6,0.7-1.5,1-2.5,1s-1.9-0.3-2.6-1S273.4,342.3,273.4,341.1L273.4,341.1z
				 M275.3,341.2c0,0.7,0.1,1.2,0.4,1.6c0.3,0.4,0.6,0.6,1.1,0.6s0.9-0.2,1.1-0.6c0.3-0.4,0.4-1,0.4-1.8c0-0.7-0.1-1.2-0.4-1.6
				s-0.6-0.6-1.1-0.6s-0.9,0.2-1.1,0.6S275.3,340.4,275.3,341.2z"/>
			<path class="st4" d="M292.3,336.5h-3v8.3h-2.1v-8.3h-3v-1.7h8.1V336.5z"/>
			<path class="st4" d="M295.5,342l1.4-4.6h2.1l-3,8.5l-0.2,0.4c-0.4,1-1.2,1.4-2.2,1.4c-0.3,0-0.6,0-0.9-0.1v-1.5h0.3
				c0.4,0,0.7-0.1,0.8-0.2c0.1-0.1,0.3-0.3,0.4-0.6l0.2-0.6l-2.6-7.4h2.1L295.5,342z"/>
			<path class="st4" d="M306.4,341.2c0,1.1-0.3,2.1-0.8,2.7c-0.5,0.7-1.2,1-2.1,1c-0.7,0-1.4-0.3-1.8-0.8v3.5h-2v-10.2h1.8l0.1,0.7
				c0.5-0.6,1.1-0.9,1.9-0.9c0.9,0,1.6,0.3,2.1,1c0.5,0.7,0.8,1.6,0.8,2.8V341.2z M304.5,341.1c0-0.7-0.1-1.2-0.4-1.6
				s-0.6-0.6-1.1-0.6c-0.6,0-1,0.2-1.3,0.7v3c0.2,0.5,0.7,0.7,1.3,0.7C304,343.4,304.5,342.6,304.5,341.1z"/>
			<path class="st4" d="M311.1,345c-1.1,0-2-0.3-2.6-1s-1-1.6-1-2.7v-0.2c0-0.7,0.1-1.4,0.4-2c0.3-0.6,0.7-1,1.2-1.4
				c0.5-0.3,1.1-0.5,1.8-0.5c1,0,1.8,0.3,2.4,1s0.9,1.5,0.9,2.7v0.8h-4.7c0.1,0.5,0.3,0.9,0.6,1.2c0.3,0.3,0.7,0.4,1.2,0.4
				c0.8,0,1.4-0.3,1.8-0.8l1,1.1c-0.3,0.4-0.7,0.7-1.2,1C312.2,344.9,311.7,345,311.1,345z M310.8,338.9c-0.4,0-0.7,0.1-1,0.4
				c-0.3,0.3-0.4,0.6-0.5,1.1h2.7v-0.2c0-0.4-0.1-0.8-0.4-1C311.3,339,311.3,338.9,310.8,338.9z"/>
		</g>
	</g>
	<g>
		<path class="st5" d="M219.4,354.8v92.3h-90.9v-92.3H219.4"/>
		<g class="st3">
			<path class="st6" d="M131.4,343.2h4.4v1.6h-6.4v-10h2.1L131.4,343.2L131.4,343.2z"/>
			<path class="st6" d="M136.5,341.1c0-0.7,0.1-1.4,0.4-2c0.3-0.6,0.7-1,1.2-1.3c0.5-0.3,1.1-0.5,1.8-0.5c1,0,1.8,0.3,2.4,0.9
				c0.6,0.6,1,1.4,1.1,2.5v0.5c0,1.1-0.3,2-1,2.7c-0.6,0.7-1.5,1-2.5,1s-1.9-0.3-2.6-1S136.5,342.3,136.5,341.1L136.5,341.1z
				 M138.5,341.2c0,0.7,0.1,1.2,0.4,1.6c0.3,0.4,0.6,0.6,1.1,0.6s0.9-0.2,1.1-0.6c0.3-0.4,0.4-1,0.4-1.8c0-0.7-0.1-1.2-0.4-1.6
				c-0.3-0.4-0.6-0.6-1.1-0.6s-0.9,0.2-1.1,0.6C138.6,339.8,138.5,340.4,138.5,341.2z"/>
			<path class="st6" d="M144.5,341.1c0-1.1,0.3-2,0.8-2.7c0.5-0.7,1.3-1,2.2-1c0.8,0,1.4,0.3,1.9,0.8l0.1-0.7h1.8v7.2
				c0,0.6-0.1,1.2-0.4,1.7s-0.7,0.8-1.2,1.1c-0.5,0.3-1.2,0.4-1.9,0.4c-0.5,0-1.1-0.1-1.6-0.3s-0.9-0.5-1.2-0.8l0.9-1.2
				c0.5,0.6,1.1,0.8,1.8,0.8c0.5,0,0.9-0.1,1.2-0.4c0.3-0.3,0.4-0.7,0.4-1.2v-0.4c-0.5,0.5-1.1,0.8-1.8,0.8c-0.9,0-1.6-0.3-2.2-1
				C144.7,343.2,144.5,342.3,144.5,341.1L144.5,341.1z M146.4,341.2c0,0.7,0.1,1.2,0.4,1.6c0.3,0.4,0.6,0.6,1.1,0.6
				c0.6,0,1-0.2,1.3-0.7v-3.1c-0.3-0.5-0.7-0.7-1.3-0.7c-0.5,0-0.8,0.2-1.1,0.6C146.6,339.9,146.4,340.4,146.4,341.2z"/>
			<path class="st6" d="M152.4,341.1c0-0.7,0.1-1.4,0.4-2s0.7-1,1.2-1.3c0.5-0.3,1.1-0.5,1.8-0.5c1,0,1.8,0.3,2.4,0.9
				c0.6,0.6,1,1.4,1.1,2.5v0.5c0,1.1-0.3,2-1,2.7c-0.6,0.7-1.5,1-2.5,1s-1.9-0.3-2.6-1C152.5,343.2,152.4,342.3,152.4,341.1
				L152.4,341.1z M154.4,341.2c0,0.7,0.1,1.2,0.4,1.6c0.3,0.4,0.6,0.6,1.1,0.6s0.9-0.2,1.1-0.6c0.3-0.4,0.4-1,0.4-1.8
				c0-0.7-0.1-1.2-0.4-1.6s-0.6-0.6-1.1-0.6s-0.9,0.2-1.1,0.6C154.5,339.8,154.4,340.4,154.4,341.2z"/>
			<path class="st6" d="M169.4,342.2c0-0.4-0.1-0.7-0.4-0.9c-0.3-0.2-0.8-0.4-1.5-0.7c-0.7-0.2-1.3-0.5-1.7-0.7
				c-1.1-0.6-1.7-1.4-1.7-2.5c0-0.5,0.2-1,0.5-1.4c0.3-0.4,0.7-0.8,1.3-1c0.6-0.2,1.2-0.4,1.9-0.4c0.7,0,1.3,0.1,1.9,0.4
				c0.6,0.3,1,0.6,1.3,1.1s0.5,1,0.5,1.6h-2.1c0-0.5-0.1-0.8-0.4-1.1c-0.3-0.3-0.7-0.4-1.2-0.4s-0.9,0.1-1.2,0.3s-0.4,0.5-0.4,0.8
				c0,0.3,0.2,0.6,0.5,0.8c0.3,0.2,0.8,0.4,1.4,0.6c1.2,0.4,2,0.8,2.5,1.3s0.8,1.2,0.8,1.9c0,0.9-0.3,1.5-1,2s-1.5,0.7-2.6,0.7
				c-0.8,0-1.5-0.1-2.1-0.4c-0.6-0.3-1.1-0.7-1.4-1.2c-0.3-0.5-0.5-1.1-0.5-1.7h2.1c0,1.1,0.7,1.6,2,1.6c0.5,0,0.9-0.1,1.1-0.3
				C169.3,342.9,169.4,342.6,169.4,342.2z"/>
			<path class="st6" d="M175.5,342l1.4-4.6h2.1l-3,8.5l-0.2,0.4c-0.4,1-1.2,1.4-2.2,1.4c-0.3,0-0.6,0-0.9-0.1v-1.5h0.3
				c0.4,0,0.7-0.1,0.8-0.2c0.1-0.1,0.3-0.3,0.4-0.6l0.2-0.6l-2.6-7.4h2.1L175.5,342z"/>
			<path class="st6" d="M181.6,337.4l0.1,0.8c0.5-0.6,1.2-1,2.1-1c1,0,1.6,0.4,2,1.1c0.5-0.8,1.3-1.1,2.2-1.1c0.8,0,1.4,0.2,1.8,0.7
				c0.4,0.5,0.6,1.2,0.6,2.1v4.7h-2V340c0-0.4-0.1-0.7-0.2-0.9s-0.5-0.3-0.9-0.3c-0.6,0-1,0.3-1.2,0.8v5.1h-2V340
				c0-0.4-0.1-0.7-0.3-0.9c-0.2-0.2-0.5-0.3-0.9-0.3c-0.6,0-1,0.2-1.2,0.7v5.2h-2v-7.4L181.6,337.4L181.6,337.4z"/>
			<path class="st6" d="M198.6,341.2c0,1.2-0.3,2.1-0.8,2.8s-1.2,1-2.1,1c-0.8,0-1.4-0.3-1.9-0.9l-0.1,0.8h-1.8v-10.5h2v3.8
				c0.5-0.5,1.1-0.8,1.8-0.8c0.9,0,1.6,0.3,2.1,1C198.3,339.1,198.6,340,198.6,341.2L198.6,341.2z M196.6,341.1
				c0-0.8-0.1-1.3-0.4-1.6c-0.2-0.3-0.6-0.5-1.1-0.5c-0.6,0-1.1,0.3-1.3,0.8v2.9c0.2,0.5,0.7,0.8,1.3,0.8s1.1-0.3,1.3-0.9
				C196.5,342.1,196.6,341.7,196.6,341.1z"/>
			<path class="st6" d="M199.5,341.1c0-0.7,0.1-1.4,0.4-2c0.3-0.6,0.7-1,1.2-1.3c0.5-0.3,1.1-0.5,1.8-0.5c1,0,1.8,0.3,2.4,0.9
				c0.6,0.6,1,1.4,1.1,2.5v0.5c0,1.1-0.3,2-1,2.7c-0.6,0.7-1.5,1-2.5,1s-1.9-0.3-2.6-1S199.5,342.3,199.5,341.1L199.5,341.1z
				 M201.5,341.2c0,0.7,0.1,1.2,0.4,1.6c0.3,0.4,0.6,0.6,1.1,0.6s0.9-0.2,1.1-0.6c0.3-0.4,0.4-1,0.4-1.8c0-0.7-0.1-1.2-0.4-1.6
				c-0.3-0.4-0.6-0.6-1.1-0.6s-0.9,0.2-1.1,0.6C201.6,339.8,201.5,340.4,201.5,341.2z"/>
			<path class="st6" d="M209.8,344.8h-2v-10.5h2V344.8z"/>
		</g>
		<path class="st6" d="M173.9,461.8l1.9-3.4h2.4l-2.9,4.9l3,5h-2.4l-1.9-3.5l-1.9,3.5h-2.4l3-5l-2.9-4.9h2.4L173.9,461.8z"/>
	</g>
	<g>
		<line class="st7" x1="219.4" y1="401" x2="249.4" y2="401"/>
		<g>
			<path class="st8" d="M227.8,471.8l1.9-3.4h2.4l-2.9,4.9l3,5h-2.4l-1.9-3.5l-1.9,3.5h-2.5l3-5l-2.9-4.9h2.4L227.8,471.8z"/>
			<path class="st8" d="M233.6,479.2h-1.5l3.7-10.8h1.5L233.6,479.2z"/>
			<path class="st8" d="M240.1,472.5h1.1c0.5,0,0.9-0.1,1.1-0.4s0.4-0.6,0.4-1s-0.1-0.7-0.4-0.9s-0.6-0.3-1-0.3s-0.7,0.1-1,0.3
				c-0.3,0.2-0.4,0.5-0.4,0.8h-2c0-0.5,0.1-1,0.4-1.4s0.7-0.7,1.2-1s1.1-0.3,1.7-0.3c1.1,0,1.9,0.3,2.5,0.8s0.9,1.2,0.9,2.1
				c0,0.5-0.1,0.9-0.4,1.3s-0.6,0.7-1.1,0.9c0.6,0.2,1,0.5,1.3,0.9s0.4,0.9,0.4,1.4c0,0.9-0.3,1.6-1,2.1s-1.5,0.8-2.6,0.8
				c-1,0-1.8-0.3-2.4-0.8c-0.6-0.5-0.9-1.2-0.9-2.1h2c0,0.4,0.1,0.7,0.4,0.9s0.6,0.4,1,0.4c0.5,0,0.8-0.1,1.1-0.4
				c0.3-0.2,0.4-0.6,0.4-1c0-1-0.5-1.5-1.6-1.5h-1L240.1,472.5L240.1,472.5L240.1,472.5z"/>
		</g>
		<line class="st7" x1="234.4" y1="401" x2="234.4" y2="458.5"/>
	</g>
</g>
</svg>
