<?xml version="1.0" encoding="utf-8"?>
<!-- Generator: Adobe Illustrator 19.1.0, SVG Export Plug-In . SVG Version: 6.00 Build 0)  -->
<svg version="1.1" id="Layer_1" xmlns="http://www.w3.org/2000/svg" xmlns:xlink="http://www.w3.org/1999/xlink" x="0px" y="0px"
	 viewBox="-113 36 672 530" style="enable-background:new -113 36 672 530;" xml:space="preserve">
<style type="text/css">
	.st0{fill:#FFFFFF;}
	.st1{enable-background:new    ;}
	.st2{fill:#22ADF6;}
	.st3{fill:#FF7D55;}
	.st4{fill:#757888;}
	.st5{opacity:0.3;fill:url(#SVGID_1_);enable-background:new    ;}
	.st6{fill:none;stroke:#FF7D55;stroke-width:2;stroke-miterlimit:10;}
	.st7{fill:none;stroke:#22ADF6;stroke-width:2;stroke-miterlimit:10;}
	.st8{fill:#4591ED;}
</style>
<rect x="-113" y="36" class="st0" width="672" height="530"/>
<g>
	<g class="st1">
		<path class="st2" d="M292,174.4h-2.6v-10l-3.1,0.9v-2.2l5.4-2h0.3V174.4z"/>
		<path class="st2" d="M305.2,162.8l-5.1,11.7h-2.8l5.1-11.1H296v-2h9.2V162.8z"/>
		<path class="st2" d="M307.2,163.7c0-0.6,0.3-1.2,0.8-1.7c0.5-0.5,1.1-0.8,1.7-0.8s1.2,0.3,1.7,0.8c0.5,0.5,0.8,1.1,0.8,1.7
			c0,0.6-0.3,1.2-0.8,1.7s-1.1,0.8-1.7,0.8s-1.2-0.3-1.7-0.8C307.5,164.9,307.2,164.3,307.2,163.7z M309.5,164.8
			c0.3,0,0.6-0.2,0.8-0.3c0.2-0.2,0.3-0.5,0.3-0.8c0-0.3-0.2-0.6-0.3-0.8c-0.2-0.2-0.5-0.3-0.8-0.3c-0.3,0-0.6,0.2-0.8,0.3
			c-0.2,0.2-0.3,0.5-0.3,0.8c0,0.3,0.2,0.6,0.3,0.8C308.9,164.6,309.2,164.8,309.5,164.8z"/>
		<path class="st2" d="M329.1,170.1c-0.2,1.4-0.6,2.5-1.5,3.4s-2.2,1.2-3.7,1.2c-1.7,0-3.1-0.6-4-1.7c-0.9-1.1-1.4-2.6-1.4-4.6v-0.9
			c0-1.2,0.2-2.3,0.6-3.4s1.1-1.7,1.8-2.2c0.8-0.5,1.8-0.8,2.9-0.8c1.5,0,2.8,0.5,3.7,1.2c0.9,0.8,1.4,2,1.5,3.4h-2.8
			c0-0.9-0.3-1.5-0.8-1.8c-0.5-0.3-1.1-0.6-1.8-0.6c-0.9,0-1.5,0.3-2,0.9c-0.5,0.6-0.6,1.7-0.6,3.1v0.9c0,1.4,0.2,2.5,0.6,3.1
			s1.1,0.9,2,0.9c0.8,0,1.4-0.2,1.8-0.6c0.5-0.5,0.6-0.9,0.8-1.8h2.8V170.1z"/>
		<path class="st2" d="M333.6,174.4H331v-13.8h2.6V174.4z"/>
		<path class="st2" d="M335.3,169.5c0-0.9,0.2-1.8,0.6-2.6c0.5-0.8,0.9-1.4,1.5-1.7s1.5-0.6,2.5-0.6c1.4,0,2.5,0.5,3.2,1.2
			s1.2,1.8,1.4,3.2v0.6c0,1.5-0.5,2.8-1.2,3.5c-0.8,0.8-2,1.4-3.4,1.4s-2.5-0.5-3.4-1.4C335.6,172.3,335.3,171.2,335.3,169.5
			L335.3,169.5z M337.9,169.7c0,0.9,0.2,1.7,0.5,2.2c0.3,0.5,0.9,0.8,1.5,0.8c0.6,0,1.1-0.3,1.5-0.8c0.3-0.5,0.5-1.2,0.5-2.3
			c0-0.9-0.2-1.5-0.5-2.2c-0.3-0.5-0.9-0.8-1.5-0.8c-0.6,0-1.1,0.3-1.5,0.8C338,167.8,337.9,168.6,337.9,169.7z"/>
		<path class="st2" d="M350.2,172.6c0.5,0,0.9-0.2,1.2-0.5c0.3-0.3,0.5-0.6,0.5-1.1h2.5c0,0.6-0.2,1.2-0.6,1.8
			c-0.5,0.6-0.8,0.9-1.4,1.2c-0.6,0.3-1.2,0.5-2,0.5c-1.4,0-2.5-0.5-3.2-1.4s-1.2-2.2-1.2-3.7v-0.2c0-1.5,0.5-2.8,1.2-3.5
			s1.8-1.4,3.2-1.4c1.2,0,2.2,0.3,2.9,1.1c0.8,0.8,1.1,1.7,1.1,2.8h-2.5c0-0.5-0.2-0.9-0.5-1.2c-0.3-0.3-0.8-0.5-1.2-0.5
			c-0.6,0-1.1,0.2-1.4,0.6c-0.3,0.5-0.5,1.2-0.5,2.2v0.3c0,1.1,0.2,1.7,0.5,2.2C349.1,172.3,349.6,172.6,350.2,172.6z"/>
		<path class="st2" d="M359.2,170.6l-0.9,0.9v2.9h-2.6v-13.8h2.6v7.7l0.5-0.6l2.5-2.9h3.1l-3.5,4l3.8,5.7h-2.9L359.2,170.6z"/>
		<path class="st2" d="M374,170.9l1.2-6.1h2.5l-2.5,9.7h-2.2l-1.8-6.1l-1.8,6.1h-2.2l-2.5-9.7h2.5l1.2,6.1l1.8-6.1h1.8L374,170.9z"
			/>
		<path class="st2" d="M379.1,162.1c0-0.5,0.2-0.8,0.5-0.9s0.6-0.3,1.1-0.3c0.5,0,0.8,0.2,1.1,0.3c0.3,0.2,0.5,0.6,0.5,0.9
			c0,0.5-0.2,0.8-0.5,0.9c-0.3,0.2-0.6,0.3-1.1,0.3c-0.5,0-0.8-0.2-1.1-0.3C379.2,162.9,379.1,162.6,379.1,162.1z M381.8,174.4h-2.6
			v-9.7h2.6V174.4z"/>
		<path class="st2" d="M389.2,171.7c0-0.3-0.2-0.6-0.5-0.8c-0.3-0.2-0.8-0.3-1.5-0.5c-2.3-0.5-3.5-1.5-3.5-2.9
			c0-0.9,0.3-1.5,1.1-2.2s1.7-0.9,2.8-0.9c1.2,0,2.2,0.3,2.9,0.9c0.8,0.6,1.1,1.4,1.1,2.3h-2.6c0-0.3-0.2-0.6-0.3-0.9
			c-0.2-0.3-0.6-0.3-1.1-0.3c-0.5,0-0.8,0.2-1.1,0.3c-0.3,0.2-0.3,0.5-0.3,0.8c0,0.3,0.2,0.5,0.5,0.8c0.3,0.3,0.8,0.3,1.4,0.5
			c0.6,0.2,1.2,0.3,1.7,0.5c1.4,0.5,2,1.4,2,2.6c0,0.9-0.3,1.5-1.1,2.2c-0.8,0.6-1.7,0.8-2.9,0.8c-0.8,0-1.5-0.2-2.2-0.5
			c-0.6-0.3-1.1-0.6-1.5-1.2s-0.6-1.1-0.6-1.7h2.5c0,0.5,0.2,0.8,0.5,1.1c0.3,0.3,0.8,0.3,1.2,0.3s0.9-0.2,1.1-0.3
			C388.7,172.3,389.2,172,389.2,171.7z"/>
		<path class="st2" d="M398,174.6c-1.4,0-2.6-0.5-3.5-1.4c-0.9-0.9-1.4-2-1.4-3.5v-0.3c0-0.9,0.2-1.8,0.6-2.6
			c0.5-0.8,0.9-1.4,1.5-1.8c0.6-0.5,1.5-0.6,2.3-0.6c1.4,0,2.5,0.5,3.1,1.2c0.6,0.8,1.1,2,1.1,3.5v1.1h-6.1c0.2,0.6,0.3,1.1,0.8,1.5
			c0.5,0.5,0.9,0.6,1.5,0.6c1.1,0,1.8-0.3,2.3-1.1l1.2,1.4c-0.5,0.6-0.9,0.9-1.5,1.2C399.2,174.1,398.7,174.6,398,174.6z
			 M397.6,166.6c-0.5,0-0.9,0.2-1.2,0.5c-0.3,0.3-0.5,0.9-0.6,1.5h3.7v-0.2c0-0.6-0.2-1.1-0.5-1.4
			C398.7,166.8,398.3,166.6,397.6,166.6z"/>
	</g>
	<g class="st1">
		<path class="st3" d="M203.8,143.7c0,1.8-0.3,3.2-1.1,4.1c-0.8,0.9-1.8,1.4-3.2,1.4c-1.4,0-2.5-0.5-3.2-1.4c-0.8-0.9-1.1-2.3-1.2-4
			v-2.5c0-1.8,0.3-3.2,1.1-4.1c0.8-0.9,1.8-1.4,3.2-1.4s2.5,0.5,3.2,1.4c0.8,0.9,1.1,2.3,1.2,4V143.7z M201.2,140.9
			c0-1.1-0.2-1.8-0.5-2.3c-0.3-0.5-0.8-0.8-1.4-0.8c-0.6,0-1.1,0.3-1.4,0.8c-0.3,0.5-0.5,1.2-0.5,2.2v3.2c0,1.1,0.2,1.8,0.5,2.5
			c0.3,0.5,0.8,0.8,1.4,0.8c0.6,0,1.1-0.3,1.4-0.8c0.3-0.5,0.5-1.2,0.5-2.3V140.9z"/>
		<path class="st3" d="M205.8,138.3c0-0.6,0.3-1.2,0.8-1.7c0.5-0.5,1.1-0.8,1.7-0.8c0.6,0,1.2,0.3,1.7,0.8s0.8,1.1,0.8,1.7
			s-0.3,1.2-0.8,1.7c-0.5,0.5-1.1,0.8-1.7,0.8c-0.6,0-1.2-0.3-1.7-0.8C206.1,139.6,205.8,139,205.8,138.3z M208.3,139.4
			c0.3,0,0.6-0.2,0.8-0.3c0.2-0.2,0.3-0.5,0.3-0.8c0-0.3-0.2-0.6-0.3-0.8c-0.2-0.2-0.5-0.3-0.8-0.3c-0.3,0-0.6,0.2-0.8,0.3
			c-0.2,0.2-0.3,0.5-0.3,0.8c0,0.3,0.2,0.6,0.3,0.8C207.6,139.3,207.9,139.4,208.3,139.4z"/>
	</g>
	<g>
		<path class="st4" d="M347.4,327.4l-24.1-105.2c-1.2-5.7-6.6-11.4-12.3-13.2L200.6,175c-1.4-0.5-3.1-0.6-4.8-0.6
			c-4.8,0-9.7,1.8-12.7,4.6L104,252.5c-4.3,4-6.6,11.5-5.2,17.2l25.8,112.6c1.4,5.7,6.6,11.4,12.3,13.2L240,427.3
			c1.4,0.5,3.1,0.6,4.8,0.6c4.8,0,9.7-1.8,12.7-4.6l84.6-78.6C346.3,340.6,348.6,333.1,347.4,327.4z M211.9,200.2l75.6,23.3
			c2.9,0.9,2.9,2.2-0.2,2.9l-39.9,9.1c-3.1,0.6-7.2-0.6-9.4-2.9l-27.8-30C208.3,200.4,208.9,199.3,211.9,200.2z M259.1,336.2
			c0.6,3.1-1.2,4.8-4.1,3.8l-81.7-25.2c-2.9-0.9-3.5-3.4-1.2-5.5l62.7-58.2c2.3-2.2,4.8-1.4,5.4,1.7L259.1,336.2z M124.4,261.8
			l66.4-61.6c2.3-2.2,5.8-2,8,0.3l33.3,35.8c2.2,2.3,2,5.8-0.3,8l-66.4,61.6c-2.3,2.2-5.8,2-8-0.3l-33.3-35.8
			C122.1,267.5,122.1,264,124.4,261.8z M140.5,360l-17.7-77.1c-0.6-3.1,0.5-3.7,2.6-1.4l27.8,30c2.2,2.3,3.1,6.6,2.2,9.5l-12,39.2
			C142.5,363.1,141.3,362.9,140.5,360z M237.7,404.8l-86.6-26.7c-2.9-0.9-4.6-4.1-3.7-7.1l14.4-46.8c0.9-2.9,4.1-4.6,7.1-3.7
			l86.6,26.7c2.9,0.9,4.6,4.1,3.7,7.1l-14.4,46.8C243.7,404.1,240.7,405.8,237.7,404.8z M314.5,341.9l-58.1,53.8
			c-2.3,2.2-3.4,1.4-2.5-1.5l12-39.2c0.9-2.9,4.1-6,7.2-6.6l39.9-9.1C316.2,338.6,316.8,339.7,314.5,341.9z M321,330.3l-47.8,10.9
			c-3.1,0.6-6-1.2-6.8-4.3l-20.3-88.3c-0.6-3.1,1.2-6,4.3-6.8l47.8-10.9c3.1-0.6,6,1.2,6.8,4.3l20.3,88.3
			C325.9,326.7,323.9,329.7,321,330.3z"/>
	</g>
	
		<linearGradient id="SVGID_1_" gradientUnits="userSpaceOnUse" x1="209.7896" y1="401.3934" x2="263.2421" y2="393.4046" gradientTransform="matrix(1 0 0 -1 0 608)">
		<stop  offset="0.1224" style="stop-color:#FF7D55"/>
		<stop  offset="0.8673" style="stop-color:#22ADF6"/>
	</linearGradient>
	<path class="st5" d="M276.5,126.2c-16.9-5.2-34.9-8-53.5-8l0,0V301L276.5,126.2z"/>
	<g>
		<g>
			<line class="st6" x1="223" y1="483.9" x2="223" y2="118.4"/>
			<g>
				<circle class="st3" cx="223" cy="483.9" r="5.8"/>
			</g>
			<g>
				<circle class="st3" cx="223" cy="118.4" r="5.8"/>
			</g>
		</g>
	</g>
	<g>
		<g>
			<line class="st7" x1="169.5" y1="476" x2="276.5" y2="126.4"/>
			<g>
				<circle class="st8" cx="169.5" cy="476" r="5.8"/>
			</g>
			<g>
				<circle class="st2" cx="276.5" cy="126.4" r="5.8"/>
			</g>
		</g>
	</g>
</g>
</svg>
