<?xml version="1.0" encoding="utf-8"?>
<!-- Generator: Adobe Illustrator 26.3.1, SVG Export Plug-In . SVG Version: 6.00 Build 0)  -->
<svg version="1.1" id="Layer_1" xmlns="http://www.w3.org/2000/svg" xmlns:xlink="http://www.w3.org/1999/xlink" x="0px" y="0px"
	 viewBox="0 0 428.3 559.8" style="enable-background:new 0 0 428.3 559.8;" xml:space="preserve">
<style type="text/css">
	.st0{clip-path:url(#SVGID_00000051364273395643954160000008276419803396002444_);}
	.st1{fill:url(#SVGID_00000160892989016171056900000010176203703412885394_);}
	.st2{fill:url(#SVGID_00000054224732376340343880000008661560362966219929_);}
	.st3{opacity:0.3;fill:#6B0A5C;enable-background:new    ;}
	.st4{opacity:0.5;fill:#6B0A5C;enable-background:new    ;}
	.st5{fill:#6B0A5C;}
	.st6{opacity:0.35;fill:#FFFFFF;enable-background:new    ;}
	.st7{fill:#D30971;}
	.st8{fill:url(#SVGID_00000067928484429583036440000014458734091999489207_);}
	.st9{opacity:0.3;fill:#FFFFFF;enable-background:new    ;}
	.st10{fill:#F0A9CD;}
	.st11{fill:#FFFFFF;}
	.st12{fill:#020A47;}
	.st13{fill:url(#SVGID_00000067213768803814474910000009159274224951564442_);}
	.st14{fill:url(#SVGID_00000174600704748582722080000015024169608024056464_);}
	.st15{fill-rule:evenodd;clip-rule:evenodd;fill:#D30971;}
	.st16{clip-path:url(#SVGID_00000042732204803765017750000009345760621389549484_);}
	.st17{fill-rule:evenodd;clip-rule:evenodd;fill:#020A47;}
	.st18{fill:#4E547E;}
	.st19{fill:url(#SVGID_00000148650362293743837420000010739481159535408817_);}
	.st20{fill:url(#SVGID_00000130608802219461171180000014661387880658783926_);}
	.st21{fill:#B1B3C6;}
	.st22{opacity:0.25;fill:#020A47;enable-background:new    ;}
	.st23{opacity:0.18;fill:#020A47;enable-background:new    ;}
	.st24{fill:url(#SVGID_00000091713411307587622680000001888312147980784546_);}
	.st25{opacity:0.22;fill:#FFFFFF;enable-background:new    ;}
	.st26{fill:url(#SVGID_00000140717411260655034810000018366102122751434644_);}
	.st27{fill:#EEEEF3;}
	.st28{opacity:0.5;fill:#020A47;enable-background:new    ;}
	.st29{fill:#373D6E;}
	.st30{clip-path:url(#SVGID_00000153698463973180641160000001929683363999236246_);}
	.st31{fill:url(#SVGID_00000068643448345141300100000016669060632242243461_);}
	.st32{opacity:0.58;fill:#FFFFFF;enable-background:new    ;}
	.st33{fill:#5EE4E4;}
	.st34{fill:url(#SVGID_00000163058876634533110130000000633658521542678435_);}
	.st35{opacity:0.8;fill:#5EE4E4;enable-background:new    ;}
	.st36{fill:#098A87;}
	.st37{fill:url(#SVGID_00000175320397903557697950000011766678421442307214_);}
	.st38{fill:url(#SVGID_00000084532053210165494530000014410865557082064553_);}
	.st39{fill:url(#SVGID_00000071557583168361774920000014709709673180090538_);}
	.st40{fill:url(#SVGID_00000147202156117770829600000011686433584472041905_);}
	.st41{fill:#2CA4A4;}
	.st42{fill-rule:evenodd;clip-rule:evenodd;fill:#5EE4E4;}
	.st43{clip-path:url(#SVGID_00000041283327994313652200000009931084324097606326_);}
	.st44{fill-rule:evenodd;clip-rule:evenodd;fill:#9B2AFF;}
	.st45{fill:url(#SVGID_00000031928396438802339690000006563422806470426754_);}
	.st46{opacity:0.7;fill:url(#SVGID_00000125574913051295720860000001134535875484444601_);enable-background:new    ;}
	.st47{opacity:0.7;fill:url(#SVGID_00000012455626715727360910000005761822045476263565_);enable-background:new    ;}
	.st48{fill:url(#SVGID_00000109016266339584282790000010979950467115833228_);}
	.st49{fill:url(#SVGID_00000116218715915887767880000002143942840257035394_);}
	.st50{fill:url(#SVGID_00000083088672767757182020000013431590296701572027_);}
	.st51{fill:url(#SVGID_00000165944934576847693180000012949623354857101979_);}
	.st52{fill:url(#SVGID_00000103254619131827657850000004021257943823876246_);}
	.st53{fill:url(#SVGID_00000119097631136451129580000001631586784183327662_);}
	.st54{fill:url(#SVGID_00000088810988026608092560000009221266485683660173_);}
	.st55{fill:url(#SVGID_00000067930191075382073990000000624493527045705659_);}
	.st56{fill:url(#SVGID_00000165933529568802940790000003132179845001716122_);}
	.st57{fill:url(#SVGID_00000091008013272108512110000003829455200200993967_);}
	.st58{fill:url(#SVGID_00000170990497712757364130000013247651884815099269_);}
	.st59{fill:url(#SVGID_00000027568975965559850990000006030452203202070425_);}
	.st60{fill:url(#SVGID_00000168839398463477418930000006371056098672571281_);}
	.st61{fill:url(#SVGID_00000076573078797280326370000001269024149676985232_);}
	.st62{fill:url(#SVGID_00000039856127739040145290000018242579509665340056_);}
	.st63{fill:#9B2AFF;}
	.st64{fill:url(#SVGID_00000171698097871058954110000008044705324205758140_);}
	.st65{fill:url(#SVGID_00000057864238076849788840000005820134956363641519_);}
	.st66{fill:url(#SVGID_00000057830894173491823480000013031504593603379639_);}
</style>
<g>
	<defs>
		<rect id="SVGID_00000028284290527023003680000002075389363434954907_" x="52.7" y="37" width="322.9" height="485.8"/>
	</defs>
	<clipPath id="SVGID_00000137830738957681549560000016164034199670575526_">
		<use xlink:href="#SVGID_00000028284290527023003680000002075389363434954907_"  style="overflow:visible;"/>
	</clipPath>
	<g style="clip-path:url(#SVGID_00000137830738957681549560000016164034199670575526_);">
		<path class="st44" d="M204.4,497.4c-0.4,0-0.8-0.1-1.2-0.2c-0.4-0.1-0.7-0.4-1-0.6c-0.3-0.3-0.5-0.6-0.6-0.9
			c-0.2-0.3-0.2-0.7-0.2-1.1c0-0.4,0.1-0.8,0.2-1.1c0.2-0.4,0.4-0.7,0.7-0.9c0.3-0.3,0.6-0.5,1-0.6c0.4-0.1,0.8-0.2,1.2-0.2
			c0.4,0,0.8,0.1,1.2,0.2c0.4,0.1,0.7,0.4,1,0.6c0.3,0.3,0.5,0.6,0.7,0.9c0.2,0.4,0.2,0.8,0.2,1.1c0,0.4-0.1,0.8-0.2,1.1
			c-0.2,0.3-0.4,0.7-0.7,0.9c-0.3,0.3-0.6,0.5-1,0.6C205.2,497.4,204.8,497.5,204.4,497.4L204.4,497.4z M201.6,515.4v-15.5h5.4v15.5
			H201.6z M210.7,515.4v-15.5h5.3v1.9c0.4-0.8,1-1.4,1.7-1.8c0.8-0.4,1.8-0.6,2.7-0.6c0.7,0,1.5,0.1,2.2,0.4
			c0.7,0.3,1.3,0.7,1.8,1.3c1,1.4,1.5,3.1,1.4,4.9v9.4h-5.5V507c0-1.8-0.7-2.7-2.1-2.7c-0.3,0-0.6,0-0.9,0.2
			c-0.3,0.1-0.5,0.3-0.7,0.6c-0.4,0.6-0.6,1.4-0.6,2.2v8.2H210.7z M230.9,515.4v-11.1h-2.5v-4.3h2.5v-1.5c-0.1-2,0.5-4,1.7-5.5
			c0.6-0.7,1.4-1.2,2.3-1.5c0.9-0.3,1.8-0.5,2.7-0.4c0.6-0.1,1.2-0.1,1.7,0c0.5,0.1,1,0.2,1.4,0.4l-0.3,4.5
			c-0.3-0.1-0.5-0.2-0.8-0.2h-0.8c-0.4,0-0.7,0-1,0.1c-0.3,0.1-0.6,0.3-0.9,0.6c-0.5,0.7-0.7,1.5-0.6,2.4v1.1h3.7v4.3h-3.7v11.1
			L230.9,515.4z M242.4,515.4V491h5.5v24.3H242.4z M256.6,515.9c-0.7,0-1.5-0.1-2.2-0.4c-0.7-0.3-1.3-0.7-1.8-1.3
			c-1-1.4-1.5-3.1-1.3-4.8v-9.6h5.5v8.3c0,0.7,0.1,1.4,0.5,2.1c0.2,0.2,0.4,0.4,0.7,0.5c0.3,0.1,0.6,0.2,0.9,0.1
			c0.3,0,0.6,0,0.9-0.2c0.3-0.1,0.5-0.3,0.7-0.6c0.4-0.7,0.6-1.4,0.6-2.2v-8.2h5.5v15.5h-5.3v-1.9c-0.4,0.8-1,1.4-1.8,1.8
			c-0.8,0.5-1.7,0.7-2.7,0.8H256.6z M269.1,515.4l5.7-8l-5.3-7.5h6.1l2.5,4.2l2.5-4.2h5.8l-5.3,7.6l5.7,7.9h-5.8l-2.8-4.7l-2.8,4.7
			H269.1z M296,515.9c-1.3,0-2.6-0.3-3.7-1c-1.1-0.7-2-1.7-2.6-2.8c-0.6-1.3-1-2.7-0.9-4.1c0-1.4,0.3-2.8,1-4
			c0.6-1.2,1.6-2.2,2.7-2.9c1.1-0.7,2.4-1.1,3.8-1.1c1.1,0,2.2,0.3,3.1,0.8c1,0.6,1.8,1.4,2.3,2.4v-12h2.6v24.3h-2.5v-2.7
			c-0.6,1-1.4,1.8-2.4,2.4c-1,0.5-2.1,0.8-3.2,0.8H296z M296.6,513.6c1,0,1.9-0.2,2.7-0.7c0.8-0.5,1.4-1.2,1.9-2
			c0.5-0.9,0.7-1.9,0.7-3s-0.2-2-0.7-3c-0.4-0.8-1-1.5-1.9-2c-0.8-0.5-1.8-0.8-2.7-0.7c-1,0-1.9,0.3-2.7,0.7c-0.8,0.5-1.4,1.2-1.9,2
			c-0.5,0.9-0.7,1.9-0.7,3s0.2,2,0.7,3c0.4,0.8,1.1,1.5,1.9,2c0.9,0.6,1.9,0.8,3,0.7H296.6z M317.6,515.9c-1.1,0-2.2-0.3-3.2-0.8
			c-0.9-0.6-1.7-1.4-2.2-2.4v2.7h-2.5V491h2.6v12c0.6-1,1.4-1.8,2.4-2.4c1-0.6,2.2-0.9,3.4-0.8c1.3,0,2.6,0.3,3.7,1
			c1.1,0.7,2,1.7,2.6,2.8c0.6,1.3,0.9,2.7,0.9,4.1c0,1.4-0.3,2.8-1,4.1c-0.6,1.2-1.6,2.1-2.7,2.9c-1.1,0.7-2.4,1.1-3.7,1.1H317.6z
			 M317.3,513.6c1,0,1.9-0.2,2.8-0.7c0.8-0.5,1.4-1.2,1.8-2c0.5-0.9,0.7-1.9,0.7-3c0-1-0.2-2-0.7-3c-0.4-0.8-1-1.5-1.8-2
			c-0.8-0.5-1.8-0.7-2.7-0.7c-1,0-1.9,0.3-2.7,0.7c-0.8,0.5-1.4,1.2-1.9,2c-0.5,0.9-0.7,1.9-0.7,3s0.2,2,0.7,3
			c0.4,0.8,1.1,1.5,1.9,2c0.9,0.6,1.9,0.8,3,0.7H317.3z"/>
		<path class="st44" d="M178.1,511.9l8.1-1.9l0.4-0.2c0.1-0.1,0.2-0.2,0.2-0.3c0-0.1,0-0.2,0-0.4c0-0.1,0-0.2,0-0.4l-3.4-15
			c-0.1-0.2-0.2-0.5-0.4-0.6c-0.1-0.1-0.2-0.1-0.4-0.1s-0.3,0-0.4,0.1l-8.1,1.9c-0.1,0-0.2,0.1-0.3,0.2c-0.1,0.1-0.2,0.2-0.3,0.3
			c-0.1,0.2-0.1,0.5,0,0.7l3.4,15c0.1,0.3,0.2,0.5,0.4,0.6C177.6,512,177.8,512,178.1,511.9L178.1,511.9z"/>
		<path class="st44" d="M175.3,521.2l9.9-9.2c0.4-0.4,0.3-0.6-0.2-0.4l-6.7,1.5c-0.3,0.1-0.5,0.2-0.7,0.4c-0.2,0.2-0.4,0.4-0.5,0.7
			l-2.1,6.7C174.7,521.4,174.9,521.6,175.3,521.2z"/>
		<path class="st44" d="M157.2,518.3l14.8,4.6c0.2,0.1,0.5,0.1,0.7,0c0.2-0.1,0.4-0.3,0.5-0.6l2.5-7.9c0-0.1,0-0.3,0-0.4
			c0-0.1,0-0.2,0-0.3c-0.1-0.1-0.2-0.2-0.3-0.3l-0.3-0.2l-14.8-4.5c-0.2-0.1-0.5-0.1-0.7,0c-0.1,0.1-0.2,0.1-0.3,0.2
			c-0.1,0.1-0.1,0.2-0.2,0.3l-2.5,7.9c-0.1,0.2-0.1,0.5,0,0.8C156.8,518,157,518.2,157.2,518.3L157.2,518.3z"/>
		<path class="st44" d="M152.4,502l3,13.1c0,0.5,0.3,0.5,0.4,0l2.1-6.7c0.1-0.3,0.1-0.6,0-0.9c-0.1-0.3-0.2-0.5-0.4-0.8l-4.7-5
			C152.5,501.4,152.3,501.4,152.4,502z"/>
		<path class="st44" d="M164,488l-11.3,10.5c-0.2,0.2-0.3,0.4-0.3,0.7c0,0.2,0.1,0.5,0.3,0.7l5.7,6.1c0.1,0.1,0.2,0.2,0.3,0.2
			c0.1,0.1,0.2,0.1,0.4,0.1c0.3,0,0.5-0.1,0.7-0.2l11.3-10.5c0.2-0.2,0.3-0.4,0.3-0.7c0-0.2-0.1-0.5-0.3-0.7l-5.7-6.2
			c-0.1-0.1-0.2-0.2-0.3-0.2c-0.1,0-0.2,0-0.4,0h-0.4C164.2,487.8,164.1,487.9,164,488z"/>
		<path class="st44" d="M175,511.5c0.5,0,0.8,0,0.7-0.7l-3.4-14.2c0-0.5-0.5-0.6-0.9-0.3l-10.7,9.9c-0.4,0.4-0.3,0.8,0.2,0.9
			L175,511.5z"/>
		<path class="st44" d="M180.6,491.9l-13-3.9c-0.5,0-0.6,0-0.2,0.5l4.7,5.1c0.2,0.2,0.5,0.3,0.7,0.4c0.3,0.1,0.6,0.1,0.8,0l6.7-1.5
			C181.1,492.3,181.1,492,180.6,491.9z"/>
		<path class="st44" d="M331.8,495.5v-3.4h-1.2v-0.6h3.1v0.6h-1.2v3.4H331.8z M334.4,495.5l0.2-3.8h0.7l1.2,2.4l1.2-2.4h0.7v3.8H338
			v-2.8l-1,2.2h-0.5l-1.1-2.2v2.9H334.4z"/>
		
			<linearGradient id="SVGID_00000108289637576570894910000006097749261161470337_" gradientUnits="userSpaceOnUse" x1="134.1124" y1="472.4872" x2="357.8679" y2="478.5764" gradientTransform="matrix(1 0 0 -1 0 802)">
			<stop  offset="0" style="stop-color:#E4C5FF"/>
			<stop  offset="1" style="stop-color:#D9AEFF"/>
		</linearGradient>
		<path style="fill:url(#SVGID_00000108289637576570894910000006097749261161470337_);" d="M175.1,190.5l13.5,72
			c1.4,6.8,5,12.9,10.4,17.3c5.3,4.4,12.1,6.8,19,6.8h76.7c5.7,0,11.4,1.2,16.7,3.4c5.3,2.2,10.1,5.5,14.1,9.5
			c4,4.1,7.2,8.9,9.4,14.2c2.2,5.3,3.2,11,3.2,16.8l-0.7,116.7c0,4.8-1.8,9.5-5.1,13.1c-3.3,3.5-7.8,5.7-12.7,6
			c-2.5,0.1-4.9-0.3-7.2-1.1c-2.3-0.9-4.4-2.1-6.3-3.8c-1.8-1.7-3.3-3.7-4.3-5.9c-1-2.2-1.6-4.7-1.7-7.1l-0.9-0.4
			c0,5-1.9,9.8-5.4,13.3c-3.5,3.5-8.2,5.6-13.2,5.6c-5,0.1-9.8-1.9-13.3-5.4c-3.5-3.5-5.6-8.2-5.6-13.2c0,0-1.2-76.6-1.3-79.6h-33.1
			l-0.9,79.2c-0.1,4.2-1.6,8.3-4.3,11.6c-2.7,3.3-6.4,5.5-10.6,6.4c-4.2,0.9-8.5,0.3-12.3-1.6c-3.8-1.9-6.8-5-8.6-8.9
			c-2.1,3.6-5.2,6.4-9,8.2c-3.8,1.7-8,2.2-12,1.4c-4.1-0.8-7.8-2.9-10.6-5.9c-2.8-3-4.6-6.9-5.2-11l-29.6-260L175.1,190.5z"/>
		<path class="st6" d="M196.7,368.5l1.3,79.7c0.2,4.1,1.6,7.9,4.2,11.1c2.6,3.1,6.1,5.4,10,6.4c-1.5,0.4-3,0.5-4.6,0.5
			c-4.8,0-9.5-1.9-13-5.2c-3.5-3.4-5.6-7.9-5.7-12.8l-1.3-79.7H196.7z"/>
		
			<linearGradient id="SVGID_00000006665692222867093790000009397891445042680458_" gradientUnits="userSpaceOnUse" x1="-50.9552" y1="437.1978" x2="369.9446" y2="420.1082" gradientTransform="matrix(1 0 0 -1 0 802)">
			<stop  offset="0" style="stop-color:#D9AEFF"/>
			<stop  offset="1" style="stop-color:#BF77FF"/>
		</linearGradient>
		<path style="opacity:0.7;fill:url(#SVGID_00000006665692222867093790000009397891445042680458_);enable-background:new    ;" d="
			M260.6,380l38.6,9.5v-1.2c0-2.8-0.6-5.6-1.8-8.2c-1.1-2.6-2.8-4.9-4.8-6.8c-2-1.9-4.5-3.4-7.1-4.4c-2.6-1-5.5-1.4-8.3-1.3l-16,0.8
			L260.6,380z"/>
		
			<linearGradient id="SVGID_00000106850377555963658060000016424196291190925227_" gradientUnits="userSpaceOnUse" x1="33.857" y1="392.4123" x2="222.6243" y2="384.7418" gradientTransform="matrix(1 0 0 -1 0 802)">
			<stop  offset="0" style="stop-color:#D9AEFF"/>
			<stop  offset="1" style="stop-color:#BF77FF"/>
		</linearGradient>
		<path style="opacity:0.7;fill:url(#SVGID_00000106850377555963658060000016424196291190925227_);enable-background:new    ;" d="
			M175.5,369.4l1.3,78.8c0.1,2.6,0.8,5.2,1.9,7.5c1.2,2.3,2.8,4.4,4.8,6.1l6-4.9l-1.4-67.3l-0.6-19.4l-3.9-0.7L175.5,369.4z"/>
		
			<linearGradient id="SVGID_00000051356120955642791070000017171969023335679416_" gradientUnits="userSpaceOnUse" x1="290.8873" y1="489.2377" x2="138.6219" y2="494.6541" gradientTransform="matrix(1 0 0 -1 0 802)">
			<stop  offset="0" style="stop-color:#9B2AFF"/>
			<stop  offset="1" style="stop-color:#BF77FF"/>
		</linearGradient>
		<path style="fill:url(#SVGID_00000051356120955642791070000017171969023335679416_);" d="M238,323.9c-0.6,0-1.1-0.2-1.6-0.5
			c-0.5-0.3-0.9-0.7-1.2-1.1l-5.5-9.6c-0.3-0.5-0.4-1.1-0.4-1.7c0-0.6,0.1-1.2,0.4-1.7l5.5-9.5c0.3-0.5,0.7-0.9,1.2-1.1
			c0.5-0.3,1-0.4,1.6-0.5h11c0.6,0,1.1,0.2,1.6,0.5c0.5,0.3,0.9,0.7,1.2,1.1l5.5,9.5c0.3,0.5,0.5,1.1,0.5,1.7c0,0.6-0.2,1.2-0.5,1.7
			l-5.5,9.6c-0.3,0.5-0.7,0.9-1.2,1.1c-0.5,0.3-1,0.4-1.6,0.5H238z"/>
		
			<linearGradient id="SVGID_00000025416667024522336660000000002031918475624068_" gradientUnits="userSpaceOnUse" x1="293.8113" y1="571.1454" x2="141.5123" y2="576.5618" gradientTransform="matrix(1 0 0 -1 0 802)">
			<stop  offset="0" style="stop-color:#9B2AFF"/>
			<stop  offset="1" style="stop-color:#BF77FF"/>
		</linearGradient>
		<path style="fill:url(#SVGID_00000025416667024522336660000000002031918475624068_);" d="M154.6,239c-0.6,0-1.1-0.2-1.6-0.5
			c-0.5-0.3-0.9-0.7-1.2-1.1l-5.6-9.7c-0.3-0.5-0.5-1.1-0.5-1.7c0-0.6,0.2-1.2,0.5-1.7l5.5-9.5c0.3-0.5,0.7-0.9,1.2-1.2
			c0.5-0.3,1-0.5,1.6-0.5h11c0.6,0,1.1,0.2,1.6,0.5c0.5,0.3,0.9,0.7,1.2,1.2l5.5,9.5c0.3,0.5,0.4,1.1,0.4,1.7s-0.1,1.2-0.4,1.7
			l-5.5,9.6c-0.3,0.5-0.7,0.9-1.2,1.1c-0.5,0.3-1,0.4-1.6,0.5L154.6,239z"/>
		
			<linearGradient id="SVGID_00000017489140720342349190000006062376670086400910_" gradientUnits="userSpaceOnUse" x1="292.9043" y1="545.717" x2="140.6053" y2="551.1334" gradientTransform="matrix(1 0 0 -1 0 802)">
			<stop  offset="0" style="stop-color:#9B2AFF"/>
			<stop  offset="1" style="stop-color:#BF77FF"/>
		</linearGradient>
		<path style="fill:url(#SVGID_00000017489140720342349190000006062376670086400910_);" d="M150.7,252.9l-7.3,12.8
			c-0.4,0.6-1,1.1-1.6,1.5c-0.7,0.4-1.4,0.6-2.1,0.6h-5.2l-4.5-34.1h9.7c0.8,0,1.5,0.3,2.1,0.6s1.2,0.9,1.6,1.5l7.3,12.7
			c0.3,0.7,0.5,1.4,0.5,2.2C151.3,251.5,151.1,252.2,150.7,252.9L150.7,252.9z"/>
		
			<linearGradient id="SVGID_00000005966909905819949110000000251687332423546244_" gradientUnits="userSpaceOnUse" x1="292.2654" y1="527.5895" x2="139.9663" y2="533.0059" gradientTransform="matrix(1 0 0 -1 0 802)">
			<stop  offset="0" style="stop-color:#9B2AFF"/>
			<stop  offset="1" style="stop-color:#BF77FF"/>
		</linearGradient>
		<path style="fill:url(#SVGID_00000005966909905819949110000000251687332423546244_);" d="M203.4,282.8l-0.6,1.1
			c-0.4,0.6-0.9,1-1.5,1.4c-0.6,0.3-1.2,0.5-1.9,0.6h-13.2c-0.7,0-1.3-0.2-1.9-0.6c-0.6-0.3-1.1-0.8-1.5-1.4l-6.4-11.2
			c-0.3-0.6-0.5-1.3-0.5-1.9s0.2-1.3,0.5-1.9l6.7-11.4c0.4-0.6,0.9-1,1.5-1.4c0.6-0.3,1.2-0.5,1.9-0.6h0.7l1.4,7
			c0.8,4.2,2.6,8.3,5.1,11.8C196.3,277.8,199.6,280.7,203.4,282.8L203.4,282.8z"/>
		
			<linearGradient id="SVGID_00000050622032851762023670000003067288112206798728_" gradientUnits="userSpaceOnUse" x1="291.6591" y1="510.9171" x2="139.3936" y2="516.2999" gradientTransform="matrix(1 0 0 -1 0 802)">
			<stop  offset="0" style="stop-color:#9B2AFF"/>
			<stop  offset="1" style="stop-color:#BF77FF"/>
		</linearGradient>
		<path style="fill:url(#SVGID_00000050622032851762023670000003067288112206798728_);" d="M305.8,288l-3.4,6
			c-0.3,0.5-0.7,0.9-1.2,1.2c-0.5,0.3-1,0.5-1.6,0.5h-11c-0.6,0-1.1-0.2-1.6-0.5c-0.5-0.3-0.9-0.7-1.2-1.2l-4.3-7.5h13
			C298.3,286.5,302.1,287,305.8,288L305.8,288z"/>
		
			<linearGradient id="SVGID_00000160167649788335497000000009298297453736834494_" gradientUnits="userSpaceOnUse" x1="291.4255" y1="504.0061" x2="139.1265" y2="509.3889" gradientTransform="matrix(1 0 0 -1 0 802)">
			<stop  offset="0" style="stop-color:#9B2AFF"/>
			<stop  offset="1" style="stop-color:#BF77FF"/>
		</linearGradient>
		<path style="fill:url(#SVGID_00000160167649788335497000000009298297453736834494_);" d="M234.3,293.9l-5.5,9.6
			c-0.3,0.5-0.7,0.9-1.2,1.1c-0.5,0.3-1,0.4-1.6,0.5h-11c-0.6,0-1.1-0.2-1.6-0.5c-0.5-0.3-0.9-0.7-1.2-1.1l-5.4-9.6
			c-0.3-0.5-0.5-1.1-0.5-1.7c0-0.6,0.2-1.2,0.5-1.7l3-5.2c2.6,0.7,5.3,1.1,8,1.1H232l2.4,4.1c0.3,0.5,0.4,1.1,0.4,1.7
			C234.8,292.8,234.6,293.4,234.3,293.9z"/>
		
			<linearGradient id="SVGID_00000047023167661789948210000001519536713869731518_" gradientUnits="userSpaceOnUse" x1="291.4237" y1="504.224" x2="139.125" y2="509.6068" gradientTransform="matrix(1 0 0 -1 0 802)">
			<stop  offset="0" style="stop-color:#9B2AFF"/>
			<stop  offset="1" style="stop-color:#BF77FF"/>
		</linearGradient>
		<path style="fill:url(#SVGID_00000047023167661789948210000001519536713869731518_);" d="M265.2,305.7c-0.4,0-0.8-0.1-1.1-0.3
			c-0.3-0.2-0.6-0.5-0.8-0.8l-3.7-6.5c-0.2-0.3-0.3-0.7-0.3-1.1s0.1-0.8,0.3-1.1l3.7-6.5c0.2-0.3,0.5-0.6,0.8-0.8
			c0.3-0.2,0.7-0.3,1.1-0.3h7.5c0.4,0,0.8,0.1,1.1,0.3c0.3,0.2,0.6,0.5,0.8,0.8l3.7,6.5c0.2,0.3,0.3,0.7,0.3,1.1s-0.1,0.8-0.3,1.1
			l-3.7,6.5c-0.2,0.3-0.5,0.6-0.8,0.8c-0.3,0.2-0.7,0.3-1.1,0.3H265.2z"/>
		
			<linearGradient id="SVGID_00000060022442321405395460000016973533834120313741_" gradientUnits="userSpaceOnUse" x1="291.6262" y1="510.0982" x2="139.3609" y2="515.481" gradientTransform="matrix(1 0 0 -1 0 802)">
			<stop  offset="0" style="stop-color:#9B2AFF"/>
			<stop  offset="1" style="stop-color:#BF77FF"/>
		</linearGradient>
		<path style="fill:url(#SVGID_00000060022442321405395460000016973533834120313741_);" d="M147.5,295.7c-0.4,0-0.8-0.1-1.1-0.3
			c-0.3-0.2-0.6-0.5-0.8-0.8l-3.7-6.5c-0.2-0.3-0.3-0.7-0.3-1.1c0-0.4,0.1-0.8,0.3-1.1l3.7-6.5c0.2-0.3,0.5-0.6,0.8-0.8
			c0.3-0.2,0.7-0.3,1.1-0.3h7.5c0.4,0,0.8,0.1,1.1,0.3c0.3,0.2,0.6,0.5,0.8,0.8l3.7,6.5c0.2,0.3,0.3,0.7,0.3,1.1
			c0,0.4-0.1,0.8-0.3,1.1l-3.7,6.5c-0.2,0.3-0.5,0.6-0.8,0.8c-0.3,0.2-0.7,0.3-1.1,0.3H147.5z"/>
		
			<linearGradient id="SVGID_00000131366133540485396540000012701897848418158728_" gradientUnits="userSpaceOnUse" x1="292.5335" y1="535.1312" x2="140.2345" y2="540.5477" gradientTransform="matrix(1 0 0 -1 0 802)">
			<stop  offset="0" style="stop-color:#9B2AFF"/>
			<stop  offset="1" style="stop-color:#BF77FF"/>
		</linearGradient>
		<path style="fill:url(#SVGID_00000131366133540485396540000012701897848418158728_);" d="M158.7,271c-0.4,0-0.8-0.1-1.1-0.3
			c-0.3-0.2-0.6-0.5-0.8-0.8l-3.7-6.5c-0.2-0.3-0.3-0.7-0.3-1.1s0.1-0.8,0.3-1.1l3.7-6.5c0.2-0.3,0.5-0.6,0.8-0.8
			c0.3-0.2,0.7-0.3,1.1-0.3h7.6c0.4,0,0.8,0.1,1.1,0.3c0.3,0.2,0.6,0.5,0.8,0.8l3.7,6.5c0.2,0.3,0.3,0.7,0.3,1.1s-0.1,0.8-0.3,1.1
			l-3.7,6.5c-0.2,0.3-0.5,0.6-0.8,0.8c-0.3,0.2-0.7,0.3-1.1,0.3H158.7z"/>
		
			<linearGradient id="SVGID_00000008149456086015400260000008571651671485540772_" gradientUnits="userSpaceOnUse" x1="291.3226" y1="500.8558" x2="139.0236" y2="506.2722" gradientTransform="matrix(1 0 0 -1 0 802)">
			<stop  offset="0" style="stop-color:#9B2AFF"/>
			<stop  offset="1" style="stop-color:#BF77FF"/>
		</linearGradient>
		<path style="fill:url(#SVGID_00000008149456086015400260000008571651671485540772_);" d="M170.5,305.7c-0.4,0-0.8-0.1-1.1-0.3
			c-0.3-0.2-0.6-0.5-0.8-0.8l-3.7-6.5c-0.2-0.3-0.3-0.7-0.3-1.1c0-0.4,0.1-0.8,0.3-1.1l3.7-6.5c0.2-0.3,0.5-0.6,0.8-0.8
			c0.3-0.2,0.7-0.3,1.1-0.3h7.5c0.4,0,0.8,0.1,1.1,0.3c0.3,0.2,0.6,0.5,0.8,0.8l3.7,6.5c0.2,0.3,0.3,0.7,0.3,1.1s-0.1,0.8-0.3,1.1
			l-3.9,6.5c-0.2,0.3-0.5,0.6-0.8,0.8c-0.3,0.2-0.7,0.3-1.1,0.3H170.5z"/>
		
			<linearGradient id="SVGID_00000057842086575812953120000007263554898878476474_" gradientUnits="userSpaceOnUse" x1="291.0545" y1="493.1818" x2="138.7555" y2="498.5982" gradientTransform="matrix(1 0 0 -1 0 802)">
			<stop  offset="0" style="stop-color:#9B2AFF"/>
			<stop  offset="1" style="stop-color:#BF77FF"/>
		</linearGradient>
		<path style="fill:url(#SVGID_00000057842086575812953120000007263554898878476474_);" d="M290.3,317.6c-0.4,0-0.8-0.1-1.1-0.3
			c-0.3-0.2-0.6-0.5-0.8-0.8l-3.8-6.5c-0.2-0.3-0.3-0.7-0.3-1.1c0-0.4,0.1-0.8,0.3-1.1l3.8-6.5c0.2-0.3,0.5-0.6,0.8-0.8
			c0.3-0.2,0.7-0.3,1.1-0.3h7.5c0.4,0,0.8,0.1,1.1,0.3c0.3,0.2,0.6,0.5,0.8,0.8l3.8,6.5c0.2,0.3,0.3,0.7,0.3,1.1
			c0,0.4-0.1,0.8-0.3,1.1l-3.8,6.4c-0.2,0.3-0.5,0.6-0.8,0.8c-0.3,0.2-0.7,0.3-1.1,0.3L290.3,317.6z"/>
		
			<linearGradient id="SVGID_00000093888625376522373200000011473069128866684033_" gradientUnits="userSpaceOnUse" x1="291.2901" y1="500.3852" x2="138.9911" y2="505.7679" gradientTransform="matrix(1 0 0 -1 0 802)">
			<stop  offset="0" style="stop-color:#9B2AFF"/>
			<stop  offset="1" style="stop-color:#BF77FF"/>
		</linearGradient>
		<path style="fill:url(#SVGID_00000093888625376522373200000011473069128866684033_);" d="M311,306.9c-0.2,0-0.4-0.1-0.6-0.2
			c-0.2-0.1-0.3-0.2-0.4-0.4l-1.9-3.4c-0.1-0.2-0.2-0.4-0.2-0.6s0.1-0.4,0.2-0.6l1.9-3.4c0.1-0.2,0.2-0.3,0.4-0.4
			c0.2-0.1,0.4-0.2,0.6-0.2h3.8c0.2,0,0.4,0.1,0.6,0.2c0.2,0.1,0.3,0.2,0.4,0.4l1.9,3.4c0.1,0.2,0.1,0.4,0.1,0.6s0,0.4-0.1,0.6
			l-1.9,3.4c-0.1,0.2-0.3,0.3-0.4,0.4c-0.2,0.1-0.4,0.2-0.6,0.2H311z"/>
		
			<linearGradient id="SVGID_00000054268226563908139800000011859258005851602306_" gradientUnits="userSpaceOnUse" x1="290.4107" y1="475.5904" x2="138.1116" y2="480.9732" gradientTransform="matrix(1 0 0 -1 0 802)">
			<stop  offset="0" style="stop-color:#9B2AFF"/>
			<stop  offset="1" style="stop-color:#BF77FF"/>
		</linearGradient>
		<path style="fill:url(#SVGID_00000054268226563908139800000011859258005851602306_);" d="M258.8,329.9c-0.2,0-0.4-0.1-0.6-0.2
			c-0.2-0.1-0.3-0.2-0.4-0.4l-1.9-3.4c-0.1-0.2-0.1-0.4-0.1-0.6c0-0.2,0-0.4,0.1-0.6l1.9-3.4c0.1-0.2,0.3-0.3,0.4-0.4
			c0.2-0.1,0.4-0.2,0.6-0.2h3.8c0.2,0,0.4,0.1,0.6,0.2c0.2,0.1,0.3,0.2,0.4,0.4l1.9,3.4c0.1,0.2,0.2,0.4,0.2,0.6s-0.1,0.4-0.2,0.6
			l-1.9,3.4c-0.1,0.2-0.2,0.3-0.4,0.4c-0.2,0.1-0.4,0.2-0.6,0.2H258.8z"/>
		
			<linearGradient id="SVGID_00000152947004316025619340000002436715630838043532_" gradientUnits="userSpaceOnUse" x1="290.9541" y1="490.4366" x2="138.655" y2="495.8194" gradientTransform="matrix(1 0 0 -1 0 802)">
			<stop  offset="0" style="stop-color:#9B2AFF"/>
			<stop  offset="1" style="stop-color:#BF77FF"/>
		</linearGradient>
		<path style="fill:url(#SVGID_00000152947004316025619340000002436715630838043532_);" d="M155.8,311.4c-0.2,0-0.4-0.1-0.6-0.2
			c-0.2-0.1-0.3-0.2-0.4-0.4l-1.9-3.4c-0.1-0.2-0.1-0.4-0.1-0.6c0-0.2,0-0.4,0.1-0.6l1.9-3.4c0.1-0.2,0.3-0.3,0.4-0.4
			c0.2-0.1,0.4-0.2,0.6-0.2h3.8c0.2,0,0.4,0.1,0.6,0.2c0.2,0.1,0.3,0.2,0.4,0.4l1.9,3.4c0.1,0.2,0.2,0.4,0.2,0.6
			c0,0.2-0.1,0.4-0.2,0.6l-1.9,3.4c-0.1,0.2-0.2,0.3-0.4,0.4c-0.2,0.1-0.4,0.2-0.6,0.2H155.8z"/>
		<path class="st6" d="M178.4,465c-1.1,0.2-2.2,0.3-3.4,0.3c-4.8,0-9.4-1.8-13.1-4.9c-3.6-3.2-6-7.5-6.6-12.3L126,189.2h6.7
			l29.5,258.8c0.5,4.2,2.4,8.1,5.3,11.1C170.5,462.2,174.3,464.2,178.4,465L178.4,465z"/>
		
			<linearGradient id="SVGID_00000170236098685418122500000003304674516197087393_" gradientUnits="userSpaceOnUse" x1="-332.8105" y1="618.1758" x2="278.4715" y2="593.3141" gradientTransform="matrix(1 0 0 -1 0 802)">
			<stop  offset="0" style="stop-color:#D9AEFF"/>
			<stop  offset="1" style="stop-color:#BF77FF"/>
		</linearGradient>
		<path style="fill:url(#SVGID_00000170236098685418122500000003304674516197087393_);" d="M120.3,193.7l55.9,19.3l-3-15.1
			L120.3,193.7z"/>
		<path class="st63" d="M173.3,467.8c-5.4,0-10.6-2-14.7-5.6c-4.1-3.6-6.7-8.5-7.4-13.8L120.6,181c0-0.3,0-0.7,0.1-1
			c0.1-0.3,0.2-0.6,0.4-0.9c0.2-0.3,0.5-0.5,0.8-0.7c0.3-0.2,0.6-0.3,0.9-0.3c0.3,0,0.7,0,1,0.1c0.3,0.1,0.6,0.3,0.9,0.5
			c0.3,0.2,0.5,0.5,0.6,0.8c0.2,0.3,0.3,0.6,0.3,1l30.7,267.3c0.5,3.5,2,6.8,4.4,9.4c2.4,2.6,5.5,4.4,9,5.2
			c3.5,0.8,7.1,0.4,10.3-0.9c3.3-1.4,6-3.7,8-6.7c0.4-0.5,0.9-0.9,1.5-1.1c0.6-0.1,1.3,0,1.8,0.3c0.5,0.4,0.9,0.9,1.1,1.5
			c0.1,0.6,0,1.3-0.3,1.8c-2,3.2-4.8,5.8-8.1,7.7S177.1,467.8,173.3,467.8L173.3,467.8z"/>
		<path class="st63" d="M207.5,468.7c-5.5,0-10.8-2.1-14.8-5.9c-4-3.8-6.3-9-6.5-14.5l-1.3-79.8c0-0.3,0.1-0.7,0.2-1
			c0.1-0.3,0.3-0.6,0.5-0.8c0.2-0.2,0.5-0.4,0.8-0.6c0.3-0.1,0.6-0.2,1-0.2l0,0c0.7,0,1.3,0.3,1.8,0.7c0.5,0.5,0.7,1.1,0.8,1.8
			l1.3,79.7c0.2,4.2,2.1,8.1,5.1,11c3.1,2.9,7.1,4.4,11.3,4.4c4.2,0,8.2-1.7,11.2-4.6c3-2.9,4.7-6.9,4.9-11.1l0.9-79.2
			c0-0.7,0.3-1.3,0.8-1.8c0.5-0.5,1.1-0.7,1.8-0.7l0,0c0.3,0,0.7,0.1,1,0.2c0.3,0.1,0.6,0.3,0.8,0.6c0.2,0.2,0.4,0.5,0.5,0.8
			c0.1,0.3,0.2,0.6,0.2,1l-0.9,79.2c-0.1,5.6-2.4,10.8-6.4,14.7C218.4,466.5,213,468.7,207.5,468.7L207.5,468.7z"/>
		<path class="st63" d="M281.3,468.7c-5.5,0-10.8-2.1-14.8-5.9c-4-3.8-6.3-9-6.5-14.5l-1.3-79.8h5l1.3,79.7c0.2,4.1,2,7.9,5,10.8
			c3,2.8,6.9,4.4,11,4.5c4.1,0.1,8.1-1.4,11.1-4.1c3.1-2.7,5-6.5,5.3-10.6l5,0.4c-0.5,5.3-2.9,10.3-6.8,13.9
			C291.7,466.7,286.6,468.7,281.3,468.7L281.3,468.7z"/>
		<path class="st63" d="M318.6,468.7c-5.5,0-10.8-2.1-14.7-5.9c-4-3.8-6.3-9-6.5-14.5l-0.8-63.4c-0.1-3.7-1.6-7.2-4.3-9.7
			c-2.6-2.6-6.2-4-9.9-4h-55.3c-0.7,0-1.3-0.3-1.8-0.7c-0.5-0.5-0.7-1.1-0.7-1.8c0-0.7,0.3-1.3,0.7-1.8c0.5-0.5,1.1-0.7,1.8-0.7
			h55.3c5,0,9.8,1.9,13.4,5.4c3.6,3.5,5.7,8.2,5.8,13.2l0.8,63.4c0.2,4.3,2.1,8.3,5.2,11.2c3.2,2.9,7.3,4.4,11.6,4.3
			c4.2-0.3,8.1-2.2,10.9-5.3c2.8-3.1,4.4-7.1,4.4-11.3l0.7-116.7c0-5.4-1-10.8-3-15.8c-2-5-5.1-9.6-8.9-13.4
			c-3.8-3.8-8.4-6.9-13.4-9c-5-2.1-10.4-3.2-15.8-3.2h-82.6c-5.8,0-11.4-2-15.9-5.7c-4.5-3.7-7.6-8.8-8.7-14.5l-17.9-90
			c-0.1-0.6,0.1-1.3,0.4-1.8c0.4-0.5,0.9-0.9,1.6-1c0.6-0.1,1.3,0,1.8,0.3c0.5,0.3,0.9,0.9,1.1,1.5l17.9,90c0.9,4.6,3.4,8.7,7,11.6
			c3.6,2.9,8.1,4.6,12.7,4.6h82.7c6.1,0,12.1,1.2,17.7,3.5c5.6,2.3,10.7,5.8,15,10.1c4.3,4.3,7.7,9.4,10,15.1
			c2.3,5.6,3.4,11.7,3.4,17.8l-0.7,116.7c0,5.5-2,10.8-5.8,14.8c-3.8,4-8.9,6.4-14.4,6.8L318.6,468.7z"/>
		<path class="st63" d="M179.2,372c-3.7,0-7.3-0.3-10.9-0.8c-0.3,0-0.7-0.1-1-0.3c-0.3-0.2-0.6-0.4-0.8-0.7
			c-0.2-0.3-0.4-0.6-0.5-0.9c-0.1-0.3-0.1-0.7-0.1-1c0.1-0.3,0.2-0.7,0.4-1c0.2-0.3,0.4-0.5,0.7-0.7c0.3-0.2,0.6-0.3,0.9-0.4
			c0.3-0.1,0.7-0.1,1,0c5.9,1,11.8,1,17.7,0c0.3-0.1,0.6-0.1,1-0.1c0.3,0,0.7,0.1,0.9,0.3s0.6,0.4,0.8,0.6c0.2,0.3,0.4,0.6,0.5,0.9
			c0.2,0.6,0.1,1.3-0.2,1.9c-0.3,0.6-0.8,1-1.5,1.2C185.2,371.7,182.2,372,179.2,372L179.2,372z"/>
		<path class="st63" d="M355.5,388c2.2-84.7-30.8-93.2-32.2-93.5c-0.7-0.1-1.3,0-1.9,0.3c-0.6,0.4-1,0.9-1.1,1.6
			c-0.2,0.6,0,1.3,0.3,1.9c0.3,0.6,0.9,1,1.5,1.1c0.3,0,30.3,8.3,28.4,87.2l-0.3,1.2c0,0-13.8,40.1,25.4,43.9
			C359.1,417.8,379.1,402.4,355.5,388z"/>
		
			<linearGradient id="SVGID_00000103227294508877100040000002691201357423329982_" gradientUnits="userSpaceOnUse" x1="238.3591" y1="702.7794" x2="194.4602" y2="697.5793" gradientTransform="matrix(1 0 0 -1 0 802)">
			<stop  offset="0" style="stop-color:#F2E6FF"/>
			<stop  offset="1" style="stop-color:#D9AEFF"/>
		</linearGradient>
		<path style="fill:url(#SVGID_00000103227294508877100040000002691201357423329982_);" d="M195.2,105.3l33.1,9.7
			c4.8,1.4,10,1,14.5-1.2c8.4-4.2,19.5-12.3,9.7-22.8c-14.8-15.8-49.6-1.8-58.1,7.5C185.9,107.8,195.2,105.3,195.2,105.3z"/>
		
			<linearGradient id="SVGID_00000049190574001117305930000016670071835534153645_" gradientUnits="userSpaceOnUse" x1="95.9782" y1="727.5204" x2="56.976" y2="722.8989" gradientTransform="matrix(1 0 0 -1 0 802)">
			<stop  offset="0" style="stop-color:#D9AEFF"/>
			<stop  offset="1" style="stop-color:#F2E6FF"/>
		</linearGradient>
		<path style="fill:url(#SVGID_00000049190574001117305930000016670071835534153645_);" d="M109.4,91.6l-34.5-1.1
			c-5-0.1-9.9-2.2-13.5-5.7C54.7,78,46.7,67,59.3,60.1c19-10.4,47.7,13.8,52.9,25.2C117.4,96.8,109.4,91.6,109.4,91.6z"/>
		
			<linearGradient id="SVGID_00000002357285381221917790000010697755826434155438_" gradientUnits="userSpaceOnUse" x1="98.9766" y1="671.7913" x2="214.8995" y2="658.4703" gradientTransform="matrix(1 0 0 -1 0 802)">
			<stop  offset="0.21" style="stop-color:#E4C5FF"/>
			<stop  offset="1" style="stop-color:#BF77FF"/>
		</linearGradient>
		<path style="fill:url(#SVGID_00000002357285381221917790000010697755826434155438_);" d="M211,139.9l-20.6-50
			c-0.6-1.4-1.5-2.6-2.7-3.5c-1.2-0.9-2.6-1.5-4.1-1.7l-53.6-7.2c-1.5-0.2-3,0-4.4,0.6c-1.4,0.6-2.6,1.5-3.5,2.8l-32.9,42.9
			c-0.9,1.2-1.5,2.6-1.7,4.1c-0.2,1.5,0,3,0.6,4.4l20.6,50c0.6,1.4,1.5,2.6,2.7,3.5c1.2,0.9,2.6,1.5,4.1,1.7l53.6,7.1
			c1.5,0.2,3,0,4.4-0.6c1.4-0.6,2.6-1.5,3.5-2.8l32.9-42.8c0.9-1.2,1.5-2.6,1.7-4C211.8,142.8,211.6,141.3,211,139.9L211,139.9z"/>
		<path class="st9" d="M100.7,125.3c-0.9,1.2-1.5,2.6-1.7,4.1c-0.2,1.5,0,3,0.6,4.4l20.6,50c0.5,1.2,1.2,2.3,2.2,3.1
			c1,0.9,2.1,1.5,3.3,1.8l-9.6-1.2c-1.5-0.2-2.9-0.8-4.1-1.7c-1.2-0.9-2.1-2.1-2.7-3.5l-20.6-50c-0.6-1.4-0.8-2.9-0.6-4.4
			s0.8-2.9,1.7-4.1l32.7-42.9c0.9-1.2,2.1-2.1,3.5-2.7c1.4-0.6,2.9-0.8,4.4-0.6l53.5,7.1c0.4,0,0.8,0.1,1.2,0.3l-43.9-5.7
			c-1.5-0.2-3,0-4.4,0.6c-1.4,0.6-2.6,1.5-3.5,2.7L100.7,125.3z"/>
		<path class="st11" d="M190.4,133.4c5.6-6.3,6.6-14.6,2.2-18.5c-4.4-3.9-12.5-2-18.1,4.4c-5.6,6.3-6.6,14.6-2.2,18.5
			C176.7,141.6,184.8,139.7,190.4,133.4z"/>
		<path class="st12" d="M179,140.6c5.4,0,9.8-4.4,9.8-9.8c0-5.4-4.4-9.8-9.8-9.8c-5.4,0-9.8,4.4-9.8,9.8
			C169.2,136.2,173.6,140.6,179,140.6z"/>
		<path class="st11" d="M177,128.4c2.6,0,4.7-2.1,4.7-4.7c0-2.6-2.1-4.7-4.7-4.7c-2.6,0-4.7,2.1-4.7,4.7
			C172.3,126.3,174.4,128.4,177,128.4z"/>
		<path class="st11" d="M128.3,130.7c5.4-2.3,7-10.5,3.6-18.3c-3.4-7.8-10.5-12.1-15.9-9.8c-5.4,2.3-7,10.5-3.6,18.3
			C115.9,128.6,123,133,128.3,130.7z"/>
		<path class="st12" d="M124.2,131.8c5.4,0,9.8-4.4,9.8-9.8c0-5.4-4.4-9.8-9.8-9.8c-5.4,0-9.8,4.4-9.8,9.8
			C114.4,127.4,118.7,131.8,124.2,131.8z"/>
		<path class="st11" d="M121.4,119.3c2.6,0,4.7-2.1,4.7-4.7s-2.1-4.7-4.7-4.7s-4.7,2.1-4.7,4.7S118.8,119.3,121.4,119.3z"/>
		<path class="st63" d="M217.4,140.3l-22.7-55.1c-0.6-1.5-1.7-2.9-3-3.9s-2.9-1.7-4.5-1.9l-59.1-7.9c-1.6-0.2-3.3,0-4.8,0.6
			c-1.5,0.6-2.9,1.7-3.9,3L83,122.4c-1,1.3-1.7,2.9-1.9,4.5c-0.2,1.6,0,3.3,0.6,4.8l22.7,55.1c0.6,1.5,1.7,2.9,3,3.9
			s2.9,1.6,4.5,1.9l59.1,7.9c1.6,0.2,3.3,0,4.8-0.6c1.5-0.6,2.9-1.6,3.9-2.9l36.3-47.1c1.1-1.3,1.7-2.9,1.9-4.6
			C218.3,143.5,218.1,141.8,217.4,140.3L217.4,140.3z M204.5,147.3l-30,39c-0.8,1.1-1.9,1.9-3.2,2.4c-1.3,0.5-2.6,0.7-4,0.5
			l-48.7-6.5c-1.4-0.2-2.6-0.7-3.7-1.5c-1.1-0.8-1.9-1.9-2.5-3.2l-18.7-45.5c-0.5-1.3-0.7-2.6-0.5-4c0.2-1.3,0.7-2.6,1.5-3.7l30-39
			c0.8-1.1,1.9-1.9,3.2-2.4c1.3-0.5,2.6-0.7,4-0.5l48.7,6.5c1.4,0.2,2.6,0.7,3.7,1.6c1.1,0.8,1.9,1.9,2.5,3.2l18.7,45.5
			c0.5,1.3,0.7,2.6,0.5,4C205.9,144.9,205.3,146.2,204.5,147.3L204.5,147.3z"/>
		<path class="st63" d="M215.1,140.3c-0.1-0.3-0.3-0.6-0.6-0.8c-0.2-0.2-0.5-0.4-0.8-0.6c-0.3-0.1-0.6-0.2-1-0.2
			c-0.3,0-0.7,0.1-1,0.2l-30.4,12.6c-0.5,0.2-1,0.3-1.5,0.3c-0.5,0-1-0.1-1.5-0.3c-0.5-0.2-0.9-0.5-1.3-0.8
			c-0.4-0.4-0.6-0.8-0.8-1.3l-17.4-42.3c-0.4-0.9-0.4-2,0-3c0.4-0.9,1.1-1.7,2.1-2.1l30.3-12.6c0.3-0.1,0.6-0.3,0.9-0.5
			c0.3-0.2,0.5-0.5,0.6-0.8c0.1-0.3,0.2-0.7,0.2-1c0-0.3-0.1-0.7-0.2-1c-0.1-0.3-0.3-0.6-0.6-0.8c-0.2-0.2-0.5-0.4-0.9-0.5
			s-0.7-0.2-1-0.2c-0.3,0-0.7,0.1-1,0.3l-32.5,13.6c-0.6,0.3-1.3,0.4-2,0.3c-0.7-0.1-1.3-0.4-1.9-0.8l-26.5-20.5
			c-0.5-0.4-1.2-0.5-1.8-0.4c-0.6,0.1-1.2,0.4-1.6,0.9c-0.4,0.5-0.6,1.1-0.5,1.8c0.1,0.6,0.4,1.2,0.8,1.7l24.3,19.1
			c0.8,0.6,1.3,1.6,1.5,2.6c0.1,1-0.1,2-0.8,2.9l-27.9,36.3c-0.3,0.4-0.7,0.7-1.1,1c-0.4,0.3-0.9,0.4-1.4,0.5s-1,0-1.5-0.1
			c-0.5-0.1-1-0.4-1.4-0.7l-26.1-20.2c-0.5-0.4-1.2-0.5-1.8-0.4c-0.6,0.1-1.2,0.4-1.6,0.9c-0.4,0.5-0.5,1.1-0.4,1.8
			c0.1,0.6,0.4,1.2,0.9,1.6l28.3,22c0.5,0.4,0.9,1,1.2,1.6c0.3,0.6,0.3,1.3,0.2,2l-4.3,32.3c0,0.3,0,0.7,0.1,1
			c0.1,0.3,0.2,0.6,0.4,0.9c0.2,0.3,0.5,0.5,0.7,0.6c0.3,0.2,0.6,0.3,0.9,0.3h0.3c0.6-0.1,1.1-0.3,1.5-0.7c0.4-0.4,0.7-0.9,0.7-1.5
			l3.9-29.6c0.1-1,0.7-1.9,1.5-2.6c0.8-0.6,1.8-0.9,2.9-0.8l45.6,6.1c0.5,0.1,1,0.2,1.4,0.5c0.4,0.3,0.8,0.6,1.1,1
			c0.3,0.4,0.5,0.9,0.7,1.4c0.1,0.5,0.2,1,0.1,1.5l-3.9,29.6c0,0.3,0,0.7,0.1,1c0.1,0.3,0.2,0.6,0.4,0.9c0.2,0.3,0.5,0.5,0.7,0.7
			c0.3,0.2,0.6,0.3,0.9,0.3h0.3c0.6,0,1.2-0.2,1.7-0.6c0.5-0.4,0.8-1,0.8-1.6l4.3-32.3c0.1-0.7,0.4-1.3,0.8-1.8c0.4-0.5,1-1,1.6-1.2
			l33-13.8c0.3-0.1,0.6-0.3,0.8-0.6c0.2-0.3,0.4-0.5,0.5-0.9c0.1-0.3,0.2-0.7,0.1-1C215.3,140.9,215.2,140.6,215.1,140.3
			L215.1,140.3z M125.4,143.7l25.5-33.1c0.2-0.3,0.6-0.6,0.9-0.7s0.8-0.2,1.2-0.2c0.4,0.1,0.8,0.2,1.1,0.5c0.3,0.2,0.6,0.6,0.7,0.9
			l15.9,38.7c0.2,0.4,0.2,0.8,0.2,1.2s-0.2,0.8-0.4,1.1s-0.6,0.6-0.9,0.7c-0.4,0.2-0.8,0.2-1.2,0.1l-41.4-5.5
			c-0.4-0.1-0.8-0.2-1.1-0.5c-0.3-0.2-0.6-0.6-0.7-0.9c-0.2-0.4-0.2-0.8-0.2-1.1C125.1,144.4,125.2,144,125.4,143.7L125.4,143.7z"/>
		<path class="st63" d="M137.2,37.2c-4.2-0.7-8.4,3.4-9.3,9.1c-0.3,1.6-0.3,3.3,0.1,4.9c0.4,1.6,1.1,3.1,2.1,4.4l-5.6,17.9
			c-0.2,0.6-0.3,1.3-0.3,1.9c0,0.9,0.1,1.8,0.5,2.6c0.3,0.8,0.8,1.6,1.4,2.2c1.2,1.3,2.9,2,4.7,2.1c1.8,0,3.5-0.6,4.8-1.9
			c1.3-1.2,2-2.9,2.1-4.7l0.3-18.8c1.4-0.9,2.5-2.1,3.4-3.5c0.9-1.4,1.4-3,1.6-4.6C144.1,42.9,141.4,37.7,137.2,37.2z"/>
		<path class="st63" d="M190.6,45.6c-4.2-0.7-8.4,3.4-9.3,9.1c-0.3,1.6-0.3,3.3,0.1,4.9c0.4,1.6,1.1,3.1,2.2,4.4L177.9,82
			c-0.2,0.6-0.3,1.3-0.3,1.9c0,0.9,0.1,1.8,0.5,2.6c0.3,0.8,0.8,1.6,1.4,2.2c0.6,0.6,1.4,1.2,2.2,1.5c0.8,0.3,1.7,0.5,2.6,0.5
			c1.8,0,3.5-0.7,4.8-2c1.3-1.3,2-3,2-4.8l0.3-18.8c1.4-0.9,2.6-2.1,3.4-3.5c0.9-1.4,1.4-3,1.6-4.6
			C197.5,51.5,194.8,46.3,190.6,45.6z"/>
		<path class="st63" d="M112,94.5l-34.5-1.1c-5.7-0.1-11-2.4-15.1-6.4c-7-6.9-10.1-13.2-9.4-18.7c0.4-2.2,1.3-4.3,2.7-6
			c1.4-1.8,3.2-3.2,5.2-4.1c3.5-1.7,7.4-2.7,11.3-2.9c3.9-0.2,7.9,0.5,11.5,2c14.7,4.9,29.5,18.4,33.6,27.3c0.2,0.3,0.3,0.6,0.3,1
			c0,0.3,0,0.7-0.1,1c-0.1,0.3-0.3,0.6-0.5,0.9c-0.2,0.3-0.5,0.5-0.8,0.6c-0.3,0.1-0.7,0.2-1,0.2c-0.3,0-0.7-0.1-1-0.2
			c-0.3-0.1-0.6-0.3-0.9-0.6c-0.2-0.3-0.4-0.6-0.5-0.9c-3.1-6.9-16.6-19.9-30.5-24.6c-3-1.3-6.2-1.9-9.5-1.8
			c-3.2,0.1-6.4,0.8-9.4,2.3C62.1,63.1,61,63.9,60,65c-0.9,1.1-1.6,2.4-1.9,3.8c-0.5,3.7,2.3,8.9,7.9,14.4c3.1,3.1,7.3,4.9,11.7,5
			l34.5,1.1c0.7,0,1.3,0.3,1.8,0.7c0.5,0.5,0.7,1.1,0.7,1.8c0,0.7-0.3,1.3-0.7,1.8c-0.5,0.5-1.1,0.7-1.8,0.7L112,94.5z"/>
		<path class="st63" d="M56.5,72.6c-1.9-4.9-1.3-8.3,5.6-12.1c19-10.4,47.7,13.8,52.9,25.2l-4.2,4.7c-8.9-12.2-33.4-30-50.2-20.9
			C59,70.3,57.7,71.4,56.5,72.6L56.5,72.6z"/>
		<path class="st63" d="M234,118.4c-2.2,0-4.3-0.3-6.4-0.9l-33.1-9.7c-0.3-0.1-0.6-0.2-0.9-0.4c-0.3-0.2-0.5-0.5-0.6-0.8
			c-0.2-0.3-0.3-0.6-0.3-0.9c0-0.3,0-0.7,0.1-1c0.2-0.6,0.6-1.2,1.2-1.5c0.6-0.3,1.3-0.4,1.9-0.2l33.1,9.7c4.2,1.3,8.7,0.9,12.6-1.1
			c7.1-3.5,11.4-7.5,12.1-11.3c0.1-1.4-0.1-2.8-0.6-4.2c-0.5-1.3-1.4-2.5-2.5-3.4c-2.3-2.2-5.1-4-8.2-5.1c-3.1-1.1-6.3-1.5-9.5-1.3
			c-14.8,0-31.6,8.2-36.7,13.8c-0.2,0.2-0.5,0.4-0.8,0.6c-0.3,0.1-0.6,0.2-1,0.2c-0.3,0-0.7,0-1-0.1c-0.3-0.1-0.6-0.3-0.8-0.5
			c-0.5-0.5-0.7-1.1-0.7-1.8c0-0.7,0.3-1.3,0.7-1.8c6.7-7.2,24.8-15.3,40.4-15.4c3.9-0.3,7.9,0.3,11.5,1.7c3.7,1.4,7,3.5,9.9,6.2
			c1.6,1.5,2.9,3.4,3.7,5.4c0.8,2.1,1,4.3,0.7,6.5c-1,5.5-6,10.5-14.8,14.9C241,117.7,237.5,118.4,234,118.4L234,118.4z"/>
		<path class="st63" d="M253.8,104.5c-0.7-1.6-1.7-3-2.9-4.2c-13.1-14-41.9-4.7-54.2,4.1l-2.5-5.8c8.5-9.3,43.3-23.2,58.1-7.4
			C257.7,96.9,257.2,100.4,253.8,104.5L253.8,104.5z"/>
		<path class="st63" d="M135.5,160.1c0.5-1.3-0.9-2.9-3.1-3.7c-2.1-0.8-4.3-0.4-4.7,0.9c-0.5,1.3,0.9,2.9,3.1,3.7
			C133,161.8,135.1,161.4,135.5,160.1z"/>
		<path class="st63" d="M151.3,183.3c-2.4,0-4.8-0.2-7.2-0.6c-8.5-1.4-17.8-5.3-19-10.9c-0.1-0.3-0.1-0.7,0-1
			c0.1-0.3,0.2-0.6,0.4-0.9s0.4-0.5,0.7-0.7c0.3-0.2,0.6-0.3,0.9-0.4c0.3-0.1,0.7-0.1,1,0c0.3,0.1,0.6,0.2,0.9,0.4
			c0.3,0.2,0.5,0.4,0.7,0.7c0.2,0.3,0.3,0.6,0.4,0.9c0.4,1.9,6,5.5,14.8,7c9.6,1.5,15.7-0.5,16.3-2.1c0.2-0.6,0.7-1.1,1.3-1.4
			c0.6-0.3,1.3-0.3,1.9,0c0.6,0.2,1.1,0.7,1.4,1.3c0.3,0.6,0.3,1.3,0,1.9C164.3,181.6,158.1,183.3,151.3,183.3z"/>
		<path class="st63" d="M162.4,165.1c2.3-0.1,4.1-1.3,4-2.7c-0.1-1.3-2-2.3-4.3-2.2c-2.3,0.1-4.1,1.3-4,2.7
			C158.2,164.3,160.1,165.3,162.4,165.1z"/>
	</g>
</g>
</svg>
