<?xml version="1.0" encoding="utf-8"?>
<!-- Generator: Adobe Illustrator 26.3.1, SVG Export Plug-In . SVG Version: 6.00 Build 0)  -->
<svg version="1.1" id="Layer_1" xmlns="http://www.w3.org/2000/svg" xmlns:xlink="http://www.w3.org/1999/xlink" x="0px" y="0px"
	 viewBox="0 0 428.3 559.8" style="enable-background:new 0 0 428.3 559.8;" xml:space="preserve">
<style type="text/css">
	.st0{clip-path:url(#SVGID_00000006673935419990859870000017140530774908372864_);}
	.st1{fill:url(#SVGID_00000172441895205692173750000002478359094816006332_);}
	.st2{fill:url(#SVGID_00000039826935623244101550000017392207652532967052_);}
	.st3{opacity:0.3;fill:#6B0A5C;enable-background:new    ;}
	.st4{opacity:0.5;fill:#6B0A5C;enable-background:new    ;}
	.st5{fill:#6B0A5C;}
	.st6{opacity:0.35;fill:#FFFFFF;enable-background:new    ;}
	.st7{fill:#D30971;}
	.st8{fill:url(#SVGID_00000121240153175663880140000006355874858896355006_);}
	.st9{opacity:0.3;fill:#FFFFFF;enable-background:new    ;}
	.st10{fill:#F0A9CD;}
	.st11{fill:#FFFFFF;}
	.st12{fill:#020A47;}
	.st13{fill:url(#SVGID_00000100362912381701614360000005489074959729459876_);}
	.st14{fill:url(#SVGID_00000097472083000879319550000012890094753634504609_);}
	.st15{fill-rule:evenodd;clip-rule:evenodd;fill:#D30971;}
	.st16{clip-path:url(#SVGID_00000074409555264277281010000005547744741844128660_);}
	.st17{fill-rule:evenodd;clip-rule:evenodd;fill:#020A47;}
	.st18{fill:#4E547E;}
	.st19{fill:url(#SVGID_00000081633611559918652980000015250030494008840629_);}
	.st20{fill:url(#SVGID_00000127750013384456771920000018238889562438553235_);}
	.st21{fill:#B1B3C6;}
	.st22{opacity:0.25;fill:#020A47;enable-background:new    ;}
	.st23{opacity:0.18;fill:#020A47;enable-background:new    ;}
	.st24{fill:url(#SVGID_00000155143462897672520460000016062636618114175406_);}
	.st25{opacity:0.22;fill:#FFFFFF;enable-background:new    ;}
	.st26{fill:url(#SVGID_00000145768171069725111810000016479519304842002338_);}
	.st27{fill:#EEEEF3;}
	.st28{opacity:0.5;fill:#020A47;enable-background:new    ;}
	.st29{fill:#373D6E;}
	.st30{clip-path:url(#SVGID_00000145751312984384339520000009312319437644825014_);}
	.st31{fill:url(#SVGID_00000103972819412750319300000001372061638022535100_);}
	.st32{opacity:0.58;fill:#FFFFFF;enable-background:new    ;}
	.st33{fill:#5EE4E4;}
	.st34{fill:url(#SVGID_00000072990663227846857470000004930692673435301553_);}
	.st35{opacity:0.8;fill:#5EE4E4;enable-background:new    ;}
	.st36{fill:#098A87;}
	.st37{fill:url(#SVGID_00000168833146025308471460000005283264961463134885_);}
	.st38{fill:url(#SVGID_00000130643107677695325460000005548855391151368841_);}
	.st39{fill:url(#SVGID_00000047764768361143783180000014134750444854081946_);}
	.st40{fill:url(#SVGID_00000165220254469170486520000002682827592873892507_);}
	.st41{fill:#2CA4A4;}
	.st42{fill-rule:evenodd;clip-rule:evenodd;fill:#5EE4E4;}
	.st43{clip-path:url(#SVGID_00000147191224130406328970000018099004438246084515_);}
	.st44{fill-rule:evenodd;clip-rule:evenodd;fill:#9B2AFF;}
	.st45{fill:url(#SVGID_00000116221002471082161290000016713453321025880723_);}
	.st46{opacity:0.7;fill:url(#SVGID_00000100368911183011352200000007729210143056465084_);enable-background:new    ;}
	.st47{opacity:0.7;fill:url(#SVGID_00000003079303726735967490000000125115190348091560_);enable-background:new    ;}
	.st48{fill:url(#SVGID_00000162324077002245574320000015385969676263340436_);}
	.st49{fill:url(#SVGID_00000098206162479706532560000018410099861454751373_);}
	.st50{fill:url(#SVGID_00000129180715430737729620000010407454355736052889_);}
	.st51{fill:url(#SVGID_00000095312913939103599530000010945136131056740765_);}
	.st52{fill:url(#SVGID_00000176750415696948303770000006070099074797937800_);}
	.st53{fill:url(#SVGID_00000025409570940542018870000003527037517422865840_);}
	.st54{fill:url(#SVGID_00000114757643636380109930000017518784411241579445_);}
	.st55{fill:url(#SVGID_00000021824495874215812320000007018159443625222806_);}
	.st56{fill:url(#SVGID_00000127758764177118358540000014661048406049764740_);}
	.st57{fill:url(#SVGID_00000081615513215239531980000015789721131074399929_);}
	.st58{fill:url(#SVGID_00000118358436263801246790000002385109016351242369_);}
	.st59{fill:url(#SVGID_00000103957386016833964260000016359413886157761427_);}
	.st60{fill:url(#SVGID_00000070801550086031670900000012623181985003084217_);}
	.st61{fill:url(#SVGID_00000067200943012023353310000008090365184535999919_);}
	.st62{fill:url(#SVGID_00000092446328570504647930000014962353337252130747_);}
	.st63{fill:#9B2AFF;}
	.st64{fill:url(#SVGID_00000102525762070234755800000007516631542710690947_);}
	.st65{fill:url(#SVGID_00000015338284199432348920000013779954201239927694_);}
	.st66{fill:url(#SVGID_00000106121026917368548200000003060775842514721186_);}
</style>
<g>
	<defs>
		<rect id="SVGID_00000002384373485146073390000017770760019599809184_" x="60.9" y="67.8" width="306.4" height="424.1"/>
	</defs>
	<clipPath id="SVGID_00000031171589592733589800000016382264323933188251_">
		<use xlink:href="#SVGID_00000002384373485146073390000017770760019599809184_"  style="overflow:visible;"/>
	</clipPath>
	<g style="clip-path:url(#SVGID_00000031171589592733589800000016382264323933188251_);">
		<path class="st17" d="M179.8,466.6c-0.8,0-1.6-0.3-2.2-0.8c-0.3-0.3-0.5-0.6-0.6-0.9c-0.1-0.4-0.2-0.7-0.2-1.1
			c0-0.4,0.1-0.8,0.2-1.1c0.1-0.4,0.4-0.7,0.6-0.9c0.6-0.5,1.4-0.9,2.2-0.8c0.8,0,1.6,0.3,2.2,0.8c0.3,0.3,0.5,0.6,0.6,0.9
			c0.1,0.4,0.2,0.7,0.2,1.1c0,0.4-0.1,0.8-0.2,1.1c-0.1,0.4-0.4,0.7-0.6,0.9C181.4,466.3,180.6,466.6,179.8,466.6L179.8,466.6z
			 M177.1,484.5V469h5.4v15.5H177.1z M186.2,484.5V469h5.3v1.9c0.4-0.7,1-1.4,1.7-1.7c0.8-0.4,1.8-0.7,2.7-0.6
			c0.7-0.1,1.5,0.1,2.2,0.4c0.7,0.3,1.3,0.7,1.8,1.3c1,1.4,1.5,3.1,1.4,4.8v9.5h-5.5v-8.4c0-1.8-0.7-2.7-2.1-2.7
			c-0.3,0-0.6,0-0.9,0.2c-0.3,0.1-0.5,0.3-0.7,0.6c-0.4,0.6-0.6,1.4-0.6,2.2v8.2H186.2z M206.3,484.5v-11.1h-2.5V469h2.5v-1.5
			c-0.1-2,0.5-4,1.7-5.5c0.6-0.7,1.4-1.2,2.3-1.5s1.8-0.5,2.7-0.4c0.6,0,1.2,0.1,1.7,0.2c0.5,0.1,1,0.2,1.4,0.3L216,465
			c-0.3-0.1-0.5-0.2-0.8-0.2h-0.8c-0.4,0-0.7,0-1,0.2c-0.3,0.1-0.6,0.3-0.9,0.6c-0.5,0.7-0.7,1.5-0.6,2.4v1.1h3.7v4.4h-3.7v11.1
			L206.3,484.5z M217.8,484.5v-24.3h5.5v24.3H217.8z M232.1,485c-0.7,0-1.5-0.1-2.2-0.4c-0.7-0.3-1.3-0.7-1.8-1.3
			c-1-1.4-1.4-3.1-1.3-4.8V469h5.5v8.4c0,0.7,0.1,1.4,0.5,2.1c0.2,0.2,0.5,0.4,0.8,0.6c0.3,0.1,0.6,0.2,0.9,0.2s0.6-0.1,0.9-0.2
			c0.3-0.1,0.5-0.3,0.8-0.6c0.4-0.6,0.7-1.4,0.6-2.2v-8.2h5.5v15.5h-5.3v-1.9c-0.4,0.8-1,1.4-1.8,1.7c-0.9,0.4-1.8,0.6-2.8,0.5
			H232.1z M244.5,484.5l5.7-8l-5.3-7.5h6.1l2.5,4.2l2.5-4.2h5.8l-5.3,7.6l5.7,7.9h-5.8l-2.8-4.7l-2.8,4.7H244.5z M271.4,485
			c-1.3,0-2.6-0.3-3.7-1c-1.1-0.7-2-1.7-2.6-2.8c-0.6-1.3-0.9-2.7-0.9-4.1c0-1.4,0.3-2.8,1-4c0.6-1.2,1.6-2.2,2.7-2.9
			c1.1-0.7,2.4-1.1,3.8-1.1c1.1,0,2.2,0.3,3.1,0.8c1,0.6,1.8,1.4,2.3,2.4v-12h2.6v24.3h-2.5v-2.8c-0.6,1-1.4,1.8-2.4,2.4
			c-1,0.5-2.1,0.8-3.2,0.8H271.4z M272,482.7c0.9,0,1.9-0.2,2.7-0.7c0.8-0.5,1.5-1.2,1.9-2c0.4-0.9,0.7-1.9,0.7-3c0-1-0.2-2-0.7-3
			c-0.4-0.8-1.1-1.6-1.9-2c-0.8-0.5-1.7-0.7-2.7-0.7c-0.9,0-1.9,0.2-2.7,0.7c-0.8,0.5-1.5,1.2-1.9,2c-0.4,0.9-0.7,1.9-0.7,3
			c0,1,0.2,2,0.7,3c0.4,0.9,1.1,1.6,1.9,2C270.2,482.5,271.1,482.7,272,482.7L272,482.7z M293.1,485c-1.1,0-2.2-0.3-3.2-0.8
			c-1-0.6-1.7-1.4-2.2-2.4v2.8h-2.5v-24.3h2.6v12c0.6-1,1.4-1.8,2.4-2.4c1-0.6,2.2-0.9,3.4-0.8c1.3,0,2.6,0.3,3.7,1
			c1.1,0.7,2,1.7,2.6,2.8c0.6,1.3,0.9,2.7,0.9,4.2c0,1.4-0.3,2.8-1,4c-0.6,1.2-1.6,2.2-2.7,2.9c-1.1,0.7-2.4,1.1-3.7,1H293.1z
			 M292.7,482.7c1,0,1.9-0.2,2.8-0.7c0.8-0.5,1.4-1.2,1.8-2c0.5-0.9,0.7-1.9,0.7-3c0-1-0.2-2-0.7-3c-0.4-0.8-1-1.5-1.8-2
			c-0.8-0.5-1.8-0.7-2.7-0.7s-1.9,0.2-2.7,0.7c-0.8,0.5-1.4,1.2-1.9,2c-0.4,0.9-0.7,1.9-0.7,3c0,1,0.2,2,0.7,3
			c0.4,0.8,1.1,1.5,1.9,2c0.9,0.6,1.9,0.9,3,0.8L292.7,482.7z"/>
		<path class="st17" d="M153.5,481l8.1-1.9h0.4c0.1-0.1,0.2-0.2,0.2-0.3c0-0.1,0-0.2,0-0.3c0-0.1,0-0.3,0-0.4l-3.4-15
			c-0.1-0.2-0.2-0.4-0.4-0.6c-0.1-0.1-0.2-0.1-0.4-0.1c-0.1,0-0.3,0-0.4,0.1l-8.1,1.9c-0.2,0.1-0.5,0.2-0.6,0.4
			c-0.1,0.2-0.1,0.5,0,0.7l3.4,15c0.1,0.2,0.2,0.4,0.4,0.6C153,481.2,153.3,481.2,153.5,481L153.5,481z"/>
		<path class="st17" d="M150.7,490.3l9.9-9.2c0.4-0.4,0.3-0.6-0.2-0.4l-6.7,1.5c-0.3,0.1-0.5,0.2-0.7,0.4c-0.2,0.2-0.4,0.4-0.5,0.7
			l-2.1,6.7C150.2,490.6,150.3,490.7,150.7,490.3z"/>
		<path class="st17" d="M132.7,487.3l14.8,4.6c0.2,0.1,0.5,0.1,0.7,0c0.2-0.1,0.4-0.3,0.5-0.6l2.5-7.9c0-0.1,0-0.2,0-0.4
			c0-0.1,0-0.2,0-0.4l-0.3-0.3h-0.3l-14.8-4.5c-0.2-0.1-0.5-0.1-0.7,0c-0.2,0.1-0.4,0.3-0.5,0.6l-2.5,7.9c-0.1,0.2-0.1,0.5,0,0.7
			C132.2,487.2,132.5,487.3,132.7,487.3L132.7,487.3z"/>
		<path class="st17" d="M127.9,471.1l3,13.1c0,0.5,0.3,0.5,0.4,0l2.1-6.7c0.1-0.3,0.1-0.6,0-0.8c-0.1-0.3-0.2-0.5-0.4-0.8l-4.7-5
			C128,470.4,127.8,470.6,127.9,471.1z"/>
		<path class="st17" d="M139.5,457l-11.3,10.5c-0.2,0.2-0.3,0.4-0.3,0.7c0,0.1,0,0.2,0.1,0.4c0,0.1,0.1,0.2,0.2,0.3l5.7,6.2
			c0.2,0.2,0.4,0.3,0.7,0.3c0.3,0,0.5-0.1,0.7-0.3l11.3-10.5c0.2-0.2,0.3-0.4,0.3-0.7c0-0.1,0-0.2-0.1-0.4c0-0.1-0.1-0.2-0.2-0.3
			l-5.7-6.2l-0.3-0.2c-0.1,0-0.2,0-0.4,0c-0.1,0-0.2,0-0.4,0L139.5,457z"/>
		<path class="st17" d="M150.4,480.8c0.5,0,0.8-0.2,0.7-0.7l-3.4-14.2c0-0.5-0.5-0.7-0.9-0.3l-10.7,10.1c-0.1,0.1-0.2,0.1-0.2,0.2
			c0,0.1-0.1,0.2,0,0.3c0,0.1,0.1,0.2,0.2,0.3c0.1,0.1,0.2,0.1,0.3,0.1L150.4,480.8z"/>
		<path class="st17" d="M156,461l-13-4c-0.5,0-0.6,0-0.2,0.5l4.7,5.1c0.2,0.2,0.5,0.3,0.7,0.4c0.3,0.1,0.6,0.1,0.8,0l6.7-1.5
			C156.5,461.4,156.5,461.1,156,461z"/>
		<path class="st17" d="M307.2,464.6v-3.2H306v-0.6h3.1v0.6H308v3.2H307.2z M309.8,464.6l0.2-3.8h0.7l1.2,2.4l1.2-2.4h0.7v3.8h-0.4
			v-2.8l-1,2.2h-0.5l-1.1-2.2v2.9H309.8z"/>
		<path class="st18" d="M170.7,107c0,0-20.2-53.5-70.3-31.1l7.5,9.5c0,0-58.7,13.5-41.1,77.6l10.3-1.4c0.7,12.4,8.7,22.3,22.4,27.3
			l4.9-3.8c6.5,4.8,18.2,10.9,27.6,9.4L170.7,107z"/>
		<path class="st12" d="M128.7,197.1c-10.1,0-20.2-6.1-24.2-9l-4.5,3.4l-1.3-0.5c-13.5-5-22.1-14.6-23.8-26.9l-9.9,1.4l-0.6-2.1
			c-5.7-20.8-4.2-38.6,4.4-53c8.2-12.7,20.5-22.1,34.8-26.6l-7.2-9.1l3-1.3c15.1-6.7,29.1-7.5,41.7-2.3
			c22.2,9.3,31.7,33.6,32.1,34.8c0.1,0.3,0.2,0.7,0.2,1c0,0.3-0.1,0.7-0.2,1c-0.1,0.3-0.3,0.6-0.6,0.8c-0.2,0.2-0.5,0.4-0.9,0.5
			c-0.3,0.1-0.7,0.2-1,0.2c-0.3,0-0.7-0.1-1-0.2c-0.3-0.1-0.6-0.3-0.8-0.6c-0.2-0.3-0.4-0.6-0.5-0.9c0-0.2-9.1-23.5-29.3-31.9
			c-10.4-4.3-22-4-34.6,1l7.9,10.1l-3.9,0.9c-0.2,0-23.5,5.6-35.4,25.4c-7.6,12.6-9,28.4-4.4,46.8l10.8-1.5v2.7
			c0.6,11.1,7.5,19.8,19.5,24.6l5.3-4.1l1.5,1.1c6.7,5,17.4,10.3,25.6,8.9c0.3-0.1,0.7-0.1,1,0c0.3,0.1,0.6,0.2,0.9,0.4
			c0.3,0.2,0.5,0.4,0.7,0.7c0.2,0.3,0.3,0.6,0.3,0.9c0.1,0.7,0,1.3-0.4,1.9c-0.4,0.5-1,0.9-1.6,1C131,196.9,129.8,197.1,128.7,197.1
			L128.7,197.1z"/>
		
			<linearGradient id="SVGID_00000013192950024759953400000005317707089442656697_" gradientUnits="userSpaceOnUse" x1="107.985" y1="674.5021" x2="146.9429" y2="656.5034" gradientTransform="matrix(1 0 0 -1 0 802)">
			<stop  offset="0" style="stop-color:#FFFFFF"/>
			<stop  offset="1" style="stop-color:#888CA9"/>
		</linearGradient>
		<path style="fill:url(#SVGID_00000013192950024759953400000005317707089442656697_);" d="M155.3,117.4c0,0-33.2-34-53.8,5.2
			c-18.2,34.6,23.1,51.6,37.4,49.4L155.3,117.4z"/>
		<path class="st18" d="M257.5,107c0,0,20.2-53.5,70.3-31.1l-7.5,9.5c0,0,58.7,13.5,41.1,77.6l-10.3-1.4
			c-0.7,12.4-8.6,22.3-22.4,27.3l-4.9-3.8c-6.5,4.8-18.2,10.9-27.6,9.4L257.5,107z"/>
		<path class="st12" d="M299.6,197.1c-1.2,0-2.5-0.1-3.7-0.3c-0.7-0.1-1.2-0.5-1.6-1c-0.4-0.5-0.5-1.2-0.4-1.9
			c0.1-0.7,0.5-1.2,1-1.6s1.2-0.5,1.9-0.4c8.2,1.4,19-3.9,25.6-8.9l1.5-1.1l5.3,4.1c11.9-4.8,18.8-13.5,19.5-24.6v-2.7l10.8,1.5
			c4.6-18.4,3.1-34.2-4.4-46.8c-11.9-19.9-35.2-25.4-35.4-25.4l-3.9-0.9l7.9-10.1c-12.6-5-24.3-5.3-34.7-1
			c-20.2,8.4-29.2,31.7-29.3,31.9c-0.1,0.3-0.3,0.6-0.5,0.9c-0.2,0.3-0.5,0.5-0.8,0.6c-0.3,0.1-0.7,0.2-1,0.2c-0.3,0-0.7-0.1-1-0.2
			c-0.3-0.1-0.6-0.3-0.9-0.5c-0.2-0.2-0.4-0.5-0.6-0.8c-0.1-0.3-0.2-0.7-0.2-1c0-0.3,0.1-0.7,0.2-1c0.4-1,9.9-25.5,32.1-34.8
			c12.5-5.2,26.6-4.5,41.7,2.3l2.9,1.3l-7.2,9.1c14.3,4.6,26.6,14,34.8,26.6c8.6,14.4,10.1,32.2,4.5,53l-0.6,2.1l-9.9-1.4
			c-1.7,12.2-10.3,21.8-23.8,26.9l-1.3,0.5l-4.5-3.4C319.6,191,309.5,197.1,299.6,197.1z"/>
		
			<linearGradient id="SVGID_00000107581520928324393920000004986150638879362468_" gradientUnits="userSpaceOnUse" x1="316.5789" y1="671.5707" x2="270.9935" y2="653.6057" gradientTransform="matrix(1 0 0 -1 0 802)">
			<stop  offset="0" style="stop-color:#FFFFFF"/>
			<stop  offset="1" style="stop-color:#888CA9"/>
		</linearGradient>
		<path style="fill:url(#SVGID_00000107581520928324393920000004986150638879362468_);" d="M273,117.4c0,0,33.1-34,53.8,5.2
			c18.2,34.6-23.1,51.6-37.4,49.4L273,117.4z"/>
		<path class="st18" d="M127.7,448.2c17.2-11.1,49.9-18.5,87.5-18.5c34.6,0,65.1,6.4,83.1,16l19.7-51.1L249.5,368l-131.2,10.6
			L127.7,448.2z"/>
		<path class="st12" d="M118.6,447.6c18.7-2.5,31-26.7,27.4-54.1c-3.6-27.4-21.7-47.7-40.4-45.2c-18.7,2.5-31,26.7-27.4,54.1
			C81.8,429.8,99.9,450.1,118.6,447.6z"/>
		<path class="st21" d="M104.1,392.1c3.8-0.2,6.6-4.8,6.3-10.2c-0.3-5.4-3.7-9.5-7.5-9.3c-3.8,0.2-6.6,4.8-6.3,10.2
			C96.9,388.2,100.3,392.4,104.1,392.1z"/>
		<path class="st21" d="M87.4,402.1c2.9-0.2,5.1-3.7,4.9-7.9c-0.3-4.2-2.9-7.4-5.8-7.2c-2.9,0.2-5.1,3.7-4.9,7.9
			C81.8,399.1,84.4,402.3,87.4,402.1z"/>
		<path class="st21" d="M124.2,392.6c3.4-0.2,5.9-4.3,5.6-9.1c-0.3-4.8-3.3-8.6-6.7-8.3c-3.4,0.2-5.9,4.3-5.6,9.1
			C117.7,389.1,120.7,392.8,124.2,392.6z"/>
		<path class="st21" d="M110.7,434c8.5,0,15.5-6.9,15.5-15.5c0-8.5-6.9-15.5-15.5-15.5s-15.5,6.9-15.5,15.5
			C95.2,427.1,102.2,434,110.7,434z"/>
		<path class="st12" d="M351.3,406.3c3.5-27.5-8.9-51.7-27.7-54c-18.7-2.4-36.8,18-40.2,45.5c-3.5,27.5,8.9,51.7,27.7,54
			C329.8,454.1,347.8,433.8,351.3,406.3z"/>
		<path class="st21" d="M332,382.8c0.3-5.4-2.5-9.9-6.3-10.2c-3.8-0.2-7.2,3.9-7.5,9.3c-0.3,5.4,2.5,9.9,6.3,10.2
			C328.3,392.4,331.6,388.2,332,382.8z"/>
		<path class="st21" d="M347,395c0.3-4.2-1.9-7.7-4.9-7.9c-2.9-0.2-5.6,3-5.8,7.2c-0.3,4.2,1.9,7.7,4.9,7.9
			C344.2,402.3,346.8,399.1,347,395z"/>
		<path class="st21" d="M311.2,384.3c0.3-4.8-2.2-8.9-5.6-9.1c-3.4-0.2-6.4,3.5-6.7,8.3c-0.3,4.8,2.2,8.9,5.6,9.1
			C307.8,392.8,310.9,389.1,311.2,384.3z"/>
		<path class="st21" d="M317.9,434c8.5,0,15.5-6.9,15.5-15.5c0-8.5-6.9-15.5-15.5-15.5c-8.5,0-15.5,6.9-15.5,15.5
			C302.4,427.1,309.4,434,317.9,434z"/>
		<path class="st22" d="M311.1,384.3c-0.3,4.8-3.4,8.5-6.7,8.3c-3.4-0.2-5.9-4.3-5.6-9.1c0.3-4.8,3.4-8.5,6.7-8.3
			C308.9,375.3,311.4,379.4,311.1,384.3z"/>
		<path class="st22" d="M330.5,376c-2.5,5.9-5,11.2-7.5,15.8c-1.7-0.9-3.1-2.4-4-4.2c-0.9-1.8-1.2-3.7-0.9-5.7
			c0.4-5.4,3.7-9.5,7.5-9.3c1,0.1,2,0.5,2.8,1.1C329.4,374.3,330.1,375.1,330.5,376L330.5,376z"/>
		<path class="st23" d="M330.5,376c-2.5,5.9-5,11.2-7.5,15.8c-1.7-0.9-3.1-2.4-4-4.2c-0.9-1.8-1.2-3.7-0.9-5.7
			c0.4-5.4,3.7-9.5,7.5-9.3c1,0.1,2,0.5,2.8,1.1C329.4,374.3,330.1,375.1,330.5,376L330.5,376z"/>
		<path class="st23" d="M311.1,384.3c-0.3,4.8-3.4,8.5-6.7,8.3c-3.4-0.2-5.9-4.3-5.6-9.1c0.3-4.8,3.4-8.5,6.7-8.3
			C308.9,375.3,311.4,379.4,311.1,384.3z"/>
		
			<linearGradient id="SVGID_00000157265920864707499660000003003215399745720735_" gradientUnits="userSpaceOnUse" x1="142.7245" y1="464.849" x2="282.8113" y2="464.849" gradientTransform="matrix(1 0 0 -1 0 802)">
			<stop  offset="0" style="stop-color:#FFFFFF"/>
			<stop  offset="1" style="stop-color:#888CA9"/>
		</linearGradient>
		<path style="fill:url(#SVGID_00000157265920864707499660000003003215399745720735_);" d="M212.8,421.5c38.7,0,70-37.7,70-84.3
			c0-46.6-31.4-84.3-70-84.3s-70,37.7-70,84.3C142.7,383.7,174.1,421.5,212.8,421.5z"/>
		<path class="st18" d="M277.7,409.5c-4.7,0-9.3-1.2-13.3-3.6c-4-2.3-7.4-5.7-9.7-9.7c-2.3-4-3.6-8.6-3.6-13.3
			c0-4.7,1.2-9.3,3.5-13.3c6.3-11.1,20.2-39.7,12.6-66.5c-4.9-17.5-18.9-32.7-41.5-45c-6.2-3.4-10.8-9.1-12.8-15.9
			c-2-6.8-1.2-14.1,2.2-20.3c3.4-6.2,9.1-10.8,15.9-12.8c6.8-2,14.1-1.2,20.3,2.2c35.6,19.4,58.3,45.4,67.3,77.4
			c12.6,44.6-5.7,86.5-17.7,107.7c-2.4,4-5.8,7.4-9.8,9.7C287,408.3,282.4,409.5,277.7,409.5L277.7,409.5z"/>
		<path class="st18" d="M162.8,303.1c4.9-17.5,18.9-32.7,41.5-45c3.2-1.6,5.9-3.9,8.2-6.6c2.3-2.7,4-5.9,5-9.3c1-3.4,1.4-7,1-10.5
			c-0.4-3.5-1.4-7-3.1-10.1c-1.7-3.1-4-5.9-6.8-8.1s-6-3.9-9.4-4.8c-3.4-1-7-1.2-10.5-0.8c-3.5,0.4-6.9,1.6-10,3.3
			c-35.6,19.4-58.2,45.4-67.3,77.4c-12.6,44.6,5.7,86.5,17.7,107.7c1.8,3,4.1,5.7,6.9,7.8c2.8,2.1,6,3.7,9.4,4.6
			c3.4,0.9,6.9,1.1,10.4,0.7c3.5-0.5,6.8-1.6,9.9-3.4c3-1.8,5.7-4.1,7.8-6.9c2.1-2.8,3.7-6,4.6-9.4c0.9-3.4,1.1-6.9,0.7-10.4
			c-0.5-3.5-1.6-6.8-3.4-9.9C169.1,358.5,155.3,329.9,162.8,303.1L162.8,303.1z"/>
		<path class="st25" d="M126,282.6c-17.9,42.8-4.6,86.6,4.8,108.9c2.8,6.5,8,11.6,14.5,14.3c6.5,2.7,13.9,2.6,20.4-0.2l1.6-0.8
			c-0.6,0.4-1.2,0.8-1.8,1.1c-3,1.7-6.4,2.9-9.9,3.3c-3.5,0.4-7,0.2-10.4-0.7c-3.4-0.9-6.5-2.5-9.3-4.6c-2.8-2.1-5.1-4.8-6.8-7.9
			c-12-21-30.3-62.8-17.7-107.7c9-31.8,31.6-57.8,67.3-77.4c4.3-2.3,9.1-3.4,14-3.2s9.6,1.8,13.6,4.5c-1.5,0.3-3,0.7-4.4,1.3
			C164.3,229,138.7,252.1,126,282.6z"/>
		<path class="st12" d="M277.7,412.2c-6.4,0-12.6-2.1-17.7-6c-5.1-3.9-8.7-9.3-10.4-15.5c-1-3.7-1.3-7.6-0.8-11.4
			c0.5-3.8,1.7-7.5,3.7-10.8c6.2-10.8,19.7-38.7,12.4-64.6c-0.1-0.3-0.2-0.7-0.2-1c0-0.3,0.1-0.7,0.3-1c0.2-0.3,0.4-0.6,0.7-0.8
			c0.3-0.2,0.6-0.4,0.9-0.5c0.3-0.1,0.7-0.1,1-0.1c0.3,0,0.7,0.2,1,0.4c0.3,0.2,0.6,0.4,0.7,0.7c0.2,0.3,0.3,0.6,0.4,1
			c7.9,27.8-6.4,57.2-12.9,68.4c-1.6,2.8-2.6,5.8-3,8.9c-0.4,3.1-0.2,6.3,0.7,9.4c1.4,5.1,4.4,9.6,8.6,12.8c4.2,3.2,9.3,5,14.6,5
			c4.3,0,8.4-1.1,12.1-3.3c3.7-2.1,6.7-5.2,8.8-8.9c11.8-20.7,29.8-61.8,17.4-105.6c-8.8-31.2-31-56.7-66-75.7c-2.8-1.6-5.9-2.6-9-3
			c-3.2-0.4-6.4-0.1-9.5,0.7c-3.1,0.9-6,2.4-8.5,4.4c-2.5,2-4.6,4.5-6.1,7.3c-1.5,2.8-2.5,5.9-2.8,9.1c-0.3,3.2,0,6.4,0.9,9.5
			c0.9,3.1,2.5,5.9,4.5,8.4c2,2.5,4.6,4.5,7.4,6c0.3,0.2,0.5,0.4,0.8,0.6c0.2,0.3,0.4,0.6,0.5,0.9c0.1,0.3,0.1,0.7,0.1,1
			c0,0.3-0.1,0.7-0.3,0.9c-0.2,0.3-0.4,0.5-0.6,0.8c-0.3,0.2-0.6,0.4-0.9,0.5c-0.6,0.2-1.3,0.1-1.9-0.2c-6.8-3.7-11.8-10-14-17.4
			c-2.2-7.4-1.3-15.4,2.4-22.2c3.7-6.8,10-11.8,17.4-14c7.4-2.2,15.4-1.3,22.2,2.4c36.2,19.7,59.3,46.3,68.5,78.8
			c12.9,45.6-5.7,88.1-17.9,109.5c-2.6,4.5-6.3,8.2-10.7,10.7C287.9,410.8,282.9,412.2,277.7,412.2z"/>
		<path class="st12" d="M152.3,412.2c-5.1,0-10.2-1.4-14.6-3.9c-4.4-2.6-8.1-6.3-10.7-10.7c-12.2-21.3-30.8-63.9-17.9-109.5
			c9.2-32.5,32.2-59,68.5-78.8c6.8-3.7,14.8-4.5,22.2-2.3c7.4,2.2,13.7,7.2,17.4,14c3.7,6.8,4.5,14.8,2.3,22.2s-7.2,13.7-14,17.4
			c-0.3,0.2-0.6,0.3-0.9,0.3c-0.3,0-0.7,0-1-0.1c-0.3-0.1-0.6-0.2-0.9-0.5c-0.3-0.2-0.5-0.5-0.6-0.8c-0.2-0.3-0.3-0.6-0.3-0.9
			c0-0.3,0-0.7,0.1-1c0.1-0.3,0.2-0.6,0.5-0.9c0.2-0.3,0.5-0.5,0.8-0.6c2.8-1.5,5.2-3.6,7.2-6c2-2.5,3.5-5.3,4.4-8.3
			c0.9-3,1.2-6.2,0.8-9.4c-0.3-3.2-1.3-6.2-2.8-9c-3.1-5.6-8.2-9.8-14.4-11.6c-6.1-1.8-12.7-1.1-18.4,2c-35,19.1-57.2,44.5-66,75.7
			c-12.4,43.7,5.6,84.9,17.4,105.6c1.6,2.7,3.7,5.2,6.2,7.1c2.5,1.9,5.4,3.4,8.4,4.2c3.1,0.8,6.3,1.1,9.4,0.6s6.2-1.4,8.9-3
			c2.8-1.6,5.2-3.7,7.1-6.2c1.9-2.5,3.4-5.4,4.2-8.4c0.8-3.1,1.1-6.3,0.6-9.4c-0.4-3.1-1.4-6.2-3-8.9c-6.5-11.3-20.7-40.7-12.9-68.4
			c0.2-0.6,0.6-1.2,1.2-1.5c0.6-0.3,1.3-0.4,1.9-0.2c0.6,0.2,1.2,0.6,1.5,1.2c0.3,0.6,0.4,1.3,0.2,1.9c-7.3,25.9,6.2,53.8,12.4,64.6
			c3.8,6.7,4.9,14.7,2.8,22.1s-6.9,13.8-13.6,17.7C162.4,410.8,157.4,412.2,152.3,412.2z"/>
		<path class="st22" d="M150,409.4c0.8,0,1.6,0,2.4,0c4.7,0,9.2-1.2,13.3-3.6c4-2.3,7.4-5.7,9.7-9.7c2.3-4,3.6-8.6,3.6-13.3
			c0-4.7-1.2-9.2-3.5-13.3c-5.3-9.3-16-31.1-14.7-53.8c1.4,24.4,17.4,45.7,24.8,54.4c2.3,2.7,4,5.7,5.1,9.1
			c1.1,3.3,1.5,6.8,1.2,10.3c-0.3,3.5-1.2,6.9-2.8,10c-1.6,3.1-3.8,5.9-6.5,8.2c-3.5,3-7.8,5.1-12.3,5.9c-3.5,0.7-7.1,0.6-10.5-0.1
			C156.2,412.8,152.9,411.3,150,409.4L150,409.4z"/>
		
			<linearGradient id="SVGID_00000099641085783066281540000003248997380123350184_" gradientUnits="userSpaceOnUse" x1="125.9776" y1="610.3876" x2="304.4363" y2="610.3876" gradientTransform="matrix(1 0 0 -1 0 802)">
			<stop  offset="0" style="stop-color:#FFFFFF"/>
			<stop  offset="1" style="stop-color:#888CA9"/>
		</linearGradient>
		<path style="fill:url(#SVGID_00000099641085783066281540000003248997380123350184_);" d="M302.8,185.5l-38.5-66.7
			c-1.1-1.8-2.6-3.4-4.5-4.4c-1.9-1.1-4-1.6-6.1-1.6h-77c-2.1,0-4.3,0.6-6.1,1.6c-1.9,1.1-3.4,2.6-4.5,4.5l-38.5,66.6
			c-1.1,1.9-1.6,4-1.6,6.1c0,2.1,0.6,4.3,1.6,6.1l38.5,66.7c1.1,1.9,2.6,3.4,4.5,4.5c1.9,1.1,4,1.6,6.1,1.6h77
			c2.1,0,4.3-0.5,6.1-1.6c1.9-1.1,3.4-2.6,4.5-4.5l38.5-66.7c1.1-1.9,1.6-4,1.6-6.1C304.4,189.5,303.9,187.3,302.8,185.5
			L302.8,185.5z"/>
		<path class="st27" d="M249.5,222.7c-3-6.7-15.5-27.1-18.8-32.6c-1-2.8-2.8-5.1-5.1-6.8c-2.4-1.7-5.2-2.7-8.1-2.7
			c-2.9-0.1-5.8,0.8-8.2,2.4c-2.4,1.6-4.3,3.9-5.4,6.6c-2.5,4.6-9.8,17.6-18.8,31.6c-3,3.1-4.8,7.2-4.9,11.5c0,12.7,16.3,23,36.4,23
			s36.4-10.3,36.4-23C252.8,229,251.6,225.5,249.5,222.7L249.5,222.7z"/>
		<path class="st28" d="M263.7,279.2l44.1-18.4c0,0-15-22.9-29.2-26.9L263.7,279.2z"/>
		<path class="st11" d="M264.4,204.4c9.1,0,16.5-8.3,16.5-18.4c0-10.2-7.4-18.4-16.5-18.4c-9.1,0-16.5,8.3-16.5,18.4
			C247.9,196.2,255.3,204.4,264.4,204.4z"/>
		<path class="st12" d="M261,199.6c6.4,0,11.6-5.2,11.6-11.6c0-6.4-5.2-11.6-11.6-11.6c-6.4,0-11.6,5.2-11.6,11.6
			C249.4,194.4,254.6,199.6,261,199.6z"/>
		<path class="st11" d="M256.3,188.8c3,0,5.5-2.5,5.5-5.5c0-3-2.5-5.5-5.5-5.5c-3,0-5.5,2.5-5.5,5.5
			C250.8,186.3,253.2,188.8,256.3,188.8z"/>
		<path class="st11" d="M168.2,204.4c9.1,0,16.5-8.3,16.5-18.4c0-10.2-7.4-18.4-16.5-18.4c-9.1,0-16.5,8.3-16.5,18.4
			C151.7,196.2,159.1,204.4,168.2,204.4z"/>
		<path class="st12" d="M171.6,199.6c6.4,0,11.6-5.2,11.6-11.6c0-6.4-5.2-11.6-11.6-11.6c-6.4,0-11.6,5.2-11.6,11.6
			C160,194.4,165.2,199.6,171.6,199.6z"/>
		<path class="st11" d="M166.9,188.8c3,0,5.5-2.5,5.5-5.5c0-3-2.5-5.5-5.5-5.5c-3,0-5.5,2.5-5.5,5.5
			C161.4,186.3,163.9,188.8,166.9,188.8z"/>
		<path class="st29" d="M309.2,185.1l-41.3-71.6c-1.2-2-2.8-3.6-4.8-4.8c-2-1.1-4.3-1.7-6.6-1.7h-82.6c-2.3,0-4.6,0.6-6.6,1.7
			c-2,1.1-3.7,2.8-4.8,4.8l-41.3,71.6c-1.2,2-1.8,4.2-1.8,6.5c0,2.3,0.6,4.6,1.8,6.5l41.3,71.5c1.1,2,2.8,3.7,4.8,4.9
			c2,1.2,4.3,1.8,6.6,1.8h82.6c2.3,0,4.6-0.7,6.6-1.8c2-1.2,3.6-2.9,4.8-4.9l41.3-71.5c1.2-2,1.8-4.2,1.8-6.5
			C310.9,189.3,310.3,187,309.2,185.1L309.2,185.1z M184.9,119.8h61c2.4,0,2.7,1,0.7,2.3l-27.4,15.7c-1.2,0.6-2.4,0.9-3.7,0.9
			c-1.3,0-2.6-0.3-3.7-0.9L184.6,122C182.4,120.8,182.6,119.8,184.9,119.8z M250.2,209c1.3,2.1,0.3,3.7-2.2,3.8l-65.8-0.2
			c-2.4,0-3.4-1.6-2.2-3.7l32.9-56.9c1.1-2.1,3.1-2.1,4.4,0L250.2,209z M170.4,252.8c0,2.4-1,2.7-2.1,0.6l-30.3-52.8
			c-1.3-2.1-0.4-2.8,1.5-1.6l27.1,15.8c1.1,0.7,2.1,1.7,2.7,2.9c0.7,1.2,1,2.5,1.1,3.8L170.4,252.8z M168.5,209.8l-32.5-19
			c-0.5-0.3-0.9-0.7-1.3-1.1c-0.3-0.5-0.6-1-0.8-1.5c-0.1-0.6-0.2-1.1-0.1-1.7c0.1-0.6,0.3-1.1,0.6-1.6l35-60.5
			c0.3-0.5,0.7-1,1.1-1.3c0.5-0.4,1-0.6,1.6-0.8c0.6-0.2,1.2-0.2,1.7-0.1c0.6,0.1,1.1,0.3,1.6,0.6l32.5,19c1,0.6,1.7,1.5,2,2.6
			c0.3,1.1,0.1,2.3-0.4,3.3l-35.1,60.4c-0.6,1-1.5,1.7-2.6,2c-1.1,0.3-2.3,0.1-3.3-0.4V209.8z M254.3,260.3c0,1.2-0.5,2.3-1.3,3.1
			c-0.8,0.9-1.9,1.4-3,1.5l-69.8-0.3c-1.2,0-2.3-0.5-3.1-1.3c-0.8-0.8-1.3-1.9-1.3-3.1l0.2-37.5c0-1.2,0.5-2.3,1.3-3.1
			c0.8-0.8,1.9-1.3,3.1-1.3h69.8c1.2,0,2.3,0.5,3.1,1.3c0.8,0.8,1.3,1.9,1.3,3.1L254.3,260.3z M292.3,201.3l-30.5,52.6
			c-1.1,2.1-2.1,1.7-2.2-0.7v-31.4c0-1.3,0.4-2.6,1-3.7c0.7-1.1,1.6-2.1,2.7-2.7l27.2-15.6c2.1-1.7,2.8-0.8,1.7,1.3V201.3z
			 M294.3,191.2L261.7,210c-1,0.6-2.2,0.8-3.3,0.5c-1.1-0.3-2.1-1-2.7-2l-34.8-60.7c-0.6-1-0.8-2.2-0.5-3.3c0.3-1.1,1-2.1,2-2.7
			l32.7-18.8c0.5-0.3,1-0.5,1.6-0.6c0.6-0.1,1.1-0.1,1.7,0.1c0.6,0.1,1.1,0.4,1.5,0.7c0.5,0.3,0.8,0.8,1.1,1.3l34.8,60.6
			c0.3,0.5,0.5,1,0.6,1.6c0.1,0.6,0.1,1.1-0.1,1.7c-0.1,0.5-0.4,1.1-0.7,1.5c-0.3,0.4-0.8,0.8-1.3,1.1V191.2z"/>
		<path class="st12" d="M124.1,449.8c-0.6,0-1.1-0.2-1.5-0.5c-0.4-0.3-0.8-0.8-0.9-1.3s-0.1-1.1,0.1-1.6c0.2-0.5,0.6-0.9,1.1-1.2
			c18.8-11.2,53.4-17.9,92.4-17.9c35.4,0,68.4,6.1,88.4,16.3c0.3,0.1,0.6,0.4,0.8,0.6c0.2,0.3,0.4,0.5,0.5,0.9
			c0.1,0.3,0.1,0.6,0.1,1c0,0.3-0.1,0.7-0.3,0.9c-0.2,0.3-0.4,0.6-0.6,0.8c-0.3,0.2-0.5,0.4-0.9,0.5c-0.3,0.1-0.6,0.1-1,0.1
			c-0.3,0-0.7-0.1-0.9-0.3c-19.3-9.9-51.5-15.8-86.1-15.8c-38.2,0-71.7,6.4-89.8,17.2C124.9,449.6,124.5,449.8,124.1,449.8
			L124.1,449.8z"/>
		<path class="st12" d="M256.5,107c2.3,0,4.6,0.6,6.6,1.7c2,1.1,3.7,2.8,4.8,4.8l41.3,71.6c1.2,2,1.8,4.2,1.8,6.5
			c0,2.3-0.6,4.6-1.8,6.5l-41.3,71.5c-1.1,2-2.8,3.7-4.8,4.9c-2,1.2-4.3,1.8-6.6,1.8h-82.6c-2.3,0-4.6-0.7-6.6-1.8
			c-2-1.2-3.6-2.9-4.8-4.9l-41.3-71.5c-1.2-2-1.8-4.2-1.8-6.5c0-2.3,0.6-4.6,1.8-6.5l41.3-71.6c1.2-2,2.8-3.6,4.8-4.8
			c2-1.1,4.3-1.7,6.6-1.7H256.5z M256.5,101.9h-82.6c-3.2,0-6.3,0.8-9.1,2.4c-2.8,1.6-5,3.9-6.6,6.6l-41.3,71.6
			c-1.6,2.8-2.4,5.9-2.4,9.1c0,3.2,0.8,6.3,2.4,9.1l41.3,71.5c1.6,2.8,3.9,5,6.7,6.6c2.8,1.6,5.9,2.4,9.1,2.4h82.6
			c3.2,0,6.3-0.8,9.1-2.4c2.8-1.6,5-3.9,6.6-6.6l41.2-71.6c1.6-2.8,2.4-5.9,2.4-9.1c0-3.2-0.8-6.3-2.4-9.1L272.2,111
			c-1.6-2.7-3.9-5-6.7-6.6C262.8,102.8,259.7,101.9,256.5,101.9z"/>
		<path class="st12" d="M242.4,222.1c-0.6-0.4-1.2-0.5-1.9-0.4c-0.7,0.1-1.2,0.5-1.6,1.1c-2.2,2.5-5.2,4.2-8.5,4.7
			c-2.6,0.6-5.4,0.6-8,0c-1.6-0.4-2.8-1.2-2.9-2c-0.1-0.2-0.1-0.3-0.2-0.5v-11.9h3.1c2.8,0,5.4-1.1,7.4-3.1c2-2,3-4.6,3-7.4v-13.8
			c0-4.2-1.7-8.2-4.6-11.2c-3-3-7-4.6-11.2-4.6l0,0c-4.2,0-8.2,1.7-11.2,4.6c-3,3-4.6,7-4.6,11.2v14.8c0,2.6,1,5,2.8,6.9
			c1.8,1.8,4.3,2.8,6.9,2.8h3.4v12c-0.1,0.2-0.1,0.3-0.2,0.5c-0.4,1.7-5,3.4-11,1.9c-3.3-0.6-6.3-2.2-8.5-4.7
			c-0.4-0.5-0.9-0.9-1.6-1c-0.6-0.1-1.3,0-1.8,0.3c-0.5,0.4-0.9,0.9-1,1.6c-0.1,0.6,0,1.3,0.4,1.8c2.9,3.6,7,5.9,11.5,6.7
			c1.9,0.4,3.8,0.6,5.7,0.6c3.3,0.2,6.6-0.8,9.2-2.8c1.3,1.1,2.7,1.8,4.3,2.2c1.6,0.4,3.3,0.6,4.9,0.6c1.9,0,3.8-0.2,5.6-0.6
			c4.5-0.8,8.6-3.2,11.5-6.7c0.2-0.3,0.3-0.6,0.4-0.9c0.1-0.3,0.1-0.7,0-1c-0.1-0.3-0.2-0.6-0.4-0.9
			C242.9,222.5,242.7,222.2,242.4,222.1L242.4,222.1z"/>
		<path class="st12" d="M180.3,381.2l6.1,6.7c0.5,0.4,0.8,1,1,1.7c0.2,0.6,0.1,1.3-0.1,1.9c-0.2,0.6-0.6,1.2-1.1,1.6
			c-0.5,0.4-1.1,0.6-1.8,0.7l-6.5,1L180.3,381.2z"/>
		<path class="st12" d="M174.9,397.9l1.4,8.8c0.2,0.6,0.1,1.3-0.1,1.9c-0.2,0.6-0.6,1.2-1.1,1.6c-0.5,0.4-1.1,0.6-1.8,0.7
			c-0.7,0.1-1.3-0.1-1.9-0.4l-6-2.7L174.9,397.9z"/>
		<path class="st12" d="M160,408.8l-3,7.1c-0.2,0.5-0.6,0.9-1,1.2c-0.4,0.3-1,0.5-1.5,0.6s-1.1-0.1-1.6-0.3c-0.5-0.2-0.9-0.6-1.2-1
			l-3.1-4.7L160,408.8z"/>
		<path class="st12" d="M249.8,381.2l-6.1,6.7c-0.5,0.4-0.8,1-1,1.7c-0.2,0.6-0.1,1.3,0.1,1.9c0.2,0.6,0.6,1.2,1.1,1.6
			c0.5,0.4,1.1,0.6,1.8,0.7l6.5,1L249.8,381.2z"/>
		<path class="st12" d="M255.2,397.9l-1.4,8.8c-0.2,0.6-0.1,1.3,0.1,1.9c0.2,0.6,0.6,1.2,1.1,1.6c0.5,0.4,1.2,0.6,1.8,0.7
			c0.7,0,1.3-0.1,1.9-0.4l6-2.7L255.2,397.9z"/>
		<path class="st12" d="M270.1,408.8l3,7.1c0.2,0.5,0.6,0.9,1,1.2c0.4,0.3,1,0.5,1.5,0.6c0.5,0,1.1-0.1,1.6-0.3
			c0.5-0.2,0.9-0.6,1.2-1l3.1-4.7L270.1,408.8z"/>
		<path class="st29" d="M228.5,191.3c-2.3-2.4-5.2-4.2-8.4-5.1c-3.8-0.4-7.2-1.2-5.8-5c1.4-3.8,9.1-1.7,11.4,0.7
			C227.7,184.6,228.8,188,228.5,191.3z"/>
		<path class="st12" d="M125.3,173c-0.2,0-0.5,0-0.7,0c-5-1.5-21.8-7.7-28.1-22.7c-3.7-8.7-2.8-18.4,2.6-28.7
			c6.2-11.9,14.3-18.6,23.9-20c17.4-2.5,33.3,13.5,33.9,14.2c0.2,0.2,0.4,0.5,0.5,0.8c0.1,0.3,0.2,0.6,0.2,1c0,0.3-0.1,0.7-0.2,1
			c-0.1,0.3-0.3,0.6-0.6,0.8c-0.2,0.2-0.5,0.4-0.8,0.5c-0.3,0.1-0.6,0.2-1,0.2c-0.3,0-0.7-0.1-1-0.2c-0.3-0.1-0.6-0.3-0.8-0.6
			c0-0.2-14.8-14.9-29.6-12.7c-7.9,1.1-14.7,7-20.2,17.3c-4.7,8.9-5.5,17.1-2.5,24.4c4.3,10.3,15.7,17,24.9,19.8
			c0.3,0.1,0.6,0.3,0.9,0.5s0.5,0.5,0.6,0.8c0.2,0.3,0.3,0.6,0.3,0.9c0,0.3,0,0.7-0.1,1c-0.2,0.5-0.5,0.9-0.9,1.2
			C126.3,172.8,125.8,173,125.3,173L125.3,173z"/>
		<path class="st12" d="M304.4,172.5c-0.5,0-1-0.2-1.5-0.5c-0.4-0.3-0.7-0.7-0.9-1.2c-0.1-0.3-0.2-0.7-0.2-1c0-0.4,0.1-0.7,0.2-1
			c0.1-0.3,0.4-0.6,0.6-0.8c0.3-0.2,0.6-0.4,0.9-0.5c11.4-3.9,20.2-11.2,23.5-19.7c2.9-7.2,2-15.3-2.6-24.1
			c-5.5-10.4-12.2-16.2-20.2-17.3c-14.9-2.2-29.5,12.5-29.6,12.7c-0.5,0.5-1.1,0.7-1.8,0.7c-0.7,0-1.3-0.3-1.8-0.7
			c-0.5-0.5-0.7-1.1-0.7-1.8c0-0.7,0.3-1.3,0.7-1.8c0.7-0.7,16.5-16.8,33.9-14.2c9.6,1.4,17.6,8.1,23.9,20
			c5.3,10.1,6.3,19.6,2.8,28.3c-3.9,9.8-13.9,18.2-26.6,22.6C305,172.3,304.7,172.4,304.4,172.5L304.4,172.5z"/>
	</g>
</g>
</svg>
