<?xml version="1.0" encoding="UTF-8"?>
<svg id="Layer_1" xmlns="http://www.w3.org/2000/svg" xmlns:xlink="http://www.w3.org/1999/xlink" version="1.1" viewBox="0 0 1160 408.4">
  <!-- Generator: Adobe Illustrator 29.1.0, SVG Export Plug-In . SVG Version: 2.1.0 Build 142)  -->
  <defs>
    <style>
      .st0 {
        fill: #5ee4e4;
      }

      .st1 {
        isolation: isolate;
      }

      .st2 {
        fill: #fff;
      }

      .st3 {
        fill: #d30971;
      }

      .st4 {
        fill: url(#linear-gradient);
      }

      .st4, .st5, .st6, .st7, .st8, .st9, .st10, .st11, .st12 {
        fill-rule: evenodd;
      }

      .st5 {
        fill: url(#linear-gradient1);
      }

      .st6 {
        fill: url(#linear-gradient2);
      }

      .st7 {
        fill: url(#linear-gradient4);
      }

      .st8 {
        fill: url(#linear-gradient5);
      }

      .st9 {
        fill: url(#linear-gradient3);
      }

      .st10 {
        fill: url(#linear-gradient6);
      }

      .st11, .st13 {
        fill: #020a47;
      }

      .st12 {
        fill: #d30973;
      }
    </style>
    <linearGradient id="linear-gradient" x1="803.7" y1="2040.5" x2="872" y2="2019.1" gradientTransform="translate(0 -1795.2)" gradientUnits="userSpaceOnUse">
      <stop offset="0" stop-color="#d30971"/>
      <stop offset=".8" stop-color="#8e2aff"/>
    </linearGradient>
    <linearGradient id="linear-gradient1" x1="806.7" y1="2093.4" x2="862.6" y2="2093.4" gradientTransform="translate(0 -1795.2)" gradientUnits="userSpaceOnUse">
      <stop offset="0" stop-color="#d30971"/>
      <stop offset="1" stop-color="#8e2aff"/>
    </linearGradient>
    <linearGradient id="linear-gradient2" x1="735.1" y1="2088.7" x2="836.5" y2="2088.7" gradientTransform="translate(0 -1795.2)" gradientUnits="userSpaceOnUse">
      <stop offset="0" stop-color="#d30971"/>
      <stop offset="1" stop-color="#8e2aff"/>
    </linearGradient>
    <linearGradient id="linear-gradient3" x1="723.7" y1="2051.2" x2="805.9" y2="2051.2" gradientTransform="translate(0 -1795.2)" gradientUnits="userSpaceOnUse">
      <stop offset="0" stop-color="#d30971"/>
      <stop offset="1" stop-color="#8e2aff"/>
    </linearGradient>
    <linearGradient id="linear-gradient4" x1="703.3" y1="1990.1" x2="803.2" y2="1990.1" gradientTransform="translate(0 -1795.2)" gradientUnits="userSpaceOnUse">
      <stop offset="0" stop-color="#d30971"/>
      <stop offset="1" stop-color="#8e2aff"/>
    </linearGradient>
    <linearGradient id="linear-gradient5" x1="743.9" y1="2027.5" x2="824" y2="2027.5" gradientTransform="translate(0 -1795.2)" gradientUnits="userSpaceOnUse">
      <stop offset="0" stop-color="#d30971"/>
      <stop offset="1" stop-color="#8e2aff"/>
    </linearGradient>
    <linearGradient id="linear-gradient6" x1="736" y1="2002.3" x2="801.7" y2="1971.2" gradientTransform="translate(0 -1795.2)" gradientUnits="userSpaceOnUse">
      <stop offset="0" stop-color="#d30971"/>
      <stop offset="1" stop-color="#8e2aff"/>
    </linearGradient>
  </defs>
  <path class="st12" d="M175,274.3l43-9.9c.6-.2,1.3-.4,1.8-.8.6-.4,1-.9,1.4-1.4.3-.6.6-1.2.6-1.9.1-.6,0-1.4-.2-2l-18.3-79.4c-.3-1.3-1.2-2.4-2.3-3.1-1.1-.7-2.6-.9-3.8-.6l-43,9.9c-1.3.3-2.4,1.2-3.1,2.3-.7,1.1-.9,2.6-.6,3.8l18.3,79.4c.3,1.3,1.2,2.4,2.3,3.1,1.2.6,2.5.9,3.9.6h0Z"/>
  <path class="st12" d="M160.2,323.3l52.2-48.3c2-2,1.4-3.2-1.2-2.2l-35.8,8.2c-1.4.4-2.9,1.1-4,2.2-1.1,1-2,2.3-2.5,3.8l-10.9,35c-.8,2.5.2,3.2,2.2,1.3Z"/>
  <path class="st12" d="M64.9,307.5l78.2,24.1c1.4.2,2.7,0,3.9-.6s2.1-1.8,2.6-3l13.1-41.9c.2-.6.2-1.4.2-2-.1-.6-.3-1.4-.6-1.9-.3-.6-.8-1.1-1.3-1.5-.6-.4-1.1-.7-1.8-1l-78.2-24c-1.4-.4-2.7-.2-3.9.5-1.2.6-2.1,1.8-2.5,3.1l-13.1,41.8c-.4,1.3-.2,2.7.4,3.9.6,1.2,1.8,2.1,3,2.5Z"/>
  <path class="st12" d="M39.7,221.7l15.9,69.3c.5,2.7,1.8,2.7,2.5,0l10.9-35c.4-1.5.4-3,0-4.6-.3-1.5-1-2.9-2-4.1l-25-26.9c-1.8-1.9-3.2-1.4-2.4,1.3h.1Z"/>
  <path class="st12" d="M100.8,147.6l-59.9,55.4c-1,.9-1.5,2.2-1.6,3.5,0,1.4.4,2.6,1.3,3.6l29.9,32.4c1,1,2.2,1.5,3.5,1.6s2.6-.4,3.6-1.4l60-55.6c1-.9,1.5-2.2,1.6-3.5.1-1.4-.4-2.6-1.4-3.6l-29.8-32.2c-.5-.5-1-.9-1.6-1.1-.6-.2-1.3-.4-1.9-.4s-1.4.1-1.9.3c-.7.2-1.3.5-1.8,1Z"/>
  <path class="st12" d="M158.7,273c2.7.7,4.4-.7,3.7-3.5l-17.3-75c-.7-2.7-3-3.4-5-1.5l-56.4,52.3c-2,2-1.5,4.2,1.2,4.9l73.8,22.8h0Z"/>
  <path class="st12" d="M188.1,168.5l-68.2-20.9c-2.7-.7-3.2.2-1,2.5l25,26.9c1.1,1,2.5,1.8,3.9,2.2s3,.5,4.6.2l35.8-8.2c2.6-.8,2.6-2-.1-2.7Z"/>
  <path class="st4" d="M859.1,274l43-9.9c.7-.2,1.3-.4,1.8-.7.6-.3,1-.9,1.4-1.4.4-.6.6-1.2.7-1.9,0-.7,0-1.4-.2-2l-18.3-79.4c-.3-1.3-1.1-2.4-2.3-3.1-1.1-.7-2.6-.9-3.8-.6l-43,9.9c-1.3.3-2.4,1.1-3.1,2.3-.7,1.1-.9,2.5-.6,3.8l18.3,79.4c.3,1.3,1.1,2.4,2.3,3.1s2.5.8,3.8.5h0Z"/>
  <path class="st5" d="M844.4,323.1l52.2-48.3c2-2,1.4-3.2-1.2-2.2l-35.9,8.1c-1.5.4-2.8,1-3.9,2.2-1.1,1-2,2.3-2.4,3.8l-10.9,35c-.9,2.7,0,3.4,2.1,1.4h0Z"/>
  <path class="st6" d="M749.2,307.3l78.2,24.2c1.4.2,2.7,0,3.8-.7,1.2-.7,2.1-1.8,2.5-3l13.1-41.8c.2-.7.2-1.4.2-2.1s-.3-1.4-.6-1.9c-.3-.6-.7-1.1-1.3-1.5-.6-.5-1.1-.7-1.8-.9l-78.1-24c-1.3-.4-2.7-.2-3.9.5-1.2.7-2.2,1.8-2.5,3.1l-13,41.8c-.4,1.3-.2,2.7.4,3.9.5,1.1,1.6,2,3,2.4h0Z"/>
  <path class="st9" d="M724,221.5l15.8,69.4c.6,2.7,1.8,2.7,2.4,0l10.9-35c.4-1.5.4-3,0-4.6-.3-1.5-1-2.9-2-4.1l-25-27c-1.8-2-3.1-1.4-2.2,1.3h0Z"/>
  <path class="st7" d="M785,147.4l-59.9,55.4c-1,.9-1.5,2.2-1.6,3.5s.5,2.6,1.3,3.6l30.1,32.4c.9,1,2.2,1.5,3.6,1.6,1.4.1,2.6-.5,3.7-1.4l59.8-55.5c1-.9,1.5-2.2,1.6-3.5s-.5-2.6-1.4-3.6l-29.9-32.4c-.5-.5-1-.9-1.6-1.1-.6-.3-1.3-.5-2-.5s-1.4.1-2,.4c-.7.3-1.2.7-1.7,1.1h0Z"/>
  <path class="st8" d="M842.9,272.8c2.7.7,4.5-.7,3.7-3.6l-17.3-75c-.7-2.7-3-3.4-5-1.5l-56.4,52.3c-2,2-1.5,4.2,1.2,5l73.8,22.8Z"/>
  <path class="st10" d="M872.3,168.3l-68.3-20.9c-2.7-.7-3.2.2-1,2.4l25,26.9c1.1,1,2.5,1.8,3.9,2.2s3,.5,4.6.2l35.9-8.1c2.7-.7,2.7-2,0-2.7h0Z"/>
  <path class="st2" d="M297.9,139.8h121.6c21,0,38,17,38,38v121.6c0,21-17,38-38,38h-121.6c-21,0-38-17-38-38v-121.6c0-20.9,17.1-38,38-38h0Z"/>
  <path class="st11" d="M400.7,272.5l40.9-9.4c.6-.2,1.2-.4,1.8-.7.6-.4,1-.9,1.3-1.4.3-.6.6-1.2.6-1.8.1-.6,0-1.3-.2-1.9l-17.4-75.4c-.3-1.3-1.1-2.3-2.2-3-1.1-.6-2.4-.9-3.7-.6l-40.9,9.4c-1.2.3-2.3,1.1-3,2.2-.6,1.1-.9,2.4-.6,3.7l17.3,75.4c.3,1.3,1.1,2.3,2.2,3,1.4.6,2.7.8,3.9.5h0Z"/>
  <path class="st11" d="M386.7,319.1l49.5-45.9c1.8-1.9,1.4-3-1.2-2.1l-34.1,7.8c-1.4.3-2.7,1-3.8,2-1,1-1.8,2.2-2.3,3.6l-10.3,33.3c-.7,2.5.3,3.2,2.2,1.3h0Z"/>
  <path class="st11" d="M296.2,304.1l74.2,22.9c1.3.2,2.6,0,3.7-.6s2-1.7,2.4-2.9l12.4-39.8c.2-.6.2-1.3.2-1.9-.1-.6-.2-1.3-.6-1.8-.3-.6-.7-1-1.2-1.4s-1.1-.7-1.7-.9l-74.2-22.7c-1.3-.3-2.6-.2-3.8.4-1.1.6-2,1.7-2.3,3l-12.3,39.6c-.4,1.3-.2,2.6.4,3.7.6,1.2,1.6,2.1,2.8,2.4h0Z"/>
  <path class="st11" d="M272.2,222.5l15.1,65.9c.5,2.6,1.7,2.6,2.3,0l10.3-33.3c.3-1.4.4-2.9.1-4.3s-1-2.7-1.9-3.8l-23.7-25.7c-1.7-1.8-2.9-1.3-2.2,1.2h0Z"/>
  <path class="st11" d="M330.3,152.2l-56.8,52.7c-.9.9-1.4,2.1-1.5,3.3-.1,1.3.4,2.5,1.3,3.4l28.5,30.8c.9,1,2.1,1.4,3.4,1.5s2.5-.4,3.4-1.3l56.8-52.7c.9-.9,1.4-2.1,1.5-3.3.1-1.3-.4-2.5-1.3-3.4l-28.4-30.7c-.4-.5-1-.8-1.5-1.1-.6-.2-1.2-.4-1.8-.4s-1.3.1-1.8.3c-.8,0-1.3.4-1.8.9h0Z"/>
  <path class="st11" d="M385.3,271.3c2.6.7,4.2-.7,3.5-3.4l-16.4-71.2c-.7-2.6-2.8-3.3-4.7-1.4l-53.5,49.8c-1.9,1.8-1.4,4,1.1,4.6l70,21.6h0Z"/>
  <path class="st11" d="M413.3,172l-64.9-19.9c-2.6-.7-3,.2-1,2.3l23.7,25.6c1,1,2.3,1.7,3.8,2.1,1.4.4,2.9.5,4.3.2l34.1-7.7c2.5-.7,2.5-1.9,0-2.6h0Z"/>
  <path class="st0" d="M526,139.8h121.6c21,0,38,17,38,38v121.6c0,21-17,38-38,38h-121.6c-21,0-38-17-38-38v-121.6c0-20.9,17-38,38-38h0Z"/>
  <path class="st11" d="M628.8,272.5l40.9-9.4c.6-.2,1.2-.4,1.8-.7.6-.4,1-.9,1.3-1.4.3-.6.6-1.2.6-1.8s0-1.3-.2-1.9l-17.4-75.4c-.3-1.3-1.1-2.3-2.2-3-1.1-.6-2.4-.9-3.7-.6l-40.9,9.4c-1.2.3-2.3,1.1-3,2.2-.6,1.1-.9,2.4-.6,3.7l17.3,75.4c.3,1.3,1.1,2.3,2.2,3,1.3.6,2.6.8,3.9.5h0Z"/>
  <path class="st11" d="M614.7,319.1l49.5-45.9c1.8-1.9,1.4-3-1.2-2.1l-34.1,7.8c-1.4.3-2.7,1-3.8,2-1,1-1.8,2.2-2.3,3.6l-10.3,33.3c-.6,2.5.4,3.2,2.2,1.3h0Z"/>
  <path class="st11" d="M524.3,304.1l74.2,22.9c1.3.2,2.6,0,3.7-.6,1.1-.6,2-1.7,2.4-2.9l12.4-39.8c.2-.6.2-1.3.2-1.9s-.2-1.3-.6-1.8c-.3-.6-.7-1-1.2-1.4s-1.1-.7-1.7-.9l-74.2-22.7c-1.3-.3-2.6-.2-3.8.4-1.1.6-2,1.7-2.3,3l-12.3,39.6c-.4,1.3-.2,2.6.4,3.7.5,1.2,1.5,2.1,2.8,2.4h0Z"/>
  <path class="st11" d="M500.3,222.5l15.1,65.9c.5,2.6,1.7,2.6,2.3,0l10.3-33.3c.3-1.4.4-2.9,0-4.3s-1-2.7-1.9-3.8l-23.7-25.7c-1.7-1.8-3-1.3-2.2,1.2h.1Z"/>
  <path class="st11" d="M558.3,152.2l-56.8,52.7c-.9.9-1.4,2.1-1.5,3.3-.1,1.3.4,2.5,1.3,3.4l28.5,30.8c.9,1,2.1,1.4,3.4,1.5,1.3.1,2.5-.4,3.4-1.3l56.8-52.7c.9-.9,1.4-2.1,1.5-3.3,0-1.3-.4-2.5-1.3-3.4l-28.4-30.7c-.4-.5-1-.8-1.5-1.1-.6-.2-1.2-.4-1.8-.4s-1.3.1-1.8.3c-.8,0-1.3.4-1.8.9h0Z"/>
  <path class="st11" d="M613.3,271.3c2.6.7,4.2-.7,3.5-3.4l-16.4-71.2c-.7-2.6-2.8-3.3-4.7-1.4l-53.5,49.8c-1.9,1.8-1.4,4,1.1,4.6l70,21.6h0Z"/>
  <path class="st11" d="M641.2,172l-64.9-19.9c-2.6-.7-3,.2-1,2.3l23.7,25.6c1,1,2.3,1.7,3.8,2.1s2.9.5,4.3.2l34.1-7.7c2.7-.7,2.7-1.9,0-2.6h0Z"/>
  <path class="st13" d="M95.7,98.1h2.2l4.6-16.2h-2.2l-3.6,13.5-3.7-13.5h-1.7l-3.7,13.5-3.6-13.5h-2.2l4.6,16.2h2.2l3.5-13.1s3.6,13.1,3.6,13.1ZM102.2,92.2c0,3.7,2.5,6.2,6,6.2s3.5-.6,4.6-1.8l-.9-1.2c-1,1-2.3,1.5-3.6,1.5-2.6,0-4.1-1.8-4.2-4.1h9.5v-.5c0-3.5-2.1-6.3-5.6-6.3s-5.8,2.8-5.8,6.2ZM108,87.6c2.6,0,3.8,2.2,3.8,3.9h-7.7c0-1.9,1.4-3.9,3.9-3.9ZM115.9,98.1h1.8v-1.8c.9,1.2,2.3,2,3.9,2,3,0,5.2-2.3,5.2-6.2s-2.2-6.2-5.2-6.2-3,.8-3.9,2.1v-6.3h-1.8v16.4ZM117.7,94.8v-5.3c.6-1,2.1-1.9,3.5-1.9,2.4,0,3.8,1.9,3.8,4.6s-1.4,4.5-3.8,4.5-2.9-.8-3.5-1.9ZM128,96.5c1.2,1.3,2.8,1.8,4.7,1.8,3,0,4.6-1.6,4.6-3.5s-2.3-3.2-4.4-3.7c-1.5-.4-2.9-.7-2.9-1.8s1-1.8,2.6-1.8,2.8.6,3.5,1.5l.9-1.3c-1-1-2.3-1.7-4.3-1.7s-4.4,1.5-4.4,3.4,2.2,3,4.2,3.4c1.6.4,3,.8,3,2.1s-1,1.9-2.8,1.9-3.1-.8-3.8-1.7l-.9,1.4h0ZM140.5,84.3c.6,0,1.2-.6,1.2-1.2s-.6-1.2-1.2-1.2-1.2.6-1.2,1.2.6,1.2,1.2,1.2ZM139.7,98.1h1.8v-11.8h-1.8v11.8ZM147.3,98.4c1,0,1.8-.3,2.2-.7l-.6-1.4c-.2.2-.7.5-1.2.5-.8,0-1.2-.6-1.2-1.5v-7.3h2.4v-1.6h-2.4v-3.2h-1.8v3.2h-1.9v1.6h1.9v7.7c0,1.6.9,2.7,2.6,2.7ZM150.1,92.2c0,3.7,2.5,6.2,6,6.2s3.5-.6,4.6-1.8l-.9-1.2c-1,1-2.3,1.5-3.6,1.5-2.6,0-4.1-1.8-4.2-4.1h9.5v-.5c0-3.5-2.1-6.3-5.6-6.3s-5.8,2.8-5.8,6.2ZM155.8,87.6c2.6,0,3.8,2.2,3.8,3.9h-7.7c.2-1.9,1.4-3.9,3.9-3.9Z"/>
  <path class="st13" d="M323.6,87.4v-16.2h-2v16.2s2,0,2,0ZM336.2,87.4v-8.3c0-2.6-1.3-3.8-3.8-3.8s-3.4,1-4.2,2v-1.7h-1.8v11.8h1.8v-8.7c.6-1,2-1.8,3.4-1.8s2.6.6,2.6,2.7v7.7h2ZM342.1,87.7c1,0,1.8-.3,2.2-.7l-.6-1.4c-.2.2-.7.5-1.2.5-.8,0-1.2-.6-1.2-1.5v-7.3h2.4v-1.6h-2.4v-3.2h-1.8v3.2h-1.9v1.6h1.9v7.7c0,1.7.9,2.7,2.6,2.7ZM344.8,81.5c0,3.7,2.5,6.2,6,6.2s3.5-.6,4.6-1.8l-.9-1.2c-1,1-2.3,1.5-3.6,1.5-2.6,0-4.1-1.8-4.2-4.1h9.5v-.5c0-3.5-2.1-6.3-5.6-6.3-3.3,0-5.8,2.8-5.8,6.2ZM350.6,76.9c2.6,0,3.8,2.2,3.8,3.9h-7.7c.2-1.8,1.4-3.9,3.9-3.9h0ZM360.3,87.4v-8.3c.6-1,2.1-1.8,3.2-1.8s.5,0,.7,0v-1.8c-1.6,0-3,.9-3.9,2.2v-1.9h-1.8v11.8l1.8-.3h0ZM375.5,87.4v-8.3c0-2.6-1.3-3.8-3.8-3.8s-3.4,1-4.2,2v-1.7h-1.8v11.8h1.8v-8.7c.6-1,2-1.8,3.4-1.8s2.6.6,2.6,2.7v7.7h2ZM387.5,87.4v-8.1c0-2.8-2.1-3.9-4.6-3.9s-3.4.6-4.7,1.9l.9,1.3c1-1.1,2.2-1.6,3.6-1.6s3,.9,3,2.5v2.1c-1-1.1-2.3-1.6-3.9-1.6s-4.1,1.2-4.1,3.8,2.1,3.9,4.1,3.9,2.9-.6,3.9-1.6v1.4h1.8ZM385.7,84.9c-.7,1-1.9,1.4-3.2,1.4s-2.9-1-2.9-2.6,1.2-2.6,2.9-2.6,2.6.5,3.2,1.4c0,0,0,2.4,0,2.4ZM392.3,87.4v-16.2h-1.8v16.2s1.8,0,1.8,0ZM307.5,123.9v-16.2h-2.9l-5.1,12.3-5.1-12.3h-2.9v16.2h2v-13.5l5.5,13.5h.8l5.5-13.5v13.5s2.2,0,2.2,0ZM319.6,123.9v-8c0-2.8-2.1-3.9-4.6-3.9s-3.4.6-4.7,1.9l.9,1.3c1-1.1,2.2-1.6,3.6-1.6s3,.9,3,2.5v2.1c-1-1.1-2.3-1.6-3.9-1.6s-4.1,1.2-4.1,3.8,2.1,3.9,4.1,3.9,2.9-.6,3.9-1.6v1.4h1.8v-.2h0ZM317.8,121.4c-.7,1-1.9,1.4-3.2,1.4s-2.9-1-2.9-2.6,1.2-2.6,2.9-2.6,2.6.5,3.2,1.4c0,0,0,2.4,0,2.4ZM324.4,123.9v-8.3c.6-1,2.1-1.8,3.2-1.8s.5,0,.7,0v-1.9c-1.6,0-3,.9-3.9,2.2v-1.9h-1.8v11.6h1.8,0ZM340.1,123.9l-5.2-6.4,5.2-5.3h-2.3l-6.2,6.3v-10.7h-1.8v16.2h1.8v-3.4l1.9-1.9,4.2,5.3h2.4ZM340.2,118c0,3.7,2.5,6.2,6,6.2s3.5-.6,4.6-1.8l-.9-1.2c-1,1-2.3,1.5-3.6,1.5-2.6,0-4.1-1.8-4.2-4.1h9.5v-.5c0-3.5-2.1-6.3-5.6-6.3s-5.8,2.8-5.8,6.2ZM346,113.4c2.6,0,3.8,2.2,3.8,3.9h-7.7c.2-1.8,1.4-3.9,3.9-3.9h0ZM356.8,124.2c1,0,1.8-.3,2.2-.7l-.6-1.4c-.2.2-.7.5-1.2.5-.8,0-1.2-.6-1.2-1.5v-7.3h2.4v-1.6h-2.4v-3.2h-1.8v3.2h-1.9v1.6h1.9v7.7c0,1.7.9,2.7,2.6,2.7ZM362.1,122.1c1,1.3,2.3,2.1,3.9,2.1,3.1,0,5.2-2.4,5.2-6.2s-2.2-6.2-5.2-6.2-3.1.9-3.9,2v-1.8h-1.8v16.2h1.8v-6.1ZM369.4,118c0,2.6-1.4,4.6-3.8,4.6s-2.9-.9-3.5-1.9v-5.3c.6-1,2.1-1.8,3.5-1.8,2.4-.2,3.8,1.8,3.8,4.4ZM375.3,123.9v-16.2h-1.8v16.2s1.8,0,1.8,0ZM387.4,123.9v-8c0-2.8-2.1-3.9-4.6-3.9s-3.4.6-4.7,1.9l.9,1.2c1-1.1,2.2-1.6,3.6-1.6s3,.9,3,2.5v2.1c-1-1.1-2.3-1.6-3.9-1.6s-4.1,1.2-4.1,3.8,2.1,3.9,4.1,3.9,2.9-.6,3.9-1.6v1.4h1.8ZM385.5,121.4c-.7,1-1.9,1.4-3.2,1.4s-2.9-1-2.9-2.6,1.2-2.6,2.9-2.6,2.6.5,3.2,1.4c0,0,0,2.4,0,2.4ZM389.6,118c0,3.5,2.3,6.2,5.9,6.2s3.4-.9,4.3-2l-1.2-1.1c-.8,1-1.8,1.5-3,1.5-2.5,0-4.1-1.9-4.1-4.6s1.5-4.5,4.1-4.5,2.2.5,3,1.5l1.2-1.1c-.9-1.2-2.2-2-4.3-2-3.6,0-5.9,2.6-5.9,6.1ZM400.8,118c0,3.7,2.5,6.2,6,6.2s3.5-.6,4.6-1.8l-.9-1.2c-1,1-2.3,1.5-3.6,1.5-2.6,0-4.1-1.8-4.2-4.1h9.5v-.5c0-3.5-2.1-6.3-5.6-6.3s-5.8,2.8-5.8,6.2ZM406.6,113.4c2.6,0,3.8,2.2,3.8,3.9h-7.7c.1-1.8,1.4-3.9,3.9-3.9h0ZM413.4,122.3c1.2,1.3,2.8,1.8,4.7,1.8,3,0,4.6-1.6,4.6-3.5s-2.3-3.2-4.4-3.7c-1.5-.4-2.9-.7-2.9-1.8s1-1.8,2.6-1.8,2.8.6,3.5,1.5l.9-1.3c-1-1-2.3-1.7-4.3-1.7s-4.4,1.5-4.4,3.4,2.2,3,4.2,3.4c1.6.4,3,.8,3,2.1s-1,1.9-2.8,1.9-3.1-.8-3.8-1.7l-.9,1.4h0Z"/>
  <path class="st13" d="M538.1,87.7c3,0,4.9-1.4,6.3-3.2l-1.8-1c-1,1.4-2.6,2.3-4.5,2.3-3.4,0-6.2-2.7-6.2-6.6s2.7-6.6,6.2-6.6,3.6,1,4.5,2.3l1.7-1c-1.3-1.8-3.3-3.2-6.3-3.2-4.6,0-8.3,3.4-8.3,8.4s3.8,8.6,8.4,8.6h0ZM551.2,87.7c3.6,0,5.9-2.8,5.9-6.2s-2.2-6.2-5.9-6.2-5.9,2.7-5.9,6.2,2.3,6.2,5.9,6.2ZM551.2,86.1c-2.5,0-3.9-2.2-3.9-4.6s1.4-4.5,3.9-4.5,3.9,2.2,3.9,4.5-1.4,4.6-3.9,4.6ZM575.2,87.4v-8.5c0-2.3-1.1-3.5-3.3-3.5s-3.3,1.1-3.9,2.2c-.3-1.2-1.4-2.2-3.1-2.2s-3.3,1.2-3.8,2v-1.7h-1.8v11.8h1.8v-8.7c.6-1,1.9-1.8,3.1-1.8s2.2,1,2.2,2.4v8h1.8v-8.6c.6-1,1.9-1.8,3.1-1.8s2.2,1,2.2,2.4v8s1.7,0,1.7,0ZM594.1,87.4v-8.5c0-2.3-1.1-3.5-3.3-3.5s-3.3,1.1-3.9,2.2c-.3-1.2-1.4-2.2-3.1-2.2s-3.3,1.2-3.8,2v-1.7h-1.8v11.8h1.8v-8.7c.6-1,1.9-1.8,3.1-1.8s2.2,1,2.2,2.4v8h1.8v-8.6c.6-1,1.9-1.8,3.1-1.8s2.2,1,2.2,2.4v8s1.7,0,1.7,0ZM606.7,87.4v-11.7h-1.8v8.7c-.6,1-2,1.8-3.4,1.8s-2.6-.6-2.6-2.6v-7.7h-1.9v8.1c0,2.6,1.3,3.8,3.8,3.8s3.3-1,4.2-1.9v1.7h1.8v-.2h0ZM619.3,87.4v-8.3c0-2.6-1.3-3.8-3.8-3.8s-3.4,1-4.2,2v-1.7h-1.8v11.8h1.8v-8.7c.6-1,2-1.8,3.4-1.8s2.6.6,2.6,2.7v7.7h2ZM623.1,73.7c.6,0,1.2-.6,1.2-1.2s-.6-1.2-1.2-1.2-1.2.6-1.2,1.2.6,1.2,1.2,1.2ZM624.1,87.4v-11.7h-1.8v11.8h1.8ZM629.9,87.7c1,0,1.8-.3,2.2-.7l-.6-1.4c-.2.2-.7.5-1.2.5-.8,0-1.2-.6-1.2-1.5v-7.3h2.4v-1.6h-2.4v-3.2h-1.8v3.2h-1.9v1.6h1.9v7.7c0,1.7.9,2.7,2.6,2.7ZM632.7,92c.3,0,1,.2,1.4.2,1.5,0,2.7-.6,3.4-2.4l5.9-14.1h-2l-3.9,9.6-3.9-9.6h-2l4.9,11.9-.8,1.8c-.4,1-1,1.2-1.8,1.2s-.7,0-1-.2l-.2,1.6h0ZM523.2,121.6c1.4,1.5,3.4,2.6,6.3,2.6,4.4,0,6-2.4,6-4.7,0-3.4-3-4.2-5.7-5-2.1-.6-3.9-1-3.9-2.6s1.4-2.6,3.4-2.6,3.4.6,4.7,1.9l1.2-1.5c-1.4-1.4-3.3-2.2-5.8-2.2s-5.5,1.8-5.5,4.5,2.9,3.9,5.5,4.6c2.2.6,4.1,1.1,4.1,3s-1,2.8-3.8,2.8-4-1.1-5.1-2.3c0,0-1.4,1.5-1.4,1.5ZM542.6,124.2c3.6,0,5.9-2.8,5.9-6.2s-2.2-6.2-5.9-6.2-5.9,2.7-5.9,6.2c.2,3.4,2.4,6.2,5.9,6.2ZM542.6,122.6c-2.5,0-3.9-2.2-3.9-4.6s1.4-4.5,3.9-4.5,3.9,2.2,3.9,4.5-1.3,4.6-3.9,4.6ZM550,118c0,3.5,2.3,6.2,5.9,6.2s3.4-.9,4.3-2l-1.2-1.1c-.8,1-1.8,1.5-3,1.5-2.5,0-4.1-1.9-4.1-4.6s1.5-4.5,4.1-4.5,2.2.5,3,1.5l1.2-1.1c-.9-1.2-2.2-2-4.3-2-3.5,0-5.9,2.6-5.9,6.1ZM562.9,110.2c.6,0,1.2-.6,1.2-1.2s-.6-1.2-1.2-1.2-1.2.6-1.2,1.2.5,1.2,1.2,1.2ZM563.8,123.9v-11.7h-1.8v11.7h1.8ZM575.8,123.9v-8c0-2.8-2.1-3.9-4.6-3.9s-3.4.6-4.7,1.9l.9,1.3c1-1.1,2.2-1.6,3.6-1.6s3,.9,3,2.5v2.1c-1-1.1-2.3-1.6-3.9-1.6s-4.1,1.2-4.1,3.8,2.1,3.9,4.1,3.9,2.9-.6,3.9-1.6v1.4h1.8v-.2h0ZM574.1,121.4c-.7,1-1.9,1.4-3.2,1.4s-2.9-1-2.9-2.6,1.2-2.6,2.9-2.6,2.6.5,3.2,1.4c0,0,0,2.4,0,2.4ZM580.6,123.9v-16.2h-1.8v16.2s1.8,0,1.8,0ZM604.9,123.9v-16.2h-2.9l-5,12.3-5.1-12.3h-2.9v16.2h2v-13.5l5.5,13.5h.8l5.5-13.5v13.5h2.1ZM607.2,118c0,3.7,2.5,6.2,6,6.2s3.5-.6,4.6-1.8l-.9-1.2c-1,1-2.3,1.5-3.6,1.5-2.6,0-4.1-1.8-4.2-4.1h9.5v-.5c0-3.5-2.1-6.3-5.6-6.3s-5.8,2.8-5.8,6.2ZM612.9,113.4c2.6,0,3.8,2.2,3.8,3.9h-7.7c.2-1.8,1.5-3.9,3.9-3.9ZM631.1,123.9v-16.2h-1.8v6.3c-1-1.3-2.4-2.1-3.9-2.1-3.1,0-5.2,2.4-5.2,6.2s2.2,6.2,5.2,6.2,3.1-.9,3.9-2v1.8l1.8-.2h0ZM629.3,120.7c-.6,1-2.1,1.8-3.5,1.8-2.3,0-3.8-1.9-3.8-4.5s1.4-4.6,3.8-4.6,2.9.9,3.5,1.9c0,0,0,5.4,0,5.4ZM635,110.2c.6,0,1.2-.6,1.2-1.2s-.6-1.2-1.2-1.2-1.2.6-1.2,1.2.5,1.2,1.2,1.2ZM635.9,123.9v-11.7h-1.9v11.7h1.9ZM647.9,123.9v-8c0-2.8-2.1-3.9-4.6-3.9s-3.4.6-4.7,1.9l.9,1.3c1-1.1,2.2-1.6,3.6-1.6s3,.9,3,2.5v2.1c-1-1.1-2.3-1.6-3.9-1.6s-4.1,1.2-4.1,3.8,2.1,3.9,4.1,3.9,2.9-.6,3.9-1.6v1.4h1.8v-.2h0ZM646.1,121.4c-.7,1-1.9,1.4-3.2,1.4s-2.9-1-2.9-2.6,1.2-2.6,2.9-2.6,2.6.5,3.2,1.4c0,0,0,2.4,0,2.4Z"/>
  <path class="st13" d="M777.2,98.1h2v-6.4h4.5c3.2,0,5.1-2.2,5.1-4.9s-1.8-4.9-5.1-4.9h-6.5v16.2ZM786.6,86.8c0,1.8-1.3,3.1-3.2,3.1h-4.2v-6.2h4.2c2,0,3.2,1.2,3.2,3.1ZM790.6,98.1h1.8v-8.3c.6-1,2.1-1.8,3.2-1.8s.5,0,.7,0v-1.8c-1.6,0-3,.9-3.9,2.2v-1.9h-1.8v11.5h0ZM803,98.4c3.6,0,5.9-2.8,5.9-6.2s-2.2-6.2-5.9-6.2-5.9,2.7-5.9,6.2,2.3,6.2,5.9,6.2ZM803,96.7c-2.5,0-3.9-2.2-3.9-4.6s1.4-4.5,3.9-4.5,3.9,2.2,3.9,4.5-1.4,4.6-3.9,4.6ZM819.5,98.1h1.8v-16.2h-1.8v6.3c-1-1.3-2.4-2.1-3.9-2.1-3,0-5.2,2.4-5.2,6.2s2.2,6.2,5.2,6.2,3.1-.9,3.9-2v1.6ZM819.5,94.8c-.6,1-2.1,1.8-3.5,1.8-2.3,0-3.8-1.9-3.8-4.5s1.4-4.6,3.8-4.6,2.9.9,3.5,1.9c0,0,0,5.4,0,5.4ZM832.2,98.1h1.8v-11.8h-1.8v8.7c-.7,1-2.1,1.8-3.4,1.8s-2.6-.6-2.6-2.6v-7.7h-1.8v8.3c0,2.6,1.3,3.8,3.8,3.8s3.3-1,4.2-1.9v1.4s-.2,0-.2,0ZM836.2,92.2c0,3.5,2.3,6.2,5.9,6.2s3.4-.9,4.3-2l-1.2-1.1c-.8,1-1.8,1.5-3,1.5-2.5,0-4.1-1.9-4.1-4.6s1.5-4.5,4.1-4.5,2.2.5,3,1.5l1.2-1.1c-.9-1.2-2.2-2-4.3-2-3.5,0-5.9,2.6-5.9,6.1ZM851.2,98.4c1,0,1.8-.3,2.2-.7l-.6-1.4c-.2.2-.7.5-1.2.5-.8,0-1.2-.6-1.2-1.5v-7.3h2.4v-1.6h-2.4v-3.2h-1.8v3.2h-1.9v1.6h1.9v7.7c0,1.6.8,2.7,2.6,2.7Z"/>
  <g>
    <path class="st3" d="M1115.4,211.6v42.6c-.2,1.5-.2,3-.4,4.6-1.1,5.2-3.5,9.3-7.2,12.8-4,3.7-8.6,5.9-13.8,6.3-3.1.2-6.1,0-8.9.2v-13.7h6.5c.9,0,1.5-.2,2.2-.2,4.8-1.1,7.9-5,7.9-10v-42.6c0-.9,0-1.5-.2-2.4-1.1-4.6-5-7.6-10.1-7.6h-83.6v-13.7h82.3c1.8,0,3.5,0,5.3.2,8.1,1.5,14,5.9,17.8,13,1.5,3.4,2.2,7,2.2,10.5h0Z"/>
    <path class="st3" d="M975.3,264.4h89.5v13.7h-108.7c-.7,0-1.3-.5-1.3-1.1s.5-1.3,1.3-1.5c3.3-.9,5.3-3.3,5.5-6.9v-71c0-3.5-1.8-6.1-5.7-7.2-.5-.1-1.1-.4-1.1-.9s.2-1.5,1.5-1.5h31.2v13.7h-12.3v62.7h0Z"/>
    <path class="st13" d="M1084.9,187.2v.7h-13.7v-7.2c0-1.3-.2-2.6-.7-3.9-1.3-3.3-4.8-6.3-9.9-6.3h-53.1v55.4h53.1c.7,0,.9,0,2.2-.2,4.4-.7,7.9-4.3,8.2-8.9.2-3,.2-6.3.2-9.3v-.7h13.7v9.3c0,3.3-.7,6.5-2,9.6-1.3,2.6-2.9,5-5.1,7l.2.2c4.4,4.6,6.6,9.8,6.8,15.9.2,5,0,10,0,15v17.9c0,2.4,0,4.6-.2,7-.4,4.8-2.4,8.9-5.7,12.6-4.8,5.2-11,7.8-18.3,7.8h-72.5c-.9,0-1.3-.3-1.3-.9s.2-1.1.9-1.3c.4-.2.9-.2,1.3-.4,1.8-.9,3.3-1.7,4-3.5.7-1.3.7-2.4.7-3.5v-16.3h13.9v12.4h53.3c1.1,0,2.2-.2,3.1-.4,4.4-1.3,7.3-5.2,7.3-10v-35s0-.4-.2-1.7c-.7-5.2-4.8-8.7-10.1-8.7h-53.3v24.8h-13.9v-98.7c-.2-2.6-1.3-4.6-3.7-5.6-.7-.2-1.8-.7-2.2-.9-.7-.2-1.1-.9-.9-1.5.3-.8,1.2-.9,1.1-.9h73.8l.2.2c6.6.2,12.1,2.8,16.5,7.4,4,4.1,5.9,8.9,6.4,14.3.2,2.7,0,5.5,0,8.3h0Z"/>
  </g>
  <g class="st1">
    <g class="st1">
      <path class="st13" d="M992.4,91.5v-16.7h2.1v16.7h-2.1Z"/>
      <path class="st13" d="M1005.8,91.5v-7.9c0-2.1-1.1-2.8-2.7-2.8s-2.9.9-3.6,1.9v8.8h-1.9v-12.1h1.9v1.8c.9-1,2.5-2,4.3-2s3.8,1.3,3.8,3.9v8.5h-1.9.1Z"/>
      <path class="st13" d="M1013.2,81.1v10.4h-1.9v-10.4h-2v-1.6h2v-.9c0-2.5,1.4-3.9,3.5-3.9s1.3,0,1.8.4l-.5,1.4c-.3-.2-.6-.3-1.1-.3-1.2,0-1.9.8-1.9,2.4v.9h2.4v1.6h-2.4.1ZM1017.9,91.5v-16.7h1.9v16.7h-1.9Z"/>
      <path class="st13" d="M1031.1,91.5v-1.7c-.9,1-2.5,2-4.3,2s-3.8-1.2-3.8-3.8v-8.5h1.9v7.9c0,2.1,1.1,2.7,2.7,2.7s2.9-.8,3.6-1.8v-8.9h1.9v12.1h-2Z"/>
      <path class="st13" d="M1043.9,91.5l-3.6-4.9-3.6,4.9h-2.1l4.6-6.2-4.4-5.9h2.2l3.3,4.6,3.3-4.6h2.2l-4.4,5.9,4.6,6.2h-2.2,0Z"/>
      <path class="st13" d="M1047.7,91.5v-16.7h5.7c5.2,0,8.5,3.6,8.5,8.3s-3.4,8.3-8.5,8.3h-5.7ZM1049.8,89.6h3.6c4,0,6.4-2.9,6.4-6.5s-2.3-6.5-6.4-6.5h-3.6v13Z"/>
      <path class="st13" d="M1064.6,91.5v-16.7h7.4c2.9,0,4.7,1.8,4.7,4.2s-1.4,3.5-2.9,3.8c1.8.3,3.2,2.1,3.2,4.1s-1.8,4.5-4.8,4.5h-7.6,0ZM1066.6,82h5c1.9,0,2.9-1.2,2.9-2.7s-1-2.7-2.9-2.7h-5s0,5.4,0,5.4ZM1066.6,89.6h5.1c2,0,3.1-1.1,3.1-2.9s-1-2.9-3.1-2.9h-5.1v5.7h0Z"/>
    </g>
    <g class="st1">
      <path class="st13" d="M984.9,109.8h2.1v10.1c0,3,1.6,5,4.7,5s4.7-1.9,4.7-5v-10.1h2.1v10.2c0,4.1-2.3,6.8-6.8,6.8s-6.8-2.7-6.8-6.8v-10.2Z"/>
      <path class="st13" d="M1009.9,126.5v-7.9c0-2.1-1.1-2.8-2.7-2.8s-2.9.9-3.6,1.9v8.8h-1.9v-12.1h1.9v1.8c.8-1,2.5-2,4.3-2s3.8,1.3,3.8,3.9v8.5h-1.9.1Z"/>
      <path class="st13" d="M1014.5,111.1c0-.7.6-1.2,1.2-1.2s1.3.5,1.3,1.2-.6,1.3-1.3,1.3-1.2-.6-1.2-1.3ZM1014.9,126.5v-12.1h1.9v12.1h-1.9Z"/>
      <path class="st13" d="M1023.1,126.5l-5-12.1h2l4,9.9,4-9.9h2l-5,12.1h-2Z"/>
      <path class="st13" d="M1036.7,114.1c3.6,0,5.8,2.8,5.8,6.5v.5h-9.8c0,2.3,1.7,4.2,4.3,4.2s2.8-.5,3.7-1.5l.9,1.2c-1.2,1.2-2.8,1.8-4.8,1.8-3.6,0-6.1-2.6-6.1-6.3s2.5-6.3,5.9-6.3h0ZM1032.8,119.7h7.9c0-1.8-1.2-4-4-4s-3.8,2.2-3.9,4Z"/>
      <path class="st13" d="M1044.9,126.5v-12.1h1.9v2c1-1.3,2.4-2.2,4-2.2v1.9h-.8c-1.1,0-2.7,1-3.3,1.9v8.5h-1.9.1Z"/>
      <path class="st13" d="M1052.5,123.5c.8.9,2.3,1.7,4,1.7s2.8-.8,2.8-2-1.5-1.7-3.1-2.1c-2-.5-4.4-1-4.4-3.5s1.6-3.5,4.5-3.5,3.5.8,4.5,1.8l-.9,1.3c-.7-.9-2-1.5-3.6-1.5s-2.7.8-2.7,1.8,1.4,1.5,2.9,1.9c2.1.5,4.5,1.1,4.5,3.7s-1.6,3.6-4.7,3.6-3.7-.6-4.9-1.9l1-1.3h0Z"/>
      <path class="st13" d="M1063.2,111.1c0-.7.6-1.2,1.2-1.2s1.3.5,1.3,1.2-.6,1.3-1.3,1.3-1.2-.6-1.2-1.3ZM1063.6,126.5v-12.1h1.9v12.1h-1.9Z"/>
      <path class="st13" d="M1068.9,124v-7.9h-2v-1.6h2v-3.3h1.9v3.3h2.4v1.6h-2.4v7.5c0,.9.4,1.5,1.2,1.5s1-.2,1.3-.5l.5,1.4c-.5.4-1.1.8-2.2.8-1.8,0-2.7-1-2.7-2.8h0Z"/>
      <path class="st13" d="M1074.9,129.5c.3.1.7.2,1,.2.8,0,1.4-.3,1.8-1.3l.8-1.8-5-12.2h2l4,9.9,4-9.9h2l-6,14.5c-.7,1.8-1.9,2.4-3.5,2.4s-1,0-1.4-.2l.3-1.7h0Z"/>
    </g>
  </g>
</svg>