<?xml version="1.0" encoding="utf-8"?>
<!-- Generator: Adobe Illustrator 26.3.1, SVG Export Plug-In . SVG Version: 6.00 Build 0)  -->
<svg version="1.1" id="Layer_1" xmlns="http://www.w3.org/2000/svg" xmlns:xlink="http://www.w3.org/1999/xlink" x="0px" y="0px"
	 viewBox="0 0 1160 408.4" style="enable-background:new 0 0 1160 408.4;" xml:space="preserve">
<style type="text/css">
	.st0{fill-rule:evenodd;clip-rule:evenodd;fill:#D30973;}
	.st1{fill-rule:evenodd;clip-rule:evenodd;fill:url(#SVGID_1_);}
	.st2{fill-rule:evenodd;clip-rule:evenodd;fill:url(#SVGID_00000054976181196839832860000006287175593735775411_);}
	.st3{fill-rule:evenodd;clip-rule:evenodd;fill:url(#SVGID_00000013166217340379140250000002493208860296726203_);}
	.st4{fill-rule:evenodd;clip-rule:evenodd;fill:url(#SVGID_00000169520913461577108240000016041199824683823031_);}
	.st5{fill-rule:evenodd;clip-rule:evenodd;fill:url(#SVGID_00000082344064613514942180000016229594424633332131_);}
	.st6{fill-rule:evenodd;clip-rule:evenodd;fill:url(#SVGID_00000043422609209211523240000002716180264074735237_);}
	.st7{fill-rule:evenodd;clip-rule:evenodd;fill:url(#SVGID_00000051363054849770709050000008783749021507019657_);}
	.st8{fill:#FFFFFF;}
	.st9{fill-rule:evenodd;clip-rule:evenodd;fill:#020A47;}
	.st10{fill:#5EE4E4;}
	.st11{fill:#020A47;}
	.st12{fill:#D30971;}
	.st13{font-family:'ProximaNova-Medium';}
	.st14{font-size:25px;}
</style>
<path class="st0" d="M175,274.3l43-9.9c0.6-0.2,1.3-0.4,1.8-0.8c0.6-0.4,1-0.9,1.4-1.4c0.3-0.6,0.6-1.2,0.6-1.9c0.1-0.6,0-1.4-0.2-2
	l-18.3-79.4c-0.3-1.3-1.2-2.4-2.3-3.1c-1.1-0.7-2.6-0.9-3.8-0.6l-43,9.9c-1.3,0.3-2.4,1.2-3.1,2.3c-0.7,1.1-0.9,2.6-0.6,3.8
	l18.3,79.4c0.3,1.3,1.2,2.4,2.3,3.1C172.3,274.3,173.6,274.6,175,274.3z"/>
<path class="st0" d="M160.2,323.3l52.2-48.3c2-2,1.4-3.2-1.2-2.2l-35.8,8.2c-1.4,0.4-2.9,1.1-4,2.2c-1.1,1-2,2.3-2.5,3.8l-10.9,35
	C157.2,324.5,158.2,325.2,160.2,323.3z"/>
<path class="st0" d="M64.9,307.5l78.2,24.1c1.4,0.2,2.7,0,3.9-0.6c1.2-0.6,2.1-1.8,2.6-3l13.1-41.9c0.2-0.6,0.2-1.4,0.2-2
	c-0.1-0.6-0.3-1.4-0.6-1.9c-0.3-0.6-0.8-1.1-1.3-1.5c-0.6-0.4-1.1-0.7-1.8-1L81,255.7c-1.4-0.4-2.7-0.2-3.9,0.5
	c-1.2,0.6-2.1,1.8-2.5,3.1l-13.1,41.8c-0.4,1.3-0.2,2.7,0.4,3.9C62.5,306.2,63.7,307.1,64.9,307.5z"/>
<path class="st0" d="M39.7,221.7l15.9,69.3c0.5,2.7,1.8,2.7,2.5,0l10.9-35c0.4-1.5,0.4-3,0.1-4.6c-0.3-1.5-1-2.9-2-4.1l-25-26.9
	C40.3,218.5,38.9,219,39.7,221.7z"/>
<path class="st0" d="M100.8,147.6L40.9,203c-1,0.9-1.5,2.2-1.6,3.5c-0.1,1.4,0.4,2.6,1.3,3.6l29.9,32.4c1,1,2.2,1.5,3.5,1.6
	s2.6-0.4,3.6-1.4l60-55.6c1-0.9,1.5-2.2,1.6-3.5c0.1-1.4-0.4-2.6-1.4-3.6L108,147.8c-0.5-0.5-1-0.9-1.6-1.1
	c-0.6-0.2-1.3-0.4-1.9-0.4s-1.4,0.1-1.9,0.3C101.9,146.8,101.3,147.1,100.8,147.6z"/>
<path class="st0" d="M158.7,273c2.7,0.7,4.4-0.7,3.7-3.5l-17.3-75c-0.7-2.7-3-3.4-5-1.5l-56.4,52.3c-2,2-1.5,4.2,1.2,4.9L158.7,273z
	"/>
<path class="st0" d="M188.1,168.5l-68.2-20.9c-2.7-0.7-3.2,0.2-1,2.5l25,26.9c1.1,1,2.5,1.8,3.9,2.2c1.4,0.4,3,0.5,4.6,0.2l35.8-8.2
	C190.8,170.4,190.8,169.2,188.1,168.5z"/>
<linearGradient id="SVGID_1_" gradientUnits="userSpaceOnUse" x1="803.7318" y1="290.4737" x2="871.9909" y2="269.0999" gradientTransform="matrix(1 0 0 1 0 -45.1914)">
	<stop  offset="0" style="stop-color:#D30971"/>
	<stop  offset="0.7506" style="stop-color:#8E2AFF"/>
</linearGradient>
<path class="st1" d="M859.1,274l43-9.9c0.7-0.2,1.3-0.4,1.8-0.7c0.6-0.3,1-0.9,1.4-1.4c0.4-0.6,0.6-1.2,0.7-1.9c0.1-0.7,0-1.4-0.2-2
	l-18.3-79.4c-0.3-1.3-1.1-2.4-2.3-3.1c-1.1-0.7-2.6-0.9-3.8-0.6l-43,9.9c-1.3,0.3-2.4,1.1-3.1,2.3c-0.7,1.1-0.9,2.5-0.6,3.8
	l18.3,79.4c0.3,1.3,1.1,2.4,2.3,3.1C856.5,274.2,857.8,274.3,859.1,274z"/>
<linearGradient id="SVGID_00000152951861313966587490000001936561954615470746_" gradientUnits="userSpaceOnUse" x1="806.7309" y1="343.3909" x2="862.5677" y2="343.3909" gradientTransform="matrix(1 0 0 1 0 -45.1914)">
	<stop  offset="0" style="stop-color:#D30971"/>
	<stop  offset="0.9996" style="stop-color:#8E2AFF"/>
</linearGradient>
<path style="fill-rule:evenodd;clip-rule:evenodd;fill:url(#SVGID_00000152951861313966587490000001936561954615470746_);" d="
	M844.4,323.1l52.2-48.3c2-2,1.4-3.2-1.2-2.2l-35.9,8.1c-1.5,0.4-2.8,1-3.9,2.2c-1.1,1-2,2.3-2.4,3.8l-10.9,35
	C841.4,324.4,842.4,325.1,844.4,323.1z"/>
<linearGradient id="SVGID_00000144327993635491810300000003673709521882996625_" gradientUnits="userSpaceOnUse" x1="735.0533" y1="338.6196" x2="836.5479" y2="338.6196" gradientTransform="matrix(1 0 0 1 0 -45.1914)">
	<stop  offset="0" style="stop-color:#D30971"/>
	<stop  offset="0.9996" style="stop-color:#8E2AFF"/>
</linearGradient>
<path style="fill-rule:evenodd;clip-rule:evenodd;fill:url(#SVGID_00000144327993635491810300000003673709521882996625_);" d="
	M749.2,307.3l78.2,24.2c1.4,0.2,2.7,0,3.8-0.7c1.2-0.7,2.1-1.8,2.5-3l13.1-41.8c0.2-0.7,0.2-1.4,0.2-2.1s-0.3-1.4-0.6-1.9
	c-0.3-0.6-0.7-1.1-1.3-1.5c-0.6-0.5-1.1-0.7-1.8-0.9l-78.1-24c-1.3-0.4-2.7-0.2-3.9,0.5c-1.2,0.7-2.2,1.8-2.5,3.1l-13,41.8
	c-0.4,1.3-0.2,2.7,0.4,3.9C746.7,306,747.8,306.9,749.2,307.3z"/>
<linearGradient id="SVGID_00000111153357084921089270000011353904366629969812_" gradientUnits="userSpaceOnUse" x1="723.6751" y1="301.1877" x2="805.9241" y2="301.1877" gradientTransform="matrix(1 0 0 1 0 -45.1914)">
	<stop  offset="0" style="stop-color:#D30971"/>
	<stop  offset="0.9996" style="stop-color:#8E2AFF"/>
</linearGradient>
<path style="fill-rule:evenodd;clip-rule:evenodd;fill:url(#SVGID_00000111153357084921089270000011353904366629969812_);" d="
	M724,221.5l15.8,69.4c0.6,2.7,1.8,2.7,2.4,0l10.9-35c0.4-1.5,0.4-3,0.1-4.6c-0.3-1.5-1-2.9-2-4.1l-25-27
	C724.4,218.2,723.1,218.8,724,221.5z"/>
<linearGradient id="SVGID_00000140011662863318732400000012181004371786698676_" gradientUnits="userSpaceOnUse" x1="703.314" y1="240.0865" x2="803.1663" y2="240.0865" gradientTransform="matrix(1 0 0 1 0 -45.1914)">
	<stop  offset="0" style="stop-color:#D30971"/>
	<stop  offset="0.9996" style="stop-color:#8E2AFF"/>
</linearGradient>
<path style="fill-rule:evenodd;clip-rule:evenodd;fill:url(#SVGID_00000140011662863318732400000012181004371786698676_);" d="
	M785,147.4l-59.9,55.4c-1,0.9-1.5,2.2-1.6,3.5c-0.1,1.3,0.5,2.6,1.3,3.6l30.1,32.4c0.9,1,2.2,1.5,3.6,1.6c1.4,0.1,2.6-0.5,3.7-1.4
	L822,187c1-0.9,1.5-2.2,1.6-3.5c0.1-1.3-0.5-2.6-1.4-3.6l-29.9-32.4c-0.5-0.5-1-0.9-1.6-1.1c-0.6-0.3-1.3-0.5-2-0.5
	c-0.7,0-1.4,0.1-2,0.4C786,146.6,785.5,147,785,147.4z"/>
<linearGradient id="SVGID_00000043446836797240073050000014919488606915663244_" gradientUnits="userSpaceOnUse" x1="743.8818" y1="277.5099" x2="823.9388" y2="277.5099" gradientTransform="matrix(1 0 0 1 0 -45.1914)">
	<stop  offset="0" style="stop-color:#D30971"/>
	<stop  offset="0.9996" style="stop-color:#8E2AFF"/>
</linearGradient>
<path style="fill-rule:evenodd;clip-rule:evenodd;fill:url(#SVGID_00000043446836797240073050000014919488606915663244_);" d="
	M842.9,272.8c2.7,0.7,4.5-0.7,3.7-3.6l-17.3-75c-0.7-2.7-3-3.4-5-1.5l-56.4,52.3c-2,2-1.5,4.2,1.2,5L842.9,272.8z"/>
<linearGradient id="SVGID_00000023968649878608370840000015410454770995880086_" gradientUnits="userSpaceOnUse" x1="736.0118" y1="252.2322" x2="801.7211" y2="221.1368" gradientTransform="matrix(1 0 0 1 0 -45.1914)">
	<stop  offset="0" style="stop-color:#D30971"/>
	<stop  offset="0.9996" style="stop-color:#8E2AFF"/>
</linearGradient>
<path style="fill-rule:evenodd;clip-rule:evenodd;fill:url(#SVGID_00000023968649878608370840000015410454770995880086_);" d="
	M872.3,168.3L804,147.4c-2.7-0.7-3.2,0.2-1,2.4l25,26.9c1.1,1,2.5,1.8,3.9,2.2c1.4,0.4,3,0.5,4.6,0.2l35.9-8.1
	C875.1,170.3,875.1,169,872.3,168.3z"/>
<path class="st8" d="M297.9,139.8h121.6c21,0,38,17,38,38v121.6c0,21-17,38-38,38H297.9c-21,0-38-17-38-38V177.8
	C259.9,156.9,277,139.8,297.9,139.8z"/>
<path class="st9" d="M400.7,272.5l40.9-9.4c0.6-0.2,1.2-0.4,1.8-0.7c0.6-0.4,1-0.9,1.3-1.4c0.3-0.6,0.6-1.2,0.6-1.8
	c0.1-0.6,0-1.3-0.2-1.9l-17.4-75.4c-0.3-1.3-1.1-2.3-2.2-3c-1.1-0.6-2.4-0.9-3.7-0.6l-40.9,9.4c-1.2,0.3-2.3,1.1-3,2.2
	c-0.6,1.1-0.9,2.4-0.6,3.7l17.3,75.4c0.3,1.3,1.1,2.3,2.2,3C398.2,272.6,399.5,272.8,400.7,272.5z"/>
<path class="st9" d="M386.7,319.1l49.5-45.9c1.8-1.9,1.4-3-1.2-2.1l-34.1,7.8c-1.4,0.3-2.7,1-3.8,2c-1,1-1.8,2.2-2.3,3.6l-10.3,33.3
	C383.8,320.3,384.8,321,386.7,319.1z"/>
<path class="st9" d="M296.2,304.1l74.2,22.9c1.3,0.2,2.6,0,3.7-0.6s2-1.7,2.4-2.9l12.4-39.8c0.2-0.6,0.2-1.3,0.2-1.9
	c-0.1-0.6-0.2-1.3-0.6-1.8c-0.3-0.6-0.7-1-1.2-1.4c-0.5-0.4-1.1-0.7-1.7-0.9l-74.2-22.7c-1.3-0.3-2.6-0.2-3.8,0.4
	c-1.1,0.6-2,1.7-2.3,3L293,298c-0.4,1.3-0.2,2.6,0.4,3.7C294,302.9,295,303.8,296.2,304.1z"/>
<path class="st9" d="M272.2,222.5l15.1,65.9c0.5,2.6,1.7,2.6,2.3,0l10.3-33.3c0.3-1.4,0.4-2.9,0.1-4.3s-1-2.7-1.9-3.8l-23.7-25.7
	C272.7,219.5,271.5,220,272.2,222.5z"/>
<path class="st9" d="M330.3,152.2l-56.8,52.7c-0.9,0.9-1.4,2.1-1.5,3.3c-0.1,1.3,0.4,2.5,1.3,3.4l28.5,30.8c0.9,1,2.1,1.4,3.4,1.5
	c1.3,0.1,2.5-0.4,3.4-1.3l56.8-52.7c0.9-0.9,1.4-2.1,1.5-3.3c0.1-1.3-0.4-2.5-1.3-3.4l-28.4-30.7c-0.4-0.5-1-0.8-1.5-1.1
	c-0.6-0.2-1.2-0.4-1.8-0.4c-0.6,0-1.3,0.1-1.8,0.3C331.3,151.4,330.8,151.7,330.3,152.2z"/>
<path class="st9" d="M385.3,271.3c2.6,0.7,4.2-0.7,3.5-3.4l-16.4-71.2c-0.7-2.6-2.8-3.3-4.7-1.4l-53.5,49.8c-1.9,1.8-1.4,4,1.1,4.6
	L385.3,271.3z"/>
<path class="st9" d="M413.3,172l-64.9-19.9c-2.6-0.7-3,0.2-1,2.3l23.7,25.6c1,1,2.3,1.7,3.8,2.1c1.4,0.4,2.9,0.5,4.3,0.2l34.1-7.7
	C415.8,173.9,415.8,172.7,413.3,172z"/>
<path class="st10" d="M526,139.8h121.6c21,0,38,17,38,38v121.6c0,21-17,38-38,38H526c-21,0-38-17-38-38V177.8
	C488,156.9,505,139.8,526,139.8z"/>
<path class="st9" d="M628.8,272.5l40.9-9.4c0.6-0.2,1.2-0.4,1.8-0.7c0.6-0.4,1-0.9,1.3-1.4c0.3-0.6,0.6-1.2,0.6-1.8
	c0.1-0.6,0-1.3-0.2-1.9l-17.4-75.4c-0.3-1.3-1.1-2.3-2.2-3c-1.1-0.6-2.4-0.9-3.7-0.6l-40.9,9.4c-1.2,0.3-2.3,1.1-3,2.2
	c-0.6,1.1-0.9,2.4-0.6,3.7l17.3,75.4c0.3,1.3,1.1,2.3,2.2,3C626.2,272.6,627.5,272.8,628.8,272.5z"/>
<path class="st9" d="M614.7,319.1l49.5-45.9c1.8-1.9,1.4-3-1.2-2.1l-34.1,7.8c-1.4,0.3-2.7,1-3.8,2c-1,1-1.8,2.2-2.3,3.6l-10.3,33.3
	C611.9,320.3,612.9,321,614.7,319.1z"/>
<path class="st9" d="M524.3,304.1l74.2,22.9c1.3,0.2,2.6,0,3.7-0.6c1.1-0.6,2-1.7,2.4-2.9l12.4-39.8c0.2-0.6,0.2-1.3,0.2-1.9
	c-0.1-0.6-0.2-1.3-0.6-1.8c-0.3-0.6-0.7-1-1.2-1.4c-0.5-0.4-1.1-0.7-1.7-0.9l-74.2-22.7c-1.3-0.3-2.6-0.2-3.8,0.4
	c-1.1,0.6-2,1.7-2.3,3L521.1,298c-0.4,1.3-0.2,2.6,0.4,3.7C522,302.9,523,303.8,524.3,304.1z"/>
<path class="st9" d="M500.3,222.5l15.1,65.9c0.5,2.6,1.7,2.6,2.3,0l10.3-33.3c0.3-1.4,0.4-2.9,0.1-4.3s-1-2.7-1.9-3.8l-23.7-25.7
	C500.8,219.5,499.5,220,500.3,222.5z"/>
<path class="st9" d="M558.3,152.2l-56.8,52.7c-0.9,0.9-1.4,2.1-1.5,3.3c-0.1,1.3,0.4,2.5,1.3,3.4l28.5,30.8c0.9,1,2.1,1.4,3.4,1.5
	c1.3,0.1,2.5-0.4,3.4-1.3l56.8-52.7c0.9-0.9,1.4-2.1,1.5-3.3c0.1-1.3-0.4-2.5-1.3-3.4l-28.4-30.7c-0.4-0.5-1-0.8-1.5-1.1
	c-0.6-0.2-1.2-0.4-1.8-0.4s-1.3,0.1-1.8,0.3C559.3,151.4,558.8,151.7,558.3,152.2z"/>
<path class="st9" d="M613.3,271.3c2.6,0.7,4.2-0.7,3.5-3.4l-16.4-71.2c-0.7-2.6-2.8-3.3-4.7-1.4l-53.5,49.8c-1.9,1.8-1.4,4,1.1,4.6
	L613.3,271.3z"/>
<path class="st9" d="M641.2,172l-64.9-19.9c-2.6-0.7-3,0.2-1,2.3l23.7,25.6c1,1,2.3,1.7,3.8,2.1s2.9,0.5,4.3,0.2l34.1-7.7
	C643.9,173.9,643.9,172.7,641.2,172z"/>
<path class="st11" d="M95.7,98.1h2.2l4.6-16.2h-2.2l-3.6,13.5l-3.7-13.5h-1.7l-3.7,13.5l-3.6-13.5h-2.2l4.6,16.2h2.2L92.1,85
	L95.7,98.1z M102.2,92.2c0,3.7,2.5,6.2,6,6.2c1.9,0,3.5-0.6,4.6-1.8l-0.9-1.2c-1,1-2.3,1.5-3.6,1.5c-2.6,0-4.1-1.8-4.2-4.1h9.5v-0.5
	c0-3.5-2.1-6.3-5.6-6.3C104.6,86,102.2,88.8,102.2,92.2z M108,87.6c2.6,0,3.8,2.2,3.8,3.9h-7.7C104.2,89.6,105.5,87.6,108,87.6z
	 M115.9,98.1h1.8v-1.8c0.9,1.2,2.3,2,3.9,2c3,0,5.2-2.3,5.2-6.2c0-3.8-2.2-6.2-5.2-6.2c-1.6,0-3,0.8-3.9,2.1v-6.3h-1.8V98.1z
	 M117.7,94.8v-5.3c0.6-1,2.1-1.9,3.5-1.9c2.4,0,3.8,1.9,3.8,4.6c0,2.6-1.4,4.5-3.8,4.5C119.8,96.7,118.3,95.9,117.7,94.8z M128,96.5
	c1.2,1.3,2.8,1.8,4.7,1.8c3,0,4.6-1.6,4.6-3.5c0-2.6-2.3-3.2-4.4-3.7c-1.5-0.4-2.9-0.7-2.9-1.8c0-1,1-1.8,2.6-1.8
	c1.5,0,2.8,0.6,3.5,1.5l0.9-1.3c-1-1-2.3-1.7-4.3-1.7c-2.8,0-4.4,1.5-4.4,3.4c0,2.4,2.2,3,4.2,3.4c1.6,0.4,3,0.8,3,2.1
	c0,1.1-1,1.9-2.8,1.9c-1.6,0-3.1-0.8-3.8-1.7L128,96.5z M140.5,84.3c0.6,0,1.2-0.6,1.2-1.2c0-0.6-0.6-1.2-1.2-1.2
	c-0.6,0-1.2,0.6-1.2,1.2C139.3,83.8,139.9,84.3,140.5,84.3z M139.7,98.1h1.8V86.3h-1.8V98.1z M147.3,98.4c1,0,1.8-0.3,2.2-0.7
	l-0.6-1.4c-0.2,0.2-0.7,0.5-1.2,0.5c-0.8,0-1.2-0.6-1.2-1.5V88h2.4v-1.6h-2.4v-3.2h-1.8v3.2h-1.9V88h1.9v7.7
	C144.7,97.3,145.6,98.4,147.3,98.4z M150.1,92.2c0,3.7,2.5,6.2,6,6.2c1.9,0,3.5-0.6,4.6-1.8l-0.9-1.2c-1,1-2.3,1.5-3.6,1.5
	c-2.6,0-4.1-1.8-4.2-4.1h9.5v-0.5c0-3.5-2.1-6.3-5.6-6.3C152.5,86,150.1,88.8,150.1,92.2z M155.8,87.6c2.6,0,3.8,2.2,3.8,3.9h-7.7
	C152.1,89.6,153.3,87.6,155.8,87.6z"/>
<path class="st11" d="M323.6,87.4V71.2h-2v16.2H323.6z M336.2,87.4v-8.3c0-2.6-1.3-3.8-3.8-3.8c-1.8,0-3.4,1-4.2,2v-1.7h-1.8v11.8
	h1.8v-8.7c0.6-1,2-1.8,3.4-1.8c1.6,0,2.6,0.6,2.6,2.7v7.7H336.2z M342.1,87.7c1,0,1.8-0.3,2.2-0.7l-0.6-1.4
	c-0.2,0.2-0.7,0.5-1.2,0.5c-0.8,0-1.2-0.6-1.2-1.5v-7.3h2.4v-1.6h-2.4v-3.2h-1.8v3.2h-1.9v1.6h1.9V85
	C339.5,86.7,340.4,87.7,342.1,87.7z M344.8,81.5c0,3.7,2.5,6.2,6,6.2c1.9,0,3.5-0.6,4.6-1.8l-0.9-1.2c-1,1-2.3,1.5-3.6,1.5
	c-2.6,0-4.1-1.8-4.2-4.1h9.5v-0.5c0-3.5-2.1-6.3-5.6-6.3C347.3,75.4,344.8,78.1,344.8,81.5z M350.6,76.9c2.6,0,3.8,2.2,3.8,3.9h-7.7
	C346.9,79,348.1,76.9,350.6,76.9z M360.3,87.4v-8.3c0.6-1,2.1-1.8,3.2-1.8c0.3,0,0.5,0,0.7,0.1v-1.8c-1.6,0-3,0.9-3.9,2.2v-1.9h-1.8
	v11.8L360.3,87.4L360.3,87.4z M375.5,87.4v-8.3c0-2.6-1.3-3.8-3.8-3.8c-1.8,0-3.4,1-4.2,2v-1.7h-1.8v11.8h1.8v-8.7
	c0.6-1,2-1.8,3.4-1.8c1.6,0,2.6,0.6,2.6,2.7v7.7H375.5z M387.5,87.4v-8.1c0-2.8-2.1-3.9-4.6-3.9c-1.9,0-3.4,0.6-4.7,1.9l0.9,1.3
	c1-1.1,2.2-1.6,3.6-1.6c1.7,0,3,0.9,3,2.5v2.1c-1-1.1-2.3-1.6-3.9-1.6c-2,0-4.1,1.2-4.1,3.8c0,2.6,2.1,3.9,4.1,3.9
	c1.6,0,2.9-0.6,3.9-1.6v1.4L387.5,87.4L387.5,87.4z M385.7,84.9c-0.7,1-1.9,1.4-3.2,1.4c-1.7,0-2.9-1-2.9-2.6c0-1.5,1.2-2.6,2.9-2.6
	c1.3,0,2.6,0.5,3.2,1.4V84.9z M392.3,87.4V71.2h-1.8v16.2H392.3z M307.5,123.9v-16.2h-2.9l-5.1,12.3l-5.1-12.3h-2.9v16.2h2v-13.5
	l5.5,13.5h0.8l5.5-13.5v13.5H307.5z M319.6,123.9v-8c0-2.8-2.1-3.9-4.6-3.9c-1.9,0-3.4,0.6-4.7,1.9l0.9,1.3c1-1.1,2.2-1.6,3.6-1.6
	c1.7,0,3,0.9,3,2.5v2.1c-1-1.1-2.3-1.6-3.9-1.6c-2,0-4.1,1.2-4.1,3.8c0,2.6,2.1,3.9,4.1,3.9c1.6,0,2.9-0.6,3.9-1.6v1.4h1.8V123.9z
	 M317.8,121.4c-0.7,1-1.9,1.4-3.2,1.4c-1.7,0-2.9-1-2.9-2.6c0-1.5,1.2-2.6,2.9-2.6c1.3,0,2.6,0.5,3.2,1.4V121.4z M324.4,123.9v-8.3
	c0.6-1,2.1-1.8,3.2-1.8c0.3,0,0.5,0,0.7,0.1V112c-1.6,0-3,0.9-3.9,2.2v-1.9h-1.8v11.6H324.4z M340.1,123.9l-5.2-6.4l5.2-5.3h-2.3
	l-6.2,6.3v-10.7h-1.8v16.2h1.8v-3.4l1.9-1.9l4.2,5.3H340.1z M340.2,118c0,3.7,2.5,6.2,6,6.2c1.9,0,3.5-0.6,4.6-1.8l-0.9-1.2
	c-1,1-2.3,1.5-3.6,1.5c-2.6,0-4.1-1.8-4.2-4.1h9.5v-0.5c0-3.5-2.1-6.3-5.6-6.3C342.7,111.8,340.2,114.6,340.2,118z M346,113.4
	c2.6,0,3.8,2.2,3.8,3.9h-7.7C342.3,115.5,343.5,113.4,346,113.4z M356.8,124.2c1,0,1.8-0.3,2.2-0.7l-0.6-1.4
	c-0.2,0.2-0.7,0.5-1.2,0.5c-0.8,0-1.2-0.6-1.2-1.5v-7.3h2.4v-1.6H356V109h-1.8v3.2h-1.9v1.6h1.9v7.7
	C354.3,123.2,355.1,124.2,356.8,124.2z M362.1,122.1c1,1.3,2.3,2.1,3.9,2.1c3.1,0,5.2-2.4,5.2-6.2c0-3.8-2.2-6.2-5.2-6.2
	c-1.7,0-3.1,0.9-3.9,2v-1.8h-1.8v16.2h1.8V122.1z M369.4,118c0,2.6-1.4,4.6-3.8,4.6c-1.4,0-2.9-0.9-3.5-1.9v-5.3
	c0.6-1,2.1-1.8,3.5-1.8C368,113.4,369.4,115.4,369.4,118z M375.3,123.9v-16.2h-1.8v16.2H375.3z M387.4,123.9v-8
	c0-2.8-2.1-3.9-4.6-3.9c-1.9,0-3.4,0.6-4.7,1.9l0.9,1.2c1-1.1,2.2-1.6,3.6-1.6c1.7,0,3,0.9,3,2.5v2.1c-1-1.1-2.3-1.6-3.9-1.6
	c-2,0-4.1,1.2-4.1,3.8c0,2.6,2.1,3.9,4.1,3.9c1.6,0,2.9-0.6,3.9-1.6v1.4L387.4,123.9L387.4,123.9z M385.5,121.4
	c-0.7,1-1.9,1.4-3.2,1.4c-1.7,0-2.9-1-2.9-2.6c0-1.5,1.2-2.6,2.9-2.6c1.3,0,2.6,0.5,3.2,1.4V121.4z M389.6,118
	c0,3.5,2.3,6.2,5.9,6.2c2.2,0,3.4-0.9,4.3-2l-1.2-1.1c-0.8,1-1.8,1.5-3,1.5c-2.5,0-4.1-1.9-4.1-4.6c0-2.6,1.5-4.5,4.1-4.5
	c1.2,0,2.2,0.5,3,1.5l1.2-1.1c-0.9-1.2-2.2-2-4.3-2C391.9,111.8,389.6,114.5,389.6,118z M400.8,118c0,3.7,2.5,6.2,6,6.2
	c1.9,0,3.5-0.6,4.6-1.8l-0.9-1.2c-1,1-2.3,1.5-3.6,1.5c-2.6,0-4.1-1.8-4.2-4.1h9.5v-0.5c0-3.5-2.1-6.3-5.6-6.3
	C403.3,111.8,400.8,114.6,400.8,118z M406.6,113.4c2.6,0,3.8,2.2,3.8,3.9h-7.7C402.8,115.5,404.1,113.4,406.6,113.4z M413.4,122.3
	c1.2,1.3,2.8,1.8,4.7,1.8c3,0,4.6-1.6,4.6-3.5c0-2.6-2.3-3.2-4.4-3.7c-1.5-0.4-2.9-0.7-2.9-1.8c0-1,1-1.8,2.6-1.8
	c1.5,0,2.8,0.6,3.5,1.5l0.9-1.3c-1-1-2.3-1.7-4.3-1.7c-2.8,0-4.4,1.5-4.4,3.4c0,2.4,2.2,3,4.2,3.4c1.6,0.4,3,0.8,3,2.1
	c0,1.1-1,1.9-2.8,1.9c-1.6,0-3.1-0.8-3.8-1.7L413.4,122.3z"/>
<path class="st11" d="M538.1,87.7c3,0,4.9-1.4,6.3-3.2l-1.8-1c-1,1.4-2.6,2.3-4.5,2.3c-3.4,0-6.2-2.7-6.2-6.6c0-3.8,2.7-6.6,6.2-6.6
	c1.9,0,3.6,1,4.5,2.3l1.7-1c-1.3-1.8-3.3-3.2-6.3-3.2c-4.6,0-8.3,3.4-8.3,8.4C529.7,84.3,533.5,87.7,538.1,87.7z M551.2,87.7
	c3.6,0,5.9-2.8,5.9-6.2s-2.2-6.2-5.9-6.2c-3.6,0-5.9,2.7-5.9,6.2S547.6,87.7,551.2,87.7z M551.2,86.1c-2.5,0-3.9-2.2-3.9-4.6
	c0-2.4,1.4-4.5,3.9-4.5s3.9,2.2,3.9,4.5C555.1,83.9,553.7,86.1,551.2,86.1z M575.2,87.4v-8.5c0-2.3-1.1-3.5-3.3-3.5
	c-1.7,0-3.3,1.1-3.9,2.2c-0.3-1.2-1.4-2.2-3.1-2.2s-3.3,1.2-3.8,2v-1.7h-1.8v11.8h1.8v-8.7c0.6-1,1.9-1.8,3.1-1.8
	c1.5,0,2.2,1,2.2,2.4v8h1.8v-8.6c0.6-1,1.9-1.8,3.1-1.8c1.5,0,2.2,1,2.2,2.4v8L575.2,87.4L575.2,87.4z M594.1,87.4v-8.5
	c0-2.3-1.1-3.5-3.3-3.5c-1.7,0-3.3,1.1-3.9,2.2c-0.3-1.2-1.4-2.2-3.1-2.2c-1.8,0-3.3,1.2-3.8,2v-1.7h-1.8v11.8h1.8v-8.7
	c0.6-1,1.9-1.8,3.1-1.8c1.5,0,2.2,1,2.2,2.4v8h1.8v-8.6c0.6-1,1.9-1.8,3.1-1.8c1.5,0,2.2,1,2.2,2.4v8L594.1,87.4L594.1,87.4z
	 M606.7,87.4V75.7h-1.8v8.7c-0.6,1-2,1.8-3.4,1.8c-1.6,0-2.6-0.6-2.6-2.6v-7.7H597V84c0,2.6,1.3,3.8,3.8,3.8c1.8,0,3.3-1,4.2-1.9
	v1.7h1.8V87.4z M619.3,87.4v-8.3c0-2.6-1.3-3.8-3.8-3.8c-1.8,0-3.4,1-4.2,2v-1.7h-1.8v11.8h1.8v-8.7c0.6-1,2-1.8,3.4-1.8
	c1.6,0,2.6,0.6,2.6,2.7v7.7H619.3z M623.1,73.7c0.6,0,1.2-0.6,1.2-1.2s-0.6-1.2-1.2-1.2s-1.2,0.6-1.2,1.2S622.5,73.7,623.1,73.7z
	 M624.1,87.4V75.7h-1.8v11.8L624.1,87.4L624.1,87.4z M629.9,87.7c1,0,1.8-0.3,2.2-0.7l-0.6-1.4c-0.2,0.2-0.7,0.5-1.2,0.5
	c-0.8,0-1.2-0.6-1.2-1.5v-7.3h2.4v-1.6h-2.4v-3.2h-1.8v3.2h-1.9v1.6h1.9V85C627.3,86.7,628.2,87.7,629.9,87.7z M632.7,92
	c0.3,0.1,1,0.2,1.4,0.2c1.5,0,2.7-0.6,3.4-2.4l5.9-14.1h-2l-3.9,9.6l-3.9-9.6h-2l4.9,11.9l-0.8,1.8c-0.4,1-1,1.2-1.8,1.2
	c-0.3,0-0.7-0.1-1-0.2L632.7,92z M523.2,121.6c1.4,1.5,3.4,2.6,6.3,2.6c4.4,0,6-2.4,6-4.7c0-3.4-3-4.2-5.7-5c-2.1-0.6-3.9-1-3.9-2.6
	c0-1.5,1.4-2.6,3.4-2.6c1.8,0,3.4,0.6,4.7,1.9l1.2-1.5c-1.4-1.4-3.3-2.2-5.8-2.2c-3.2,0-5.5,1.8-5.5,4.5c0,3.2,2.9,3.9,5.5,4.6
	c2.2,0.6,4.1,1.1,4.1,3c0,1.2-1,2.8-3.8,2.8c-2.3,0-4-1.1-5.1-2.3L523.2,121.6z M542.6,124.2c3.6,0,5.9-2.8,5.9-6.2
	s-2.2-6.2-5.9-6.2c-3.6,0-5.9,2.7-5.9,6.2C536.9,121.4,539.1,124.2,542.6,124.2z M542.6,122.6c-2.5,0-3.9-2.2-3.9-4.6
	c0-2.4,1.4-4.5,3.9-4.5s3.9,2.2,3.9,4.5C546.6,120.4,545.2,122.6,542.6,122.6z M550,118c0,3.5,2.3,6.2,5.9,6.2c2.2,0,3.4-0.9,4.3-2
	l-1.2-1.1c-0.8,1-1.8,1.5-3,1.5c-2.5,0-4.1-1.9-4.1-4.6c0-2.6,1.5-4.5,4.1-4.5c1.2,0,2.2,0.5,3,1.5l1.2-1.1c-0.9-1.2-2.2-2-4.3-2
	C552.4,111.8,550,114.5,550,118z M562.9,110.2c0.6,0,1.2-0.6,1.2-1.2s-0.6-1.2-1.2-1.2c-0.6,0-1.2,0.6-1.2,1.2
	S562.2,110.2,562.9,110.2z M563.8,123.9v-11.7H562v11.7H563.8z M575.8,123.9v-8c0-2.8-2.1-3.9-4.6-3.9c-1.9,0-3.4,0.6-4.7,1.9
	l0.9,1.3c1-1.1,2.2-1.6,3.6-1.6c1.7,0,3,0.9,3,2.5v2.1c-1-1.1-2.3-1.6-3.9-1.6c-2,0-4.1,1.2-4.1,3.8c0,2.6,2.1,3.9,4.1,3.9
	c1.6,0,2.9-0.6,3.9-1.6v1.4h1.8V123.9z M574.1,121.4c-0.7,1-1.9,1.4-3.2,1.4c-1.7,0-2.9-1-2.9-2.6c0-1.5,1.2-2.6,2.9-2.6
	c1.3,0,2.6,0.5,3.2,1.4V121.4z M580.6,123.9v-16.2h-1.8v16.2H580.6z M604.9,123.9v-16.2H602L597,120l-5.1-12.3H589v16.2h2v-13.5
	l5.5,13.5h0.8l5.5-13.5v13.5H604.9z M607.2,118c0,3.7,2.5,6.2,6,6.2c1.9,0,3.5-0.6,4.6-1.8l-0.9-1.2c-1,1-2.3,1.5-3.6,1.5
	c-2.6,0-4.1-1.8-4.2-4.1h9.5v-0.5c0-3.5-2.1-6.3-5.6-6.3C609.6,111.8,607.2,114.6,607.2,118z M612.9,113.4c2.6,0,3.8,2.2,3.8,3.9
	h-7.7C609.2,115.5,610.5,113.4,612.9,113.4z M631.1,123.9v-16.2h-1.8v6.3c-1-1.3-2.4-2.1-3.9-2.1c-3.1,0-5.2,2.4-5.2,6.2
	c0,3.8,2.2,6.2,5.2,6.2c1.7,0,3.1-0.9,3.9-2v1.8L631.1,123.9L631.1,123.9z M629.3,120.7c-0.6,1-2.1,1.8-3.5,1.8
	c-2.3,0-3.8-1.9-3.8-4.5s1.4-4.6,3.8-4.6c1.4,0,2.9,0.9,3.5,1.9V120.7z M635,110.2c0.6,0,1.2-0.6,1.2-1.2s-0.6-1.2-1.2-1.2
	s-1.2,0.6-1.2,1.2S634.3,110.2,635,110.2z M635.9,123.9v-11.7H634v11.7H635.9z M647.9,123.9v-8c0-2.8-2.1-3.9-4.6-3.9
	c-1.9,0-3.4,0.6-4.7,1.9l0.9,1.3c1-1.1,2.2-1.6,3.6-1.6c1.7,0,3,0.9,3,2.5v2.1c-1-1.1-2.3-1.6-3.9-1.6c-2,0-4.1,1.2-4.1,3.8
	c0,2.6,2.1,3.9,4.1,3.9c1.6,0,2.9-0.6,3.9-1.6v1.4h1.8V123.9z M646.1,121.4c-0.7,1-1.9,1.4-3.2,1.4c-1.7,0-2.9-1-2.9-2.6
	c0-1.5,1.2-2.6,2.9-2.6c1.3,0,2.6,0.5,3.2,1.4V121.4z"/>
<path class="st11" d="M777.2,98.1h2v-6.4h4.5c3.2,0,5.1-2.2,5.1-4.9c0-2.6-1.8-4.9-5.1-4.9h-6.5V98.1z M786.6,86.8
	c0,1.8-1.3,3.1-3.2,3.1h-4.2v-6.2h4.2C785.4,83.6,786.6,84.9,786.6,86.8z M790.6,98.1h1.8v-8.3c0.6-1,2.1-1.8,3.2-1.8
	c0.3,0,0.5,0,0.7,0.1v-1.8c-1.6,0-3,0.9-3.9,2.2v-1.9h-1.8V98.1z M803,98.4c3.6,0,5.9-2.8,5.9-6.2c0-3.4-2.2-6.2-5.9-6.2
	s-5.9,2.7-5.9,6.2C797.1,95.6,799.4,98.4,803,98.4z M803,96.7c-2.5,0-3.9-2.2-3.9-4.6c0-2.4,1.4-4.5,3.9-4.5c2.5,0,3.9,2.2,3.9,4.5
	C806.9,94.6,805.5,96.7,803,96.7z M819.5,98.1h1.8V81.9h-1.8v6.3c-1-1.3-2.4-2.1-3.9-2.1c-3,0-5.2,2.4-5.2,6.2
	c0,3.8,2.2,6.2,5.2,6.2c1.7,0,3.1-0.9,3.9-2V98.1z M819.5,94.8c-0.6,1-2.1,1.8-3.5,1.8c-2.3,0-3.8-1.9-3.8-4.5s1.4-4.6,3.8-4.6
	c1.4,0,2.9,0.9,3.5,1.9V94.8z M832.2,98.1h1.8V86.3h-1.8v8.7c-0.7,1-2.1,1.8-3.4,1.8c-1.6,0-2.6-0.6-2.6-2.6v-7.7h-1.8v8.3
	c0,2.6,1.3,3.8,3.8,3.8c1.8,0,3.3-1,4.2-1.9V98.1z M836.2,92.2c0,3.5,2.3,6.2,5.9,6.2c2.2,0,3.4-0.9,4.3-2l-1.2-1.1
	c-0.8,1-1.8,1.5-3,1.5c-2.5,0-4.1-1.9-4.1-4.6c0-2.6,1.5-4.5,4.1-4.5c1.2,0,2.2,0.5,3,1.5l1.2-1.1c-0.9-1.2-2.2-2-4.3-2
	C838.6,86,836.2,88.7,836.2,92.2z M851.2,98.4c1,0,1.8-0.3,2.2-0.7l-0.6-1.4c-0.2,0.2-0.7,0.5-1.2,0.5c-0.8,0-1.2-0.6-1.2-1.5V88
	h2.4v-1.6h-2.4v-3.2h-1.8v3.2h-1.9V88h1.9v7.7C848.5,97.3,849.4,98.4,851.2,98.4z"/>
<g>
	<path class="st12" d="M1115.4,211.6v42.6c-0.2,1.5-0.2,3-0.4,4.6c-1.1,5.2-3.5,9.3-7.2,12.8c-4,3.7-8.6,5.9-13.8,6.3
		c-3.1,0.2-6.1,0-8.9,0.2v-13.7l6.5,0c0.9,0,1.5-0.2,2.2-0.2c4.8-1.1,7.9-5,7.9-10v-42.6c0-0.9,0-1.5-0.2-2.4
		c-1.1-4.6-5-7.6-10.1-7.6h-83.6v-13.7h82.3c1.8,0,3.5,0,5.3,0.2c8.1,1.5,14,5.9,17.8,13C1114.7,204.5,1115.4,208.1,1115.4,211.6z"
		/>
	<path class="st12" d="M975.3,264.4h89.5v13.7h-108c-0.2,0-0.3,0-0.7,0c-0.7,0-1.3-0.5-1.3-1.1c0-0.8,0.5-1.3,1.3-1.5
		c3.3-0.9,5.3-3.3,5.5-6.9v-71c0-3.5-1.8-6.1-5.7-7.2c-0.5-0.1-1.1-0.4-1.1-0.9c0-0.7,0.2-1.5,1.5-1.5h31.2v13.7h-12.3V264.4z"/>
	<path class="st11" d="M1084.9,187.2v0.7h-13.7c0-0.3,0-0.3,0-0.5v-6.7c0-1.3-0.2-2.6-0.7-3.9c-1.3-3.3-4.8-6.3-9.9-6.3h-53.1v31.1
		v24.3h53.1c0.7,0,0.9,0,2.2-0.2c4.4-0.7,7.9-4.3,8.2-8.9c0.2-3,0.2-6.3,0.2-9.3v-0.7h13.7v9.3c0,3.3-0.7,6.5-2,9.6
		c-1.3,2.6-2.9,5-5.1,7l0.2,0.2c4.4,4.6,6.6,9.8,6.8,15.9c0.2,5,0,10,0,15v0.7v13.7v3.5c0,2.4,0,4.6-0.2,7
		c-0.4,4.8-2.4,8.9-5.7,12.6c-4.8,5.2-11,7.8-18.3,7.8h-72.5c-0.9,0-1.3-0.3-1.3-0.9c-0.1-0.4,0.2-1.1,0.9-1.3
		c0.4-0.2,0.9-0.2,1.3-0.4c1.8-0.9,3.3-1.7,4-3.5c0.7-1.3,0.7-2.4,0.7-3.5v-16.3h13.9v12.4h53.3c1.1,0,2.2-0.2,3.1-0.4
		c4.4-1.3,7.3-5.2,7.3-10v-35c0,0-0.1-0.4-0.2-1.7c-0.7-5.2-4.8-8.7-10.1-8.7h-53.3v24.8h-13.9v-98.7c-0.2-2.6-1.3-4.6-3.7-5.6
		c-0.7-0.2-1.8-0.7-2.2-0.9c-0.7-0.2-1.1-0.9-0.9-1.5c0.3-0.8,1.2-0.9,1.1-0.9h73.8l0.2,0.2c6.6,0.2,12.1,2.8,16.5,7.4
		c4,4.1,5.9,8.9,6.4,14.3C1085.2,181.6,1084.9,184.4,1084.9,187.2z"/>
</g>
<text transform="matrix(1 0 0 1 990.4562 91.4824)"><tspan x="0" y="0" class="st11 st13 st14">InfluxDB </tspan><tspan x="-7.5" y="35" class="st11 st13 st14">University</tspan></text>
</svg>
