<?xml version="1.0" encoding="utf-8"?>
<!-- Generator: Adobe Illustrator 26.3.1, SVG Export Plug-In . SVG Version: 6.00 Build 0)  -->
<svg version="1.1" id="Layer_1" xmlns="http://www.w3.org/2000/svg" xmlns:xlink="http://www.w3.org/1999/xlink" x="0px" y="0px"
	 viewBox="0 0 428.3 559.8" style="enable-background:new 0 0 428.3 559.8;" xml:space="preserve">
<style type="text/css">
	.st0{clip-path:url(#SVGID_00000108268871579859459570000015224805018079752611_);}
	.st1{fill:url(#SVGID_00000152959547354399568090000006334272546748962697_);}
	.st2{fill:url(#SVGID_00000139981660249999329160000002145864387005677232_);}
	.st3{opacity:0.3;fill:#6B0A5C;enable-background:new    ;}
	.st4{opacity:0.5;fill:#6B0A5C;enable-background:new    ;}
	.st5{fill:#6B0A5C;}
	.st6{opacity:0.35;fill:#FFFFFF;enable-background:new    ;}
	.st7{fill:#D30971;}
	.st8{fill:url(#SVGID_00000104694510833571947510000015779020746617630376_);}
	.st9{opacity:0.3;fill:#FFFFFF;enable-background:new    ;}
	.st10{fill:#F0A9CD;}
	.st11{fill:#FFFFFF;}
	.st12{fill:#020A47;}
	.st13{fill:url(#SVGID_00000031165503712573181490000018137032197759292578_);}
	.st14{fill:url(#SVGID_00000002364140548350903900000009487306702772215976_);}
	.st15{fill-rule:evenodd;clip-rule:evenodd;fill:#D30971;}
	.st16{clip-path:url(#SVGID_00000030452370020101886040000002215189732066907018_);}
	.st17{fill-rule:evenodd;clip-rule:evenodd;fill:#020A47;}
	.st18{fill:#4E547E;}
	.st19{fill:url(#SVGID_00000147211892778790276110000010297554271189198240_);}
	.st20{fill:url(#SVGID_00000044158085302029092870000000708525887938459521_);}
	.st21{fill:#B1B3C6;}
	.st22{opacity:0.25;fill:#020A47;enable-background:new    ;}
	.st23{opacity:0.18;fill:#020A47;enable-background:new    ;}
	.st24{fill:url(#SVGID_00000029727572685860076180000015765638243485703345_);}
	.st25{opacity:0.22;fill:#FFFFFF;enable-background:new    ;}
	.st26{fill:url(#SVGID_00000036251872227143883810000016030003989492412330_);}
	.st27{fill:#EEEEF3;}
	.st28{opacity:0.5;fill:#020A47;enable-background:new    ;}
	.st29{fill:#373D6E;}
	.st30{clip-path:url(#SVGID_00000015337369641333826170000005561042003318969784_);}
	.st31{fill:url(#SVGID_00000065759050077871851080000006087280668771584957_);}
	.st32{opacity:0.58;fill:#FFFFFF;enable-background:new    ;}
	.st33{fill:#5EE4E4;}
	.st34{fill:url(#SVGID_00000009587192572990898590000012804277457580761477_);}
	.st35{opacity:0.8;fill:#5EE4E4;enable-background:new    ;}
	.st36{fill:#098A87;}
	.st37{fill:url(#SVGID_00000086687213702569847310000006499806753211016624_);}
	.st38{fill:url(#SVGID_00000026843256056461387500000000692646058026752402_);}
	.st39{fill:url(#SVGID_00000183246505966113345720000001258154695088001959_);}
	.st40{fill:url(#SVGID_00000112611115393262588110000016199887283321105316_);}
	.st41{fill:#2CA4A4;}
	.st42{fill-rule:evenodd;clip-rule:evenodd;fill:#5EE4E4;}
	.st43{clip-path:url(#SVGID_00000024722898561537530620000013371189624950867096_);}
	.st44{fill-rule:evenodd;clip-rule:evenodd;fill:#9B2AFF;}
	.st45{fill:url(#SVGID_00000123420052925866665300000016770902047608978817_);}
	.st46{opacity:0.7;fill:url(#SVGID_00000060722648448618974460000008639422483138951614_);enable-background:new    ;}
	.st47{opacity:0.7;fill:url(#SVGID_00000007417732022601774090000012632173412928287662_);enable-background:new    ;}
	.st48{fill:url(#SVGID_00000001622341526623000870000014981323635889124764_);}
	.st49{fill:url(#SVGID_00000168836816227661721390000001144379156193570944_);}
	.st50{fill:url(#SVGID_00000101816463441458268920000005283714058221113004_);}
	.st51{fill:url(#SVGID_00000079478612716299173240000007488440441933759656_);}
	.st52{fill:url(#SVGID_00000106113255472143856750000004681533094799123379_);}
	.st53{fill:url(#SVGID_00000096778716309957366270000001258731541792058030_);}
	.st54{fill:url(#SVGID_00000095334972663010569340000014382193621825621415_);}
	.st55{fill:url(#SVGID_00000155142054274932165310000015437583858172406918_);}
	.st56{fill:url(#SVGID_00000119113551873832932050000005183742219532536994_);}
	.st57{fill:url(#SVGID_00000104676521593869890100000017895529561637785769_);}
	.st58{fill:url(#SVGID_00000160903275863838616970000010018270186379273641_);}
	.st59{fill:url(#SVGID_00000169518498492591566530000017724852980816109975_);}
	.st60{fill:url(#SVGID_00000117663803577091534020000003927089810152491402_);}
	.st61{fill:url(#SVGID_00000038404086300831102090000011391674976679711165_);}
	.st62{fill:url(#SVGID_00000140011363805603611850000011320047054558720671_);}
	.st63{fill:#9B2AFF;}
	.st64{fill:url(#SVGID_00000042718342078044344380000016549387385760795578_);}
	.st65{fill:url(#SVGID_00000167384375052477031120000004314572573450066050_);}
	.st66{fill:url(#SVGID_00000029033142732829673040000012233931176757577136_);}
</style>
<g>
	<defs>
		<rect id="SVGID_00000134948967792164868480000005849965438764063378_" x="24.2" y="46" width="379.8" height="467.8"/>
	</defs>
	<clipPath id="SVGID_00000115489454352888763280000012324207227144427188_">
		<use xlink:href="#SVGID_00000134948967792164868480000005849965438764063378_"  style="overflow:visible;"/>
	</clipPath>
	<g style="clip-path:url(#SVGID_00000115489454352888763280000012324207227144427188_);">
		<path class="st25" d="M301.3,462.2v0.2c-0.6,0.7-1.3,1.3-2.1,1.7c-0.8,0.4-1.7,0.6-2.6,0.6H286c1.1,0,2.1-0.4,3-1
			c0.9-0.6,1.6-1.4,2.1-2.4l2-3.8c0.7-1.4,4.5-1.4,5.3,0L301.3,462.2z"/>
		
			<linearGradient id="SVGID_00000002342970769265090450000004860835351885762462_" gradientUnits="userSpaceOnUse" x1="31.2507" y1="458.69" x2="422.8814" y2="462.5925" gradientTransform="matrix(1 0 0 -1 0 802)">
			<stop  offset="0" style="stop-color:#D5F8F8"/>
			<stop  offset="0.92" style="stop-color:#5EE4E4"/>
		</linearGradient>
		<path style="fill:url(#SVGID_00000002342970769265090450000004860835351885762462_);" d="M149.9,287.8h39.7
			c7.2,0,14.2-2.4,19.9-6.9c5.7-4.5,9.6-10.7,11.3-17.7l11.1-46.4L289,219c6.7,74,12.9,150,17.1,224.8l0.9-0.3l0.8,16.8
			c0,2.4,0,4.4-2.5,4.4c-0.8,0-1.6-0.2-2.3-0.6c-0.7-0.4-1.3-1-1.6-1.8l-2.8-4.7c-0.8-1.3-4.6-1.3-5.3,0l-2,3.8
			c-0.5,1-1.2,1.9-2.2,2.4c-0.9,0.6-2,0.9-3.2,0.9h-10.3c-1.6,0-3.2-0.3-4.7-0.9c-1.5-0.6-2.8-1.5-4-2.6c-1.1-1.1-2-2.5-2.6-4
			c-0.6-1.5-0.9-3.1-0.9-4.7l0.9-2.6c0.3,0-0.3-1.1,0-1V423h-8.4c-3.1,0-6.1-1.2-8.3-3.4c-2.2-2.2-3.5-5.2-3.5-8.3v-5.5
			c0-1.9-0.4-3.7-1.1-5.5c-0.7-1.7-1.8-3.3-3.1-4.6c-1.3-1.3-2.9-2.4-4.7-3.1c-1.7-0.7-3.6-1.1-5.5-1l-62.5,0.5c0,0,0.7,33.9,1,48
			l0.8-0.3l0.8,16.8c0,2.4-0.7,4.4-3.1,4.4c-0.8,0-1.6-0.2-2.3-0.6c-0.7-0.4-1.3-1-1.6-1.8l-2.8-4.7c-0.3-0.3-0.7-0.6-1.1-0.7
			c-0.4-0.2-0.8-0.3-1.3-0.3c-0.4,0-0.9,0.1-1.3,0.3c-0.4,0.2-0.8,0.4-1.1,0.7l-2,3.8c-0.5,1-1.3,1.9-2.2,2.4c-1,0.6-2,0.9-3.2,0.9
			h-10.3c-3.2,0-6.3-1.3-8.6-3.6c-2.3-2.3-3.6-5.4-3.6-8.6v-3.9h0.8l-0.2-52.6c-2.8,0-5.4,1.1-7.5,2.9c-2.1,1.9-3.4,4.4-3.7,7.2
			l-4.2,44.2l0.7-0.3l-1.6,16.5c0,2.4-0.2,4.3-2.6,4.3c-0.8,0.1-1.6-0.1-2.3-0.6c-0.7-0.4-1.2-1.1-1.6-1.8c-0.3-1.1,0-3.4-0.3-4.7
			c-0.3-1.3-4.5-1.3-5.2,0l-1.9,3.7c-0.5,1-1.2,1.8-2.2,2.4c-0.9,0.6-2,0.9-3.1,0.9H80.5c-1.6,0-3.2-0.3-4.6-0.9
			c-1.5-0.6-2.8-1.5-3.9-2.6c-1.1-1.1-2-2.5-2.6-3.9c-0.6-1.5-0.9-3-0.9-4.6v-3.7h0.2c-0.7-11.5-3.4-55.4-4.6-72.6
			c-0.9-12.6-0.6-25.3,0.8-37.9c0.2-2,0.6-4,1-5.9c-4.3,2.3-24.7,8.6-34.2-12c-3.4-8.1-5-16.9-4.9-25.7c-0.1-0.7,0.1-1.3,0.4-1.9
			c0.3-0.6,0.8-1,1.4-1.4c0.6-0.3,1.2-0.4,1.9-0.4c0.7,0.1,1.3,0.3,1.8,0.7c29.5,19.4,36.3,2.4,65.7,0c8.4-4.2,17.7-6.4,27.1-6.4
			L149.9,287.8z"/>
		<path class="st32" d="M231.5,263.1c-1.7,7-5.6,13.3-11.3,17.7c-5.7,4.5-12.7,6.9-19.9,6.9h-10.7c7.2,0,14.2-2.4,19.9-6.9
			c5.7-4.5,9.6-10.7,11.3-17.7l10.9-46.4l10.8,0.4L231.5,263.1z"/>
		<path class="st32" d="M244.1,405.6v5.5c0,1.7,0.3,3.3,1,4.8c0.7,1.5,1.7,2.9,2.9,4c2.1,0,4.2,0,6.4,0c1.4,0,2.9,0,4.3,0
			c-1.2-1.1-2.2-2.4-2.8-3.9c-0.7-1.5-1-3.1-1-4.7v-5.5c0-1.9-0.4-3.7-1.1-5.5c-0.7-1.7-1.8-3.3-3.1-4.6c-1.3-1.3-2.9-2.4-4.7-3.1
			c-1.7-0.7-3.6-1.1-5.5-1.1h-9.2c3.5,0.4,6.7,2,9,4.6C242.8,398.8,244.1,402.1,244.1,405.6L244.1,405.6z"/>
		<path class="st32" d="M128.3,288.2c-1,0.1-2.1,0.3-3.1,0.5l-2.9,0.7c-1.5,0.3-3,0.7-4.4,1.2l-2.6,0.8l-0.5,0.2l-3,1.2
			c-1,0.5-2.1,0.9-3.1,1.4c-8,4-15.1,9.7-20.6,16.8c-5.5,7.1-9.4,15.3-11.4,24c-0.4,1.9-0.8,3.9-1,5.9c-1.4,12.6-1.7,25.3-0.8,37.9
			c0,0.6,0,1.3,0,2s0,0.5,0,0.7c0,0.9,0,1.8,0.2,2.8c0.2,1,0.2,3.1,0.3,4.7c0.1,1.6,0,2.8,0.2,4.3c0.2,2.4,0.3,5,0.5,7.7
			c1.2,19.3,2.7,42.6,3.2,50.5H79v3.7c0,3.1,1.2,6.1,3.4,8.4c2.2,2.3,5.1,3.6,8.2,3.7H80.2c-3.2,0-6.3-1.3-8.5-3.6
			c-2.3-2.3-3.5-5.3-3.5-8.6v-3.7h0.3c-0.5-7.8-1.9-31.1-3.2-50.5c0-2.7-0.3-5.2-0.5-7.7c0-1.5-0.2-2.9-0.3-4.3
			c-0.1-1.3-0.2-3.4-0.3-4.7s0-1.9-0.2-2.8c0-0.2,0-0.5,0-0.7c0-0.2,0-1.3,0-2c-0.9-12.6-0.6-25.3,0.8-37.9c0.2-2,0.5-3.9,1-5.9
			c2-8.8,5.9-17,11.4-24c5.5-7.1,12.6-12.8,20.6-16.8l0,0l3.1-1.4l3-1.2l0.5-0.2l2.6-0.8c1.4-0.5,2.9-0.8,4.4-1.1l2.8-0.6
			c1-0.2,2.1-0.4,3.1-0.5h1h2.1h1.4h3.2h10.9c-1,0-2.1,0-3.2,0c-0.5,0-0.9,0-1.4,0h-2.1L128.3,288.2z"/>
		<path class="st33" d="M195.9,299.8c1.3,1.9,6.2,2.7,9.5,2s6.5-2.1,4.8-6.5c-1.7-4.4-8.1-2.9-10.9-1.5
			C196.6,295.1,194.8,298.1,195.9,299.8z"/>
		<path class="st33" d="M149,299.8c1.3,1.9,6.3,2.7,9.7,2c3.4-0.7,6.5-3.1,4.9-6.5c-1.6-3.4-8.3-2.9-11-1.5S147.8,298.1,149,299.8z"
			/>
		<path class="st33" d="M171.1,293.2c-2.8,3.4-0.8,5.9,1.7,7.4c3.5,1.4,7.3,1.5,10.8,0.3c8.2-2,6.4-8.1,3.9-9.6
			C185.1,289.8,176.9,286.6,171.1,293.2z"/>
		<path class="st33" d="M136.1,312.2c1,0.6,2.2,1,3.4,1.2c1.2,0.1,2.4,0,3.6-0.4c3.9-0.8,4.1-4.1,1.4-5.3c-2.7-1.2-8.3-1.1-9.5,1
			c-0.3,0.6-0.4,1.3-0.2,2C135.1,311.2,135.5,311.8,136.1,312.2z"/>
		<path class="st33" d="M132.3,289.3h-17.9c-4,0-7.2,3.2-7.2,7.1s3.2,7.1,7.2,7.1h17.9c4,0,7.2-3.2,7.2-7.1S136.3,289.3,132.3,289.3
			z"/>
		<path class="st33" d="M170.7,305.4h-10.4c-2.3,0-4.2,1.9-4.2,4.2c0,2.3,1.9,4.2,4.2,4.2h10.4c2.3,0,4.2-1.9,4.2-4.2
			C174.8,307.3,173,305.4,170.7,305.4z"/>
		<path class="st33" d="M297.7,412.9c0,0,0-0.2,0-0.3l-1.9-38.1c-0.2-4.5-1.8-8.9-4.7-12.5c-2.8-3.6-6.7-6.2-11.1-7.4
			c2.4,6.6,3.9,13.4,4.4,20.4c0.1,1.3,0.1,2.7-0.2,4l0.9,6.7c0.3,2.9,0.4,3.4,0,1.1c1.1,7.7,2,14.8-4.2,20.9
			c-4.9,4.2-11.2,6.3-17.6,6.1c0,1.5,0,3,0,4.4c0.5,5,0.3,10.1,0.6,15.2H275c1.2,0,2.3-0.3,3.3-0.9c1-0.6,1.8-1.5,2.4-2.5l2.1-4.1
			c0.2-0.3,0.5-0.6,0.8-0.8c0.3-0.2,0.7-0.3,1.1-0.3c0.4,0,0.8,0.1,1.1,0.3c0.3,0.2,0.6,0.5,0.8,0.8l3,5.1c0.4,0.8,1,1.4,1.8,1.9
			c0.7,0.5,1.6,0.7,2.5,0.7c1.2,0,2.4-0.5,3.3-1.4c0.9-0.9,1.4-2.1,1.4-3.3L297.7,412.9z"/>
		<path class="st33" d="M239.2,230.1l52.1,25.5l-2.3-19.6L239.2,230.1z"/>
		
			<linearGradient id="SVGID_00000029763005788717947960000014569625718800934560_" gradientUnits="userSpaceOnUse" x1="49.871" y1="457.6825" x2="49.871" y2="500.5093" gradientTransform="matrix(1 0 0 -1 0 802)">
			<stop  offset="0" style="stop-color:#D5F8F8"/>
			<stop  offset="0.8" style="stop-color:#5EE4E4"/>
		</linearGradient>
		<path style="fill:url(#SVGID_00000029763005788717947960000014569625718800934560_);" d="M72.9,317.1l-7.8,18.3
			c-7.4,3.2-37.2,10.1-38.3-38.2c0-0.6,0.1-1.1,0.4-1.6c0.3-0.5,0.6-0.9,1.1-1.2c2.5,6.5,6.3,12.4,11.2,17.4
			C53.1,327,72.9,317.1,72.9,317.1z"/>
		<path class="st35" d="M168.3,410.6l-42.3-7.1v-11.2h42.3V410.6z"/>
		<path class="st36" d="M66.4,455.8c0,0-3.6-57.2-4.9-76.9c-0.9-12.8-0.6-25.6,0.8-38.4c1.9-15.3,9.3-29.3,20.9-39.5
			c11.6-10.2,26.4-15.8,41.8-15.7h64.6c6.6,0,13.1-2.3,18.3-6.4c5.2-4.1,8.8-9.9,10.3-16.4l11.1-46.4c0.1-0.3,0.2-0.6,0.4-0.9
			c0.2-0.3,0.4-0.5,0.7-0.7c0.3-0.2,0.6-0.3,0.9-0.3c0.3-0.1,0.7,0,1,0c0.6,0.2,1.2,0.6,1.6,1.1s0.5,1.2,0.3,1.9l-10.9,46.5
			c-1.8,7.6-6.1,14.3-12.2,19.1c-6.1,4.8-13.7,7.4-21.5,7.4H125c-14.2-0.1-27.9,5.1-38.5,14.5c-10.6,9.4-17.5,22.3-19.2,36.3
			c-1.4,12.4-1.7,25-0.8,37.4c1.3,19.8,4.9,76.9,4.9,76.9L66.4,455.8z"/>
		<path class="st36" d="M308.4,442.7l1,18c0,1.3-0.5,2.4-1.4,3.3c-0.9,0.9-2.1,1.4-3.3,1.4l0,0c-0.9,0-1.7-0.3-2.5-0.7
			c-0.7-0.5-1.3-1.1-1.7-1.9l-3-5.1c-0.2-0.3-0.5-0.6-0.8-0.8c-0.3-0.2-0.7-0.3-1.1-0.3c-0.4,0-0.8,0.1-1.1,0.3
			c-0.3,0.2-0.6,0.5-0.8,0.8l-2.1,4.1c-0.5,1.1-1.4,2-2.4,2.6c-1,0.6-2.2,0.9-3.4,0.9h-11c-3.5,0-6.8-1.4-9.3-3.9
			c-2.5-2.5-3.9-5.8-3.9-9.3v-4C277.5,450,293.4,448.1,308.4,442.7L308.4,442.7z"/>
		<path class="st36" d="M264.3,454.6c-0.7,0-1.3-0.3-1.8-0.7c-0.5-0.5-0.7-1.1-0.7-1.8v-32c0-0.7,0.3-1.3,0.7-1.8
			c0.5-0.5,1.1-0.7,1.8-0.7c0.7,0,1.3,0.3,1.8,0.7c0.5,0.5,0.7,1.1,0.7,1.8v32c0,0.7-0.3,1.3-0.7,1.8
			C265.6,454.3,265,454.6,264.3,454.6L264.3,454.6z"/>
		<path class="st36" d="M288.4,402l0.9,18c0,1.3-0.5,2.4-1.4,3.3c-0.9,0.9-2.1,1.4-3.3,1.4l0,0c-0.9,0-1.7-0.3-2.5-0.7
			c-0.7-0.5-1.3-1.1-1.7-1.9l-3-5.1c-0.2-0.3-0.5-0.6-0.8-0.8s-0.7-0.3-1.1-0.3c-0.4,0-0.8,0.1-1.1,0.3c-0.3,0.2-0.6,0.5-0.8,0.8
			l-2.1,4.1c-0.5,1.1-1.4,2-2.4,2.6c-1,0.6-2.2,1-3.4,0.9h-11c-3.5,0-6.8-1.4-9.3-3.9c-2.5-2.5-3.9-5.8-3.9-9.3v-4
			C257.4,409.3,273.4,407.4,288.4,402L288.4,402z"/>
		<path class="st36" d="M170.6,438.9l0.9,18c0,1.3-0.5,2.4-1.4,3.3c-0.9,0.9-2.1,1.4-3.3,1.4c-0.9,0-1.7-0.2-2.5-0.7
			c-0.7-0.5-1.4-1.1-1.7-1.9l-3-5.1c-0.2-0.3-0.5-0.6-0.8-0.8c-0.3-0.2-0.7-0.3-1.1-0.3s-0.8,0.1-1.1,0.3c-0.3,0.2-0.6,0.5-0.8,0.8
			l-2.1,4.1c-0.5,1.1-1.4,2-2.4,2.6c-1,0.6-2.2,1-3.4,0.9h-11c-1.7,0-3.4-0.3-5-1c-1.6-0.7-3-1.6-4.3-2.9c-1.2-1.2-2.2-2.7-2.8-4.3
			c-0.7-1.6-1-3.3-1-5v-4C139.6,446.1,155.6,444.3,170.6,438.9z"/>
		<path class="st36" d="M113.2,445.4l-1.7,17.9c0,1.2-0.5,2.4-1.4,3.3c-0.9,0.9-2.1,1.4-3.3,1.4l0,0c-0.9,0.1-1.8-0.1-2.5-0.6
			c-0.8-0.5-1.4-1.2-1.7-2c-0.3-1.2,0-3.8-0.3-5.1c-0.3-1.3-3-1.4-3.7,0l-2.1,4.1c-0.6,1-1.4,1.9-2.4,2.5c-1,0.6-2.2,0.9-3.3,0.9
			h-11c-1.7,0-3.4-0.3-5-1c-1.6-0.7-3-1.6-4.3-2.8c-1.2-1.2-2.2-2.7-2.8-4.3c-0.7-1.6-1-3.3-1-5v-3.8
			C82.3,452.7,98.3,450.8,113.2,445.4z"/>
		<path class="st36" d="M306,447.8c-0.6,0-1.3-0.2-1.7-0.7c-0.5-0.4-0.8-1-0.8-1.7c-4.5-81.9-11.5-163.9-17.1-226.2
			c-0.1-0.7,0.2-1.3,0.6-1.8c0.4-0.5,1.1-0.8,1.7-0.9c0.7-0.1,1.3,0.2,1.8,0.6c0.5,0.4,0.8,1.1,0.9,1.7
			c5.6,62.3,12.6,144.3,17.1,226.3c0,0.3,0,0.7-0.1,1s-0.3,0.6-0.5,0.9c-0.2,0.2-0.5,0.4-0.8,0.6c-0.3,0.1-0.6,0.2-1,0.2H306z"/>
		<path class="st36" d="M53.5,340.1c-4.8,0.1-9.6-1.2-13.7-3.7c-9.9-6.2-15.1-19.3-15.6-39.2c0-1.1,0.2-2.2,0.8-3.1
			c0.5-0.9,1.3-1.7,2.3-2.2c1-0.5,2.1-0.8,3.2-0.8c1.1,0,2.2,0.4,3.1,1c18.6,12.2,27.1,9.4,39.9,5c7.8-2.9,15.9-4.8,24.2-5.6
			c0.3,0,0.7,0,1,0.1c0.3,0.1,0.6,0.3,0.9,0.5c0.3,0.2,0.5,0.5,0.6,0.8s0.2,0.6,0.3,1c0,0.3,0,0.7-0.1,1c-0.1,0.3-0.3,0.6-0.5,0.9
			c-0.2,0.3-0.5,0.5-0.8,0.6c-0.3,0.2-0.6,0.2-1,0.3c-7.8,0.8-15.5,2.6-22.9,5.3c-13.2,4.5-23.5,8-44.3-5.6
			c-0.2-0.1-0.3-0.1-0.5-0.1c-0.2,0-0.4,0.1-0.5,0.1c-0.1,0.1-0.3,0.2-0.4,0.3c-0.1,0.1-0.1,0.3-0.1,0.5c0.4,18,4.8,29.8,13.2,35
			c3.4,1.8,7.1,2.8,10.9,2.9c3.8,0.1,7.6-0.6,11-2.2c0.6-0.3,1.3-0.3,1.9,0c0.6,0.2,1.1,0.7,1.4,1.3c0.3,0.6,0.3,1.3,0.1,1.9
			c-0.2,0.6-0.7,1.1-1.2,1.4C62.5,339.3,58,340.2,53.5,340.1L53.5,340.1z"/>
		<path class="st36" d="M110.4,451.3h-0.2c-0.7-0.1-1.3-0.4-1.7-0.9c-0.4-0.5-0.6-1.2-0.6-1.8l4.4-46.3c0.3-3.4,1.9-6.6,4.4-8.9
			c2.5-2.3,5.8-3.6,9.2-3.6l103.7-0.9c4.5,0,8.7,1.8,11.9,4.9c3.2,3.2,4.9,7.4,4.9,11.9v3.4c0,0.7-0.3,1.3-0.7,1.8
			c-0.5,0.5-1.1,0.7-1.8,0.7s-1.3-0.3-1.8-0.7c-0.5-0.5-0.7-1.1-0.7-1.8v-3.4c0-3.1-1.2-6-3.3-8.2c-2.2-2.2-5.1-3.5-8.2-3.5l0,0
			l-103.7,0.9c-2.2,0-4.3,0.8-5.9,2.3c-1.6,1.5-2.6,3.5-2.8,5.6l-4.5,46.3c-0.1,0.7-0.4,1.3-0.9,1.7
			C111.7,451.1,111.1,451.4,110.4,451.3L110.4,451.3z"/>
		<path class="st36" d="M126.3,448.7c-0.3,0-0.7-0.1-1-0.2c-0.3-0.1-0.6-0.3-0.8-0.5c-0.2-0.2-0.4-0.5-0.5-0.8
			c-0.1-0.3-0.2-0.6-0.2-1l-0.2-53.8c0-0.7,0.3-1.3,0.7-1.8c0.5-0.5,1.1-0.7,1.8-0.7l0,0c0.7,0,1.3,0.3,1.8,0.7
			c0.5,0.5,0.7,1.1,0.7,1.8l0.2,53.8c0,0.7-0.3,1.3-0.7,1.8C127.6,448.4,126.9,448.7,126.3,448.7L126.3,448.7z"/>
		<path class="st36" d="M168.3,448.7c-0.7,0-1.3-0.3-1.8-0.7c-0.5-0.5-0.7-1.1-0.8-1.7l-1.1-53.8c0-0.7,0.2-1.3,0.7-1.8
			c0.5-0.5,1.1-0.8,1.8-0.8c0.3,0,0.7,0.1,1,0.2c0.3,0.1,0.6,0.3,0.8,0.5c0.2,0.2,0.4,0.5,0.6,0.8c0.1,0.3,0.2,0.6,0.2,1l1.1,53.8
			c0,0.3,0,0.7-0.2,1c-0.1,0.3-0.3,0.6-0.5,0.8c-0.2,0.2-0.5,0.4-0.8,0.6C169,448.6,168.7,448.7,168.3,448.7L168.3,448.7z"/>
		<path class="st36" d="M286.1,406.7c-0.6,0-1.3-0.2-1.7-0.7c-0.5-0.4-0.8-1-0.8-1.7l-1.9-38.1c-0.2-4.3-2.1-8.4-5.2-11.4
			c-3.1-3-7.3-4.7-11.6-4.7l0,0l-27.3,0.2c-0.7,0-1.3-0.3-1.8-0.7c-0.5-0.5-0.7-1.1-0.7-1.8c0-0.7,0.3-1.3,0.7-1.8
			c0.5-0.5,1.1-0.7,1.8-0.7l27.3-0.2h0.2c5.6,0,11,2.2,15.1,6c4.1,3.9,6.5,9.2,6.8,14.8l1.9,38.2c0,0.3,0,0.7-0.2,1
			c-0.1,0.3-0.3,0.6-0.5,0.8c-0.2,0.2-0.5,0.4-0.8,0.6c-0.3,0.1-0.6,0.2-1,0.2H286.1z"/>
		<path class="st36" d="M66.4,455.8c0,0-1.9-30.6-3.4-54.8c0-2.7-0.3-5.2-0.5-7.7v-2c0-0.8,0-1.5,0-2.2c0-1.3-0.2-2.6-0.3-3.9V384
			c0-0.9,0-1.7-0.2-2.5v-0.3c0,0,0-0.3,0-0.4v-2c-0.9-12.8-0.6-25.6,0.8-38.3c0.2-2.1,0.6-4.1,1-6.1c2-9.1,5.9-17.6,11.6-24.9
			c5.7-7.3,12.9-13.3,21.1-17.6H97c1-0.5,2.1-1,3.1-1.4c1-0.4,2.1-0.9,3.1-1.3h0.5l2.7-0.9c1.5-0.5,3.1-0.9,4.6-1.2l3-0.6
			c1-0.2,2.2-0.4,3.4-0.5h0.9h2.3c0.5,0,1,0,1.5,0c0.9,0,2.1,0,3.2,0h64.5c6.7-0.1,13.3-2.4,18.5-6.7s8.8-10.2,10.1-16.8l11-46.4
			c0.1-0.3,0.2-0.6,0.4-0.9c0.2-0.3,0.4-0.5,0.7-0.7c0.3-0.2,0.6-0.3,0.9-0.3c0.3,0,0.7,0,1,0c0.3,0.1,0.6,0.2,0.9,0.4
			c0.3,0.2,0.5,0.4,0.7,0.7c0.2,0.3,0.3,0.6,0.3,0.9c0,0.3,0,0.7,0,1l-10.9,46.5c-1.8,7.6-6.1,14.3-12.2,19.1
			c-6.1,4.8-13.7,7.4-21.5,7.4H125h-3c-0.4,0-0.8,0-1.2,0c-0.9,0-1.6,0-2.2,0.2c-0.2,0-0.4,0-0.6,0c-1.1,0.1-2.1,0.3-3.2,0.5
			c-1,0-1.8,0.3-2.7,0.5c-1.4,0.3-2.8,0.7-4.2,1.1c-0.9,0.3-1.7,0.6-2.5,0.8l-0.7,0.2l-2.7,1.1c-1,0.4-2,0.9-3,1.4h-0.3
			c-7.7,3.8-14.4,9.3-19.7,16c-5.3,6.7-9,14.6-10.9,22.9c-0.4,1.9-0.7,3.7-0.9,5.6c-1.4,12.4-1.7,25-0.8,37.4v2v0.3c0,0,0,0.4,0,0.4
			c0,0.7,0,1.5,0,2.4v1.2c0,1.2,0.2,2.5,0.3,3.8c0,0.7,0,1.5,0,2.3v2c0,2.5,0.3,5,0.5,7.7c1.6,24.2,3.4,54.8,3.4,54.8L66.4,455.8z"
			/>
		
			<linearGradient id="SVGID_00000051378797111623381390000008655721652394761655_" gradientUnits="userSpaceOnUse" x1="315.6693" y1="661.1162" x2="383.2616" y2="683.7108" gradientTransform="matrix(1 0 0 -1 0 802)">
			<stop  offset="0.17" style="stop-color:#D5F8F8"/>
			<stop  offset="1" style="stop-color:#5EE4E4"/>
		</linearGradient>
		<path style="fill:url(#SVGID_00000051378797111623381390000008655721652394761655_);" d="M320.3,152.9c15.6-0.9,30.8-5,44.8-12
			c14-7,26.4-16.8,36.4-28.7l-55.6,2.8c-7.5,0.4-14.8,2.6-21.2,6.4c-6.5,3.8-11.9,9.2-15.8,15.6L320.3,152.9z"/>
		<path class="st36" d="M320.3,155.4c-0.7,0-1.3-0.3-1.8-0.7c-0.5-0.5-0.7-1.1-0.7-1.8s0.3-1.3,0.7-1.8c0.5-0.5,1.1-0.7,1.8-0.7
			c15.2-1,30.1-5,43.7-11.9c13.6-6.8,25.7-16.4,35.6-28c0.4-0.5,1-0.8,1.7-0.9c0.7-0.1,1.3,0.1,1.9,0.6c0.5,0.4,0.8,1.1,0.9,1.7
			c0.1,0.7-0.1,1.3-0.6,1.8c-10.3,12.3-22.9,22.3-37.2,29.4C351.9,150.3,336.3,154.5,320.3,155.4L320.3,155.4z"/>
		<path class="st36" d="M308.8,136.9c-10.4-6.3-2.9-1.8-5.2-3.2l0.2-0.4l0.5-0.7c0.3-0.5,0.6-1,1-1.4c0.4-0.5,1.4-1.9,2.3-2.8
			c1.5-1.8,3.2-3.4,5-5c3.5-3.1,7.4-5.7,11.7-7.7c4.3-2.2,8.8-3.7,13.5-4.6c2.2-0.4,4.5-0.6,6.7-0.7c2.3,0,4.2,0,6.4,0l50.5-0.7
			c0.3,0,0.7,0.1,1,0.2c0.3,0.1,0.6,0.3,0.8,0.5c0.2,0.2,0.4,0.5,0.6,0.8c0.1,0.3,0.2,0.6,0.2,1c0,0.6-0.2,1.2-0.7,1.7
			c-0.4,0.5-1,0.8-1.6,0.8l-50.1,4.3c-2.1,0.2-4.3,0.3-6.2,0.5c-1.9,0.2-3.8,0.5-5.6,1c-7.2,1.8-13.8,5.5-19,10.7
			c-1.3,1.3-2.5,2.7-3.6,4.1c-0.6,0.7-1,1.5-1.6,2.3l-0.7,1.2l-0.3,0.6v0.3C311.7,138.7,319.2,143.2,308.8,136.9z"/>
		
			<linearGradient id="SVGID_00000012432662550768935150000011258040963450388901_" gradientUnits="userSpaceOnUse" x1="222.8173" y1="672.9794" x2="162.5809" y2="711.0684" gradientTransform="matrix(1 0 0 -1 0 802)">
			<stop  offset="0.17" style="stop-color:#D5F8F8"/>
			<stop  offset="1" style="stop-color:#5EE4E4"/>
		</linearGradient>
		<path style="fill:url(#SVGID_00000012432662550768935150000011258040963450388901_);" d="M218,140.9c-15-4.5-28.8-12-40.8-22.1
			c-12-10-21.8-22.4-28.8-36.3L201.9,98c7.2,2.1,13.8,5.9,19.2,11.1c5.4,5.2,9.4,11.6,11.8,18.8L218,140.9z"/>
		<path class="st36" d="M218,143.4h-0.6c-15.3-4.6-29.6-12.2-41.8-22.5c-12.3-10.3-22.3-23-29.4-37.3c-0.3-0.6-0.3-1.3-0.1-1.9
			c0.2-0.6,0.7-1.2,1.2-1.5c0.6-0.3,1.3-0.3,1.9-0.1c0.6,0.2,1.1,0.7,1.5,1.3c6.9,13.6,16.5,25.7,28.2,35.5
			c11.7,9.8,25.2,17.2,39.8,21.7c0.6,0.1,1.1,0.5,1.5,1c0.4,0.5,0.5,1.1,0.4,1.7c-0.1,0.6-0.4,1.2-0.8,1.6c-0.5,0.4-1.1,0.6-1.7,0.6
			L218,143.4z"/>
		<path class="st36" d="M232.8,127.9l-5.8,1.9v-0.3l-0.2-0.7c0-0.4-0.3-0.9-0.4-1.3c-0.2-0.4-0.6-1.7-1-2.6
			c-0.7-1.7-1.6-3.3-2.5-4.9c-3.9-6.5-9.6-11.8-16.5-15.2c-1.7-0.9-3.4-1.6-5.2-2.3c-1.8-0.6-3.9-1.3-5.9-2l-47.7-15.7
			c-0.3-0.1-0.6-0.3-0.9-0.5c-0.3-0.2-0.5-0.5-0.6-0.8c-0.2-0.3-0.2-0.6-0.3-0.9s0-0.7,0.1-1c0.2-0.6,0.6-1.1,1.2-1.4
			c0.6-0.3,1.2-0.4,1.8-0.3l48.8,12.3c2.1,0.5,4,1,6.2,1.6c2.2,0.6,4.4,1.4,6.5,2.3c4.3,1.8,8.3,4.2,11.9,7.1
			c3.6,2.9,6.9,6.3,9.6,10.1c1.4,1.9,2.6,3.9,3.7,6c0.6,1,1,2.2,1.5,3.4c0.3,0.5,0.4,1.1,0.7,1.6l0.3,0.8v0.4v0.2
			C236,127,244.4,124.3,232.8,127.9z"/>
		<path class="st36" d="M296.7,50.2c3.1,5.7,5.7,11.8,7.6,18c2,6.3,3.4,12.7,4.2,19.3c0.8,6.8,0.7,13.7-0.3,20.5
			c-1.1,7-3.2,13.8-6.2,20.2c-0.9,2-2.6,3.6-4.7,4.4c-2.1,0.8-4.4,0.7-6.5-0.2c-2-0.9-3.6-2.6-4.4-4.7c-0.8-2.1-0.7-4.4,0.2-6.5
			c0.2-0.4,0.4-0.7,0.6-1.1l0.3-0.5c3.1-4.6,5.6-9.5,7.3-14.8c1.7-5.5,2.7-11.3,3-17.1c0.3-6,0-12-0.9-18c-0.9-6-2.3-12-4.3-17.7
			l0,0c-0.3-0.6-0.3-1.2-0.1-1.8c0.2-0.6,0.7-1,1.2-1.3c0.6-0.3,1.2-0.3,1.8-0.1C296,49.2,296.5,49.6,296.7,50.2L296.7,50.2z"/>
		<path class="st36" d="M270.5,49.7c-3.3,5.1-6.1,10.6-8.3,16.2c-2.3,5.6-4,11.4-5.1,17.3c-1.1,5.7-1.4,11.5-1,17.3
			c0.4,5.5,1.7,10.9,3.7,16.1v0.5c0.8,2.1,0.6,4.4-0.3,6.5c-1,2-2.7,3.6-4.8,4.3c-2.1,0.8-4.4,0.6-6.5-0.3c-2-1-3.6-2.7-4.3-4.8
			c-0.1-0.4-0.3-0.8-0.3-1.2c-1.5-7-2-14.1-1.4-21.2c0.7-6.8,2.2-13.5,4.6-19.9c4.5-12.4,11.4-23.8,20.2-33.6
			c0.4-0.4,0.9-0.7,1.5-0.8c0.6-0.1,1.2,0.1,1.6,0.5c0.5,0.4,0.8,0.9,0.9,1.5c0.1,0.6,0,1.2-0.3,1.7L270.5,49.7z"/>
		
			<linearGradient id="SVGID_00000073715355846276677450000014053044327586182314_" gradientUnits="userSpaceOnUse" x1="197.471" y1="636.9861" x2="395.5758" y2="612.9735" gradientTransform="matrix(1 0 0 -1 0 802)">
			<stop  offset="0.17" style="stop-color:#D5F8F8"/>
			<stop  offset="1" style="stop-color:#5EE4E4"/>
		</linearGradient>
		<path style="fill:url(#SVGID_00000073715355846276677450000014053044327586182314_);" d="M327.8,176.3l-21.1-48.9
			c-0.6-1.3-1.5-2.5-2.7-3.4c-1.2-0.9-2.6-1.4-4-1.6l-52.9-6.2c-1.5-0.2-3,0.1-4.3,0.6c-1.4,0.6-2.5,1.5-3.4,2.7l-31.8,42.7
			c-0.9,1.2-1.5,2.6-1.6,4.1c-0.2,1.5,0,3,0.6,4.3l21.1,48.9c0.6,1.3,1.5,2.5,2.7,3.4c1.2,0.9,2.6,1.4,4,1.6l52.8,6.2
			c1.5,0.2,3,0,4.3-0.6c1.4-0.6,2.5-1.5,3.4-2.7l31.8-42.7c0.9-1.2,1.5-2.5,1.7-4C328.5,179.2,328.3,177.7,327.8,176.3L327.8,176.3z
			"/>
		
			<linearGradient id="SVGID_00000171713258216787940900000006548724929073996677_" gradientUnits="userSpaceOnUse" x1="263.6898" y1="604.3347" x2="259.2625" y2="566.4758" gradientTransform="matrix(1 0 0 -1 0 802)">
			<stop  offset="0" style="stop-color:#D5F8F8"/>
			<stop  offset="0.43" style="stop-color:#D3F8F8"/>
			<stop  offset="0.59" style="stop-color:#CCF7F7"/>
			<stop  offset="0.7" style="stop-color:#C0F5F5"/>
			<stop  offset="0.79" style="stop-color:#B0F2F2"/>
			<stop  offset="0.87" style="stop-color:#9AEEEE"/>
			<stop  offset="0.94" style="stop-color:#7FEAEA"/>
			<stop  offset="1" style="stop-color:#5EE4E4"/>
		</linearGradient>
		<path style="fill:url(#SVGID_00000171713258216787940900000006548724929073996677_);" d="M292.3,192.8l-55.4-6.5l-4.1,35.1
			l55.4,6.5L292.3,192.8z"/>
		<path class="st36" d="M282,209.4c-0.3-0.2-0.5-0.4-0.9-0.5c-0.3-0.1-0.6-0.1-1-0.1c-0.3,0-0.7,0.1-1,0.3c-0.3,0.2-0.6,0.4-0.8,0.6
			c-1.7,1.5-3.9,2.4-6.2,2.5c-4.3,0.5-6.7-0.9-7-1.6l1-8.8c2.2,0.2,4.4-0.4,6.1-1.8c1.7-1.4,2.8-3.4,3.1-5.5v-0.2
			c0-0.3-0.1-0.7-0.3-0.9c-0.2-0.3-0.5-0.4-0.8-0.5l-18.4-2.2c-0.3,0-0.7,0.1-0.9,0.3c-0.3,0.2-0.4,0.5-0.5,0.8v0.2
			c-0.2,2.1,0.3,4.2,1.6,5.9c1.2,1.7,3.1,2.9,5.2,3.3l-0.9,8.9c-0.5,0.4-1.1,0.7-1.7,0.7c-1.9,0.2-3.8-0.1-5.5-0.7
			c-2.2-0.6-4.1-2-5.4-3.9c-0.2-0.3-0.4-0.6-0.6-0.8c-0.3-0.2-0.5-0.4-0.9-0.5c-0.3-0.1-0.7-0.1-1-0.1c-0.3,0-0.7,0.1-0.9,0.3
			c-0.6,0.3-1,0.8-1.2,1.5c-0.2,0.6-0.1,1.3,0.2,1.9c1.9,3,4.8,5.2,8.2,6.3c1.9,0.7,4,1.1,6,1.1c0.6,0.1,1.3,0.1,2,0
			c1-0.2,2-0.5,2.9-1c2.4,1.9,5.4,2.8,8.5,2.7h2.2c3.5-0.2,6.9-1.7,9.4-4.2c0.3-0.3,0.4-0.6,0.6-0.9s0.2-0.7,0.1-1.1
			c0-0.4-0.1-0.7-0.3-1C282.5,209.9,282.3,209.6,282,209.4z"/>
		<path class="st41" d="M333.3,176.6l-23-53.3c-0.6-1.5-1.7-2.8-3-3.7c-1.3-1-2.8-1.6-4.4-1.7l-57.6-6.7c-1.6-0.2-3.3,0-4.8,0.6
			c-1.5,0.6-2.8,1.7-3.8,3l-34.5,46.6c-1,1.3-1.6,2.8-1.8,4.4c-0.2,1.6,0.1,3.2,0.7,4.7l22.9,53.3c0.6,1.5,1.7,2.8,3,3.7
			c1.3,1,2.8,1.6,4.4,1.8l57.7,6.7c1.6,0.2,3.2-0.1,4.7-0.7c1.5-0.6,2.8-1.7,3.7-3l34.7-46.6c1-1.3,1.6-2.8,1.7-4.4
			C334.1,179.6,333.9,178,333.3,176.6z M320.8,183.5l-28.5,38.6c-0.8,1.1-1.9,1.9-3.1,2.4c-1.2,0.5-2.6,0.7-3.9,0.6l-47.5-5.7
			c-1.3-0.2-2.6-0.7-3.6-1.4c-1.1-0.8-1.9-1.8-2.4-3.1l-18.9-44c-0.5-1.2-0.7-2.6-0.6-3.9c0.2-1.3,0.7-2.6,1.4-3.6l28.6-38.4
			c0.8-1.1,1.9-1.9,3.1-2.4c1.2-0.5,2.6-0.7,3.9-0.6l47.5,5.6c1.3,0.1,2.6,0.6,3.7,1.4c1.1,0.8,1.9,1.9,2.4,3.1l18.9,44
			c0.5,1.2,0.7,2.6,0.6,3.9C322.1,181.2,321.6,182.5,320.8,183.5L320.8,183.5z"/>
		<path class="st41" d="M331.1,176.6c-0.1-0.3-0.3-0.6-0.6-0.8c-0.2-0.2-0.5-0.4-0.8-0.5c-0.3-0.1-0.6-0.2-1-0.2
			c-0.3,0-0.7,0.1-1,0.2l-31.1,13.5c-0.2,0.1-0.5,0.2-0.8,0.2c-0.3,0-0.5,0-0.8-0.1c-0.2-0.1-0.5-0.2-0.7-0.4
			c-0.2-0.2-0.3-0.4-0.4-0.6l-19-44c-0.2-0.5-0.2-1,0-1.5c0.2-0.5,0.6-0.9,1.1-1.1l30.7-13.5c0.6-0.3,1.1-0.8,1.4-1.4
			c0.2-0.6,0.2-1.3,0-2c-0.1-0.3-0.3-0.6-0.6-0.8c-0.2-0.2-0.5-0.4-0.8-0.5c-0.3-0.1-0.6-0.2-1-0.2c-0.3,0-0.7,0.1-1,0.2l-32.3,14.2
			c-0.3,0.1-0.7,0.2-1,0.2c-0.4,0-0.7-0.2-1-0.4l-26.9-20.4c-0.3-0.2-0.6-0.4-0.9-0.5c-0.3-0.1-0.7-0.1-1-0.1c-0.3,0-0.7,0.1-1,0.3
			c-0.3,0.2-0.6,0.4-0.8,0.7c-0.2,0.3-0.4,0.6-0.4,0.9s-0.1,0.7,0,1c0.1,0.3,0.2,0.7,0.4,1c0.2,0.3,0.4,0.5,0.7,0.7l25.4,19.3
			c0.2,0.2,0.4,0.4,0.5,0.6c0.1,0.2,0.2,0.5,0.3,0.7c0,0.3,0,0.5-0.1,0.8c-0.1,0.3-0.2,0.5-0.3,0.7l-28.5,38.6
			c-0.3,0.4-0.8,0.7-1.3,0.8c-0.5,0.1-1.1-0.1-1.5-0.4l-26.9-20.4c-0.5-0.4-1.2-0.6-1.9-0.5c-0.7,0.1-1.3,0.4-1.7,1
			c-0.4,0.5-0.6,1.2-0.5,1.9c0.1,0.7,0.4,1.3,1,1.7l27.8,20.9c0.6,0.4,1,1,1.3,1.6c0.3,0.6,0.4,1.4,0.3,2.1l-3.7,31.4
			c0,0.3,0,0.7,0.1,1c0.1,0.3,0.2,0.6,0.4,0.9c0.2,0.3,0.5,0.5,0.7,0.6c0.3,0.2,0.6,0.3,0.9,0.3h0.3c0.6,0,1.2-0.2,1.7-0.6
			c0.5-0.4,0.8-1,0.8-1.6l3.6-30.6c0.1-0.5,0.3-1,0.7-1.4c0.4-0.3,0.9-0.5,1.5-0.4l47.6,5.6c0.5,0.1,1,0.3,1.3,0.8
			c0.3,0.4,0.5,0.9,0.4,1.5l-3.6,30.6c-0.1,0.7,0.1,1.3,0.5,1.8c0.4,0.5,1,0.9,1.7,0.9h0.3c0.6,0,1.2-0.2,1.7-0.7
			c0.5-0.4,0.7-1,0.8-1.6l3.7-31.4c0.1-0.7,0.3-1.4,0.7-2c0.4-0.6,1-1.1,1.7-1.4l31.8-13.9c0.5-0.3,1-0.8,1.2-1.3
			C331.3,177.8,331.3,177.1,331.1,176.6L331.1,176.6z M243.6,181.6l25.1-33.6c0.2-0.2,0.4-0.4,0.6-0.5c0.3-0.1,0.5-0.1,0.8-0.1
			c0.3,0,0.5,0.1,0.8,0.3c0.2,0.2,0.4,0.4,0.5,0.6l16.6,38.6c0.1,0.3,0.2,0.7,0.1,1c0,0.3-0.2,0.7-0.4,1c-0.2,0.3-0.5,0.5-0.8,0.6
			c-0.3,0.1-0.7,0.2-1,0.2l-41-4.8c-0.3-0.1-0.6-0.2-0.9-0.4c-0.3-0.2-0.5-0.5-0.6-0.8c-0.1-0.3-0.2-0.6-0.1-1s0.2-0.7,0.3-0.9
			L243.6,181.6z"/>
		<path class="st12" d="M234.3,145.4c-0.5-0.1-1-0.1-1.5,0c-0.2,0-0.3,0-0.5,0c-1.9-0.1-3.7-0.4-5.5-1c-1.7-0.5-3.2-1.4-4.4-2.8l0,0
			c-0.2-0.2-0.5-0.4-0.8-0.4c-0.3,0-0.6,0-0.9,0.2c-0.3,0.2-0.5,0.4-0.5,0.7c-0.1,0.3-0.1,0.6,0,0.9c1.1,2.1,2.9,3.9,5,5l1,0.5
			c-0.3,0.3-0.5,0.5-0.8,0.8c-2.1,0.2-4.2-0.3-5.9-1.5c-0.2-0.1-0.4-0.2-0.6-0.2c-0.2,0-0.4,0.1-0.5,0.2c-0.1,0.1-0.2,0.3-0.2,0.5
			c0,0.2,0,0.4,0.2,0.6c1.2,1.4,2.7,2.3,4.4,2.8l1.2,0.3c-0.3,0.8-0.5,1.5-0.6,2.4c-0.2,1.9,0.1,3.9,1,5.6c0.9,1.7,2.3,3.2,4,4.1
			c1.7,1,3.7,1.4,5.6,1.2c1.9-0.2,3.8-0.9,5.3-2.1c1.5-1.2,2.7-2.8,3.3-4.7c0.6-1.9,0.6-3.9,0.1-5.7c-0.5-1.9-1.6-3.6-3.1-4.8
			c-1.5-1.3-3.3-2.1-5.3-2.3L234.3,145.4z"/>
		<path class="st11" d="M237.5,156.9c2.6,0,4.7-2.1,4.7-4.7s-2.1-4.7-4.7-4.7c-2.6,0-4.7,2.1-4.7,4.7S234.9,156.9,237.5,156.9z"/>
		<path class="st36" d="M290.2,238.5h-1.3l-57.7-6.7c-2-0.2-4-1-5.6-2.2c-1.7-1.2-3-2.9-3.8-4.7l-22.9-53.4c-0.8-1.9-1.1-4-0.9-6
			c0.2-2,1-4,2.2-5.6l34.7-46.6c1.2-1.6,2.9-2.9,4.8-3.7c1.9-0.8,4-1.1,6-0.9l57.7,6.7c2,0.2,4,1,5.6,2.2c1.7,1.2,3,2.9,3.8,4.7
			l22.9,53.3c0.8,1.9,1.1,4,0.9,6c-0.2,2-1,4-2.2,5.6l-34.7,46.6c-1.1,1.5-2.5,2.7-4.2,3.5C293.8,238.1,292,238.5,290.2,238.5
			L290.2,238.5z M244.2,113.5c-1,0-2.1,0.2-3,0.7c-0.9,0.5-1.7,1.1-2.4,2l-34.7,46.6c-0.7,1-1.2,2.1-1.3,3.3s0,2.4,0.5,3.5l23,53.3
			c0.5,1.1,1.2,2,2.2,2.7c0.9,0.7,2.1,1.1,3.2,1.3l57.6,6.7c1.2,0.1,2.3,0,3.4-0.5s2-1.2,2.7-2.1l34.7-46.6c0.7-1,1.2-2.1,1.3-3.3
			c0.1-1.2,0-2.4-0.5-3.5l0,0l-23-53.3c-0.5-1.1-1.2-2-2.2-2.7c-0.9-0.7-2-1.1-3.2-1.3l-57.7-6.7L244.2,113.5z"/>
		<path class="st12" d="M321.9,159.8c0-0.1-0.1-0.2-0.2-0.3c-0.1-0.1-0.2-0.1-0.3-0.2c-0.1,0-0.2-0.1-0.3,0c-0.1,0-0.2,0-0.3,0.1
			c-2,0.7-4.1,0.7-6.1,0c-0.2-0.3-0.4-0.7-0.6-1l1.1-0.2c2.3-0.6,4.4-1.9,6-3.7c0.2-0.2,0.3-0.6,0.3-0.9c0-0.3-0.2-0.6-0.4-0.8
			c-0.2-0.2-0.5-0.4-0.8-0.4c-0.3,0-0.6,0.1-0.9,0.3l0,0c-1.4,1-3.1,1.6-4.9,1.7c-1.8,0.1-3.7,0-5.5-0.3h-0.5
			c-0.4-0.1-0.9-0.3-1.4-0.3c-1.9-0.3-3.9,0-5.7,0.9c-1.8,0.9-3.2,2.2-4.2,3.9c-1,1.7-1.5,3.6-1.3,5.6c0.1,2,0.8,3.8,2,5.4
			c1.2,1.6,2.8,2.7,4.6,3.4c1.8,0.6,3.8,0.7,5.7,0.2c1.9-0.5,3.6-1.5,4.9-3c1.3-1.5,2.1-3.3,2.4-5.2c0.1-0.8,0.1-1.6,0-2.4h1.2
			c1.8-0.1,3.5-0.6,5-1.6c0.2-0.1,0.3-0.3,0.3-0.5C322.1,160.1,322,159.9,321.9,159.8L321.9,159.8z"/>
		<path class="st11" d="M302.2,164.5c2.6,0,4.7-2.1,4.7-4.7c0-2.6-2.1-4.7-4.7-4.7s-4.7,2.1-4.7,4.7
			C297.5,162.4,299.6,164.5,302.2,164.5z"/>
		<path class="st42" d="M144.5,488.4c-0.8,0-1.6-0.3-2.2-0.8c-0.3-0.3-0.5-0.6-0.6-0.9c-0.1-0.4-0.2-0.7-0.2-1.1
			c0-0.4,0.1-0.8,0.2-1.1c0.1-0.4,0.4-0.7,0.6-0.9c0.6-0.5,1.4-0.8,2.2-0.8c0.8,0,1.6,0.3,2.2,0.8c0.3,0.3,0.5,0.6,0.6,0.9
			c0.1,0.4,0.2,0.7,0.2,1.1c0,0.4-0.1,0.8-0.2,1.1c-0.1,0.4-0.4,0.7-0.6,0.9C146.1,488.2,145.3,488.5,144.5,488.4L144.5,488.4z
			 M141.8,506.4v-15.5h5.4v15.5H141.8z M150.9,506.4v-15.5h5.3v1.9c0.4-0.7,1-1.4,1.7-1.7c0.8-0.4,1.8-0.7,2.7-0.6
			c0.7-0.1,1.5,0.1,2.2,0.4c0.7,0.3,1.3,0.7,1.8,1.3c1,1.4,1.5,3.1,1.4,4.8v9.5h-5.4V498c0-1.8-0.7-2.7-2.1-2.7c-0.3,0-0.7,0-1,0.2
			c-0.3,0.1-0.6,0.3-0.8,0.6c-0.4,0.6-0.6,1.4-0.6,2.2v8.2H150.9z M171.1,506.4v-11.1h-2.5v-4.4h2.5v-1.5c-0.1-2,0.5-4,1.7-5.5
			c0.6-0.7,1.4-1.2,2.3-1.5c0.9-0.3,1.8-0.5,2.7-0.4c0.6,0,1.2,0.1,1.7,0.2c0.5,0.1,1,0.2,1.4,0.3l-0.3,4.5
			c-0.3-0.1-0.5-0.2-0.8-0.2H179c-0.4,0-0.7,0-1,0.2c-0.3,0.1-0.6,0.3-0.9,0.6c-0.5,0.7-0.7,1.5-0.6,2.4v1.1h3.7v4.4h-3.5v11.1
			L171.1,506.4z M182.6,506.4V482h5.5v24.3H182.6z M196.8,506.8c-0.7,0.1-1.5-0.1-2.1-0.3c-0.7-0.3-1.3-0.7-1.8-1.3
			c-1-1.4-1.5-3.1-1.4-4.8v-9.6h5.5v8.4c0,0.7,0.1,1.4,0.5,2.1c0.2,0.2,0.5,0.4,0.7,0.5c0.3,0.1,0.6,0.2,0.9,0.1
			c0.3,0,0.6,0,0.9-0.2c0.3-0.1,0.5-0.3,0.7-0.6c0.4-0.7,0.6-1.4,0.6-2.2v-8.2h5.5v15.5h-5.2v-1.9c-0.4,0.8-1,1.4-1.8,1.7
			c-0.9,0.5-1.8,0.7-2.8,0.6H196.8z M209.2,506.4l5.7-8l-5.1-7.5h6.1l2.5,4.2l2.5-4.2h5.8l-5.3,7.6l5.7,7.9h-6.2l-2.8-4.7l-2.8,4.7
			H209.2z M236.1,506.8c-1.3,0-2.6-0.3-3.7-1c-1.1-0.7-2-1.7-2.6-2.8c-0.6-1.3-0.9-2.7-0.9-4.1c0-1.4,0.3-2.8,1-4
			c0.6-1.2,1.6-2.2,2.7-2.9c1.1-0.7,2.5-1.1,3.8-1.1c1.1,0,2.2,0.3,3.1,0.8c1,0.6,1.8,1.4,2.3,2.4v-12h2.6v24.3h-2.5v-2.8
			c-0.6,1-1.4,1.8-2.4,2.4c-1,0.5-2.1,0.8-3.2,0.8H236.1z M236.8,504.6c1,0,1.9-0.2,2.8-0.7c0.8-0.5,1.4-1.2,1.8-2
			c0.5-0.9,0.7-1.9,0.7-3c0-1-0.2-2.1-0.7-3c-0.4-0.8-1-1.5-1.8-2c-0.6-0.4-1.3-0.6-2-0.7c-0.7-0.1-1.4-0.1-2.1,0.1
			c-0.7,0.2-1.3,0.5-1.9,1c-0.6,0.5-1,1-1.3,1.7c-0.4,0.9-0.7,1.9-0.7,3s0.2,2,0.7,3c0.4,0.8,1.1,1.6,1.9,2
			C234.9,504.4,235.8,504.6,236.8,504.6L236.8,504.6z M257.8,506.8c-1.2,0.1-2.3-0.2-3.4-0.8c-1-0.6-1.7-1.4-2.2-2.4v2.8h-2.1V482
			h2.6v12c0.6-1,1.4-1.8,2.4-2.4c1-0.6,2.2-0.9,3.4-0.8c1.3,0,2.6,0.3,3.7,1c1.1,0.7,2,1.7,2.6,2.8c0.6,1.3,0.9,2.7,0.9,4.2
			c0,1.4-0.3,2.8-1,4c-0.6,1.2-1.6,2.2-2.7,2.9c-1.2,0.7-2.5,1.1-3.8,1H257.8z M257.5,504.6c1,0,1.9-0.2,2.7-0.7
			c0.8-0.5,1.4-1.2,1.8-2c0.5-0.9,0.7-1.9,0.7-3c0-1-0.2-2.1-0.7-3c-0.4-0.8-1-1.5-1.8-2c-0.8-0.5-1.8-0.7-2.7-0.7
			c-1,0-1.9,0.2-2.8,0.7c-0.8,0.5-1.4,1.2-1.9,2c-0.4,0.9-0.7,1.9-0.7,3s0.2,2,0.7,3c0.4,0.8,1.1,1.5,1.9,2c0.9,0.6,2,0.9,3,0.8
			L257.5,504.6z"/>
		<path class="st42" d="M118.2,502.9l8.1-1.9h0.4c0.1-0.1,0.2-0.2,0.2-0.3c0-0.1,0-0.2,0-0.3c0-0.1,0-0.3,0-0.4l-3.4-15
			c-0.1-0.2-0.2-0.5-0.5-0.6c-0.2-0.1-0.5-0.2-0.7-0.1l-8.1,1.9c-0.2,0.1-0.4,0.2-0.6,0.4c-0.1,0.2-0.1,0.5,0,0.7l3.4,15
			c0.1,0.2,0.2,0.4,0.4,0.6C117.8,503,118,503,118.2,502.9L118.2,502.9z"/>
		<path class="st42" d="M115.6,512.2l9.9-9.2c0.4-0.4,0.3-0.6-0.2-0.4l-6.7,1.5c-0.3,0.1-0.5,0.2-0.7,0.4c-0.2,0.2-0.4,0.4-0.5,0.7
			l-2.1,6.7C114.9,512.4,115.1,512.6,115.6,512.2z"/>
		<path class="st42" d="M97.4,509.2l14.8,4.6c0.2,0.1,0.5,0.1,0.7,0c0.2-0.1,0.4-0.3,0.5-0.6l2.5-7.9c0-0.1,0-0.2,0-0.4
			c0-0.1,0-0.2,0-0.4l-0.2-0.3h-0.4l-14.8-4.5c-0.2-0.1-0.5-0.1-0.8,0c-0.2,0.1-0.4,0.3-0.5,0.6l-2.5,7.8c-0.1,0.2-0.1,0.5,0,0.7
			c0.1,0.1,0.2,0.2,0.3,0.3C97.2,509.1,97.3,509.2,97.4,509.2L97.4,509.2z"/>
		<path class="st42" d="M92.6,492.9l3,13.1c0,0.5,0.3,0.5,0.5,0l2.1-6.7c0.1-0.3,0.1-0.6,0-0.8c-0.1-0.3-0.2-0.5-0.4-0.8l-4.7-5.1
			C92.7,492.3,92.5,492.4,92.6,492.9z"/>
		<path class="st42" d="M104.2,478.9l-11.3,10.5c-0.2,0.2-0.3,0.4-0.3,0.7c0,0.1,0,0.2,0,0.4c0,0.1,0.1,0.2,0.2,0.3l5.7,6.2
			c0.2,0.2,0.4,0.3,0.6,0.3c0.3,0,0.5-0.1,0.7-0.3l11.3-10.5c0.2-0.2,0.3-0.4,0.3-0.7c0-0.1,0-0.2-0.1-0.4c0-0.1-0.1-0.2-0.2-0.3
			l-5.8-6.2l-0.3-0.2c-0.1,0-0.2,0-0.4,0c-0.1,0-0.2,0-0.4,0L104.2,478.9z"/>
		<path class="st42" d="M115.2,502.7c0.5,0,0.8-0.2,0.7-0.7l-3.4-14.2c0-0.5-0.6-0.7-0.9-0.3l-10.7,10.1c-0.1,0.1-0.2,0.1-0.2,0.2
			c0,0.1-0.1,0.2,0,0.3c0,0.1,0.1,0.2,0.2,0.3c0.1,0.1,0.2,0.1,0.3,0.1L115.2,502.7z"/>
		<path class="st42" d="M120.7,482.9l-12.9-4c-0.5,0-0.6,0-0.2,0.5l4.7,5.1c0.2,0.2,0.5,0.3,0.7,0.4c0.3,0.1,0.6,0.1,0.8,0l6.7-1.5
			C121.2,483.2,121.2,483,120.7,482.9z"/>
		<path class="st42" d="M272,486.4v-3.2h-1.2v-0.6h3.1v0.6h-1.2v3.2H272z M274.5,486.4l0.2-3.8h0.7l1.2,2.4l1.2-2.4h0.7l0.2,3.8
			h-0.7v-2.8l-1,2.2h-0.5l-1.1-2.2v2.9H274.5z"/>
	</g>
</g>
</svg>
