<?xml version="1.0" encoding="utf-8"?>
<!-- Generator: Adobe Illustrator 21.1.0, SVG Export Plug-In . SVG Version: 6.00 Build 0)  -->
<svg version="1.1" id="InfluxData_Complete_Logo" xmlns="http://www.w3.org/2000/svg" xmlns:xlink="http://www.w3.org/1999/xlink"
	 x="0px" y="0px" width="1400px" height="800px" viewBox="0 0 1400 800" style="enable-background:new 0 0 1400 800;"
	 xml:space="preserve">
<style type="text/css">
	.st0{fill:#373D4A;}
	.st1{fill:#5D667C;}
	.st2{fill:#464D5D;}
	.st3{fill:#20232A;}
	.st4{fill:#4E5567;}
	.st5{fill:#2F343F;}
	.st6{fill:#7CE490;}
	.st7{fill:#D1F7DD;}
	.st8{fill:#9DEBAF;}
	.st9{fill:#47D862;}
	.st10{fill:none;}
</style>
<g>
	<g>
		<path class="st0" d="M625.3,514.8c18.1-16.9,21.2-25.7,25.3-41.7l33.4-126h-23.7l8.7-33.4c0.9-3.3,3.8-5.6,7.2-5.6h18l5.6-21.7
			c10.1-37.9,25.6-52.5,67.9-52.5c11.8,0,30.9,1.8,48.9,6.1c5.4,1.3,11.1,1.6,16.6,0.7l41.5-6.7l-60,227.9
			c-1.7,6.6-7.7,11.2-14.5,11.2h-36.2l49.3-188.3c0.8-3.2-1.2-6.5-4.4-7.2c-13-2.7-31.5-4.7-43.7-4.7c-10.8,0-14.5,2.7-16.9,11.2
			l-6.5,24h42.7l-11.3,32.5c-1.3,3.8-5,6.4-9,6.4h-32.5l-34.5,131.4c-6.1,23-15.6,39.3-43.6,64.7L625.3,514.8z"/>
		<path class="st0" d="M909.3,420c-0.5,1.7-1,3.7-1.1,5.1c-0.3,3.4,1.2,5.1,6,5.1c6.8,0,21.7-5.6,34.1-11
			c6.3-2.7,10.9-8.2,12.7-14.8l22-83.7c1.4-5.3,5.8-9.2,11.2-9.9l40.8-5.6L993.7,462c-1.7,6.6-7.7,11.2-14.5,11.2h-29.1l1-15.2
			c-26.8,12.2-47.7,18.6-66.7,18.6c-21.7,0-29-12.9-27.2-33.5c0.6-6.8,1.7-12.2,3.4-19l27.2-103.4c1.4-5.3,5.8-9.2,11.2-9.9
			l40.4-5.6L909.3,420z"/>
		<path class="st0" d="M1103.4,431.8l-31.9,34.8c-3.8,4.1-9.1,6.5-14.7,6.5h-41.7l72.6-83l-28.7-78.2l36.2-5.3
			c5.8-0.8,11.4,2.7,13,8.3l13.6,45.1L1156,316c3.8-4.9,9.6-7.8,15.8-7.8h41l-74.1,88.4l28.2,76.6h-39.6c-4.9,0-9.3-3-11.1-7.6
			L1103.4,431.8z"/>
	</g>
	<g>
		<path class="st0" d="M220.8,507.2c2.3,10.1,12.4,20.9,22.3,23.9L383,573.9c9.9,3,24.3-0.3,31.9-7.4l107-99.8
			c7.6-7.1,11.9-21.2,9.6-31.3l-32.9-142.6c-2.3-10.1-12.4-20.9-22.3-23.9l-139.9-42.8c-9.9-3-24.3,0.3-31.9,7.4l-107,99.8
			c-7.6,7.1-11.9,21.2-9.6,31.3L220.8,507.2z"/>
		<path class="st1" d="M316.3,226.9l-29.2,95.4l176.1,53.8l29.2-95.3c-4.3-5.5-10.3-10-16.1-11.8l-77.1-23.6l-62.9-19.2
			C330.4,224.3,323,224.8,316.3,226.9z"/>
		<path class="st2" d="M231.4,524.1l97.2-22.4l-41.4-179.4L190,344.7c-2.6,6.5-3.5,13.9-2.2,19.9l32.9,142.6
			C222.2,513.2,226.3,519.4,231.4,524.1z"/>
		<path class="st3" d="M521.9,466.7c4.5-4.2,7.8-10.9,9.3-17.7l-68-72.9L328.6,501.6l68,72.9c6.9-1,13.8-3.9,18.3-8.1L521.9,466.7z"
			/>
		<path class="st4" d="M531.5,435.4l-32.9-142.6c-0.9-4.1-3.2-8.3-6.2-12.1l-29.2,95.3l68,72.9C532.3,444.3,532.4,439.5,531.5,435.4
			z"/>
		<path class="st5" d="M396.6,574.6l-68-72.9l-97.2,22.4c3.5,3.2,7.6,5.7,11.6,7l140.3,42.9C387.3,575.1,391.9,575.3,396.6,574.6z"
			/>
		<path class="st4" d="M287.2,322.3l29.2-95.4c-4.5,1.4-8.7,3.6-11.8,6.5l-107.2,99.9c-3.1,2.9-5.6,6.9-7.4,11.4L287.2,322.3z"/>
	</g>
	<g>
		<path class="st6" d="M450.9,446.1c-6.4-6.9-15.2-10.9-24.6-11.2c-4.9-0.2-9.7,0.7-14.2,2.4l-39-41.8l16.7-54.7
			c4.8-0.4,9.5-1.7,13.8-4c8.3-4.4,14.4-11.8,17.2-20.9c2.8-9,1.8-18.6-2.6-26.9c-4.4-8.3-11.8-14.4-20.9-17.2
			c-18.6-5.7-38.4,4.8-44.1,23.5c-2.8,9-1.8,18.6,2.6,26.9c2.3,4.4,5.5,8.1,9.2,11.1l-16.7,54.7l-55.7,12.9
			c-2.7-3.9-6.2-7.3-10.4-10c-8-5-17.5-6.6-26.7-4.5h0c-19,4.4-30.9,23.4-26.5,42.4c2.1,9.2,7.7,17,15.7,22
			c5.7,3.6,12.1,5.4,18.7,5.4c2.7,0,5.4-0.3,8-0.9c9.2-2.1,17-7.7,22-15.7c2.6-4.2,4.3-8.8,5-13.5l55.7-12.9l39,41.9
			c-6,12.7-4.1,28.4,6,39.3c6.4,6.9,15.2,10.9,24.6,11.2c0.4,0,0.8,0,1.3,0c9,0,17.5-3.3,24.1-9.5
			C463.4,482.7,464.2,460.3,450.9,446.1z M363.7,318c-3.3-6.2-4-13.4-1.9-20.2c3.5-11.4,14-18.7,25.3-18.7c2.6,0,5.2,0.4,7.7,1.2
			c6.8,2.1,12.3,6.6,15.6,12.9c3.3,6.2,4,13.4,1.9,20.2l0,0c-2.1,6.8-6.6,12.3-12.9,15.6c-2.2,1.2-4.5,2-6.8,2.5l6.7-22.1
			c2.1-6.8-1.8-14.1-8.6-16.2c-6.8-2.1-14.1,1.8-16.2,8.6l-6.7,22.1C366.3,322.1,364.9,320.1,363.7,318z M286,434.8
			c-3.7,6-9.6,10.2-16.5,11.8c-6.9,1.6-14,0.4-20-3.3c-6-3.7-10.2-9.6-11.8-16.5c-3.3-14.2,5.6-28.5,19.8-31.7h0c2-0.5,4-0.7,6-0.7
			c4.9,0,9.7,1.4,14,4c2.1,1.3,3.9,2.9,5.5,4.6l-22.5,5.2c-7,1.6-11.3,8.6-9.7,15.5c1.4,6,6.7,10,12.6,10c1,0,1.9-0.1,2.9-0.3
			l22.5-5.2C288.2,430.5,287.3,432.7,286,434.8z M443.1,489.5c-5.2,4.8-11.9,7.3-19,7.1c-7.1-0.2-13.6-3.2-18.4-8.4h0
			c-6.7-7.2-8.6-17.3-5.8-26.1l15.7,16.9c2.6,2.7,6,4.1,9.5,4.1c3.2,0,6.3-1.2,8.8-3.5c5.2-4.9,5.5-13.1,0.6-18.3l-15.7-16.9
			c2-0.5,4.1-0.8,6.2-0.8c0.3,0,0.6,0,0.9,0c7.1,0.2,13.6,3.2,18.4,8.4C454.4,462.8,453.8,479.6,443.1,489.5z"/>
		<path class="st7" d="M389.9,340.8c4.8-0.4,9.5-1.7,13.8-4c8.3-4.4,14.4-11.8,17.2-20.9c2.8-9,1.8-18.6-2.6-26.9
			c-4.4-8.3-11.8-14.4-20.9-17.2c-18.6-5.7-38.4,4.8-44.1,23.5c-2.8,9-1.8,18.6,2.6,26.9c2.3,4.4,5.5,8.1,9.2,11.1l-3.6,11.8
			l24.8,7.6L389.9,340.8z M368,323.8c-1.6-1.7-3.1-3.7-4.2-5.8c-3.3-6.2-4-13.4-1.9-20.2c3.5-11.4,14-18.7,25.3-18.7
			c2.6,0,5.2,0.4,7.7,1.2c6.8,2.1,12.3,6.6,15.6,12.9c3.3,6.2,4,13.4,1.9,20.2l0,0c-2.1,6.8-6.6,12.3-12.9,15.6
			c-2.2,1.2-4.5,2-6.8,2.5l6.7-22.1c2.1-6.8-1.8-14.1-8.6-16.2c-6.8-2.1-14.1,1.8-16.2,8.6L368,323.8z"/>
		<path class="st8" d="M292.6,400.7c-2.7-3.9-6.2-7.3-10.4-10c-8-5-17.5-6.6-26.7-4.5h0c-19,4.4-30.9,23.4-26.5,42.4
			c2.1,9.2,7.7,17,15.7,22c5.7,3.6,12.1,5.4,18.7,5.4c2.7,0,5.4-0.3,8-0.9c9.2-2.1,17-7.7,22-15.7c2.6-4.2,4.3-8.8,5-13.5l12-2.8
			l-5.8-25.2L292.6,400.7z M286,434.8c-3.7,6-9.6,10.2-16.5,11.8c-6.9,1.6-14,0.4-20-3.3c-6-3.7-10.2-9.6-11.8-16.5
			c-3.3-14.2,5.6-28.5,19.8-31.7h0c2-0.5,4-0.7,6-0.7c4.9,0,9.7,1.4,14,4c2.1,1.3,3.9,2.9,5.5,4.6l-22.5,5.2
			c-7,1.6-11.3,8.6-9.7,15.5c1.4,6,6.7,10,12.6,10c1,0,1.9-0.1,2.9-0.3l22.5-5.2C288.2,430.5,287.3,432.7,286,434.8z"/>
		<path class="st9" d="M393.2,455c-6,12.7-4.1,28.4,6,39.3c6.4,6.9,15.2,10.9,24.6,11.2c0.4,0,0.8,0,1.3,0c9,0,17.5-3.3,24.1-9.5
			c14.2-13.3,15-35.7,1.7-49.9c-6.4-6.9-15.2-10.9-24.6-11.2c-4.9-0.2-9.7,0.7-14.2,2.4l-6.8-7.2l-18.9,17.7L393.2,455z
			 M399.9,462.1l15.7,16.9c2.6,2.7,6,4.1,9.5,4.1c3.2,0,6.3-1.2,8.8-3.5c5.2-4.9,5.5-13.1,0.6-18.3l-15.7-16.9
			c2-0.5,4.1-0.8,6.2-0.8c0.3,0,0.6,0,0.9,0c7.1,0.2,13.6,3.2,18.4,8.4c9.9,10.7,9.4,27.5-1.3,37.4c-5.2,4.8-11.9,7.3-19,7.1
			c-7.1-0.2-13.6-3.2-18.4-8.4h0C399,481,397.1,471,399.9,462.1z"/>
	</g>
</g>
<rect x="184" y="224" class="st10" width="1032" height="352"/>
</svg>
