<?xml version="1.0" encoding="utf-8"?>
<!-- Generator: Adobe Illustrator 19.1.0, SVG Export Plug-In . SVG Version: 6.00 Build 0)  -->
<svg version="1.1" id="Layer_1" xmlns="http://www.w3.org/2000/svg" xmlns:xlink="http://www.w3.org/1999/xlink" x="0px" y="0px"
	 viewBox="150 166 900 470" style="enable-background:new 150 166 900 470;" xml:space="preserve">
<style type="text/css">
	.st0{fill:#FFFFFF;}
	.st1{fill:#757888;}
</style>
<rect x="150" y="166" class="st0" width="900" height="470"/>
<g>
	<path class="st1" d="M407.1,413.3l-10.9-47.6c-0.4-1.9-2.4-4-4.3-4.6L342,345.7c-1.9-0.6-4.7,0-6.1,1.4l-35.8,33.2
		c-1.5,1.4-2.3,4.1-1.9,6l11.6,50.9c0.4,1.9,2.4,4,4.3,4.6l46.6,14.4c1.9,0.6,4.7,0,6.1-1.4l38.3-35.5
		C406.7,418,407.5,415.3,407.1,413.3z M347.8,356.6l33.3,10.2c1.3,0.4,1.3,1,0,1.3l-17.5,4c-1.3,0.3-3.2-0.3-4.1-1.3l-12.3-13.2
		C346.2,356.7,346.5,356.2,347.8,356.6z M360.2,379.7l8.4,36.7c0.3,1.3-0.5,2.1-1.8,1.7l-36-11.1c-1.3-0.4-1.5-1.5-0.6-2.4
		l27.6-25.6C358.8,378.1,359.9,378.4,360.2,379.7z M309.3,383.7l29.2-27.1c1-0.9,2.6-0.9,3.5,0.1l14.7,15.8c0.9,1,0.9,2.6-0.1,3.5
		l-29.2,27.1c-1,0.9-2.6,0.9-3.5-0.1l-14.7-15.8C308.3,386.2,308.3,384.6,309.3,383.7z M316.4,426.9l-7.8-33.9
		c-0.3-1.3,0.2-1.6,1.1-0.6l12.3,13.2c0.9,1,1.4,2.9,1,4.2l-5.3,17.2C317.3,428.2,316.7,428.2,316.4,426.9z M362.2,445
		c-0.4,1.3-1.8,2-3.1,1.6L321,434.9c-1.3-0.4-2-1.8-1.6-3.1l6.3-20.6c0.4-1.3,1.8-2,3.1-1.6l38.1,11.7c1.3,0.4,2,1.8,1.6,3.1
		L362.2,445z M392.9,418.9l-25.5,23.7c-1,0.9-1.5,0.6-1.1-0.7l5.3-17.2c0.4-1.3,1.8-2.6,3.1-2.9l17.5-4
		C393.7,417.5,393.9,418,392.9,418.9z M395.7,413.8l-21,4.8c-1.3,0.3-2.7-0.5-3-1.9l-8.9-38.8c-0.3-1.3,0.5-2.7,1.9-3l21-4.8
		c1.3-0.3,2.7,0.5,3,1.9l8.9,38.8C397.9,412.2,397.1,413.5,395.7,413.8z"/>
	<g>
		<g>
			<path class="st1" d="M443.2,418.4c0-2.5,0.2-4.5,0.8-7.3l2.7-13.4c2.7-13.6,9.3-17.1,22.9-17.1c4.3,0,8.4,0.9,11.2,2l-3.4,11.3
				c-2.4-0.8-5.2-1.4-8-1.4c-6.3,0-8.4,2-9.4,7.5l-2.6,14.6c-0.1,0.6-0.2,1.4-0.2,1.9c0,1.6,0.8,2.4,2.6,2.4c3.6,0,10.2-2,13.5-3
				l1.3,11.2c-4.1,2-10.8,3.7-15.9,3.7C447.6,430.6,443.2,426.9,443.2,418.4z"/>
			<path class="st1" d="M516.5,397c0.1-0.6,0.2-1.2,0.2-1.6c0-1-0.5-1.4-1.9-1.4c-2.6,0-8.7,2.6-12.5,4.5l-5.4,31.1H483l12-67.8
				l14.2-2l-4.4,25.5c5.8-3,12.4-4.8,17.6-4.8c6.4,0,8.8,3.7,8.8,9.8c0,1.7-0.1,3.6-0.5,5.5l-5.9,33.8h-13.9L516.5,397z"/>
			<path class="st1" d="M569.3,393.1c-6.1,3.4-8.4,4.6-13.9,8.1l-5,28.4h-13.9l8.2-47l12.3-2.1l-0.3,6.5c4.6-2.8,8.4-4.7,12.6-6.5
				L569.3,393.1z"/>
			<path class="st1" d="M569.6,414.5c0-1.1,0.1-2.3,0.3-3.4l2-11.2c2.2-12.4,8.2-19.5,25-19.5c13,0,18.8,7.4,18.8,16
				c0,1.1-0.1,2.3-0.3,3.5l-2,11.2c-2.1,11.6-7.6,19.5-25.1,19.5C576,430.6,569.6,423.3,569.6,414.5z M601.7,397.6
				c0-3.6-2.2-5.4-6.7-5.4c-5.2,0-8.3,2.7-9.1,7.4l-2.1,12c-0.1,0.7-0.2,1.4-0.2,2c0,3.5,2.2,5.4,6.7,5.4c5.3,0,8.3-2.7,9.1-7.4
				l2.1-12C601.6,398.9,601.7,398.2,601.7,397.6z"/>
			<path class="st1" d="M653.3,396.9c0.1-0.6,0.2-1.1,0.2-1.5c0-1-0.5-1.4-1.9-1.4c-2.6,0-8.7,2.6-12.5,4.5l-5.4,31.1h-13.9l8.2-47
				l12.3-2.1l-0.1,5.3c7.5-3.6,13.4-5.4,19-5.4c6.4,0,8.8,3.7,8.8,9.8c0,1.7-0.1,3.1-0.5,5.5l-5.9,33.8h-13.9L653.3,396.9z"/>
			<path class="st1" d="M673.7,414.5c0-1.1,0.1-2.3,0.3-3.4l2-11.2c2.2-12.4,8.2-19.5,25-19.5c13,0,18.8,7.4,18.8,16
				c0,1.1-0.1,2.3-0.3,3.5l-2,11.2c-2.1,11.6-7.6,19.5-25.1,19.5C680.2,430.6,673.7,423.3,673.7,414.5z M705.9,397.6
				c0-3.6-2.2-5.4-6.7-5.4c-5.2,0-8.3,2.7-9.1,7.4l-2.1,12c-0.1,0.7-0.2,1.4-0.2,2c0,3.5,2.2,5.4,6.7,5.4c5.3,0,8.3-2.7,9.1-7.4
				l2.1-12C705.8,398.9,705.9,398.2,705.9,397.6z"/>
			<path class="st1" d="M750.9,424.5c-4.1,2.4-8.8,4.2-14,4.2c-10.5,0-13.1-6.4-11.2-17.2l2-11c2.2-12.2,5.2-20,25.8-20
				c5,0,12.6,0.9,18.7,2.9l-9.5,53.4c-1.9,10.8-6.5,13.4-19.4,13.4c-5.7,0-15.5-1.8-21.5-3.8l2.5-9.8c7.4,1.8,13.4,2.8,19.2,2.8
				c4.2,0,5.1-1.6,5.7-4.8L750.9,424.5z M739.3,413.2c-0.5,2.6,0.2,3.8,2.7,3.8c3.1,0,8-2,10.9-3.8l3.7-20.8
				c-1.7-0.2-3.5-0.3-5.4-0.3c-7.2,0-8.6,3.6-9.5,8.2L739.3,413.2z"/>
			<path class="st1" d="M808.8,393.1c-6.1,3.4-8.4,4.6-13.9,8.1l-5,28.4H776l8.2-47l12.3-2.1l-0.3,6.5c4.6-2.8,8.4-4.7,12.6-6.5
				L808.8,393.1z"/>
			<path class="st1" d="M836.4,429.6l-0.4-4.2c-3.4,2.6-8.4,5.1-15.3,5.1c-10.5,0-12.6-6.3-10.7-17.1l2.3-13c2-11.5,6.5-20,25.5-20
				c5,0,11.7,0.9,18.4,3l-8,46.1h-11.8V429.6z M823.7,415c-0.4,2.6,0.2,3.6,2.7,3.6c3.6,0,7.4-2.1,10.6-4.7l3.7-20.9
				c-1.9-0.4-4-0.5-5.4-0.5c-7.2,0-8.1,3.6-9,8.2L823.7,415z"/>
			<path class="st1" d="M856.1,441.8c4.8-4.9,5.5-7.5,6.3-12.2l6.5-36.8H862l2-11.4h6.9l1.2-6.3c2-10.7,5.7-15.3,17.4-15.3
				c4,0,8.6,0.7,12.4,2.1l-2.9,11c-2.2-0.8-6-1.5-8.2-1.5c-3.2,0-4.2,0.8-4.6,3.3l-1.3,6.8h12.5l-3,11.4h-11.5l-6.7,38.4
				c-1.2,6.7-3.6,11.5-11.1,18.9L856.1,441.8z"/>
		</g>
	</g>
</g>
<g>
	<path class="st1" d="M912.3,364.8h-1.2l1-5.6h-1.9l0.2-1.1h5l-0.2,1.1h-1.9L912.3,364.8z"/>
	<path class="st1" d="M921.1,360.5l-1.9,3.4h-1.3l-0.6-3.4l-1,4.3H915l1.5-6.7h1.3l0.9,4.5l2.5-4.5h1.4l-0.8,6.7h-1.2L921.1,360.5z"
		/>
</g>
</svg>
