<?xml version="1.0" encoding="utf-8"?>
<!-- Generator: Adobe Illustrator 19.1.0, SVG Export Plug-In . SVG Version: 6.00 Build 0)  -->
<svg version="1.1" id="Layer_1" xmlns="http://www.w3.org/2000/svg" xmlns:xlink="http://www.w3.org/1999/xlink" x="0px" y="0px"
	 viewBox="150 166 900 470" style="enable-background:new 150 166 900 470;" xml:space="preserve">
<style type="text/css">
	.st0{fill:#FFFFFF;}
	.st1{fill:#757888;}
</style>
<rect x="150" y="166" class="st0" width="900" height="470"/>
<g>
	<path class="st1" d="M469,413.3l-10.9-47.6c-0.4-1.9-2.4-4-4.3-4.6l-49.9-15.4c-1.9-0.6-4.7,0-6.1,1.4L362,380.4
		c-1.5,1.4-2.3,4.1-1.9,6l11.6,50.9c0.4,1.9,2.4,4,4.3,4.6l46.6,14.4c1.9,0.6,4.7,0,6.1-1.4l38.3-35.5
		C468.6,418,469.4,415.3,469,413.3z M409.7,356.6l33.3,10.2c1.3,0.4,1.3,1,0,1.3l-17.5,4c-1.3,0.3-3.2-0.3-4.1-1.3L409,357.7
		C408.1,356.7,408.4,356.2,409.7,356.6z M422.1,379.7l8.4,36.7c0.3,1.3-0.5,2.1-1.8,1.7l-36-11.1c-1.3-0.4-1.5-1.5-0.6-2.4
		l27.6-25.6C420.7,378.1,421.8,378.4,422.1,379.7z M371.2,383.7l29.2-27.1c1-0.9,2.6-0.9,3.5,0.1l14.7,15.8c0.9,1,0.9,2.6-0.1,3.5
		l-29.2,27.1c-1,0.9-2.6,0.9-3.5-0.1l-14.7-15.8C370.2,386.2,370.2,384.6,371.2,383.7z M378.3,426.9l-7.8-33.9
		c-0.3-1.3,0.2-1.6,1.1-0.6l12.3,13.2c0.9,1,1.4,2.9,1,4.2l-5.3,17.2C379.2,428.2,378.6,428.2,378.3,426.9z M424.1,445
		c-0.4,1.3-1.8,2-3.1,1.6l-38.1-11.7c-1.3-0.4-2-1.8-1.6-3.1l6.3-20.6c0.4-1.3,1.8-2,3.1-1.6l38.1,11.7c1.3,0.4,2,1.8,1.6,3.1
		L424.1,445z M454.9,418.9l-25.5,23.7c-1,0.9-1.5,0.6-1.1-0.7l5.3-17.2c0.4-1.3,1.8-2.6,3.1-2.9l17.5-4
		C455.6,417.5,455.9,418,454.9,418.9z M457.6,413.8l-21,4.8c-1.3,0.3-2.7-0.5-3-1.9l-8.9-38.8c-0.3-1.3,0.5-2.7,1.9-3l21-4.8
		c1.3-0.3,2.7,0.5,3,1.9l8.9,38.8C459.8,412.2,459,413.5,457.6,413.8z"/>
	<g>
		<g>
			<path class="st1" d="M512.6,382.6l14.3-2l-8.7,49.1h-13.9L512.6,382.6z M516.4,361.3l14.3-2l-2.7,14.8l-14.2,2L516.4,361.3z"/>
			<path class="st1" d="M563.9,396.9c0.1-0.6,0.2-1.1,0.2-1.5c0-1-0.5-1.4-1.9-1.4c-2.6,0-8.7,2.6-12.5,4.5l-5.4,31.1h-13.9l8.2-47
				l12.3-2.1l-0.1,5.3c7.5-3.6,13.4-5.4,19-5.4c6.4,0,8.8,3.7,8.8,9.8c0,1.7-0.1,3.1-0.5,5.5l-5.9,33.8h-13.9L563.9,396.9z"/>
			<path class="st1" d="M579.9,441.8c4.8-4.9,5.5-7.5,6.3-12.2l6.5-36.8h-6.9l2-11.4h6.9l1.1-6.3c2-11.1,6.1-15.3,18.5-15.3
				c4,0,10.8,0.7,16.8,2.4l14.4-2.4l-12.3,69.8h-13.9l9.9-56.7c-3.8-1-10.5-1.8-14.6-1.8c-3.2,0-4.2,0.8-4.6,3.3l-1.3,7h12.5
				l-3,11.4h-11.5l-6.7,38.4c-1.2,6.7-3.6,11.5-11.1,18.9L579.9,441.8z"/>
			<path class="st1" d="M659.7,414.1c-0.1,0.5-0.2,1.1-0.2,1.5c0,1,0.5,1.5,1.9,1.5c2.6,0,8.9-2.8,12.5-4.5l5.2-30l14.3-2l-8.6,49.1
				h-11.9l-0.1-4.5c-7.5,3.6-13.4,5.4-19,5.4c-6.3,0-8.8-3.8-8.8-9.8c0-2,0.2-3.6,0.5-5.5l5.7-32.7l14.2-2L659.7,414.1z"/>
			<path class="st1" d="M715.9,417.6l-10,12.1h-14.7l19.1-24.2l-10.4-22.8l13.4-2l6.2,16l10.4-15.1h14.8l-19.4,25.8l10.2,22.3h-13.9
				L715.9,417.6z"/>
			<path class="st1" d="M778,422.6c-5.5,4.7-12.8,8-19.7,8c-6.1,0-9.5-2.2-9.5-8.1c0-1.1,0.1-2.3,0.3-3.6l3.7-20.7
				c2.3-13.1,8.2-17.8,20.5-17.8c3.2,0,8.7,0.7,11.7,1.6l3.6-20.3l5.6-0.8L782,429.6h-5L778,422.6z M784,387
				c-3.9-1-7.7-1.6-11.6-1.6c-8.8,0-12.5,3.2-14.3,13.8l-3.5,19.7c-0.2,1.2-0.3,2.1-0.3,2.9c0,3.1,1.5,3.9,4.5,3.9
				c6.1,0,13.8-4,20.1-9.5L784,387z"/>
			<path class="st1" d="M810.1,361.8l5.6-0.8l-4.7,27.3c5.4-4.6,12.6-7.8,19.4-7.8c6.1,0,9.6,2.2,9.6,8.1c0,1.1-0.2,2.3-0.4,3.6
				l-3.7,20.7c-2.2,12.4-7.5,17.8-20.5,17.8c-4.5,0-11.1-0.8-17-2.8L810.1,361.8z M804.6,424.5c3.1,0.7,7.7,1.2,11.7,1.2
				c9,0,12.5-3.3,14.3-13.8l3.5-19.7c0.2-1.2,0.3-2.1,0.3-3c0-3.1-1.5-3.8-4.5-3.8c-6.1,0-13.8,4-20.1,9.5L804.6,424.5z"/>
		</g>
	</g>
</g>
<g>
	<path class="st1" d="M848.3,364.8h-1.2l1-5.6h-1.9l0.2-1.1h5l-0.2,1.1h-1.9L848.3,364.8z"/>
	<path class="st1" d="M857.1,360.5l-1.9,3.4h-1.3l-0.6-3.4l-1,4.3H851l1.5-6.7h1.3l0.9,4.5l2.5-4.5h1.4l-0.8,6.7h-1.2L857.1,360.5z"
		/>
</g>
</svg>
