<?xml version="1.0" encoding="utf-8"?>
<!-- Generator: Adobe Illustrator 19.1.0, SVG Export Plug-In . SVG Version: 6.00 Build 0)  -->
<svg version="1.1" id="Layer_1" xmlns="http://www.w3.org/2000/svg" xmlns:xlink="http://www.w3.org/1999/xlink" x="0px" y="0px"
	 viewBox="0 0 900 470" style="enable-background:new 0 0 900 470;" xml:space="preserve">
<style type="text/css">
	.st0{fill:#FFFFFF;}
	.st1{fill:#757888;}
</style>
<rect class="st0" width="900" height="470"/>
<g>
	<path class="st1" d="M215.3,247.3l-10.9-47.6c-0.4-1.9-2.4-4-4.3-4.6l-49.9-15.4c-1.9-0.6-4.7,0-6.1,1.4l-35.8,33.2
		c-1.5,1.4-2.3,4.1-1.9,6l11.6,50.9c0.4,1.9,2.4,4,4.3,4.6l46.6,14.4c1.9,0.6,4.7,0,6.1-1.4l38.3-35.5
		C214.9,252,215.7,249.3,215.3,247.3z M156,190.6l33.3,10.2c1.3,0.4,1.3,1,0,1.3l-17.5,4c-1.3,0.3-3.2-0.3-4.1-1.3l-12.3-13.2
		C154.4,190.7,154.7,190.2,156,190.6z M168.4,213.7l8.4,36.7c0.3,1.3-0.5,2.1-1.8,1.7L139,241c-1.3-0.4-1.5-1.5-0.6-2.4L166,213
		C167,212.1,168.1,212.4,168.4,213.7z M117.5,217.7l29.2-27.1c1-0.9,2.6-0.9,3.5,0.1l14.7,15.8c0.9,1,0.9,2.6-0.1,3.5l-29.2,27.1
		c-1,0.9-2.6,0.9-3.5-0.1l-14.7-15.8C116.5,220.2,116.5,218.6,117.5,217.7z M124.6,260.9l-7.8-33.9c-0.3-1.3,0.2-1.6,1.1-0.6
		l12.3,13.2c0.9,1,1.4,2.9,1,4.2l-5.3,17.2C125.5,262.2,124.9,262.2,124.6,260.9z M170.4,279c-0.4,1.3-1.8,2-3.1,1.6l-38.1-11.7
		c-1.3-0.4-2-1.8-1.6-3.1l6.3-20.6c0.4-1.3,1.8-2,3.1-1.6l38.1,11.7c1.3,0.4,2,1.8,1.6,3.1L170.4,279z M201.2,252.9l-25.5,23.7
		c-1,0.9-1.5,0.6-1.1-0.7l5.3-17.2c0.4-1.3,1.8-2.6,3.1-2.9l17.5-4C201.9,251.5,202.2,252,201.2,252.9z M204,247.8l-21,4.8
		c-1.3,0.3-2.7-0.5-3-1.9l-8.9-38.8c-0.3-1.3,0.5-2.7,1.9-3l21-4.8c1.3-0.3,2.7,0.5,3,1.9l8.9,38.8
		C206.1,246.2,205.3,247.5,204,247.8z"/>
	<g>
		<g>
			<path class="st1" d="M258.9,216.6l14.3-2l-8.7,49.1h-13.9L258.9,216.6z M262.7,195.3l14.3-2l-2.7,14.8l-14.2,2L262.7,195.3z"/>
			<path class="st1" d="M310.3,230.9c0.1-0.6,0.2-1.1,0.2-1.5c0-1-0.5-1.4-1.9-1.4c-2.6,0-8.7,2.6-12.5,4.5l-5.4,31.1h-13.9l8.2-47
				l12.3-2.1l-0.1,5.3c7.5-3.6,13.4-5.4,19-5.4c6.4,0,8.8,3.7,8.8,9.8c0,1.7-0.1,3.1-0.5,5.5l-5.9,33.8h-13.9L310.3,230.9z"/>
			<path class="st1" d="M326.2,275.8c4.8-4.9,5.5-7.5,6.3-12.2l6.5-36.8h-6.9l2-11.4h6.9l1.1-6.3c2-11.1,6.1-15.3,18.5-15.3
				c4,0,10.8,0.7,16.8,2.4l14.4-2.4l-12.3,69.8h-13.9l9.9-56.7c-3.8-1-10.5-1.8-14.6-1.8c-3.2,0-4.2,0.8-4.6,3.3l-1.3,7h12.5
				l-3,11.4H353l-6.7,38.4c-1.2,6.7-3.6,11.5-11.1,18.9L326.2,275.8z"/>
			<path class="st1" d="M406,248.1c-0.1,0.5-0.2,1.1-0.2,1.5c0,1,0.5,1.5,1.9,1.5c2.6,0,8.9-2.8,12.5-4.5l5.2-30l14.3-2l-8.6,49.1
				h-11.9l-0.1-4.5c-7.5,3.6-13.4,5.4-19,5.4c-6.3,0-8.8-3.8-8.8-9.8c0-2,0.2-3.6,0.5-5.5l5.7-32.7l14.2-2L406,248.1z"/>
			<path class="st1" d="M462.3,251.6l-10,12.1h-14.7l19.1-24.2l-10.4-22.8l13.4-2l6.2,16l10.4-15.1H491l-19.4,25.8l10.2,22.3h-13.9
				L462.3,251.6z"/>
			<path class="st1" d="M493.5,262.1l1.2-4.5c4,1.3,9.1,2.1,12.8,2.1c8.1,0,10.1-1.1,11.2-7.9c0.8-4.9-0.7-6.1-8.9-10.5
				c-9.3-4.9-12.1-7.5-10.9-15.2c1.2-7.5,4.5-11.6,16.7-11.6c4.3,0,9.7,0.8,13.4,2l-1,4.6c-3.9-1-9.1-1.7-12.7-1.7
				c-8.1,0-9.8,1.2-10.9,7.1c-1,5.5,0.8,6.6,7.6,10.4c11.4,6.2,13.3,8.2,12,15.7c-1.4,8.3-4.2,12-16.7,12
				C502.9,264.6,497.2,263.7,493.5,262.1z"/>
			<path class="st1" d="M541.3,254.6c-0.1,0.6-0.2,1.3-0.2,1.8c0,2,1.3,3.1,4.1,3.1c5,0,14.4-4.5,20.6-8.3l6.2-35.3l5.7-0.8
				l-8.6,48.6h-4.7l0.8-7c-5.5,3.9-14.8,8-21,8c-5.9,0-8.5-3.1-8.5-7.9c0-1,0.1-2,0.3-3.1l6.6-37.8l5.7-0.8L541.3,254.6z"/>
			<path class="st1" d="M597.7,222.5c5.5-4.7,12.8-8,19.7-8c6.1,0,9.6,2.2,9.6,8.1c0,1.1-0.2,2.3-0.4,3.6l-4.3,24
				c-1.8,10.1-6.2,14.4-17.2,14.4c-4.1,0-9.3-0.7-14.2-1.9l-3.7,20.4l-5.6,0.8l12.1-68.4h5L597.7,222.5z M591.8,257.7
				c4.9,1.2,9.8,2,14.4,2c6.6,0,9.4-2.8,10.7-9.9l4.2-23.6c0.2-1.2,0.3-2.1,0.3-3c0-3.1-1.5-3.8-4.5-3.8c-6.1,0-13.8,4-20.1,9.5
				L591.8,257.7z"/>
			<path class="st1" d="M647.2,222.5c5.5-4.7,12.8-8,19.7-8c6.1,0,9.6,2.2,9.6,8.1c0,1.1-0.2,2.3-0.4,3.6l-4.3,24
				c-1.8,10.1-6.2,14.4-17.2,14.4c-4.1,0-9.3-0.7-14.2-1.9l-3.7,20.4l-5.6,0.8l12.1-68.4h5L647.2,222.5z M641.3,257.7
				c4.9,1.2,9.8,2,14.4,2c6.6,0,9.4-2.8,10.7-9.9l4.2-23.6c0.2-1.2,0.3-2.1,0.3-3c0-3.1-1.5-3.8-4.5-3.8c-6.1,0-13.8,4-20.1,9.5
				L641.3,257.7z"/>
			<path class="st1" d="M684.2,251.2c0-1.4,0.1-2.9,0.4-4.4l2.6-14.6c1.9-10.6,7.4-17.7,21.7-17.7c10.7,0,16,5.5,16,13.5
				c0,1.2-0.2,2.4-0.4,3.7l-2.8,15.7c-1.9,10.7-7.8,17.2-21.7,17.2C688.6,264.6,684.2,258.9,684.2,251.2z M718.9,231.7
				c0.2-1.2,0.3-2.3,0.3-3.4c0-5.9-3.5-8.9-11.3-8.9c-9.1,0-13.7,4.4-15.2,12.8l-2.7,15.1c-0.2,1.3-0.3,2.6-0.3,3.7
				c0,5.6,3.1,8.7,11.2,8.7c8.9,0,13.7-4.2,15.2-12.4L718.9,231.7z"/>
			<path class="st1" d="M759.4,219.9c-5.2,3.1-10.3,6.3-15.4,9.7l-5.9,34h-5.5l8.3-47.8l5.1-0.8l-1.2,8.5c3.7-2.8,10-6.9,14.3-9.1
				L759.4,219.9z"/>
			<path class="st1" d="M766.3,258.2c0-0.6,0.1-1.2,0.2-1.9l6.3-36.1h-9.2l0.8-4.7h9.3l2.1-11.8l5.6-0.8l-2.2,12.6h14.4l-1.1,4.7
				h-14.2l-6.2,35.5c-0.1,0.7-0.2,1.3-0.2,1.8c0,1.9,1,2.4,3.3,2.4c2.7,0,6-0.8,9.6-2.3l1.4,3.8c-3.7,2.1-7.8,3.3-12,3.3
				C769.3,264.6,766.3,262.5,766.3,258.2z"/>
		</g>
	</g>
</g>
</svg>
