<?xml version="1.0" encoding="utf-8"?>
<!-- Generator: Adobe Illustrator 19.1.0, SVG Export Plug-In . SVG Version: 6.00 Build 0)  -->
<svg version="1.1" id="Layer_1" xmlns="http://www.w3.org/2000/svg" xmlns:xlink="http://www.w3.org/1999/xlink" x="0px" y="0px"
	 viewBox="0 0 900 470" style="enable-background:new 0 0 900 470;" xml:space="preserve">
<style type="text/css">
	.st0{fill:#FFFFFF;}
	.st1{fill:#757888;}
</style>
<rect class="st0" width="900" height="470"/>
<g>
	<path class="st1" d="M291.1,247.3l-10.9-47.6c-0.4-1.9-2.4-4-4.3-4.6l-49.9-15.4c-1.9-0.6-4.7,0-6.1,1.4l-35.8,33.2
		c-1.5,1.4-2.3,4.1-1.9,6l11.6,50.9c0.4,1.9,2.4,4,4.3,4.6l46.6,14.4c1.9,0.6,4.7,0,6.1-1.4l38.3-35.5
		C290.7,252,291.6,249.3,291.1,247.3z M231.8,190.6l33.3,10.2c1.3,0.4,1.3,1,0,1.3l-17.5,4c-1.3,0.3-3.2-0.3-4.1-1.3l-12.3-13.2
		C230.2,190.7,230.5,190.2,231.8,190.6z M244.2,213.7l8.4,36.7c0.3,1.3-0.5,2.1-1.8,1.7L214.9,241c-1.3-0.4-1.5-1.5-0.6-2.4
		l27.6-25.6C242.9,212.1,243.9,212.4,244.2,213.7z M193.4,217.7l29.2-27.1c1-0.9,2.6-0.9,3.5,0.1l14.7,15.8c0.9,1,0.9,2.6-0.1,3.5
		l-29.2,27.1c-1,0.9-2.6,0.9-3.5-0.1l-14.7-15.8C192.3,220.2,192.4,218.6,193.4,217.7z M200.5,260.9l-7.8-33.9
		c-0.3-1.3,0.2-1.6,1.1-0.6l12.3,13.2c0.9,1,1.4,2.9,1,4.2l-5.3,17.2C201.4,262.2,200.8,262.2,200.5,260.9z M246.3,279
		c-0.4,1.3-1.8,2-3.1,1.6l-38.1-11.7c-1.3-0.4-2-1.8-1.6-3.1l6.3-20.6c0.4-1.3,1.8-2,3.1-1.6l38.1,11.7c1.3,0.4,2,1.8,1.6,3.1
		L246.3,279z M277,252.9l-25.5,23.7c-1,0.9-1.5,0.6-1.1-0.7l5.3-17.2c0.4-1.3,1.8-2.6,3.1-2.9l17.5-4C277.7,251.5,278,252,277,252.9
		z M279.8,247.8l-21,4.8c-1.3,0.3-2.7-0.5-3-1.9l-8.9-38.8c-0.3-1.3,0.5-2.7,1.9-3l21-4.8c1.3-0.3,2.7,0.5,3,1.9l8.9,38.8
		C282,246.2,281.1,247.5,279.8,247.8z"/>
	<g>
		<g>
			<path class="st1" d="M326.5,263.6l11.9-67.8l14.3-2l-12.3,69.8H326.5z M362.9,214.4l14.4,2.2l-16.8,22.8l8.9,24.2h-14.7
				l-8.6-24.2L362.9,214.4z"/>
			<path class="st1" d="M404.2,263.6l-0.4-4.2c-3.4,2.6-8.4,5.1-15.3,5.1c-10.5,0-12.6-6.3-10.7-17.1l2.3-13c2-11.5,6.5-20,25.5-20
				c5,0,11.7,0.9,18.4,3l-8,46.1H404.2z M391.5,249c-0.4,2.6,0.2,3.6,2.7,3.6c3.6,0,7.4-2.1,10.6-4.7l3.7-20.9
				c-1.9-0.4-4-0.5-5.4-0.5c-7.2,0-8.1,3.6-9,8.2L391.5,249z"/>
			<path class="st1" d="M448.1,215.5l0.4,4.2c3.5-2.9,8.4-5.1,15.3-5.1c10.5,0,13.1,6.3,11.2,17.1l-2.3,13
				c-2,11.5-4.9,20.1-25.2,20.1c-1.5,0-4.5-0.2-5.8-0.5l-3.4,19l-14.2,2l12.3-69.6H448.1z M461.4,229.9c0.5-2.6-0.2-3.8-2.7-3.8
				c-4.9,0-8.5,2.6-11.2,4.9l-3.8,21.5c1.6,0.3,3.5,0.4,5.4,0.4c7.2,0,8.7-3.9,9.6-8.5L461.4,229.9z"/>
			<path class="st1" d="M507.4,263.6l-0.4-4.2c-3.4,2.6-8.4,5.1-15.3,5.1c-10.5,0-12.6-6.3-10.7-17.1l2.3-13c2-11.5,6.5-20,25.5-20
				c5,0,11.7,0.9,18.4,3l-8,46.1H507.4z M494.7,249c-0.4,2.6,0.2,3.6,2.7,3.6c3.6,0,7.4-2.1,10.6-4.7l3.7-20.9
				c-1.9-0.4-4-0.5-5.4-0.5c-7.2,0-8.1,3.6-9,8.2L494.7,249z"/>
			<path class="st1" d="M531.8,252.4c0-2.5,0.2-4.5,0.8-7.3l2.7-13.4c2.7-13.6,9.3-17.1,22.9-17.1c4.3,0,8.4,0.9,11.2,2l-3.4,11.3
				c-2.4-0.8-5.2-1.4-8-1.4c-6.3,0-8.4,2-9.4,7.5l-2.6,14.6c-0.1,0.6-0.2,1.4-0.2,1.9c0,1.6,0.8,2.4,2.6,2.4c3.6,0,10.2-2,13.5-3
				l1.3,11.2c-4.1,2-10.8,3.7-15.9,3.7C536.2,264.6,531.8,260.9,531.8,252.4z"/>
			<path class="st1" d="M579.8,216.6l14.3-2l-8.7,49.1h-13.9L579.8,216.6z M583.6,195.3l14.3-2l-2.7,14.8l-14.2,2L583.6,195.3z"/>
			<path class="st1" d="M620.6,226.6l-4.3,24c-0.1,0.5-0.2,1-0.2,1.3c0,0.7,0.4,1,1.4,1c2.4,0,5-1,7.5-2l2.8,9.7
				c-4,2.2-9.7,4-15.3,4c-7,0-10.8-3.4-10.8-9.1c0-0.7,0.1-1.4,0.2-2.1l4.7-26.8h-7.1l2-11.2h7.1l2-11.6l14.3-2l-2.4,13.5H634
				l-2.8,11.2H620.6z"/>
			<path class="st1" d="M634.6,248.5c0-1.1,0.1-2.3,0.3-3.4l2-11.2c2.2-12.4,8.2-19.5,25-19.5c13,0,18.8,7.4,18.8,16
				c0,1.1-0.1,2.3-0.3,3.5l-2,11.2c-2.1,11.6-7.6,19.5-25.1,19.5C641.1,264.6,634.6,257.3,634.6,248.5z M666.8,231.6
				c0-3.6-2.2-5.4-6.7-5.4c-5.2,0-8.3,2.7-9.1,7.4l-2.1,12c-0.1,0.7-0.2,1.4-0.2,2c0,3.5,2.2,5.4,6.7,5.4c5.3,0,8.3-2.7,9.1-7.4
				l2.1-12C666.7,232.9,666.8,232.2,666.8,231.6z"/>
			<path class="st1" d="M717.8,227.1c-6.1,3.4-8.4,4.6-13.9,8.1l-5,28.4h-13.9l8.2-47l12.3-2.1l-0.3,6.5c4.6-2.8,8.4-4.7,12.6-6.5
				L717.8,227.1z"/>
		</g>
	</g>
</g>
</svg>
