<?xml version="1.0" encoding="utf-8"?>
<!-- Generator: Adobe Illustrator 19.1.0, SVG Export Plug-In . SVG Version: 6.00 Build 0)  -->
<svg version="1.1" id="Layer_1" xmlns="http://www.w3.org/2000/svg" xmlns:xlink="http://www.w3.org/1999/xlink" x="0px" y="0px"
	 viewBox="150 166 900 470" style="enable-background:new 150 166 900 470;" xml:space="preserve">
<style type="text/css">
	.st0{fill:#FFFFFF;}
	.st1{fill:#757888;}
</style>
<rect x="150" y="166" class="st0" width="900" height="470"/>
<g>
	<path class="st1" d="M441.1,413.3l-10.9-47.6c-0.4-1.9-2.4-4-4.3-4.6L376,345.7c-1.9-0.6-4.7,0-6.1,1.4l-35.8,33.2
		c-1.5,1.4-2.3,4.1-1.9,6l11.6,50.9c0.4,1.9,2.4,4,4.3,4.6l46.6,14.4c1.9,0.6,4.7,0,6.1-1.4l38.3-35.5
		C440.7,418,441.6,415.3,441.1,413.3z M381.8,356.6l33.3,10.2c1.3,0.4,1.3,1,0,1.3l-17.5,4c-1.3,0.3-3.2-0.3-4.1-1.3l-12.3-13.2
		C380.2,356.7,380.5,356.2,381.8,356.6z M394.2,379.7l8.4,36.7c0.3,1.3-0.5,2.1-1.8,1.7L364.9,407c-1.3-0.4-1.5-1.5-0.6-2.4
		l27.6-25.6C392.9,378.1,393.9,378.4,394.2,379.7z M343.4,383.7l29.2-27.1c1-0.9,2.6-0.9,3.5,0.1l14.7,15.8c0.9,1,0.9,2.6-0.1,3.5
		l-29.2,27.1c-1,0.9-2.6,0.9-3.5-0.1l-14.7-15.8C342.3,386.2,342.4,384.6,343.4,383.7z M350.5,426.9l-7.8-33.9
		c-0.3-1.3,0.2-1.6,1.1-0.6l12.3,13.2c0.9,1,1.4,2.9,1,4.2l-5.3,17.2C351.4,428.2,350.8,428.2,350.5,426.9z M396.3,445
		c-0.4,1.3-1.8,2-3.1,1.6l-38.1-11.7c-1.3-0.4-2-1.8-1.6-3.1l6.3-20.6c0.4-1.3,1.8-2,3.1-1.6l38.1,11.7c1.3,0.4,2,1.8,1.6,3.1
		L396.3,445z M427,418.9l-25.5,23.7c-1,0.9-1.5,0.6-1.1-0.7l5.3-17.2c0.4-1.3,1.8-2.6,3.1-2.9l17.5-4C427.7,417.5,428,418,427,418.9
		z M429.8,413.8l-21,4.8c-1.3,0.3-2.7-0.5-3-1.9l-8.9-38.8c-0.3-1.3,0.5-2.7,1.9-3l21-4.8c1.3-0.3,2.7,0.5,3,1.9l8.9,38.8
		C432,412.2,431.1,413.5,429.8,413.8z"/>
	<g>
		<g>
			<path class="st1" d="M476.5,429.6l11.9-67.8l14.3-2l-12.3,69.8H476.5z M512.9,380.4l14.4,2.2l-16.8,22.8l8.9,24.2h-14.7
				l-8.6-24.2L512.9,380.4z"/>
			<path class="st1" d="M554.2,429.6l-0.4-4.2c-3.4,2.6-8.4,5.1-15.3,5.1c-10.5,0-12.6-6.3-10.7-17.1l2.3-13c2-11.5,6.5-20,25.5-20
				c5,0,11.7,0.9,18.4,3l-8,46.1h-11.8V429.6z M541.5,415c-0.4,2.6,0.2,3.6,2.7,3.6c3.6,0,7.4-2.1,10.6-4.7l3.7-20.9
				c-1.9-0.4-4-0.5-5.4-0.5c-7.2,0-8.1,3.6-9,8.2L541.5,415z"/>
			<path class="st1" d="M598.1,381.5l0.4,4.2c3.5-2.9,8.4-5.1,15.3-5.1c10.5,0,13.1,6.3,11.2,17.1l-2.3,13
				c-2,11.5-4.9,20.1-25.2,20.1c-1.5,0-4.5-0.2-5.8-0.5l-3.4,19l-14.2,2l12.3-69.6h11.7V381.5z M611.4,395.9
				c0.5-2.6-0.2-3.8-2.7-3.8c-4.9,0-8.5,2.6-11.2,4.9l-3.8,21.5c1.6,0.3,3.5,0.4,5.4,0.4c7.2,0,8.7-3.9,9.6-8.5L611.4,395.9z"/>
			<path class="st1" d="M657.4,429.6l-0.4-4.2c-3.4,2.6-8.4,5.1-15.3,5.1c-10.5,0-12.6-6.3-10.7-17.1l2.3-13c2-11.5,6.5-20,25.5-20
				c5,0,11.7,0.9,18.4,3l-8,46.1h-11.8V429.6z M644.7,415c-0.4,2.6,0.2,3.6,2.7,3.6c3.6,0,7.4-2.1,10.6-4.7l3.7-20.9
				c-1.9-0.4-4-0.5-5.4-0.5c-7.2,0-8.1,3.6-9,8.2L644.7,415z"/>
			<path class="st1" d="M681.8,418.4c0-2.5,0.2-4.5,0.8-7.3l2.7-13.4c2.7-13.6,9.3-17.1,22.9-17.1c4.3,0,8.4,0.9,11.2,2l-3.4,11.3
				c-2.4-0.8-5.2-1.4-8-1.4c-6.3,0-8.4,2-9.4,7.5l-2.6,14.6c-0.1,0.6-0.2,1.4-0.2,1.9c0,1.6,0.8,2.4,2.6,2.4c3.6,0,10.2-2,13.5-3
				l1.3,11.2c-4.1,2-10.8,3.7-15.9,3.7C686.2,430.6,681.8,426.9,681.8,418.4z"/>
			<path class="st1" d="M729.8,382.6l14.3-2l-8.7,49.1h-13.9L729.8,382.6z M733.6,361.3l14.3-2l-2.7,14.8l-14.2,2L733.6,361.3z"/>
			<path class="st1" d="M770.6,392.6l-4.3,24c-0.1,0.5-0.2,1-0.2,1.3c0,0.7,0.4,1,1.4,1c2.4,0,5-1,7.5-2l2.8,9.7
				c-4,2.2-9.7,4-15.3,4c-7,0-10.8-3.4-10.8-9.1c0-0.7,0.1-1.4,0.2-2.1l4.7-26.8h-7.1l2-11.2h7.1l2-11.6l14.3-2l-2.4,13.5H784
				l-2.8,11.2h-10.6V392.6z"/>
			<path class="st1" d="M784.6,414.5c0-1.1,0.1-2.3,0.3-3.4l2-11.2c2.2-12.4,8.2-19.5,25-19.5c13,0,18.8,7.4,18.8,16
				c0,1.1-0.1,2.3-0.3,3.5l-2,11.2c-2.1,11.6-7.6,19.5-25.1,19.5C791.1,430.6,784.6,423.3,784.6,414.5z M816.8,397.6
				c0-3.6-2.2-5.4-6.7-5.4c-5.2,0-8.3,2.7-9.1,7.4l-2.1,12c-0.1,0.7-0.2,1.4-0.2,2c0,3.5,2.2,5.4,6.7,5.4c5.3,0,8.3-2.7,9.1-7.4
				l2.1-12C816.7,398.9,816.8,398.2,816.8,397.6z"/>
			<path class="st1" d="M867.8,393.1c-6.1,3.4-8.4,4.6-13.9,8.1l-5,28.4H835l8.2-47l12.3-2.1l-0.3,6.5c4.6-2.8,8.4-4.7,12.6-6.5
				L867.8,393.1z"/>
		</g>
	</g>
</g>
<g>
	<path class="st1" d="M879.3,364.8h-1.2l1-5.6h-1.9l0.2-1.1h5l-0.2,1.1h-1.9L879.3,364.8z"/>
	<path class="st1" d="M888.1,360.5l-1.9,3.4h-1.3l-0.6-3.4l-1,4.3H882l1.5-6.7h1.3l0.9,4.5l2.5-4.5h1.4l-0.8,6.7h-1.2L888.1,360.5z"
		/>
</g>
</svg>
