<?xml version="1.0" encoding="utf-8"?>
<!-- Generator: Adobe Illustrator 19.1.0, SVG Export Plug-In . SVG Version: 6.00 Build 0)  -->
<svg version="1.1" id="Layer_1" xmlns="http://www.w3.org/2000/svg" xmlns:xlink="http://www.w3.org/1999/xlink" x="0px" y="0px"
	 viewBox="150 166 900 470" style="enable-background:new 150 166 900 470;" xml:space="preserve">
<style type="text/css">
	.st0{fill:#FFFFFF;}
	.st1{fill:#757888;}
</style>
<rect x="150" y="166" class="st0" width="900" height="470"/>
<g>
	<path class="st1" d="M471.5,413.3l-10.9-47.6c-0.4-1.9-2.4-4-4.3-4.6l-49.9-15.4c-1.9-0.6-4.7,0-6.1,1.4l-35.8,33.2
		c-1.5,1.4-2.3,4.1-1.9,6l11.6,50.9c0.4,1.9,2.4,4,4.3,4.6l46.6,14.4c1.9,0.6,4.7,0,6.1-1.4l38.3-35.5
		C471.2,418,472,415.3,471.5,413.3z M412.3,356.6l33.3,10.2c1.3,0.4,1.3,1,0,1.3l-17.5,4c-1.3,0.3-3.2-0.3-4.1-1.3l-12.3-13.2
		C410.6,356.7,411,356.2,412.3,356.6z M424.6,379.7l8.4,36.7c0.3,1.3-0.5,2.1-1.8,1.7L395.3,407c-1.3-0.4-1.5-1.5-0.6-2.4l27.6-25.6
		C423.3,378.1,424.3,378.4,424.6,379.7z M373.8,383.7l29.2-27.1c1-0.9,2.6-0.9,3.5,0.1l14.7,15.8c0.9,1,0.9,2.6-0.1,3.5l-29.2,27.1
		c-1,0.9-2.6,0.9-3.5-0.1l-14.7-15.8C372.7,386.2,372.8,384.6,373.8,383.7z M380.9,426.9l-7.8-33.9c-0.3-1.3,0.2-1.6,1.1-0.6
		l12.3,13.2c0.9,1,1.4,2.9,1,4.2l-5.3,17.2C381.8,428.2,381.2,428.2,380.9,426.9z M426.7,445c-0.4,1.3-1.8,2-3.1,1.6l-38.1-11.7
		c-1.3-0.4-2-1.8-1.6-3.1l6.3-20.6c0.4-1.3,1.8-2,3.1-1.6l38.1,11.7c1.3,0.4,2,1.8,1.6,3.1L426.7,445z M457.4,418.9l-25.5,23.7
		c-1,0.9-1.5,0.6-1.1-0.7l5.3-17.2c0.4-1.3,1.8-2.6,3.1-2.9l17.5-4C458.2,417.5,458.4,418,457.4,418.9z M460.2,413.8l-21,4.8
		c-1.3,0.3-2.7-0.5-3-1.9l-8.9-38.8c-0.3-1.3,0.5-2.7,1.9-3l21-4.8c1.3-0.3,2.7,0.5,3,1.9l8.9,38.8
		C462.4,412.2,461.5,413.5,460.2,413.8z"/>
	<g>
		<g>
			<path class="st1" d="M529.8,392.6l-4.3,24c-0.1,0.5-0.2,1-0.2,1.3c0,0.7,0.4,1,1.4,1c2.4,0,5-1,7.5-2l2.8,9.7
				c-4,2.2-9.7,4-15.3,4c-7,0-10.8-3.4-10.8-9.1c0-0.7,0.1-1.4,0.2-2.1l4.7-26.8h-7.1l2-11.2h7.1l2-11.6l14.3-2l-2.4,13.5h11.5
				l-2.8,11.2h-10.6V392.6z"/>
			<path class="st1" d="M546.8,398.7c2-11.1,6.9-18.2,22.2-18.2c9.1,0,16,4,16,12.1c0,9.4-4.8,13.7-16.7,17.3
				c-5.8,1.8-5.9,1.8-10.1,2.9l-0.6,3.4c-0.3,1.8-0.1,3.4,2.5,3.4c5,0,12.4-2.5,18.9-5.3l2.7,9.9c-5.8,3.7-15,6.6-23.5,6.6
				c-10,0-14.2-4.4-14.2-12.6c0-1.8,0.2-3.8,0.6-5.8L546.8,398.7z M572.1,394c0-1.7-1.5-2.8-4.1-2.8c-5,0-6.5,2.9-7.2,6.8l-0.6,3.4
				c2.4-0.6,3.5-0.8,6.3-1.7C570.3,398.7,572.1,396.9,572.1,394z"/>
			<path class="st1" d="M600.2,361.8l14.3-2l-12.3,69.8h-13.9L600.2,361.8z"/>
			<path class="st1" d="M617.9,398.7c2-11.1,6.9-18.2,22.2-18.2c9.1,0,16,4,16,12.1c0,9.4-4.8,13.7-16.7,17.3
				c-5.8,1.8-5.9,1.8-10.1,2.9l-0.6,3.4c-0.3,1.8-0.1,3.4,2.5,3.4c5,0,12.4-2.5,18.9-5.3l2.7,9.9c-5.8,3.7-15,6.6-23.5,6.6
				c-10,0-14.2-4.4-14.2-12.6c0-1.8,0.2-3.8,0.6-5.8L617.9,398.7z M643.2,394c0-1.7-1.5-2.8-4.1-2.8c-5,0-6.5,2.9-7.2,6.8l-0.6,3.4
				c2.4-0.6,3.5-0.8,6.3-1.7C641.4,398.7,643.2,396.9,643.2,394z"/>
			<path class="st1" d="M686.4,424.5c-4.1,2.4-8.8,4.2-14,4.2c-10.5,0-13.1-6.4-11.2-17.2l2-11c2.2-12.2,5.2-20,25.8-20
				c5,0,12.6,0.9,18.7,2.9l-9.5,53.4c-1.9,10.8-6.5,13.4-19.4,13.4c-5.7,0-15.5-1.8-21.5-3.8l2.5-9.8c7.4,1.8,13.4,2.8,19.2,2.8
				c4.2,0,5.1-1.6,5.7-4.8L686.4,424.5z M674.8,413.2c-0.5,2.6,0.2,3.8,2.7,3.8c3.1,0,8-2,10.9-3.8l3.7-20.8
				c-1.7-0.2-3.5-0.3-5.4-0.3c-7.2,0-8.6,3.6-9.5,8.2L674.8,413.2z"/>
			<path class="st1" d="M744.3,393.1c-6.1,3.4-8.4,4.6-13.9,8.1l-5,28.4h-13.9l8.2-47l12.3-2.1l-0.3,6.5c4.6-2.8,8.4-4.7,12.6-6.5
				L744.3,393.1z"/>
			<path class="st1" d="M771.9,429.6l-0.4-4.2c-3.4,2.6-8.4,5.1-15.3,5.1c-10.5,0-12.6-6.3-10.7-17.1l2.3-13c2-11.5,6.5-20,25.5-20
				c5,0,11.7,0.9,18.4,3l-8,46.1h-11.8V429.6z M759.3,415c-0.4,2.6,0.2,3.6,2.7,3.6c3.6,0,7.4-2.1,10.6-4.7l3.7-20.9
				c-1.9-0.4-4-0.5-5.4-0.5c-7.2,0-8.1,3.6-9,8.2L759.3,415z"/>
			<path class="st1" d="M791.6,441.8c4.8-4.9,5.5-7.5,6.3-12.2l6.5-36.8h-6.9l2-11.4h6.9l1.2-6.3c2-10.7,5.7-15.3,17.4-15.3
				c4,0,8.6,0.7,12.4,2.1l-2.9,11c-2.2-0.8-6-1.5-8.2-1.5c-3.2,0-4.2,0.8-4.6,3.3l-1.3,6.8h12.5l-3,11.4h-11.5l-6.7,38.4
				c-1.2,6.7-3.6,11.5-11.1,18.9L791.6,441.8z"/>
		</g>
	</g>
</g>
<g>
	<path class="st1" d="M851.3,364.8h-1.2l1-5.6h-1.9l0.2-1.1h5l-0.2,1.1h-1.9L851.3,364.8z"/>
	<path class="st1" d="M860.1,360.5l-1.9,3.4h-1.3l-0.6-3.4l-1,4.3H854l1.5-6.7h1.3l0.9,4.5l2.5-4.5h1.4l-0.8,6.7h-1.2L860.1,360.5z"
		/>
</g>
</svg>
