<svg width="670" height="371" viewBox="0 0 670 371" fill="none" xmlns="http://www.w3.org/2000/svg">
<rect x="58" width="90" height="371" fill="#FAFAFA"/>
<rect x="494" width="90" height="371" fill="#FAFAFA"/>
<g style="mix-blend-mode:multiply">
<rect y="60" width="670" height="90" fill="#FAFAFA"/>
</g>
<g style="mix-blend-mode:multiply">
<rect y="241" width="670" height="90" fill="#FAFAFA"/>
</g>
<path d="M237.454 184.16C236.092 184.16 234.937 183.715 233.988 182.826C233.07 181.936 232.611 180.856 232.611 179.586C232.611 178.252 233.07 177.156 233.988 176.299C234.937 175.409 236.092 174.965 237.454 174.965C238.815 174.965 239.954 175.409 240.872 176.299C241.79 177.156 242.249 178.252 242.249 179.586C242.249 180.856 241.79 181.936 240.872 182.826C239.954 183.715 238.815 184.16 237.454 184.16ZM233.133 212.602V188.019H241.727V212.602H233.133Z" fill="#020A47"/>
<path d="M247.507 212.602V188.019H255.958L256.053 191.068C256.686 189.861 257.62 188.924 258.854 188.257C260.089 187.59 261.513 187.256 263.128 187.256C265.881 187.256 267.971 188.146 269.395 189.924C270.851 191.671 271.579 194.244 271.579 197.643V212.602H262.985V199.262C262.985 196.372 261.893 194.927 259.709 194.927C258.538 194.927 257.636 195.34 257.003 196.166C256.401 196.96 256.101 198.103 256.101 199.596V212.602H247.507Z" fill="#020A47"/>
<path d="M279.698 212.602V194.927H275.757V188.019H279.698V185.637C279.698 181.857 280.616 178.935 282.452 176.87C284.319 174.806 286.947 173.774 290.334 173.774C291.315 173.774 292.233 173.853 293.087 174.012C293.974 174.139 294.718 174.329 295.319 174.584L294.892 181.73C294.544 181.571 294.116 181.46 293.61 181.396C293.135 181.301 292.692 181.253 292.28 181.253C290.919 181.253 289.906 181.65 289.242 182.445C288.609 183.239 288.292 184.493 288.292 186.208V188.019H294.085V194.927H288.292V212.602H279.698ZM297.883 212.602V174.012H306.477V212.602H297.883Z" fill="#020A47"/>
<path d="M320.353 213.365C317.663 213.365 315.605 212.507 314.181 210.792C312.756 209.045 312.044 206.504 312.044 203.169V188.019H320.686V201.406C320.686 202.867 320.939 203.947 321.445 204.646C321.983 205.345 322.822 205.694 323.962 205.694C325.101 205.694 325.972 205.297 326.573 204.503C327.206 203.677 327.523 202.518 327.523 201.025V188.019H336.117V212.602H327.665L327.57 209.553C326.937 210.76 325.987 211.697 324.721 212.364C323.487 213.031 322.031 213.365 320.353 213.365Z" fill="#020A47"/>
<path d="M340.011 212.602L348.937 199.929L340.486 188.019H350.077L354.065 194.689L357.958 188.019H367.075L358.671 200.025L367.644 212.602H358.006L353.543 205.17L349.127 212.602H340.011Z" fill="#020A47"/>
<path d="M382.695 213.365C380.511 213.365 378.549 212.825 376.808 211.745C375.099 210.665 373.753 209.172 372.772 207.266C371.791 205.329 371.3 203.137 371.3 200.692C371.3 198.341 371.823 196.213 372.867 194.308C373.943 192.37 375.384 190.846 377.188 189.734C378.992 188.59 380.986 188.019 383.17 188.019C384.975 188.019 386.621 188.463 388.108 189.353C389.628 190.242 390.846 191.497 391.764 193.116V174.012H395.8V212.602H391.859L391.764 208.267C390.815 209.887 389.564 211.141 388.013 212.031C386.462 212.92 384.69 213.365 382.695 213.365ZM383.74 209.744C385.386 209.744 386.826 209.363 388.061 208.6C389.295 207.838 390.261 206.774 390.957 205.408C391.685 204.043 392.049 202.47 392.049 200.692C392.049 198.913 391.685 197.341 390.957 195.975C390.261 194.609 389.295 193.545 388.061 192.783C386.826 192.021 385.386 191.64 383.74 191.64C382.126 191.64 380.686 192.021 379.419 192.783C378.185 193.545 377.204 194.609 376.476 195.975C375.779 197.341 375.431 198.913 375.431 200.692C375.431 202.47 375.779 204.043 376.476 205.408C377.204 206.774 378.185 207.838 379.419 208.6C380.686 209.363 382.126 209.744 383.74 209.744Z" fill="#020A47"/>
<path d="M414.086 213.365C411.902 213.365 409.939 212.825 408.199 211.745C406.489 210.665 405.144 209.172 404.163 207.266C403.181 205.329 402.691 203.137 402.691 200.692C402.691 198.341 403.213 196.213 404.258 194.308C405.334 192.37 406.774 190.846 408.578 189.734C410.383 188.59 412.377 188.019 414.561 188.019C416.365 188.019 418.011 188.463 419.499 189.353C421.018 190.242 422.237 191.497 423.155 193.116L423.25 188.781H427.191V212.602H423.25L423.155 208.267C422.205 209.887 420.955 211.141 419.404 212.031C417.853 212.92 416.08 213.365 414.086 213.365ZM415.131 209.744C416.777 209.744 418.217 209.363 419.451 208.6C420.686 207.838 421.651 206.774 422.348 205.408C423.076 204.043 423.44 202.47 423.44 200.692C423.44 198.913 423.076 197.341 422.348 195.975C421.651 194.609 420.686 193.545 419.451 192.783C418.217 192.021 416.777 191.64 415.131 191.64C413.516 191.64 412.076 192.021 410.81 192.783C409.575 193.545 408.594 194.609 407.866 195.975C407.17 197.341 406.822 198.913 406.822 200.692C406.822 202.47 407.17 204.043 407.866 205.408C408.594 206.774 409.575 207.838 410.81 208.6C412.076 209.363 413.516 209.744 415.131 209.744Z" fill="#020A47"/>
<path d="M445.192 213.365C442.501 213.365 440.523 212.65 439.257 211.221C437.991 209.76 437.358 207.489 437.358 204.408V192.259H431.945V188.781H437.358V181.92H441.393V188.781H449.702V192.259H441.393V204.074C441.393 206.107 441.742 207.584 442.438 208.505C443.166 209.394 444.321 209.839 445.904 209.839C447.423 209.839 448.99 209.426 450.604 208.6L451.079 211.983C450.351 212.428 449.465 212.761 448.42 212.983C447.407 213.238 446.331 213.365 445.192 213.365Z" fill="#020A47"/>
<path d="M466.064 213.365C463.88 213.365 461.917 212.825 460.176 211.745C458.467 210.665 457.122 209.172 456.14 207.266C455.159 205.329 454.668 203.137 454.668 200.692C454.668 198.341 455.191 196.213 456.235 194.308C457.311 192.37 458.752 190.846 460.556 189.734C462.36 188.59 464.354 188.019 466.538 188.019C468.343 188.019 469.989 188.463 471.476 189.353C472.996 190.242 474.214 191.497 475.132 193.116L475.227 188.781H479.168V212.602H475.227L475.132 208.267C474.183 209.887 472.932 211.141 471.381 212.031C469.83 212.92 468.058 213.365 466.064 213.365ZM467.108 209.744C468.754 209.744 470.194 209.363 471.429 208.6C472.663 207.838 473.629 206.774 474.325 205.408C475.053 204.043 475.417 202.47 475.417 200.692C475.417 198.913 475.053 197.341 474.325 195.975C473.629 194.609 472.663 193.545 471.429 192.783C470.194 192.021 468.754 191.64 467.108 191.64C465.494 191.64 464.054 192.021 462.787 192.783C461.553 193.545 460.572 194.609 459.844 195.975C459.147 197.341 458.799 198.913 458.799 200.692C458.799 202.47 459.147 204.043 459.844 205.408C460.572 206.774 461.553 207.838 462.787 208.6C464.054 209.363 465.494 209.744 467.108 209.744Z" fill="#020A47"/>
<path fill-rule="evenodd" clip-rule="evenodd" d="M196.454 207.458L209.282 204.516C209.48 204.476 209.667 204.396 209.832 204.279C209.996 204.163 210.135 204.014 210.239 203.841C210.343 203.668 210.409 203.475 210.435 203.275C210.46 203.075 210.443 202.872 210.386 202.679L204.93 179.018C204.832 178.627 204.582 178.292 204.237 178.085C203.891 177.878 203.478 177.816 203.087 177.914L190.264 180.855C189.876 180.955 189.543 181.204 189.338 181.548C189.134 181.893 189.073 182.304 189.171 182.693L194.611 206.354C194.709 206.744 194.959 207.08 195.304 207.287C195.65 207.494 196.063 207.555 196.454 207.458Z" fill="#020A47"/>
<path fill-rule="evenodd" clip-rule="evenodd" d="M192.034 222.079L207.587 207.679C208.173 207.088 208.025 206.724 207.217 207.014L196.528 209.443C196.086 209.552 195.678 209.771 195.343 210.079C195.008 210.388 194.756 210.775 194.611 211.207L191.368 221.641C191.146 222.448 191.442 222.67 192.034 222.079Z" fill="#020A47"/>
<path fill-rule="evenodd" clip-rule="evenodd" d="M163.658 217.379L186.948 224.576C187.346 224.651 187.757 224.581 188.108 224.38C188.459 224.178 188.728 223.859 188.865 223.478L192.768 210.985C192.824 210.79 192.842 210.586 192.819 210.384C192.797 210.183 192.735 209.987 192.636 209.81C192.538 209.632 192.406 209.476 192.247 209.349C192.089 209.223 191.907 209.129 191.711 209.073L168.421 201.945C168.027 201.832 167.604 201.88 167.245 202.078C166.886 202.276 166.62 202.607 166.504 203.001L162.628 215.468C162.513 215.858 162.556 216.278 162.749 216.636C162.942 216.994 163.269 217.261 163.658 217.379Z" fill="#020A47"/>
<path fill-rule="evenodd" clip-rule="evenodd" d="M156.137 191.807L160.859 212.479C161.006 213.287 161.387 213.287 161.593 212.479L164.835 202.045C164.946 201.601 164.95 201.136 164.849 200.69C164.747 200.243 164.541 199.826 164.249 199.474L156.803 191.437C156.285 190.83 155.9 190.999 156.137 191.807Z" fill="#020A47"/>
<path fill-rule="evenodd" clip-rule="evenodd" d="M174.347 169.708L156.507 186.22C156.221 186.492 156.053 186.866 156.039 187.261C156.025 187.656 156.167 188.04 156.433 188.332L165.353 197.979C165.628 198.271 166.007 198.442 166.407 198.456C166.808 198.47 167.198 198.325 167.492 198.053L185.327 181.515C185.615 181.244 185.785 180.87 185.799 180.474C185.813 180.079 185.669 179.693 185.4 179.403L176.496 169.761C176.359 169.615 176.195 169.498 176.012 169.417C175.83 169.335 175.633 169.29 175.433 169.285C175.233 169.28 175.034 169.315 174.847 169.388C174.661 169.46 174.491 169.569 174.347 169.708Z" fill="#020A47"/>
<path fill-rule="evenodd" clip-rule="evenodd" d="M191.59 207.088C192.403 207.31 192.916 206.871 192.699 206.032L187.539 183.696C187.318 182.888 186.652 182.666 186.066 183.252L169.261 198.861C168.67 199.447 168.818 200.107 169.626 200.329L191.59 207.088Z" fill="#020A47"/>
<path fill-rule="evenodd" clip-rule="evenodd" d="M200.362 175.934L180.019 169.708C179.211 169.487 179.063 169.782 179.723 170.442L187.17 178.453C187.504 178.765 187.908 178.992 188.348 179.116C188.788 179.24 189.251 179.257 189.699 179.165L200.388 176.742C201.175 176.52 201.175 176.15 200.362 175.934Z" fill="#020A47"/>
<path d="M489.053 185.526C487.949 185.526 486.948 185.264 486.05 184.741C485.152 184.217 484.441 183.506 483.917 182.608C483.394 181.71 483.132 180.709 483.132 179.605C483.132 178.501 483.394 177.501 483.917 176.603C484.441 175.705 485.152 174.994 486.05 174.47C486.948 173.946 487.949 173.684 489.053 173.684C490.175 173.684 491.176 173.946 492.055 174.47C492.953 174.994 493.664 175.705 494.188 176.603C494.712 177.501 494.974 178.501 494.974 179.605C494.974 180.709 494.712 181.71 494.188 182.608C493.664 183.506 492.953 184.217 492.055 184.741C491.176 185.264 490.175 185.526 489.053 185.526ZM489.053 184.488C489.969 184.488 490.783 184.273 491.494 183.843C492.224 183.412 492.804 182.832 493.234 182.103C493.664 181.354 493.879 180.522 493.879 179.605C493.879 178.689 493.664 177.865 493.234 177.136C492.804 176.387 492.224 175.798 491.494 175.368C490.783 174.938 489.969 174.722 489.053 174.722C488.155 174.722 487.341 174.938 486.611 175.368C485.882 175.798 485.302 176.387 484.871 177.136C484.441 177.865 484.226 178.689 484.226 179.605C484.226 180.522 484.441 181.354 484.871 182.103C485.302 182.832 485.882 183.412 486.611 183.843C487.341 184.273 488.155 184.488 489.053 184.488ZM487.06 182.299V176.631H488.968C489.679 176.631 490.222 176.79 490.596 177.108C490.989 177.426 491.185 177.865 491.185 178.427C491.185 178.782 491.101 179.109 490.933 179.409C490.764 179.689 490.512 179.905 490.175 180.054L491.578 182.299H490.4L489.165 180.251H488.07V182.299H487.06ZM488.884 177.529H488.07V179.353H488.856C489.324 179.353 489.651 179.278 489.838 179.128C490.025 178.979 490.119 178.745 490.119 178.427C490.119 177.828 489.707 177.529 488.884 177.529Z" fill="#020A47"/>
<line x1="147.5" y1="60" x2="147.5" y2="330" stroke="#E4E4E4"/>
<line x1="57.5" y1="60" x2="57.5" y2="330" stroke="#E4E4E4"/>
<line x1="583.5" y1="60" x2="583.5" y2="330" stroke="#E4E4E4"/>
<line x1="494.5" y1="60" x2="494.5" y2="330" stroke="#E4E4E4"/>
<mask maskUnits="userSpaceOnUse" x="0" y="0" width="0" height="0" fill="black">
<rect fill="white" width="0" height="0"/>
</mask>
<path d="M614.854 60.1464C614.658 59.9512 614.342 59.9512 614.146 60.1464L610.964 63.3284C610.769 63.5237 610.769 63.8403 610.964 64.0355C611.16 64.2308 611.476 64.2308 611.672 64.0355L614.5 61.2071L617.328 64.0355C617.524 64.2308 617.84 64.2308 618.036 64.0355C618.231 63.8403 618.231 63.5237 618.036 63.3284L614.854 60.1464ZM614.146 149.854C614.342 150.049 614.658 150.049 614.854 149.854L618.036 146.672C618.231 146.476 618.231 146.16 618.036 145.964C617.84 145.769 617.524 145.769 617.328 145.964L614.5 148.793L611.672 145.964C611.476 145.769 611.16 145.769 610.964 145.964C610.769 146.16 610.769 146.476 610.964 146.672L614.146 149.854ZM614 60.5L614 149.5L615 149.5L615 60.5L614 60.5Z" fill="#A1A1A1" mask="url(#)"/>
<mask maskUnits="userSpaceOnUse" x="0" y="0" width="0" height="0" fill="black">
<rect fill="white" width="0" height="0"/>
</mask>
<path d="M614.854 150.146C614.658 149.951 614.342 149.951 614.146 150.146L610.964 153.328C610.769 153.524 610.769 153.84 610.964 154.036C611.16 154.231 611.476 154.231 611.672 154.036L614.5 151.207L617.328 154.036C617.524 154.231 617.84 154.231 618.036 154.036C618.231 153.84 618.231 153.524 618.036 153.328L614.854 150.146ZM614.146 239.854C614.342 240.049 614.658 240.049 614.854 239.854L618.036 236.672C618.231 236.476 618.231 236.16 618.036 235.964C617.84 235.769 617.524 235.769 617.328 235.964L614.5 238.793L611.672 235.964C611.476 235.769 611.16 235.769 610.964 235.964C610.769 236.16 610.769 236.476 610.964 236.672L614.146 239.854ZM614 150.5L614 239.5L615 239.5L615 150.5L614 150.5Z" fill="#E4E4E4" mask="url(#)"/>
<mask maskUnits="userSpaceOnUse" x="0" y="0" width="0" height="0" fill="black">
<rect fill="white" width="0" height="0"/>
</mask>
<path d="M614.854 240.146C614.658 239.951 614.342 239.951 614.146 240.146L610.964 243.328C610.769 243.524 610.769 243.84 610.964 244.036C611.16 244.231 611.476 244.231 611.672 244.036L614.5 241.207L617.328 244.036C617.524 244.231 617.84 244.231 618.036 244.036C618.231 243.84 618.231 243.524 618.036 243.328L614.854 240.146ZM614.146 329.854C614.342 330.049 614.658 330.049 614.854 329.854L618.036 326.672C618.231 326.476 618.231 326.16 618.036 325.964C617.84 325.769 617.524 325.769 617.328 325.964L614.5 328.793L611.672 325.964C611.476 325.769 611.16 325.769 610.964 325.964C610.769 326.16 610.769 326.476 610.964 326.672L614.146 329.854ZM614 240.5L614 329.5L615 329.5L615 240.5L614 240.5Z" fill="#A1A1A1" mask="url(#)"/>
<mask maskUnits="userSpaceOnUse" x="0" y="0" width="0" height="0" fill="black">
<rect fill="white" width="0" height="0"/>
</mask>
<path d="M494.146 29.1464C493.951 29.3417 493.951 29.6583 494.146 29.8536L497.328 33.0355C497.524 33.2308 497.84 33.2308 498.036 33.0355C498.231 32.8403 498.231 32.5237 498.036 32.3284L495.207 29.5L498.036 26.6716C498.231 26.4763 498.231 26.1597 498.036 25.9645C497.84 25.7692 497.524 25.7692 497.328 25.9645L494.146 29.1464ZM583.854 29.8536C584.049 29.6583 584.049 29.3417 583.854 29.1464L580.672 25.9645C580.476 25.7692 580.16 25.7692 579.964 25.9645C579.769 26.1597 579.769 26.4763 579.964 26.6716L582.793 29.5L579.964 32.3284C579.769 32.5237 579.769 32.8403 579.964 33.0355C580.16 33.2308 580.476 33.2308 580.672 33.0355L583.854 29.8536ZM494.5 30L583.5 30V29L494.5 29V30Z" fill="#A1A1A1" mask="url(#)"/>
<mask maskUnits="userSpaceOnUse" x="0" y="0" width="0" height="0" fill="black">
<rect fill="white" width="0" height="0"/>
</mask>
<path d="M58.1464 29.1464C57.9512 29.3417 57.9512 29.6583 58.1464 29.8536L61.3284 33.0355C61.5237 33.2308 61.8403 33.2308 62.0355 33.0355C62.2308 32.8403 62.2308 32.5237 62.0355 32.3284L59.2071 29.5L62.0355 26.6716C62.2308 26.4763 62.2308 26.1597 62.0355 25.9645C61.8403 25.7692 61.5237 25.7692 61.3284 25.9645L58.1464 29.1464ZM147.854 29.8536C148.049 29.6583 148.049 29.3417 147.854 29.1464L144.672 25.9645C144.476 25.7692 144.16 25.7692 143.964 25.9645C143.769 26.1597 143.769 26.4763 143.964 26.6716L146.793 29.5L143.964 32.3284C143.769 32.5237 143.769 32.8403 143.964 33.0355C144.16 33.2308 144.476 33.2308 144.672 33.0355L147.854 29.8536ZM58.5 30L147.5 30V29L58.5 29V30Z" fill="#A1A1A1" mask="url(#)"/>
<line x1="583" y1="149.5" x2="58" y2="149.5" stroke="#E4E4E4"/>
<line x1="583" y1="60.5" x2="58" y2="60.5" stroke="#E4E4E4"/>
<line x1="583" y1="330.5" x2="58" y2="330.5" stroke="#E4E4E4"/>
<line x1="583" y1="240.5" x2="58" y2="240.5" stroke="#E4E4E4"/>
<path d="M633.6 113L630.624 109.032L633.424 105.272H632.032L629.888 108.216L627.744 105.272H626.352L629.152 109.032L626.192 113H627.568L629.888 109.832L632.208 113H633.6Z" fill="#020A47"/>
<path d="M633.6 203L630.624 199.032L633.424 195.272H632.032L629.888 198.216L627.744 195.272H626.352L629.152 199.032L626.192 203H627.568L629.888 199.832L632.208 203H633.6Z" fill="#020A47"/>
<path d="M633.6 293L630.624 289.032L633.424 285.272H632.032L629.888 288.216L627.744 285.272H626.352L629.152 289.032L626.192 293H627.568L629.888 289.832L632.208 293H633.6Z" fill="#020A47"/>
<path d="M542.6 17L539.624 13.032L542.424 9.272H541.032L538.888 12.216L536.744 9.272H535.352L538.152 13.032L535.192 17H536.568L538.888 13.832L541.208 17H542.6Z" fill="#020A47"/>
<path d="M106.6 17L103.624 13.032L106.424 9.272H105.032L102.888 12.216L100.744 9.272H99.352L102.152 13.032L99.192 17H100.568L102.888 13.832L105.208 17H106.6Z" fill="#020A47"/>
</svg>
