<?xml version="1.0" encoding="utf-8"?>
<!-- Generator: Adobe Illustrator 21.1.0, SVG Export Plug-In . SVG Version: 6.00 Build 0)  -->
<svg version="1.1" id="Layer_1" xmlns="http://www.w3.org/2000/svg" xmlns:xlink="http://www.w3.org/1999/xlink" x="0px" y="0px"
	 width="328px" height="328px" viewBox="0 0 328 328" style="enable-background:new 0 0 328 328;" xml:space="preserve">
<style type="text/css">
	.st0{fill:#FFFFFF;}
	.st1{fill:#292933;}
</style>
<g>
	<rect class="st0" width="328" height="328"/>
	<g>
		<path id="Cuboctahedron" class="st1" d="M222.7,146.1l-11-48.1c-0.6-2.6-3-5.3-5.6-6l-50.5-15.6c-0.6-0.3-1.4-0.3-2.1-0.3
			c-2.1,0-4.4,0.9-5.9,2.1L111.3,112c-2,1.8-3,5.3-2.4,7.8l11.8,51.5c0.6,2.6,3,5.3,5.6,6l47.2,14.7c0.6,0.3,1.4,0.3,2.1,0.3
			c2.1,0,4.4-0.9,5.9-2.1l38.7-35.9C222.3,152.2,223.3,148.8,222.7,146.1z M160.8,87.9l34.7,10.7c1.4,0.4,1.4,1,0,1.4l-18.2,4.1
			c-1.4,0.4-3.3-0.3-4.3-1.3l-12.7-13.7C159.1,88,159.4,87.5,160.8,87.9z M182.4,150c0.4,1.4-0.5,2.1-1.9,1.8l-37.4-11.6
			c-1.4-0.4-1.6-1.5-0.6-2.5l28.6-26.6c1-1,2.1-0.6,2.5,0.8L182.4,150z M120.7,116.1l30.4-28.2c1-1,2.6-0.9,3.6,0.1l15.2,16.4
			c1,1,0.9,2.6-0.1,3.6l-30.4,28.2c-1,1-2.6,0.9-3.6-0.1l-15.2-16.4C119.6,118.6,119.7,117,120.7,116.1z M128.1,161l-8-35.3
			c-0.4-1.4,0.3-1.6,1.1-0.6l12.7,13.7c1,1,1.4,3,1,4.4l-5.5,17.8C129,162.3,128.4,162.3,128.1,161z M172.6,181.7l-39.7-12.3
			c-1.4-0.4-2.1-1.9-1.8-3.3l6.7-21.3c0.4-1.4,1.9-2.1,3.3-1.8l39.7,12.2c1.4,0.4,2.1,1.9,1.8,3.3l-6.7,21.3
			C175.3,181.2,173.9,181.9,172.6,181.7z M207.7,152.8l-26.5,24.6c-1,1-1.5,0.6-1.1-0.8l5.5-17.8c0.4-1.4,1.9-2.8,3.3-3l18.2-4.1
			C208.5,151.2,208.7,151.8,207.7,152.8z M210.6,147.4l-21.8,5c-1.4,0.4-2.8-0.5-3.1-1.9l-9.3-40.4c-0.4-1.4,0.5-2.8,1.9-3.1l21.8-5
			c1.4-0.4,2.8,0.5,3.1,1.9l9.3,40.4C212.9,145.8,212,147.1,210.6,147.4z"/>
		<g>
			<g id="Type">
				<path class="st1" d="M197.8,241.4c-0.1,0.6,0.2,0.7,0.4,0.7h1.4c0.5,0,0.6-0.5,0.6-0.7l5.5-31.4c0.1-0.6-0.3-0.7-0.6-0.6l0,0
					l-1.5,0.2c-0.4,0.1-0.6,0.4-0.6,0.6l0,0l-1.6,9.1c-1.4-0.5-4.1-0.7-5.6-0.7c-5.9,0-8.7,2.3-9.7,8.5l-1.7,9.9
					c-0.1,0.6-0.2,1.2-0.2,1.7c0,2.8,1.6,3.9,4.5,3.9c3.3,0,6.8-1.6,9.4-3.8L197.8,241.4z M189,240.2c-1.4,0-2.1-0.4-2.1-1.9
					c0-0.4,0.1-0.8,0.2-1.4l1.6-9.4c0.9-5.1,2.6-6.6,6.9-6.6c1.9,0,3.7,0.3,5.5,0.7l-2.5,13.9C195.6,238.3,191.9,240.2,189,240.2z"
					/>
				<path class="st1" d="M221.1,241.4c-0.1,0.6,0.2,0.7,0.5,0.7h1.4c0.5,0,0.6-0.5,0.6-0.7l0,0l3.8-21.2c-2.7-1-5.8-1.5-7.9-1.5
					c-6.2,0-8.7,2.5-9.7,8.5l-1.7,9.9c-0.1,0.6-0.2,1.2-0.2,1.7c0,2.8,1.6,3.9,4.5,3.9c3.3,0,6.6-1.6,9.2-3.8L221.1,241.4z
					 M212.4,240.2c-1.4,0-2.1-0.4-2.1-1.9c0-0.4,0.1-0.8,0.2-1.4l1.6-9.4c0.9-5.1,2.5-6.6,6.9-6.6c1.9,0,4.1,0.4,5.4,0.7l-2.5,13.9
					C218.9,238.3,215.3,240.2,212.4,240.2z"/>
				<path class="st1" d="M258.7,241.4c-0.1,0.6,0.2,0.7,0.4,0.7h1.4c0.5,0,0.6-0.5,0.6-0.7l0,0l3.8-21.2c-2.7-1-5.8-1.5-7.9-1.5
					c-6.2,0-8.7,2.5-9.7,8.5l-1.7,9.9c-0.1,0.6-0.2,1.2-0.2,1.7c0,2.8,1.6,3.9,4.5,3.9c3.3,0,6.6-1.6,9.2-3.8L258.7,241.4z
					 M250.1,240.2c-1.4,0-2.1-0.4-2.1-1.9c0-0.4,0.1-0.8,0.2-1.4l1.6-9.4c0.9-5.1,2.5-6.6,6.9-6.6c1.9,0,4.1,0.4,5.4,0.7l-2.5,13.9
					C256.6,238.3,253,240.2,250.1,240.2z"/>
				<g>
					<path class="st1" d="M236.5,213.4L236.5,213.4L236.5,213.4z"/>
					<path class="st1" d="M244.4,221L244.4,221l0.3-1.5c0.1-0.4-0.1-0.4-0.3-0.4H238l0.9-5.3l0,0c0.1-0.6-0.3-0.7-0.6-0.6l0,0
						l-1.5,0.2l0,0c-0.4,0.1-0.6,0.4-0.6,0.6l0,0l-0.9,5.1h-4c-0.1,0-0.5,0.1-0.5,0.4l-0.2,1.5l0,0c0,0.1,0,0.4,0.4,0.4h3.9l-3,17.2
						c-0.1,0.3-0.1,0.6-0.1,0.9c0,2.1,1.5,3,3.8,3c1.8,0,5-0.5,6.6-1.3c0.5-0.3,0.5-0.6,0.3-0.8l0,0l-0.3-0.9
						c-0.1-0.2-0.3-0.2-0.5-0.1l0,0c-1.6,0.6-2.5,1-5.7,1c-1.1,0-1.6-0.2-1.6-1.1c0-0.2,0.1-0.5,0.1-0.8l3-16.9h6.4
						C244.3,221.3,244.4,221.2,244.4,221z"/>
				</g>
				<path class="st1" d="M182.4,219.1h-6.6c-0.3,0-0.6,0.2-0.8,0.5l-4.7,6.8l-2.8-7.1c-0.2-0.4-0.5-0.5-0.8-0.5l-5.7,0.8l5,10.9
					l-9.1,11.5h6.2c0.4,0,1-0.2,1.3-0.6l4.3-5.2l2.4,5.2c0.1,0.3,0.5,0.6,0.9,0.6h6l-4.8-10.6L182.4,219.1z"/>
				<path class="st1" d="M154,241.7l3.9-22.5c0.1-0.5-0.3-0.5-0.6-0.4l-5.5,0.7c-0.6,0.1-0.8,0.5-0.8,0.7l0,0l-2.4,13.6
					c-1.7,0.8-4.7,2.2-6,2.2c-0.7,0-0.9-0.2-0.9-0.7c0-0.2,0.1-0.5,0.1-0.7l2.7-15.5l0,0c0.1-0.5-0.3-0.5-0.5-0.4l-5.5,0.8l0,0
					c-0.6,0.1-0.8,0.5-0.8,0.7l0,0l-2.6,15c-0.2,1-0.2,1.7-0.2,2.6c0,2.9,1.2,4.7,4.2,4.7c2.6,0,5.5-0.9,9.1-2.6l0.1,1.7
					c0,0.1,0.1,0.4,0.3,0.4h5.1C153.9,242,154,241.8,154,241.7z"/>
				<path class="st1" d="M99.3,218.6c-2.6,0-5.5,0.9-9.1,2.6l0.1-2c0-0.5-0.4-0.5-0.6-0.4l-4.3,0.7l0,0c-0.7,0.1-1,0.6-1,0.8
					L80.8,241l0,0c-0.2,1-0.1,1,0.7,1h5c0.6,0,0.8,0,1-1l2.4-13.8c1.8-1,4.7-2.2,6-2.2c0.7,0,0.9,0.2,0.9,0.7c0,0.2-0.1,0.5-0.1,0.7
					L94,241l0,0c-0.2,1-0.1,1,0.7,1h5c0.6,0,0.8,0,1-1l2.6-15.1c0.2-1.2,0.2-1.9,0.2-2.6C103.6,220.4,102.4,218.6,99.3,218.6z"/>
				<g>
					<path class="st1" d="M80.3,208.6l-5.5,0.8c-0.6,0.1-0.7,0.5-0.8,0.7l-1,5.7c-0.1,0.7-0.1,0.7,0.6,0.6l5.5-0.7l0,0
						c0.6-0.1,0.7-0.1,0.8-0.8l0,0l1.1-6C80.9,208.6,80.8,208.6,80.3,208.6z"/>
					<path class="st1" d="M72.3,219.6L72.3,219.6L72.3,219.6z"/>
					<path class="st1" d="M75.1,241L75.1,241l3.9-21.8c0.1-0.5-0.3-0.5-0.6-0.4l-5.5,0.7l0,0c-0.6,0.1-0.8,0.5-0.8,0.7l0,0
						l-3.7,20.9c-0.1,0.8,0,0.9,0.7,0.9h5C74.6,242,74.9,242,75.1,241z"/>
				</g>
				<path class="st1" d="M129.7,241l5.6-31.8c0.1-0.5-0.2-0.5-0.5-0.4l-6.4,1.1c-2.9-0.8-6.1-1.1-8-1.1c-5.9,0-7.9,2-8.8,7.3l-0.5,3
					h-2.6c-0.7,0-0.7,0.3-0.8,0.6l0,0l-0.8,4.4c-0.1,0.2,0.1,0.4,0.3,0.4h2.9l-3.1,17.6c-0.3,2.1-0.7,3.3-2.6,5.4l0,0
					c-0.4,0.4-0.3,0.5,0,0.7l0,0l3.5,3.3l0,0c0.3,0.3,0.5,0.3,0.9-0.1c3.2-3.3,4.2-5.5,4.8-8.5l3.2-18.3h5.1c0.3,0,0.3,0,0.5-0.3
					l0,0l1.2-4.6l0,0c0.1-0.3-0.2-0.5-0.5-0.5h-5.3l0.6-3.3c0.2-1.2,0.7-1.6,2.2-1.6c2,0,5.2,0.4,7,0.8l-4.6,26l0,0
					c-0.2,1-0.1,1,0.7,1h5C129.2,242,129.5,242,129.7,241z"/>
			</g>
			<path id="Registered_Trademark" class="st1" d="M269.2,212.2h-0.6l-0.2,1.1h-0.6l0.6-3.3h1.2c0.7,0,1,0.3,1,0.7
				c0,0.1,0,0.1,0,0.2l-0.1,0.5c-0.1,0.5-0.2,0.6-0.6,0.8l0.6,1.2h-0.7L269.2,212.2z M269.9,210.9c0-0.1,0-0.1,0-0.1
				c0-0.2-0.1-0.3-0.4-0.3h-0.7l-0.2,1.1h0.7c0.4,0,0.5-0.1,0.5-0.4L269.9,210.9z M269.2,214.4c-1.6,0-2.8-1.2-2.8-2.8
				c0-1.6,1.2-2.8,2.8-2.8c1.6,0,2.8,1.2,2.8,2.8C272,213.2,270.7,214.4,269.2,214.4z M269.2,209.3c-1.3,0-2.3,1-2.3,2.3
				c0,1.3,1,2.3,2.3,2.3c1.3,0,2.3-1,2.3-2.3C271.5,210.3,270.4,209.3,269.2,209.3z"/>
		</g>
	</g>
</g>
</svg>
