<svg width="345" height="200" viewBox="0 0 345 200" fill="none" xmlns="http://www.w3.org/2000/svg">
<rect width="345" height="200" fill="white"/>
<path d="M23.798 29H25.086L21.32 19.662H19.878L16.126 29H17.414L18.24 26.928H22.972L23.798 29ZM20.606 20.698L22.622 25.892H18.576L20.606 20.698ZM27.7974 29H28.9454L31.7594 22.238H30.6114L28.3714 27.782L26.1174 22.238H24.9834L27.7974 29ZM35.8087 29.168C37.8667 29.168 39.1547 27.572 39.1547 25.612C39.1547 23.652 37.8667 22.07 35.8087 22.07C33.7507 22.07 32.4627 23.652 32.4627 25.612C32.4627 27.572 33.7507 29.168 35.8087 29.168ZM35.8087 28.23C34.3667 28.23 33.5547 26.998 33.5547 25.612C33.5547 24.24 34.3667 23.008 35.8087 23.008C37.2507 23.008 38.0487 24.24 38.0487 25.612C38.0487 26.998 37.2507 28.23 35.8087 28.23ZM41.3844 21.104C41.7764 21.104 42.0984 20.782 42.0984 20.39C42.0984 19.998 41.7764 19.69 41.3844 19.69C41.0064 19.69 40.6844 19.998 40.6844 20.39C40.6844 20.782 41.0064 21.104 41.3844 21.104ZM40.8664 29H41.9164V22.238H40.8664V29ZM48.9109 29H49.9609V19.662H48.9109V23.26C48.3649 22.518 47.5389 22.07 46.6289 22.07C44.8509 22.07 43.6189 23.47 43.6189 25.626C43.6189 27.824 44.8649 29.168 46.6289 29.168C47.5809 29.168 48.4069 28.678 48.9109 27.992V29ZM48.9109 27.166C48.5329 27.754 47.7209 28.23 46.8809 28.23C45.5229 28.23 44.7109 27.124 44.7109 25.626C44.7109 24.128 45.5229 23.008 46.8809 23.008C47.7209 23.008 48.5329 23.512 48.9109 24.1V27.166ZM63.835 29H64.885V24.114C64.885 22.756 64.227 22.07 62.995 22.07C62.015 22.07 61.105 22.714 60.727 23.33C60.531 22.63 59.943 22.07 58.907 22.07C57.913 22.07 57.003 22.784 56.723 23.218V22.238H55.673V29H56.723V24.058C57.087 23.512 57.815 23.008 58.501 23.008C59.383 23.008 59.747 23.554 59.747 24.408V29H60.797V24.044C61.147 23.512 61.889 23.008 62.589 23.008C63.457 23.008 63.835 23.554 63.835 24.408V29ZM69.9337 29.168C71.9917 29.168 73.2797 27.572 73.2797 25.612C73.2797 23.652 71.9917 22.07 69.9337 22.07C67.8757 22.07 66.5877 23.652 66.5877 25.612C66.5877 27.572 67.8757 29.168 69.9337 29.168ZM69.9337 28.23C68.4917 28.23 67.6797 26.998 67.6797 25.612C67.6797 24.24 68.4917 23.008 69.9337 23.008C71.3757 23.008 72.1737 24.24 72.1737 25.612C72.1737 26.998 71.3757 28.23 69.9337 28.23ZM76.7974 29H77.9454L80.7594 22.238H79.6114L77.3714 27.782L75.1174 22.238H73.9834L76.7974 29ZM82.3727 21.104C82.7647 21.104 83.0867 20.782 83.0867 20.39C83.0867 19.998 82.7647 19.69 82.3727 19.69C81.9947 19.69 81.6727 19.998 81.6727 20.39C81.6727 20.782 81.9947 21.104 82.3727 21.104ZM81.8547 29H82.9047V22.238H81.8547V29ZM89.5632 29H90.6132V24.254C90.6132 22.784 89.8712 22.07 88.4572 22.07C87.4492 22.07 86.5252 22.658 86.0492 23.218V22.238H84.9992V29H86.0492V24.058C86.4412 23.512 87.2252 23.008 88.0512 23.008C88.9612 23.008 89.5632 23.386 89.5632 24.576V29ZM92.6962 30.736C93.4942 31.52 94.2782 31.744 95.4262 31.744C97.0782 31.744 98.6462 31.044 98.6462 28.804V22.238H97.5962V23.26C97.0502 22.518 96.2382 22.07 95.3282 22.07C93.5502 22.07 92.3182 23.414 92.3182 25.584C92.3182 27.768 93.5642 29.084 95.3282 29.084C96.2802 29.084 97.1062 28.566 97.5962 27.88V28.846C97.5962 30.33 96.5462 30.876 95.4262 30.876C94.4602 30.876 93.7882 30.624 93.2282 29.952L92.6962 30.736ZM97.5962 27.054C97.2322 27.642 96.4202 28.16 95.5802 28.16C94.2222 28.16 93.4102 27.068 93.4102 25.584C93.4102 24.086 94.2222 23.008 95.5802 23.008C96.4202 23.008 97.2322 23.512 97.5962 24.1V27.054ZM104.359 29H105.409V19.662H104.359V29ZM110.457 29.168C112.515 29.168 113.803 27.572 113.803 25.612C113.803 23.652 112.515 22.07 110.457 22.07C108.399 22.07 107.111 23.652 107.111 25.612C107.111 27.572 108.399 29.168 110.457 29.168ZM110.457 28.23C109.015 28.23 108.203 26.998 108.203 25.612C108.203 24.24 109.015 23.008 110.457 23.008C111.899 23.008 112.697 24.24 112.697 25.612C112.697 26.998 111.899 28.23 110.457 28.23ZM115.501 30.736C116.299 31.52 117.083 31.744 118.231 31.744C119.883 31.744 121.451 31.044 121.451 28.804V22.238H120.401V23.26C119.855 22.518 119.043 22.07 118.133 22.07C116.355 22.07 115.123 23.414 115.123 25.584C115.123 27.768 116.369 29.084 118.133 29.084C119.085 29.084 119.911 28.566 120.401 27.88V28.846C120.401 30.33 119.351 30.876 118.231 30.876C117.265 30.876 116.593 30.624 116.033 29.952L115.501 30.736ZM120.401 27.054C120.037 27.642 119.225 28.16 118.385 28.16C117.027 28.16 116.215 27.068 116.215 25.584C116.215 24.086 117.027 23.008 118.385 23.008C119.225 23.008 120.037 23.512 120.401 24.1V27.054ZM126.508 29.168C128.566 29.168 129.854 27.572 129.854 25.612C129.854 23.652 128.566 22.07 126.508 22.07C124.45 22.07 123.162 23.652 123.162 25.612C123.162 27.572 124.45 29.168 126.508 29.168ZM126.508 28.23C125.066 28.23 124.254 26.998 124.254 25.612C124.254 24.24 125.066 23.008 126.508 23.008C127.95 23.008 128.748 24.24 128.748 25.612C128.748 26.998 127.95 28.23 126.508 28.23ZM139.728 29H140.778V24.114C140.778 22.756 140.12 22.07 138.888 22.07C137.908 22.07 136.998 22.714 136.62 23.33C136.424 22.63 135.836 22.07 134.8 22.07C133.806 22.07 132.896 22.784 132.616 23.218V22.238H131.566V29H132.616V24.058C132.98 23.512 133.708 23.008 134.394 23.008C135.276 23.008 135.64 23.554 135.64 24.408V29H136.69V24.044C137.04 23.512 137.782 23.008 138.482 23.008C139.35 23.008 139.728 23.554 139.728 24.408V29ZM147.1 29H148.15V24.352C148.15 22.714 146.96 22.07 145.532 22.07C144.426 22.07 143.558 22.434 142.83 23.19L143.32 23.918C143.922 23.274 144.58 22.98 145.392 22.98C146.372 22.98 147.1 23.498 147.1 24.408V25.626C146.554 24.996 145.784 24.702 144.86 24.702C143.712 24.702 142.494 25.416 142.494 26.928C142.494 28.398 143.712 29.168 144.86 29.168C145.77 29.168 146.54 28.846 147.1 28.23V29ZM147.1 27.572C146.694 28.132 145.98 28.412 145.238 28.412C144.258 28.412 143.572 27.796 143.572 26.942C143.572 26.074 144.258 25.458 145.238 25.458C145.98 25.458 146.694 25.738 147.1 26.298V27.572ZM150.255 29H151.305V24.212C151.613 23.666 152.495 23.134 153.139 23.134C153.307 23.134 153.433 23.148 153.559 23.176V22.098C152.635 22.098 151.851 22.616 151.305 23.33V22.238H150.255V29ZM159.482 29H160.826L157.816 25.304L160.812 22.238H159.482L155.926 25.836V19.662H154.876V29H155.926V27.068L157.046 25.962L159.482 29Z" fill="#020A47"/>
<rect x="0.5" y="0.5" width="344" height="199" stroke="#E4E4E4"/>
<path fill-rule="evenodd" clip-rule="evenodd" d="M322.707 28.293C323.098 28.684 323.098 29.316 322.707 29.707C322.512 29.902 322.256 30 322 30C321.744 30 321.488 29.902 321.293 29.707L319 27.414L316.707 29.707C316.512 29.902 316.256 30 316 30C315.744 30 315.488 29.902 315.293 29.707C314.902 29.316 314.902 28.684 315.293 28.293L317.586 26L315.293 23.707C314.902 23.316 314.902 22.684 315.293 22.293C315.684 21.902 316.316 21.902 316.707 22.293L319 24.586L321.293 22.293C321.684 21.902 322.316 21.902 322.707 22.293C323.098 22.684 323.098 23.316 322.707 23.707L320.414 26L322.707 28.293ZM319 18C314.582 18 311 21.582 311 26C311 30.418 314.582 34 319 34C323.418 34 327 30.418 327 26C327 21.582 323.418 18 319 18Z" fill="#DE1C22"/>
<path d="M75.6558 102.871C74.8242 102.871 74.1183 102.6 73.5381 102.056C72.9772 101.513 72.6968 100.853 72.6968 100.077C72.6968 99.2617 72.9772 98.5922 73.5381 98.0682C74.1183 97.5248 74.8242 97.2531 75.6558 97.2531C76.4874 97.2531 77.1837 97.5248 77.7445 98.0682C78.3054 98.5922 78.5858 99.2617 78.5858 100.077C78.5858 100.853 78.3054 101.513 77.7445 102.056C77.1837 102.6 76.4874 102.871 75.6558 102.871ZM73.0159 120.25V105.229H78.2667V120.25H73.0159Z" fill="#020A47"/>
<path d="M81.7983 120.25V105.229H86.9621L87.0201 107.092C87.4069 106.355 87.9774 105.782 88.7317 105.375C89.4859 104.967 90.3562 104.763 91.3426 104.763C93.0252 104.763 94.3016 105.307 95.1719 106.394C96.0616 107.461 96.5064 109.033 96.5064 111.109V120.25H91.2556V112.099C91.2556 110.333 90.5883 109.45 89.2539 109.45C88.5383 109.45 87.9871 109.702 87.6003 110.207C87.2328 110.692 87.0491 111.391 87.0491 112.303V120.25H81.7983Z" fill="#020A47"/>
<path d="M101.467 120.25V109.45H99.0593V105.229H101.467V103.774C101.467 101.464 102.028 99.6789 103.15 98.4175C104.291 97.1561 105.896 96.5254 107.965 96.5254C108.565 96.5254 109.126 96.5739 109.648 96.6709C110.189 96.7486 110.644 96.865 111.011 97.0203L110.75 101.387C110.538 101.29 110.277 101.222 109.967 101.183C109.677 101.125 109.406 101.096 109.155 101.096C108.323 101.096 107.704 101.338 107.298 101.823C106.911 102.308 106.718 103.075 106.718 104.123V105.229H110.257V109.45H106.718V120.25H101.467ZM112.578 120.25V96.6709H117.829V120.25H112.578Z" fill="#020A47"/>
<path d="M126.307 120.715C124.663 120.715 123.406 120.191 122.536 119.143C121.666 118.076 121.23 116.524 121.23 114.486V105.229H126.51V113.409C126.51 114.302 126.665 114.961 126.974 115.388C127.303 115.815 127.816 116.029 128.512 116.029C129.208 116.029 129.74 115.786 130.108 115.301C130.494 114.796 130.688 114.088 130.688 113.176V105.229H135.939V120.25H130.775L130.717 118.387C130.33 119.124 129.75 119.697 128.976 120.104C128.222 120.512 127.332 120.715 126.307 120.715Z" fill="#020A47"/>
<path d="M138.318 120.25L143.772 112.506L138.608 105.229H144.468L146.905 109.304L149.284 105.229H154.854L149.719 112.565L155.202 120.25H149.313L146.586 115.709L143.888 120.25H138.318Z" fill="#020A47"/>
<path d="M204.398 120.715C203.064 120.715 201.865 120.385 200.801 119.726C199.757 119.066 198.935 118.154 198.335 116.989C197.736 115.806 197.436 114.467 197.436 112.972C197.436 111.536 197.755 110.236 198.393 109.072C199.051 107.888 199.931 106.956 201.033 106.277C202.135 105.578 203.354 105.229 204.688 105.229C205.791 105.229 206.796 105.501 207.705 106.044C208.634 106.588 209.378 107.354 209.939 108.344V96.6709H212.405V120.25H209.997L209.939 117.601C209.359 118.59 208.595 119.357 207.647 119.9C206.7 120.444 205.617 120.715 204.398 120.715ZM205.036 118.503C206.042 118.503 206.922 118.27 207.676 117.804C208.431 117.339 209.021 116.689 209.446 115.854C209.891 115.02 210.113 114.059 210.113 112.972C210.113 111.885 209.891 110.925 209.446 110.09C209.021 109.256 208.431 108.606 207.676 108.14C206.922 107.674 206.042 107.441 205.036 107.441C204.05 107.441 203.17 107.674 202.397 108.14C201.642 108.606 201.043 109.256 200.598 110.09C200.172 110.925 199.96 111.885 199.96 112.972C199.96 114.059 200.172 115.02 200.598 115.854C201.043 116.689 201.642 117.339 202.397 117.804C203.17 118.27 204.05 118.503 205.036 118.503Z" fill="#020A47"/>
<path d="M223.578 120.715C222.243 120.715 221.044 120.385 219.981 119.726C218.936 119.066 218.114 118.154 217.515 116.989C216.915 115.806 216.615 114.467 216.615 112.972C216.615 111.536 216.934 110.236 217.573 109.072C218.23 107.888 219.11 106.956 220.213 106.277C221.315 105.578 222.533 105.229 223.868 105.229C224.97 105.229 225.976 105.501 226.885 106.044C227.813 106.588 228.558 107.354 229.119 108.344L229.177 105.695H231.585V120.25H229.177L229.119 117.601C228.539 118.59 227.775 119.357 226.827 119.9C225.879 120.444 224.796 120.715 223.578 120.715ZM224.216 118.503C225.222 118.503 226.102 118.27 226.856 117.804C227.61 117.339 228.2 116.689 228.626 115.854C229.07 115.02 229.293 114.059 229.293 112.972C229.293 111.885 229.07 110.925 228.626 110.09C228.2 109.256 227.61 108.606 226.856 108.14C226.102 107.674 225.222 107.441 224.216 107.441C223.23 107.441 222.35 107.674 221.576 108.14C220.822 108.606 220.222 109.256 219.777 110.09C219.352 110.925 219.139 111.885 219.139 112.972C219.139 114.059 219.352 115.02 219.777 115.854C220.222 116.689 220.822 117.339 221.576 117.804C222.35 118.27 223.23 118.503 224.216 118.503Z" fill="#020A47"/>
<path d="M242.583 120.715C240.939 120.715 239.731 120.279 238.957 119.405C238.183 118.513 237.797 117.125 237.797 115.243V107.82H234.489V105.695H237.797V101.503H240.262V105.695H245.339V107.82H240.262V115.039C240.262 116.281 240.475 117.183 240.901 117.746C241.346 118.29 242.051 118.561 243.018 118.561C243.947 118.561 244.904 118.309 245.89 117.804L246.181 119.871C245.736 120.143 245.194 120.347 244.556 120.482C243.937 120.638 243.28 120.715 242.583 120.715Z" fill="#020A47"/>
<path d="M255.336 120.715C254.001 120.715 252.802 120.385 251.739 119.726C250.694 119.066 249.872 118.154 249.273 116.989C248.673 115.806 248.374 114.467 248.374 112.972C248.374 111.536 248.693 110.236 249.331 109.072C249.988 107.888 250.868 106.956 251.971 106.277C253.073 105.578 254.292 105.229 255.626 105.229C256.728 105.229 257.734 105.501 258.643 106.044C259.571 106.588 260.316 107.354 260.877 108.344L260.935 105.695H263.343V120.25H260.935L260.877 117.601C260.297 118.59 259.533 119.357 258.585 119.9C257.637 120.444 256.554 120.715 255.336 120.715ZM255.974 118.503C256.98 118.503 257.86 118.27 258.614 117.804C259.368 117.339 259.958 116.689 260.384 115.854C260.829 115.02 261.051 114.059 261.051 112.972C261.051 111.885 260.829 110.925 260.384 110.09C259.958 109.256 259.368 108.606 258.614 108.14C257.86 107.674 256.98 107.441 255.974 107.441C254.988 107.441 254.108 107.674 253.334 108.14C252.58 108.606 251.98 109.256 251.536 110.09C251.11 110.925 250.897 111.885 250.897 112.972C250.897 114.059 251.11 115.02 251.536 115.854C251.98 116.689 252.58 117.339 253.334 117.804C254.108 118.27 254.988 118.503 255.974 118.503Z" fill="#020A47"/>
<path d="M269.382 103.706C268.708 103.706 268.096 103.546 267.548 103.226C266.999 102.906 266.565 102.472 266.245 101.923C265.925 101.374 265.765 100.763 265.765 100.088C265.765 99.4141 265.925 98.8025 266.245 98.2539C266.565 97.7052 266.999 97.2708 267.548 96.9508C268.096 96.6307 268.708 96.4707 269.382 96.4707C270.068 96.4707 270.68 96.6307 271.217 96.9508C271.766 97.2708 272.2 97.7052 272.52 98.2539C272.84 98.8025 273 99.4141 273 100.088C273 100.763 272.84 101.374 272.52 101.923C272.2 102.472 271.766 102.906 271.217 103.226C270.68 103.546 270.068 103.706 269.382 103.706ZM269.382 103.072C269.942 103.072 270.44 102.94 270.874 102.677C271.32 102.415 271.674 102.06 271.937 101.614C272.2 101.157 272.331 100.649 272.331 100.088C272.331 99.5284 272.2 99.0254 271.937 98.5796C271.674 98.1224 271.32 97.7623 270.874 97.4994C270.44 97.2365 269.942 97.1051 269.382 97.1051C268.834 97.1051 268.337 97.2365 267.891 97.4994C267.445 97.7623 267.091 98.1224 266.828 98.5796C266.565 99.0254 266.433 99.5284 266.433 100.088C266.433 100.649 266.565 101.157 266.828 101.614C267.091 102.06 267.445 102.415 267.891 102.677C268.337 102.94 268.834 103.072 269.382 103.072ZM268.165 101.734V98.271H269.331C269.765 98.271 270.097 98.3682 270.325 98.5625C270.565 98.7568 270.685 99.0254 270.685 99.3683C270.685 99.5855 270.634 99.7855 270.531 99.9684C270.428 100.14 270.274 100.271 270.068 100.363L270.926 101.734H270.205L269.451 100.483H268.782V101.734H268.165ZM269.28 98.8197H268.782V99.9341H269.262C269.548 99.9341 269.748 99.8884 269.862 99.797C269.977 99.7055 270.034 99.5626 270.034 99.3683C270.034 99.0026 269.782 98.8197 269.28 98.8197Z" fill="#020A47"/>
<path fill-rule="evenodd" clip-rule="evenodd" d="M184.129 116.47L191.2 114.946C191.309 114.926 191.412 114.884 191.503 114.823C191.594 114.763 191.67 114.686 191.728 114.596C191.785 114.507 191.821 114.407 191.835 114.303C191.849 114.2 191.84 114.094 191.808 113.994L188.801 101.735C188.747 101.533 188.61 101.359 188.419 101.252C188.229 101.144 188.001 101.113 187.786 101.163L180.718 102.687C180.504 102.739 180.32 102.868 180.207 103.046C180.094 103.224 180.061 103.438 180.115 103.639L183.113 115.898C183.168 116.101 183.305 116.274 183.496 116.382C183.686 116.489 183.914 116.521 184.129 116.47Z" fill="#020A47"/>
<path fill-rule="evenodd" clip-rule="evenodd" d="M181.693 124.046L190.266 116.585C190.589 116.279 190.507 116.09 190.062 116.24L184.17 117.499C183.926 117.555 183.702 117.669 183.517 117.828C183.333 117.988 183.194 118.189 183.113 118.413L181.326 123.819C181.204 124.237 181.367 124.352 181.693 124.046Z" fill="#020A47"/>
<path fill-rule="evenodd" clip-rule="evenodd" d="M166.052 121.611L178.89 125.34C179.109 125.378 179.336 125.342 179.529 125.238C179.723 125.133 179.871 124.968 179.946 124.771L182.098 118.298C182.129 118.197 182.138 118.091 182.126 117.986C182.114 117.882 182.079 117.781 182.025 117.689C181.971 117.597 181.898 117.516 181.811 117.45C181.723 117.385 181.623 117.336 181.515 117.307L168.678 113.614C168.461 113.555 168.228 113.58 168.03 113.683C167.832 113.785 167.685 113.957 167.621 114.161L165.485 120.62C165.421 120.822 165.445 121.04 165.552 121.225C165.658 121.411 165.838 121.549 166.052 121.611Z" fill="#020A47"/>
<path fill-rule="evenodd" clip-rule="evenodd" d="M161.907 108.361L164.51 119.072C164.591 119.49 164.801 119.49 164.914 119.072L166.702 113.666C166.762 113.435 166.765 113.195 166.709 112.964C166.653 112.732 166.54 112.516 166.378 112.333L162.274 108.17C161.989 107.855 161.776 107.942 161.907 108.361Z" fill="#020A47"/>
<path fill-rule="evenodd" clip-rule="evenodd" d="M171.944 96.9115L162.111 105.467C161.953 105.608 161.861 105.801 161.853 106.006C161.845 106.21 161.923 106.41 162.07 106.561L166.987 111.559C167.138 111.71 167.347 111.799 167.568 111.806C167.789 111.813 168.004 111.738 168.166 111.598L177.996 103.029C178.155 102.888 178.249 102.695 178.256 102.49C178.264 102.285 178.185 102.085 178.037 101.935L173.129 96.9389C173.053 96.8634 172.963 96.8027 172.862 96.7604C172.761 96.7181 172.653 96.695 172.543 96.6924C172.432 96.6899 172.323 96.7079 172.22 96.7456C172.117 96.7832 172.024 96.8396 171.944 96.9115Z" fill="#020A47"/>
<path fill-rule="evenodd" clip-rule="evenodd" d="M181.448 116.279C181.897 116.394 182.179 116.166 182.06 115.731L179.216 104.159C179.094 103.74 178.727 103.625 178.404 103.929L169.141 112.016C168.815 112.32 168.896 112.662 169.342 112.777L181.448 116.279Z" fill="#020A47"/>
<path fill-rule="evenodd" clip-rule="evenodd" d="M186.283 100.137L175.071 96.9116C174.625 96.7967 174.544 96.9499 174.908 97.2918L179.012 101.442C179.196 101.604 179.419 101.722 179.661 101.786C179.904 101.85 180.159 101.859 180.406 101.811L186.298 100.556C186.732 100.441 186.732 100.249 186.283 100.137Z" fill="#020A47"/>
</svg>
