<svg width="345" height="200" viewBox="0 0 345 200" fill="none" xmlns="http://www.w3.org/2000/svg">
<rect width="345" height="200" fill="white"/>
<path d="M23.798 29H25.086L21.32 19.662H19.878L16.126 29H17.414L18.24 26.928H22.972L23.798 29ZM20.606 20.698L22.622 25.892H18.576L20.606 20.698ZM27.7974 29H28.9454L31.7594 22.238H30.6114L28.3714 27.782L26.1174 22.238H24.9834L27.7974 29ZM35.8087 29.168C37.8667 29.168 39.1547 27.572 39.1547 25.612C39.1547 23.652 37.8667 22.07 35.8087 22.07C33.7507 22.07 32.4627 23.652 32.4627 25.612C32.4627 27.572 33.7507 29.168 35.8087 29.168ZM35.8087 28.23C34.3667 28.23 33.5547 26.998 33.5547 25.612C33.5547 24.24 34.3667 23.008 35.8087 23.008C37.2507 23.008 38.0487 24.24 38.0487 25.612C38.0487 26.998 37.2507 28.23 35.8087 28.23ZM41.3844 21.104C41.7764 21.104 42.0984 20.782 42.0984 20.39C42.0984 19.998 41.7764 19.69 41.3844 19.69C41.0064 19.69 40.6844 19.998 40.6844 20.39C40.6844 20.782 41.0064 21.104 41.3844 21.104ZM40.8664 29H41.9164V22.238H40.8664V29ZM48.9109 29H49.9609V19.662H48.9109V23.26C48.3649 22.518 47.5389 22.07 46.6289 22.07C44.8509 22.07 43.6189 23.47 43.6189 25.626C43.6189 27.824 44.8649 29.168 46.6289 29.168C47.5809 29.168 48.4069 28.678 48.9109 27.992V29ZM48.9109 27.166C48.5329 27.754 47.7209 28.23 46.8809 28.23C45.5229 28.23 44.7109 27.124 44.7109 25.626C44.7109 24.128 45.5229 23.008 46.8809 23.008C47.7209 23.008 48.5329 23.512 48.9109 24.1V27.166ZM60.237 29H61.287V22.238H60.237V27.208C59.845 27.754 59.061 28.23 58.235 28.23C57.325 28.23 56.723 27.88 56.723 26.69V22.238H55.673V27.012C55.673 28.482 56.415 29.168 57.829 29.168C58.837 29.168 59.719 28.636 60.237 28.048V29ZM62.796 28.104C63.482 28.832 64.42 29.168 65.526 29.168C67.276 29.168 68.186 28.258 68.186 27.124C68.186 25.626 66.828 25.29 65.652 25.024C64.77 24.814 64 24.604 64 23.946C64 23.344 64.574 22.924 65.498 22.924C66.366 22.924 67.108 23.288 67.514 23.778L68.004 23.05C67.458 22.504 66.646 22.07 65.498 22.07C63.888 22.07 62.978 22.966 62.978 24.016C62.978 25.416 64.28 25.724 65.428 25.99C66.338 26.214 67.164 26.452 67.164 27.194C67.164 27.852 66.604 28.314 65.568 28.314C64.644 28.314 63.79 27.866 63.342 27.348L62.796 28.104ZM70.4098 21.104C70.8018 21.104 71.1238 20.782 71.1238 20.39C71.1238 19.998 70.8018 19.69 70.4098 19.69C70.0318 19.69 69.7098 19.998 69.7098 20.39C69.7098 20.782 70.0318 21.104 70.4098 21.104ZM69.8918 29H70.9418V22.238H69.8918V29ZM77.6003 29H78.6503V24.254C78.6503 22.784 77.9083 22.07 76.4943 22.07C75.4863 22.07 74.5623 22.658 74.0863 23.218V22.238H73.0363V29H74.0863V24.058C74.4783 23.512 75.2623 23.008 76.0883 23.008C76.9983 23.008 77.6003 23.386 77.6003 24.576V29ZM80.7333 30.736C81.5313 31.52 82.3153 31.744 83.4633 31.744C85.1153 31.744 86.6833 31.044 86.6833 28.804V22.238H85.6333V23.26C85.0873 22.518 84.2753 22.07 83.3653 22.07C81.5873 22.07 80.3553 23.414 80.3553 25.584C80.3553 27.768 81.6013 29.084 83.3653 29.084C84.3173 29.084 85.1433 28.566 85.6333 27.88V28.846C85.6333 30.33 84.5833 30.876 83.4633 30.876C82.4973 30.876 81.8253 30.624 81.2653 29.952L80.7333 30.736ZM85.6333 27.054C85.2693 27.642 84.4573 28.16 83.6173 28.16C82.2593 28.16 81.4473 27.068 81.4473 25.584C81.4473 24.086 82.2593 23.008 83.6173 23.008C84.4573 23.008 85.2693 23.512 85.6333 24.1V27.054ZM95.3497 29.168C97.4077 29.168 98.6957 27.572 98.6957 25.612C98.6957 23.652 97.4077 22.07 95.3497 22.07C93.2917 22.07 92.0037 23.652 92.0037 25.612C92.0037 27.572 93.2917 29.168 95.3497 29.168ZM95.3497 28.23C93.9077 28.23 93.0957 26.998 93.0957 25.612C93.0957 24.24 93.9077 23.008 95.3497 23.008C96.7917 23.008 97.5897 24.24 97.5897 25.612C97.5897 26.998 96.7917 28.23 95.3497 28.23ZM104.971 29H106.021V24.254C106.021 22.784 105.279 22.07 103.865 22.07C102.857 22.07 101.933 22.658 101.457 23.218V22.238H100.407V29H101.457V24.058C101.849 23.512 102.633 23.008 103.459 23.008C104.369 23.008 104.971 23.386 104.971 24.576V29ZM108.118 29H109.168V19.662H108.118V29ZM111.053 30.694L110.885 31.646C111.081 31.702 111.431 31.744 111.655 31.744C112.551 31.73 113.237 31.352 113.643 30.372L117.031 22.238H115.883L113.643 27.782L111.389 22.238H110.255L113.083 29.07L112.635 30.092C112.397 30.652 112.089 30.806 111.627 30.806C111.459 30.806 111.207 30.764 111.053 30.694ZM123.444 29.168C124.06 29.168 124.438 28.986 124.704 28.734L124.396 27.95C124.256 28.104 123.976 28.23 123.682 28.23C123.22 28.23 122.996 27.866 122.996 27.362V23.162H124.368V22.238H122.996V20.39H121.946V22.238H120.826V23.162H121.946V27.586C121.946 28.594 122.45 29.168 123.444 29.168ZM125.641 30.694L125.473 31.646C125.669 31.702 126.019 31.744 126.243 31.744C127.139 31.73 127.825 31.352 128.231 30.372L131.619 22.238H130.471L128.231 27.782L125.977 22.238H124.843L127.671 29.07L127.223 30.092C126.985 30.652 126.677 30.806 126.215 30.806C126.047 30.806 125.795 30.764 125.641 30.694ZM133.764 31.576V27.978C134.31 28.734 135.122 29.168 136.046 29.168C137.824 29.168 139.056 27.796 139.056 25.612C139.056 23.414 137.824 22.07 136.046 22.07C135.094 22.07 134.254 22.56 133.764 23.246V22.238H132.714V31.576H133.764ZM137.95 25.612C137.95 27.11 137.138 28.23 135.78 28.23C134.954 28.23 134.128 27.726 133.764 27.138V24.086C134.128 23.498 134.954 23.008 135.78 23.008C137.138 23.008 137.95 24.114 137.95 25.612ZM140.361 25.612C140.361 27.726 141.803 29.168 143.805 29.168C144.911 29.168 145.821 28.804 146.493 28.132L145.989 27.446C145.457 27.992 144.673 28.3 143.903 28.3C142.447 28.3 141.551 27.236 141.467 25.962H146.941V25.696C146.941 23.666 145.737 22.07 143.693 22.07C141.761 22.07 140.361 23.652 140.361 25.612ZM143.679 22.938C145.219 22.938 145.891 24.184 145.905 25.192H141.467C141.523 24.156 142.237 22.938 143.679 22.938Z" fill="#020A47"/>
<rect x="0.5" y="0.5" width="344" height="199" stroke="#E4E4E4"/>
<path fill-rule="evenodd" clip-rule="evenodd" d="M322.707 28.293C323.098 28.684 323.098 29.316 322.707 29.707C322.512 29.902 322.256 30 322 30C321.744 30 321.488 29.902 321.293 29.707L319 27.414L316.707 29.707C316.512 29.902 316.256 30 316 30C315.744 30 315.488 29.902 315.293 29.707C314.902 29.316 314.902 28.684 315.293 28.293L317.586 26L315.293 23.707C314.902 23.316 314.902 22.684 315.293 22.293C315.684 21.902 316.316 21.902 316.707 22.293L319 24.586L321.293 22.293C321.684 21.902 322.316 21.902 322.707 22.293C323.098 22.684 323.098 23.316 322.707 23.707L320.414 26L322.707 28.293ZM319 18C314.582 18 311 21.582 311 26C311 30.418 314.582 34 319 34C323.418 34 327 30.418 327 26C327 21.582 323.418 18 319 18Z" fill="#DE1C22"/>
<path d="M253.618 112.706C252.943 112.706 252.332 112.546 251.783 112.226C251.234 111.906 250.8 111.472 250.48 110.923C250.16 110.374 250 109.763 250 109.088C250 108.414 250.16 107.803 250.48 107.254C250.8 106.705 251.234 106.271 251.783 105.951C252.332 105.631 252.943 105.471 253.618 105.471C254.304 105.471 254.915 105.631 255.452 105.951C256.001 106.271 256.435 106.705 256.755 107.254C257.075 107.803 257.235 108.414 257.235 109.088C257.235 109.763 257.075 110.374 256.755 110.923C256.435 111.472 256.001 111.906 255.452 112.226C254.915 112.546 254.304 112.706 253.618 112.706ZM253.618 112.072C254.178 112.072 254.675 111.94 255.109 111.677C255.555 111.415 255.91 111.06 256.172 110.614C256.435 110.157 256.567 109.649 256.567 109.088C256.567 108.528 256.435 108.025 256.172 107.58C255.91 107.122 255.555 106.762 255.109 106.499C254.675 106.237 254.178 106.105 253.618 106.105C253.069 106.105 252.572 106.237 252.126 106.499C251.68 106.762 251.326 107.122 251.063 107.58C250.8 108.025 250.669 108.528 250.669 109.088C250.669 109.649 250.8 110.157 251.063 110.614C251.326 111.06 251.68 111.415 252.126 111.677C252.572 111.94 253.069 112.072 253.618 112.072ZM252.4 110.734V107.271H253.566C254.001 107.271 254.332 107.368 254.561 107.562C254.801 107.757 254.921 108.025 254.921 108.368C254.921 108.586 254.869 108.786 254.767 108.968C254.664 109.14 254.509 109.271 254.304 109.363L255.161 110.734H254.441L253.686 109.483H253.018V110.734H252.4ZM253.515 107.82H253.018V108.934H253.498C253.783 108.934 253.984 108.888 254.098 108.797C254.212 108.706 254.269 108.563 254.269 108.368C254.269 108.003 254.018 107.82 253.515 107.82Z" fill="#020A47"/>
<path d="M92.6025 112.212C91.7345 112.212 90.9977 111.929 90.3921 111.364C89.8067 110.799 89.514 110.113 89.514 109.305C89.514 108.457 89.8067 107.761 90.3921 107.216C90.9977 106.651 91.7345 106.368 92.6025 106.368C93.4705 106.368 94.1973 106.651 94.7827 107.216C95.3681 107.761 95.6608 108.457 95.6608 109.305C95.6608 110.113 95.3681 110.799 94.7827 111.364C94.1973 111.929 93.4705 112.212 92.6025 112.212ZM89.8471 130.289V114.665H95.3277V130.289H89.8471ZM99.0138 130.289V114.665H104.404L104.464 116.603C104.868 115.836 105.463 115.24 106.251 114.816C107.038 114.392 107.946 114.18 108.976 114.18C110.732 114.18 112.064 114.745 112.973 115.876C113.901 116.986 114.366 118.621 114.366 120.781V130.289H108.885V121.811C108.885 119.974 108.189 119.055 106.796 119.055C106.049 119.055 105.473 119.318 105.07 119.843C104.686 120.347 104.494 121.074 104.494 122.023V130.289H99.0138ZM119.543 130.289V119.055H117.03V114.665H119.543V113.151C119.543 110.749 120.129 108.891 121.3 107.579C122.491 106.267 124.166 105.611 126.326 105.611C126.952 105.611 127.537 105.662 128.082 105.762C128.648 105.843 129.122 105.964 129.505 106.126L129.233 110.668C129.011 110.567 128.738 110.496 128.415 110.456C128.113 110.395 127.83 110.365 127.568 110.365C126.7 110.365 126.054 110.617 125.63 111.122C125.226 111.627 125.024 112.424 125.024 113.514V114.665H128.718V119.055H125.024V130.289H119.543ZM131.141 130.289V105.762H136.621V130.289H131.141ZM145.471 130.774C143.755 130.774 142.443 130.229 141.534 129.138C140.626 128.028 140.172 126.413 140.172 124.294V114.665H145.683V123.173C145.683 124.102 145.844 124.788 146.167 125.232C146.51 125.676 147.045 125.898 147.772 125.898C148.499 125.898 149.054 125.646 149.437 125.142C149.841 124.617 150.043 123.88 150.043 122.931V114.665H155.524V130.289H150.134L150.073 128.351C149.67 129.118 149.064 129.714 148.256 130.138C147.469 130.562 146.541 130.774 145.471 130.774ZM158.007 130.289L163.7 122.235L158.31 114.665H164.427L166.97 118.904L169.453 114.665H175.267L169.907 122.295L175.63 130.289H169.483L166.637 125.565L163.821 130.289H158.007ZM183.226 130.774C181.874 130.774 180.673 130.43 179.623 129.744C178.593 129.037 177.786 128.069 177.201 126.837C176.615 125.586 176.322 124.152 176.322 122.537C176.322 120.943 176.635 119.52 177.261 118.268C177.887 117.016 178.735 116.027 179.805 115.301C180.875 114.554 182.076 114.18 183.408 114.18C185.285 114.18 186.739 114.887 187.768 116.3V105.762H193.249V130.289H188.071L188.01 128.291C187.021 129.946 185.427 130.774 183.226 130.774ZM184.922 125.898C185.83 125.898 186.577 125.576 187.163 124.93C187.748 124.284 188.041 123.466 188.041 122.477C188.041 121.468 187.748 120.65 187.163 120.024C186.577 119.378 185.83 119.055 184.922 119.055C183.993 119.055 183.236 119.378 182.651 120.024C182.066 120.65 181.773 121.468 181.773 122.477C181.773 123.466 182.066 124.284 182.651 124.93C183.236 125.576 183.993 125.898 184.922 125.898ZM203.127 130.774C201.774 130.774 200.573 130.43 199.524 129.744C198.494 129.037 197.687 128.069 197.101 126.837C196.516 125.586 196.223 124.152 196.223 122.537C196.223 120.943 196.536 119.52 197.162 118.268C197.788 117.016 198.635 116.027 199.705 115.301C200.775 114.554 201.976 114.18 203.309 114.18C204.318 114.18 205.226 114.402 206.034 114.846C206.841 115.27 207.467 115.876 207.911 116.663L207.972 114.665H213.15V130.289H207.972L207.911 128.291C207.447 129.078 206.801 129.694 205.973 130.138C205.146 130.562 204.197 130.774 203.127 130.774ZM204.823 125.898C205.731 125.898 206.478 125.576 207.063 124.93C207.649 124.284 207.941 123.466 207.941 122.477C207.941 121.468 207.649 120.65 207.063 120.024C206.478 119.378 205.731 119.055 204.823 119.055C203.894 119.055 203.137 119.378 202.552 120.024C201.966 120.65 201.673 121.468 201.673 122.477C201.673 123.466 201.966 124.284 202.552 124.93C203.137 125.576 203.894 125.898 204.823 125.898ZM223.906 130.774C220.01 130.774 218.062 128.725 218.062 124.627V119.055H215.427V114.665H218.062V110.638H223.512V114.665H227.963V119.055H223.512V123.355C223.512 124.284 223.663 124.94 223.966 125.323C224.289 125.707 224.814 125.898 225.541 125.898C226.429 125.898 227.277 125.717 228.084 125.353L228.629 129.865C227.459 130.471 225.884 130.774 223.906 130.774ZM237.221 130.774C235.869 130.774 234.668 130.43 233.618 129.744C232.588 129.037 231.781 128.069 231.196 126.837C230.61 125.586 230.317 124.152 230.317 122.537C230.317 120.943 230.63 119.52 231.256 118.268C231.882 117.016 232.73 116.027 233.8 115.301C234.869 114.554 236.071 114.18 237.403 114.18C238.412 114.18 239.321 114.402 240.128 114.846C240.936 115.27 241.561 115.876 242.005 116.663L242.066 114.665H247.244V130.289H242.066L242.005 128.291C241.541 129.078 240.895 129.694 240.067 130.138C239.24 130.562 238.291 130.774 237.221 130.774ZM238.917 125.898C239.825 125.898 240.572 125.576 241.158 124.93C241.743 124.284 242.036 123.466 242.036 122.477C242.036 121.468 241.743 120.65 241.158 120.024C240.572 119.378 239.825 119.055 238.917 119.055C237.988 119.055 237.231 119.378 236.646 120.024C236.06 120.65 235.768 121.468 235.768 122.477C235.768 123.466 236.06 124.284 236.646 124.93C237.231 125.576 237.988 125.898 238.917 125.898Z" fill="#292933"/>
</svg>
