<svg width="345" height="200" viewBox="0 0 345 200" fill="none" xmlns="http://www.w3.org/2000/svg">
<rect width="345" height="200" fill="white"/>
<path d="M23.798 29H25.086L21.32 19.662H19.878L16.126 29H17.414L18.24 26.928H22.972L23.798 29ZM20.606 20.698L22.622 25.892H18.576L20.606 20.698ZM27.7974 29H28.9454L31.7594 22.238H30.6114L28.3714 27.782L26.1174 22.238H24.9834L27.7974 29ZM35.8087 29.168C37.8667 29.168 39.1547 27.572 39.1547 25.612C39.1547 23.652 37.8667 22.07 35.8087 22.07C33.7507 22.07 32.4627 23.652 32.4627 25.612C32.4627 27.572 33.7507 29.168 35.8087 29.168ZM35.8087 28.23C34.3667 28.23 33.5547 26.998 33.5547 25.612C33.5547 24.24 34.3667 23.008 35.8087 23.008C37.2507 23.008 38.0487 24.24 38.0487 25.612C38.0487 26.998 37.2507 28.23 35.8087 28.23ZM41.3844 21.104C41.7764 21.104 42.0984 20.782 42.0984 20.39C42.0984 19.998 41.7764 19.69 41.3844 19.69C41.0064 19.69 40.6844 19.998 40.6844 20.39C40.6844 20.782 41.0064 21.104 41.3844 21.104ZM40.8664 29H41.9164V22.238H40.8664V29ZM48.9109 29H49.9609V19.662H48.9109V23.26C48.3649 22.518 47.5389 22.07 46.6289 22.07C44.8509 22.07 43.6189 23.47 43.6189 25.626C43.6189 27.824 44.8649 29.168 46.6289 29.168C47.5809 29.168 48.4069 28.678 48.9109 27.992V29ZM48.9109 27.166C48.5329 27.754 47.7209 28.23 46.8809 28.23C45.5229 28.23 44.7109 27.124 44.7109 25.626C44.7109 24.128 45.5229 23.008 46.8809 23.008C47.7209 23.008 48.5329 23.512 48.9109 24.1V27.166ZM60.237 29H61.287V22.238H60.237V27.208C59.845 27.754 59.061 28.23 58.235 28.23C57.325 28.23 56.723 27.88 56.723 26.69V22.238H55.673V27.012C55.673 28.482 56.415 29.168 57.829 29.168C58.837 29.168 59.719 28.636 60.237 28.048V29ZM62.796 28.104C63.482 28.832 64.42 29.168 65.526 29.168C67.276 29.168 68.186 28.258 68.186 27.124C68.186 25.626 66.828 25.29 65.652 25.024C64.77 24.814 64 24.604 64 23.946C64 23.344 64.574 22.924 65.498 22.924C66.366 22.924 67.108 23.288 67.514 23.778L68.004 23.05C67.458 22.504 66.646 22.07 65.498 22.07C63.888 22.07 62.978 22.966 62.978 24.016C62.978 25.416 64.28 25.724 65.428 25.99C66.338 26.214 67.164 26.452 67.164 27.194C67.164 27.852 66.604 28.314 65.568 28.314C64.644 28.314 63.79 27.866 63.342 27.348L62.796 28.104ZM70.4098 21.104C70.8018 21.104 71.1238 20.782 71.1238 20.39C71.1238 19.998 70.8018 19.69 70.4098 19.69C70.0318 19.69 69.7098 19.998 69.7098 20.39C69.7098 20.782 70.0318 21.104 70.4098 21.104ZM69.8918 29H70.9418V22.238H69.8918V29ZM77.6003 29H78.6503V24.254C78.6503 22.784 77.9083 22.07 76.4943 22.07C75.4863 22.07 74.5623 22.658 74.0863 23.218V22.238H73.0363V29H74.0863V24.058C74.4783 23.512 75.2623 23.008 76.0883 23.008C76.9983 23.008 77.6003 23.386 77.6003 24.576V29ZM80.7333 30.736C81.5313 31.52 82.3153 31.744 83.4633 31.744C85.1153 31.744 86.6833 31.044 86.6833 28.804V22.238H85.6333V23.26C85.0873 22.518 84.2753 22.07 83.3653 22.07C81.5873 22.07 80.3553 23.414 80.3553 25.584C80.3553 27.768 81.6013 29.084 83.3653 29.084C84.3173 29.084 85.1433 28.566 85.6333 27.88V28.846C85.6333 30.33 84.5833 30.876 83.4633 30.876C82.4973 30.876 81.8253 30.624 81.2653 29.952L80.7333 30.736ZM85.6333 27.054C85.2693 27.642 84.4573 28.16 83.6173 28.16C82.2593 28.16 81.4473 27.068 81.4473 25.584C81.4473 24.086 82.2593 23.008 83.6173 23.008C84.4573 23.008 85.2693 23.512 85.6333 24.1V27.054ZM91.8077 28.104C92.4937 28.832 93.4317 29.168 94.5377 29.168C96.2877 29.168 97.1977 28.258 97.1977 27.124C97.1977 25.626 95.8397 25.29 94.6637 25.024C93.7817 24.814 93.0117 24.604 93.0117 23.946C93.0117 23.344 93.5857 22.924 94.5097 22.924C95.3777 22.924 96.1197 23.288 96.5257 23.778L97.0157 23.05C96.4697 22.504 95.6577 22.07 94.5097 22.07C92.8997 22.07 91.9897 22.966 91.9897 24.016C91.9897 25.416 93.2917 25.724 94.4397 25.99C95.3497 26.214 96.1757 26.452 96.1757 27.194C96.1757 27.852 95.6157 28.314 94.5797 28.314C93.6557 28.314 92.8017 27.866 92.3537 27.348L91.8077 28.104ZM100.612 29.168C101.228 29.168 101.606 28.986 101.872 28.734L101.564 27.95C101.424 28.104 101.144 28.23 100.85 28.23C100.388 28.23 100.164 27.866 100.164 27.362V23.162H101.536V22.238H100.164V20.39H99.1135V22.238H97.9935V23.162H99.1135V27.586C99.1135 28.594 99.6175 29.168 100.612 29.168ZM103.019 29H104.069V24.212C104.377 23.666 105.259 23.134 105.903 23.134C106.071 23.134 106.197 23.148 106.323 23.176V22.098C105.399 22.098 104.615 22.616 104.069 23.33V22.238H103.019V29ZM110.594 29.168C112.652 29.168 113.94 27.572 113.94 25.612C113.94 23.652 112.652 22.07 110.594 22.07C108.536 22.07 107.248 23.652 107.248 25.612C107.248 27.572 108.536 29.168 110.594 29.168ZM110.594 28.23C109.152 28.23 108.34 26.998 108.34 25.612C108.34 24.24 109.152 23.008 110.594 23.008C112.036 23.008 112.834 24.24 112.834 25.612C112.834 26.998 112.036 28.23 110.594 28.23ZM120.258 29H121.602L118.592 25.304L121.588 22.238H120.258L116.702 25.836V19.662H115.652V29H116.702V27.068L117.822 25.962L120.258 29ZM122.123 25.612C122.123 27.726 123.565 29.168 125.567 29.168C126.673 29.168 127.583 28.804 128.255 28.132L127.751 27.446C127.219 27.992 126.435 28.3 125.665 28.3C124.209 28.3 123.313 27.236 123.229 25.962H128.703V25.696C128.703 23.666 127.499 22.07 125.455 22.07C123.523 22.07 122.123 23.652 122.123 25.612ZM125.441 22.938C126.981 22.938 127.653 24.184 127.667 25.192H123.229C123.285 24.156 123.999 22.938 125.441 22.938ZM129.816 28.104C130.502 28.832 131.44 29.168 132.546 29.168C134.296 29.168 135.206 28.258 135.206 27.124C135.206 25.626 133.848 25.29 132.672 25.024C131.79 24.814 131.02 24.604 131.02 23.946C131.02 23.344 131.594 22.924 132.518 22.924C133.386 22.924 134.128 23.288 134.534 23.778L135.024 23.05C134.478 22.504 133.666 22.07 132.518 22.07C130.908 22.07 129.998 22.966 129.998 24.016C129.998 25.416 131.3 25.724 132.448 25.99C133.358 26.214 134.184 26.452 134.184 27.194C134.184 27.852 133.624 28.314 132.588 28.314C131.664 28.314 130.81 27.866 130.362 27.348L129.816 28.104Z" fill="#020A47"/>
<rect x="0.5" y="0.5" width="344" height="199" stroke="#E4E4E4"/>
<path fill-rule="evenodd" clip-rule="evenodd" d="M322.707 28.293C323.098 28.684 323.098 29.316 322.707 29.707C322.512 29.902 322.256 30 322 30C321.744 30 321.488 29.902 321.293 29.707L319 27.414L316.707 29.707C316.512 29.902 316.256 30 316 30C315.744 30 315.488 29.902 315.293 29.707C314.902 29.316 314.902 28.684 315.293 28.293L317.586 26L315.293 23.707C314.902 23.316 314.902 22.684 315.293 22.293C315.684 21.902 316.316 21.902 316.707 22.293L319 24.586L321.293 22.293C321.684 21.902 322.316 21.902 322.707 22.293C323.098 22.684 323.098 23.316 322.707 23.707L320.414 26L322.707 28.293ZM319 18C314.582 18 311 21.582 311 26C311 30.418 314.582 34 319 34C323.418 34 327 30.418 327 26C327 21.582 323.418 18 319 18Z" fill="#DE1C22"/>
<mask id="path-4-outside-1_1_95" maskUnits="userSpaceOnUse" x="119.502" y="102.909" width="147" height="26" fill="black">
<rect fill="white" x="119.502" y="102.909" width="147" height="26"/>
<path d="M123.336 109.985C122.539 109.985 121.863 109.725 121.308 109.205C120.771 108.685 120.502 108.053 120.502 107.309C120.502 106.529 120.771 105.888 121.308 105.386C121.863 104.866 122.539 104.606 123.336 104.606C124.132 104.606 124.799 104.866 125.336 105.386C125.873 105.888 126.141 106.529 126.141 107.309C126.141 108.053 125.873 108.685 125.336 109.205C124.799 109.725 124.132 109.985 123.336 109.985ZM120.808 126.626V112.243H125.836V126.626H120.808Z"/>
<path d="M129.217 126.626V112.243H134.162L134.217 114.027C134.588 113.321 135.134 112.773 135.856 112.382C136.579 111.992 137.412 111.797 138.356 111.797C139.968 111.797 141.19 112.317 142.023 113.358C142.875 114.38 143.301 115.885 143.301 117.874V126.626H138.273V118.821C138.273 117.13 137.634 116.285 136.356 116.285C135.671 116.285 135.143 116.526 134.773 117.01C134.421 117.474 134.245 118.143 134.245 119.016V126.626H129.217Z"/>
<path d="M148.051 126.626V116.285H145.746V112.243H148.051V110.849C148.051 108.638 148.588 106.929 149.662 105.721C150.755 104.513 152.292 103.909 154.274 103.909C154.848 103.909 155.385 103.955 155.885 104.048C156.403 104.123 156.838 104.234 157.19 104.383L156.94 108.564C156.737 108.471 156.487 108.406 156.19 108.369C155.912 108.313 155.653 108.285 155.412 108.285C154.616 108.285 154.024 108.517 153.635 108.982C153.264 109.446 153.079 110.18 153.079 111.184V112.243H156.468V116.285H153.079V126.626H148.051ZM158.69 126.626V104.048H163.718V126.626H158.69Z"/>
<path d="M171.837 127.072C170.263 127.072 169.059 126.57 168.226 125.567C167.392 124.545 166.976 123.058 166.976 121.107V112.243H172.031V120.076C172.031 120.93 172.179 121.562 172.476 121.971C172.79 122.38 173.281 122.584 173.948 122.584C174.615 122.584 175.124 122.352 175.476 121.887C175.846 121.404 176.031 120.726 176.031 119.853V112.243H181.059V126.626H176.115L176.059 124.842C175.689 125.548 175.133 126.096 174.392 126.487C173.67 126.877 172.818 127.072 171.837 127.072Z"/>
<path d="M183.338 126.626L188.56 119.212L183.616 112.243H189.227L191.56 116.145L193.838 112.243H199.172L194.255 119.267L199.505 126.626H193.866L191.255 122.278L188.671 126.626H183.338Z"/>
<path d="M208.311 127.072C207.033 127.072 205.885 126.756 204.866 126.124C203.866 125.492 203.079 124.619 202.505 123.504C201.931 122.371 201.644 121.088 201.644 119.658C201.644 118.282 201.949 117.037 202.561 115.922C203.19 114.789 204.033 113.897 205.088 113.247C206.144 112.578 207.311 112.243 208.588 112.243C209.644 112.243 210.607 112.503 211.477 113.024C212.366 113.544 213.079 114.278 213.616 115.226V104.048H215.978V126.626H213.672L213.616 124.089C213.061 125.037 212.329 125.771 211.422 126.291C210.514 126.812 209.477 127.072 208.311 127.072ZM208.922 124.954C209.885 124.954 210.727 124.731 211.45 124.285C212.172 123.839 212.737 123.216 213.144 122.417C213.57 121.618 213.783 120.698 213.783 119.658C213.783 118.617 213.57 117.697 213.144 116.898C212.737 116.099 212.172 115.476 211.45 115.03C210.727 114.585 209.885 114.362 208.922 114.362C207.977 114.362 207.135 114.585 206.394 115.03C205.672 115.476 205.098 116.099 204.672 116.898C204.264 117.697 204.061 118.617 204.061 119.658C204.061 120.698 204.264 121.618 204.672 122.417C205.098 123.216 205.672 123.839 206.394 124.285C207.135 124.731 207.977 124.954 208.922 124.954Z"/>
<path d="M226.676 127.072C225.398 127.072 224.25 126.756 223.231 126.124C222.231 125.492 221.444 124.619 220.87 123.504C220.296 122.371 220.009 121.088 220.009 119.658C220.009 118.282 220.315 117.037 220.926 115.922C221.555 114.789 222.398 113.897 223.454 113.247C224.509 112.578 225.676 112.243 226.954 112.243C228.009 112.243 228.972 112.503 229.843 113.024C230.732 113.544 231.445 114.278 231.982 115.226L232.037 112.689H234.343V126.626H232.037L231.982 124.089C231.426 125.037 230.695 125.771 229.787 126.291C228.88 126.812 227.843 127.072 226.676 127.072ZM227.287 124.954C228.25 124.954 229.093 124.731 229.815 124.285C230.537 123.839 231.102 123.216 231.509 122.417C231.935 121.618 232.148 120.698 232.148 119.658C232.148 118.617 231.935 117.697 231.509 116.898C231.102 116.099 230.537 115.476 229.815 115.03C229.093 114.585 228.25 114.362 227.287 114.362C226.343 114.362 225.5 114.585 224.759 115.03C224.037 115.476 223.463 116.099 223.037 116.898C222.63 117.697 222.426 118.617 222.426 119.658C222.426 120.698 222.63 121.618 223.037 122.417C223.463 123.216 224.037 123.839 224.759 124.285C225.5 124.731 226.343 124.954 227.287 124.954Z"/>
<path d="M244.875 127.072C243.301 127.072 242.143 126.654 241.402 125.818C240.662 124.963 240.291 123.634 240.291 121.832V114.724H237.124V112.689H240.291V108.675H242.652V112.689H247.514V114.724H242.652V121.637C242.652 122.826 242.856 123.69 243.263 124.229C243.689 124.749 244.365 125.009 245.291 125.009C246.18 125.009 247.097 124.768 248.041 124.285L248.319 126.264C247.893 126.524 247.375 126.719 246.764 126.849C246.171 126.998 245.541 127.072 244.875 127.072Z"/>
<path d="M257.086 127.072C255.808 127.072 254.66 126.756 253.641 126.124C252.641 125.492 251.854 124.619 251.28 123.504C250.706 122.371 250.419 121.088 250.419 119.658C250.419 118.282 250.725 117.037 251.336 115.922C251.965 114.789 252.808 113.897 253.864 113.247C254.919 112.578 256.086 112.243 257.364 112.243C258.419 112.243 259.382 112.503 260.253 113.024C261.142 113.544 261.855 114.278 262.392 115.226L262.447 112.689H264.753V126.626H262.447L262.392 124.089C261.836 125.037 261.105 125.771 260.197 126.291C259.29 126.812 258.253 127.072 257.086 127.072ZM257.697 124.954C258.66 124.954 259.503 124.731 260.225 124.285C260.947 123.839 261.512 123.216 261.919 122.417C262.345 121.618 262.558 120.698 262.558 119.658C262.558 118.617 262.345 117.697 261.919 116.898C261.512 116.099 260.947 115.476 260.225 115.03C259.503 114.585 258.66 114.362 257.697 114.362C256.753 114.362 255.91 114.585 255.169 115.03C254.447 115.476 253.873 116.099 253.447 116.898C253.04 117.697 252.836 118.617 252.836 119.658C252.836 120.698 253.04 121.618 253.447 122.417C253.873 123.216 254.447 123.839 255.169 124.285C255.91 124.731 256.753 124.954 257.697 124.954Z"/>
</mask>
<path d="M123.336 109.985C122.539 109.985 121.863 109.725 121.308 109.205C120.771 108.685 120.502 108.053 120.502 107.309C120.502 106.529 120.771 105.888 121.308 105.386C121.863 104.866 122.539 104.606 123.336 104.606C124.132 104.606 124.799 104.866 125.336 105.386C125.873 105.888 126.141 106.529 126.141 107.309C126.141 108.053 125.873 108.685 125.336 109.205C124.799 109.725 124.132 109.985 123.336 109.985ZM120.808 126.626V112.243H125.836V126.626H120.808Z" fill="#020A47"/>
<path d="M129.217 126.626V112.243H134.162L134.217 114.027C134.588 113.321 135.134 112.773 135.856 112.382C136.579 111.992 137.412 111.797 138.356 111.797C139.968 111.797 141.19 112.317 142.023 113.358C142.875 114.38 143.301 115.885 143.301 117.874V126.626H138.273V118.821C138.273 117.13 137.634 116.285 136.356 116.285C135.671 116.285 135.143 116.526 134.773 117.01C134.421 117.474 134.245 118.143 134.245 119.016V126.626H129.217Z" fill="#020A47"/>
<path d="M148.051 126.626V116.285H145.746V112.243H148.051V110.849C148.051 108.638 148.588 106.929 149.662 105.721C150.755 104.513 152.292 103.909 154.274 103.909C154.848 103.909 155.385 103.955 155.885 104.048C156.403 104.123 156.838 104.234 157.19 104.383L156.94 108.564C156.737 108.471 156.487 108.406 156.19 108.369C155.912 108.313 155.653 108.285 155.412 108.285C154.616 108.285 154.024 108.517 153.635 108.982C153.264 109.446 153.079 110.18 153.079 111.184V112.243H156.468V116.285H153.079V126.626H148.051ZM158.69 126.626V104.048H163.718V126.626H158.69Z" fill="#020A47"/>
<path d="M171.837 127.072C170.263 127.072 169.059 126.57 168.226 125.567C167.392 124.545 166.976 123.058 166.976 121.107V112.243H172.031V120.076C172.031 120.93 172.179 121.562 172.476 121.971C172.79 122.38 173.281 122.584 173.948 122.584C174.615 122.584 175.124 122.352 175.476 121.887C175.846 121.404 176.031 120.726 176.031 119.853V112.243H181.059V126.626H176.115L176.059 124.842C175.689 125.548 175.133 126.096 174.392 126.487C173.67 126.877 172.818 127.072 171.837 127.072Z" fill="#020A47"/>
<path d="M183.338 126.626L188.56 119.212L183.616 112.243H189.227L191.56 116.145L193.838 112.243H199.172L194.255 119.267L199.505 126.626H193.866L191.255 122.278L188.671 126.626H183.338Z" fill="#020A47"/>
<path d="M208.311 127.072C207.033 127.072 205.885 126.756 204.866 126.124C203.866 125.492 203.079 124.619 202.505 123.504C201.931 122.371 201.644 121.088 201.644 119.658C201.644 118.282 201.949 117.037 202.561 115.922C203.19 114.789 204.033 113.897 205.088 113.247C206.144 112.578 207.311 112.243 208.588 112.243C209.644 112.243 210.607 112.503 211.477 113.024C212.366 113.544 213.079 114.278 213.616 115.226V104.048H215.978V126.626H213.672L213.616 124.089C213.061 125.037 212.329 125.771 211.422 126.291C210.514 126.812 209.477 127.072 208.311 127.072ZM208.922 124.954C209.885 124.954 210.727 124.731 211.45 124.285C212.172 123.839 212.737 123.216 213.144 122.417C213.57 121.618 213.783 120.698 213.783 119.658C213.783 118.617 213.57 117.697 213.144 116.898C212.737 116.099 212.172 115.476 211.45 115.03C210.727 114.585 209.885 114.362 208.922 114.362C207.977 114.362 207.135 114.585 206.394 115.03C205.672 115.476 205.098 116.099 204.672 116.898C204.264 117.697 204.061 118.617 204.061 119.658C204.061 120.698 204.264 121.618 204.672 122.417C205.098 123.216 205.672 123.839 206.394 124.285C207.135 124.731 207.977 124.954 208.922 124.954Z" fill="#020A47"/>
<path d="M226.676 127.072C225.398 127.072 224.25 126.756 223.231 126.124C222.231 125.492 221.444 124.619 220.87 123.504C220.296 122.371 220.009 121.088 220.009 119.658C220.009 118.282 220.315 117.037 220.926 115.922C221.555 114.789 222.398 113.897 223.454 113.247C224.509 112.578 225.676 112.243 226.954 112.243C228.009 112.243 228.972 112.503 229.843 113.024C230.732 113.544 231.445 114.278 231.982 115.226L232.037 112.689H234.343V126.626H232.037L231.982 124.089C231.426 125.037 230.695 125.771 229.787 126.291C228.88 126.812 227.843 127.072 226.676 127.072ZM227.287 124.954C228.25 124.954 229.093 124.731 229.815 124.285C230.537 123.839 231.102 123.216 231.509 122.417C231.935 121.618 232.148 120.698 232.148 119.658C232.148 118.617 231.935 117.697 231.509 116.898C231.102 116.099 230.537 115.476 229.815 115.03C229.093 114.585 228.25 114.362 227.287 114.362C226.343 114.362 225.5 114.585 224.759 115.03C224.037 115.476 223.463 116.099 223.037 116.898C222.63 117.697 222.426 118.617 222.426 119.658C222.426 120.698 222.63 121.618 223.037 122.417C223.463 123.216 224.037 123.839 224.759 124.285C225.5 124.731 226.343 124.954 227.287 124.954Z" fill="#020A47"/>
<path d="M244.875 127.072C243.301 127.072 242.143 126.654 241.402 125.818C240.662 124.963 240.291 123.634 240.291 121.832V114.724H237.124V112.689H240.291V108.675H242.652V112.689H247.514V114.724H242.652V121.637C242.652 122.826 242.856 123.69 243.263 124.229C243.689 124.749 244.365 125.009 245.291 125.009C246.18 125.009 247.097 124.768 248.041 124.285L248.319 126.264C247.893 126.524 247.375 126.719 246.764 126.849C246.171 126.998 245.541 127.072 244.875 127.072Z" fill="#020A47"/>
<path d="M257.086 127.072C255.808 127.072 254.66 126.756 253.641 126.124C252.641 125.492 251.854 124.619 251.28 123.504C250.706 122.371 250.419 121.088 250.419 119.658C250.419 118.282 250.725 117.037 251.336 115.922C251.965 114.789 252.808 113.897 253.864 113.247C254.919 112.578 256.086 112.243 257.364 112.243C258.419 112.243 259.382 112.503 260.253 113.024C261.142 113.544 261.855 114.278 262.392 115.226L262.447 112.689H264.753V126.626H262.447L262.392 124.089C261.836 125.037 261.105 125.771 260.197 126.291C259.29 126.812 258.253 127.072 257.086 127.072ZM257.697 124.954C258.66 124.954 259.503 124.731 260.225 124.285C260.947 123.839 261.512 123.216 261.919 122.417C262.345 121.618 262.558 120.698 262.558 119.658C262.558 118.617 262.345 117.697 261.919 116.898C261.512 116.099 260.947 115.476 260.225 115.03C259.503 114.585 258.66 114.362 257.697 114.362C256.753 114.362 255.91 114.585 255.169 115.03C254.447 115.476 253.873 116.099 253.447 116.898C253.04 117.697 252.836 118.617 252.836 119.658C252.836 120.698 253.04 121.618 253.447 122.417C253.873 123.216 254.447 123.839 255.169 124.285C255.91 124.731 256.753 124.954 257.697 124.954Z" fill="#020A47"/>
<path d="M123.336 109.985C122.539 109.985 121.863 109.725 121.308 109.205C120.771 108.685 120.502 108.053 120.502 107.309C120.502 106.529 120.771 105.888 121.308 105.386C121.863 104.866 122.539 104.606 123.336 104.606C124.132 104.606 124.799 104.866 125.336 105.386C125.873 105.888 126.141 106.529 126.141 107.309C126.141 108.053 125.873 108.685 125.336 109.205C124.799 109.725 124.132 109.985 123.336 109.985ZM120.808 126.626V112.243H125.836V126.626H120.808Z" stroke="black" stroke-width="2" mask="url(#path-4-outside-1_1_95)"/>
<path d="M129.217 126.626V112.243H134.162L134.217 114.027C134.588 113.321 135.134 112.773 135.856 112.382C136.579 111.992 137.412 111.797 138.356 111.797C139.968 111.797 141.19 112.317 142.023 113.358C142.875 114.38 143.301 115.885 143.301 117.874V126.626H138.273V118.821C138.273 117.13 137.634 116.285 136.356 116.285C135.671 116.285 135.143 116.526 134.773 117.01C134.421 117.474 134.245 118.143 134.245 119.016V126.626H129.217Z" stroke="black" stroke-width="2" mask="url(#path-4-outside-1_1_95)"/>
<path d="M148.051 126.626V116.285H145.746V112.243H148.051V110.849C148.051 108.638 148.588 106.929 149.662 105.721C150.755 104.513 152.292 103.909 154.274 103.909C154.848 103.909 155.385 103.955 155.885 104.048C156.403 104.123 156.838 104.234 157.19 104.383L156.94 108.564C156.737 108.471 156.487 108.406 156.19 108.369C155.912 108.313 155.653 108.285 155.412 108.285C154.616 108.285 154.024 108.517 153.635 108.982C153.264 109.446 153.079 110.18 153.079 111.184V112.243H156.468V116.285H153.079V126.626H148.051ZM158.69 126.626V104.048H163.718V126.626H158.69Z" stroke="black" stroke-width="2" mask="url(#path-4-outside-1_1_95)"/>
<path d="M171.837 127.072C170.263 127.072 169.059 126.57 168.226 125.567C167.392 124.545 166.976 123.058 166.976 121.107V112.243H172.031V120.076C172.031 120.93 172.179 121.562 172.476 121.971C172.79 122.38 173.281 122.584 173.948 122.584C174.615 122.584 175.124 122.352 175.476 121.887C175.846 121.404 176.031 120.726 176.031 119.853V112.243H181.059V126.626H176.115L176.059 124.842C175.689 125.548 175.133 126.096 174.392 126.487C173.67 126.877 172.818 127.072 171.837 127.072Z" stroke="black" stroke-width="2" mask="url(#path-4-outside-1_1_95)"/>
<path d="M183.338 126.626L188.56 119.212L183.616 112.243H189.227L191.56 116.145L193.838 112.243H199.172L194.255 119.267L199.505 126.626H193.866L191.255 122.278L188.671 126.626H183.338Z" stroke="black" stroke-width="2" mask="url(#path-4-outside-1_1_95)"/>
<path d="M208.311 127.072C207.033 127.072 205.885 126.756 204.866 126.124C203.866 125.492 203.079 124.619 202.505 123.504C201.931 122.371 201.644 121.088 201.644 119.658C201.644 118.282 201.949 117.037 202.561 115.922C203.19 114.789 204.033 113.897 205.088 113.247C206.144 112.578 207.311 112.243 208.588 112.243C209.644 112.243 210.607 112.503 211.477 113.024C212.366 113.544 213.079 114.278 213.616 115.226V104.048H215.978V126.626H213.672L213.616 124.089C213.061 125.037 212.329 125.771 211.422 126.291C210.514 126.812 209.477 127.072 208.311 127.072ZM208.922 124.954C209.885 124.954 210.727 124.731 211.45 124.285C212.172 123.839 212.737 123.216 213.144 122.417C213.57 121.618 213.783 120.698 213.783 119.658C213.783 118.617 213.57 117.697 213.144 116.898C212.737 116.099 212.172 115.476 211.45 115.03C210.727 114.585 209.885 114.362 208.922 114.362C207.977 114.362 207.135 114.585 206.394 115.03C205.672 115.476 205.098 116.099 204.672 116.898C204.264 117.697 204.061 118.617 204.061 119.658C204.061 120.698 204.264 121.618 204.672 122.417C205.098 123.216 205.672 123.839 206.394 124.285C207.135 124.731 207.977 124.954 208.922 124.954Z" stroke="black" stroke-width="2" mask="url(#path-4-outside-1_1_95)"/>
<path d="M226.676 127.072C225.398 127.072 224.25 126.756 223.231 126.124C222.231 125.492 221.444 124.619 220.87 123.504C220.296 122.371 220.009 121.088 220.009 119.658C220.009 118.282 220.315 117.037 220.926 115.922C221.555 114.789 222.398 113.897 223.454 113.247C224.509 112.578 225.676 112.243 226.954 112.243C228.009 112.243 228.972 112.503 229.843 113.024C230.732 113.544 231.445 114.278 231.982 115.226L232.037 112.689H234.343V126.626H232.037L231.982 124.089C231.426 125.037 230.695 125.771 229.787 126.291C228.88 126.812 227.843 127.072 226.676 127.072ZM227.287 124.954C228.25 124.954 229.093 124.731 229.815 124.285C230.537 123.839 231.102 123.216 231.509 122.417C231.935 121.618 232.148 120.698 232.148 119.658C232.148 118.617 231.935 117.697 231.509 116.898C231.102 116.099 230.537 115.476 229.815 115.03C229.093 114.585 228.25 114.362 227.287 114.362C226.343 114.362 225.5 114.585 224.759 115.03C224.037 115.476 223.463 116.099 223.037 116.898C222.63 117.697 222.426 118.617 222.426 119.658C222.426 120.698 222.63 121.618 223.037 122.417C223.463 123.216 224.037 123.839 224.759 124.285C225.5 124.731 226.343 124.954 227.287 124.954Z" stroke="black" stroke-width="2" mask="url(#path-4-outside-1_1_95)"/>
<path d="M244.875 127.072C243.301 127.072 242.143 126.654 241.402 125.818C240.662 124.963 240.291 123.634 240.291 121.832V114.724H237.124V112.689H240.291V108.675H242.652V112.689H247.514V114.724H242.652V121.637C242.652 122.826 242.856 123.69 243.263 124.229C243.689 124.749 244.365 125.009 245.291 125.009C246.18 125.009 247.097 124.768 248.041 124.285L248.319 126.264C247.893 126.524 247.375 126.719 246.764 126.849C246.171 126.998 245.541 127.072 244.875 127.072Z" stroke="black" stroke-width="2" mask="url(#path-4-outside-1_1_95)"/>
<path d="M257.086 127.072C255.808 127.072 254.66 126.756 253.641 126.124C252.641 125.492 251.854 124.619 251.28 123.504C250.706 122.371 250.419 121.088 250.419 119.658C250.419 118.282 250.725 117.037 251.336 115.922C251.965 114.789 252.808 113.897 253.864 113.247C254.919 112.578 256.086 112.243 257.364 112.243C258.419 112.243 259.382 112.503 260.253 113.024C261.142 113.544 261.855 114.278 262.392 115.226L262.447 112.689H264.753V126.626H262.447L262.392 124.089C261.836 125.037 261.105 125.771 260.197 126.291C259.29 126.812 258.253 127.072 257.086 127.072ZM257.697 124.954C258.66 124.954 259.503 124.731 260.225 124.285C260.947 123.839 261.512 123.216 261.919 122.417C262.345 121.618 262.558 120.698 262.558 119.658C262.558 118.617 262.345 117.697 261.919 116.898C261.512 116.099 260.947 115.476 260.225 115.03C259.503 114.585 258.66 114.362 257.697 114.362C256.753 114.362 255.91 114.585 255.169 115.03C254.447 115.476 253.873 116.099 253.447 116.898C253.04 117.697 252.836 118.617 252.836 119.658C252.836 120.698 253.04 121.618 253.447 122.417C253.873 123.216 254.447 123.839 255.169 124.285C255.91 124.731 256.753 124.954 257.697 124.954Z" stroke="black" stroke-width="2" mask="url(#path-4-outside-1_1_95)"/>
<path d="M99.2367 123.129L99.2366 123.129L99.2273 123.131C99.1271 123.156 99.0211 123.14 98.9326 123.087C98.8452 123.035 98.7818 122.95 98.7559 122.852L95.5748 109.015L95.5749 109.015L95.5724 109.005C95.5475 108.906 95.5628 108.801 95.6151 108.713C95.6665 108.627 95.7495 108.564 95.8464 108.538L103.341 106.819L103.341 106.819L103.35 106.816C103.45 106.791 103.556 106.807 103.645 106.86C103.732 106.913 103.796 106.997 103.822 107.095L107.012 120.933L107.016 120.948L107.02 120.963C107.034 121.009 107.038 121.058 107.032 121.106C107.026 121.155 107.01 121.201 106.985 121.243C106.96 121.284 106.926 121.32 106.887 121.348C106.847 121.376 106.802 121.396 106.754 121.405L106.754 121.405L106.742 121.408L99.2367 123.129ZM97.1361 131.143L98.7455 125.964C98.8041 125.793 98.9043 125.64 99.0371 125.518C99.1703 125.395 99.332 125.308 99.5075 125.264L104.78 124.066L97.1361 131.143ZM80.3083 128.943L80.3063 128.943C80.2048 128.912 80.1196 128.842 80.0693 128.749L79.6405 128.98L80.0693 128.749C80.0195 128.656 80.0079 128.548 80.0369 128.447L82.3035 121.157L82.3036 121.157L82.3059 121.149C82.3362 121.046 82.4062 120.958 82.5007 120.906C82.5941 120.855 82.7038 120.842 82.8065 120.87L96.4274 125.039L96.4274 125.04L96.436 125.042C96.4869 125.057 96.5344 125.081 96.5758 125.114C96.6172 125.147 96.6516 125.188 96.6772 125.234C96.7028 125.28 96.719 125.331 96.7249 125.384C96.7306 125.435 96.7264 125.487 96.7126 125.536L94.4349 132.828C94.3939 132.935 94.317 133.025 94.2171 133.083C94.1215 133.137 94.0106 133.159 93.9019 133.144L80.3083 128.943ZM80.1296 119.274C80.2464 119.418 80.3286 119.587 80.3698 119.768C80.411 119.948 80.4102 120.136 80.3675 120.316L78.7787 125.428L76.4714 115.326L80.1296 119.274ZM86.7541 101.897L86.7541 101.897L86.7615 101.89C86.7981 101.855 86.8413 101.827 86.8887 101.809C86.936 101.791 86.9866 101.782 87.0374 101.783C87.0882 101.784 87.1382 101.795 87.1846 101.816C87.2305 101.837 87.2719 101.866 87.3064 101.902C87.3068 101.903 87.3072 101.903 87.3076 101.904L92.5141 107.542L92.5146 107.542C92.5823 107.615 92.6183 107.712 92.6148 107.812C92.6113 107.911 92.5689 108.005 92.4968 108.073C92.4965 108.073 92.4962 108.073 92.4959 108.074L82.0646 117.747C82.0645 117.747 82.0645 117.747 82.0644 117.747C81.989 117.816 81.8891 117.853 81.7865 117.85C81.6845 117.846 81.5879 117.803 81.5176 117.729C81.5172 117.729 81.5167 117.728 81.5163 117.728L76.303 112.089C76.3027 112.089 76.3024 112.089 76.3021 112.088C76.235 112.014 76.1994 111.917 76.2029 111.817C76.2063 111.718 76.2483 111.624 76.3197 111.555L86.7541 101.897ZM96.6644 122.894L96.6643 122.895L96.6674 122.907C96.6692 122.914 96.6707 122.92 96.6721 122.926C96.6625 122.924 96.6521 122.922 96.6409 122.919L83.7992 118.968L83.7919 118.965L83.7845 118.963C83.7806 118.962 83.7769 118.961 83.7733 118.96C83.7773 118.956 83.7815 118.951 83.7861 118.947L93.611 109.821L93.6178 109.815L93.6243 109.808C93.6279 109.805 93.6314 109.801 93.6347 109.798C93.6392 109.81 93.6438 109.823 93.6483 109.838L96.6644 122.894ZM100.585 105.374L95.2914 106.575C95.109 106.611 94.9205 106.604 94.7414 106.554C94.5659 106.504 94.4044 106.415 94.2696 106.292L90.5666 102.309L100.585 105.374Z" fill="#020A47" stroke="black"/>
<path d="M272.55 108.53C272.522 108.578 272.492 108.625 272.461 108.67L272.438 108.632L271.867 107.719C271.942 107.643 272.008 107.558 272.065 107.463L272.065 107.463L272.072 107.451C272.214 107.198 272.284 106.922 272.284 106.631C272.284 106.173 272.116 105.767 271.758 105.475C271.416 105.187 270.967 105.081 270.487 105.081H269.783C270.015 105.003 270.266 104.964 270.536 104.964C270.991 104.964 271.375 105.07 271.705 105.269L271.705 105.27L271.71 105.272C272.061 105.479 272.339 105.761 272.549 106.125L272.549 106.125L272.552 106.13C272.754 106.474 272.86 106.866 272.86 107.321C272.86 107.774 272.755 108.174 272.55 108.53ZM270.461 108.434L270.896 109.155L271.042 109.397H271.324H271.663C271.343 109.581 270.972 109.678 270.536 109.678C270.115 109.678 269.743 109.582 269.41 109.397H269.961H270.461V108.897V108.434ZM268.87 108.897V108.987C268.738 108.851 268.622 108.7 268.522 108.53C268.317 108.174 268.212 107.774 268.212 107.321C268.212 106.866 268.318 106.474 268.52 106.13L268.52 106.13L268.523 106.125C268.623 105.951 268.739 105.796 268.87 105.659V108.897ZM267.1 105.312L267.517 105.556L267.1 105.312C266.746 105.919 266.572 106.592 266.572 107.321C266.572 108.049 266.746 108.723 267.1 109.329C267.45 109.929 267.927 110.407 268.527 110.757C269.134 111.111 269.807 111.285 270.536 111.285C271.273 111.285 271.948 111.112 272.547 110.756C273.145 110.406 273.623 109.929 273.972 109.329C274.326 108.723 274.5 108.049 274.5 107.321C274.5 106.592 274.326 105.919 273.972 105.312C273.623 104.713 273.146 104.235 272.547 103.886C271.948 103.529 271.273 103.357 270.536 103.357C269.807 103.357 269.134 103.531 268.527 103.884C267.927 104.234 267.45 104.712 267.1 105.312ZM270.461 106.673V106.606C270.54 106.607 270.597 106.615 270.636 106.625C270.645 106.627 270.653 106.629 270.66 106.631C270.66 106.639 270.66 106.646 270.659 106.653C270.659 106.653 270.659 106.653 270.658 106.653C270.616 106.662 270.552 106.671 270.461 106.673Z" stroke="black"/>
</svg>
