<svg width="289" height="45" viewBox="0 0 289 45" fill="none" xmlns="http://www.w3.org/2000/svg">
<path d="M71.9628 35.3641C69.8729 35.3641 68.0599 34.9613 66.524 34.1555C64.988 33.3498 63.792 32.2167 62.9359 30.7562C62.1049 29.2706 61.6895 27.5332 61.6895 25.544C61.6895 23.5548 62.1175 21.8048 62.9736 20.294C63.8297 18.7832 65.0258 17.6124 66.5617 16.7814C68.0977 15.9253 69.8855 15.4973 71.925 15.4973C72.9071 15.4973 73.8891 15.6232 74.8711 15.875C75.8531 16.1268 76.7344 16.4667 77.515 16.8948L77.0617 19.6519C76.3567 19.2742 75.5258 18.9721 74.5689 18.7455C73.6121 18.4937 72.7308 18.3678 71.925 18.3678C69.8351 18.3678 68.1481 19.0099 66.8639 20.294C65.6049 21.553 64.9754 23.2526 64.9754 25.3929C64.9754 27.6088 65.6175 29.3462 66.9017 30.6052C68.1858 31.8641 69.9358 32.4936 72.1517 32.4936C72.9826 32.4936 73.8261 32.3929 74.6822 32.1915C75.5635 31.99 76.5078 31.6753 77.515 31.2472L77.8927 33.9289C77.0869 34.3821 76.1553 34.7346 75.0977 34.9864C74.0653 35.2382 73.0204 35.3641 71.9628 35.3641Z" fill="#020A47"/>
<path d="M83.3716 34.8731V4.27967H86.5821V18.9721C87.136 17.839 87.9543 16.9577 89.0371 16.3282C90.1198 15.6987 91.3536 15.384 92.7385 15.384C94.9795 15.384 96.7043 16.089 97.913 17.4991C99.1216 18.884 99.7259 20.8732 99.7259 23.4667V34.8731H96.5155V24.0332C96.5155 20.1555 95.0047 18.2167 91.9831 18.2167C90.2961 18.2167 88.9741 18.7706 88.0173 19.8786C87.0605 20.9865 86.5821 22.5098 86.5821 24.4487V34.8731H83.3716Z" fill="#020A47"/>
<path d="M106.424 34.8731V15.9883H109.446L109.484 19.9163C110.013 18.607 110.781 17.5872 111.788 16.857C112.795 16.1016 113.941 15.7239 115.225 15.7239C115.602 15.7239 116.005 15.7617 116.433 15.8372C116.887 15.9127 117.227 16.0135 117.453 16.1394L117.113 19.1609C116.786 19.035 116.421 18.9343 116.018 18.8588C115.615 18.7581 115.225 18.7077 114.847 18.7077C113.236 18.7077 111.964 19.312 111.032 20.5206C110.101 21.7293 109.635 23.4163 109.635 25.5818V34.8731H106.424Z" fill="#020A47"/>
<path d="M130.084 35.4774C128.195 35.4774 126.508 35.0368 125.023 34.1555C123.537 33.2742 122.354 32.0782 121.472 30.5674C120.616 29.0566 120.188 27.3444 120.188 25.4307C120.188 23.5422 120.629 21.8426 121.51 20.3318C122.391 18.821 123.575 17.625 125.061 16.7437C126.571 15.8372 128.246 15.384 130.084 15.384C131.972 15.384 133.659 15.8246 135.145 16.7059C136.656 17.5872 137.839 18.7832 138.695 20.294C139.552 21.8048 139.98 23.517 139.98 25.4307C139.98 27.294 139.539 28.9936 138.658 30.5296C137.776 32.0404 136.58 33.249 135.069 34.1555C133.584 35.0368 131.922 35.4774 130.084 35.4774ZM130.084 32.6069C131.393 32.6069 132.539 32.3048 133.521 31.7005C134.503 31.0962 135.271 30.2526 135.825 29.1699C136.404 28.0872 136.694 26.8408 136.694 25.4307C136.694 24.0206 136.404 22.7742 135.825 21.6915C135.271 20.6088 134.503 19.7652 133.521 19.1609C132.539 18.5566 131.393 18.2545 130.084 18.2545C128.8 18.2545 127.654 18.5566 126.647 19.1609C125.665 19.7652 124.884 20.6088 124.305 21.6915C123.751 22.7742 123.474 24.0206 123.474 25.4307C123.474 26.8408 123.751 28.0872 124.305 29.1699C124.884 30.2526 125.665 31.0962 126.647 31.7005C127.654 32.3048 128.8 32.6069 130.084 32.6069Z" fill="#020A47"/>
<path d="M145.448 34.8731V15.9883H148.47L148.508 19.2365C149.036 18.0278 149.855 17.0836 150.963 16.4037C152.096 15.7239 153.38 15.384 154.815 15.384C157.056 15.384 158.781 16.089 159.99 17.4991C161.198 18.884 161.802 20.8732 161.802 23.4667V34.8731H158.592V24.0332C158.592 20.1555 157.081 18.2167 154.06 18.2167C152.373 18.2167 151.051 18.7706 150.094 19.8786C149.137 20.9865 148.659 22.5098 148.659 24.4487V34.8731H145.448Z" fill="#020A47"/>
<path d="M177.075 35.4774C175.186 35.4774 173.499 35.0368 172.014 34.1555C170.528 33.2742 169.345 32.0782 168.463 30.5674C167.607 29.0566 167.179 27.3444 167.179 25.4307C167.179 23.5422 167.62 21.8426 168.501 20.3318C169.382 18.821 170.566 17.625 172.051 16.7437C173.562 15.8372 175.237 15.384 177.075 15.384C178.963 15.384 180.65 15.8246 182.136 16.7059C183.647 17.5872 184.83 18.7832 185.686 20.294C186.542 21.8048 186.97 23.517 186.97 25.4307C186.97 27.294 186.53 28.9936 185.648 30.5296C184.767 32.0404 183.571 33.249 182.06 34.1555C180.575 35.0368 178.913 35.4774 177.075 35.4774ZM177.075 32.6069C178.384 32.6069 179.53 32.3048 180.512 31.7005C181.494 31.0962 182.262 30.2526 182.816 29.1699C183.395 28.0872 183.684 26.8408 183.684 25.4307C183.684 24.0206 183.395 22.7742 182.816 21.6915C182.262 20.6088 181.494 19.7652 180.512 19.1609C179.53 18.5566 178.384 18.2545 177.075 18.2545C175.791 18.2545 174.645 18.5566 173.638 19.1609C172.656 19.7652 171.875 20.6088 171.296 21.6915C170.742 22.7742 170.465 24.0206 170.465 25.4307C170.465 26.8408 170.742 28.0872 171.296 29.1699C171.875 30.2526 172.656 31.0962 173.638 31.7005C174.645 32.3048 175.791 32.6069 177.075 32.6069Z" fill="#020A47"/>
<path d="M200.517 44.4666C199.132 44.4666 197.773 44.303 196.438 43.9756C195.129 43.6483 194.134 43.2454 193.454 42.767L193.87 39.8965C194.751 40.4505 195.771 40.8785 196.929 41.1807C198.113 41.4828 199.309 41.6339 200.517 41.6339C202.909 41.6339 204.685 41.017 205.843 39.7832C207.001 38.5494 207.58 36.6609 207.58 34.1177V31.4361C206.825 32.7203 205.83 33.7149 204.596 34.4199C203.363 35.1249 201.953 35.4774 200.366 35.4774C198.629 35.4774 197.068 35.0494 195.683 34.1933C194.323 33.3372 193.253 32.1537 192.472 30.6429C191.692 29.107 191.301 27.3696 191.301 25.4307C191.301 23.5674 191.717 21.8804 192.548 20.3696C193.404 18.8336 194.55 17.625 195.985 16.7437C197.42 15.8372 199.007 15.384 200.744 15.384C202.179 15.384 203.489 15.7365 204.672 16.4415C205.881 17.1466 206.85 18.1412 207.58 19.4253L207.656 15.9883H210.791V33.7778C210.791 40.9037 207.366 44.4666 200.517 44.4666ZM201.197 32.6069C202.507 32.6069 203.652 32.3048 204.634 31.7005C205.616 31.0962 206.384 30.2526 206.938 29.1699C207.517 28.0872 207.807 26.8408 207.807 25.4307C207.807 24.0206 207.517 22.7742 206.938 21.6915C206.384 20.6088 205.616 19.7652 204.634 19.1609C203.652 18.5566 202.507 18.2545 201.197 18.2545C199.913 18.2545 198.767 18.5566 197.76 19.1609C196.778 19.7652 195.998 20.6088 195.418 21.6915C194.864 22.7742 194.587 24.0206 194.587 25.4307C194.587 26.8408 194.864 28.0872 195.418 29.1699C195.998 30.2526 196.778 31.0962 197.76 31.7005C198.767 32.3048 199.913 32.6069 201.197 32.6069Z" fill="#020A47"/>
<path d="M217.594 34.8731V15.9883H220.616L220.654 19.9163C221.182 18.607 221.95 17.5872 222.958 16.857C223.965 16.1016 225.11 15.7239 226.395 15.7239C226.772 15.7239 227.175 15.7617 227.603 15.8372C228.056 15.9127 228.396 16.0135 228.623 16.1394L228.283 19.1609C227.956 19.035 227.591 18.9343 227.188 18.8588C226.785 18.7581 226.395 18.7077 226.017 18.7077C224.405 18.7077 223.134 19.312 222.202 20.5206C221.27 21.7293 220.805 23.4163 220.805 25.5818V34.8731H217.594Z" fill="#020A47"/>
<path d="M240.423 35.4774C238.685 35.4774 237.124 35.0494 235.739 34.1933C234.38 33.3372 233.309 32.1537 232.529 30.6429C231.748 29.107 231.358 27.3696 231.358 25.4307C231.358 23.5674 231.774 21.8804 232.604 20.3696C233.461 18.8336 234.606 17.625 236.041 16.7437C237.477 15.8372 239.063 15.384 240.8 15.384C242.236 15.384 243.545 15.7365 244.729 16.4415C245.937 17.1466 246.907 18.1412 247.637 19.4253L247.712 15.9883H250.847V34.8731H247.712L247.637 31.4361C246.881 32.7203 245.887 33.7149 244.653 34.4199C243.419 35.1249 242.009 35.4774 240.423 35.4774ZM241.254 32.6069C242.563 32.6069 243.709 32.3048 244.691 31.7005C245.673 31.0962 246.441 30.2526 246.995 29.1699C247.574 28.0872 247.863 26.8408 247.863 25.4307C247.863 24.0206 247.574 22.7742 246.995 21.6915C246.441 20.6088 245.673 19.7652 244.691 19.1609C243.709 18.5566 242.563 18.2545 241.254 18.2545C239.97 18.2545 238.824 18.5566 237.817 19.1609C236.835 19.7652 236.054 20.6088 235.475 21.6915C234.921 22.7742 234.644 24.0206 234.644 25.4307C234.644 26.8408 234.921 28.0872 235.475 29.1699C236.054 30.2526 236.835 31.0962 237.817 31.7005C238.824 32.3048 239.97 32.6069 241.254 32.6069Z" fill="#020A47"/>
<path d="M258.897 34.8731V18.7455H255.007V15.9883H258.897V12.9667C258.897 10.0458 259.539 7.84261 260.823 6.357C262.108 4.84622 263.971 4.09082 266.413 4.09082C267.144 4.09082 267.849 4.16636 268.528 4.31744C269.208 4.44334 269.813 4.63219 270.341 4.88399L270.001 7.56563C268.868 7.13758 267.76 6.92355 266.678 6.92355C265.066 6.92355 263.895 7.42715 263.165 8.43434C262.46 9.44153 262.108 11.0908 262.108 13.3822V15.9883H268V18.7455H262.108V34.8731H258.897Z" fill="#020A47"/>
<path fill-rule="evenodd" clip-rule="evenodd" d="M32.3034 30.5103L42.5565 28.1595C42.7145 28.1276 42.8641 28.063 42.9958 27.9701C43.1274 27.8771 43.2383 27.7577 43.3213 27.6196C43.4043 27.4814 43.4576 27.3275 43.4778 27.1676C43.498 27.0077 43.4847 26.8453 43.4387 26.6908L39.0783 7.77903C38.9996 7.46695 38.8003 7.19883 38.5241 7.03347C38.2479 6.86811 37.9174 6.81902 37.6051 6.89696L27.3562 9.24775C27.046 9.32734 26.7799 9.52654 26.6162 9.80178C26.4524 10.077 26.4043 10.4059 26.4825 10.7165L30.8302 29.6283C30.9089 29.9403 31.1082 30.2085 31.3844 30.3738C31.6606 30.5392 31.9911 30.5883 32.3034 30.5103Z" fill="#020A47"/>
<path fill-rule="evenodd" clip-rule="evenodd" d="M28.7703 42.1967L41.2015 30.6875C41.67 30.2149 41.5518 29.9236 40.906 30.1558L32.3624 32.0972C32.0091 32.1845 31.6835 32.3594 31.4157 32.6058C31.1479 32.8521 30.9465 33.162 30.8302 33.5068L28.2384 41.8464C28.0611 42.4921 28.2975 42.6694 28.7703 42.1967Z" fill="#020A47"/>
<path fill-rule="evenodd" clip-rule="evenodd" d="M6.09025 38.4405L24.7054 44.1929C25.0234 44.2522 25.3522 44.1964 25.6329 44.0356C25.9136 43.8748 26.1279 43.6194 26.2377 43.3151L29.3571 33.3295C29.4022 33.1738 29.4162 33.0107 29.3982 32.8495C29.3802 32.6884 29.3305 32.5324 29.2521 32.3904C29.1737 32.2485 29.068 32.1234 28.9411 32.0224C28.8143 31.9214 28.6687 31.8464 28.5128 31.8017L9.8977 26.1041C9.58257 26.014 9.24458 26.0522 8.95751 26.2103C8.67043 26.3685 8.45759 26.6337 8.36543 26.9482L5.26713 36.9127C5.1751 37.2244 5.20997 37.5598 5.36413 37.846C5.5183 38.1321 5.77927 38.3458 6.09025 38.4405Z" fill="#020A47"/>
<path fill-rule="evenodd" clip-rule="evenodd" d="M0.0792906 18.0009L3.85297 34.5239C3.97116 35.1696 4.27508 35.1696 4.43971 34.5239L7.03148 26.1843C7.1198 25.829 7.12341 25.4579 7.04203 25.1009C6.96064 24.7439 6.79654 24.4109 6.56293 24.129L0.611152 17.7055C0.197482 17.2201 -0.11066 17.3552 0.0792906 18.0009Z" fill="#020A47"/>
<path fill-rule="evenodd" clip-rule="evenodd" d="M14.6338 0.338335L0.374854 13.5357C0.146094 13.7534 0.0117872 14.0521 0.000739528 14.3677C-0.0103081 14.6833 0.102784 14.9906 0.315758 15.2238L7.44523 22.9346C7.66493 23.1676 7.96774 23.3045 8.28786 23.3156C8.60797 23.3267 8.91951 23.211 9.15479 22.9937L23.4095 9.77524C23.6403 9.55864 23.776 9.25959 23.787 8.94333C23.7981 8.62707 23.6836 8.31927 23.4686 8.08706L16.3518 0.380539C16.2423 0.264041 16.1108 0.170444 15.9649 0.105182C15.8189 0.0399191 15.6614 0.00429055 15.5016 0.000364196C15.3418 -0.00356216 15.1828 0.024292 15.0338 0.0823097C14.8848 0.140327 14.7489 0.227353 14.6338 0.338335Z" fill="#020A47"/>
<path fill-rule="evenodd" clip-rule="evenodd" d="M28.4158 30.2149C29.0659 30.3922 29.4753 30.0419 29.3022 29.3708L25.1782 11.5183C25.0009 10.8726 24.4691 10.6954 24.0005 11.1638L10.5689 23.6394C10.0962 24.1079 10.2143 24.6355 10.8602 24.8127L28.4158 30.2149Z" fill="#020A47"/>
<path fill-rule="evenodd" clip-rule="evenodd" d="M35.427 5.3143L19.1672 0.338402C18.5214 0.161143 18.4032 0.397488 18.9309 0.925043L24.8826 7.32745C25.1496 7.57699 25.4725 7.75894 25.8243 7.85807C26.1761 7.9572 26.5465 7.97062 26.9046 7.89721L35.4481 5.96003C36.077 5.78277 36.077 5.48734 35.427 5.3143Z" fill="#020A47"/>
<path d="M279.623 9.80316V5.78616H278.128V4.99316H282.028V5.78616H280.546V9.80316H279.623ZM282.86 9.80316L283.107 4.99316H284.004L285.473 8.04816L286.968 4.99316H287.865L288.112 9.80316H287.293L287.137 6.24116L285.811 8.97116H285.161L283.822 6.21516L283.679 9.80316H282.86Z" fill="#020A47"/>
</svg>
