<svg width="433" height="55" viewBox="0 0 433 55" fill="none" xmlns="http://www.w3.org/2000/svg">
<path d="M65.3531 20.4515C64.2703 20.4515 63.3513 20.099 62.5959 19.3939C61.8657 18.6889 61.5005 17.8328 61.5005 16.8256C61.5005 15.768 61.8657 14.8993 62.5959 14.2195C63.3513 13.5145 64.2703 13.1619 65.3531 13.1619C66.4358 13.1619 67.3423 13.5145 68.0725 14.2195C68.8027 14.8993 69.1678 15.768 69.1678 16.8256C69.1678 17.8328 68.8027 18.6889 68.0725 19.3939C67.3423 20.099 66.4358 20.4515 65.3531 20.4515ZM61.916 43V23.5108H68.7523V43H61.916ZM73.3502 43V23.5108H80.0732L80.1487 25.9281C80.6523 24.9713 81.3951 24.2285 82.3772 23.6997C83.3592 23.1709 84.4923 22.9065 85.7764 22.9065C87.9671 22.9065 89.6289 23.6116 90.762 25.0216C91.9203 26.4065 92.4994 28.4461 92.4994 31.1403V43H85.6631V32.4245C85.6631 30.1331 84.7944 28.9874 83.057 28.9874C82.1254 28.9874 81.4077 29.3148 80.9041 29.9695C80.4257 30.5989 80.1865 31.5054 80.1865 32.6889V43H73.3502ZM98.9581 43V28.9874H95.8232V23.5108H98.9581V21.6223C98.9581 18.6259 99.6883 16.3094 101.149 14.6727C102.634 13.036 104.724 12.2177 107.418 12.2177C108.199 12.2177 108.929 12.2806 109.609 12.4065C110.314 12.5073 110.906 12.6583 111.384 12.8598L111.044 18.5252C110.767 18.3993 110.427 18.3112 110.025 18.2608C109.647 18.1853 109.294 18.1475 108.967 18.1475C107.884 18.1475 107.079 18.4623 106.55 19.0918C106.046 19.7213 105.794 20.7159 105.794 22.0756V23.5108H110.402V28.9874H105.794V43H98.9581ZM113.424 43V12.4065H120.26V43H113.424ZM131.299 43.6043C129.158 43.6043 127.522 42.9245 126.389 41.5648C125.256 40.1799 124.689 38.1655 124.689 35.5216V23.5108H131.563V34.1241C131.563 35.2824 131.764 36.1385 132.167 36.6925C132.595 37.2464 133.263 37.5234 134.169 37.5234C135.076 37.5234 135.768 37.2086 136.246 36.5792C136.75 35.9245 137.002 35.0054 137.002 33.822V23.5108H143.838V43H137.115L137.04 40.5827C136.536 41.5396 135.781 42.2824 134.773 42.8112C133.791 43.3399 132.633 43.6043 131.299 43.6043ZM146.936 43L154.037 32.9533L147.314 23.5108H154.943L158.116 28.7986L161.213 23.5108H168.465L161.78 33.0288L168.918 43H161.251L157.701 37.1079L154.188 43H146.936ZM180.891 43.6043C179.154 43.6043 177.593 43.1763 176.208 42.3201C174.848 41.464 173.778 40.2806 172.997 38.7698C172.217 37.2338 171.826 35.4964 171.826 33.5576C171.826 31.6943 172.242 30.0072 173.073 28.4964C173.929 26.9605 175.075 25.7518 176.51 24.8705C177.945 23.9641 179.531 23.5108 181.269 23.5108C182.704 23.5108 184.013 23.8633 185.197 24.5684C186.406 25.2734 187.375 26.268 188.105 27.5522V12.4065H191.316V43H188.181L188.105 39.563C187.35 40.8471 186.355 41.8417 185.121 42.5468C183.888 43.2518 182.477 43.6043 180.891 43.6043ZM181.722 40.7338C183.031 40.7338 184.177 40.4317 185.159 39.8273C186.141 39.223 186.909 38.3795 187.463 37.2968C188.042 36.214 188.332 34.9676 188.332 33.5576C188.332 32.1475 188.042 30.9011 187.463 29.8184C186.909 28.7356 186.141 27.8921 185.159 27.2878C184.177 26.6835 183.031 26.3813 181.722 26.3813C180.438 26.3813 179.292 26.6835 178.285 27.2878C177.303 27.8921 176.522 28.7356 175.943 29.8184C175.389 30.9011 175.112 32.1475 175.112 33.5576C175.112 34.9676 175.389 36.214 175.943 37.2968C176.522 38.3795 177.303 39.223 178.285 39.8273C179.292 40.4317 180.438 40.7338 181.722 40.7338ZM208.166 43.6043C206.68 43.6043 205.333 43.2518 204.125 42.5468C202.941 41.8417 202.009 40.8471 201.33 39.563L201.254 43H198.119V12.4065H201.33V27.5522C202.085 26.268 203.08 25.2734 204.313 24.5684C205.547 23.8633 206.957 23.5108 208.544 23.5108C210.306 23.5108 211.867 23.9389 213.227 24.795C214.587 25.6511 215.657 26.8346 216.437 28.3454C217.218 29.8561 217.608 31.5935 217.608 33.5576C217.608 35.4209 217.18 37.1205 216.324 38.6565C215.493 40.1673 214.36 41.3759 212.925 42.2824C211.515 43.1637 209.928 43.6043 208.166 43.6043ZM207.713 40.7338C209.022 40.7338 210.168 40.4317 211.15 39.8273C212.132 39.223 212.9 38.3795 213.454 37.2968C214.033 36.214 214.322 34.9676 214.322 33.5576C214.322 32.1475 214.033 30.9011 213.454 29.8184C212.9 28.7356 212.132 27.8921 211.15 27.2878C210.168 26.6835 209.022 26.3813 207.713 26.3813C206.429 26.3813 205.283 26.6835 204.276 27.2878C203.294 27.8921 202.513 28.7356 201.934 29.8184C201.38 30.9011 201.103 32.1475 201.103 33.5576C201.103 34.9676 201.38 36.214 201.934 37.2968C202.513 38.3795 203.294 39.223 204.276 39.8273C205.283 40.4317 206.429 40.7338 207.713 40.7338ZM240.714 43.6043C238.573 43.6043 236.71 43.2014 235.124 42.3957C233.563 41.5899 232.354 40.4442 231.498 38.9586C230.667 37.4479 230.251 35.6727 230.251 33.6331C230.251 31.6439 230.654 29.8939 231.46 28.3831C232.266 26.8723 233.374 25.6889 234.784 24.8328C236.194 23.9515 237.805 23.5108 239.618 23.5108C241.331 23.5108 242.816 23.9011 244.075 24.6817C245.359 25.4623 246.354 26.545 247.059 27.9299C247.789 29.3148 248.154 30.9389 248.154 32.8022C248.154 33.1295 248.142 33.4317 248.117 33.7087C248.117 33.9856 248.104 34.2752 248.079 34.5774H233.424C233.651 36.5666 234.406 38.0899 235.69 39.1475C236.974 40.205 238.699 40.7338 240.865 40.7338C243.081 40.7338 245.246 40.2176 247.361 39.1853L247.739 41.9047C246.883 42.4335 245.825 42.8489 244.566 43.1511C243.332 43.4532 242.048 43.6043 240.714 43.6043ZM239.429 26.268C237.793 26.268 236.446 26.7842 235.388 27.8166C234.331 28.8238 233.688 30.2338 233.462 32.0468H245.057C245.057 31.7698 245.032 31.5054 244.982 31.2536C244.78 29.6421 244.188 28.4083 243.206 27.5522C242.25 26.6961 240.991 26.268 239.429 26.268ZM253.999 43V24.1151H257.021L257.058 27.3633C257.587 26.1547 258.406 25.2105 259.514 24.5306C260.647 23.8508 261.931 23.5108 263.366 23.5108C265.607 23.5108 267.332 24.2159 268.54 25.6259C269.749 27.0108 270.353 29 270.353 31.5935V43H267.143V32.1601C267.143 28.2824 265.632 26.3436 262.611 26.3436C260.924 26.3436 259.602 26.8975 258.645 28.0054C257.688 29.1133 257.21 30.6367 257.21 32.5756V43H253.999ZM284.568 43.6043C282.428 43.6043 280.854 43.0378 279.847 41.9047C278.84 40.7464 278.336 38.9461 278.336 36.5036V26.8723H274.03V24.1151H278.336V18.6763H281.547V24.1151H288.156V26.8723H281.547V36.2392C281.547 37.8507 281.824 39.0216 282.377 39.7518C282.957 40.4568 283.876 40.8094 285.135 40.8094C286.343 40.8094 287.59 40.482 288.874 39.8273L289.252 42.509C288.672 42.8615 287.967 43.1259 287.136 43.3022C286.331 43.5036 285.475 43.6043 284.568 43.6043ZM302.569 43.6043C300.429 43.6043 298.565 43.2014 296.979 42.3957C295.418 41.5899 294.209 40.4442 293.353 38.9586C292.522 37.4479 292.107 35.6727 292.107 33.6331C292.107 31.6439 292.51 29.8939 293.315 28.3831C294.121 26.8723 295.229 25.6889 296.639 24.8328C298.049 23.9515 299.661 23.5108 301.474 23.5108C303.186 23.5108 304.671 23.9011 305.93 24.6817C307.215 25.4623 308.209 26.545 308.914 27.9299C309.644 29.3148 310.01 30.9389 310.01 32.8022C310.01 33.1295 309.997 33.4317 309.972 33.7087C309.972 33.9856 309.959 34.2752 309.934 34.5774H295.279C295.506 36.5666 296.261 38.0899 297.546 39.1475C298.83 40.205 300.555 40.7338 302.72 40.7338C304.936 40.7338 307.101 40.2176 309.216 39.1853L309.594 41.9047C308.738 42.4335 307.68 42.8489 306.421 43.1511C305.188 43.4532 303.903 43.6043 302.569 43.6043ZM301.285 26.268C299.648 26.268 298.301 26.7842 297.243 27.8166C296.186 28.8238 295.544 30.2338 295.317 32.0468H306.912C306.912 31.7698 306.887 31.5054 306.837 31.2536C306.635 29.6421 306.044 28.4083 305.062 27.5522C304.105 26.6961 302.846 26.268 301.285 26.268ZM315.854 43V24.1151H318.876L318.914 28.0432C319.443 26.7338 320.211 25.7141 321.218 24.9839C322.225 24.2285 323.371 23.8508 324.655 23.8508C325.032 23.8508 325.435 23.8885 325.863 23.9641C326.317 24.0396 326.657 24.1403 326.883 24.2662L326.543 27.2878C326.216 27.1619 325.851 27.0612 325.448 26.9856C325.045 26.8849 324.655 26.8346 324.277 26.8346C322.666 26.8346 321.394 27.4389 320.462 28.6475C319.531 29.8561 319.065 31.5432 319.065 33.7087V43H315.854ZM331.604 52.2536V24.1151H334.626L334.701 27.7788C335.431 26.3939 336.426 25.3364 337.685 24.6062C338.944 23.8759 340.392 23.5108 342.029 23.5108C343.791 23.5108 345.352 23.9389 346.712 24.795C348.072 25.6511 349.142 26.8346 349.922 28.3454C350.703 29.8561 351.093 31.5935 351.093 33.5576C351.093 35.4209 350.665 37.1205 349.809 38.6565C348.978 40.1673 347.845 41.3759 346.41 42.2824C345 43.1637 343.413 43.6043 341.651 43.6043C340.165 43.6043 338.831 43.2644 337.647 42.5845C336.489 41.8795 335.545 40.8849 334.815 39.6007V52.2536H331.604ZM341.198 40.7338C342.507 40.7338 343.653 40.4317 344.635 39.8273C345.617 39.223 346.385 38.3795 346.939 37.2968C347.518 36.214 347.807 34.9676 347.807 33.5576C347.807 32.1475 347.518 30.9011 346.939 29.8184C346.385 28.7356 345.617 27.8921 344.635 27.2878C343.653 26.6835 342.507 26.3813 341.198 26.3813C339.913 26.3813 338.768 26.6835 337.761 27.2878C336.779 27.8921 335.998 28.7356 335.419 29.8184C334.865 30.9011 334.588 32.1475 334.588 33.5576C334.588 34.9676 334.865 36.214 335.419 37.2968C335.998 38.3795 336.779 39.223 337.761 39.8273C338.768 40.4317 339.913 40.7338 341.198 40.7338ZM356.575 43V24.1151H359.596L359.634 28.0432C360.163 26.7338 360.931 25.7141 361.938 24.9839C362.945 24.2285 364.091 23.8508 365.375 23.8508C365.753 23.8508 366.156 23.8885 366.584 23.9641C367.037 24.0396 367.377 24.1403 367.604 24.2662L367.264 27.2878C366.936 27.1619 366.571 27.0612 366.168 26.9856C365.765 26.8849 365.375 26.8346 364.998 26.8346C363.386 26.8346 362.114 27.4389 361.183 28.6475C360.251 29.8561 359.785 31.5432 359.785 33.7087V43H356.575ZM373.911 19.054C373.281 19.054 372.753 18.84 372.325 18.4119C371.922 17.9839 371.72 17.4425 371.72 16.7878C371.72 16.1332 371.922 15.5918 372.325 15.1637C372.753 14.7357 373.281 14.5216 373.911 14.5216C374.566 14.5216 375.094 14.7357 375.497 15.1637C375.9 15.5918 376.102 16.1332 376.102 16.7878C376.102 17.4425 375.9 17.9839 375.497 18.4119C375.094 18.84 374.566 19.054 373.911 19.054ZM372.325 43V24.1151H375.535V43H372.325ZM386.89 43.6043C385.707 43.6043 384.523 43.4406 383.34 43.1133C382.182 42.786 381.25 42.3579 380.545 41.8291L381.036 38.9964C381.842 39.5755 382.773 40.0414 383.831 40.3939C384.914 40.7464 385.934 40.9227 386.89 40.9227C388.3 40.9227 389.396 40.6835 390.176 40.205C390.957 39.7014 391.347 39.0216 391.347 38.1655C391.347 37.6115 391.221 37.1583 390.969 36.8058C390.718 36.4281 390.264 36.0881 389.61 35.786C388.955 35.4586 388.011 35.1187 386.777 34.7662C384.662 34.1367 383.151 33.3813 382.245 32.5C381.338 31.6187 380.885 30.473 380.885 29.063C380.885 27.3508 381.514 26.0036 382.773 25.0216C384.058 24.0144 385.795 23.5108 387.986 23.5108C389.018 23.5108 390.063 23.6619 391.121 23.9641C392.178 24.241 393.034 24.5936 393.689 25.0216L393.16 27.741C391.549 26.7087 389.799 26.1925 387.91 26.1925C386.651 26.1925 385.682 26.4191 385.002 26.8723C384.322 27.3004 383.982 27.9173 383.982 28.7231C383.982 29.5036 384.272 30.1205 384.851 30.5738C385.43 31.027 386.5 31.4802 388.061 31.9335C390.478 32.6385 392.166 33.4443 393.122 34.3507C394.104 35.2572 394.595 36.4658 394.595 37.9766C394.595 39.6637 393.89 41.0234 392.48 42.0558C391.07 43.0881 389.207 43.6043 386.89 43.6043ZM408.833 43.6043C406.693 43.6043 404.83 43.2014 403.243 42.3957C401.682 41.5899 400.473 40.4442 399.617 38.9586C398.786 37.4479 398.371 35.6727 398.371 33.6331C398.371 31.6439 398.774 29.8939 399.58 28.3831C400.385 26.8723 401.493 25.6889 402.903 24.8328C404.313 23.9515 405.925 23.5108 407.738 23.5108C409.45 23.5108 410.936 23.9011 412.195 24.6817C413.479 25.4623 414.473 26.545 415.178 27.9299C415.909 29.3148 416.274 30.9389 416.274 32.8022C416.274 33.1295 416.261 33.4317 416.236 33.7087C416.236 33.9856 416.223 34.2752 416.198 34.5774H401.544C401.77 36.5666 402.526 38.0899 403.81 39.1475C405.094 40.205 406.819 40.7338 408.984 40.7338C411.2 40.7338 413.365 40.2176 415.481 39.1853L415.858 41.9047C415.002 42.4335 413.945 42.8489 412.686 43.1511C411.452 43.4532 410.168 43.6043 408.833 43.6043ZM407.549 26.268C405.912 26.268 404.565 26.7842 403.508 27.8166C402.45 28.8238 401.808 30.2338 401.581 32.0468H413.177C413.177 31.7698 413.151 31.5054 413.101 31.2536C412.9 29.6421 412.308 28.4083 411.326 27.5522C410.369 26.6961 409.11 26.268 407.549 26.268Z" fill="#020A47"/>
<path fill-rule="evenodd" clip-rule="evenodd" d="M32.3034 38.6372L42.5565 36.2864C42.7145 36.2544 42.8641 36.1899 42.9958 36.0969C43.1274 36.0039 43.2383 35.8846 43.3213 35.7464C43.4043 35.6082 43.4576 35.4543 43.4778 35.2944C43.498 35.1345 43.4847 34.9721 43.4387 34.8177L39.0783 15.9059C38.9996 15.5938 38.8003 15.3257 38.5241 15.1603C38.2479 14.9949 37.9174 14.9459 37.6051 15.0238L27.3562 17.3746C27.046 17.4542 26.7799 17.6534 26.6162 17.9286C26.4524 18.2038 26.4043 18.5327 26.4825 18.8433L30.8302 37.7551C30.9089 38.0672 31.1082 38.3353 31.3844 38.5006C31.6606 38.666 31.9911 38.7151 32.3034 38.6372Z" fill="#020A47"/>
<path fill-rule="evenodd" clip-rule="evenodd" d="M28.7703 50.3235L41.2015 38.8144C41.67 38.3417 41.5518 38.0505 40.906 38.2826L32.3624 40.224C32.0091 40.3113 31.6835 40.4862 31.4157 40.7326C31.1479 40.979 30.9465 41.2889 30.8302 41.6336L28.2384 49.9732C28.0611 50.6189 28.2975 50.7962 28.7703 50.3235Z" fill="#020A47"/>
<path fill-rule="evenodd" clip-rule="evenodd" d="M6.09025 46.5673L24.7054 52.3198C25.0234 52.379 25.3522 52.3232 25.6329 52.1624C25.9136 52.0016 26.1279 51.7462 26.2377 51.4419L29.3571 41.4564C29.4022 41.3006 29.4162 41.1375 29.3982 40.9764C29.3802 40.8152 29.3305 40.6592 29.2521 40.5173C29.1737 40.3753 29.068 40.2503 28.9411 40.1493C28.8143 40.0482 28.6687 39.9732 28.5128 39.9286L9.8977 34.231C9.58257 34.1408 9.24459 34.179 8.95751 34.3371C8.67043 34.4953 8.45759 34.7606 8.36543 35.075L5.26713 45.0395C5.17511 45.3512 5.20997 45.6867 5.36413 45.9728C5.5183 46.259 5.77927 46.4726 6.09025 46.5673Z" fill="#020A47"/>
<path fill-rule="evenodd" clip-rule="evenodd" d="M0.0792906 26.1277L3.85297 42.6507C3.97116 43.2965 4.27508 43.2965 4.43971 42.6507L7.03148 34.3111C7.11979 33.9558 7.12341 33.5847 7.04203 33.2277C6.96064 32.8707 6.79654 32.5378 6.56293 32.2558L0.611152 25.8323C0.197482 25.3469 -0.11066 25.482 0.0792906 26.1277Z" fill="#020A47"/>
<path fill-rule="evenodd" clip-rule="evenodd" d="M14.6338 8.46517L0.374854 21.6625C0.146094 21.8802 0.0117872 22.1789 0.000739528 22.4945C-0.0103081 22.8101 0.102784 23.1175 0.315758 23.3507L7.44523 31.0614C7.66493 31.2944 7.96774 31.4314 8.28786 31.4424C8.60797 31.4535 8.91951 31.3378 9.15479 31.1205L23.4095 17.9021C23.6403 17.6855 23.776 17.3864 23.787 17.0702C23.7981 16.7539 23.6836 16.4461 23.4686 16.2139L16.3518 8.50737C16.2423 8.39087 16.1108 8.29728 15.9649 8.23201C15.8189 8.16675 15.6614 8.13112 15.5016 8.1272C15.3418 8.12327 15.1828 8.15112 15.0338 8.20914C14.8848 8.26716 14.7489 8.35418 14.6338 8.46517Z" fill="#020A47"/>
<path fill-rule="evenodd" clip-rule="evenodd" d="M28.4158 38.3417C29.0659 38.519 29.4753 38.1687 29.3022 37.4976L25.1782 19.6452C25.0009 18.9994 24.4691 18.8222 24.0005 19.2907L10.5689 31.7663C10.0962 32.2347 10.2143 32.7623 10.8602 32.9396L28.4158 38.3417Z" fill="#020A47"/>
<path fill-rule="evenodd" clip-rule="evenodd" d="M35.427 13.4411L19.1672 8.46523C18.5214 8.28797 18.4032 8.52432 18.9309 9.05187L24.8826 15.4543C25.1496 15.7038 25.4725 15.8858 25.8243 15.9849C26.1761 16.084 26.5465 16.0975 26.9046 16.024L35.4481 14.0869C36.077 13.9096 36.077 13.6142 35.427 13.4411Z" fill="#020A47"/>
<path d="M423.623 17.93V13.913H422.128V13.12H426.028V13.913H424.546V17.93H423.623ZM426.86 17.93L427.107 13.12H428.004L429.473 16.175L430.968 13.12H431.865L432.112 17.93H431.293L431.137 14.368L429.811 17.098H429.161L427.822 14.342L427.679 17.93H426.86Z" fill="#020A47"/>
</svg>
