<?xml version="1.0" encoding="utf-8"?>
<!-- Generator: Adobe Illustrator 21.1.0, SVG Export Plug-In . SVG Version: 6.00 Build 0)  -->
<svg version="1.1" id="InfluxData_Complete_Logo" xmlns="http://www.w3.org/2000/svg" xmlns:xlink="http://www.w3.org/1999/xlink"
	 x="0px" y="0px" width="1080px" height="300px" viewBox="-265.5 171 1080 300" style="enable-background:new -265.5 171 1080 300;"
	 xml:space="preserve">
<style type="text/css">
	.st0{fill-rule:evenodd;clip-rule:evenodd;fill:#292933;}
</style>
<path class="st0" d="M465,445.6l-1.3-10.1h-17.6l-4.8,10.1h-9.6l23.3-47.5h12l7.1,47.5H465z M460.2,405.2L449.6,428h13.3
	L460.2,405.2z M504.9,411.6l-1.9,6.8c-2-0.6-4.8-1-6.5-1c-5,0-6.6,1.4-7.5,6.3l-2.1,11.8c-0.1,0.4-0.1,0.9-0.1,1.2
	c0,1.4,0.6,2.3,2.6,2.3c2.8,0,7.3-1.2,10.2-2.2l0.9,6.9c-3.1,1.5-7.5,2.6-11.8,2.6c-7.4,0-10.5-3.1-10.5-8.6c0-1.1,0.1-2.1,0.4-3.4
	l2.1-11.7c1.7-9.6,6.3-12.4,16-12.4C499.3,410.2,502.9,410.8,504.9,411.6z M516,446.3c-5.4,0-7.8-3.4-7-8.4l3.6-20.2H507l1.3-6.8
	h5.5l1.6-9l8.8-1.2l-1.8,10.2h8.8l-1.4,6.8h-8.7l-3.5,19.8c-0.2,1.2,0.1,1.8,1.4,1.8c1.7,0,4-0.8,6-1.6l1.9,5.8
	C524,445.2,520.1,446.3,516,446.3z M551.1,406.5l1.7-9.8l8.8-1.2l-1.7,9.7L551.1,406.5z M544.2,445.6l6-34.1l8.8-1.2l-6.2,35.3
	H544.2z M581.9,445.6l4.3-24.7c0.1-0.4,0.1-0.8,0.1-0.9c0-0.9-0.4-1.5-1.8-1.5c-2.3,0-7.1,2.1-10.3,4.1l-4.1,23.1h-8.6l6-34l7.4-1.3
	l-0.1,4.2c4.6-2.5,10-4.3,14-4.3c4.8,0,6.3,3.1,6.3,6.9c0,1.4-0.1,2.3-0.4,3.4l-4.4,25.1H581.9z M638.6,405.9l-7,39.7h-8.8l7-39.7
	h-13.3l1.4-7.8h35.5l-1.4,7.8H638.6z M657.4,406.5l1.7-9.8l8.8-1.2l-1.7,9.7L657.4,406.5z M650.5,445.6l6-34.1l8.8-1.2l-6.2,35.3
	H650.5z M708.5,445.6l4.3-24.7c0.1-0.4,0.1-0.8,0.1-0.9c0-0.9-0.4-1.5-1.8-1.5c-2.3,0-7.1,2.1-10.3,4.1l-4.1,23.1h-8.6l4.3-24.7
	c0.1-0.4,0.1-0.8,0.1-0.9c0-0.9-0.4-1.5-1.8-1.5c-2.3,0-7.1,2.1-10.3,4.1l-4.1,23.1h-8.6l6-34l7.4-1.3l-0.1,4.2
	c4.6-2.5,10-4.3,14-4.3c3.6,0,5.4,1.9,6.1,4.4c4.9-2.9,10.3-4.4,14.3-4.4c4.8,0,6.3,3.1,6.3,6.9c0,1.2-0.1,2.4-0.4,3.4l-4.4,25.1
	H708.5z M734.7,433.8l-0.3,1.6c-0.4,2-0.4,3.7,2.7,3.7c3.7,0,8.8-1.7,13.3-4l1.9,6.6c-4.2,2.6-10.6,4.6-16.4,4.6
	c-9.2,0-11-5.1-9.8-12.4l1.9-10.5c1.5-8.2,5.3-13.2,15.8-13.2c6.6,0,11.1,3.4,11.1,9.1c0,6.2-4.1,9.8-13.5,12.7
	C737.2,433.2,736.4,433.4,734.7,433.8z M741.3,424.6c3.8-1.2,5.5-2.7,5.5-5c0-1.6-1.4-2.7-3.6-2.7c-3.9,0-5.8,2.4-6.4,5.7l-0.6,3.6
	C737.3,425.8,737.8,425.6,741.3,424.6z M478.5,339.7c11.5,0,25.8-7.5,37.5-17.8l9.7-54.2c-7.3-1.8-14.3-2.9-21.6-2.9
	c-16.6,0-23.4,5.7-26.9,25.7l-6.4,36.6c-0.4,2.2-0.7,3.7-0.7,5.3C470.1,338.1,473,339.7,478.5,339.7z M512.9,344.3l1.3-10.3
	c-10.4,8.8-23.8,14.9-36.9,14.9c-11.5,0-17.7-4.2-17.7-15.1c0-2,0.2-4.2,0.7-6.6l6.8-38.4c4.2-24.3,15.2-33.1,38.2-33.1
	c6,0,16.3,1.1,21.8,2.9l6.2-35.5c0-0.9,0.9-2.2,2.4-2.4l5.7-0.9c1.1-0.2,2.6,0.2,2.2,2.4l-21.6,122.2c0,0.9-0.4,2.6-2.4,2.6h-5.3
	C513.6,346.9,512.7,346.5,512.9,344.3z M568.1,339.7c11,0,24.8-7.5,36.3-17.8l9.5-54.2c-5-1.3-13.4-2.9-20.7-2.9
	c-16.6,0-22.9,5.9-26.3,25.7l-6.3,36.6c-0.4,2.2-0.6,3.7-0.6,5.3C559.9,338.1,562.7,339.7,568.1,339.7z M601.3,344.3l1.3-10.3
	c-10.1,8.8-22.7,14.9-35.4,14.9c-11.2,0-17.3-4.2-17.3-15.1c0-2,0.2-4.2,0.6-6.6l6.7-38.4c4.1-23.5,13.6-33.1,37.4-33.1
	c8.2,0,20.1,2,30.4,5.9l-14.5,82.7c0,0.9-0.4,2.6-2.4,2.6h-5.2C602,346.9,601.1,346.5,601.3,344.3z M715.8,339.7
	c11,0,24.8-7.5,36.3-17.8l9.5-54.2c-5-1.3-13.4-2.9-20.7-2.9c-16.6,0-22.9,5.9-26.3,25.7l-6.3,36.6c-0.4,2.2-0.6,3.7-0.6,5.3
	C707.6,338.1,710.4,339.7,715.8,339.7z M748.8,344.3l1.1-10.3c-10.1,8.8-22.7,14.9-35.4,14.9c-11.2,0-17.3-4.2-17.3-15.1
	c0-2,0.2-4.2,0.6-6.6l6.7-38.4c4.1-23.5,13.6-33.1,37.4-33.1c8.2,0,20.1,2,30.4,5.9l-14.5,82.7c0,0.9-0.4,2.6-2.4,2.6h-5.2
	C749.5,346.9,748.6,346.5,748.8,344.3z M692.8,265.2c-0.2,0.9-0.6,1.3-1.9,1.5h-24.4l-11.4,66c-0.2,1.3-0.4,2.4-0.4,3.3
	c0,3.5,1.9,4.4,6,4.4c12.2,0,15.6-1.3,21.6-3.7c0.6-0.2,1.7-0.4,1.9,0.4l1.3,3.5c0.4,0.9,0.6,2.2-1.3,3.3c-6.2,3.1-18.4,5-25.3,5
	c-8.8,0-14.4-3.7-14.4-11.8c0-1.1,0.2-2.2,0.4-3.5l11.6-67.1h-15c-1.5,0-1.5-1.1-1.5-1.5l0.9-5.7c0.2-1.3,1.5-1.5,1.9-1.5h15.2
	l3.4-19.7c0-0.9,0.9-2.2,2.4-2.4l5.6-0.9c1.1-0.2,2.6,0.2,2.1,2.4l-3.4,20.6h24.6c0.9,0,1.7,0,1.3,1.5L692.8,265.2z M453.7,259.8
	l-36.1,47.9l18.8,41.1h-23.4c-1.5,0-3.1-1.1-3.5-2.2l-9.4-20l-16.6,20c-1.1,1.3-3.5,2.2-5,2.2h-24l35.4-44.6L370.7,262l22.3-3.3
	c1.3-0.2,2.6,0.2,3.3,1.7l10.7,27.4l18.1-26.3c0.7-0.9,2-1.7,3.1-1.7H453.7z M345.1,345.3c0,0.7-0.4,1.5-1.3,1.5h-19.9
	c-0.9,0-1.1-1.1-1.1-1.5l-0.2-6.6c-14.1,6.6-25.2,10.1-35.6,10.1c-11.9,0-16.6-7-16.6-18.3c0-3.7,0.2-6.6,0.9-10.3l10.4-58.5
	c0-0.9,0.7-2.4,3.1-2.9l21.7-3.1c0.9-0.2,2.2-0.2,2,1.5l-10.6,60.5c-0.2,1.1-0.4,2.2-0.4,2.9c0,2,0.9,2.9,3.5,2.9
	c4.9,0,16.8-5.3,23.4-8.6l9.3-53.3c0-0.9,0.7-2.4,3.1-2.9l21.7-2.9c1.1-0.2,2.4-0.2,2.2,1.5L345.1,345.3z M131.1,255.7
	c11.8,0,16.1,6.9,16.1,18c0,3-0.2,5.6-0.9,10.2L136.2,342c-0.6,3.9-1.7,3.9-3.9,3.9h-18.9c-3,0-3.2-0.2-2.6-3.9l9.7-56.1
	c0.2-1.1,0.4-2.2,0.4-2.8c0-1.9-0.9-2.6-3.4-2.6c-4.7,0-15.9,4.8-22.7,8.5L85.6,342c-0.6,3.9-1.7,3.9-3.9,3.9H62.8
	c-3,0-3.2-0.2-2.6-3.9L74,262.2c0.2-0.9,1.1-2.6,3.9-3l16.5-2.8c0.9-0.2,2.4-0.4,2.4,1.5l-0.2,7.8
	C110.3,259.2,121,255.7,131.1,255.7z M57.8,219.6c1.9,0,2.3,0,2.1,1.3l-4,22.7c-0.4,2.8-0.9,3-3,3.2l-20.7,2.8
	c-2.3,0.2-2.6,0.2-2.1-2.4l3.8-21.8c0.2-0.9,0.6-2.6,3-2.8L57.8,219.6z M38.6,344.7c-0.9,3.9-2,3.9-4,4.1H14.9
	c-2.9,0-3.3-0.4-2.9-3.5l14.7-80.9c0-0.9,0.7-2.4,3.1-2.8l21.8-2.8c1.1-0.2,2.5-0.2,2.2,1.5L38.6,344.7z M248.8,343.6
	c-0.7,3.9-1.7,3.9-4.1,4.6h-19.1c-3,0-3.3-0.2-2.6-3.9l17.6-100.1c-7-1.7-19.4-3.3-27-3.3c-5.7,0-7.6,1.5-8.5,6.1l-2.4,12.8h20.7
	c0.9,0,2.2,0.4,1.7,1.7l-4.6,17.8c-0.4,1.3-0.7,1.3-1.7,1.3H199l-12.4,70.4c-2.2,11.7-6.1,20.2-18.5,32.7c-1.5,1.5-2.2,1.7-3.5,0.4
	l-13.5-12.6c-1.1-0.9-1.5-1.3,0-2.8c7.6-8,8.9-12.8,10.2-20.8l12-67.6h-11.1c-1.1,0-1.5-0.9-1.3-1.5l3-16.9c0.2-1.1,0.4-2.4,3-2.4
	h10l2-11.7c3.7-20.4,11.3-28.2,34.2-28.2c7.2,0,19.8,1.3,30.9,4.3l24.6-4.1c1.1-0.2,2-0.2,1.7,1.5L248.8,343.6z M786.4,221.8
	c-5.2,0-9.2,4-9.2,9.2c0,5.2,4,9.2,9.2,9.2c5.2,0,9.2-4,9.2-9.2C795.6,225.9,791.4,221.8,786.4,221.8z M786.4,242.2
	c-6.3,0-11.2-4.9-11.2-11.2c0-6.3,4.9-11.2,11.2-11.2c6.3,0,11.2,4.9,11.2,11.2C797.6,237.3,792.5,242.2,786.4,242.2z M789.3,228.3
	v-0.4c0-0.9-0.4-1.1-1.6-1.1h-2.7l-0.7,4.5h2.7c1.6,0,1.8-0.4,2-1.6L789.3,228.3z M786.4,233.3H784l-0.7,4.5h-2.5l2.2-13.2h4.9
	c2.7,0,4,1.1,4,2.9v0.9l-0.2,1.8c-0.2,1.8-0.9,2.5-2.5,3.1l2.5,4.7h-2.7L786.4,233.3z M-73.8,318.8c2.4-0.4,3.9-2.8,3.2-5.4
	l-16-69.6c-0.6-2.4-3-3.9-5.4-3.2l-37.7,8.6c-2.4,0.6-3.9,3-3.2,5.4l16,69.6c0.7,2.4,3,3.9,5.4,3.2L-73.8,318.8z M-78.8,328.1
	c1.7-1.7,1.3-2.8-1.1-1.9l-31.4,7.1c-2.4,0.4-5,2.8-5.6,5.2l-9.5,30.7c-0.6,2.4,0.2,3,1.9,1.3L-78.8,328.1z M-139.5,377.8
	c2.4,0.4,4.8-0.9,5.6-3.2l11.5-36.7c0.7-2.4-0.6-5-3-5.6l-68.5-21c-2.4-0.6-5,0.6-5.6,3L-211,351c-0.6,2.4,0.7,5,3,5.6L-139.5,377.8
	z M-216.2,342.1c0.4,2.4,1.5,2.4,2.2,0l9.5-30.7c0.6-2.4,0-5.8-1.7-7.6l-21.9-23.5c-1.5-1.7-2.6-1.3-1.9,1.1L-216.2,342.1z
	 M-228.9,265c-1.7,1.5-1.9,4.3-0.2,6.3l26.2,28.3c1.7,1.7,4.6,1.9,6.3,0.2l52.4-48.6c1.7-1.7,1.9-4.5,0.2-6.3l-26.2-28.3
	c-1.7-1.7-4.6-1.9-6.3-0.2L-228.9,265z M-122.6,323.3l-15.2-65.7c-0.7-2.4-2.6-3-4.3-1.3l-49.4,45.8c-1.7,1.7-1.3,3.7,1.1,4.3
	l64.6,19.9C-123.4,327-121.9,325.7-122.6,323.3z M-159.8,216.4c-2.4-0.6-2.8,0.2-0.9,2.2l21.9,23.5c1.7,1.7,5,2.8,7.4,2.2l31.4-7.1
	c2.4-0.6,2.4-1.7,0-2.4L-159.8,216.4z M-53,316.6c1.1,4.5-0.7,10.4-4.1,13.8l-66.7,61.8c-2.6,2.2-6.5,3.7-10.2,3.7
	c-1.3,0-2.6,0-3.7-0.4l-81.5-25.3c-4.6-1.3-8.7-5.8-9.7-10.4l-20.4-88.6c-1.1-4.3,0.7-10.4,4.1-13.4l62.4-57.9
	c2.6-2.2,6.5-3.7,10.2-3.7c1.3,0,2.6,0,3.7,0.4l87.1,26.8c4.6,1.3,8.7,5.8,9.7,10.4L-53,316.6z"/>
</svg>
