<svg width="339" height="45" viewBox="0 0 339 45" fill="none" xmlns="http://www.w3.org/2000/svg">
<path d="M243.32 9.93202H231.083V6.98599H246.984V9.78094L238.977 18.6946C241.671 18.745 243.811 19.5129 245.398 20.9985C246.984 22.459 247.777 24.423 247.777 26.8906C247.777 29.6352 246.896 31.7881 245.133 33.3492C243.371 34.9104 240.928 35.691 237.806 35.691C236.497 35.691 235.212 35.5273 233.953 35.2C232.694 34.8978 231.624 34.4697 230.743 33.9158L231.045 30.9697C233.034 32.2287 235.326 32.8582 237.919 32.8582C239.959 32.8582 241.57 32.3295 242.754 31.2719C243.937 30.2144 244.529 28.7791 244.529 26.9662C244.529 25.1784 243.95 23.7809 242.792 22.7737C241.633 21.7665 240.047 21.2629 238.033 21.2629C237.277 21.2629 236.459 21.3637 235.577 21.5651L234.671 19.5633L243.32 9.93202Z" fill="#020A47"/>
<path d="M262.837 20.5075C263.693 18.9968 264.889 17.8259 266.425 16.995C267.961 16.1388 269.749 15.7108 271.788 15.7108C272.77 15.7108 273.752 15.8367 274.734 16.0885C275.716 16.3403 276.598 16.6802 277.378 17.1083L276.925 19.8655C276.22 19.4878 275.389 19.1856 274.432 18.959C273.475 18.7072 272.594 18.5813 271.788 18.5813C269.698 18.5813 268.011 19.2234 266.727 20.5075C265.468 21.7665 264.839 23.4662 264.839 25.6064C264.839 27.8223 265.481 29.5597 266.765 30.8187C268.049 32.0777 269.799 32.7072 272.015 32.7072C272.846 32.7072 273.689 32.6064 274.546 32.405C275.427 32.2036 276.371 31.8888 277.378 31.4608L277.756 34.1424C276.95 34.5956 276.019 34.9482 274.961 35.2C273.929 35.4518 272.884 35.5777 271.826 35.5777C269.736 35.5777 267.923 35.1748 266.387 34.369C264.851 33.5633 263.655 32.4302 262.799 30.9697C261.968 29.4841 261.553 27.7467 261.553 25.7575C261.553 23.7683 261.981 22.0183 262.837 20.5075Z" fill="#020A47"/>
<path d="M300.013 30.7431C299.132 32.2539 297.936 33.4626 296.425 34.369C294.94 35.2503 293.278 35.691 291.44 35.691C289.551 35.691 287.864 35.2503 286.379 34.369C284.893 33.4877 283.71 32.2917 282.828 30.7809C281.972 29.2701 281.544 27.5579 281.544 25.6442C281.544 23.7557 281.985 22.0561 282.866 20.5453C283.747 19.0345 284.931 17.8385 286.416 16.9572C287.927 16.0507 289.602 15.5975 291.44 15.5975C293.328 15.5975 295.015 16.0381 296.501 16.9194C298.012 17.8007 299.195 18.9968 300.051 20.5075C300.907 22.0183 301.335 23.7306 301.335 25.6442C301.335 27.5075 300.895 29.2072 300.013 30.7431ZM285.661 29.3834C286.24 30.4662 287.021 31.3097 288.003 31.914C289.01 32.5183 290.156 32.8205 291.44 32.8205C292.749 32.8205 293.895 32.5183 294.877 31.914C295.859 31.3097 296.627 30.4662 297.181 29.3834C297.76 28.3007 298.049 27.0543 298.049 25.6442C298.049 24.2341 297.76 22.9877 297.181 21.905C296.627 20.8223 295.859 19.9788 294.877 19.3744C293.895 18.7701 292.749 18.468 291.44 18.468C290.156 18.468 289.01 18.7701 288.003 19.3744C287.021 19.9788 286.24 20.8223 285.661 21.905C285.107 22.9877 284.83 24.2341 284.83 25.6442C284.83 27.0543 285.107 28.3007 285.661 29.3834Z" fill="#020A47"/>
<path d="M306.804 16.2018H309.826L309.863 20.1298C310.392 18.8205 311.16 17.8007 312.167 17.0705C313.175 16.3151 314.32 15.9374 315.604 15.9374C315.982 15.9374 316.385 15.9752 316.813 16.0507C317.266 16.1263 317.606 16.227 317.833 16.3529L317.493 19.3744C317.166 19.2485 316.8 19.1478 316.398 19.0723C315.995 18.9716 315.604 18.9212 315.227 18.9212C313.615 18.9212 312.344 19.5255 311.412 20.7342C310.48 21.9428 310.014 23.6298 310.014 25.7953V35.0866H306.804V16.2018Z" fill="#020A47"/>
<path d="M330.956 35.691C328.816 35.691 326.953 35.2881 325.366 34.4823C323.805 33.6766 322.597 32.5309 321.741 31.0453C320.91 29.5345 320.494 27.7593 320.494 25.7198C320.494 23.7306 320.897 21.9806 321.703 20.4698C322.509 18.959 323.616 17.7755 325.026 16.9194C326.437 16.0381 328.048 15.5975 329.861 15.5975C331.573 15.5975 333.059 15.9878 334.318 16.7683C335.602 17.5489 336.597 18.6316 337.302 20.0165C338.032 21.4014 338.397 23.0255 338.397 24.8888C338.397 25.2162 338.384 25.5183 338.359 25.7953C338.359 26.0723 338.347 26.3618 338.321 26.664H323.667C323.893 28.6532 324.649 30.1766 325.933 31.2341C327.217 32.2917 328.942 32.8205 331.107 32.8205C333.323 32.8205 335.489 32.3043 337.604 31.2719L337.981 33.9913C337.125 34.5201 336.068 34.9356 334.809 35.2377C333.575 35.5399 332.291 35.691 330.956 35.691ZM329.672 18.3547C328.035 18.3547 326.688 18.8709 325.631 19.9032C324.573 20.9104 323.931 22.3205 323.705 24.1334H335.3C335.3 23.8565 335.275 23.5921 335.224 23.3403C335.023 21.7288 334.431 20.4949 333.449 19.6388C332.492 18.7827 331.233 18.3547 329.672 18.3547Z" fill="#020A47"/>
<path d="M61.4864 15.5704H68.3228V35.0595H61.4864V15.5704ZM62.1285 11.4535C61.3983 10.7484 61.0332 9.89232 61.0332 8.88513C61.0332 7.82758 61.3983 6.95887 62.1285 6.27902C62.8839 5.57398 63.803 5.22147 64.8857 5.22147C65.9684 5.22147 66.8749 5.57398 67.6051 6.27902C68.3354 6.95887 68.7005 7.82758 68.7005 8.88513C68.7005 9.89232 68.3354 10.7484 67.6051 11.4535C66.8749 12.1585 65.9684 12.511 64.8857 12.511C63.803 12.511 62.8839 12.1585 62.1285 11.4535Z" fill="#020A47"/>
<path d="M72.9206 15.5704H79.6059L79.6814 18.0254C80.2102 17.0434 80.9656 16.288 81.9476 15.7592C82.9296 15.2304 84.0627 14.966 85.3469 14.966C87.5123 14.966 89.1742 15.6711 90.3325 17.0812C91.4907 18.466 92.0699 20.5056 92.0699 23.1998V35.0595H85.2336V24.484C85.2336 22.1927 84.3648 21.047 82.6274 21.047C81.6958 21.047 80.9782 21.3743 80.4746 22.029C79.9961 22.6585 79.7569 23.565 79.7569 24.7484V35.0595H72.9206V15.5704Z" fill="#020A47"/>
<path d="M98.5285 21.047H95.3936V15.5704H98.5285V13.6819C98.5285 10.6855 99.2587 8.36894 100.719 6.73225C102.205 5.09557 104.295 4.27722 106.989 4.27722C107.769 4.27722 108.5 4.34017 109.18 4.46607C109.885 4.56679 110.476 4.71787 110.955 4.91931L110.615 10.5848C110.338 10.4589 109.998 10.3581 109.595 10.2826C109.217 10.2071 108.865 10.1693 108.537 10.1693C106.422 10.1693 105.365 11.4912 105.365 14.1351V15.5704H109.973V21.047H105.365V35.0595H98.5285V21.047ZM112.881 4.46607H119.717V35.0595H112.881V4.46607Z" fill="#020A47"/>
<path d="M143.261 35.0595H136.538L136.463 32.68C135.959 33.6369 135.204 34.3797 134.196 34.9085C133.189 35.4121 132.031 35.6638 130.722 35.6638C128.581 35.6638 126.945 34.984 125.811 33.6243C124.678 32.2394 124.112 30.225 124.112 27.5811V15.5704H130.948V26.1837C130.948 28.4498 131.829 29.5829 133.592 29.5829C134.499 29.5829 135.191 29.2682 135.669 28.6387C136.173 27.984 136.425 27.0649 136.425 25.8815V15.5704H143.261V35.0595Z" fill="#020A47"/>
<path d="M153.46 25.0128L146.737 15.5704H154.366L157.539 20.8581L160.636 15.5704H167.888L161.203 25.0506L168.341 35.0595H160.674L157.123 29.1675L153.611 35.0595H146.359L153.46 25.0128Z" fill="#020A47"/>
<path d="M190.738 35.0595H187.604L187.528 31.6225C186.773 32.9067 185.778 33.9013 184.544 34.6063C183.31 35.3113 181.9 35.6638 180.314 35.6638C178.577 35.6638 177.015 35.2358 175.631 34.3797C174.271 33.5236 173.201 32.3401 172.42 30.8293C171.64 29.2934 171.249 27.556 171.249 25.6171C171.249 23.7538 171.665 22.0668 172.496 20.556C173.352 19.02 174.498 17.8114 175.933 16.9301C177.368 16.0236 178.954 15.5704 180.692 15.5704C182.127 15.5704 183.436 15.9229 184.62 16.6279C185.828 17.333 186.798 18.3276 187.528 19.6117V4.46607H190.738V35.0595ZM175.366 29.3563C175.945 30.439 176.726 31.2826 177.708 31.8869C178.715 32.4912 179.861 32.7934 181.145 32.7934C182.454 32.7934 183.6 32.4912 184.582 31.8869C185.564 31.2826 186.332 30.439 186.886 29.3563C187.465 28.2736 187.755 27.0272 187.755 25.6171C187.755 24.207 187.465 22.9606 186.886 21.8779C186.332 20.7952 185.564 19.9517 184.582 19.3473C183.6 18.743 182.454 18.4409 181.145 18.4409C179.861 18.4409 178.715 18.743 177.708 19.3473C176.726 19.9517 175.945 20.7952 175.366 21.8779C174.812 22.9606 174.535 24.207 174.535 25.6171C174.535 27.0272 174.812 28.2736 175.366 29.3563Z" fill="#020A47"/>
<path d="M197.542 4.46607H200.752V19.6117C201.508 18.3276 202.502 17.333 203.736 16.6279C204.97 15.9229 206.38 15.5704 207.967 15.5704C209.729 15.5704 211.29 15.9984 212.65 16.8545C214.01 17.7106 215.08 18.8941 215.86 20.4049C216.641 21.9157 217.031 23.6531 217.031 25.6171C217.031 27.4804 216.603 29.18 215.747 30.716C214.916 32.2268 213.783 33.4354 212.348 34.3419C210.938 35.2232 209.351 35.6638 207.589 35.6638C206.103 35.6638 204.756 35.3113 203.547 34.6063C202.364 33.9013 201.432 32.9067 200.752 31.6225L200.677 35.0595H197.542V4.46607ZM212.877 21.8779C212.323 20.7952 211.555 19.9517 210.573 19.3473C209.591 18.743 208.445 18.4409 207.136 18.4409C205.851 18.4409 204.706 18.743 203.699 19.3473C202.717 19.9517 201.936 20.7952 201.357 21.8779C200.803 22.9606 200.526 24.207 200.526 25.6171C200.526 27.0272 200.803 28.2736 201.357 29.3563C201.936 30.439 202.717 31.2826 203.699 31.8869C204.706 32.4912 205.851 32.7934 207.136 32.7934C208.445 32.7934 209.591 32.4912 210.573 31.8869C211.555 31.2826 212.323 30.439 212.877 29.3563C213.456 28.2736 213.745 27.0272 213.745 25.6171C213.745 24.207 213.456 22.9606 212.877 21.8779Z" fill="#020A47"/>
<path d="M216.193 9.98956V5.97257H214.698V5.17957H218.598V5.97257H217.116V9.98956H216.193ZM219.43 9.98956L219.677 5.17957H220.574L222.043 8.23456L223.538 5.17957H224.435L224.682 9.98956H223.863L223.707 6.42757L222.381 9.15757H221.731L220.392 6.40157L220.249 9.98956H219.43Z" fill="#020A47"/>
<path fill-rule="evenodd" clip-rule="evenodd" d="M32.3063 30.9302L42.5604 28.5792C42.7184 28.5472 42.868 28.4827 42.9997 28.3897C43.1314 28.2967 43.2422 28.1774 43.3252 28.0392C43.4082 27.901 43.4615 27.747 43.4818 27.5871C43.502 27.4272 43.4887 27.2649 43.4427 27.1104L39.0818 8.19685C39.0031 7.88475 38.8038 7.6166 38.5276 7.45122C38.2514 7.28585 37.9209 7.23675 37.6085 7.3147L27.3587 9.6657C27.0485 9.7453 26.7823 9.94452 26.6186 10.2198C26.4548 10.495 26.4067 10.8239 26.4849 11.1345L30.833 30.0481C30.9118 30.3602 31.1111 30.6283 31.3873 30.7937C31.6635 30.9591 31.994 31.0082 32.3063 30.9302Z" fill="#020A47"/>
<path fill-rule="evenodd" clip-rule="evenodd" d="M28.7729 42.6176L41.2052 31.1074C41.6738 30.6347 41.5556 30.3435 40.9097 30.5756L32.3654 32.5172C32.012 32.6045 31.6864 32.7794 31.4186 33.0258C31.1507 33.2722 30.9493 33.5821 30.833 33.927L28.241 42.2673C28.0637 42.9131 28.3001 43.0904 28.7729 42.6176Z" fill="#020A47"/>
<path fill-rule="evenodd" clip-rule="evenodd" d="M6.09081 38.8611L24.7076 44.6141C25.0257 44.6733 25.3545 44.6175 25.6352 44.4567C25.9159 44.2958 26.1303 44.0405 26.24 43.7361L29.3597 33.7497C29.4049 33.5939 29.4189 33.4308 29.4009 33.2696C29.3828 33.1085 29.3332 32.9524 29.2548 32.8105C29.1763 32.6685 29.0706 32.5435 28.9438 32.4424C28.8169 32.3414 28.6713 32.2664 28.5154 32.2217L9.8986 26.5236C9.58345 26.4335 9.24543 26.4716 8.95833 26.6298C8.67123 26.788 8.45836 27.0533 8.36619 27.3678L5.26761 37.3331C5.17558 37.6449 5.21044 37.9804 5.36462 38.2665C5.5188 38.5527 5.7798 38.7664 6.09081 38.8611Z" fill="#020A47"/>
<path fill-rule="evenodd" clip-rule="evenodd" d="M0.0792977 18.4196L3.85332 34.9442C3.97153 35.5899 4.27547 35.5899 4.44011 34.9442L7.03212 26.6038C7.12044 26.2484 7.12406 25.8773 7.04267 25.5202C6.96128 25.1632 6.79716 24.8303 6.56353 24.5483L0.611208 18.1242C0.197501 17.6388 -0.11067 17.7738 0.0792977 18.4196Z" fill="#020A47"/>
<path fill-rule="evenodd" clip-rule="evenodd" d="M14.6351 0.75548L0.374893 13.954C0.146113 14.1718 0.0117882 14.4705 0.000739567 14.7861C-0.0103091 15.1017 0.102798 15.4091 0.315792 15.6423L7.44591 23.3538C7.66563 23.5868 7.96847 23.7238 8.28861 23.7348C8.60875 23.7459 8.92032 23.6302 9.15562 23.4129L23.4116 10.1932C23.6424 9.97662 23.7781 9.67754 23.7892 9.36125C23.8003 9.04497 23.6858 8.73713 23.4707 8.50491L16.3533 0.797688C16.2438 0.681179 16.1123 0.587574 15.9663 0.522306C15.8203 0.457037 15.6629 0.421405 15.503 0.417478C15.3432 0.413552 15.1842 0.441408 15.0352 0.499431C14.8862 0.557454 14.7502 0.644488 14.6351 0.75548Z" fill="#020A47"/>
<path fill-rule="evenodd" clip-rule="evenodd" d="M28.4184 30.6348C29.0685 30.812 29.478 30.4617 29.3049 29.7906L25.1805 11.9365C25.0032 11.2907 24.4713 11.1134 24.0027 11.582L10.5699 24.0587C10.0971 24.5272 10.2153 25.0548 10.8612 25.2321L28.4184 30.6348Z" fill="#020A47"/>
<path fill-rule="evenodd" clip-rule="evenodd" d="M35.4302 5.7319L19.169 0.755547C18.5231 0.578272 18.4049 0.814638 18.9326 1.34224L24.8849 7.74523C25.1519 7.99479 25.4749 8.17676 25.8267 8.2759C26.1785 8.37504 26.5489 8.38846 26.907 8.31504L35.4513 6.37768C36.0803 6.20041 36.0803 5.90495 35.4302 5.7319Z" fill="#020A47"/>
</svg>
