<?xml version="1.0" encoding="utf-8"?>
<!-- Generator: Adobe Illustrator 26.3.1, SVG Export Plug-In . SVG Version: 6.00 Build 0)  -->
<svg version="1.1" id="Layer_1" xmlns="http://www.w3.org/2000/svg" xmlns:xlink="http://www.w3.org/1999/xlink" x="0px" y="0px"
	 viewBox="0 0 428.3 559.8" style="enable-background:new 0 0 428.3 559.8;" xml:space="preserve">
<style type="text/css">
	.st0{clip-path:url(#SVGID_00000049183392428055797650000007287919386903144612_);}
	.st1{fill:url(#SVGID_00000155108125941896457460000012984145888620281473_);}
	.st2{fill:url(#SVGID_00000029046971838840616700000015739367879694091924_);}
	.st3{opacity:0.3;fill:#6B0A5C;enable-background:new    ;}
	.st4{opacity:0.5;fill:#6B0A5C;enable-background:new    ;}
	.st5{fill:#6B0A5C;}
	.st6{opacity:0.35;fill:#FFFFFF;enable-background:new    ;}
	.st7{fill:#D30971;}
	.st8{fill:url(#SVGID_00000051349649361134325950000000418603119725120389_);}
	.st9{opacity:0.3;fill:#FFFFFF;enable-background:new    ;}
	.st10{fill:#F0A9CD;}
	.st11{fill:#FFFFFF;}
	.st12{fill:#020A47;}
	.st13{fill:url(#SVGID_00000067207468125058957440000016233473402661490817_);}
	.st14{fill:url(#SVGID_00000183247169511681614150000008414163759788904080_);}
	.st15{fill-rule:evenodd;clip-rule:evenodd;fill:#D30971;}
	.st16{clip-path:url(#SVGID_00000170973887906162921370000005665356234193637542_);}
	.st17{fill-rule:evenodd;clip-rule:evenodd;fill:#020A47;}
	.st18{fill:#4E547E;}
	.st19{fill:url(#SVGID_00000005985591846959786510000011366800272677849505_);}
	.st20{fill:url(#SVGID_00000000908409947143861940000013663734925591637177_);}
	.st21{fill:#B1B3C6;}
	.st22{opacity:0.25;fill:#020A47;enable-background:new    ;}
	.st23{opacity:0.18;fill:#020A47;enable-background:new    ;}
	.st24{fill:url(#SVGID_00000060015439697737211830000010714362061969883063_);}
	.st25{opacity:0.22;fill:#FFFFFF;enable-background:new    ;}
	.st26{fill:url(#SVGID_00000080918357940797274990000004523887618582044854_);}
	.st27{fill:#EEEEF3;}
	.st28{opacity:0.5;fill:#020A47;enable-background:new    ;}
	.st29{fill:#373D6E;}
	.st30{clip-path:url(#SVGID_00000053544812486570380240000003057163650811829159_);}
	.st31{fill:url(#SVGID_00000163073460802201894120000008312981462544139405_);}
	.st32{opacity:0.58;fill:#FFFFFF;enable-background:new    ;}
	.st33{fill:#5EE4E4;}
	.st34{fill:url(#SVGID_00000047761186514003097180000012574589688841290929_);}
	.st35{opacity:0.8;fill:#5EE4E4;enable-background:new    ;}
	.st36{fill:#098A87;}
	.st37{fill:url(#SVGID_00000028319227451071229630000004563590209226395537_);}
	.st38{fill:url(#SVGID_00000050656167489740190240000010281830487875445143_);}
	.st39{fill:url(#SVGID_00000134954223881710882640000005687689173812585116_);}
	.st40{fill:url(#SVGID_00000019659723478995706470000016172292475574676917_);}
	.st41{fill:#2CA4A4;}
	.st42{fill-rule:evenodd;clip-rule:evenodd;fill:#5EE4E4;}
	.st43{clip-path:url(#SVGID_00000176730712169976322010000015962654471000972421_);}
	.st44{fill-rule:evenodd;clip-rule:evenodd;fill:#9B2AFF;}
	.st45{fill:url(#SVGID_00000143605534932229209370000017964072393807854743_);}
	.st46{opacity:0.7;fill:url(#SVGID_00000101098105656599725970000007338925680351430297_);enable-background:new    ;}
	.st47{opacity:0.7;fill:url(#SVGID_00000078011060516278999040000013986984415496848786_);enable-background:new    ;}
	.st48{fill:url(#SVGID_00000152262456446430095920000005320735824852489126_);}
	.st49{fill:url(#SVGID_00000119833032108169723480000016212784668954984853_);}
	.st50{fill:url(#SVGID_00000103259633177532795650000002467091866689883581_);}
	.st51{fill:url(#SVGID_00000127757306152619662250000009238840989168216236_);}
	.st52{fill:url(#SVGID_00000013900260172664265540000011449524567386855335_);}
	.st53{fill:url(#SVGID_00000003786357195301548840000011433262983787255945_);}
	.st54{fill:url(#SVGID_00000168833975869359636910000011522593757076824208_);}
	.st55{fill:url(#SVGID_00000030481079299612308150000014017413751223560111_);}
	.st56{fill:url(#SVGID_00000129185814252825388590000015212547414353237916_);}
	.st57{fill:url(#SVGID_00000172398942237480872770000012023760537138061492_);}
	.st58{fill:url(#SVGID_00000036217260159292695130000002390552184612459401_);}
	.st59{fill:url(#SVGID_00000069399349069206022380000007252506911502130315_);}
	.st60{fill:url(#SVGID_00000115494296130903327560000008264180659233998769_);}
	.st61{fill:url(#SVGID_00000151507615727999288280000016820513578690337693_);}
	.st62{fill:url(#SVGID_00000062160358114458988290000014829240085540812946_);}
	.st63{fill:#9B2AFF;}
	.st64{fill:url(#SVGID_00000183241126897881444840000012625625091523895723_);}
	.st65{fill:url(#SVGID_00000034087623494884473160000016999331964651975052_);}
	.st66{fill:url(#SVGID_00000113330978532651809500000014998645684945643440_);}
</style>
<g>
	<defs>
		<rect id="SVGID_1_" x="41.1" y="53.7" width="346" height="452.4"/>
	</defs>
	<clipPath id="SVGID_00000167357019353839949460000000694743303786074521_">
		<use xlink:href="#SVGID_1_"  style="overflow:visible;"/>
	</clipPath>
	<g style="clip-path:url(#SVGID_00000167357019353839949460000000694743303786074521_);">
		
			<linearGradient id="SVGID_00000074425343287732042720000016015891365502577302_" gradientUnits="userSpaceOnUse" x1="61.6267" y1="423.6286" x2="172.2091" y2="336.361" gradientTransform="matrix(1 0 0 -1 0 802)">
			<stop  offset="0" style="stop-color:#E56EAB"/>
			<stop  offset="1" style="stop-color:#F0A9CD"/>
		</linearGradient>
		<path style="fill:url(#SVGID_00000074425343287732042720000016015891365502577302_);" d="M86.7,371.3l-1.9,0.5
			c-4.4,1.3-8.8,2.9-13.2,4.7c-4.8,2-9.4,4.4-13.7,7.3c-2.8,1.8-5.3,3.9-7.5,6.4c-1.5,1.6-2.8,3.4-3.9,5.4c-1.4,2.5-2.3,5.3-2.7,8.2
			c-0.4,3.1-0.1,6.3,0.9,9.3c0.4,1.3,1,2.5,1.6,3.7c0.5,0.9,1,1.9,1.7,2.7c1.7,2.4,3.7,4.7,5.9,6.7c3.9,3.7,8.2,6.8,12.9,9.4
			c8.3,4.5,17.1,8,26.3,10.5c17,4.5,34.5,7.3,52,8.3c17.2,1.1,34.4,1.2,51.5,0.2c1.7-0.1,3.3-0.6,4.7-1.4c1.4-0.8,2.7-2,3.6-3.4
			c0.9-1.4,1.5-3,1.7-4.6c0.2-1.7,0-3.3-0.6-4.9c-0.8-2.1-2.1-3.8-3.9-5.1s-4-1.9-6.2-1.9l0,0c-16.3,0.1-32.5-0.8-48.7-2.8
			c-15.8-1.7-31.3-4.9-46.5-9.7c-6.9-2.2-13.6-5.3-19.8-9l0,0c-0.6-0.4-1.1-1-1.4-1.6c-0.3-0.7-0.4-1.4-0.4-2.1
			c0.1-0.7,0.3-1.4,0.8-2c0.4-0.6,1-1,1.7-1.3l0.9-0.4c3.4-1.2,6.9-2.3,10.6-3.4c1.8-0.5,3.6-0.9,5.4-1.3l2.6-0.6L86.7,371.3z"/>
		
			<linearGradient id="SVGID_00000183244790049750647570000008265497861583809958_" gradientUnits="userSpaceOnUse" x1="149.8895" y1="496.9361" x2="384.5114" y2="501.7469" gradientTransform="matrix(1 0 0 -1 0 802)">
			<stop  offset="0" style="stop-color:#F0A9CD"/>
			<stop  offset="1" style="stop-color:#E56EAB"/>
		</linearGradient>
		<path style="fill:url(#SVGID_00000183244790049750647570000008265497861583809958_);" d="M272.2,178.9l-27.5-4.3
			c0,0-91.5,74.5-145,152.8c-5.9,8.6-9.4,18.5-10.4,28.9c-0.9,10.3,0.8,20.8,5,30.3c4.2,9.5,10.8,17.8,19.1,24
			c8.3,6.2,18.1,10.3,28.4,11.7c15.3,2.1,37.4,3.8,60.6,4.9c4.4,0.2,8.7-0.6,12.8-2.2c4.1-1.6,7.7-4.1,10.8-7.3
			c3.6,4.8,8.5,8.5,14.1,10.7c5.6,2.1,11.8,2.6,17.7,1.4c5.9-1.2,11.3-4.1,15.7-8.2c4.3-4.2,7.4-9.5,8.8-15.3
			c1.1,6.9,4.7,13.2,10.2,17.7c5.4,4.4,12.3,6.7,19.3,6.4c7-0.3,13.7-3.2,18.7-8c5-4.9,8.1-11.5,8.6-18.5l15.4-211.9L272.2,178.9z"
			/>
		<path class="st3" d="M291.4,423.1c3-4.8,4.7-10.4,4.9-16l3.1-97.6l-16.1,98.7L291.4,423.1z"/>
		<path class="st3" d="M183.1,358.8c0,0,39.5,1.6,45.5-37l-6,46.8L183.1,358.8z"/>
		<path class="st4" d="M273.7,214l79.2,16.5l1.9-38.6L273.7,214z"/>
		<path class="st5" d="M173.1,444.8c-0.4-4.1-0.4-9.3,2.2-10.5l14.7,1.1c-4.6,3-8.7,6.7-12.3,10.9c-0.3,0.4-0.8,0.6-1.3,0.8
			c-0.5,0.1-1,0.1-1.5,0c-0.5-0.2-0.9-0.5-1.2-0.9C173.3,445.7,173.1,445.3,173.1,444.8L173.1,444.8z"/>
		<path class="st5" d="M153.2,455c0.9-3.7,2.5-7.2,4.5-10.4c0.3-0.5,0.8-0.8,1.3-1.1c0.5-0.2,1.1-0.3,1.6-0.2
			c0.6,0.1,1.1,0.3,1.5,0.7c0.4,0.4,0.8,0.8,0.9,1.4c0.9,3.7,2.5,7.2,4.6,10.4C170,457.8,153.2,455,153.2,455z"/>
		<path class="st5" d="M142.5,430.9c0,0-5.9,9.6-2.8,18.1c0,0,2.5,4.1,6.7-1.7c4.2-5.8,5.5-12.1,8.8-14.6L142.5,430.9z"/>
		<path class="st5" d="M81.8,431.6c-0.7-2.7-0.5-5.5,0.5-8c1-2.6,2.8-4.7,5.2-6.1l9.6,4.5c-4,2.6-7.3,6.3-9.6,10.5
			c-0.3,0.5-0.8,1-1.3,1.2c-0.6,0.3-1.2,0.4-1.8,0.3c-0.6-0.1-1.2-0.4-1.6-0.8C82.2,432.8,81.9,432.2,81.8,431.6L81.8,431.6z"/>
		<path class="st5" d="M105.7,423.6c0,0-9,7.8-8,18c0.1,0.7,0.3,1.3,0.8,1.8c0.4,0.5,1,0.9,1.6,1.1c0.6,0.2,1.3,0.2,2,0
			c0.6-0.2,1.2-0.6,1.6-1.1c4.7-6.4,13.2-16.2,20.2-16.4C133.7,426.6,105.7,423.6,105.7,423.6z"/>
		<path class="st5" d="M113.2,449.7c1.3-6.6,5-12.6,10.4-16.6c0.3-0.2,0.7-0.4,1.1-0.3c0.4,0,0.8,0.1,1.1,0.4
			c0.3,0.2,0.6,0.6,0.7,0.9c0.1,0.4,0.2,0.8,0.1,1.2c-1.3,5.3-2.9,14.1,0,17.4L113.2,449.7z"/>
		<path class="st5" d="M259,332.5c0,0,16.8,13.7,34,7.8l2.7-17.1C287.8,330,276.7,334,259,332.5z"/>
		<path class="st5" d="M261.7,368.7c0,0,16.8,8.5,25.3,3.1l2.8-11.4C281.6,366.2,271.7,369.1,261.7,368.7L261.7,368.7z"/>
		<path class="st5" d="M237,344.7c7,4.1,30.3,11.5,48.5,3.7c0,0-3,15.3-26.5,12.5C236.5,358.2,237,344.7,237,344.7z"/>
		<path class="st5" d="M332.3,325.7c4.4,0.9,10.1,1.7,12.6,0.7l0.8-15.3c-4.1,4.4-8.8,8.1-14,11.1c-0.4,0.2-0.6,0.5-0.8,0.8
			c-0.2,0.3-0.2,0.7-0.2,1.1c0.1,0.4,0.2,0.8,0.5,1C331.6,325.5,331.9,325.7,332.3,325.7z"/>
		<path class="st5" d="M318.3,347.8c6.7,3.4,17.6,7.1,25,1.7l0.8-13.7c-3.4,4.3-11.7,8.1-25.1,8.8c-0.4,0-0.7,0.1-1,0.4
			c-0.3,0.2-0.5,0.6-0.6,0.9c-0.1,0.4,0,0.8,0.1,1.1C317.7,347.4,317.9,347.7,318.3,347.8L318.3,347.8z"/>
		<path class="st5" d="M305.1,367c7.7,6.5,25.4,15.6,36.5,11.9l0.7-16.8c-6.9,3.4-20.2,3.1-35.8,1.6c-0.4-0.1-0.8,0-1.2,0.2
			c-0.4,0.2-0.6,0.5-0.8,0.9c-0.2,0.4-0.2,0.8-0.1,1.2C304.6,366.4,304.8,366.7,305.1,367z"/>
		<path class="st5" d="M353.7,214c-5.3,8.5-11.2,16.6-17.6,24.2c-0.4,0.4-0.7,1-0.7,1.5c-0.1,0.6,0,1.2,0.3,1.7
			c0.3,0.5,0.7,1,1.2,1.2c0.5,0.3,1.1,0.4,1.7,0.4c4.9-0.7,9.5-2.8,13.1-6.3L353.7,214z"/>
		<path class="st5" d="M350,248c-6.7,8.1-14.8,15-23.8,20.4c-0.5,0.3-1,0.7-1.2,1.2c-0.3,0.5-0.4,1.1-0.3,1.7
			c0.1,0.6,0.3,1.1,0.7,1.6c0.4,0.4,0.9,0.7,1.5,0.9c7,1.6,16.6,3.4,21.8,1L350,248z"/>
		<path class="st5" d="M254.7,244.8c-7.9-13.2-23.2-42.4-17.7-61.6l-33.3,29.4c0,0,3.6,17.4,11.4,26.3c0.3,0.4,0.7,0.6,1.2,0.7
			c0.5,0.1,1,0,1.4-0.2c0.4-0.2,0.8-0.6,1-1c0.2-0.4,0.3-0.9,0.2-1.4c-1.6-6.7-3.8-17.8-2.6-24c11.1,18.9,19.3,34.2,33.9,37.9
			c0.8,0.2,1.6,0.1,2.4-0.2c0.8-0.3,1.4-0.8,1.9-1.4c0.5-0.7,0.7-1.4,0.8-2.2C255.3,246.3,255.1,245.5,254.7,244.8L254.7,244.8z"/>
		<path class="st5" d="M185.1,228.6c0,0,7.9,36.1,35,58.6c0.4,0.4,0.9,0.6,1.4,0.6c0.5,0,1-0.1,1.4-0.5c0.4-0.3,0.7-0.8,0.8-1.3
			c0.1-0.5,0-1-0.3-1.5c-8.2-15.6-24.3-49.5-20.8-69L185.1,228.6z"/>
		<path class="st5" d="M182,233.9c-5.1,17.4,10.1,51,17.5,65.3c0.2,0.5,0.3,1.1,0.2,1.6c-0.1,0.5-0.4,1-0.8,1.4
			c-0.4,0.4-0.9,0.6-1.4,0.7c-0.5,0.1-1.1,0-1.6-0.3c-21.8-13.5-32.7-51.7-32.7-51.7L182,233.9z"/>
		<path class="st5" d="M143.8,271.8c0,0,8.3,27.4,30.7,30.5c0.5,0.1,1,0,1.5-0.2c0.5-0.2,0.8-0.6,1.1-1c0.3-0.4,0.4-0.9,0.4-1.4
			c0-0.5-0.2-1-0.5-1.4c-6.7-8.8-20.2-29.2-17.6-42L143.8,271.8z"/>
		<path class="st5" d="M120.1,299.9c0,0,11.5,22.9,26.9,32.1c0.7,0.4,1.6,0.6,2.4,0.6c0.8-0.1,1.6-0.4,2.3-0.9
			c0.7-0.5,1.1-1.2,1.4-2.1c0.2-0.8,0.2-1.7,0-2.5c-4.8-13.5-13.5-40.1-11.8-52.3L120.1,299.9z"/>
		<path class="st6" d="M156.3,422.2c13.5,1.8,32.4,3.4,52.7,4.5c-2.2,0.4-4.5,0.5-6.7,0.4c-23.2-1.1-45.3-2.9-60.6-4.9
			c-10.3-1.4-20.1-5.4-28.4-11.7c-8.3-6.2-14.9-14.5-19.1-24c-4.2-9.5-5.9-19.9-5-30.3c0.9-10.3,4.5-20.3,10.4-28.9
			c53.6-78.4,145-152.8,145-152.8l12.2,2c-14.6,12.1-94.2,79.9-142.7,150.9c-5.9,8.6-9.4,18.5-10.4,28.9c-0.9,10.4,0.8,20.8,5,30.3
			c4.2,9.5,10.8,17.8,19.1,24C136.3,416.8,146.1,420.8,156.3,422.2L156.3,422.2z"/>
		<path class="st7" d="M223.2,375c-0.6,0-1.1-0.2-1.6-0.6c-3-2.4-6.4-4.2-10.1-5.2l-79.8-22c-0.6-0.2-1.2-0.6-1.5-1.2
			c-0.3-0.6-0.4-1.3-0.3-1.9c0.2-0.6,0.6-1.2,1.2-1.5c0.6-0.3,1.3-0.4,1.9-0.3l79.9,22c4.4,1.2,8.5,3.3,12,6.2
			c0.5,0.4,0.9,1,0.9,1.7c0.1,0.7-0.1,1.3-0.5,1.9c-0.3,0.3-0.6,0.6-0.9,0.7C224,375,223.6,375,223.2,375z"/>
		<path class="st7" d="M203.9,429.7h-1.6c-23.9-1.1-46-3-60.9-4.9c-10.7-1.5-20.9-5.7-29.5-12.2c-8.6-6.5-15.5-15.1-19.8-25
			c-4.4-9.9-6.2-20.7-5.2-31.5c1-10.8,4.7-21.1,10.8-30c53.3-77.8,144.7-152.6,145.5-153.4c0.5-0.4,1.1-0.5,1.8-0.5
			c0.6,0.1,1.2,0.4,1.6,0.8c0.4,0.5,0.6,1.1,0.5,1.7c-0.1,0.6-0.4,1.2-0.8,1.6c-0.9,0.7-91.7,75.2-144.7,152.3
			c-5.6,8.2-9,17.8-9.9,27.7c-0.9,9.9,0.8,19.9,4.8,29c4,9.1,10.3,17,18.3,23c8,6,17.3,9.8,27.2,11.2c14.7,2,36.7,3.7,60.6,4.9
			c5.9,0.3,11.8-1.3,16.8-4.6c5-3.3,8.8-8,10.9-13.6c2.1-5.6,2.4-11.7,0.9-17.4c-1.6-5.7-4.9-10.9-9.5-14.6c-0.5-0.4-0.9-1-0.9-1.7
			c-0.1-0.7,0.1-1.3,0.5-1.9c0.4-0.5,1-0.9,1.7-0.9c0.7-0.1,1.3,0.1,1.9,0.5c5.4,4.3,9.2,10.2,11.1,16.8c1.9,6.6,1.7,13.7-0.6,20.2
			c-2.3,6.5-6.5,12.1-12.1,16.1c-5.6,4-12.3,6.1-19.2,6.1L203.9,429.7z"/>
		<path class="st7" d="M310.7,432.9c-7.4,0-14.6-2.6-20.3-7.4c-5.7-4.8-9.4-11.5-10.5-18.9c-0.1-0.7,0.1-1.3,0.4-1.9
			c0.4-0.5,1-0.9,1.6-1c0.7-0.1,1.3,0.1,1.9,0.5c0.5,0.4,0.9,1,1,1.7c1,6.4,4.3,12.1,9.2,16.2c5,4.1,11.3,6.2,17.7,5.9
			c6.4-0.3,12.5-2.9,17.1-7.4c4.6-4.5,7.4-10.5,7.8-16.9l15.4-211.9c0.1-0.6,0.4-1.2,0.9-1.6c0.5-0.4,1.1-0.6,1.7-0.5
			c0.6,0,1.2,0.3,1.6,0.8c0.4,0.5,0.7,1.1,0.7,1.7L341.9,404c-0.6,7.9-4.1,15.2-9.9,20.6C326.2,429.9,318.6,432.9,310.7,432.9
			L310.7,432.9z"/>
		<path class="st7" d="M222.6,374.9h-0.3c-0.7-0.1-1.3-0.4-1.7-0.9c-0.4-0.5-0.6-1.2-0.5-1.9l7.8-65.3c0-0.3,0.1-0.7,0.3-1
			c0.2-0.3,0.4-0.6,0.6-0.8c0.3-0.2,0.6-0.4,0.9-0.5c0.3-0.1,0.7-0.1,1-0.1c0.3,0,0.7,0.1,0.9,0.3c0.3,0.2,0.6,0.4,0.8,0.7
			c0.2,0.3,0.4,0.6,0.4,0.9c0.1,0.3,0.1,0.7,0.1,1l-7.8,65.4c-0.1,0.6-0.4,1.2-0.8,1.6C223.8,374.7,223.2,374.9,222.6,374.9z"/>
		<path class="st7" d="M251.5,432.9c-5.3,0-10.6-1.2-15.3-3.6c-4.8-2.4-8.9-5.8-12.1-10.1c-0.4-0.5-0.5-1.2-0.4-1.8
			c0.1-0.6,0.4-1.2,0.9-1.6c0.3-0.2,0.6-0.3,0.9-0.4c0.3-0.1,0.7-0.1,1-0.1c0.3,0,0.6,0.2,0.9,0.3c0.3,0.2,0.5,0.4,0.7,0.7
			c3.5,4.6,8.2,8.1,13.6,10c5.4,1.9,11.3,2.2,16.9,0.8c5.6-1.4,10.6-4.4,14.5-8.6c3.9-4.2,6.4-9.5,7.4-15.2l15.4-96.5
			c0-0.3,0.2-0.7,0.3-0.9c0.2-0.3,0.4-0.5,0.7-0.7s0.6-0.3,0.9-0.4c0.3-0.1,0.7-0.1,1,0c0.7,0.1,1.3,0.5,1.6,1
			c0.4,0.5,0.6,1.2,0.4,1.9L285.5,404c-1.3,8.1-5.4,15.5-11.6,20.8C267.6,430,259.7,432.9,251.5,432.9L251.5,432.9z"/>
		<path class="st7" d="M172.3,457.8c-9.3,0-18.3-0.3-27.3-0.9c-17.8-1-35.4-3.8-52.5-8.4c-9.3-2.6-18.3-6.2-26.7-10.9
			c-4.9-2.7-9.4-6-13.5-9.8c-2.4-2.1-4.5-4.5-6.4-7c-0.7-0.9-1.3-1.9-1.8-3c-0.7-1.3-1.3-2.7-1.8-4.2c-1.1-3.3-1.4-6.9-1-10.4
			c0.4-3.2,1.4-6.3,3-9.1c1.2-2.1,2.6-4.1,4.2-5.9c2.4-2.5,5.1-4.8,8-6.7c4.5-2.9,9.2-5.3,14.2-7.3c4.4-1.8,8.9-3.4,13.5-4.8L86,369
			c0.3-0.1,0.6-0.1,1-0.1c0.3,0,0.6,0.1,0.9,0.3c0.3,0.2,0.5,0.4,0.7,0.6c0.2,0.3,0.4,0.6,0.4,0.9c0.1,0.3,0.1,0.7,0.1,1
			c0,0.3-0.1,0.7-0.3,0.9c-0.2,0.3-0.4,0.5-0.6,0.8c-0.3,0.2-0.6,0.4-0.9,0.4l-1.9,0.5c-4.4,1.3-8.8,2.8-13.1,4.5
			c-4.7,1.9-9.2,4.2-13.5,6.9c-2.5,1.7-4.7,3.7-6.7,6c-1.3,1.5-2.4,3.1-3.4,4.9c-1.2,2.3-2,4.7-2.4,7.3c-0.3,2.8-0.1,5.5,0.8,8.2
			c0.7,2,1.6,3.9,2.8,5.7c1.6,2.3,3.4,4.5,5.5,6.5c3.7,3.5,7.9,6.6,12.4,9c8.1,4.4,16.8,7.8,25.7,10.1c16.9,4.5,34.1,7.2,51.5,8.2
			c17.1,1.1,34.2,1.2,51.2,0.2c1.3-0.1,2.5-0.4,3.6-1.1c1.1-0.6,2-1.5,2.7-2.5c0.7-1.1,1.1-2.2,1.2-3.5c0.1-1.2,0-2.5-0.4-3.7
			c-0.6-1.5-1.6-2.9-3-3.8c-1.4-0.9-3-1.4-4.6-1.4h-0.4c-16.3,0.1-32.5-0.9-48.7-2.8c-16-1.8-31.8-5.1-47.1-10.1
			c-7.1-2.3-14-5.4-20.4-9.3c-1-0.6-1.8-1.5-2.4-2.6c-0.5-1.1-0.8-2.3-0.6-3.5c0.1-1.2,0.6-2.3,1.3-3.3c0.7-1,1.7-1.7,2.8-2.1l1-0.4
			c3.1-1.1,6.7-2.3,10.8-3.4c1.9-0.5,3.7-1,5.6-1.4l2.7-0.6c0.3-0.1,0.7-0.1,1,0c0.3,0.1,0.6,0.2,0.9,0.4c0.3,0.2,0.5,0.4,0.7,0.7
			c0.2,0.3,0.3,0.6,0.4,0.9c0.1,0.6,0,1.3-0.3,1.9c-0.4,0.6-0.9,1-1.6,1.1l-2.6,0.5c-1.7,0.4-3.5,0.8-5.3,1.3
			c-4,1.1-7.4,2.2-10.3,3.4l-0.9,0.4c-0.3,0.1-0.5,0.3-0.6,0.5c-0.2,0.2-0.3,0.5-0.3,0.7c0,0.2,0,0.5,0.1,0.7
			c0.1,0.2,0.3,0.4,0.5,0.5c6.1,3.7,12.6,6.6,19.4,8.8c15,4.8,30.4,8,46,9.7c16.1,1.8,32.2,2.7,48.4,2.7c2.7,0,5.4,0.8,7.6,2.3
			c2.2,1.5,3.9,3.7,4.8,6.3c0.7,1.9,0.9,4,0.7,6c-0.2,2-0.9,4-2,5.7c-1.1,1.7-2.6,3.1-4.4,4.1c-1.7,1-3.7,1.6-5.7,1.7
			C188.4,457.4,180.1,457.8,172.3,457.8z"/>
		<path class="st5" d="M307.3,335.5c-0.6,0.1-1.2,0-1.8-0.2c-0.6-0.2-1.1-0.6-1.5-1c-0.4-0.4-0.7-1-0.9-1.6
			c-0.2-0.6-0.2-1.2-0.1-1.8c0.4-1.8,0.5-3.8,3.2-4.3c2.7-0.5,11.3,2.2,18,4.5c0.4,0.1,0.7,0.4,1,0.8c0.2,0.4,0.3,0.8,0.2,1.2
			c-0.1,0.4-0.3,0.8-0.6,1.1c-0.3,0.3-0.7,0.5-1.1,0.5L307.3,335.5z"/>
		
			<linearGradient id="SVGID_00000081624823786718040910000003992858126629577150_" gradientUnits="userSpaceOnUse" x1="238.269" y1="662.6553" x2="387.4729" y2="659.1229" gradientTransform="matrix(1 0 0 -1 0 802)">
			<stop  offset="0" style="stop-color:#F0A9CD"/>
			<stop  offset="1" style="stop-color:#E56EAB"/>
		</linearGradient>
		<path style="fill:url(#SVGID_00000081624823786718040910000003992858126629577150_);" d="M381,135.6l-33.6-58.3
			c-0.9-1.6-2.3-2.9-3.9-3.9c-1.6-0.9-3.4-1.4-5.3-1.4H271c-1.9,0-3.7,0.5-5.3,1.4c-1.6,0.9-3,2.3-3.9,3.9l-33.6,58.3
			c-1,1.6-1.5,3.5-1.5,5.3c0,1.9,0.5,3.7,1.5,5.3l33.6,58.3c0.9,1.6,2.3,3,3.9,3.9c1.6,0.9,3.5,1.4,5.3,1.4h67.3
			c1.9,0,3.7-0.5,5.3-1.4c1.6-0.9,3-2.3,3.9-3.9l33.6-58.3c0.9-1.6,1.4-3.5,1.4-5.3C382.5,139,382,137.2,381,135.6z"/>
		<path class="st9" d="M286.2,209.9h-17.6c-1.9,0-3.7-0.5-5.3-1.4c-1.6-0.9-3-2.3-3.9-3.9l-33.6-58.3c-0.9-1.6-1.4-3.5-1.4-5.3
			c0-1.9,0.5-3.7,1.4-5.3l33.6-58.3c0.9-1.6,2.3-3,3.9-3.9c1.6-0.9,3.5-1.4,5.3-1.4h17.6c-1.9,0-3.7,0.5-5.3,1.4
			c-1.6,0.9-3,2.3-3.9,3.9l-33.6,58.3c-1,1.6-1.5,3.5-1.5,5.3c0,1.9,0.5,3.7,1.5,5.3l33.6,58.3c0.9,1.6,2.3,3,3.9,3.9
			C282.5,209.4,284.4,209.9,286.2,209.9L286.2,209.9z"/>
		<path class="st10" d="M340.4,161.6h-72.1v44.7h72.1V161.6z"/>
		<path class="st11" d="M346.5,137.4c-7.7,5.3-16.6,5.8-19.7,1.2c-0.8-1.6-1.2-3.4-1.1-5.2c0.1-1.8,0.8-3.5,1.8-4.9l0,0
			c0.4-0.6,0.8-1.3,1.2-1.9c1-1.3,2.1-2.5,3.4-3.6l0,0c0.9-0.8,1.8-1.6,2.8-2.2l0.2-0.2c7.7-5.2,16.6-5.8,19.7-1.1
			C358,124.1,354.3,132.1,346.5,137.4z"/>
		<path class="st5" d="M323.5,184.9c-0.5-0.3-1.2-0.5-1.8-0.3c-0.6,0.1-1.2,0.5-1.5,1c-1.5,1.8-3.6,2.9-5.8,3.4
			c-1.8,0.4-3.7,0.4-5.6,0c-0.6-0.1-1.2-0.4-1.6-0.9v-7.6c2.2-0.4,4.3-1.5,6-3l16.8-15.2h-50.5l16.8,15.2c1.7,1.5,3.7,2.5,5.9,3v7.7
			c-0.4,0.5-1,0.8-1.6,0.9c-1.8,0.5-3.8,0.5-5.6,0c-2.3-0.3-4.3-1.4-5.9-3.1c-0.4-0.5-0.9-0.8-1.6-1c-0.6-0.1-1.3,0-1.8,0.4
			c-0.5,0.4-0.9,1-1,1.6c-0.1,0.7,0,1.3,0.4,1.9c2.3,2.7,5.5,4.6,9,5.1c1.3,0.3,2.6,0.4,4,0.4c1.4,0,2.7-0.2,4.1-0.5
			c1-0.3,1.9-0.8,2.8-1.4c0.9,0.6,1.8,1,2.8,1.3c1.2,0.3,2.3,0.4,3.5,0.4c1.5,0,3-0.2,4.5-0.5c3.5-0.7,6.6-2.6,8.8-5.5
			c0.3-0.6,0.3-1.3,0.1-1.9C324.5,185.7,324.1,185.2,323.5,184.9L323.5,184.9z"/>
		<path class="st12" d="M346.2,131.5c0,2.5-1,5-2.8,6.8s-4.2,2.8-6.8,2.8c-2.5,0-5-1-6.8-2.8c-1.8-1.8-2.8-4.2-2.8-6.8
			c0-1,0.1-1.9,0.4-2.8l0,0c0.2-0.8,0.6-1.5,1-2.2c0.8-1.4,2-2.6,3.4-3.4l0,0c1.3-0.7,2.7-1.1,4.2-1.1h0.4c1.3,0,2.5,0.2,3.7,0.7
			c1.2,0.5,2.3,1.2,3.2,2.1c0.9,0.9,1.6,2,2.1,3.1C346,129,346.2,130.2,346.2,131.5L346.2,131.5z"/>
		<path class="st11" d="M337.4,124.7c0,0.6-0.1,1.2-0.3,1.7c-0.2,0.6-0.6,1.1-1,1.5c-0.4,0.4-0.9,0.8-1.5,1
			c-0.6,0.2-1.1,0.3-1.7,0.3c-0.9,0-1.7-0.2-2.4-0.7c-0.7-0.5-1.3-1.1-1.7-1.9c-0.1-0.1-0.1-0.2-0.2-0.4c0.8-1.4,2-2.6,3.4-3.4l0,0
			c0.9-0.8,1.8-1.6,2.8-2.2c0.5,0.2,1,0.6,1.4,1.1C336.9,122.6,337.3,123.7,337.4,124.7L337.4,124.7z"/>
		<path class="st11" d="M283.6,138.5c-3.2,4.6-12,4.1-19.7-1.2c-7.7-5.3-11.5-13.3-8.3-17.9c3.1-4.6,12-4.1,19.7,1.1l0.2,0.2
			c1,0.7,1.9,1.4,2.8,2.2l0,0c1.2,1.1,2.4,2.3,3.4,3.6c0.4,0.6,0.8,1.2,1.1,1.7c1.1,1.4,1.8,3.2,1.9,5
			C284.8,135.1,284.4,136.9,283.6,138.5L283.6,138.5z"/>
		<path class="st12" d="M283.2,131.5c0,1.9-0.6,3.7-1.6,5.3c-1.1,1.6-2.5,2.8-4.3,3.5c-1.7,0.7-3.7,0.9-5.5,0.5
			c-1.9-0.4-3.6-1.3-4.9-2.6c-1.3-1.3-2.2-3-2.6-4.9c-0.4-1.9-0.2-3.8,0.5-5.5c0.7-1.7,1.9-3.2,3.5-4.3c1.6-1,3.4-1.6,5.3-1.6h0.4
			c1.5,0.1,2.9,0.5,4.2,1.1l0,0c1.4,0.8,2.5,2,3.4,3.4c0.4,0.6,0.8,1.3,1,2.1C283,129.5,283.2,130.5,283.2,131.5L283.2,131.5z"/>
		<path class="st11" d="M281.7,126.3c0,0.1,0,0.2,0,0.4c-0.4,0.8-0.9,1.4-1.7,1.9s-1.6,0.7-2.4,0.7c-0.6,0-1.2-0.1-1.8-0.3
			c-0.6-0.2-1.1-0.5-1.5-1c-0.4-0.4-0.8-0.9-1-1.5c-0.2-0.6-0.4-1.2-0.4-1.8c0-1.1,0.4-2.1,1.1-2.9c0.4-0.5,0.9-0.8,1.4-1.1
			c1,0.7,1.9,1.4,2.8,2.2l0,0C279.7,123.8,280.9,124.9,281.7,126.3L281.7,126.3z"/>
		
			<linearGradient id="SVGID_00000078734940312609964150000005522941925104433296_" gradientUnits="userSpaceOnUse" x1="251.5357" y1="715.6689" x2="230.7447" y2="729.2604" gradientTransform="matrix(1 0 0 -1 0 802)">
			<stop  offset="0" style="stop-color:#F0A9CD"/>
			<stop  offset="1" style="stop-color:#E56EAB"/>
		</linearGradient>
		<path style="fill:url(#SVGID_00000078734940312609964150000005522941925104433296_);" d="M261.8,72.3l-23.2-14.8
			c-1-0.6-2-1-3.2-1.1c-1.1-0.1-2.3,0-3.4,0.4c-1.1,0.4-2,1-2.8,1.8c-0.8,0.8-1.4,1.8-1.7,2.9c-3.6,11.8-5.8,32.2,18.2,40.1
			L261.8,72.3z"/>
		<path class="st7" d="M237.3,56.3c-2.1,1-4.4,1.5-6.7,1.6c0.1,1.8,0.7,3.6,1.6,5.2c0.9,1.6,2.2,2.9,3.8,3.9l19.7,12.7l4.4-8.1
			L237.3,56.3z"/>
		<path class="st7" d="M245.6,104c-0.3,0-0.5,0-0.8,0c-19-6.4-26.2-22.1-19.7-43.3c0.4-1.5,1.2-2.8,2.3-3.9c1.1-1.1,2.3-1.9,3.8-2.5
			c1.4-0.5,3-0.7,4.5-0.6c1.5,0.2,3,0.7,4.3,1.5l23.2,14.9c0.5,0.4,0.9,0.9,1,1.5c0.1,0.6,0,1.3-0.3,1.8c-0.4,0.5-0.9,0.9-1.5,1.1
			c-0.6,0.1-1.3,0-1.8-0.3l-23.2-14.9c-0.6-0.4-1.4-0.7-2.1-0.8c-0.8-0.1-1.5,0-2.2,0.3c-0.7,0.2-1.3,0.7-1.8,1.2
			c-0.5,0.5-0.9,1.2-1.1,1.9c-4,13.1-4.4,30,16.6,37c0.3,0.1,0.6,0.3,0.9,0.5c0.3,0.2,0.5,0.5,0.6,0.8c0.1,0.3,0.2,0.7,0.2,1
			c0,0.3-0.1,0.7-0.2,1c-0.2,0.5-0.6,0.9-1,1.2C246.7,104,246.1,104.1,245.6,104L245.6,104z"/>
		
			<linearGradient id="SVGID_00000046301342418820349200000007094745142387349638_" gradientUnits="userSpaceOnUse" x1="355.1399" y1="718.3019" x2="380.7081" y2="728.2937" gradientTransform="matrix(1 0 0 -1 0 802)">
			<stop  offset="0" style="stop-color:#F0A9CD"/>
			<stop  offset="1" style="stop-color:#E56EAB"/>
		</linearGradient>
		<path style="fill:url(#SVGID_00000046301342418820349200000007094745142387349638_);" d="M345.7,72.3l23.2-14.9
			c19.4-7.3,18.7,39.7-7.1,44.1L345.7,72.3z"/>
		<path class="st7" d="M370.2,56.3c2.1,1,4.4,1.5,6.7,1.6c0.5,9.1-19.6,17.1-25.1,21.8l-4.4-8.1L370.2,56.3z"/>
		<path class="st7" d="M361.8,104c-0.6,0-1.2-0.3-1.6-0.7c-0.4-0.4-0.7-1-0.8-1.6c-0.1-0.6,0.1-1.2,0.5-1.7c0.4-0.5,0.9-0.8,1.5-1
			c11.3-2,15.7-12.7,17.1-17.3c2.6-8.5,1.6-17.7-2.1-21.2c-0.8-0.8-1.9-1.3-3-1.4c-1.1-0.2-2.3,0-3.3,0.5L347,74.3
			c-0.5,0.3-1.2,0.5-1.8,0.3c-0.6-0.1-1.2-0.5-1.5-1.1c-0.3-0.6-0.4-1.2-0.3-1.8c0.1-0.6,0.5-1.2,1-1.5l23.2-14.9l0.5-0.2
			c1.9-0.9,4.1-1.2,6.2-0.8c2.1,0.3,4,1.3,5.6,2.7c5.2,4.9,6.7,15.7,3.4,26.3c-3.4,11.5-11.1,19.1-21.1,20.8L361.8,104z"/>
		<path class="st7" d="M385.6,135.3l-35.7-61.8c-1-1.7-2.4-3.1-4.1-4.1c-1.7-1-3.7-1.5-5.6-1.5h-71.3c-2,0-3.9,0.5-5.7,1.5
			c-1.7,1-3.2,2.4-4.2,4.1l-35.6,61.8c-1,1.7-1.5,3.7-1.5,5.6c0,2,0.5,3.9,1.5,5.6l35.6,61.8c1,1.7,2.4,3.1,4.2,4.1
			c1.7,1,3.7,1.5,5.7,1.5h71.3c2,0,3.9-0.5,5.6-1.5c1.7-1,3.1-2.4,4.1-4.1l35.7-61.8c1-1.7,1.5-3.7,1.5-5.6
			C387.1,138.9,386.6,137,385.6,135.3L385.6,135.3z M373.4,145.7l-30.3,52.5c-0.9,1.5-2.1,2.7-3.5,3.5c-1.5,0.8-3.1,1.3-4.8,1.3
			h-60.4c-1.7,0-3.3-0.4-4.8-1.3c-1.5-0.8-2.7-2-3.5-3.5l-30.3-52.5c-0.8-1.5-1.3-3.1-1.3-4.8c0-1.7,0.4-3.3,1.3-4.8L266,83.6
			c0.8-1.5,2.1-2.7,3.5-3.5c1.5-0.8,3.1-1.3,4.8-1.3h60.6c1.7,0,3.3,0.4,4.8,1.3c1.5,0.8,2.7,2,3.5,3.5l30.3,52.5
			c0.8,1.5,1.2,3.1,1.2,4.8C374.7,142.6,374.2,144.3,373.4,145.7L373.4,145.7z"/>
		<path class="st7" d="M384.7,135.8c-0.3-0.5-0.9-0.9-1.5-1.1c-0.6-0.2-1.3-0.1-1.9,0.2l-35.8,20.9c-0.5,0.3-1.1,0.5-1.7,0.6
			c-0.6,0.1-1.2,0-1.8-0.1c-0.6-0.2-1.2-0.4-1.6-0.8c-0.5-0.4-0.9-0.8-1.2-1.4l-28.8-49.9c-0.6-1.1-0.8-2.3-0.5-3.5
			c0.3-1.2,1.1-2.2,2.2-2.8L347.3,77c0.6-0.3,1-0.9,1.1-1.5c0.2-0.6,0.1-1.3-0.2-1.9c-0.3-0.6-0.9-1-1.5-1.1
			c-0.6-0.2-1.3-0.1-1.9,0.2l-37.8,22.1c-0.7,0.4-1.5,0.7-2.4,0.7c-0.8,0-1.7-0.2-2.4-0.7l-36-21.3c-0.6-0.3-1.3-0.4-1.9-0.3
			c-0.6,0.2-1.2,0.6-1.6,1.2c-0.3,0.6-0.4,1.3-0.3,1.9c0.2,0.6,0.6,1.2,1.2,1.6l33.5,19.8c0.5,0.3,1,0.7,1.4,1.2
			c0.4,0.5,0.6,1,0.8,1.6c0.2,0.6,0.2,1.2,0.1,1.8c-0.1,0.6-0.3,1.2-0.6,1.7l-28.9,50c-0.3,0.5-0.7,1-1.2,1.4
			c-0.5,0.4-1,0.7-1.6,0.8c-0.6,0.2-1.2,0.2-1.8,0.1c-0.6-0.1-1.2-0.3-1.7-0.6l-36-21c-0.6-0.3-1.3-0.4-1.9-0.3
			c-0.6,0.2-1.2,0.6-1.5,1.2c-0.3,0.6-0.4,1.3-0.3,1.9c0.2,0.6,0.6,1.2,1.2,1.5l38.5,22.5c0.7,0.4,1.3,1,1.7,1.7
			c0.4,0.7,0.6,1.5,0.6,2.3v40.6c0,0.7,0.3,1.3,0.7,1.8c0.5,0.5,1.1,0.7,1.8,0.7c0.7,0,1.3-0.3,1.8-0.7c0.5-0.5,0.7-1.1,0.7-1.8
			v-37.6c0-0.6,0.1-1.2,0.4-1.8c0.2-0.6,0.6-1.1,1-1.5s1-0.8,1.5-1c0.6-0.2,1.2-0.4,1.8-0.4h57.7c1.2,0,2.4,0.5,3.3,1.4
			c0.9,0.9,1.4,2.1,1.4,3.3v37.5c0,0.7,0.3,1.3,0.7,1.8c0.5,0.5,1.1,0.7,1.8,0.7c0.7,0,1.3-0.3,1.8-0.7c0.5-0.5,0.7-1.1,0.7-1.8
			v-40.6c0-0.8,0.2-1.6,0.6-2.4c0.4-0.7,1-1.3,1.7-1.7l38.5-22.4c0.6-0.3,1-0.9,1.2-1.5C385.1,137.1,385,136.4,384.7,135.8
			L384.7,135.8z M275.6,154.1l26-45c0.3-0.5,0.7-0.9,1.2-1.1c0.5-0.3,1-0.4,1.6-0.4s1.1,0.1,1.6,0.4c0.5,0.3,0.9,0.7,1.2,1.1
			l25.9,44.9c0.3,0.5,0.4,1.1,0.5,1.7c0,0.6-0.2,1.2-0.4,1.7c-0.3,0.5-0.7,0.9-1.2,1.2c-0.5,0.3-1.1,0.5-1.7,0.5h-51.7
			c-0.6,0-1.2-0.2-1.7-0.4c-0.5-0.3-0.9-0.7-1.2-1.2c-0.3-0.5-0.5-1.1-0.5-1.7C275.2,155.1,275.3,154.6,275.6,154.1L275.6,154.1z"/>
		<path class="st15" d="M182.2,480.7c-0.8,0-1.6-0.3-2.2-0.8c-0.3-0.3-0.5-0.6-0.7-0.9c-0.2-0.3-0.2-0.7-0.2-1.1
			c0-0.4,0.1-0.8,0.2-1.1c0.2-0.4,0.4-0.7,0.7-0.9c0.6-0.6,1.4-0.9,2.2-0.8c0.4,0,0.8,0.1,1.2,0.2c0.4,0.1,0.7,0.4,1,0.6
			c0.3,0.3,0.5,0.6,0.7,0.9c0.2,0.4,0.2,0.7,0.2,1.1c0,0.4-0.1,0.8-0.2,1.1c-0.2,0.3-0.4,0.7-0.7,0.9c-0.3,0.3-0.6,0.5-1,0.6
			C183,480.7,182.6,480.7,182.2,480.7z M179.5,498.7v-15.5h5.4v15.5H179.5z M188.5,498.7v-15.5h5.3v1.9c0.4-0.8,1-1.4,1.7-1.8
			c0.8-0.4,1.8-0.6,2.7-0.6c0.7-0.1,1.5,0.1,2.2,0.4c0.7,0.3,1.3,0.7,1.8,1.3c1,1.4,1.5,3.1,1.4,4.9v9.4h-5.4v-8.4
			c0-1.8-0.7-2.7-2.1-2.7c-0.3,0-0.7,0-1,0.2c-0.3,0.1-0.6,0.3-0.8,0.6c-0.4,0.6-0.6,1.4-0.6,2.2v8.2H188.5z M208.7,498.7v-11.1
			h-2.5v-4.3h2.5v-1.5c-0.1-2,0.5-4,1.7-5.5c0.6-0.7,1.4-1.2,2.3-1.5c0.9-0.3,1.8-0.5,2.7-0.4c0.6-0.1,1.2-0.1,1.7,0
			c0.5,0.1,1,0.2,1.4,0.4l-0.3,4.5c-0.3-0.1-0.5-0.2-0.8-0.2h-0.8c-0.4,0-0.7,0-1,0.1c-0.3,0.1-0.6,0.3-0.9,0.6
			c-0.5,0.7-0.7,1.5-0.6,2.4v1.1h3.7v4.3h-3.5v11.1L208.7,498.7z M220.2,498.7v-24.3h5.5v24.3H220.2z M234.5,499.2
			c-0.7,0-1.5-0.1-2.1-0.4c-0.7-0.3-1.3-0.7-1.7-1.3c-1-1.4-1.5-3.1-1.4-4.8v-9.6h5.5v8.3c0,0.7,0.1,1.4,0.5,2.1
			c0.2,0.2,0.4,0.4,0.7,0.5c0.3,0.1,0.6,0.2,0.9,0.1c0.3,0,0.6-0.1,0.9-0.2c0.3-0.1,0.5-0.3,0.7-0.6c0.4-0.7,0.6-1.4,0.6-2.2V483
			h5.5v15.5h-5.2v-1.9c-0.4,0.8-1,1.4-1.8,1.8c-0.9,0.5-1.8,0.8-2.8,0.8H234.5z M246.9,498.7l5.7-8l-5.1-7.5h6.1l2.5,4.2l2.5-4.2
			h5.8l-5.3,7.6l5.7,7.9h-6.2l-2.8-4.7l-2.8,4.7H246.9z M273.8,499.2c-1.3,0-2.6-0.4-3.7-1c-1.1-0.7-2-1.7-2.6-2.8
			c-0.6-1.3-1-2.7-0.9-4.1c0-1.4,0.3-2.8,1-4c0.6-1.2,1.6-2.2,2.7-2.9c1.1-0.7,2.5-1.1,3.8-1.1c1.1,0,2.2,0.3,3.1,0.8
			c1,0.6,1.8,1.4,2.3,2.4v-12h2.6v24.3h-2.5v-2.7c-0.6,1-1.4,1.8-2.4,2.4c-1,0.5-2.1,0.8-3.2,0.8H273.8z M274.4,496.9
			c1,0,1.9-0.2,2.8-0.7c0.8-0.5,1.4-1.2,1.8-2c0.5-0.9,0.7-1.9,0.7-3c0-1-0.2-2-0.7-3c-0.4-0.8-1-1.5-1.8-2
			c-0.8-0.5-1.8-0.7-2.7-0.7c-1,0-1.9,0.3-2.7,0.7c-0.8,0.5-1.4,1.2-1.9,2c-0.5,0.9-0.7,1.9-0.7,3c0,1,0.2,2,0.7,3
			c0.4,0.8,1.1,1.5,1.9,2c0.9,0.6,1.9,0.8,3,0.7H274.4z M295.5,499.2c-1.2,0-2.3-0.3-3.4-0.8c-0.9-0.6-1.7-1.4-2.2-2.4v2.7h-2.1
			v-24.3h2.6v12c0.6-1,1.4-1.8,2.4-2.4c1-0.6,2.2-0.9,3.4-0.8c1.3,0,2.6,0.3,3.7,1c1.1,0.7,2,1.7,2.6,2.8c0.6,1.3,0.9,2.7,0.9,4.1
			c0,1.4-0.3,2.8-1,4.1c-0.6,1.2-1.6,2.1-2.7,2.9c-1.1,0.7-2.5,1.1-3.8,1.1H295.5z M295.1,496.9c0.9,0,1.9-0.2,2.7-0.7
			c0.8-0.5,1.5-1.2,1.9-2c0.5-0.9,0.7-1.9,0.7-3c0-1-0.2-2-0.7-3c-0.4-0.8-1-1.5-1.8-2c-0.8-0.5-1.8-0.8-2.7-0.7
			c-1,0-1.9,0.2-2.8,0.7c-0.8,0.5-1.4,1.2-1.9,2c-0.5,0.9-0.7,1.9-0.7,3c0,1,0.2,2,0.7,3c0.4,0.8,1.1,1.5,1.9,2c0.9,0.6,2,0.8,3,0.7
			H295.1z"/>
		<path class="st15" d="M155.9,495.2l8.1-1.9l0.4-0.2c0.1-0.1,0.2-0.2,0.2-0.3c0.1-0.1,0.1-0.2,0.1-0.4c0-0.1,0-0.3-0.1-0.4l-3.4-15
			c0-0.1-0.1-0.2-0.2-0.3c-0.1-0.1-0.2-0.2-0.3-0.3c-0.1-0.1-0.2-0.1-0.4-0.1c-0.1,0-0.3,0-0.4,0.1l-8.1,1.9c-0.1,0-0.2,0.1-0.3,0.2
			c-0.1,0.1-0.2,0.2-0.2,0.3c-0.1,0.2-0.1,0.5,0,0.7l3.4,15c0.1,0.2,0.2,0.5,0.4,0.6C155.4,495.3,155.7,495.3,155.9,495.2
			L155.9,495.2z"/>
		<path class="st15" d="M153.2,504.5l9.9-9.2c0.4-0.4,0.3-0.6-0.2-0.4l-6.7,1.5c-0.3,0.1-0.5,0.2-0.7,0.4c-0.2,0.2-0.4,0.4-0.5,0.7
			l-2.1,6.7C152.5,504.7,152.7,504.9,153.2,504.5z"/>
		<path class="st15" d="M135.1,501.5l14.8,4.5c0.2,0.1,0.5,0.1,0.7,0c0.2-0.1,0.4-0.3,0.5-0.6l2.5-7.9c0-0.1,0-0.3,0-0.4
			c0-0.1,0-0.2,0-0.3c-0.1-0.1-0.1-0.2-0.2-0.3l-0.4-0.2l-14.8-4.5c-0.2-0.1-0.5-0.1-0.8,0c-0.2,0.1-0.4,0.3-0.5,0.6l-2.5,7.9
			c-0.1,0.3-0.1,0.5,0,0.8C134.6,501.3,134.8,501.5,135.1,501.5L135.1,501.5z"/>
		<path class="st15" d="M130.3,485.3l3,13.1c0,0.5,0.3,0.5,0.5,0l2.1-6.7c0.1-0.3,0.1-0.6,0-0.9c-0.1-0.3-0.2-0.5-0.4-0.8l-4.7-5.1
			C130.4,484.7,130.1,484.7,130.3,485.3z"/>
		<path class="st15" d="M141.8,471.3l-11.3,10.5c-0.1,0.1-0.2,0.2-0.2,0.3c0,0.1-0.1,0.2-0.1,0.4c0,0.1,0,0.2,0,0.4
			c0,0.1,0.1,0.2,0.2,0.3l5.7,6.1c0.1,0.1,0.2,0.2,0.3,0.2c0.1,0.1,0.2,0.1,0.4,0.1c0.3,0,0.5-0.1,0.7-0.2l11.3-10.5
			c0.2-0.2,0.3-0.4,0.3-0.7c0-0.2-0.1-0.5-0.3-0.7l-5.8-6.2c-0.1-0.1-0.2-0.2-0.3-0.2c-0.1,0-0.2,0-0.4,0h-0.4
			C142,471.1,141.9,471.2,141.8,471.3L141.8,471.3z"/>
		<path class="st15" d="M152.8,494.8c0.5,0,0.8,0,0.7-0.7l-3.4-14.2c0-0.5-0.6-0.6-0.9-0.3l-10.7,9.9c-0.4,0.4-0.3,0.8,0.2,0.9
			L152.8,494.8z"/>
		<path class="st15" d="M158.4,475.2l-12.9-3.9c-0.5,0-0.6,0-0.2,0.5l4.7,5.1c0.2,0.2,0.5,0.3,0.7,0.4c0.3,0.1,0.6,0.1,0.8,0
			l6.7-1.5C158.9,475.5,158.9,475.3,158.4,475.2z"/>
		<path class="st15" d="M309.6,478.7v-3.4h-1.2v-0.6h3.1v0.6h-1.2v3.4H309.6z M312.2,478.7l0.2-3.8h0.7l1.2,2.4l1.2-2.4h0.7l0.2,3.8
			h-0.7v-2.8l-1,2.1h-0.5l-1.1-2.2v2.9L312.2,478.7z"/>
	</g>
</g>
</svg>
