<?xml version="1.0" encoding="utf-8"?>
<!-- Generator: Adobe Illustrator 19.1.0, SVG Export Plug-In . SVG Version: 6.00 Build 0)  -->
<svg version="1.1" id="Layer_1" xmlns="http://www.w3.org/2000/svg" xmlns:xlink="http://www.w3.org/1999/xlink" x="0px" y="0px"
	 viewBox="0 0 672 320" style="enable-background:new 0 0 672 320;" xml:space="preserve">
<style type="text/css">
	.st0{fill:#575E6B;}
	.st1{fill:#4591ED;}
</style>
<g>
	<g>
		<path class="st0" d="M69.3,89.3v23.9h-5.3V89.3H69.3z"/>
		<path class="st0" d="M78,95.9v2.4h0.1c0.6-1,1.4-1.7,2.3-2.2c1-0.5,1.9-0.7,3-0.7c1.3,0,2.3,0.2,3.1,0.5c0.8,0.3,1.5,0.8,1.9,1.4
			c0.5,0.6,0.8,1.4,1,2.2c0.2,0.9,0.3,1.9,0.3,2.9v10.7H85v-9.8c0-1.4-0.2-2.5-0.7-3.2c-0.4-0.7-1.2-1.1-2.4-1.1
			c-1.3,0-2.2,0.4-2.8,1.2s-0.9,2-0.9,3.8v9.1h-4.8V95.9H78z"/>
		<path class="st0" d="M91.5,99.1v-3.2h2.9v-1.3c0-1.5,0.5-2.8,1.4-3.8c1-1,2.4-1.5,4.4-1.5c0.4,0,0.8,0,1.3,0.1
			c0.4,0,0.8,0.1,1.2,0.1V93c-0.6-0.1-1.1-0.1-1.7-0.1c-0.6,0-1.1,0.2-1.4,0.5c-0.3,0.3-0.4,0.8-0.4,1.5v1h3.3v3.2h-3.3v14.2h-4.8
			V99.1H91.5z"/>
		<path class="st0" d="M109.4,89.3v23.9h-4.8V89.3H109.4z"/>
		<path class="st0" d="M124.9,113.2v-2.4h-0.1c-0.6,1-1.4,1.7-2.3,2.2c-1,0.4-1.9,0.7-3,0.7c-1.3,0-2.3-0.2-3.1-0.5
			s-1.5-0.8-1.9-1.4c-0.5-0.6-0.8-1.4-1-2.2s-0.3-1.9-0.3-2.9V95.9h4.8v9.8c0,1.4,0.2,2.5,0.7,3.2c0.4,0.7,1.2,1.1,2.4,1.1
			c1.3,0,2.2-0.4,2.8-1.2c0.6-0.8,0.9-2,0.9-3.8v-9.1h4.8v17.3H124.9z"/>
		<path class="st0" d="M131.8,95.9h5.4l3.1,4.5l3-4.5h5.3l-5.7,8.1l6.4,9.2h-5.4l-3.6-5.5l-3.6,5.5h-5.3l6.2-9.1L131.8,95.9z"/>
		<path class="st0" d="M161.9,89.3c1.5,0,3,0.2,4.3,0.7c1.3,0.5,2.5,1.2,3.5,2.2c1,1,1.7,2.2,2.3,3.7c0.5,1.5,0.8,3.2,0.8,5.2
			c0,1.7-0.2,3.4-0.7,4.8c-0.4,1.5-1.1,2.8-2,3.8s-2,1.9-3.4,2.5c-1.4,0.6-2.9,0.9-4.8,0.9h-10.3V89.3H161.9z M161.5,108.8
			c0.8,0,1.5-0.1,2.2-0.4c0.7-0.2,1.4-0.7,1.9-1.2c0.6-0.6,1-1.3,1.3-2.2c0.3-0.9,0.5-2,0.5-3.4c0-1.2-0.1-2.3-0.4-3.3
			s-0.6-1.8-1.2-2.5c-0.5-0.7-1.2-1.2-2.1-1.6s-2-0.6-3.3-0.6h-3.8v15.1H161.5z"/>
		<path class="st0" d="M187.7,89.3c1.1,0,2.2,0.1,3.1,0.3c0.9,0.2,1.7,0.5,2.4,1c0.7,0.5,1.2,1.1,1.6,1.8c0.4,0.8,0.6,1.7,0.6,2.8
			c0,1.2-0.3,2.2-0.8,3c-0.5,0.8-1.4,1.5-2.4,2c1.5,0.4,2.6,1.2,3.3,2.2c0.7,1.1,1.1,2.3,1.1,3.8c0,1.2-0.2,2.3-0.7,3.1
			c-0.5,0.9-1.1,1.6-1.9,2.2c-0.8,0.6-1.7,1-2.7,1.2c-1,0.3-2.1,0.4-3.1,0.4h-11.6V89.3H187.7z M187,99c0.9,0,1.7-0.2,2.3-0.7
			c0.6-0.4,0.9-1.2,0.9-2.2c0-0.6-0.1-1-0.3-1.4c-0.2-0.4-0.5-0.6-0.8-0.8s-0.7-0.3-1.2-0.4c-0.4-0.1-0.9-0.1-1.4-0.1h-4.9V99H187z
			 M187.3,109.1c0.5,0,1-0.1,1.5-0.2c0.5-0.1,0.9-0.3,1.2-0.5c0.4-0.2,0.6-0.6,0.9-1c0.2-0.4,0.3-0.9,0.3-1.5c0-1.2-0.3-2.1-1-2.6
			c-0.7-0.5-1.6-0.8-2.8-0.8h-5.7v6.6H187.3z"/>
	</g>
	<g>
		<path class="st0" d="M447.6,158.1v-1.6h11.2v1.6h-4.7v12.4h-1.9v-12.4H447.6z"/>
		<path class="st0" d="M465.1,169.9c-0.8,0.6-1.7,0.9-2.9,0.9c-0.8,0-1.5-0.1-2.1-0.4s-1.1-0.6-1.5-1.1c-0.4-0.5-0.7-1-0.9-1.7
			s-0.3-1.4-0.3-2.1c0-0.8,0.1-1.5,0.4-2.1c0.2-0.6,0.6-1.2,1-1.7c0.4-0.5,0.9-0.8,1.5-1.1c0.6-0.3,1.2-0.4,1.9-0.4
			c0.9,0,1.6,0.2,2.2,0.6c0.6,0.4,1.1,0.8,1.4,1.4c0.4,0.6,0.6,1.2,0.7,1.9c0.1,0.7,0.2,1.3,0.2,1.9h-7.6c0,0.4,0,0.9,0.2,1.3
			c0.1,0.4,0.3,0.8,0.6,1.1c0.3,0.3,0.6,0.6,1,0.7c0.4,0.2,0.9,0.3,1.4,0.3c0.7,0,1.3-0.2,1.7-0.5s0.7-0.8,0.9-1.5h1.6
			C466.3,168.4,465.8,169.3,465.1,169.9z M464.7,163.4c-0.1-0.4-0.4-0.7-0.6-0.9c-0.3-0.3-0.6-0.5-0.9-0.6c-0.3-0.2-0.7-0.2-1.1-0.2
			c-0.4,0-0.8,0.1-1.2,0.2c-0.3,0.1-0.6,0.4-0.9,0.6c-0.2,0.3-0.4,0.6-0.6,0.9s-0.2,0.7-0.3,1.1h5.8
			C464.9,164.1,464.8,163.7,464.7,163.4z"/>
		<path class="st0" d="M470.2,156.5v14h-1.7v-14H470.2z"/>
		<path class="st0" d="M479.9,169.9c-0.8,0.6-1.7,0.9-2.9,0.9c-0.8,0-1.5-0.1-2.1-0.4s-1.1-0.6-1.5-1.1c-0.4-0.5-0.7-1-0.9-1.7
			s-0.3-1.4-0.3-2.1c0-0.8,0.1-1.5,0.4-2.1c0.2-0.6,0.6-1.2,1-1.7c0.4-0.5,0.9-0.8,1.5-1.1c0.6-0.3,1.2-0.4,1.9-0.4
			c0.9,0,1.6,0.2,2.2,0.6c0.6,0.4,1.1,0.8,1.4,1.4c0.4,0.6,0.6,1.2,0.7,1.9c0.1,0.7,0.2,1.3,0.2,1.9H474c0,0.4,0,0.9,0.2,1.3
			c0.1,0.4,0.3,0.8,0.6,1.1c0.3,0.3,0.6,0.6,1,0.7c0.4,0.2,0.9,0.3,1.4,0.3c0.7,0,1.3-0.2,1.7-0.5s0.7-0.8,0.9-1.5h1.6
			C481.1,168.4,480.7,169.3,479.9,169.9z M479.5,163.4c-0.1-0.4-0.4-0.7-0.6-0.9c-0.3-0.3-0.6-0.5-0.9-0.6c-0.3-0.2-0.7-0.2-1.1-0.2
			c-0.4,0-0.8,0.1-1.2,0.2c-0.3,0.1-0.6,0.4-0.9,0.6c-0.2,0.3-0.4,0.6-0.6,0.9s-0.2,0.7-0.3,1.1h5.8
			C479.7,164.1,479.7,163.7,479.5,163.4z"/>
		<path class="st0" d="M490.8,173.4c-0.8,0.8-1.9,1.2-3.6,1.2c-0.5,0-0.9-0.1-1.4-0.2s-0.9-0.3-1.3-0.5c-0.4-0.2-0.7-0.5-1-0.9
			c-0.3-0.4-0.4-0.8-0.4-1.4h1.7c0,0.3,0.1,0.6,0.3,0.8c0.2,0.2,0.4,0.4,0.6,0.5c0.3,0.1,0.5,0.2,0.8,0.3s0.6,0.1,0.9,0.1
			c0.5,0,1-0.1,1.4-0.3c0.4-0.2,0.7-0.4,0.9-0.8c0.2-0.3,0.4-0.7,0.5-1.2c0.1-0.5,0.2-1,0.2-1.5v-0.7h0c-0.3,0.6-0.7,1.1-1.3,1.4
			c-0.6,0.3-1.2,0.4-1.8,0.4c-0.8,0-1.4-0.1-2-0.4c-0.6-0.3-1-0.6-1.4-1.1c-0.4-0.5-0.7-1-0.9-1.6c-0.2-0.6-0.3-1.3-0.3-2
			c0-0.6,0.1-1.2,0.2-1.8c0.2-0.6,0.4-1.2,0.8-1.7c0.4-0.5,0.8-0.9,1.4-1.3c0.6-0.3,1.3-0.5,2.2-0.5c0.6,0,1.2,0.1,1.8,0.4
			c0.5,0.3,1,0.7,1.3,1.3h0v-1.4h1.6v9.3C492,171.3,491.6,172.5,490.8,173.4z M488.7,168.8c0.4-0.2,0.7-0.5,0.9-0.9
			c0.2-0.4,0.4-0.8,0.5-1.3c0.1-0.5,0.2-0.9,0.2-1.4c0-0.4-0.1-0.9-0.2-1.3c-0.1-0.4-0.3-0.8-0.5-1.2c-0.2-0.3-0.5-0.6-0.9-0.8
			c-0.4-0.2-0.8-0.3-1.3-0.3c-0.5,0-1,0.1-1.4,0.3c-0.4,0.2-0.7,0.5-0.9,0.8c-0.2,0.3-0.4,0.7-0.5,1.2c-0.1,0.4-0.2,0.9-0.2,1.4
			c0,0.5,0,0.9,0.1,1.4c0.1,0.5,0.2,0.9,0.5,1.2c0.2,0.4,0.5,0.7,0.9,0.9s0.8,0.3,1.4,0.3C487.9,169.2,488.3,169,488.7,168.8z"/>
		<path class="st0" d="M496,160.4v2.1h0c0.4-0.8,0.9-1.4,1.5-1.8s1.3-0.6,2.2-0.5v1.8c-0.7,0-1.2,0.1-1.7,0.3
			c-0.5,0.2-0.8,0.5-1.1,0.8c-0.3,0.4-0.5,0.8-0.6,1.3c-0.1,0.5-0.2,1.1-0.2,1.7v4.5h-1.7v-10.1H496z"/>
		<path class="st0" d="M510,170.5c-0.3,0.2-0.7,0.3-1.2,0.3c-0.4,0-0.8-0.1-1-0.4c-0.3-0.2-0.4-0.6-0.4-1.2c-0.5,0.5-1,0.9-1.6,1.2
			s-1.3,0.4-2,0.4c-0.5,0-0.9-0.1-1.3-0.2s-0.8-0.3-1.1-0.5c-0.3-0.2-0.5-0.5-0.7-0.9c-0.2-0.4-0.3-0.8-0.3-1.3c0-0.6,0.1-1,0.3-1.4
			c0.2-0.4,0.5-0.7,0.8-0.9c0.3-0.2,0.7-0.4,1.1-0.5c0.4-0.1,0.8-0.2,1.3-0.3c0.5-0.1,0.9-0.2,1.3-0.2c0.4,0,0.8-0.1,1.1-0.2
			c0.3-0.1,0.6-0.2,0.7-0.4c0.2-0.2,0.3-0.4,0.3-0.7c0-0.4-0.1-0.7-0.2-0.9s-0.3-0.4-0.5-0.5c-0.2-0.1-0.5-0.2-0.7-0.2
			c-0.3,0-0.5-0.1-0.8-0.1c-0.7,0-1.3,0.1-1.8,0.4s-0.7,0.8-0.8,1.5h-1.7c0-0.6,0.2-1.2,0.4-1.6c0.2-0.4,0.5-0.8,0.9-1
			c0.4-0.3,0.8-0.5,1.3-0.6c0.5-0.1,1-0.2,1.6-0.2c0.5,0,0.9,0,1.4,0.1c0.5,0.1,0.9,0.2,1.2,0.4s0.7,0.5,0.9,0.8s0.3,0.8,0.3,1.4
			v5.2c0,0.4,0,0.7,0.1,0.9c0,0.2,0.2,0.3,0.5,0.3c0.1,0,0.3,0,0.5-0.1V170.5z M507.3,165.3c-0.2,0.2-0.5,0.3-0.8,0.3
			c-0.3,0.1-0.7,0.1-1.1,0.2c-0.4,0-0.7,0.1-1.1,0.2c-0.4,0.1-0.7,0.2-1,0.3c-0.3,0.1-0.5,0.3-0.7,0.6c-0.2,0.2-0.3,0.6-0.3,1
			c0,0.3,0.1,0.5,0.2,0.7c0.1,0.2,0.3,0.3,0.4,0.5c0.2,0.1,0.4,0.2,0.6,0.3c0.2,0.1,0.5,0.1,0.7,0.1c0.5,0,1-0.1,1.4-0.2
			c0.4-0.1,0.7-0.3,1-0.6c0.2-0.2,0.4-0.5,0.5-0.7c0.1-0.3,0.2-0.5,0.2-0.8V165.3z"/>
		<path class="st0" d="M510.5,161.9v-1.5h1.7v-1.5c0-0.8,0.2-1.4,0.7-1.9c0.5-0.4,1.2-0.6,2.1-0.6c0.2,0,0.3,0,0.5,0
			c0.2,0,0.4,0.1,0.5,0.1v1.4c-0.1-0.1-0.3-0.1-0.5-0.1c-0.2,0-0.3,0-0.5,0c-0.4,0-0.7,0.1-0.9,0.2c-0.2,0.2-0.3,0.5-0.3,0.9v1.4h2
			v1.5h-2v8.6h-1.7v-8.6H510.5z"/>
		<path class="st0" d="M452,184.5v14h-3.1v-14H452z"/>
		<path class="st0" d="M457.1,188.4v1.4h0.1c0.4-0.6,0.8-1,1.4-1.3c0.6-0.3,1.1-0.4,1.7-0.4c0.7,0,1.4,0.1,1.8,0.3
			c0.5,0.2,0.9,0.5,1.1,0.8c0.3,0.4,0.5,0.8,0.6,1.3c0.1,0.5,0.2,1.1,0.2,1.7v6.2h-2.8v-5.7c0-0.8-0.1-1.5-0.4-1.9
			c-0.3-0.4-0.7-0.6-1.4-0.6c-0.8,0-1.3,0.2-1.6,0.7c-0.3,0.4-0.5,1.2-0.5,2.2v5.3h-2.8v-10.1H457.1z"/>
		<path class="st0" d="M465,190.3v-1.9h1.7v-0.8c0-0.9,0.3-1.6,0.8-2.2c0.6-0.6,1.4-0.9,2.5-0.9c0.2,0,0.5,0,0.7,0s0.5,0,0.7,0v2.1
			c-0.3,0-0.7-0.1-1-0.1c-0.4,0-0.6,0.1-0.8,0.3c-0.2,0.2-0.2,0.5-0.2,0.9v0.6h1.9v1.9h-1.9v8.3h-2.8v-8.3H465z"/>
		<path class="st0" d="M475.4,184.5v14h-2.8v-14H475.4z"/>
		<path class="st0" d="M484.4,198.5v-1.4h-0.1c-0.4,0.6-0.8,1-1.4,1.3c-0.6,0.3-1.1,0.4-1.7,0.4c-0.7,0-1.4-0.1-1.8-0.3
			c-0.5-0.2-0.9-0.5-1.1-0.8c-0.3-0.4-0.5-0.8-0.6-1.3c-0.1-0.5-0.2-1.1-0.2-1.7v-6.2h2.8v5.7c0,0.8,0.1,1.5,0.4,1.9
			c0.3,0.4,0.7,0.6,1.4,0.6c0.8,0,1.3-0.2,1.6-0.7c0.3-0.4,0.5-1.2,0.5-2.2v-5.3h2.8v10.1H484.4z"/>
		<path class="st0" d="M488.4,188.4h3.2l1.8,2.6l1.8-2.6h3.1l-3.3,4.7l3.7,5.4h-3.2l-2.1-3.2l-2.1,3.2h-3.1l3.6-5.3L488.4,188.4z"/>
		<path class="st0" d="M506,184.5c0.9,0,1.7,0.1,2.5,0.4c0.8,0.3,1.4,0.7,2,1.3c0.6,0.6,1,1.3,1.3,2.2c0.3,0.9,0.5,1.9,0.5,3
			c0,1-0.1,2-0.4,2.8c-0.3,0.9-0.7,1.6-1.2,2.2c-0.5,0.6-1.2,1.1-2,1.5c-0.8,0.4-1.7,0.5-2.8,0.5h-6v-14H506z M505.8,195.9
			c0.4,0,0.9-0.1,1.3-0.2c0.4-0.1,0.8-0.4,1.1-0.7c0.3-0.3,0.6-0.8,0.8-1.3c0.2-0.5,0.3-1.2,0.3-2c0-0.7-0.1-1.3-0.2-1.9
			c-0.1-0.6-0.4-1.1-0.7-1.5c-0.3-0.4-0.7-0.7-1.2-0.9c-0.5-0.2-1.2-0.3-1.9-0.3H503v8.8H505.8z"/>
		<path class="st0" d="M521,184.5c0.7,0,1.3,0.1,1.8,0.2c0.5,0.1,1,0.3,1.4,0.6c0.4,0.3,0.7,0.6,0.9,1.1c0.2,0.4,0.3,1,0.3,1.6
			c0,0.7-0.2,1.3-0.5,1.8c-0.3,0.5-0.8,0.9-1.4,1.2c0.9,0.2,1.5,0.7,1.9,1.3s0.6,1.4,0.6,2.2c0,0.7-0.1,1.3-0.4,1.8
			c-0.3,0.5-0.6,0.9-1.1,1.3c-0.5,0.3-1,0.6-1.6,0.7c-0.6,0.2-1.2,0.2-1.8,0.2h-6.8v-14H521z M520.7,190.2c0.5,0,1-0.1,1.4-0.4
			c0.4-0.3,0.5-0.7,0.5-1.3c0-0.3-0.1-0.6-0.2-0.8c-0.1-0.2-0.3-0.4-0.5-0.5c-0.2-0.1-0.4-0.2-0.7-0.2c-0.3,0-0.5-0.1-0.8-0.1h-2.9
			v3.3H520.7z M520.8,196.1c0.3,0,0.6,0,0.9-0.1c0.3-0.1,0.5-0.2,0.7-0.3c0.2-0.1,0.4-0.3,0.5-0.6c0.1-0.2,0.2-0.5,0.2-0.9
			c0-0.7-0.2-1.2-0.6-1.5s-0.9-0.5-1.6-0.5h-3.3v3.8H520.8z"/>
		<path class="st0" d="M457.6,214.5c-0.7-0.5-1.6-0.7-2.5-0.7c-0.8,0-1.5,0.2-2.1,0.5c-0.6,0.3-1.1,0.7-1.5,1.3s-0.7,1.1-0.9,1.8
			c-0.2,0.7-0.3,1.4-0.3,2.1c0,0.8,0.1,1.5,0.3,2.3c0.2,0.7,0.5,1.3,0.9,1.9s0.9,0.9,1.5,1.3c0.6,0.3,1.3,0.5,2.2,0.5
			c0.6,0,1.2-0.1,1.6-0.3c0.5-0.2,0.9-0.5,1.2-0.8s0.6-0.8,0.8-1.3c0.2-0.5,0.3-1,0.4-1.6h1.9c-0.2,1.8-0.8,3.1-1.8,4.1
			c-1,1-2.4,1.5-4.2,1.5c-1.1,0-2-0.2-2.8-0.6c-0.8-0.4-1.5-0.9-2-1.5c-0.5-0.7-0.9-1.4-1.2-2.3s-0.4-1.8-0.4-2.9c0-1,0.1-2,0.4-2.9
			c0.3-0.9,0.7-1.7,1.3-2.3c0.6-0.7,1.2-1.2,2.1-1.6c0.8-0.4,1.8-0.6,2.8-0.6c0.7,0,1.4,0.1,2.1,0.3s1.2,0.5,1.7,0.9
			c0.5,0.4,0.9,0.9,1.3,1.4c0.3,0.6,0.6,1.2,0.7,2h-1.9C458.7,215.8,458.3,215,457.6,214.5z"/>
		<path class="st0" d="M464.6,212.6v5.3h0c0.1-0.3,0.3-0.6,0.5-0.8c0.2-0.2,0.5-0.4,0.8-0.5c0.3-0.1,0.6-0.2,0.9-0.3
			s0.6-0.1,0.9-0.1c0.7,0,1.2,0.1,1.7,0.3s0.8,0.4,1.1,0.8c0.3,0.3,0.5,0.7,0.6,1.2c0.1,0.5,0.2,0.9,0.2,1.5v6.7h-1.7v-6.8
			c0-0.6-0.2-1.1-0.5-1.5s-0.9-0.5-1.5-0.5c-0.5,0-0.9,0.1-1.3,0.2c-0.4,0.2-0.7,0.4-0.9,0.7c-0.2,0.3-0.4,0.6-0.6,1
			c-0.1,0.4-0.2,0.8-0.2,1.3v5.7H463v-14H464.6z"/>
		<path class="st0" d="M475.3,216.4v2.1h0c0.4-0.8,0.9-1.4,1.5-1.8c0.6-0.4,1.3-0.6,2.2-0.5v1.8c-0.7,0-1.2,0.1-1.7,0.3
			c-0.5,0.2-0.8,0.5-1.1,0.8c-0.3,0.4-0.5,0.8-0.6,1.3c-0.1,0.5-0.2,1.1-0.2,1.7v4.5h-1.7v-10.1H475.3z"/>
		<path class="st0" d="M479.8,219.4c0.2-0.6,0.5-1.2,0.9-1.7c0.4-0.5,0.9-0.9,1.5-1.1c0.6-0.3,1.3-0.4,2.1-0.4
			c0.8,0,1.5,0.1,2.1,0.4c0.6,0.3,1.1,0.6,1.5,1.1c0.4,0.5,0.7,1,0.9,1.7s0.3,1.3,0.3,2.1s-0.1,1.4-0.3,2.1
			c-0.2,0.6-0.5,1.2-0.9,1.7c-0.4,0.5-0.9,0.8-1.5,1.1c-0.6,0.3-1.3,0.4-2.1,0.4c-0.8,0-1.5-0.1-2.1-0.4c-0.6-0.3-1.1-0.6-1.5-1.1
			c-0.4-0.5-0.7-1-0.9-1.7c-0.2-0.6-0.3-1.3-0.3-2.1S479.6,220,479.8,219.4z M481.5,223.1c0.2,0.5,0.4,0.9,0.7,1.2s0.6,0.6,1,0.7
			c0.4,0.2,0.8,0.3,1.2,0.3s0.8-0.1,1.2-0.3c0.4-0.2,0.7-0.4,1-0.7s0.5-0.7,0.7-1.2s0.2-1,0.2-1.6s-0.1-1.2-0.2-1.6
			c-0.2-0.5-0.4-0.9-0.7-1.2s-0.6-0.6-1-0.7c-0.4-0.2-0.8-0.3-1.2-0.3s-0.8,0.1-1.2,0.3c-0.4,0.2-0.7,0.4-1,0.7s-0.5,0.7-0.7,1.2
			c-0.2,0.5-0.2,1-0.2,1.6S481.3,222.6,481.5,223.1z"/>
		<path class="st0" d="M492.8,216.4v1.6h0c0.7-1.2,1.8-1.8,3.3-1.8c0.7,0,1.2,0.1,1.7,0.3s0.8,0.4,1.1,0.8c0.3,0.3,0.5,0.7,0.6,1.2
			c0.1,0.5,0.2,0.9,0.2,1.5v6.7h-1.7v-6.8c0-0.6-0.2-1.1-0.5-1.5s-0.9-0.5-1.5-0.5c-0.5,0-0.9,0.1-1.3,0.2c-0.4,0.2-0.7,0.4-0.9,0.7
			c-0.2,0.3-0.4,0.6-0.6,1c-0.1,0.4-0.2,0.8-0.2,1.3v5.7h-1.7v-10.1H492.8z"/>
		<path class="st0" d="M501.9,219.4c0.2-0.6,0.5-1.2,0.9-1.7c0.4-0.5,0.9-0.9,1.5-1.1c0.6-0.3,1.3-0.4,2.1-0.4
			c0.8,0,1.5,0.1,2.1,0.4c0.6,0.3,1.1,0.6,1.5,1.1c0.4,0.5,0.7,1,0.9,1.7s0.3,1.3,0.3,2.1s-0.1,1.4-0.3,2.1
			c-0.2,0.6-0.5,1.2-0.9,1.7c-0.4,0.5-0.9,0.8-1.5,1.1c-0.6,0.3-1.3,0.4-2.1,0.4c-0.8,0-1.5-0.1-2.1-0.4c-0.6-0.3-1.1-0.6-1.5-1.1
			c-0.4-0.5-0.7-1-0.9-1.7c-0.2-0.6-0.3-1.3-0.3-2.1S501.7,220,501.9,219.4z M503.6,223.1c0.2,0.5,0.4,0.9,0.7,1.2s0.6,0.6,1,0.7
			c0.4,0.2,0.8,0.3,1.2,0.3s0.8-0.1,1.2-0.3c0.4-0.2,0.7-0.4,1-0.7s0.5-0.7,0.7-1.2s0.2-1,0.2-1.6s-0.1-1.2-0.2-1.6
			c-0.2-0.5-0.4-0.9-0.7-1.2s-0.6-0.6-1-0.7c-0.4-0.2-0.8-0.3-1.2-0.3s-0.8,0.1-1.2,0.3c-0.4,0.2-0.7,0.4-1,0.7s-0.5,0.7-0.7,1.2
			c-0.2,0.5-0.2,1-0.2,1.6S503.4,222.6,503.6,223.1z"/>
		<path class="st0" d="M520.9,229.4c-0.8,0.8-1.9,1.2-3.6,1.2c-0.5,0-0.9-0.1-1.4-0.2s-0.9-0.3-1.3-0.5c-0.4-0.2-0.7-0.5-1-0.9
			c-0.3-0.4-0.4-0.8-0.4-1.4h1.7c0,0.3,0.1,0.6,0.3,0.8c0.2,0.2,0.4,0.4,0.6,0.5c0.3,0.1,0.5,0.2,0.8,0.3s0.6,0.1,0.9,0.1
			c0.5,0,1-0.1,1.4-0.3c0.4-0.2,0.7-0.4,0.9-0.8c0.2-0.3,0.4-0.7,0.5-1.2c0.1-0.5,0.2-1,0.2-1.5v-0.7h0c-0.3,0.6-0.7,1.1-1.3,1.4
			c-0.6,0.3-1.2,0.4-1.8,0.4c-0.8,0-1.4-0.1-2-0.4c-0.6-0.3-1-0.6-1.4-1.1c-0.4-0.5-0.7-1-0.9-1.6c-0.2-0.6-0.3-1.3-0.3-2
			c0-0.6,0.1-1.2,0.2-1.8c0.2-0.6,0.4-1.2,0.8-1.7c0.4-0.5,0.8-0.9,1.4-1.3c0.6-0.3,1.3-0.5,2.2-0.5c0.6,0,1.2,0.1,1.8,0.4
			c0.5,0.3,1,0.7,1.3,1.3h0v-1.4h1.6v9.3C522.1,227.3,521.7,228.6,520.9,229.4z M518.8,224.8c0.4-0.2,0.7-0.5,0.9-0.9
			c0.2-0.4,0.4-0.8,0.5-1.3c0.1-0.5,0.2-0.9,0.2-1.4c0-0.4-0.1-0.9-0.2-1.3c-0.1-0.4-0.3-0.8-0.5-1.2c-0.2-0.3-0.5-0.6-0.9-0.8
			c-0.4-0.2-0.8-0.3-1.3-0.3c-0.5,0-1,0.1-1.4,0.3c-0.4,0.2-0.7,0.5-0.9,0.8c-0.2,0.3-0.4,0.7-0.5,1.2c-0.1,0.4-0.2,0.9-0.2,1.4
			c0,0.5,0,0.9,0.1,1.4c0.1,0.5,0.2,0.9,0.5,1.2c0.2,0.4,0.5,0.7,0.9,0.9s0.8,0.3,1.4,0.3C518,225.2,518.4,225.1,518.8,224.8z"/>
		<path class="st0" d="M526.1,216.4v2.1h0c0.4-0.8,0.9-1.4,1.5-1.8c0.6-0.4,1.3-0.6,2.2-0.5v1.8c-0.7,0-1.2,0.1-1.7,0.3
			c-0.5,0.2-0.8,0.5-1.1,0.8c-0.3,0.4-0.5,0.8-0.6,1.3c-0.1,0.5-0.2,1.1-0.2,1.7v4.5h-1.7v-10.1H526.1z"/>
		<path class="st0" d="M540,226.5c-0.3,0.2-0.7,0.3-1.2,0.3c-0.4,0-0.8-0.1-1-0.4c-0.3-0.2-0.4-0.6-0.4-1.2c-0.5,0.5-1,0.9-1.6,1.2
			s-1.3,0.4-2,0.4c-0.5,0-0.9-0.1-1.3-0.2s-0.8-0.3-1.1-0.5c-0.3-0.2-0.5-0.5-0.7-0.9c-0.2-0.4-0.3-0.8-0.3-1.3c0-0.6,0.1-1,0.3-1.4
			c0.2-0.4,0.5-0.7,0.8-0.9c0.3-0.2,0.7-0.4,1.1-0.5c0.4-0.1,0.8-0.2,1.3-0.3c0.5-0.1,0.9-0.2,1.3-0.2c0.4,0,0.8-0.1,1.1-0.2
			c0.3-0.1,0.6-0.2,0.7-0.4c0.2-0.2,0.3-0.4,0.3-0.7c0-0.4-0.1-0.7-0.2-0.9s-0.3-0.4-0.5-0.5c-0.2-0.1-0.5-0.2-0.7-0.2
			c-0.3,0-0.5-0.1-0.8-0.1c-0.7,0-1.3,0.1-1.8,0.4s-0.7,0.8-0.8,1.5h-1.7c0-0.6,0.2-1.2,0.4-1.6c0.2-0.4,0.5-0.8,0.9-1
			c0.4-0.3,0.8-0.5,1.3-0.6c0.5-0.1,1-0.2,1.6-0.2c0.5,0,0.9,0,1.4,0.1c0.5,0.1,0.9,0.2,1.2,0.4c0.4,0.2,0.7,0.5,0.9,0.8
			s0.3,0.8,0.3,1.4v5.2c0,0.4,0,0.7,0.1,0.9c0,0.2,0.2,0.3,0.5,0.3c0.1,0,0.3,0,0.5-0.1V226.5z M537.3,221.3
			c-0.2,0.2-0.5,0.3-0.8,0.3c-0.3,0.1-0.7,0.1-1.1,0.2c-0.4,0-0.7,0.1-1.1,0.2c-0.4,0.1-0.7,0.2-1,0.3c-0.3,0.1-0.5,0.3-0.7,0.6
			c-0.2,0.2-0.3,0.6-0.3,1c0,0.3,0.1,0.5,0.2,0.7c0.1,0.2,0.3,0.3,0.4,0.5c0.2,0.1,0.4,0.2,0.6,0.3c0.2,0.1,0.5,0.1,0.7,0.1
			c0.5,0,1-0.1,1.4-0.2c0.4-0.1,0.7-0.3,1-0.6c0.2-0.2,0.4-0.5,0.5-0.7c0.1-0.3,0.2-0.5,0.2-0.8V221.3z"/>
		<path class="st0" d="M540.6,217.9v-1.5h1.7v-1.5c0-0.8,0.2-1.4,0.7-1.9c0.5-0.4,1.2-0.6,2.1-0.6c0.2,0,0.3,0,0.5,0
			s0.4,0.1,0.5,0.1v1.4c-0.1-0.1-0.3-0.1-0.5-0.1c-0.2,0-0.3,0-0.5,0c-0.4,0-0.7,0.1-0.9,0.2c-0.2,0.2-0.3,0.5-0.3,0.9v1.4h2v1.5h-2
			v8.6h-1.7v-8.6H540.6z"/>
		<path class="st0" d="M451,240.6v7l7.1-7h2.4l-5.9,5.6l6.1,8.3h-2.3l-5-7.1l-2.3,2.2v4.9h-1.9v-14H451z"/>
		<path class="st0" d="M468.8,256.2c-0.4-0.7-0.7-1.5-1-2.2s-0.5-1.5-0.6-2.3s-0.2-1.6-0.2-2.5c0-1.5,0.3-3.1,0.8-4.7s1.3-3,2.3-4.4
			h1.3c-0.9,1.5-1.6,3-2,4.4c-0.4,1.5-0.6,3-0.6,4.6c0,1.6,0.2,3.2,0.6,4.7c0.4,1.5,1.1,3,2,4.5h-1.3
			C469.6,257.7,469.2,256.9,468.8,256.2z"/>
		<path class="st0" d="M474.6,240.6l7.4,11.3h0v-11.3h1.8v14h-2l-7.3-11.2h0v11.2h-1.8v-14H474.6z"/>
		<path class="st0" d="M495.5,254.5c-0.3,0.2-0.7,0.3-1.2,0.3c-0.4,0-0.8-0.1-1-0.4c-0.3-0.2-0.4-0.6-0.4-1.2
			c-0.5,0.5-1,0.9-1.6,1.2s-1.3,0.4-2,0.4c-0.5,0-0.9-0.1-1.3-0.2s-0.8-0.3-1.1-0.5c-0.3-0.2-0.5-0.5-0.7-0.9
			c-0.2-0.4-0.3-0.8-0.3-1.3c0-0.6,0.1-1,0.3-1.4c0.2-0.4,0.5-0.7,0.8-0.9c0.3-0.2,0.7-0.4,1.1-0.5c0.4-0.1,0.8-0.2,1.3-0.3
			c0.5-0.1,0.9-0.2,1.3-0.2c0.4,0,0.8-0.1,1.1-0.2c0.3-0.1,0.6-0.2,0.7-0.4c0.2-0.2,0.3-0.4,0.3-0.7c0-0.4-0.1-0.7-0.2-0.9
			s-0.3-0.4-0.5-0.5c-0.2-0.1-0.5-0.2-0.7-0.2c-0.3,0-0.5-0.1-0.8-0.1c-0.7,0-1.3,0.1-1.8,0.4s-0.7,0.8-0.8,1.5h-1.7
			c0-0.6,0.2-1.2,0.4-1.6c0.2-0.4,0.5-0.8,0.9-1c0.4-0.3,0.8-0.5,1.3-0.6c0.5-0.1,1-0.2,1.6-0.2c0.5,0,0.9,0,1.4,0.1
			c0.5,0.1,0.9,0.2,1.2,0.4c0.4,0.2,0.7,0.5,0.9,0.8s0.3,0.8,0.3,1.4v5.2c0,0.4,0,0.7,0.1,0.9c0,0.2,0.2,0.3,0.5,0.3
			c0.1,0,0.3,0,0.5-0.1V254.5z M492.8,249.3c-0.2,0.2-0.5,0.3-0.8,0.3c-0.3,0.1-0.7,0.1-1.1,0.2c-0.4,0-0.7,0.1-1.1,0.2
			c-0.4,0.1-0.7,0.2-1,0.3c-0.3,0.1-0.5,0.3-0.7,0.6c-0.2,0.2-0.3,0.6-0.3,1c0,0.3,0.1,0.5,0.2,0.7c0.1,0.2,0.3,0.3,0.4,0.5
			c0.2,0.1,0.4,0.2,0.6,0.3c0.2,0.1,0.5,0.1,0.7,0.1c0.5,0,1-0.1,1.4-0.2c0.4-0.1,0.7-0.3,1-0.6c0.2-0.2,0.4-0.5,0.5-0.7
			c0.1-0.3,0.2-0.5,0.2-0.8V249.3z"/>
		<path class="st0" d="M498.6,244.4v1.5h0c0.8-1.1,1.8-1.7,3.3-1.7c0.6,0,1.2,0.1,1.7,0.4c0.5,0.3,0.9,0.7,1.1,1.3
			c0.3-0.5,0.8-1,1.3-1.3c0.6-0.3,1.2-0.5,1.8-0.5c0.5,0,1,0.1,1.4,0.2c0.4,0.1,0.8,0.3,1.1,0.5c0.3,0.2,0.5,0.5,0.7,0.9
			c0.2,0.4,0.2,0.8,0.2,1.3v7.4h-1.7v-6.6c0-0.3,0-0.6-0.1-0.9c-0.1-0.3-0.1-0.5-0.3-0.7c-0.1-0.2-0.3-0.4-0.6-0.5
			c-0.3-0.1-0.6-0.2-1-0.2c-0.8,0-1.5,0.2-1.9,0.7c-0.5,0.5-0.7,1.1-0.7,1.9v6.3h-1.7v-6.6c0-0.3,0-0.6-0.1-0.9
			c-0.1-0.3-0.2-0.5-0.3-0.7s-0.3-0.4-0.6-0.5c-0.2-0.1-0.6-0.2-0.9-0.2c-0.5,0-0.9,0.1-1.2,0.3c-0.3,0.2-0.6,0.4-0.8,0.7
			c-0.2,0.3-0.4,0.6-0.5,0.9c-0.1,0.3-0.1,0.5-0.1,0.7v6.3H497v-10.1H498.6z"/>
		<path class="st0" d="M520.9,253.9c-0.8,0.6-1.7,0.9-2.9,0.9c-0.8,0-1.5-0.1-2.1-0.4s-1.1-0.6-1.5-1.1c-0.4-0.5-0.7-1-0.9-1.7
			s-0.3-1.4-0.3-2.1c0-0.8,0.1-1.5,0.4-2.1c0.2-0.6,0.6-1.2,1-1.7c0.4-0.5,0.9-0.8,1.5-1.1c0.6-0.3,1.2-0.4,1.9-0.4
			c0.9,0,1.6,0.2,2.2,0.6c0.6,0.4,1.1,0.8,1.4,1.4c0.4,0.6,0.6,1.2,0.7,1.9c0.1,0.7,0.2,1.3,0.2,1.9h-7.6c0,0.4,0,0.9,0.2,1.3
			c0.1,0.4,0.3,0.8,0.6,1.1c0.3,0.3,0.6,0.6,1,0.7c0.4,0.2,0.9,0.3,1.4,0.3c0.7,0,1.3-0.2,1.7-0.5s0.7-0.8,0.9-1.5h1.6
			C522.1,252.5,521.6,253.3,520.9,253.9z M520.5,247.4c-0.1-0.4-0.4-0.7-0.6-0.9c-0.3-0.3-0.6-0.5-0.9-0.6c-0.3-0.2-0.7-0.2-1.1-0.2
			c-0.4,0-0.8,0.1-1.2,0.2c-0.3,0.1-0.6,0.4-0.9,0.6c-0.2,0.3-0.4,0.6-0.6,0.9s-0.2,0.7-0.3,1.1h5.8
			C520.7,248.1,520.6,247.8,520.5,247.4z"/>
		<path class="st0" d="M528.4,242.1v-1.6h11.2v1.6H535v12.4h-1.9v-12.4H528.4z"/>
		<path class="st0" d="M546.2,240.6c0.3,0,0.6,0,1,0c0.3,0,0.7,0,1,0.1c0.3,0,0.7,0.1,0.9,0.1c0.3,0.1,0.5,0.2,0.8,0.3
			c0.5,0.3,0.8,0.7,1.2,1.1c0.3,0.5,0.5,1.1,0.5,1.8c0,0.7-0.2,1.4-0.5,1.9c-0.4,0.5-0.9,0.9-1.5,1.2v0c0.9,0.2,1.5,0.6,2,1.2
			s0.7,1.3,0.7,2.2c0,0.5-0.1,1-0.3,1.5c-0.2,0.5-0.5,0.9-0.8,1.3c-0.4,0.4-0.8,0.7-1.3,0.9c-0.5,0.2-1.1,0.3-1.8,0.3h-6.8v-14
			H546.2z M546.7,246.6c1.1,0,1.8-0.2,2.3-0.6c0.5-0.4,0.7-0.9,0.7-1.7c0-0.5-0.1-0.9-0.2-1.2c-0.2-0.3-0.4-0.5-0.6-0.7
			c-0.3-0.2-0.6-0.3-0.9-0.3c-0.4,0-0.7-0.1-1.1-0.1H543v4.4H546.7z M547.7,253c0.8,0,1.5-0.2,1.9-0.7s0.7-1.1,0.7-1.8
			c0-0.5-0.1-0.8-0.3-1.1c-0.2-0.3-0.4-0.5-0.7-0.7c-0.3-0.2-0.6-0.3-1-0.4c-0.4-0.1-0.7-0.1-1.1-0.1H543v4.8H547.7z"/>
		<path class="st0" d="M559.4,240.6c2.2,0,3.8,0.5,5,1.6s1.7,2.8,1.7,5c0,1.2-0.1,2.2-0.4,3.1c-0.3,0.9-0.7,1.7-1.2,2.3
			c-0.5,0.6-1.2,1.1-2.1,1.4c-0.8,0.3-1.9,0.5-3,0.5h-4.8v-14H559.4z M559.5,253c0.2,0,0.5,0,0.8,0c0.3,0,0.6-0.1,1-0.2
			c0.4-0.1,0.7-0.3,1-0.5c0.3-0.2,0.7-0.6,0.9-1c0.3-0.4,0.5-0.9,0.7-1.5c0.2-0.6,0.3-1.3,0.3-2.2c0-0.8-0.1-1.6-0.2-2.2
			c-0.2-0.7-0.4-1.2-0.8-1.7c-0.4-0.5-0.9-0.8-1.4-1.1c-0.6-0.2-1.3-0.4-2.2-0.4h-3.1V253H559.5z"/>
		<path class="st0" d="M568.6,254c0.4-1.5,0.6-3,0.6-4.6c0-1.6-0.2-3.2-0.6-4.7c-0.4-1.5-1.1-3-2-4.5h1.3c0.5,0.7,0.9,1.5,1.3,2.2
			c0.4,0.7,0.7,1.5,1,2.2s0.5,1.5,0.6,2.3c0.1,0.8,0.2,1.6,0.2,2.5c0,1.5-0.3,3.1-0.8,4.6s-1.3,3-2.3,4.4h-1.3
			C567.6,256.9,568.2,255.5,568.6,254z"/>
	</g>
	<g>
		<path class="st0" d="M455.2,89.3v23.9h-5.3V89.3H455.2z"/>
		<path class="st0" d="M463.8,95.9v2.4h0.1c0.6-1,1.4-1.7,2.3-2.2c1-0.5,1.9-0.7,3-0.7c1.3,0,2.3,0.2,3.1,0.5s1.5,0.8,1.9,1.4
			c0.5,0.6,0.8,1.4,1,2.2c0.2,0.9,0.3,1.9,0.3,2.9v10.7h-4.8v-9.8c0-1.4-0.2-2.5-0.7-3.2c-0.4-0.7-1.2-1.1-2.4-1.1
			c-1.3,0-2.2,0.4-2.8,1.2c-0.6,0.8-0.9,2-0.9,3.8v9.1h-4.8V95.9H463.8z"/>
		<path class="st0" d="M477.4,99.1v-3.2h2.9v-1.3c0-1.5,0.5-2.8,1.4-3.8c1-1,2.4-1.5,4.4-1.5c0.4,0,0.8,0,1.3,0.1
			c0.4,0,0.8,0.1,1.2,0.1V93c-0.6-0.1-1.1-0.1-1.7-0.1c-0.6,0-1.1,0.2-1.4,0.5c-0.3,0.3-0.4,0.8-0.4,1.5v1h3.3v3.2H485v14.2h-4.8
			V99.1H477.4z"/>
		<path class="st0" d="M495.2,89.3v23.9h-4.8V89.3H495.2z"/>
		<path class="st0" d="M510.7,113.2v-2.4h-0.1c-0.6,1-1.4,1.7-2.3,2.2c-1,0.4-1.9,0.7-3,0.7c-1.3,0-2.3-0.2-3.1-0.5
			c-0.8-0.3-1.5-0.8-1.9-1.4c-0.5-0.6-0.8-1.4-1-2.2c-0.2-0.9-0.3-1.9-0.3-2.9V95.9h4.8v9.8c0,1.4,0.2,2.5,0.7,3.2
			c0.4,0.7,1.2,1.1,2.4,1.1c1.3,0,2.2-0.4,2.8-1.2s0.9-2,0.9-3.8v-9.1h4.8v17.3H510.7z"/>
		<path class="st0" d="M517.6,95.9h5.4l3.1,4.5l3-4.5h5.3l-5.7,8.1l6.4,9.2h-5.4l-3.6-5.5l-3.6,5.5h-5.3l6.2-9.1L517.6,95.9z"/>
		<path class="st0" d="M547.7,89.3c1.5,0,3,0.2,4.3,0.7c1.3,0.5,2.5,1.2,3.5,2.2c1,1,1.7,2.2,2.3,3.7c0.5,1.5,0.8,3.2,0.8,5.2
			c0,1.7-0.2,3.4-0.7,4.8s-1.1,2.8-2,3.8c-0.9,1.1-2,1.9-3.4,2.5c-1.4,0.6-2.9,0.9-4.8,0.9h-10.3V89.3H547.7z M547.4,108.8
			c0.8,0,1.5-0.1,2.2-0.4c0.7-0.2,1.4-0.7,1.9-1.2c0.6-0.6,1-1.3,1.3-2.2c0.3-0.9,0.5-2,0.5-3.4c0-1.2-0.1-2.3-0.4-3.3
			c-0.2-1-0.6-1.8-1.2-2.5c-0.5-0.7-1.2-1.2-2.1-1.6c-0.9-0.4-2-0.6-3.3-0.6h-3.8v15.1H547.4z"/>
		<path class="st0" d="M561.6,101.2c0.1-1.1,0.3-2,0.8-2.8s1.1-1.3,1.9-1.8c0.8-0.4,1.6-0.8,2.6-1s1.9-0.3,2.9-0.3
			c0.9,0,1.8,0.1,2.6,0.2c0.9,0.1,1.7,0.4,2.4,0.7c0.7,0.4,1.3,0.9,1.8,1.5s0.7,1.5,0.7,2.5v9c0,0.8,0,1.5,0.1,2.2
			c0.1,0.7,0.2,1.3,0.5,1.6h-4.8c-0.1-0.3-0.2-0.5-0.2-0.8c-0.1-0.3-0.1-0.6-0.1-0.9c-0.8,0.8-1.7,1.3-2.7,1.6
			c-1,0.3-2.1,0.5-3.2,0.5c-0.8,0-1.6-0.1-2.3-0.3s-1.3-0.5-1.9-0.9c-0.5-0.4-1-1-1.3-1.6c-0.3-0.6-0.5-1.4-0.5-2.3
			c0-1,0.2-1.8,0.5-2.4c0.3-0.6,0.8-1.1,1.3-1.5c0.5-0.4,1.2-0.7,1.9-0.9c0.7-0.2,1.4-0.3,2.1-0.5c0.7-0.1,1.4-0.2,2.1-0.3
			c0.7-0.1,1.3-0.2,1.8-0.3c0.5-0.1,1-0.3,1.3-0.6c0.3-0.3,0.5-0.6,0.4-1.1c0-0.5-0.1-0.9-0.3-1.2c-0.2-0.3-0.4-0.5-0.7-0.7
			c-0.3-0.2-0.6-0.3-1-0.3c-0.4-0.1-0.8-0.1-1.2-0.1c-0.9,0-1.7,0.2-2.2,0.6c-0.5,0.4-0.8,1.1-0.9,2H561.6z M572.6,104.7
			c-0.2,0.2-0.5,0.3-0.8,0.4s-0.6,0.2-1,0.3s-0.7,0.1-1.1,0.2c-0.4,0-0.8,0.1-1.1,0.2c-0.4,0.1-0.7,0.2-1.1,0.3
			c-0.3,0.1-0.6,0.3-0.9,0.5c-0.3,0.2-0.5,0.4-0.6,0.7c-0.2,0.3-0.2,0.7-0.2,1.1c0,0.4,0.1,0.8,0.2,1.1c0.2,0.3,0.4,0.5,0.6,0.7
			c0.3,0.2,0.6,0.3,0.9,0.4c0.4,0.1,0.7,0.1,1.1,0.1c0.9,0,1.7-0.2,2.2-0.5c0.5-0.3,0.9-0.7,1.1-1.1s0.4-0.9,0.5-1.3
			s0.1-0.8,0.1-1.1V104.7z"/>
		<path class="st0" d="M590.5,95.9v3.2H587v8.6c0,0.8,0.1,1.3,0.4,1.6c0.3,0.3,0.8,0.4,1.6,0.4c0.3,0,0.5,0,0.8,0
			c0.2,0,0.5-0.1,0.7-0.1v3.7c-0.4,0.1-0.9,0.1-1.3,0.1c-0.5,0-1,0-1.4,0c-0.7,0-1.4-0.1-2.1-0.2c-0.7-0.1-1.2-0.3-1.7-0.6
			c-0.5-0.3-0.9-0.7-1.2-1.2s-0.4-1.2-0.4-2.1V99.1h-2.9v-3.2h2.9v-5.2h4.8v5.2H590.5z"/>
		<path class="st0" d="M592.6,101.2c0.1-1.1,0.3-2,0.8-2.8s1.1-1.3,1.9-1.8c0.8-0.4,1.6-0.8,2.6-1s1.9-0.3,2.9-0.3
			c0.9,0,1.8,0.1,2.6,0.2c0.9,0.1,1.7,0.4,2.4,0.7c0.7,0.4,1.3,0.9,1.8,1.5s0.7,1.5,0.7,2.5v9c0,0.8,0,1.5,0.1,2.2
			c0.1,0.7,0.2,1.3,0.5,1.6h-4.8c-0.1-0.3-0.2-0.5-0.2-0.8c-0.1-0.3-0.1-0.6-0.1-0.9c-0.8,0.8-1.7,1.3-2.7,1.6
			c-1,0.3-2.1,0.5-3.2,0.5c-0.8,0-1.6-0.1-2.3-0.3s-1.3-0.5-1.9-0.9c-0.5-0.4-1-1-1.3-1.6c-0.3-0.6-0.5-1.4-0.5-2.3
			c0-1,0.2-1.8,0.5-2.4c0.3-0.6,0.8-1.1,1.3-1.5c0.5-0.4,1.2-0.7,1.9-0.9c0.7-0.2,1.4-0.3,2.1-0.5c0.7-0.1,1.4-0.2,2.1-0.3
			c0.7-0.1,1.3-0.2,1.8-0.3c0.5-0.1,1-0.3,1.3-0.6c0.3-0.3,0.5-0.6,0.4-1.1c0-0.5-0.1-0.9-0.3-1.2c-0.2-0.3-0.4-0.5-0.7-0.7
			c-0.3-0.2-0.6-0.3-1-0.3c-0.4-0.1-0.8-0.1-1.2-0.1c-0.9,0-1.7,0.2-2.2,0.6c-0.5,0.4-0.8,1.1-0.9,2H592.6z M603.6,104.7
			c-0.2,0.2-0.5,0.3-0.8,0.4s-0.6,0.2-1,0.3s-0.7,0.1-1.1,0.2c-0.4,0-0.8,0.1-1.1,0.2c-0.4,0.1-0.7,0.2-1.1,0.3
			c-0.3,0.1-0.6,0.3-0.9,0.5c-0.3,0.2-0.5,0.4-0.6,0.7c-0.2,0.3-0.2,0.7-0.2,1.1c0,0.4,0.1,0.8,0.2,1.1c0.2,0.3,0.4,0.5,0.6,0.7
			c0.3,0.2,0.6,0.3,0.9,0.4c0.4,0.1,0.7,0.1,1.1,0.1c0.9,0,1.7-0.2,2.2-0.5c0.5-0.3,0.9-0.7,1.1-1.1s0.4-0.9,0.5-1.3
			s0.1-0.8,0.1-1.1V104.7z"/>
	</g>
	<g>
		<path class="st1" d="M71.9,60.9c-0.7-0.5-1.6-0.8-2.6-0.8c-0.9,0-1.6,0.2-2.2,0.5s-1.1,0.8-1.5,1.3s-0.7,1.2-0.9,1.9
			c-0.2,0.7-0.3,1.4-0.3,2.2c0,0.8,0.1,1.6,0.3,2.3c0.2,0.7,0.5,1.4,0.9,1.9s0.9,1,1.5,1.3c0.6,0.3,1.3,0.5,2.2,0.5
			c0.6,0,1.2-0.1,1.7-0.3s0.9-0.5,1.3-0.9c0.4-0.4,0.6-0.8,0.8-1.3s0.3-1.1,0.4-1.6h1.9c-0.2,1.8-0.8,3.2-1.9,4.2
			c-1.1,1-2.5,1.5-4.3,1.5c-1.1,0-2.1-0.2-2.9-0.6c-0.8-0.4-1.5-0.9-2.1-1.6s-1-1.5-1.2-2.4s-0.4-1.9-0.4-2.9c0-1,0.1-2,0.4-2.9
			c0.3-0.9,0.7-1.7,1.3-2.4c0.6-0.7,1.3-1.2,2.1-1.6c0.8-0.4,1.8-0.6,2.9-0.6c0.7,0,1.5,0.1,2.1,0.3s1.3,0.5,1.8,0.9
			c0.5,0.4,1,0.9,1.3,1.5c0.3,0.6,0.6,1.3,0.7,2h-1.9C73.1,62.2,72.7,61.4,71.9,60.9z"/>
		<path class="st1" d="M88.1,72.1c-1,0.9-2.4,1.4-4.2,1.4c-1.8,0-3.3-0.4-4.3-1.3c-1-0.9-1.6-2.3-1.6-4.2v-9.1H80V68
			c0,1.3,0.3,2.3,1,2.9s1.7,1,2.9,1c1.2,0,2.1-0.3,2.8-1c0.6-0.7,1-1.6,1-2.9v-9.1h1.9V68C89.6,69.9,89.1,71.2,88.1,72.1z"/>
		<path class="st1" d="M99.7,58.9c1.4,0,2.4,0.3,3.2,1c0.8,0.7,1.2,1.6,1.2,2.7c0,0.9-0.2,1.6-0.6,2.3c-0.4,0.7-1,1.1-1.9,1.3v0
			c0.4,0.1,0.8,0.2,1,0.4s0.5,0.4,0.6,0.7c0.2,0.3,0.3,0.6,0.3,0.9c0.1,0.3,0.1,0.7,0.2,1c0,0.3,0,0.7,0.1,1.1s0,0.7,0.1,1.1
			s0.1,0.7,0.2,1s0.3,0.6,0.5,0.8h-2.1c-0.1-0.1-0.2-0.3-0.3-0.6c0-0.3-0.1-0.5-0.1-0.9s0-0.7,0-1s-0.1-0.7-0.1-1.1
			c-0.1-0.3-0.1-0.7-0.2-1c-0.1-0.3-0.2-0.6-0.4-0.8s-0.4-0.4-0.7-0.6c-0.3-0.1-0.7-0.2-1.1-0.2h-4.6v6.1H93V58.9H99.7z M100.1,65.4
			c0.4-0.1,0.8-0.2,1.1-0.4c0.3-0.2,0.5-0.5,0.7-0.8s0.3-0.8,0.3-1.3c0-0.7-0.2-1.3-0.6-1.8c-0.4-0.5-1-0.7-1.9-0.7h-4.7v5h4
			C99.3,65.5,99.7,65.5,100.1,65.4z"/>
		<path class="st1" d="M113.8,58.9c1.4,0,2.4,0.3,3.2,1c0.8,0.7,1.2,1.6,1.2,2.7c0,0.9-0.2,1.6-0.6,2.3c-0.4,0.7-1,1.1-1.9,1.3v0
			c0.4,0.1,0.8,0.2,1,0.4s0.5,0.4,0.6,0.7c0.2,0.3,0.3,0.6,0.3,0.9c0.1,0.3,0.1,0.7,0.2,1c0,0.3,0,0.7,0.1,1.1s0,0.7,0.1,1.1
			s0.1,0.7,0.2,1s0.3,0.6,0.5,0.8h-2.1c-0.1-0.1-0.2-0.3-0.3-0.6c0-0.3-0.1-0.5-0.1-0.9s0-0.7,0-1s-0.1-0.7-0.1-1.1
			c-0.1-0.3-0.1-0.7-0.2-1c-0.1-0.3-0.2-0.6-0.4-0.8s-0.4-0.4-0.7-0.6c-0.3-0.1-0.7-0.2-1.1-0.2H109v6.1h-1.9V58.9H113.8z
			 M114.2,65.4c0.4-0.1,0.8-0.2,1.1-0.4c0.3-0.2,0.5-0.5,0.7-0.8s0.3-0.8,0.3-1.3c0-0.7-0.2-1.3-0.6-1.8c-0.4-0.5-1-0.7-1.9-0.7H109
			v5h4C113.4,65.5,113.8,65.5,114.2,65.4z"/>
		<path class="st1" d="M131.1,58.9v1.6h-8V65h7.4v1.6h-7.4v4.9h8v1.6h-9.9V58.9H131.1z"/>
		<path class="st1" d="M135.8,58.9l7.5,11.6h0V58.9h1.8v14.3h-2.1l-7.5-11.5h0v11.5h-1.8V58.9H135.8z"/>
		<path class="st1" d="M147.2,60.5v-1.6h11.4v1.6h-4.8v12.7h-1.9V60.5H147.2z"/>
	</g>
	<g>
		<path class="st1" d="M458.5,58.9v1.6H451V65h6.6v1.6H451v6.5h-1.9V58.9H458.5z"/>
		<path class="st1" d="M471,72.1c-1,0.9-2.4,1.4-4.2,1.4c-1.8,0-3.3-0.4-4.3-1.3c-1-0.9-1.6-2.3-1.6-4.2v-9.1h1.9V68
			c0,1.3,0.3,2.3,1,2.9c0.7,0.7,1.7,1,2.9,1c1.2,0,2.1-0.3,2.8-1s1-1.6,1-2.9v-9.1h1.9V68C472.4,69.9,471.9,71.2,471,72.1z"/>
		<path class="st1" d="M474.4,60.5v-1.6h11.4v1.6H481v12.7h-1.9V60.5H474.4z"/>
		<path class="st1" d="M497.7,72.1c-1,0.9-2.4,1.4-4.2,1.4c-1.8,0-3.3-0.4-4.3-1.3c-1-0.9-1.6-2.3-1.6-4.2v-9.1h1.9V68
			c0,1.3,0.3,2.3,1,2.9c0.7,0.7,1.7,1,2.9,1c1.2,0,2.1-0.3,2.8-1s1-1.6,1-2.9v-9.1h1.9V68C499.2,69.9,498.7,71.2,497.7,72.1z"/>
		<path class="st1" d="M509.3,58.9c1.4,0,2.4,0.3,3.2,1c0.8,0.7,1.2,1.6,1.2,2.7c0,0.9-0.2,1.6-0.6,2.3c-0.4,0.7-1,1.1-1.9,1.3v0
			c0.4,0.1,0.8,0.2,1,0.4c0.3,0.2,0.5,0.4,0.6,0.7c0.2,0.3,0.3,0.6,0.3,0.9c0.1,0.3,0.1,0.7,0.2,1c0,0.3,0,0.7,0.1,1.1
			c0,0.4,0,0.7,0.1,1.1c0.1,0.3,0.1,0.7,0.2,1c0.1,0.3,0.2,0.6,0.5,0.8h-2.1c-0.1-0.1-0.2-0.3-0.3-0.6c0-0.3-0.1-0.5-0.1-0.9
			c0-0.3,0-0.7,0-1s-0.1-0.7-0.1-1.1c-0.1-0.3-0.1-0.7-0.2-1s-0.2-0.6-0.4-0.8c-0.2-0.2-0.4-0.4-0.7-0.6c-0.3-0.1-0.7-0.2-1.1-0.2
			h-4.6v6.1h-1.9V58.9H509.3z M509.7,65.4c0.4-0.1,0.8-0.2,1.1-0.4c0.3-0.2,0.5-0.5,0.7-0.8c0.2-0.3,0.3-0.8,0.3-1.3
			c0-0.7-0.2-1.3-0.6-1.8c-0.4-0.5-1-0.7-1.9-0.7h-4.7v5h4C508.9,65.5,509.3,65.5,509.7,65.4z"/>
		<path class="st1" d="M526.6,58.9v1.6h-8V65h7.4v1.6h-7.4v4.9h8v1.6h-9.9V58.9H526.6z"/>
	</g>
	<g>
		<path class="st1" d="M422.8,192.5c-40.5-1-72.3-23.7-103-45.7c-31.1-22.2-60.5-43.2-98.3-43.7l0-1c38.1,0.5,69,22.6,98.8,43.9
			c30.6,21.9,62.2,44.4,102.4,45.5L422.8,192.5z"/>
		<g>
			<circle class="st1" cx="221.6" cy="102.7" r="1.5"/>
		</g>
		<g>
			<polygon class="st1" points="422.2,194 425.7,192.1 422.3,190 			"/>
		</g>
	</g>
</g>
</svg>
