<svg width="345" height="200" viewBox="0 0 345 200" fill="none" xmlns="http://www.w3.org/2000/svg">
<rect width="345" height="200" fill="white"/>
<path d="M23.798 29H25.086L21.32 19.662H19.878L16.126 29H17.414L18.24 26.928H22.972L23.798 29ZM20.606 20.698L22.622 25.892H18.576L20.606 20.698ZM27.7974 29H28.9454L31.7594 22.238H30.6114L28.3714 27.782L26.1174 22.238H24.9834L27.7974 29ZM35.8087 29.168C37.8667 29.168 39.1547 27.572 39.1547 25.612C39.1547 23.652 37.8667 22.07 35.8087 22.07C33.7507 22.07 32.4627 23.652 32.4627 25.612C32.4627 27.572 33.7507 29.168 35.8087 29.168ZM35.8087 28.23C34.3667 28.23 33.5547 26.998 33.5547 25.612C33.5547 24.24 34.3667 23.008 35.8087 23.008C37.2507 23.008 38.0487 24.24 38.0487 25.612C38.0487 26.998 37.2507 28.23 35.8087 28.23ZM41.3844 21.104C41.7764 21.104 42.0984 20.782 42.0984 20.39C42.0984 19.998 41.7764 19.69 41.3844 19.69C41.0064 19.69 40.6844 19.998 40.6844 20.39C40.6844 20.782 41.0064 21.104 41.3844 21.104ZM40.8664 29H41.9164V22.238H40.8664V29ZM48.9109 29H49.9609V19.662H48.9109V23.26C48.3649 22.518 47.5389 22.07 46.6289 22.07C44.8509 22.07 43.6189 23.47 43.6189 25.626C43.6189 27.824 44.8649 29.168 46.6289 29.168C47.5809 29.168 48.4069 28.678 48.9109 27.992V29ZM48.9109 27.166C48.5329 27.754 47.7209 28.23 46.8809 28.23C45.5229 28.23 44.7109 27.124 44.7109 25.626C44.7109 24.128 45.5229 23.008 46.8809 23.008C47.7209 23.008 48.5329 23.512 48.9109 24.1V27.166ZM55.281 25.612C55.281 27.628 56.639 29.168 58.655 29.168C59.887 29.168 60.615 28.664 61.133 27.992L60.433 27.348C59.985 27.95 59.411 28.23 58.711 28.23C57.269 28.23 56.373 27.11 56.373 25.612C56.373 24.114 57.269 23.008 58.711 23.008C59.411 23.008 59.985 23.274 60.433 23.89L61.133 23.246C60.615 22.574 59.887 22.07 58.655 22.07C56.639 22.07 55.281 23.61 55.281 25.612ZM67.1827 29H68.2327V24.226C68.2327 22.756 67.4907 22.07 66.0767 22.07C65.0547 22.07 64.1307 22.658 63.6547 23.218V19.662H62.6047V29H63.6547V24.058C64.0607 23.512 64.8447 23.008 65.6567 23.008C66.5667 23.008 67.1827 23.358 67.1827 24.548V29ZM74.5573 29H75.6073V24.352C75.6073 22.714 74.4173 22.07 72.9893 22.07C71.8833 22.07 71.0153 22.434 70.2873 23.19L70.7773 23.918C71.3793 23.274 72.0373 22.98 72.8493 22.98C73.8293 22.98 74.5573 23.498 74.5573 24.408V25.626C74.0113 24.996 73.2413 24.702 72.3173 24.702C71.1693 24.702 69.9513 25.416 69.9513 26.928C69.9513 28.398 71.1693 29.168 72.3173 29.168C73.2273 29.168 73.9973 28.846 74.5573 28.23V29ZM74.5573 27.572C74.1513 28.132 73.4373 28.412 72.6953 28.412C71.7153 28.412 71.0293 27.796 71.0293 26.942C71.0293 26.074 71.7153 25.458 72.6953 25.458C73.4373 25.458 74.1513 25.738 74.5573 26.298V27.572ZM82.2761 29H83.3261V24.254C83.3261 22.784 82.5841 22.07 81.1701 22.07C80.1621 22.07 79.2381 22.658 78.7621 23.218V22.238H77.7121V29H78.7621V24.058C79.1541 23.512 79.9381 23.008 80.7641 23.008C81.6741 23.008 82.2761 23.386 82.2761 24.576V29ZM85.409 30.736C86.207 31.52 86.991 31.744 88.139 31.744C89.791 31.744 91.359 31.044 91.359 28.804V22.238H90.309V23.26C89.763 22.518 88.951 22.07 88.041 22.07C86.263 22.07 85.031 23.414 85.031 25.584C85.031 27.768 86.277 29.084 88.041 29.084C88.993 29.084 89.819 28.566 90.309 27.88V28.846C90.309 30.33 89.259 30.876 88.139 30.876C87.173 30.876 86.501 30.624 85.941 29.952L85.409 30.736ZM90.309 27.054C89.945 27.642 89.133 28.16 88.293 28.16C86.935 28.16 86.123 27.068 86.123 25.584C86.123 24.086 86.935 23.008 88.293 23.008C89.133 23.008 89.945 23.512 90.309 24.1V27.054ZM93.9801 21.104C94.3721 21.104 94.6941 20.782 94.6941 20.39C94.6941 19.998 94.3721 19.69 93.9801 19.69C93.6021 19.69 93.2801 19.998 93.2801 20.39C93.2801 20.782 93.6021 21.104 93.9801 21.104ZM93.4621 29H94.5121V22.238H93.4621V29ZM101.171 29H102.221V24.254C102.221 22.784 101.479 22.07 100.065 22.07C99.0566 22.07 98.1326 22.658 97.6566 23.218V22.238H96.6066V29H97.6566V24.058C98.0486 23.512 98.8326 23.008 99.6586 23.008C100.569 23.008 101.171 23.386 101.171 24.576V29ZM104.304 30.736C105.102 31.52 105.886 31.744 107.034 31.744C108.686 31.744 110.254 31.044 110.254 28.804V22.238H109.204V23.26C108.658 22.518 107.846 22.07 106.936 22.07C105.158 22.07 103.926 23.414 103.926 25.584C103.926 27.768 105.172 29.084 106.936 29.084C107.888 29.084 108.714 28.566 109.204 27.88V28.846C109.204 30.33 108.154 30.876 107.034 30.876C106.068 30.876 105.396 30.624 104.836 29.952L104.304 30.736ZM109.204 27.054C108.84 27.642 108.028 28.16 107.188 28.16C105.83 28.16 105.018 27.068 105.018 25.584C105.018 24.086 105.83 23.008 107.188 23.008C108.028 23.008 108.84 23.512 109.204 24.1V27.054ZM115.966 29H117.016V27.992C117.52 28.678 118.346 29.168 119.298 29.168C121.062 29.168 122.308 27.824 122.308 25.626C122.308 23.47 121.062 22.07 119.298 22.07C118.374 22.07 117.562 22.518 117.016 23.26V19.662H115.966V29ZM117.016 27.166V24.1C117.38 23.512 118.206 23.008 119.032 23.008C120.404 23.008 121.216 24.128 121.216 25.626C121.216 27.124 120.404 28.23 119.032 28.23C118.206 28.23 117.38 27.754 117.016 27.166ZM124.019 29H125.069V24.212C125.377 23.666 126.259 23.134 126.903 23.134C127.071 23.134 127.197 23.148 127.323 23.176V22.098C126.399 22.098 125.615 22.616 125.069 23.33V22.238H124.019V29ZM132.868 29H133.918V24.352C133.918 22.714 132.728 22.07 131.3 22.07C130.194 22.07 129.326 22.434 128.598 23.19L129.088 23.918C129.69 23.274 130.348 22.98 131.16 22.98C132.14 22.98 132.868 23.498 132.868 24.408V25.626C132.322 24.996 131.552 24.702 130.628 24.702C129.48 24.702 128.262 25.416 128.262 26.928C128.262 28.398 129.48 29.168 130.628 29.168C131.538 29.168 132.308 28.846 132.868 28.23V29ZM132.868 27.572C132.462 28.132 131.748 28.412 131.006 28.412C130.026 28.412 129.34 27.796 129.34 26.942C129.34 26.074 130.026 25.458 131.006 25.458C131.748 25.458 132.462 25.738 132.868 26.298V27.572ZM140.587 29H141.637V24.254C141.637 22.784 140.895 22.07 139.481 22.07C138.473 22.07 137.549 22.658 137.073 23.218V22.238H136.023V29H137.073V24.058C137.465 23.512 138.249 23.008 139.075 23.008C139.985 23.008 140.587 23.386 140.587 24.576V29ZM148.634 29H149.684V19.662H148.634V23.26C148.088 22.518 147.262 22.07 146.352 22.07C144.574 22.07 143.342 23.47 143.342 25.626C143.342 27.824 144.588 29.168 146.352 29.168C147.304 29.168 148.13 28.678 148.634 27.992V29ZM148.634 27.166C148.256 27.754 147.444 28.23 146.604 28.23C145.246 28.23 144.434 27.124 144.434 25.626C144.434 24.128 145.246 23.008 146.604 23.008C147.444 23.008 148.256 23.512 148.634 24.1V27.166ZM155.004 25.612C155.004 27.628 156.362 29.168 158.378 29.168C159.61 29.168 160.338 28.664 160.856 27.992L160.156 27.348C159.708 27.95 159.134 28.23 158.434 28.23C156.992 28.23 156.096 27.11 156.096 25.612C156.096 24.114 156.992 23.008 158.434 23.008C159.134 23.008 159.708 23.274 160.156 23.89L160.856 23.246C160.338 22.574 159.61 22.07 158.378 22.07C156.362 22.07 155.004 23.61 155.004 25.612ZM165.281 29.168C167.339 29.168 168.627 27.572 168.627 25.612C168.627 23.652 167.339 22.07 165.281 22.07C163.223 22.07 161.935 23.652 161.935 25.612C161.935 27.572 163.223 29.168 165.281 29.168ZM165.281 28.23C163.839 28.23 163.027 26.998 163.027 25.612C163.027 24.24 163.839 23.008 165.281 23.008C166.723 23.008 167.521 24.24 167.521 25.612C167.521 26.998 166.723 28.23 165.281 28.23ZM170.339 29H171.389V19.662H170.339V29ZM176.438 29.168C178.496 29.168 179.784 27.572 179.784 25.612C179.784 23.652 178.496 22.07 176.438 22.07C174.38 22.07 173.092 23.652 173.092 25.612C173.092 27.572 174.38 29.168 176.438 29.168ZM176.438 28.23C174.996 28.23 174.184 26.998 174.184 25.612C174.184 24.24 174.996 23.008 176.438 23.008C177.88 23.008 178.678 24.24 178.678 25.612C178.678 26.998 177.88 28.23 176.438 28.23ZM181.495 29H182.545V24.212C182.853 23.666 183.735 23.134 184.379 23.134C184.547 23.134 184.673 23.148 184.799 23.176V22.098C183.875 22.098 183.091 22.616 182.545 23.33V22.238H181.495V29ZM185.528 28.104C186.214 28.832 187.152 29.168 188.258 29.168C190.008 29.168 190.918 28.258 190.918 27.124C190.918 25.626 189.56 25.29 188.384 25.024C187.502 24.814 186.732 24.604 186.732 23.946C186.732 23.344 187.306 22.924 188.23 22.924C189.098 22.924 189.84 23.288 190.246 23.778L190.736 23.05C190.19 22.504 189.378 22.07 188.23 22.07C186.62 22.07 185.71 22.966 185.71 24.016C185.71 25.416 187.012 25.724 188.16 25.99C189.07 26.214 189.896 26.452 189.896 27.194C189.896 27.852 189.336 28.314 188.3 28.314C187.376 28.314 186.522 27.866 186.074 27.348L185.528 28.104Z" fill="#020A47"/>
<rect x="0.5" y="0.5" width="344" height="199" stroke="#E4E4E4"/>
<path fill-rule="evenodd" clip-rule="evenodd" d="M322.707 28.293C323.098 28.684 323.098 29.316 322.707 29.707C322.512 29.902 322.256 30 322 30C321.744 30 321.488 29.902 321.293 29.707L319 27.414L316.707 29.707C316.512 29.902 316.256 30 316 30C315.744 30 315.488 29.902 315.293 29.707C314.902 29.316 314.902 28.684 315.293 28.293L317.586 26L315.293 23.707C314.902 23.316 314.902 22.684 315.293 22.293C315.684 21.902 316.316 21.902 316.707 22.293L319 24.586L321.293 22.293C321.684 21.902 322.316 21.902 322.707 22.293C323.098 22.684 323.098 23.316 322.707 23.707L320.414 26L322.707 28.293ZM319 18C314.582 18 311 21.582 311 26C311 30.418 314.582 34 319 34C323.418 34 327 30.418 327 26C327 21.582 323.418 18 319 18Z" fill="#DE1C22"/>
<path d="M119.64 111.629C118.778 111.629 118.047 111.348 117.446 110.785C116.864 110.222 116.574 109.538 116.574 108.733C116.574 107.889 116.864 107.195 117.446 106.652C118.047 106.089 118.778 105.807 119.64 105.807C120.502 105.807 121.224 106.089 121.805 106.652C122.386 107.195 122.677 107.889 122.677 108.733C122.677 109.538 122.386 110.222 121.805 110.785C121.224 111.348 120.502 111.629 119.64 111.629ZM116.904 129.639V114.073H122.346V129.639H116.904Z" fill="#6BF300"/>
<path d="M126.006 129.639V114.073H131.357L131.417 116.003C131.818 115.239 132.409 114.646 133.191 114.224C133.972 113.801 134.874 113.59 135.897 113.59C137.64 113.59 138.963 114.153 139.865 115.279C140.787 116.386 141.248 118.015 141.248 120.166V129.639H135.806V121.192C135.806 119.362 135.115 118.447 133.732 118.447C132.99 118.447 132.419 118.708 132.018 119.231C131.638 119.734 131.447 120.458 131.447 121.403V129.639H126.006Z" fill="#6BF300"/>
<path d="M146.389 129.639V118.447H143.893V114.073H146.389V112.564C146.389 110.171 146.97 108.321 148.132 107.014C149.315 105.707 150.978 105.053 153.123 105.053C153.744 105.053 154.325 105.103 154.867 105.204C155.428 105.284 155.899 105.405 156.28 105.566L156.009 110.091C155.789 109.99 155.518 109.92 155.197 109.88C154.897 109.819 154.616 109.789 154.355 109.789C153.494 109.789 152.852 110.041 152.431 110.543C152.031 111.046 151.83 111.84 151.83 112.926V114.073H155.498V118.447H151.83V129.639H146.389ZM157.903 129.639V105.204H163.344V129.639H157.903Z" fill="#6BF300"/>
<path d="M172.131 130.121C170.427 130.121 169.124 129.578 168.222 128.492C167.321 127.386 166.87 125.777 166.87 123.666V114.073H172.341V122.55C172.341 123.475 172.502 124.158 172.822 124.601C173.163 125.043 173.694 125.264 174.416 125.264C175.137 125.264 175.688 125.013 176.069 124.51C176.47 123.987 176.67 123.253 176.67 122.308V114.073H182.112V129.639H176.76L176.7 127.708C176.3 128.472 175.698 129.065 174.897 129.488C174.115 129.91 173.193 130.121 172.131 130.121Z" fill="#6BF300"/>
<path d="M184.578 129.639L190.23 121.614L184.878 114.073H190.951L193.476 118.296L195.942 114.073H201.714L196.393 121.675L202.075 129.639H195.972L193.146 124.933L190.35 129.639H184.578Z" fill="#6BF300"/>
<path d="M211.605 130.121C210.222 130.121 208.979 129.779 207.877 129.096C206.795 128.412 205.943 127.467 205.321 126.26C204.7 125.033 204.39 123.646 204.39 122.097C204.39 120.609 204.72 119.261 205.382 118.055C206.063 116.828 206.975 115.863 208.117 115.159C209.26 114.435 210.522 114.073 211.905 114.073C213.048 114.073 214.09 114.354 215.032 114.917C215.994 115.481 216.766 116.275 217.347 117.301V105.204H219.902V129.639H217.407L217.347 126.893C216.746 127.919 215.954 128.714 214.972 129.277C213.99 129.84 212.867 130.121 211.605 130.121ZM212.266 127.829C213.308 127.829 214.22 127.587 215.002 127.105C215.784 126.622 216.395 125.948 216.836 125.083C217.297 124.219 217.527 123.223 217.527 122.097C217.527 120.971 217.297 119.975 216.836 119.111C216.395 118.246 215.784 117.572 215.002 117.089C214.22 116.607 213.308 116.365 212.266 116.365C211.244 116.365 210.332 116.607 209.53 117.089C208.749 117.572 208.127 118.246 207.666 119.111C207.225 119.975 207.005 120.971 207.005 122.097C207.005 123.223 207.225 124.219 207.666 125.083C208.127 125.948 208.749 126.622 209.53 127.105C210.332 127.587 211.244 127.829 212.266 127.829Z" fill="#6BF300"/>
<path d="M231.481 130.121C230.098 130.121 228.855 129.779 227.753 129.096C226.671 128.412 225.819 127.467 225.197 126.26C224.576 125.033 224.265 123.646 224.265 122.097C224.265 120.609 224.596 119.261 225.258 118.055C225.939 116.828 226.851 115.863 227.993 115.159C229.136 114.435 230.398 114.073 231.781 114.073C232.924 114.073 233.966 114.354 234.908 114.917C235.87 115.481 236.642 116.275 237.223 117.301L237.283 114.555H239.778V129.639H237.283L237.223 126.893C236.622 127.919 235.83 128.714 234.848 129.277C233.866 129.84 232.743 130.121 231.481 130.121ZM232.142 127.829C233.184 127.829 234.096 127.587 234.878 127.105C235.659 126.622 236.271 125.948 236.712 125.083C237.173 124.219 237.403 123.223 237.403 122.097C237.403 120.971 237.173 119.975 236.712 119.111C236.271 118.246 235.659 117.572 234.878 117.089C234.096 116.607 233.184 116.365 232.142 116.365C231.12 116.365 230.208 116.607 229.406 117.089C228.625 117.572 228.003 118.246 227.542 119.111C227.101 119.975 226.881 120.971 226.881 122.097C226.881 123.223 227.101 124.219 227.542 125.083C228.003 125.948 228.625 126.622 229.406 127.105C230.208 127.587 231.12 127.829 232.142 127.829Z" fill="#6BF300"/>
<path d="M251.176 130.121C249.473 130.121 248.22 129.669 247.418 128.764C246.617 127.839 246.216 126.401 246.216 124.45V116.758H242.789V114.555H246.216V110.211H248.771V114.555H254.032V116.758H248.771V124.239C248.771 125.526 248.992 126.461 249.433 127.044C249.894 127.607 250.625 127.889 251.627 127.889C252.589 127.889 253.581 127.628 254.603 127.105L254.904 129.246C254.443 129.528 253.882 129.739 253.221 129.88C252.579 130.041 251.898 130.121 251.176 130.121Z" fill="#6BF300"/>
<path d="M264.392 130.121C263.009 130.121 261.766 129.779 260.664 129.096C259.582 128.412 258.73 127.467 258.109 126.26C257.487 125.033 257.177 123.646 257.177 122.097C257.177 120.609 257.507 119.261 258.169 118.055C258.85 116.828 259.762 115.863 260.905 115.159C262.047 114.435 263.31 114.073 264.693 114.073C265.835 114.073 266.877 114.354 267.819 114.917C268.781 115.481 269.553 116.275 270.134 117.301L270.194 114.555H272.689V129.639H270.194L270.134 126.893C269.533 127.919 268.741 128.714 267.759 129.277C266.777 129.84 265.655 130.121 264.392 130.121ZM265.053 127.829C266.095 127.829 267.007 127.587 267.789 127.105C268.571 126.622 269.182 125.948 269.623 125.083C270.084 124.219 270.314 123.223 270.314 122.097C270.314 120.971 270.084 119.975 269.623 119.111C269.182 118.246 268.571 117.572 267.789 117.089C267.007 116.607 266.095 116.365 265.053 116.365C264.031 116.365 263.119 116.607 262.318 117.089C261.536 117.572 260.915 118.246 260.454 119.111C260.013 119.975 259.792 120.971 259.792 122.097C259.792 123.223 260.013 124.219 260.454 125.083C260.915 125.948 261.536 126.622 262.318 127.105C263.119 127.587 264.031 127.829 265.053 127.829Z" fill="#6BF300"/>
<path fill-rule="evenodd" clip-rule="evenodd" d="M93.6802 126.381L101.803 124.519C101.928 124.493 102.046 124.442 102.151 124.369C102.255 124.295 102.343 124.2 102.409 124.091C102.474 123.982 102.517 123.86 102.533 123.733C102.549 123.606 102.538 123.478 102.502 123.355L99.0472 108.373C98.9849 108.126 98.827 107.914 98.6082 107.783C98.3894 107.652 98.1276 107.613 97.8802 107.675L89.761 109.537C89.5153 109.6 89.3045 109.758 89.1747 109.976C89.045 110.194 89.0069 110.454 89.0688 110.7L92.5131 125.682C92.5755 125.93 92.7334 126.142 92.9522 126.273C93.1709 126.404 93.4327 126.443 93.6802 126.381Z" fill="#001EFF"/>
<path fill-rule="evenodd" clip-rule="evenodd" d="M90.8812 135.639L100.729 126.521C101.1 126.147 101.007 125.916 100.495 126.1L93.7269 127.638C93.4471 127.707 93.1891 127.846 92.977 128.041C92.7648 128.236 92.6053 128.482 92.5131 128.755L90.4599 135.361C90.3194 135.873 90.5067 136.013 90.8812 135.639Z" fill="#001EFF"/>
<path fill-rule="evenodd" clip-rule="evenodd" d="M72.9142 132.663L87.661 137.22C87.913 137.267 88.1734 137.223 88.3958 137.096C88.6182 136.968 88.788 136.766 88.8749 136.525L91.3461 128.614C91.3819 128.491 91.3929 128.362 91.3787 128.234C91.3644 128.107 91.3251 127.983 91.2629 127.87C91.2008 127.758 91.1171 127.659 91.0166 127.579C90.9161 127.499 90.8008 127.44 90.6773 127.404L75.9304 122.89C75.6808 122.819 75.413 122.849 75.1856 122.975C74.9582 123.1 74.7896 123.31 74.7166 123.559L72.2621 131.453C72.1892 131.7 72.2168 131.966 72.3389 132.192C72.4611 132.419 72.6678 132.588 72.9142 132.663Z" fill="#001EFF"/>
<path fill-rule="evenodd" clip-rule="evenodd" d="M68.1523 116.471L71.1418 129.561C71.2354 130.072 71.4762 130.072 71.6066 129.561L73.6598 122.954C73.7298 122.673 73.7326 122.379 73.6682 122.096C73.6037 121.813 73.4737 121.549 73.2886 121.326L68.5736 116.237C68.2459 115.853 68.0018 115.96 68.1523 116.471Z" fill="#001EFF"/>
<path fill-rule="evenodd" clip-rule="evenodd" d="M79.6823 102.479L68.3864 112.934C68.2052 113.106 68.0988 113.343 68.0901 113.593C68.0813 113.843 68.1709 114.086 68.3396 114.271L73.9876 120.38C74.1616 120.564 74.4015 120.673 74.6551 120.681C74.9087 120.69 75.1555 120.599 75.3419 120.426L86.6344 109.955C86.8172 109.783 86.9247 109.546 86.9335 109.296C86.9423 109.045 86.8516 108.801 86.6813 108.617L81.0433 102.512C80.9566 102.42 80.8524 102.346 80.7368 102.294C80.6212 102.242 80.4964 102.214 80.3698 102.211C80.2432 102.208 80.1172 102.23 79.9992 102.276C79.8812 102.322 79.7735 102.391 79.6823 102.479Z" fill="#001EFF"/>
<path fill-rule="evenodd" clip-rule="evenodd" d="M90.6004 126.147C91.1154 126.287 91.4398 126.01 91.3027 125.478L88.0356 111.336C87.8952 110.824 87.4738 110.684 87.1026 111.055L76.4622 120.938C76.0876 121.309 76.1813 121.727 76.6929 121.867L90.6004 126.147Z" fill="#001EFF"/>
<path fill-rule="evenodd" clip-rule="evenodd" d="M96.1547 106.421L83.2737 102.479C82.7621 102.339 82.6685 102.526 83.0865 102.944L87.8014 108.016C88.013 108.213 88.2688 108.357 88.5475 108.436C88.8261 108.515 89.1196 108.525 89.4032 108.467L96.1714 106.932C96.6696 106.792 96.6696 106.558 96.1547 106.421Z" fill="#001EFF"/>
<path d="M278.948 112.495C278.249 112.495 277.616 112.329 277.047 111.997C276.479 111.665 276.028 111.215 275.697 110.647C275.365 110.078 275.199 109.444 275.199 108.746C275.199 108.047 275.365 107.413 275.697 106.844C276.028 106.276 276.479 105.826 277.047 105.494C277.616 105.162 278.249 104.996 278.948 104.996C279.659 104.996 280.293 105.162 280.85 105.494C281.418 105.826 281.868 106.276 282.2 106.844C282.532 107.413 282.697 108.047 282.697 108.746C282.697 109.444 282.532 110.078 282.2 110.647C281.868 111.215 281.418 111.665 280.85 111.997C280.293 112.329 279.659 112.495 278.948 112.495ZM278.948 111.837C279.529 111.837 280.044 111.701 280.494 111.429C280.956 111.156 281.323 110.789 281.596 110.327C281.868 109.853 282.004 109.326 282.004 108.746C282.004 108.165 281.868 107.644 281.596 107.182C281.323 106.708 280.956 106.335 280.494 106.063C280.044 105.79 279.529 105.654 278.948 105.654C278.38 105.654 277.864 105.79 277.402 106.063C276.941 106.335 276.573 106.708 276.301 107.182C276.028 107.644 275.892 108.165 275.892 108.746C275.892 109.326 276.028 109.853 276.301 110.327C276.573 110.789 276.941 111.156 277.402 111.429C277.864 111.701 278.38 111.837 278.948 111.837ZM277.687 110.451V106.862H278.895C279.345 106.862 279.689 106.963 279.926 107.164C280.174 107.366 280.299 107.644 280.299 107.999C280.299 108.224 280.245 108.432 280.139 108.621C280.032 108.799 279.872 108.935 279.659 109.03L280.547 110.451H279.801L279.019 109.154H278.326V110.451H277.687ZM278.842 107.431H278.326V108.586H278.824C279.12 108.586 279.327 108.538 279.446 108.443C279.564 108.349 279.624 108.201 279.624 107.999C279.624 107.62 279.363 107.431 278.842 107.431Z" fill="#020A47"/>
</svg>
