<?xml version="1.0" encoding="utf-8"?>
<!-- Generator: Adobe Illustrator 21.1.0, SVG Export Plug-In . SVG Version: 6.00 Build 0)  -->
<svg version="1.1" id="Layer_1" xmlns="http://www.w3.org/2000/svg" xmlns:xlink="http://www.w3.org/1999/xlink" x="0px" y="0px"
	 width="328px" height="328px" viewBox="0 0 328 328" style="enable-background:new 0 0 328 328;" xml:space="preserve">
<style type="text/css">
	.st0{fill:#FFFFFF;}
	.st1{fill:#292933;}
</style>
<rect class="st0" width="328" height="328"/>
<g>
	<path id="Cuboctahedron" class="st1" d="M77.9,169.4l-5-21.9c-0.3-1.2-1.4-2.4-2.6-2.8l-23-7.1c-0.3-0.1-0.6-0.1-1-0.1
		c-1,0-2,0.4-2.7,1l-16.5,15.3c-0.9,0.8-1.4,2.4-1.1,3.5l5.4,23.5c0.3,1.2,1.4,2.4,2.6,2.8l21.5,6.7c0.3,0.1,0.6,0.1,1,0.1
		c1,0,2-0.4,2.7-1L76.8,173C77.8,172.2,78.2,170.7,77.9,169.4z M49.7,142.9l15.8,4.8c0.6,0.2,0.6,0.5,0,0.6l-8.3,1.9
		c-0.6,0.2-1.5-0.1-2-0.6l-5.8-6.2C49,143,49.1,142.7,49.7,142.9z M59.5,171.2c0.2,0.6-0.2,1-0.9,0.8l-17.1-5.3
		c-0.6-0.2-0.8-0.7-0.3-1.2l13.1-12.1c0.5-0.5,1-0.3,1.2,0.3L59.5,171.2z M31.5,155.7l13.8-12.9c0.5-0.5,1.2-0.4,1.7,0.1l6.9,7.5
		c0.5,0.5,0.4,1.2-0.1,1.7L39.9,165c-0.5,0.5-1.2,0.4-1.7-0.1l-6.9-7.5C30.9,156.9,31,156.1,31.5,155.7z M34.8,176.2l-3.6-16.1
		c-0.2-0.6,0.1-0.8,0.5-0.3l5.8,6.2c0.5,0.5,0.6,1.4,0.5,2l-2.6,8.2C35.2,176.8,34.9,176.8,34.8,176.2z M55.1,185.6L37,180
		c-0.6-0.2-1-0.9-0.8-1.5l3-9.7c0.2-0.6,0.9-1,1.5-0.8l18.1,5.5c0.6,0.2,1,0.9,0.8,1.5l-3,9.7C56.4,185.4,55.7,185.7,55.1,185.6z
		 M71.1,172.4L59,183.6c-0.5,0.5-0.7,0.3-0.5-0.3l2.6-8.2c0.2-0.6,0.9-1.3,1.5-1.4l8.3-1.9C71.5,171.8,71.6,172.1,71.1,172.4z
		 M72.4,170l-9.9,2.3c-0.6,0.2-1.3-0.2-1.5-0.9L56.7,153c-0.2-0.6,0.2-1.3,0.9-1.5l9.9-2.3c0.6-0.2,1.3,0.2,1.5,0.9l4.2,18.4
		C73.4,169.3,73,169.9,72.4,170z"/>
	<g id="Type">
		<path class="st1" d="M226.6,177.2c-0.1,0.6,0.2,0.7,0.4,0.7h1.4c0.5,0,0.6-0.5,0.6-0.7l5.6-31.8c0.1-0.6-0.3-0.7-0.6-0.6l0,0
			l-1.5,0.2c-0.4,0.1-0.6,0.4-0.6,0.6l0,0l-1.6,9.2c-1.5-0.5-4.1-0.8-5.7-0.8c-6,0-8.8,2.3-9.9,8.6l-1.8,10
			c-0.1,0.6-0.2,1.2-0.2,1.7c0,2.8,1.6,3.9,4.6,3.9c3.3,0,6.9-1.6,9.5-3.9L226.6,177.2z M217.6,176c-1.5,0-2.2-0.4-2.2-1.9
			c0-0.4,0.1-0.8,0.2-1.4l1.7-9.5c0.9-5.2,2.7-6.7,7-6.7c1.9,0,3.7,0.3,5.6,0.8l-2.6,14.1C224.3,174,220.7,176,217.6,176z"/>
		<path class="st1" d="M250.2,177.2c-0.1,0.6,0.2,0.7,0.5,0.7h1.4c0.5,0,0.6-0.5,0.6-0.7l0,0l3.8-21.6c-2.8-1-5.9-1.6-8.1-1.6
			c-6.3,0-8.8,2.6-9.9,8.6l-1.8,10c-0.1,0.6-0.2,1.2-0.2,1.7c0,2.8,1.6,3.9,4.6,3.9c3.3,0,6.7-1.6,9.3-3.9L250.2,177.2z M241.5,176
			c-1.5,0-2.2-0.4-2.2-1.9c0-0.4,0.1-0.8,0.2-1.4l1.7-9.5c0.9-5.1,2.6-6.7,7-6.7c2,0,4.2,0.4,5.5,0.8l-2.6,14.1
			C248.1,174,244.3,176,241.5,176z"/>
		<path class="st1" d="M288.5,177.2c-0.1,0.6,0.2,0.7,0.4,0.7h1.4c0.5,0,0.6-0.5,0.6-0.7l0,0l3.8-21.6c-2.8-1-5.9-1.6-8.1-1.6
			c-6.3,0-8.8,2.6-9.9,8.6l-1.8,10c-0.1,0.6-0.2,1.2-0.2,1.7c0,2.8,1.6,3.9,4.6,3.9c3.3,0,6.7-1.6,9.3-3.9L288.5,177.2z M279.8,176
			c-1.5,0-2.2-0.4-2.2-1.9c0-0.4,0.1-0.8,0.2-1.4l1.7-9.5c0.9-5.1,2.6-6.7,7-6.7c2,0,4.2,0.4,5.5,0.8l-2.6,14.1
			C286.4,174,282.7,176,279.8,176z"/>
		<g>
			<path class="st1" d="M266,148.8L266,148.8L266,148.8z"/>
			<path class="st1" d="M274,156.4L274,156.4l0.3-1.6c0.1-0.4-0.1-0.4-0.3-0.4h-6.6l0.9-5.4l0,0c0.1-0.6-0.3-0.7-0.6-0.6l0,0
				l-1.5,0.2l0,0c-0.4,0.1-0.6,0.4-0.6,0.6l0,0l-0.9,5.1h-4c-0.1,0-0.5,0.1-0.5,0.4l-0.2,1.5l0,0c0,0.1,0,0.4,0.4,0.4h4l-3,17.5
				c-0.1,0.3-0.1,0.6-0.1,0.9c0,2.2,1.5,3,3.8,3c1.9,0,5.1-0.5,6.8-1.3c0.5-0.3,0.5-0.6,0.3-0.9l0,0l-0.3-0.9
				c-0.1-0.2-0.3-0.2-0.5-0.1l0,0c-1.6,0.6-2.6,1-5.8,1c-1.1,0-1.6-0.2-1.6-1.2c0-0.2,0.1-0.5,0.1-0.9l3-17.2h6.5
				C273.8,156.8,273.9,156.6,274,156.4z"/>
		</g>
		<path class="st1" d="M210.9,154.5h-6.7c-0.3,0-0.6,0.2-0.8,0.5l-4.7,6.9l-2.8-7.2c-0.2-0.4-0.5-0.5-0.9-0.5l-5.8,0.9l5,11.1
			l-9.2,11.7h6.3c0.4,0,1-0.2,1.3-0.6l4.3-5.3l2.5,5.3c0.1,0.3,0.5,0.6,0.9,0.6h6.1l-4.9-10.8L210.9,154.5z"/>
		<path class="st1" d="M182.2,177.5l4-22.8c0.1-0.5-0.3-0.5-0.6-0.4l-5.6,0.8c-0.6,0.1-0.8,0.5-0.8,0.8l0,0l-2.4,13.8
			c-1.7,0.9-4.8,2.3-6.1,2.3c-0.7,0-0.9-0.2-0.9-0.8c0-0.2,0.1-0.5,0.1-0.8l2.8-15.7l0,0c0.1-0.5-0.3-0.5-0.5-0.4l-5.6,0.8l0,0
			c-0.6,0.1-0.8,0.5-0.8,0.8l0,0l-2.8,15c-0.2,1-0.2,1.7-0.2,2.7c0,2.9,1.2,4.7,4.3,4.7c2.7,0,5.5-0.9,9.2-2.7l0.1,1.7
			c0,0.1,0.1,0.4,0.3,0.4h5.1C182.1,177.8,182.2,177.7,182.2,177.5z"/>
		<path class="st1" d="M126.6,154.1c-2.7,0-5.5,0.9-9.2,2.7l0.1-2.1c0-0.5-0.4-0.5-0.6-0.4l-4.4,0.8l0,0c-0.8,0.1-1,0.6-1,0.8
			l-3.6,21l0,0c-0.2,1-0.1,1,0.7,1h5c0.6,0,0.9,0,1-1l2.5-14c1.9-1,4.8-2.3,6.1-2.3c0.7,0,0.9,0.2,0.9,0.7c0,0.2-0.1,0.5-0.1,0.8
			l-2.6,14.8l0,0c-0.2,1-0.1,1,0.7,1h5c0.6,0,0.9,0,1-1l2.7-15.3c0.2-1.2,0.2-1.9,0.2-2.7C130.9,155.8,129.7,154.1,126.6,154.1z"/>
		<g>
			<path class="st1" d="M107.2,143.9l-5.6,0.8c-0.6,0.1-0.8,0.5-0.8,0.8l-1,5.8c-0.1,0.7-0.1,0.7,0.6,0.6l5.5-0.8l0,0
				c0.6-0.1,0.7-0.1,0.8-0.9l0,0l1.1-6.1C107.8,143.9,107.7,143.9,107.2,143.9z"/>
			<path class="st1" d="M99.1,155.1L99.1,155.1L99.1,155.1z"/>
			<path class="st1" d="M102,176.8L102,176.8l3.9-22.2c0.1-0.5-0.3-0.5-0.6-0.4l-5.6,0.8l0,0c-0.6,0.1-0.8,0.5-0.8,0.8l0,0L95.2,177
				c-0.1,0.8,0,0.9,0.8,0.9h5C101.5,177.8,101.8,177.8,102,176.8z"/>
		</g>
		<path class="st1" d="M157.4,176.8l5.7-32.2c0.1-0.5-0.2-0.5-0.5-0.4l-6.5,1.1c-2.9-0.8-6.2-1.2-8.2-1.2c-6,0-8.1,2.1-8.9,7.5
			l-0.5,3h-2.7c-0.7,0-0.8,0.3-0.8,0.6l0,0l-0.8,4.4c-0.1,0.2,0.1,0.4,0.3,0.4h2.9l-3.1,17.9c-0.3,2.2-0.7,3.3-2.7,5.5l0,0
			c-0.4,0.4-0.3,0.5,0,0.8l0,0l3.5,3.3l0,0c0.3,0.3,0.5,0.3,0.9-0.1c3.2-3.3,4.3-5.5,4.8-8.6l3.2-18.6h5.2c0.3,0,0.3,0,0.5-0.3l0,0
			l1.2-4.7l0,0c0.1-0.3-0.2-0.5-0.5-0.5h-5.3l0.6-3.3c0.2-1.2,0.8-1.6,2.3-1.6c2,0,5.3,0.4,7.1,0.9l-4.6,26.4l0,0
			c-0.2,1-0.1,1,0.7,1h5C157,177.8,157.3,177.8,157.4,176.8z"/>
	</g>
	<path id="Registered_Trademark" class="st1" d="M299.2,147.5h-0.6l-0.2,1.2h-0.6l0.6-3.3h1.3c0.7,0,1,0.3,1,0.8c0,0.1,0,0.1,0,0.2
		l-0.1,0.5c-0.1,0.5-0.2,0.6-0.6,0.8l0.6,1.2h-0.7L299.2,147.5z M299.8,146.2C299.8,146.1,299.8,146.1,299.8,146.2
		c0-0.3-0.1-0.4-0.4-0.4h-0.7l-0.2,1.2h0.7c0.4,0,0.5-0.1,0.5-0.4L299.8,146.2z M299.2,149.8c-1.6,0-2.8-1.3-2.8-2.8
		s1.3-2.8,2.8-2.8s2.8,1.3,2.8,2.8S300.7,149.8,299.2,149.8z M299.2,144.6c-1.3,0-2.4,1-2.4,2.4c0,1.3,1,2.4,2.4,2.4
		c1.3,0,2.4-1,2.4-2.4C301.5,145.6,300.4,144.6,299.2,144.6z"/>
</g>
</svg>
