<?xml version="1.0" encoding="utf-8"?>
<!-- Generator: Adobe Illustrator 19.1.0, SVG Export Plug-In . SVG Version: 6.00 Build 0)  -->
<svg version="1.1" id="Layer_1" xmlns="http://www.w3.org/2000/svg" xmlns:xlink="http://www.w3.org/1999/xlink" x="0px" y="0px"
	 viewBox="-285 137 328 328" style="enable-background:new -285 137 328 328;" xml:space="preserve">
<style type="text/css">
	.st0{fill:#FFFFFF;}
	.st1{fill:#757888;}
</style>
<rect x="-285" y="137" class="st0" width="328" height="328"/>
<g>
	<path class="st1" d="M-74.4,287l-9-39.5c-0.5-2.1-2.5-4.3-4.6-4.9l-41.4-12.7c-0.5-0.2-1.1-0.2-1.8-0.2c-1.8,0-3.6,0.7-4.8,1.7
		l-29.7,27.6c-1.6,1.5-2.5,4.3-2,6.4l9.7,42.2c0.5,2.2,2.5,4.3,4.6,4.9l38.7,11.9c0.5,0.2,1.1,0.2,1.8,0.2c1.8,0,3.6-0.7,4.8-1.7
		l31.8-29.5C-74.7,292-73.9,289.2-74.4,287z M-125.2,239.3l28.4,8.7c1.1,0.3,1.1,0.8,0,1.1l-15,3.4c-1.1,0.3-2.7-0.2-3.5-1.1
		l-10.4-11.2C-126.5,239.4-126.3,239-125.2,239.3z M-107.4,290.3c0.3,1.1-0.4,1.8-1.5,1.4l-30.7-9.4c-1.1-0.3-1.3-1.3-0.5-2.1
		l23.5-21.8c0.9-0.8,1.8-0.5,2,0.6L-107.4,290.3z M-158,262.4l24.9-23.1c0.9-0.8,2.2-0.7,3,0.1l12.5,13.5c0.8,0.9,0.7,2.2-0.1,3
		l-24.9,23.1c-0.9,0.8-2.2,0.7-3-0.1l-12.5-13.5C-158.9,264.6-158.8,263.2-158,262.4z M-151.9,299.2l-6.6-28.9
		c-0.3-1.1,0.2-1.4,1-0.5l10.4,11.2c0.8,0.9,1.2,2.5,0.8,3.6l-4.5,14.7C-151.2,300.4-151.7,300.4-151.9,299.2z M-115.5,316.1
		l-32.5-10c-1.1-0.3-1.7-1.5-1.4-2.6l5.4-17.5c0.3-1.1,1.5-1.7,2.6-1.4l32.5,10c1.1,0.3,1.7,1.5,1.4,2.6l-5.4,17.5
		C-113.2,315.8-114.4,316.4-115.5,316.1z M-86.6,292.4l-21.8,20.2c-0.9,0.8-1.3,0.5-0.9-0.6l4.5-14.7c0.3-1.1,1.5-2.2,2.7-2.5
		l15-3.4C-86,291.2-85.8,291.6-86.6,292.4z M-84.3,288.1l-17.9,4.1c-1.1,0.3-2.3-0.5-2.5-1.6l-7.6-33.1c-0.3-1.1,0.5-2.3,1.6-2.5
		l17.9-4.1c1.1-0.3,2.3,0.5,2.5,1.6l7.6,33.1C-82.4,286.7-83.1,287.9-84.3,288.1z"/>
	<g>
		<path class="st1" d="M-97.5,364.6c-0.1,0.4,0.1,0.5,0.3,0.5h1c0.4,0,0.4-0.4,0.5-0.5l4.2-23.7c0.1-0.4-0.2-0.5-0.4-0.5l0,0
			l-1.1,0.2c-0.3,0-0.4,0.3-0.5,0.5l0,0l-1.2,6.9c-1.1-0.3-3.1-0.6-4.2-0.6c-4.4,0-6.6,1.7-7.4,6.4l-1.3,7.5
			c-0.1,0.5-0.1,0.9-0.1,1.3c0,2.1,1.2,2.9,3.4,2.9c2.5,0,5.1-1.2,7.1-2.9L-97.5,364.6z M-104.1,363.7c-1.1,0-1.6-0.3-1.6-1.4
			c0-0.3,0-0.6,0.1-1l1.2-7.1c0.7-3.9,2-5,5.2-5c1.4,0,2.8,0.2,4.2,0.6l-1.9,10.5C-99.1,362.2-101.9,363.7-104.1,363.7z"/>
		<path class="st1" d="M-79.9,364.6c-0.1,0.4,0.1,0.5,0.3,0.5h1c0.4,0,0.4-0.4,0.5-0.5l0,0l2.8-16.1c-2-0.7-4.4-1.1-6-1.1
			c-4.7,0-6.6,1.9-7.4,6.4l-1.3,7.5c-0.1,0.5-0.1,0.9-0.1,1.3c0,2.1,1.2,2.9,3.4,2.9c2.5,0,5-1.2,7-2.9L-79.9,364.6z M-86.4,363.7
			c-1.1,0-1.6-0.3-1.6-1.4c0-0.3,0-0.6,0.1-1l1.2-7.1c0.7-3.8,1.9-5,5.2-5c1.4,0,3.1,0.3,4.1,0.6l-1.9,10.5
			C-81.5,362.2-84.2,363.7-86.4,363.7z"/>
		<path class="st1" d="M-51.4,364.6c-0.1,0.4,0.1,0.5,0.3,0.5h1c0.4,0,0.4-0.4,0.5-0.5l0,0l2.8-16.1c-2-0.7-4.4-1.1-6-1.1
			c-4.7,0-6.6,1.9-7.4,6.4l-1.3,7.5c-0.1,0.5-0.1,0.9-0.1,1.3c0,2.1,1.2,2.9,3.4,2.9c2.5,0,5-1.2,7-2.9L-51.4,364.6z M-57.9,363.7
			c-1.1,0-1.6-0.3-1.6-1.4c0-0.3,0-0.6,0.1-1l1.2-7.1c0.7-3.8,1.9-5,5.2-5c1.4,0,3.1,0.3,4.1,0.6l-1.9,10.5
			C-53,362.2-55.7,363.7-57.9,363.7z"/>
		<g>
			<polygon class="st1" points="-68.2,343.5 -68.2,343.5 -68.2,343.5 			"/>
			<path class="st1" d="M-62.2,349.2L-62.2,349.2l0.2-1.2c0.1-0.3-0.1-0.3-0.2-0.3h-4.9l0.7-4l0,0c0.1-0.4-0.2-0.5-0.4-0.5l0,0
				l-1.1,0.2l0,0c-0.3,0-0.4,0.3-0.5,0.5l0,0l-0.7,3.8h-3c-0.1,0-0.3,0-0.4,0.3l-0.2,1.1l0,0c0,0.1,0,0.3,0.3,0.3h3l-2.3,13
				c0,0.2-0.1,0.5-0.1,0.7c0,1.6,1.1,2.3,2.9,2.3c1.3,0,3.8-0.4,5-1c0.4-0.2,0.3-0.5,0.3-0.7l0,0l-0.3-0.7c-0.1-0.2-0.2-0.1-0.4-0.1
				l0,0c-1.2,0.5-1.9,0.7-4.3,0.7c-0.8,0-1.2-0.2-1.2-0.9c0-0.2,0-0.4,0.1-0.6l2.2-12.8h4.9C-62.4,349.4-62.3,349.3-62.2,349.2z"/>
		</g>
		<path class="st1" d="M-109.1,347.7h-5c-0.2,0-0.5,0.2-0.6,0.3l-3.5,5.1l-2.1-5.4c-0.1-0.3-0.4-0.4-0.6-0.4l-4.4,0.6l3.7,8.2
			l-6.9,8.7h4.7c0.3,0,0.8-0.2,1-0.4l3.2-3.9l1.8,3.9c0.1,0.2,0.4,0.4,0.7,0.4h4.6l-3.7-8.1L-109.1,347.7z"/>
		<path class="st1" d="M-130.5,364.8l3-17c0.1-0.4-0.2-0.3-0.4-0.3l-4.2,0.6c-0.5,0.1-0.6,0.4-0.6,0.6l0,0l-1.8,10.3
			c-1.3,0.6-3.6,1.6-4.5,1.6c-0.5,0-0.7-0.2-0.7-0.5c0-0.1,0-0.4,0.1-0.5l2-11.7l0,0c0.1-0.3-0.2-0.3-0.4-0.3l-4.1,0.6l0,0
			c-0.5,0.1-0.6,0.4-0.6,0.6l0,0l-2,11.3c-0.1,0.7-0.2,1.3-0.2,2c0,2.2,0.9,3.5,3.2,3.5c2,0,4.1-0.7,6.8-2v1.3c0,0.1,0,0.3,0.2,0.3
			h3.8C-130.7,365.1-130.6,364.9-130.5,364.8z"/>
		<path class="st1" d="M-171.9,347.4c-2,0-4.1,0.7-6.8,2v-1.5c0-0.4-0.3-0.3-0.5-0.3l-3.3,0.6l0,0c-0.5,0.1-0.7,0.4-0.8,0.6
			l-2.7,15.7l0,0c-0.1,0.7-0.1,0.8,0.5,0.8h3.7c0.4,0,0.6,0,0.8-0.8l1.8-10.4c1.4-0.7,3.6-1.6,4.5-1.6c0.5,0,0.7,0.1,0.7,0.5
			c0,0.1,0,0.3-0.1,0.5l-1.9,11l0,0c-0.1,0.7-0.1,0.8,0.5,0.8h3.7c0.4,0,0.6,0,0.8-0.8l2-11.4c0.1-0.9,0.2-1.4,0.2-2
			C-168.7,348.7-169.5,347.4-171.9,347.4z"/>
		<g>
			<path class="st1" d="M-186.3,339.8l-4.2,0.6c-0.5,0.1-0.6,0.4-0.6,0.5l-0.8,4.4c-0.1,0.5-0.1,0.5,0.4,0.4l4.1-0.6l0,0
				c0.4-0.1,0.5-0.1,0.6-0.6l0,0l0.8-4.5C-185.8,339.8-185.9,339.8-186.3,339.8z"/>
			<path class="st1" d="M-192.4,348.1L-192.4,348.1L-192.4,348.1z"/>
			<path class="st1" d="M-190.2,364.3L-190.2,364.3l2.9-16.5c0.1-0.3-0.2-0.3-0.4-0.3l-4.2,0.6l0,0c-0.5,0.1-0.6,0.4-0.6,0.6l0,0
				l-2.8,15.8c-0.1,0.6,0,0.7,0.5,0.7h3.7C-190.5,365.1-190.3,365.1-190.2,364.3z"/>
		</g>
		<path class="st1" d="M-148.9,364.3l4.2-24c0.1-0.4-0.1-0.3-0.3-0.3l-4.8,0.8c-2.2-0.6-4.6-0.9-6.1-0.9c-4.5,0-6,1.5-6.7,5.5
			l-0.4,2.3h-2c-0.5,0-0.6,0.2-0.6,0.5l0,0l-0.6,3.3c0,0.1,0,0.3,0.3,0.3h2.2l-2.4,13.3c-0.3,1.6-0.5,2.5-2,4.1l0,0
			c-0.3,0.3-0.2,0.4,0,0.6l0,0l2.7,2.4l0,0c0.3,0.3,0.4,0.2,0.7-0.1c2.4-2.5,3.2-4.1,3.6-6.4l2.4-13.8h3.9c0.2,0,0.3,0,0.3-0.3l0,0
			l0.9-3.5l0,0c0.1-0.3-0.2-0.3-0.3-0.3h-4.1l0.5-2.5c0.2-0.9,0.5-1.2,1.7-1.2c1.5,0,3.9,0.3,5.3,0.6l-3.4,19.7l0,0
			c-0.1,0.7-0.1,0.8,0.5,0.8h3.7C-149.3,365.1-149.1,365.1-148.9,364.3z"/>
	</g>
</g>
</svg>
