<svg width="345" height="200" viewBox="0 0 345 200" fill="none" xmlns="http://www.w3.org/2000/svg">
<rect width="345" height="200" fill="white"/>
<path d="M23.798 29H25.086L21.32 19.662H19.878L16.126 29H17.414L18.24 26.928H22.972L23.798 29ZM20.606 20.698L22.622 25.892H18.576L20.606 20.698ZM27.7974 29H28.9454L31.7594 22.238H30.6114L28.3714 27.782L26.1174 22.238H24.9834L27.7974 29ZM35.8087 29.168C37.8667 29.168 39.1547 27.572 39.1547 25.612C39.1547 23.652 37.8667 22.07 35.8087 22.07C33.7507 22.07 32.4627 23.652 32.4627 25.612C32.4627 27.572 33.7507 29.168 35.8087 29.168ZM35.8087 28.23C34.3667 28.23 33.5547 26.998 33.5547 25.612C33.5547 24.24 34.3667 23.008 35.8087 23.008C37.2507 23.008 38.0487 24.24 38.0487 25.612C38.0487 26.998 37.2507 28.23 35.8087 28.23ZM41.3844 21.104C41.7764 21.104 42.0984 20.782 42.0984 20.39C42.0984 19.998 41.7764 19.69 41.3844 19.69C41.0064 19.69 40.6844 19.998 40.6844 20.39C40.6844 20.782 41.0064 21.104 41.3844 21.104ZM40.8664 29H41.9164V22.238H40.8664V29ZM48.9109 29H49.9609V19.662H48.9109V23.26C48.3649 22.518 47.5389 22.07 46.6289 22.07C44.8509 22.07 43.6189 23.47 43.6189 25.626C43.6189 27.824 44.8649 29.168 46.6289 29.168C47.5809 29.168 48.4069 28.678 48.9109 27.992V29ZM48.9109 27.166C48.5329 27.754 47.7209 28.23 46.8809 28.23C45.5229 28.23 44.7109 27.124 44.7109 25.626C44.7109 24.128 45.5229 23.008 46.8809 23.008C47.7209 23.008 48.5329 23.512 48.9109 24.1V27.166ZM60.251 29H61.301V24.226C61.301 22.756 60.559 22.07 59.145 22.07C58.123 22.07 57.199 22.658 56.723 23.218V19.662H55.673V29H56.723V24.058C57.129 23.512 57.913 23.008 58.725 23.008C59.635 23.008 60.251 23.358 60.251 24.548V29ZM66.3517 29.168C68.4097 29.168 69.6977 27.572 69.6977 25.612C69.6977 23.652 68.4097 22.07 66.3517 22.07C64.2937 22.07 63.0057 23.652 63.0057 25.612C63.0057 27.572 64.2937 29.168 66.3517 29.168ZM66.3517 28.23C64.9097 28.23 64.0977 26.998 64.0977 25.612C64.0977 24.24 64.9097 23.008 66.3517 23.008C67.7937 23.008 68.5917 24.24 68.5917 25.612C68.5917 26.998 67.7937 28.23 66.3517 28.23ZM71.4094 29H72.4594V24.212C72.7674 23.666 73.6494 23.134 74.2934 23.134C74.4614 23.134 74.5874 23.148 74.7134 23.176V22.098C73.7894 22.098 73.0054 22.616 72.4594 23.33V22.238H71.4094V29ZM76.5485 21.104C76.9405 21.104 77.2625 20.782 77.2625 20.39C77.2625 19.998 76.9405 19.69 76.5485 19.69C76.1705 19.69 75.8485 19.998 75.8485 20.39C75.8485 20.782 76.1705 21.104 76.5485 21.104ZM76.0305 29H77.0805V22.238H76.0305V29ZM78.853 29H84.005V28.09H80.197L83.949 23.036V22.238H78.853V23.162H82.577L78.853 28.188V29ZM88.7325 29.168C90.7905 29.168 92.0785 27.572 92.0785 25.612C92.0785 23.652 90.7905 22.07 88.7325 22.07C86.6745 22.07 85.3865 23.652 85.3865 25.612C85.3865 27.572 86.6745 29.168 88.7325 29.168ZM88.7325 28.23C87.2905 28.23 86.4785 26.998 86.4785 25.612C86.4785 24.24 87.2905 23.008 88.7325 23.008C90.1745 23.008 90.9725 24.24 90.9725 25.612C90.9725 26.998 90.1745 28.23 88.7325 28.23ZM98.3542 29H99.4042V24.254C99.4042 22.784 98.6622 22.07 97.2482 22.07C96.2402 22.07 95.3162 22.658 94.8402 23.218V22.238H93.7902V29H94.8402V24.058C95.2322 23.512 96.0162 23.008 96.8422 23.008C97.7522 23.008 98.3542 23.386 98.3542 24.576V29ZM103.209 29.168C103.825 29.168 104.203 28.986 104.469 28.734L104.161 27.95C104.021 28.104 103.741 28.23 103.447 28.23C102.985 28.23 102.761 27.866 102.761 27.362V23.162H104.133V22.238H102.761V20.39H101.711V22.238H100.591V23.162H101.711V27.586C101.711 28.594 102.215 29.168 103.209 29.168ZM109.844 29H110.894V24.352C110.894 22.714 109.704 22.07 108.276 22.07C107.17 22.07 106.302 22.434 105.574 23.19L106.064 23.918C106.666 23.274 107.324 22.98 108.136 22.98C109.116 22.98 109.844 23.498 109.844 24.408V25.626C109.298 24.996 108.528 24.702 107.604 24.702C106.456 24.702 105.238 25.416 105.238 26.928C105.238 28.398 106.456 29.168 107.604 29.168C108.514 29.168 109.284 28.846 109.844 28.23V29ZM109.844 27.572C109.438 28.132 108.724 28.412 107.982 28.412C107.002 28.412 106.316 27.796 106.316 26.942C106.316 26.074 107.002 25.458 107.982 25.458C108.724 25.458 109.438 25.738 109.844 26.298V27.572ZM112.999 29H114.049V19.662H112.999V29ZM119.165 28.104C119.851 28.832 120.789 29.168 121.895 29.168C123.645 29.168 124.555 28.258 124.555 27.124C124.555 25.626 123.197 25.29 122.021 25.024C121.139 24.814 120.369 24.604 120.369 23.946C120.369 23.344 120.943 22.924 121.867 22.924C122.735 22.924 123.477 23.288 123.883 23.778L124.373 23.05C123.827 22.504 123.015 22.07 121.867 22.07C120.257 22.07 119.347 22.966 119.347 24.016C119.347 25.416 120.649 25.724 121.797 25.99C122.707 26.214 123.533 26.452 123.533 27.194C123.533 27.852 122.973 28.314 121.937 28.314C121.013 28.314 120.159 27.866 119.711 27.348L119.165 28.104ZM130.867 29H132.211L129.201 25.304L132.197 22.238H130.867L127.311 25.836V19.662H126.261V29H127.311V27.068L128.431 25.962L130.867 29ZM132.732 25.612C132.732 27.726 134.174 29.168 136.176 29.168C137.282 29.168 138.192 28.804 138.864 28.132L138.36 27.446C137.828 27.992 137.044 28.3 136.274 28.3C134.818 28.3 133.922 27.236 133.838 25.962H139.312V25.696C139.312 23.666 138.108 22.07 136.064 22.07C134.132 22.07 132.732 23.652 132.732 25.612ZM136.05 22.938C137.59 22.938 138.262 24.184 138.276 25.192H133.838C133.894 24.156 134.608 22.938 136.05 22.938ZM146.865 29H147.915L150.071 22.238H148.979L147.327 27.628L145.549 22.238H144.653L142.875 27.628L141.223 22.238H140.131L142.287 29H143.337L145.101 23.568L146.865 29ZM151.812 21.104C152.204 21.104 152.526 20.782 152.526 20.39C152.526 19.998 152.204 19.69 151.812 19.69C151.434 19.69 151.112 19.998 151.112 20.39C151.112 20.782 151.434 21.104 151.812 21.104ZM151.294 29H152.344V22.238H151.294V29ZM159.003 29H160.053V24.254C160.053 22.784 159.311 22.07 157.897 22.07C156.889 22.07 155.965 22.658 155.489 23.218V22.238H154.439V29H155.489V24.058C155.881 23.512 156.665 23.008 157.491 23.008C158.401 23.008 159.003 23.386 159.003 24.576V29ZM162.136 30.736C162.934 31.52 163.718 31.744 164.866 31.744C166.518 31.744 168.086 31.044 168.086 28.804V22.238H167.036V23.26C166.49 22.518 165.678 22.07 164.768 22.07C162.99 22.07 161.758 23.414 161.758 25.584C161.758 27.768 163.004 29.084 164.768 29.084C165.72 29.084 166.546 28.566 167.036 27.88V28.846C167.036 30.33 165.986 30.876 164.866 30.876C163.9 30.876 163.228 30.624 162.668 29.952L162.136 30.736ZM167.036 27.054C166.672 27.642 165.86 28.16 165.02 28.16C163.662 28.16 162.85 27.068 162.85 25.584C162.85 24.086 163.662 23.008 165.02 23.008C165.86 23.008 166.672 23.512 167.036 24.1V27.054Z" fill="#020A47"/>
<rect x="0.5" y="0.5" width="344" height="199" stroke="#E4E4E4"/>
<path fill-rule="evenodd" clip-rule="evenodd" d="M322.707 28.293C323.098 28.684 323.098 29.316 322.707 29.707C322.512 29.902 322.256 30 322 30C321.744 30 321.488 29.902 321.293 29.707L319 27.414L316.707 29.707C316.512 29.902 316.256 30 316 30C315.744 30 315.488 29.902 315.293 29.707C314.902 29.316 314.902 28.684 315.293 28.293L317.586 26L315.293 23.707C314.902 23.316 314.902 22.684 315.293 22.293C315.684 21.902 316.316 21.902 316.707 22.293L319 24.586L321.293 22.293C321.684 21.902 322.316 21.902 322.707 22.293C323.098 22.684 323.098 23.316 322.707 23.707L320.414 26L322.707 28.293ZM319 18C314.582 18 311 21.582 311 26C311 30.418 314.582 34 319 34C323.418 34 327 30.418 327 26C327 21.582 323.418 18 319 18Z" fill="#DE1C22"/>
<path d="M116.299 111.791C115.515 111.802 114.748 111.539 113.999 111.003C113.269 110.467 112.759 109.812 112.471 109.036C112.169 108.222 112.185 107.55 112.52 107.019C112.866 106.469 113.431 106.189 114.215 106.179C115 106.169 115.757 106.431 116.488 106.967C117.211 107.484 117.724 108.149 118.027 108.964C118.315 109.739 118.295 110.402 117.967 110.951C117.64 111.501 117.084 111.781 116.299 111.791ZM120.255 129.185L114.684 114.179L119.637 114.115L125.208 129.12L120.255 129.185Z" fill="#020A47"/>
<path d="M128.54 129.076L122.968 114.071L127.839 114.007L128.585 115.868C128.676 115.126 129.002 114.547 129.562 114.131C130.123 113.714 130.868 113.5 131.799 113.488C133.386 113.467 134.791 113.994 136.016 115.069C137.251 116.124 138.253 117.689 139.024 119.764L142.414 128.895L137.461 128.96L134.437 120.817C133.782 119.053 132.825 118.179 131.567 118.196C130.892 118.204 130.465 118.463 130.288 118.972C130.121 119.461 130.207 120.161 130.545 121.073L133.493 129.011L128.54 129.076Z" fill="#020A47"/>
<path d="M147.093 128.833L143.088 118.045L140.816 118.074L139.251 113.858L141.522 113.828L140.982 112.374C140.126 110.067 139.992 108.277 140.583 107.003C141.191 105.728 142.471 105.078 144.423 105.053C144.989 105.046 145.536 105.087 146.065 105.178C146.604 105.248 147.076 105.359 147.48 105.51L148.854 109.875C148.617 109.781 148.346 109.716 148.039 109.681C147.744 109.626 147.478 109.601 147.241 109.604C146.456 109.614 145.962 109.864 145.759 110.354C145.574 110.843 145.676 111.611 146.065 112.658L146.475 113.763L149.814 113.72L151.379 117.936L148.041 117.98L152.047 128.769L147.093 128.833ZM157.575 128.696L148.829 105.141L153.782 105.077L162.528 128.631L157.575 128.696Z" fill="#020A47"/>
<path d="M170.698 128.992C169.148 129.012 167.767 128.504 166.558 127.468C165.341 126.413 164.355 124.867 163.599 122.832L160.165 113.584L165.146 113.519L168.18 121.69C168.511 122.582 168.902 123.239 169.352 123.662C169.82 124.085 170.383 124.291 171.04 124.283C171.697 124.274 172.108 124.025 172.275 123.536C172.453 123.027 172.372 122.317 172.034 121.406L169.086 113.467L174.039 113.402L179.611 128.408L174.74 128.472L173.994 126.611C173.903 127.353 173.568 127.932 172.989 128.348C172.429 128.765 171.665 128.979 170.698 128.992Z" fill="#020A47"/>
<path d="M181.856 128.378L184.128 120.576L176.558 113.369L182.086 113.297L185.896 117.338L186.628 113.238L191.883 113.169L189.76 120.56L197.782 128.17L192.227 128.243L187.97 123.74L187.11 128.31L181.856 128.378Z" fill="#020A47"/>
<path d="M206.63 128.522C205.371 128.538 204.118 128.223 202.87 127.577C201.64 126.931 200.526 126.03 199.529 124.874C198.524 123.699 197.745 122.365 197.19 120.872C196.658 119.438 196.476 118.135 196.646 116.964C196.828 115.773 197.312 114.832 198.1 114.139C198.881 113.428 199.901 113.064 201.16 113.047C202.199 113.034 203.249 113.293 204.308 113.824C205.385 114.356 206.372 115.112 207.268 116.094L202.938 104.433L205.264 104.403L214.01 127.957L211.739 127.987L210.702 125.342C210.521 126.338 210.085 127.113 209.393 127.667C208.7 128.222 207.78 128.507 206.63 128.522ZM206.412 126.304C207.36 126.291 208.104 126.048 208.643 125.573C209.181 125.099 209.497 124.442 209.589 123.603C209.699 122.764 209.552 121.801 209.149 120.716C208.746 119.63 208.18 118.673 207.451 117.845C206.74 117.017 205.942 116.375 205.058 115.919C204.174 115.463 203.257 115.241 202.309 115.253C201.378 115.265 200.634 115.509 200.077 115.984C199.539 116.458 199.214 117.115 199.104 117.954C199.012 118.793 199.168 119.755 199.571 120.841C199.974 121.927 200.531 122.884 201.242 123.712C201.971 124.54 202.778 125.182 203.662 125.638C204.565 126.094 205.481 126.316 206.412 126.304Z" fill="#020A47"/>
<path d="M224.723 128.285C223.464 128.301 222.21 127.986 220.962 127.34C219.732 126.694 218.618 125.793 217.621 124.637C216.616 123.462 215.837 122.128 215.283 120.635C214.75 119.201 214.569 117.898 214.739 116.727C214.92 115.536 215.405 114.595 216.193 113.903C216.973 113.191 217.993 112.827 219.252 112.811C220.292 112.797 221.341 113.056 222.4 113.588C223.478 114.119 224.464 114.876 225.36 115.857L224.433 113.21L226.704 113.181L232.103 127.721L229.831 127.75L228.794 125.105C228.614 126.101 228.178 126.876 227.485 127.43C226.793 127.985 225.872 128.27 224.723 128.285ZM224.504 126.067C225.453 126.054 226.196 125.811 226.735 125.336C227.274 124.862 227.589 124.205 227.681 123.366C227.791 122.527 227.645 121.565 227.241 120.479C226.838 119.393 226.272 118.436 225.543 117.608C224.832 116.78 224.035 116.138 223.15 115.682C222.266 115.226 221.35 115.004 220.401 115.016C219.47 115.029 218.727 115.272 218.17 115.747C217.631 116.221 217.307 116.878 217.197 117.717C217.105 118.556 217.26 119.519 217.663 120.604C218.067 121.69 218.624 122.647 219.334 123.475C220.064 124.303 220.87 124.946 221.755 125.401C222.657 125.857 223.573 126.079 224.504 126.067Z" fill="#020A47"/>
<path d="M242.651 128.05C241.1 128.07 239.798 127.649 238.744 126.786C237.683 125.904 236.804 124.523 236.105 122.642L233.352 115.227L230.232 115.268L229.444 113.145L232.564 113.104L231.009 108.916L233.335 108.886L234.89 113.073L239.679 113.011L240.467 115.134L235.678 115.196L238.356 122.408C238.817 123.649 239.352 124.548 239.962 125.105C240.583 125.642 241.35 125.905 242.262 125.893C243.138 125.881 243.947 125.617 244.691 125.101L245.731 127.162C245.412 127.439 244.977 127.649 244.425 127.793C243.899 127.956 243.307 128.041 242.651 128.05Z" fill="#020A47"/>
<path d="M254.68 127.893C253.422 127.909 252.168 127.594 250.92 126.948C249.69 126.302 248.576 125.401 247.579 124.245C246.574 123.07 245.795 121.736 245.241 120.243C244.708 118.809 244.527 117.506 244.697 116.335C244.878 115.144 245.363 114.203 246.151 113.51C246.931 112.799 247.951 112.435 249.21 112.418C250.25 112.405 251.299 112.664 252.358 113.195C253.435 113.727 254.422 114.483 255.318 115.465L254.391 112.818L256.662 112.788L262.061 127.328L259.789 127.358L258.752 124.713C258.572 125.708 258.135 126.484 257.443 127.038C256.751 127.593 255.83 127.878 254.68 127.893ZM254.462 125.675C255.411 125.662 256.154 125.419 256.693 124.944C257.232 124.47 257.547 123.813 257.639 122.974C257.749 122.135 257.602 121.172 257.199 120.087C256.796 119.001 256.23 118.044 255.501 117.216C254.79 116.388 253.993 115.745 253.108 115.29C252.224 114.834 251.308 114.612 250.359 114.624C249.428 114.636 248.685 114.88 248.128 115.355C247.589 115.829 247.265 116.486 247.154 117.325C247.063 118.164 247.218 119.126 247.621 120.212C248.024 121.298 248.581 122.255 249.292 123.083C250.022 123.911 250.828 124.553 251.712 125.009C252.615 125.465 253.531 125.687 254.462 125.675Z" fill="#020A47"/>
<path fill-rule="evenodd" clip-rule="evenodd" d="M97.9489 126.321L104.676 124.429C104.781 124.403 104.87 124.353 104.939 124.28C105.008 124.208 105.054 124.116 105.074 124.01C105.095 123.903 105.09 123.785 105.059 123.663C105.028 123.541 104.973 123.417 104.896 123.299L96.3888 108.898C96.2436 108.66 96.0238 108.458 95.7778 108.334C95.5317 108.21 95.2795 108.176 95.0764 108.238L88.3524 110.13C88.1512 110.194 88.0158 110.349 87.9758 110.56C87.9358 110.772 87.9943 111.024 88.1387 111.26L96.6364 125.662C96.7817 125.899 97.0014 126.102 97.2475 126.226C97.4935 126.349 97.7457 126.384 97.9489 126.321Z" fill="#020A47"/>
<path fill-rule="evenodd" clip-rule="evenodd" d="M98.7148 135.279L104.416 126.373C104.619 126.007 104.452 125.786 104.052 125.969L98.4414 127.533C98.2114 127.603 98.0262 127.739 97.9029 127.93C97.7796 128.121 97.7223 128.359 97.7361 128.623L98.2319 135.017C98.2872 135.511 98.5079 135.645 98.7148 135.279Z" fill="#020A47"/>
<path fill-rule="evenodd" clip-rule="evenodd" d="M81.2949 132.625L96.3496 136.842C96.5957 136.884 96.817 136.838 96.9738 136.713C97.1306 136.588 97.2128 136.391 97.2056 136.157L96.6236 128.502C96.612 128.383 96.5758 128.258 96.5172 128.135C96.4585 128.012 96.3784 127.893 96.2816 127.786C96.1848 127.678 96.0732 127.584 95.9531 127.508C95.8329 127.432 95.7067 127.376 95.5816 127.343L80.5425 123.168C80.2897 123.102 80.0568 123.134 79.8946 123.258C79.7324 123.381 79.6542 123.586 79.6769 123.827L80.2681 131.466C80.2901 131.705 80.4104 131.961 80.6027 132.178C80.795 132.395 81.0438 132.555 81.2949 132.625Z" fill="#020A47"/>
<path fill-rule="evenodd" clip-rule="evenodd" d="M71.1646 117.072L78.571 129.655C78.8393 130.147 79.0585 130.144 78.9941 129.649L78.4984 123.256C78.4613 122.984 78.3587 122.701 78.1988 122.429C78.0388 122.157 77.8261 121.904 77.5777 121.691L71.4644 116.842C71.0285 116.475 70.8446 116.581 71.1646 117.072Z" fill="#020A47"/>
<path fill-rule="evenodd" clip-rule="evenodd" d="M76.6518 103.447L70.1117 113.66C70.0084 113.828 69.9963 114.057 70.0778 114.299C70.1593 114.54 70.328 114.773 70.5477 114.949L77.8753 120.771C78.0998 120.946 78.357 121.048 78.5909 121.054C78.8249 121.059 79.0168 120.968 79.1248 120.799L85.6559 110.57C85.7609 110.403 85.774 110.173 85.6923 109.932C85.6106 109.69 85.4408 109.456 85.2198 109.281L77.9026 103.463C77.7907 103.375 77.6693 103.304 77.5455 103.256C77.4218 103.207 77.2981 103.182 77.1818 103.18C77.0654 103.179 76.9586 103.202 76.8677 103.247C76.7767 103.293 76.7033 103.361 76.6518 103.447Z" fill="#020A47"/>
<path fill-rule="evenodd" clip-rule="evenodd" d="M95.0617 126.132C95.5807 126.262 95.7767 125.99 95.4616 125.479L87.4256 111.885C87.1147 111.393 86.6809 111.263 86.4758 111.625L80.3276 121.279C80.1196 121.642 80.3544 122.043 80.8704 122.173L95.0617 126.132Z" fill="#020A47"/>
<path fill-rule="evenodd" clip-rule="evenodd" d="M93.0569 107.05L79.9209 103.404C79.405 103.275 79.3867 103.456 79.9168 103.854L86.0241 108.687C86.2874 108.875 86.5719 109.011 86.8536 109.084C87.1354 109.156 87.4063 109.163 87.6437 109.103L93.2553 107.543C93.6585 107.402 93.5748 107.176 93.0569 107.05Z" fill="#020A47"/>
<path d="M261.402 107.129C260.808 107.136 260.221 107.011 259.64 106.754C259.059 106.496 258.543 106.142 258.093 105.693C257.643 105.244 257.315 104.741 257.109 104.185C256.902 103.628 256.855 103.122 256.969 102.665C257.083 102.209 257.332 101.845 257.717 101.575C258.102 101.304 258.591 101.165 259.184 101.158C259.788 101.15 260.375 101.275 260.946 101.533C261.527 101.79 262.043 102.144 262.493 102.593C262.943 103.042 263.271 103.545 263.477 104.101C263.684 104.658 263.731 105.164 263.617 105.621C263.503 106.077 263.254 106.441 262.869 106.711C262.494 106.982 262.005 107.121 261.402 107.129ZM261.207 106.605C261.7 106.599 262.098 106.484 262.399 106.262C262.711 106.04 262.914 105.744 263.009 105.373C263.101 104.993 263.06 104.571 262.889 104.109C262.717 103.647 262.447 103.233 262.079 102.868C261.708 102.494 261.286 102.201 260.813 101.989C260.35 101.777 259.872 101.675 259.379 101.681C258.896 101.687 258.498 101.802 258.187 102.024C257.875 102.246 257.673 102.547 257.582 102.927C257.487 103.298 257.526 103.715 257.697 104.177C257.869 104.639 258.14 105.058 258.512 105.432C258.88 105.797 259.3 106.085 259.773 106.297C260.246 106.509 260.724 106.611 261.207 106.605ZM259.726 105.515L258.665 102.657L259.691 102.644C260.073 102.639 260.395 102.715 260.655 102.873C260.926 103.031 261.114 103.251 261.219 103.534C261.286 103.713 261.302 103.879 261.267 104.031C261.229 104.173 261.134 104.284 260.981 104.362L262.156 105.484L261.522 105.492L260.474 104.468L259.886 104.475L260.269 105.508L259.726 105.515ZM259.814 103.097L259.376 103.103L259.717 104.023L260.14 104.017C260.392 104.014 260.554 103.974 260.626 103.897C260.699 103.82 260.705 103.702 260.646 103.541C260.534 103.239 260.256 103.091 259.814 103.097Z" fill="#020A47"/>
</svg>
