<?xml version="1.0" encoding="utf-8"?>
<!-- Generator: Adobe Illustrator 19.1.0, SVG Export Plug-In . SVG Version: 6.00 Build 0)  -->
<svg version="1.1" id="Layer_1" xmlns="http://www.w3.org/2000/svg" xmlns:xlink="http://www.w3.org/1999/xlink" x="0px" y="0px"
	 viewBox="-171 37 328 328" style="enable-background:new -171 37 328 328;" xml:space="preserve">
<style type="text/css">
	.st0{fill:#1F242D;}
	.st1{fill:none;}
</style>
<path class="st0" d="M42.4,211.3l-9.5-41.4c-0.5-2.2-2.7-4.5-4.8-5.2l-43.9-13.4c-0.6-0.1-1.2-0.3-1.9-0.3c-1.9,0-3.9,0.7-5.1,1.9
	l-31.4,29c-1.7,1.6-2.7,4.5-2.1,6.8l10.2,44.4c0.5,2.3,2.6,4.5,4.8,5.2l41,12.6c0.6,0.1,1.2,0.3,1.9,0.3c1.9,0,3.9-0.7,5.1-1.9
	l33.7-31C41.9,216.5,42.9,213.6,42.4,211.3z M-11.5,161.3l30,9.1c1.2,0.4,1.1,0.9,0,1.1l-15.9,3.6c-1.2,0.3-2.9-0.2-3.7-1.1
	L-12,162.2C-12.9,161.3-12.6,160.9-11.5,161.3z M7.3,214.8c0.3,1.1-0.4,1.9-1.7,1.5l-32.4-9.9c-1.2-0.4-1.4-1.4-0.5-2.1l24.9-22.9
	c0.9-0.9,1.9-0.6,2.2,0.6L7.3,214.8z M-46.1,185.5l26.3-24.3c0.9-0.9,2.3-0.8,3.2,0.1l13.2,14.1c0.9,0.9,0.8,2.3-0.1,3.1l-26.3,24.3
	c-0.9,0.9-2.3,0.8-3.2-0.1l-13.2-14.1C-47.1,187.7-47.1,186.3-46.1,185.5z M-39.7,224.2l-7-30.4c-0.3-1.1,0.2-1.4,1-0.6l11.1,11.8
	c0.9,0.9,1.2,2.6,0.9,3.8l-4.8,15.4C-39,225.4-39.5,225.4-39.7,224.2z M-1.2,241.9l-34.4-10.5c-1.2-0.4-1.8-1.6-1.5-2.8l5.7-18.4
	c0.4-1.1,1.7-1.8,2.8-1.5l34.4,10.5c1.2,0.4,1.8,1.6,1.5,2.8l-5.7,18.5C1.2,241.5-0.1,242.2-1.2,241.9z M29.4,217l-23,21.2
	c-0.9,0.9-1.4,0.6-1-0.6l4.8-15.4c0.4-1.1,1.7-2.4,2.9-2.6l15.9-3.6C30,215.7,30.2,216.2,29.4,217z M31.9,212.5l-18.9,4.3
	c-1.2,0.3-2.4-0.5-2.7-1.6l-8-34.8c-0.3-1.1,0.5-2.4,1.7-2.6l18.9-4.3c1.2-0.3,2.4,0.5,2.7,1.6l8,34.8
	C33.8,211.1,33.1,212.2,31.9,212.5z"/>
<rect x="-171" y="37" class="st1" width="328" height="328"/>
</svg>
