<svg width="735" height="290" viewBox="0 0 735 290" fill="none" xmlns="http://www.w3.org/2000/svg">
<mask maskUnits="userSpaceOnUse" x="0" y="0" width="0" height="0" fill="black">
<rect fill="white" width="0" height="0"/>
</mask>
<path d="M1.14645 30.1464C0.951185 30.3417 0.951184 30.6583 1.14645 30.8536L4.32843 34.0355C4.52369 34.2308 4.84027 34.2308 5.03553 34.0355C5.2308 33.8403 5.2308 33.5237 5.03553 33.3284L2.20711 30.5L5.03553 27.6716C5.2308 27.4763 5.2308 27.1597 5.03553 26.9645C4.84027 26.7692 4.52369 26.7692 4.32843 26.9645L1.14645 30.1464ZM146.854 30.8536C147.049 30.6583 147.049 30.3417 146.854 30.1465L143.672 26.9645C143.476 26.7692 143.16 26.7692 142.964 26.9645C142.769 27.1597 142.769 27.4763 142.964 27.6716L145.793 30.5L142.964 33.3284C142.769 33.5237 142.769 33.8403 142.964 34.0355C143.16 34.2308 143.476 34.2308 143.672 34.0355L146.854 30.8536ZM1.5 31L146.5 31L146.5 30L1.5 30L1.5 31Z" fill="#A1A1A1" mask="url(#)"/>
<mask maskUnits="userSpaceOnUse" x="0" y="0" width="0" height="0" fill="black">
<rect fill="white" width="0" height="0"/>
</mask>
<path d="M734.854 30.8536C735.049 30.6583 735.049 30.3417 734.854 30.1464L731.672 26.9645C731.476 26.7692 731.16 26.7692 730.964 26.9645C730.769 27.1597 730.769 27.4763 730.964 27.6716L733.793 30.5L730.964 33.3284C730.769 33.5237 730.769 33.8403 730.964 34.0355C731.16 34.2308 731.476 34.2308 731.672 34.0355L734.854 30.8536ZM185.146 30.1464C184.951 30.3417 184.951 30.6583 185.146 30.8536L188.328 34.0355C188.524 34.2308 188.84 34.2308 189.036 34.0355C189.231 33.8403 189.231 33.5237 189.036 33.3284L186.207 30.5L189.036 27.6716C189.231 27.4763 189.231 27.1597 189.036 26.9645C188.84 26.7692 188.524 26.7692 188.328 26.9645L185.146 30.1464ZM734.5 30L185.5 30V31L734.5 31V30Z" fill="#A1A1A1" mask="url(#)"/>
<path d="M77.2 14H78.316L74.878 9.536L78.118 5.306H77.002L74.32 8.888L71.62 5.306H70.504L73.744 9.536L70.306 14H71.422L74.32 10.166L77.2 14Z" fill="#C7C7C7"/>
<path d="M163.268 17L158.444 10.826L162.998 4.994H161.702L157.796 10.088L153.908 4.994H152.594L157.166 10.844L152.324 17H153.62L157.796 11.582L161.99 17H163.268ZM164.412 17.36L168.678 4.634H167.868L163.602 17.36H164.412ZM169.258 15.218C169.942 16.298 171.382 17.216 173.344 17.216C175.9 17.216 177.394 15.758 177.394 13.778C177.394 11.798 175.684 10.898 174.64 10.79C175.666 10.61 177.214 9.818 177.214 7.982C177.214 5.948 175.432 4.814 173.344 4.814C171.598 4.814 170.266 5.606 169.42 6.632L170.068 7.28C170.95 6.29 171.922 5.75 173.29 5.75C174.838 5.75 176.17 6.578 176.17 8.072C176.17 9.674 174.712 10.358 173.128 10.358C172.642 10.358 172.192 10.358 172.012 10.34V11.312C172.192 11.294 172.642 11.294 173.128 11.294C174.928 11.294 176.35 11.996 176.35 13.724C176.35 15.308 175.18 16.28 173.326 16.28C171.796 16.28 170.626 15.56 169.96 14.606L169.258 15.218Z" fill="#C7C7C7"/>
<path d="M6.748 286V284.558H2.632V276.662H0.994V286H6.748ZM12.3826 281.338C12.3826 284.124 14.3566 286.168 17.1566 286.168C19.9566 286.168 21.9306 284.124 21.9306 281.338C21.9306 278.552 19.9566 276.508 17.1566 276.508C14.3566 276.508 12.3826 278.552 12.3826 281.338ZM20.2506 281.338C20.2506 283.256 19.0326 284.712 17.1566 284.712C15.2666 284.712 14.0626 283.256 14.0626 281.338C14.0626 279.406 15.2666 277.964 17.1566 277.964C19.0326 277.964 20.2506 279.406 20.2506 281.338ZM28.0877 281.338C28.0877 284.264 30.2857 286.182 32.9877 286.182C34.6117 286.182 35.9137 285.51 36.8377 284.488V280.988H32.4137V282.43H35.1997V283.886C34.7797 284.278 33.9397 284.726 32.9877 284.726C31.1397 284.726 29.7677 283.298 29.7677 281.338C29.7677 279.378 31.1397 277.964 32.9877 277.964C34.0377 277.964 34.9197 278.51 35.4097 279.21L36.7537 278.454C35.9977 277.376 34.8077 276.508 32.9877 276.508C30.2857 276.508 28.0877 278.412 28.0877 281.338ZM43.1228 281.338C43.1228 284.124 45.0968 286.168 47.8968 286.168C50.6968 286.168 52.6708 284.124 52.6708 281.338C52.6708 278.552 50.6968 276.508 47.8968 276.508C45.0968 276.508 43.1228 278.552 43.1228 281.338ZM50.9908 281.338C50.9908 283.256 49.7728 284.712 47.8968 284.712C46.0068 284.712 44.8028 283.256 44.8028 281.338C44.8028 279.406 46.0068 277.964 47.8968 277.964C49.7728 277.964 50.9908 279.406 50.9908 281.338ZM68.9499 286V276.662H66.6399L64.0919 282.948L61.5579 276.662H59.2479V286H60.8859V278.93L63.7419 286H64.4419L67.3119 278.93V286H68.9499ZM84.3374 286L80.6694 276.662H78.6254L74.9574 286H76.7494L77.4354 284.208H81.8594L82.5454 286H84.3374ZM81.3974 282.766H77.8974L79.6474 278.048L81.3974 282.766ZM97.5813 286L95.2993 282.332C96.4193 282.15 97.5113 281.254 97.5113 279.588C97.5113 277.866 96.3073 276.662 94.4593 276.662H90.3573V286H91.9953V282.514H93.6193L95.6913 286H97.5813ZM95.8313 279.588C95.8313 280.484 95.1593 281.072 94.2353 281.072H91.9953V278.104H94.2353C95.1593 278.104 95.8313 278.692 95.8313 279.588ZM111.75 286L107.676 281.072L111.47 276.662H109.44L105.786 281.114V276.662H104.148V286H105.786V283.018L106.598 282.066L109.734 286H111.75Z" fill="#020A47"/>
<path d="M237.884 286L240.544 276.662H238.71L236.904 283.858L234.972 276.662H233.67L231.738 283.858L229.918 276.662H228.084L230.758 286H232.508L234.314 279.112L236.134 286H237.884ZM245.947 281.338C245.947 284.124 247.921 286.168 250.721 286.168C253.521 286.168 255.495 284.124 255.495 281.338C255.495 278.552 253.521 276.508 250.721 276.508C247.921 276.508 245.947 278.552 245.947 281.338ZM253.815 281.338C253.815 283.256 252.597 284.712 250.721 284.712C248.831 284.712 247.627 283.256 247.627 281.338C247.627 279.406 248.831 277.964 250.721 277.964C252.597 277.964 253.815 279.406 253.815 281.338ZM269.296 286L267.014 282.332C268.134 282.15 269.226 281.254 269.226 279.588C269.226 277.866 268.022 276.662 266.174 276.662H262.072V286H263.71V282.514H265.334L267.406 286H269.296ZM267.546 279.588C267.546 280.484 266.874 281.072 265.95 281.072H263.71V278.104H265.95C266.874 278.104 267.546 278.692 267.546 279.588ZM279.335 286C282.247 286 284.221 284.082 284.221 281.338C284.221 278.594 282.247 276.662 279.335 276.662H275.863V286H279.335ZM277.501 278.104H279.335C281.421 278.104 282.541 279.532 282.541 281.338C282.541 283.102 281.365 284.558 279.335 284.558H277.501V278.104ZM300.505 286V276.662H298.195L295.647 282.948L293.113 276.662H290.803V286H292.441V278.93L295.297 286H295.997L298.867 278.93V286H300.505ZM315.892 286L312.224 276.662H310.18L306.512 286H308.304L308.99 284.208H313.414L314.1 286H315.892ZM312.952 282.766H309.452L311.202 278.048L312.952 282.766ZM329.136 286L326.854 282.332C327.974 282.15 329.066 281.254 329.066 279.588C329.066 277.866 327.862 276.662 326.014 276.662H321.912V286H323.55V282.514H325.174L327.246 286H329.136ZM327.386 279.588C327.386 280.484 326.714 281.072 325.79 281.072H323.55V278.104H325.79C326.714 278.104 327.386 278.692 327.386 279.588ZM343.305 286L339.231 281.072L343.025 276.662H340.995L337.341 281.114V276.662H335.703V286H337.341V283.018L338.153 282.066L341.289 286H343.305Z" fill="#020A47"/>
<path d="M190.788 85.192C187.933 85.192 185.509 84.2596 183.517 82.3948C181.592 80.5299 180.629 78.2655 180.629 75.6015C180.629 72.8043 181.592 70.5066 183.517 68.7084C185.509 66.8436 187.933 65.9112 190.788 65.9112C193.643 65.9112 196.034 66.8436 197.959 68.7084C199.885 70.5066 200.848 72.8043 200.848 75.6015C200.848 78.2655 199.885 80.5299 197.959 82.3948C196.034 84.2596 193.643 85.192 190.788 85.192ZM181.725 144.833V93.2839H199.752V144.833H181.725Z" fill="#020A47"/>
<path d="M211.877 144.833V93.2839H229.606L229.805 99.6776C231.133 97.1468 233.092 95.182 235.682 93.7834C238.271 92.3848 241.259 91.6855 244.646 91.6855C250.423 91.6855 254.805 93.5503 257.793 97.28C260.847 100.943 262.375 106.338 262.375 113.464V144.833H244.347V116.86C244.347 110.8 242.056 107.77 237.474 107.77C235.018 107.77 233.125 108.635 231.797 110.367C230.536 112.032 229.905 114.43 229.905 117.56V144.833H211.877Z" fill="#020A47"/>
<path d="M279.406 144.833V107.77H271.139V93.2839H279.406V88.2889C279.406 80.3634 281.332 74.2362 285.183 69.9072C289.101 65.5782 294.612 63.4136 301.717 63.4136C303.775 63.4136 305.701 63.5801 307.494 63.9131C309.353 64.1795 310.913 64.5791 312.175 65.112L311.279 80.0971C310.548 79.764 309.652 79.5309 308.589 79.3977C307.593 79.1979 306.664 79.098 305.801 79.098C302.945 79.098 300.82 79.9305 299.426 81.5956C298.098 83.2606 297.434 85.8913 297.434 89.4877V93.2839H309.585V107.77H297.434V144.833H279.406ZM317.553 144.833V63.9131H335.581V144.833H317.553Z" fill="#020A47"/>
<path d="M364.69 146.431C359.046 146.431 354.73 144.633 351.742 141.036C348.754 137.373 347.26 132.045 347.26 125.052V93.2839H365.387V121.356C365.387 124.42 365.919 126.684 366.981 128.149C368.11 129.614 369.869 130.347 372.26 130.347C374.65 130.347 376.476 129.515 377.738 127.85C379.066 126.118 379.73 123.687 379.73 120.557V93.2839H397.758V144.833H380.029L379.829 138.439C378.501 140.97 376.509 142.935 373.853 144.333C371.264 145.732 368.209 146.431 364.69 146.431Z" fill="#020A47"/>
<path d="M405.927 144.833L424.652 118.259L406.923 93.2839H427.042L435.409 107.27L443.576 93.2839H462.699L445.07 118.459L463.895 144.833H443.676L434.313 129.248L425.05 144.833H405.927Z" fill="#020A47"/>
<path d="M495.468 146.431C490.886 146.431 486.77 145.299 483.118 143.034C479.532 140.77 476.71 137.64 474.652 133.644C472.593 129.581 471.564 124.986 471.564 119.857C471.564 114.929 472.66 110.467 474.851 106.471C477.108 102.408 480.13 99.2114 483.914 96.8804C487.699 94.4827 491.882 93.2839 496.464 93.2839C500.249 93.2839 503.702 94.2163 506.823 96.0812C510.01 97.946 512.566 100.577 514.492 103.973V63.9131H522.958V144.833H514.691L514.492 135.742C512.5 139.138 509.877 141.769 506.623 143.634C503.37 145.499 499.651 146.431 495.468 146.431ZM497.659 138.839C501.112 138.839 504.133 138.039 506.723 136.441C509.313 134.843 511.338 132.611 512.799 129.748C514.326 126.884 515.089 123.587 515.089 119.857C515.089 116.128 514.326 112.831 512.799 109.967C511.338 107.104 509.313 104.872 506.723 103.274C504.133 101.676 501.112 100.876 497.659 100.876C494.273 100.876 491.252 101.676 488.596 103.274C486.006 104.872 483.948 107.104 482.42 109.967C480.96 112.831 480.229 116.128 480.229 119.857C480.229 123.587 480.96 126.884 482.42 129.748C483.948 132.611 486.006 134.843 488.596 136.441C491.252 138.039 494.273 138.839 497.659 138.839Z" fill="#020A47"/>
<path d="M561.317 146.431C556.736 146.431 552.619 145.299 548.967 143.034C545.381 140.77 542.559 137.64 540.501 133.644C538.442 129.581 537.413 124.986 537.413 119.857C537.413 114.929 538.509 110.467 540.7 106.471C542.958 102.408 545.979 99.2114 549.764 96.8804C553.548 94.4827 557.732 93.2839 562.313 93.2839C566.098 93.2839 569.551 94.2163 572.672 96.0812C575.859 97.946 578.415 100.577 580.341 103.973L580.54 94.8823H588.807V144.833H580.54L580.341 135.742C578.349 139.138 575.726 141.769 572.473 143.634C569.219 145.499 565.501 146.431 561.317 146.431ZM563.509 138.839C566.961 138.839 569.983 138.039 572.572 136.441C575.162 134.843 577.187 132.611 578.648 129.748C580.175 126.884 580.939 123.587 580.939 119.857C580.939 116.128 580.175 112.831 578.648 109.967C577.187 107.104 575.162 104.872 572.572 103.274C569.983 101.676 566.961 100.876 563.509 100.876C560.122 100.876 557.101 101.676 554.445 103.274C551.855 104.872 549.797 107.104 548.27 109.967C546.809 112.831 546.078 116.128 546.078 119.857C546.078 123.587 546.809 126.884 548.27 129.748C549.797 132.611 551.855 134.843 554.445 136.441C557.101 138.039 560.122 138.839 563.509 138.839Z" fill="#020A47"/>
<path d="M626.569 146.431C620.925 146.431 616.775 144.933 614.119 141.936C611.463 138.872 610.135 134.11 610.135 127.65V102.175H598.78V94.8823H610.135V80.4966H618.601V94.8823H636.031V102.175H618.601V126.95C618.601 131.213 619.331 134.31 620.792 136.241C622.319 138.106 624.743 139.038 628.063 139.038C631.25 139.038 634.537 138.173 637.923 136.441L638.919 143.534C637.392 144.466 635.533 145.166 633.342 145.632C631.217 146.165 628.959 146.431 626.569 146.431Z" fill="#020A47"/>
<path d="M670.353 146.431C665.771 146.431 661.654 145.299 658.002 143.034C654.417 140.77 651.595 137.64 649.536 133.644C647.478 129.581 646.449 124.986 646.449 119.857C646.449 114.929 647.544 110.467 649.735 106.471C651.993 102.408 655.014 99.2114 658.799 96.8804C662.584 94.4827 666.767 93.2839 671.349 93.2839C675.134 93.2839 678.586 94.2163 681.707 96.0812C684.894 97.946 687.451 100.577 689.376 103.973L689.576 94.8823H697.842V144.833H689.576L689.376 135.742C687.384 139.138 684.762 141.769 681.508 143.634C678.254 145.499 674.536 146.431 670.353 146.431ZM672.544 138.839C675.997 138.839 679.018 138.039 681.608 136.441C684.197 134.843 686.222 132.611 687.683 129.748C689.21 126.884 689.974 123.587 689.974 119.857C689.974 116.128 689.21 112.831 687.683 109.967C686.222 107.104 684.197 104.872 681.608 103.274C679.018 101.676 675.997 100.876 672.544 100.876C669.158 100.876 666.136 101.676 663.48 103.274C660.891 104.872 658.832 107.104 657.305 109.967C655.844 112.831 655.114 116.128 655.114 119.857C655.114 123.587 655.844 126.884 657.305 129.748C658.832 132.611 660.891 134.843 663.48 136.441C666.136 138.039 669.158 138.839 672.544 138.839Z" fill="#020A47"/>
<path fill-rule="evenodd" clip-rule="evenodd" d="M104.782 134.043L131.692 127.876C132.107 127.792 132.5 127.623 132.845 127.379C133.191 127.135 133.482 126.822 133.7 126.46C133.917 126.097 134.057 125.693 134.11 125.274C134.163 124.854 134.128 124.428 134.008 124.023L122.563 74.4082C122.357 73.5894 121.834 72.886 121.109 72.4522C120.384 72.0184 119.517 71.8896 118.697 72.0941L91.7982 78.2613C90.9839 78.4701 90.2856 78.9927 89.8558 79.7148C89.426 80.4369 89.2999 81.2997 89.5049 82.1145L100.916 131.729C101.123 132.548 101.646 133.251 102.37 133.685C103.095 134.119 103.963 134.248 104.782 134.043Z" fill="#020A47"/>
<path fill-rule="evenodd" clip-rule="evenodd" d="M95.5094 164.702L128.136 134.508C129.366 133.268 129.055 132.504 127.36 133.113L104.937 138.206C104.01 138.435 103.155 138.894 102.453 139.541C101.75 140.187 101.221 141 100.916 141.905L94.1135 163.783C93.6482 165.477 94.2686 165.942 95.5094 164.702Z" fill="#020A47"/>
<path fill-rule="evenodd" clip-rule="evenodd" d="M35.9842 154.848L84.8409 169.94C85.6756 170.095 86.5384 169.949 87.2751 169.527C88.0118 169.105 88.5744 168.435 88.8624 167.637L97.0495 141.44C97.168 141.031 97.2047 140.603 97.1574 140.18C97.1101 139.757 96.9798 139.348 96.774 138.976C96.5682 138.603 96.2908 138.275 95.9579 138.01C95.6249 137.745 95.2429 137.549 94.8338 137.431L45.9771 122.484C45.1501 122.247 44.263 122.347 43.5096 122.762C42.7561 123.177 42.1975 123.873 41.9556 124.698L33.8239 150.84C33.5824 151.658 33.6739 152.538 34.0785 153.288C34.4831 154.039 35.1681 154.6 35.9842 154.848Z" fill="#020A47"/>
<path fill-rule="evenodd" clip-rule="evenodd" d="M20.2081 101.225L30.1124 144.573C30.4226 146.267 31.2202 146.267 31.6523 144.573L38.4546 122.694C38.6864 121.762 38.6958 120.788 38.4822 119.852C38.2687 118.915 37.8379 118.042 37.2248 117.302L21.604 100.45C20.5183 99.1767 19.7096 99.531 20.2081 101.225Z" fill="#020A47"/>
<path fill-rule="evenodd" clip-rule="evenodd" d="M58.4073 54.8876L20.9838 89.5106C20.3834 90.0818 20.0309 90.8654 20.0019 91.6934C19.9729 92.5214 20.2698 93.3277 20.8287 93.9395L39.5405 114.169C40.1171 114.78 40.9119 115.139 41.752 115.168C42.5922 115.197 43.4098 114.894 44.0273 114.324L81.4398 79.6452C82.0454 79.0769 82.4015 78.2924 82.4306 77.4627C82.4596 76.633 82.1592 75.8255 81.5948 75.2163L62.9163 54.9983C62.629 54.6927 62.2838 54.4472 61.9008 54.2759C61.5177 54.1047 61.1045 54.0113 60.685 54.001C60.2655 53.9907 59.8482 54.0637 59.4572 54.2159C59.0662 54.3681 58.7093 54.5965 58.4073 54.8876Z" fill="#020A47"/>
<path fill-rule="evenodd" clip-rule="evenodd" d="M94.5791 133.268C96.2852 133.733 97.3598 132.814 96.9056 131.054L86.0818 84.2182C85.6165 82.5241 84.2206 82.0591 82.9909 83.2881L47.7388 116.018C46.498 117.247 46.8082 118.631 48.5032 119.096L94.5791 133.268Z" fill="#020A47"/>
<path fill-rule="evenodd" clip-rule="evenodd" d="M112.98 67.942L70.3056 54.8878C68.6106 54.4228 68.3004 55.0428 69.6852 56.4268L85.3061 73.2235C86.0068 73.8781 86.8543 74.3555 87.7776 74.6155C88.7008 74.8756 89.673 74.9108 90.6127 74.7182L113.036 69.636C114.687 69.171 114.687 68.396 112.98 67.942Z" fill="#020A47"/>
<path d="M718.579 88.0583C716.264 88.0583 714.164 87.5091 712.28 86.4107C710.397 85.3123 708.905 83.8216 707.807 81.9387C706.708 80.0557 706.158 77.957 706.158 75.6425C706.158 73.3281 706.708 71.2294 707.807 69.3464C708.905 67.4635 710.397 65.9728 712.28 64.8744C714.164 63.776 716.264 63.2268 718.579 63.2268C720.934 63.2268 723.033 63.776 724.878 64.8744C726.762 65.9728 728.253 67.4635 729.352 69.3464C730.451 71.2294 731 73.3281 731 75.6425C731 77.957 730.451 80.0557 729.352 81.9387C728.253 83.8216 726.762 85.3123 724.878 86.4107C723.033 87.5091 720.934 88.0583 718.579 88.0583ZM718.579 85.8811C720.502 85.8811 722.209 85.43 723.701 84.5277C725.231 83.6255 726.448 82.4094 727.35 80.8795C728.253 79.3104 728.704 77.5647 728.704 75.6425C728.704 73.7204 728.253 71.9943 727.35 70.4644C726.448 68.8953 725.231 67.6596 723.701 66.7574C722.209 65.8551 720.502 65.404 718.579 65.404C716.695 65.404 714.988 65.8551 713.458 66.7574C711.927 67.6596 710.711 68.8953 709.808 70.4644C708.906 71.9943 708.454 73.7204 708.454 75.6425C708.454 77.5647 708.906 79.3104 709.808 80.8795C710.711 82.4094 711.927 83.6255 713.458 84.5277C714.988 85.43 716.695 85.8811 718.579 85.8811ZM714.4 81.2914V69.4053H718.403C719.894 69.4053 721.032 69.7387 721.817 70.4056C722.641 71.0725 723.053 71.9943 723.053 73.1712C723.053 73.9165 722.876 74.603 722.523 75.2306C722.17 75.8191 721.64 76.2702 720.934 76.584L723.877 81.2914H721.405L718.815 76.9959H716.519V81.2914H714.4ZM718.226 71.2882H716.519V75.113H718.167C719.148 75.113 719.835 74.956 720.227 74.6422C720.62 74.3284 720.816 73.838 720.816 73.1712C720.816 71.9159 719.953 71.2882 718.226 71.2882Z" fill="#020A47"/>
</svg>
