<svg width="345" height="200" viewBox="0 0 345 200" fill="none" xmlns="http://www.w3.org/2000/svg">
<rect width="345" height="200" fill="white"/>
<path d="M23.798 29H25.086L21.32 19.662H19.878L16.126 29H17.414L18.24 26.928H22.972L23.798 29ZM20.606 20.698L22.622 25.892H18.576L20.606 20.698ZM27.7974 29H28.9454L31.7594 22.238H30.6114L28.3714 27.782L26.1174 22.238H24.9834L27.7974 29ZM35.8087 29.168C37.8667 29.168 39.1547 27.572 39.1547 25.612C39.1547 23.652 37.8667 22.07 35.8087 22.07C33.7507 22.07 32.4627 23.652 32.4627 25.612C32.4627 27.572 33.7507 29.168 35.8087 29.168ZM35.8087 28.23C34.3667 28.23 33.5547 26.998 33.5547 25.612C33.5547 24.24 34.3667 23.008 35.8087 23.008C37.2507 23.008 38.0487 24.24 38.0487 25.612C38.0487 26.998 37.2507 28.23 35.8087 28.23ZM41.3844 21.104C41.7764 21.104 42.0984 20.782 42.0984 20.39C42.0984 19.998 41.7764 19.69 41.3844 19.69C41.0064 19.69 40.6844 19.998 40.6844 20.39C40.6844 20.782 41.0064 21.104 41.3844 21.104ZM40.8664 29H41.9164V22.238H40.8664V29ZM48.9109 29H49.9609V19.662H48.9109V23.26C48.3649 22.518 47.5389 22.07 46.6289 22.07C44.8509 22.07 43.6189 23.47 43.6189 25.626C43.6189 27.824 44.8649 29.168 46.6289 29.168C47.5809 29.168 48.4069 28.678 48.9109 27.992V29ZM48.9109 27.166C48.5329 27.754 47.7209 28.23 46.8809 28.23C45.5229 28.23 44.7109 27.124 44.7109 25.626C44.7109 24.128 45.5229 23.008 46.8809 23.008C47.7209 23.008 48.5329 23.512 48.9109 24.1V27.166ZM55.673 29H56.723V24.212C57.031 23.666 57.913 23.134 58.557 23.134C58.725 23.134 58.851 23.148 58.977 23.176V22.098C58.053 22.098 57.269 22.616 56.723 23.33V22.238H55.673V29ZM59.9021 25.612C59.9021 27.726 61.3441 29.168 63.3461 29.168C64.4521 29.168 65.3621 28.804 66.0341 28.132L65.5301 27.446C64.9981 27.992 64.2141 28.3 63.4441 28.3C61.9881 28.3 61.0921 27.236 61.0081 25.962H66.4821V25.696C66.4821 23.666 65.2781 22.07 63.2341 22.07C61.3021 22.07 59.9021 23.652 59.9021 25.612ZM63.2201 22.938C64.7601 22.938 65.4321 24.184 65.4461 25.192H61.0081C61.0641 24.156 61.7781 22.938 63.2201 22.938ZM72.4108 29H73.4608V24.352C73.4608 22.714 72.2708 22.07 70.8428 22.07C69.7368 22.07 68.8688 22.434 68.1408 23.19L68.6308 23.918C69.2328 23.274 69.8908 22.98 70.7028 22.98C71.6828 22.98 72.4108 23.498 72.4108 24.408V25.626C71.8648 24.996 71.0948 24.702 70.1708 24.702C69.0228 24.702 67.8048 25.416 67.8048 26.928C67.8048 28.398 69.0228 29.168 70.1708 29.168C71.0808 29.168 71.8508 28.846 72.4108 28.23V29ZM72.4108 27.572C72.0048 28.132 71.2908 28.412 70.5488 28.412C69.5688 28.412 68.8828 27.796 68.8828 26.942C68.8828 26.074 69.5688 25.458 70.5488 25.458C71.2908 25.458 72.0048 25.738 72.4108 26.298V27.572ZM75.5656 29H76.6156V24.212C76.9236 23.666 77.8056 23.134 78.4496 23.134C78.6176 23.134 78.7436 23.148 78.8696 23.176V22.098C77.9456 22.098 77.1616 22.616 76.6156 23.33V22.238H75.5656V29ZM80.1867 29H81.2367V24.212C81.5447 23.666 82.4267 23.134 83.0707 23.134C83.2387 23.134 83.3647 23.148 83.4907 23.176V22.098C82.5667 22.098 81.7827 22.616 81.2367 23.33V22.238H80.1867V29ZM89.0358 29H90.0858V24.352C90.0858 22.714 88.8958 22.07 87.4678 22.07C86.3618 22.07 85.4938 22.434 84.7658 23.19L85.2558 23.918C85.8578 23.274 86.5158 22.98 87.3278 22.98C88.3078 22.98 89.0358 23.498 89.0358 24.408V25.626C88.4898 24.996 87.7198 24.702 86.7958 24.702C85.6478 24.702 84.4298 25.416 84.4298 26.928C84.4298 28.398 85.6478 29.168 86.7958 29.168C87.7058 29.168 88.4758 28.846 89.0358 28.23V29ZM89.0358 27.572C88.6298 28.132 87.9158 28.412 87.1738 28.412C86.1938 28.412 85.5078 27.796 85.5078 26.942C85.5078 26.074 86.1938 25.458 87.1738 25.458C87.9158 25.458 88.6298 25.738 89.0358 26.298V27.572ZM96.7546 29H97.8046V24.254C97.8046 22.784 97.0626 22.07 95.6486 22.07C94.6406 22.07 93.7166 22.658 93.2406 23.218V22.238H92.1906V29H93.2406V24.058C93.6326 23.512 94.4166 23.008 95.2426 23.008C96.1526 23.008 96.7546 23.386 96.7546 24.576V29ZM99.8876 30.736C100.686 31.52 101.47 31.744 102.618 31.744C104.27 31.744 105.838 31.044 105.838 28.804V22.238H104.788V23.26C104.242 22.518 103.43 22.07 102.52 22.07C100.742 22.07 99.5096 23.414 99.5096 25.584C99.5096 27.768 100.756 29.084 102.52 29.084C103.472 29.084 104.298 28.566 104.788 27.88V28.846C104.788 30.33 103.738 30.876 102.618 30.876C101.652 30.876 100.98 30.624 100.42 29.952L99.8876 30.736ZM104.788 27.054C104.424 27.642 103.612 28.16 102.772 28.16C101.414 28.16 100.602 27.068 100.602 25.584C100.602 24.086 101.414 23.008 102.772 23.008C103.612 23.008 104.424 23.512 104.788 24.1V27.054ZM108.459 21.104C108.851 21.104 109.173 20.782 109.173 20.39C109.173 19.998 108.851 19.69 108.459 19.69C108.081 19.69 107.759 19.998 107.759 20.39C107.759 20.782 108.081 21.104 108.459 21.104ZM107.941 29H108.991V22.238H107.941V29ZM115.649 29H116.699V24.254C116.699 22.784 115.957 22.07 114.543 22.07C113.535 22.07 112.611 22.658 112.135 23.218V22.238H111.085V29H112.135V24.058C112.527 23.512 113.311 23.008 114.137 23.008C115.047 23.008 115.649 23.386 115.649 24.576V29ZM118.782 30.736C119.58 31.52 120.364 31.744 121.512 31.744C123.164 31.744 124.732 31.044 124.732 28.804V22.238H123.682V23.26C123.136 22.518 122.324 22.07 121.414 22.07C119.636 22.07 118.404 23.414 118.404 25.584C118.404 27.768 119.65 29.084 121.414 29.084C122.366 29.084 123.192 28.566 123.682 27.88V28.846C123.682 30.33 122.632 30.876 121.512 30.876C120.546 30.876 119.874 30.624 119.314 29.952L118.782 30.736ZM123.682 27.054C123.318 27.642 122.506 28.16 121.666 28.16C120.308 28.16 119.496 27.068 119.496 25.584C119.496 24.086 120.308 23.008 121.666 23.008C122.506 23.008 123.318 23.512 123.682 24.1V27.054Z" fill="#020A47"/>
<rect x="0.5" y="0.5" width="344" height="199" stroke="#E4E4E4"/>
<path fill-rule="evenodd" clip-rule="evenodd" d="M322.707 28.293C323.098 28.684 323.098 29.316 322.707 29.707C322.512 29.902 322.256 30 322 30C321.744 30 321.488 29.902 321.293 29.707L319 27.414L316.707 29.707C316.512 29.902 316.256 30 316 30C315.744 30 315.488 29.902 315.293 29.707C314.902 29.316 314.902 28.684 315.293 28.293L317.586 26L315.293 23.707C314.902 23.316 314.902 22.684 315.293 22.293C315.684 21.902 316.316 21.902 316.707 22.293L319 24.586L321.293 22.293C321.684 21.902 322.316 21.902 322.707 22.293C323.098 22.684 323.098 23.316 322.707 23.707L320.414 26L322.707 28.293ZM319 18C314.582 18 311 21.582 311 26C311 30.418 314.582 34 319 34C323.418 34 327 30.418 327 26C327 21.582 323.418 18 319 18Z" fill="#DE1C22"/>
<path fill-rule="evenodd" clip-rule="evenodd" d="M86.8884 97.0732L96.0743 95.1015C96.2158 95.0747 96.3499 95.0206 96.4678 94.9426C96.5858 94.8646 96.6851 94.7645 96.7595 94.6486C96.8338 94.5327 96.8816 94.4036 96.8997 94.2695C96.9178 94.1354 96.9059 93.9992 96.8647 93.8697L92.9581 78.0078C92.8876 77.7461 92.709 77.5212 92.4616 77.3825C92.2142 77.2438 91.9181 77.2027 91.6383 77.268L82.4562 79.2397C82.1782 79.3065 81.9398 79.4735 81.7931 79.7044C81.6464 79.9352 81.6034 80.2111 81.6734 80.4715L85.5686 96.3334C85.6391 96.5951 85.8177 96.82 86.0651 96.9587C86.3125 97.0974 86.6086 97.1386 86.8884 97.0732Z" fill="#020A47"/>
<path fill-rule="evenodd" clip-rule="evenodd" d="M83.723 106.875L94.8603 97.2218C95.2801 96.8254 95.1742 96.5811 94.5956 96.7758L86.9413 98.4041C86.6248 98.4773 86.3331 98.624 86.0931 98.8307C85.8532 99.0373 85.6728 99.2972 85.5685 99.5864L83.2465 106.581C83.0877 107.123 83.2995 107.271 83.723 106.875Z" fill="#020A47"/>
<path fill-rule="evenodd" clip-rule="evenodd" d="M63.4037 103.724L80.0813 108.549C80.3662 108.599 80.6607 108.552 80.9122 108.417C81.1637 108.282 81.3557 108.068 81.454 107.813L84.2487 99.4377C84.2892 99.3071 84.3017 99.1703 84.2856 99.0351C84.2694 98.9 84.225 98.7691 84.1547 98.6501C84.0844 98.531 83.9898 98.4262 83.8761 98.3414C83.7625 98.2567 83.6321 98.1938 83.4924 98.1563L66.8149 93.3776C66.5325 93.302 66.2297 93.334 65.9725 93.4667C65.7153 93.5993 65.5246 93.8218 65.4421 94.0856L62.6663 102.443C62.5838 102.704 62.6151 102.986 62.7532 103.226C62.8913 103.466 63.1251 103.645 63.4037 103.724Z" fill="#020A47"/>
<path fill-rule="evenodd" clip-rule="evenodd" d="M58.0184 86.5812L61.3993 100.439C61.5052 100.981 61.7775 100.981 61.925 100.439L64.247 93.4449C64.3261 93.1468 64.3293 92.8355 64.2564 92.5361C64.1835 92.2367 64.0365 91.9575 63.8272 91.721L58.4949 86.3334C58.1243 85.9263 57.8482 86.0396 58.0184 86.5812Z" fill="#020A47"/>
<path fill-rule="evenodd" clip-rule="evenodd" d="M71.058 71.7671L58.2832 82.8361C58.0783 83.0187 57.9579 83.2692 57.9481 83.5339C57.9382 83.7986 58.0395 84.0564 58.2303 84.252L64.6177 90.7192C64.8145 90.9147 65.0858 91.0295 65.3726 91.0388C65.6594 91.0481 65.9385 90.951 66.1493 90.7688L78.9203 79.6821C79.127 79.5005 79.2486 79.2496 79.2585 78.9844C79.2684 78.7191 79.1659 78.461 78.9732 78.2662L72.5972 71.8025C72.4991 71.7048 72.3812 71.6263 72.2505 71.5716C72.1197 71.5168 71.9787 71.487 71.8355 71.4837C71.6923 71.4804 71.5498 71.5037 71.4164 71.5524C71.2829 71.6011 71.1611 71.6741 71.058 71.7671Z" fill="#020A47"/>
<path fill-rule="evenodd" clip-rule="evenodd" d="M83.4055 96.8254C83.9879 96.9741 84.3547 96.6803 84.1996 96.1174L80.5049 81.1441C80.346 80.6025 79.8695 80.4538 79.4498 80.8468L67.4162 91.3104C66.9927 91.7033 67.0985 92.1458 67.6772 92.2945L83.4055 96.8254Z" fill="#020A47"/>
<path fill-rule="evenodd" clip-rule="evenodd" d="M89.6869 75.9406L75.1196 71.7672C74.5409 71.6185 74.4351 71.8168 74.9078 72.2592L80.24 77.6291C80.4793 77.8384 80.7686 77.991 81.0837 78.0741C81.3989 78.1573 81.7307 78.1685 82.0515 78.107L89.7058 76.4822C90.2693 76.3335 90.2693 76.0857 89.6869 75.9406Z" fill="#020A47"/>
<path d="M98.2965 115.644C97.3942 115.644 96.6284 115.349 95.9989 114.759C95.3904 114.17 95.0862 113.454 95.0862 112.612C95.0862 111.728 95.3904 111.001 95.9989 110.433C96.6284 109.843 97.3942 109.548 98.2965 109.548C99.1987 109.548 99.954 109.843 100.563 110.433C101.171 111.001 101.475 111.728 101.475 112.612C101.475 113.454 101.171 114.17 100.563 114.759C99.954 115.349 99.1987 115.644 98.2965 115.644ZM95.4324 134.497V118.202H101.129V134.497H95.4324Z" fill="#020A47"/>
<path d="M104.96 134.497V118.202H110.563L110.626 120.223C111.045 119.423 111.664 118.802 112.483 118.36C113.301 117.917 114.245 117.696 115.315 117.696C117.141 117.696 118.525 118.286 119.47 119.465C120.435 120.623 120.917 122.328 120.917 124.581V134.497H115.221V125.655C115.221 123.739 114.497 122.781 113.049 122.781C112.273 122.781 111.675 123.055 111.255 123.602C110.856 124.128 110.657 124.886 110.657 125.876V134.497H104.96Z" fill="#020A47"/>
<path d="M126.299 134.497V122.781H123.687V118.202H126.299V116.623C126.299 114.117 126.908 112.18 128.125 110.812C129.363 109.443 131.104 108.759 133.349 108.759C134 108.759 134.608 108.812 135.175 108.917C135.762 109.001 136.255 109.127 136.654 109.296L136.371 114.033C136.14 113.928 135.857 113.854 135.521 113.812C135.206 113.749 134.912 113.717 134.64 113.717C133.737 113.717 133.066 113.98 132.625 114.507C132.206 115.033 131.996 115.865 131.996 117.002V118.202H135.836V122.781H131.996V134.497H126.299ZM138.354 134.497V108.917H144.05V134.497H138.354Z" fill="#020A47"/>
<path d="M153.248 135.003C151.465 135.003 150.101 134.434 149.157 133.297C148.213 132.139 147.741 130.455 147.741 128.244V118.202H153.469V127.076C153.469 128.044 153.637 128.76 153.972 129.223C154.329 129.687 154.885 129.918 155.64 129.918C156.396 129.918 156.973 129.655 157.371 129.129C157.791 128.581 158.001 127.813 158.001 126.823V118.202H163.698V134.497H158.095L158.032 132.476C157.613 133.276 156.983 133.897 156.144 134.34C155.326 134.782 154.361 135.003 153.248 135.003Z" fill="#020A47"/>
<path d="M166.279 134.497L172.196 126.097L166.594 118.202H172.951L175.595 122.623L178.176 118.202H184.219L178.648 126.16L184.597 134.497H178.208L175.249 129.571L172.322 134.497H166.279Z" fill="#020A47"/>
<path d="M194.574 135.003C193.126 135.003 191.825 134.645 190.671 133.929C189.538 133.213 188.646 132.224 187.996 130.96C187.345 129.676 187.02 128.223 187.02 126.602C187.02 125.044 187.366 123.634 188.059 122.37C188.772 121.086 189.727 120.075 190.923 119.339C192.119 118.581 193.441 118.202 194.888 118.202C196.084 118.202 197.175 118.496 198.162 119.086C199.169 119.675 199.977 120.507 200.585 121.581V108.917H203.26V134.497H200.648L200.585 131.624C199.956 132.697 199.127 133.529 198.099 134.118C197.07 134.708 195.895 135.003 194.574 135.003ZM195.266 132.603C196.357 132.603 197.312 132.35 198.13 131.845C198.948 131.339 199.588 130.634 200.05 129.729C200.533 128.823 200.774 127.781 200.774 126.602C200.774 125.423 200.533 124.381 200.05 123.476C199.588 122.57 198.948 121.865 198.13 121.36C197.312 120.854 196.357 120.602 195.266 120.602C194.196 120.602 193.241 120.854 192.402 121.36C191.584 121.865 190.933 122.57 190.451 123.476C189.989 124.381 189.758 125.423 189.758 126.602C189.758 127.781 189.989 128.823 190.451 129.729C190.933 130.634 191.584 131.339 192.402 131.845C193.241 132.35 194.196 132.603 195.266 132.603Z" fill="#020A47"/>
<path d="M215.382 135.003C213.934 135.003 212.633 134.645 211.479 133.929C210.346 133.213 209.454 132.224 208.804 130.96C208.153 129.676 207.828 128.223 207.828 126.602C207.828 125.044 208.174 123.634 208.867 122.37C209.58 121.086 210.535 120.075 211.731 119.339C212.927 118.581 214.249 118.202 215.696 118.202C216.892 118.202 217.983 118.496 218.97 119.086C219.977 119.675 220.785 120.507 221.393 121.581L221.456 118.707H224.068V134.497H221.456L221.393 131.624C220.764 132.697 219.935 133.529 218.907 134.118C217.878 134.708 216.703 135.003 215.382 135.003ZM216.074 132.603C217.165 132.603 218.12 132.35 218.938 131.845C219.756 131.339 220.396 130.634 220.858 129.729C221.341 128.823 221.582 127.781 221.582 126.602C221.582 125.423 221.341 124.381 220.858 123.476C220.396 122.57 219.756 121.865 218.938 121.36C218.12 120.854 217.165 120.602 216.074 120.602C215.004 120.602 214.049 120.854 213.21 121.36C212.392 121.865 211.741 122.57 211.259 123.476C210.797 124.381 210.566 125.423 210.566 126.602C210.566 127.781 210.797 128.823 211.259 129.729C211.741 130.634 212.392 131.339 213.21 131.845C214.049 132.35 215.004 132.603 216.074 132.603Z" fill="#020A47"/>
<path d="M236.001 135.003C234.217 135.003 232.906 134.529 232.067 133.582C231.227 132.613 230.808 131.108 230.808 129.066V121.012H227.22V118.707H230.808V114.159H233.483V118.707H238.991V121.012H233.483V128.844C233.483 130.192 233.714 131.171 234.175 131.781C234.658 132.371 235.424 132.666 236.473 132.666C237.48 132.666 238.519 132.392 239.589 131.845L239.903 134.087C239.421 134.382 238.833 134.603 238.141 134.75C237.47 134.919 236.756 135.003 236.001 135.003Z" fill="#020A47"/>
<path d="M249.836 135.003C248.388 135.003 247.088 134.645 245.934 133.929C244.8 133.213 243.909 132.224 243.258 130.96C242.608 129.676 242.283 128.223 242.283 126.602C242.283 125.044 242.629 123.634 243.321 122.37C244.035 121.086 244.989 120.075 246.185 119.339C247.381 118.581 248.703 118.202 250.151 118.202C251.347 118.202 252.438 118.496 253.424 119.086C254.431 119.675 255.239 120.507 255.848 121.581L255.911 118.707H258.523V134.497H255.911L255.848 131.624C255.218 132.697 254.389 133.529 253.361 134.118C252.333 134.708 251.158 135.003 249.836 135.003ZM250.529 132.603C251.62 132.603 252.574 132.35 253.393 131.845C254.211 131.339 254.851 130.634 255.313 129.729C255.795 128.823 256.036 127.781 256.036 126.602C256.036 125.423 255.795 124.381 255.313 123.476C254.851 122.57 254.211 121.865 253.393 121.36C252.574 120.854 251.62 120.602 250.529 120.602C249.459 120.602 248.504 120.854 247.665 121.36C246.846 121.865 246.196 122.57 245.713 123.476C245.252 124.381 245.021 125.423 245.021 126.602C245.021 127.781 245.252 128.823 245.713 129.729C246.196 130.634 246.846 131.339 247.665 131.845C248.504 132.35 249.459 132.603 250.529 132.603Z" fill="#020A47"/>
<path d="M265.075 116.549C264.343 116.549 263.68 116.376 263.085 116.029C262.489 115.681 262.018 115.21 261.671 114.615C261.324 114.02 261.15 113.356 261.15 112.625C261.15 111.893 261.324 111.229 261.671 110.634C262.018 110.039 262.489 109.568 263.085 109.22C263.68 108.873 264.343 108.7 265.075 108.7C265.819 108.7 266.483 108.873 267.065 109.22C267.661 109.568 268.132 110.039 268.479 110.634C268.826 111.229 269 111.893 269 112.625C269 113.356 268.826 114.02 268.479 114.615C268.132 115.21 267.661 115.681 267.065 116.029C266.483 116.376 265.819 116.549 265.075 116.549ZM265.075 115.861C265.683 115.861 266.222 115.719 266.693 115.433C267.177 115.148 267.561 114.764 267.847 114.28C268.132 113.784 268.275 113.232 268.275 112.625C268.275 112.017 268.132 111.471 267.847 110.988C267.561 110.492 267.177 110.101 266.693 109.816C266.222 109.531 265.683 109.388 265.075 109.388C264.48 109.388 263.94 109.531 263.457 109.816C262.973 110.101 262.589 110.492 262.303 110.988C262.018 111.471 261.876 112.017 261.876 112.625C261.876 113.232 262.018 113.784 262.303 114.28C262.589 114.764 262.973 115.148 263.457 115.433C263.94 115.719 264.48 115.861 265.075 115.861ZM263.754 114.41V110.653H265.019C265.49 110.653 265.85 110.758 266.098 110.969C266.359 111.18 266.489 111.471 266.489 111.843C266.489 112.079 266.433 112.296 266.321 112.494C266.21 112.68 266.042 112.823 265.819 112.922L266.749 114.41H265.968L265.149 113.052H264.424V114.41H263.754ZM264.963 111.248H264.424V112.457H264.945C265.255 112.457 265.472 112.408 265.596 112.308C265.72 112.209 265.782 112.054 265.782 111.843C265.782 111.446 265.509 111.248 264.963 111.248Z" fill="#020A47"/>
</svg>
