<svg width="345" height="200" viewBox="0 0 345 200" fill="none" xmlns="http://www.w3.org/2000/svg">
<rect width="345" height="200" fill="white"/>
<path d="M23.798 29H25.086L21.32 19.662H19.878L16.126 29H17.414L18.24 26.928H22.972L23.798 29ZM20.606 20.698L22.622 25.892H18.576L20.606 20.698ZM27.7974 29H28.9454L31.7594 22.238H30.6114L28.3714 27.782L26.1174 22.238H24.9834L27.7974 29ZM35.8087 29.168C37.8667 29.168 39.1547 27.572 39.1547 25.612C39.1547 23.652 37.8667 22.07 35.8087 22.07C33.7507 22.07 32.4627 23.652 32.4627 25.612C32.4627 27.572 33.7507 29.168 35.8087 29.168ZM35.8087 28.23C34.3667 28.23 33.5547 26.998 33.5547 25.612C33.5547 24.24 34.3667 23.008 35.8087 23.008C37.2507 23.008 38.0487 24.24 38.0487 25.612C38.0487 26.998 37.2507 28.23 35.8087 28.23ZM41.3844 21.104C41.7764 21.104 42.0984 20.782 42.0984 20.39C42.0984 19.998 41.7764 19.69 41.3844 19.69C41.0064 19.69 40.6844 19.998 40.6844 20.39C40.6844 20.782 41.0064 21.104 41.3844 21.104ZM40.8664 29H41.9164V22.238H40.8664V29ZM48.9109 29H49.9609V19.662H48.9109V23.26C48.3649 22.518 47.5389 22.07 46.6289 22.07C44.8509 22.07 43.6189 23.47 43.6189 25.626C43.6189 27.824 44.8649 29.168 46.6289 29.168C47.5809 29.168 48.4069 28.678 48.9109 27.992V29ZM48.9109 27.166C48.5329 27.754 47.7209 28.23 46.8809 28.23C45.5229 28.23 44.7109 27.124 44.7109 25.626C44.7109 24.128 45.5229 23.008 46.8809 23.008C47.7209 23.008 48.5329 23.512 48.9109 24.1V27.166ZM55.673 29H56.723V24.212C57.031 23.666 57.913 23.134 58.557 23.134C58.725 23.134 58.851 23.148 58.977 23.176V22.098C58.053 22.098 57.269 22.616 56.723 23.33V22.238H55.673V29ZM63.2481 29.168C65.3061 29.168 66.5941 27.572 66.5941 25.612C66.5941 23.652 65.3061 22.07 63.2481 22.07C61.1901 22.07 59.9021 23.652 59.9021 25.612C59.9021 27.572 61.1901 29.168 63.2481 29.168ZM63.2481 28.23C61.8061 28.23 60.9941 26.998 60.9941 25.612C60.9941 24.24 61.8061 23.008 63.2481 23.008C64.6901 23.008 65.4881 24.24 65.4881 25.612C65.4881 26.998 64.6901 28.23 63.2481 28.23ZM70.0139 29.168C70.6299 29.168 71.0079 28.986 71.2739 28.734L70.9659 27.95C70.8259 28.104 70.5459 28.23 70.2519 28.23C69.7899 28.23 69.5659 27.866 69.5659 27.362V23.162H70.9379V22.238H69.5659V20.39H68.5159V22.238H67.3959V23.162H68.5159V27.586C68.5159 28.594 69.0199 29.168 70.0139 29.168ZM76.6491 29H77.6991V24.352C77.6991 22.714 76.5091 22.07 75.0811 22.07C73.9751 22.07 73.1071 22.434 72.3791 23.19L72.8691 23.918C73.4711 23.274 74.1291 22.98 74.9411 22.98C75.9211 22.98 76.6491 23.498 76.6491 24.408V25.626C76.1031 24.996 75.3331 24.702 74.4091 24.702C73.2611 24.702 72.0431 25.416 72.0431 26.928C72.0431 28.398 73.2611 29.168 74.4091 29.168C75.3191 29.168 76.0891 28.846 76.6491 28.23V29ZM76.6491 27.572C76.2431 28.132 75.5291 28.412 74.7871 28.412C73.8071 28.412 73.1211 27.796 73.1211 26.942C73.1211 26.074 73.8071 25.458 74.7871 25.458C75.5291 25.458 76.2431 25.738 76.6491 26.298V27.572ZM81.5119 29.168C82.1279 29.168 82.5059 28.986 82.7719 28.734L82.4639 27.95C82.3239 28.104 82.0439 28.23 81.7499 28.23C81.2879 28.23 81.0639 27.866 81.0639 27.362V23.162H82.4359V22.238H81.0639V20.39H80.0139V22.238H78.8939V23.162H80.0139V27.586C80.0139 28.594 80.5179 29.168 81.5119 29.168ZM84.4371 21.104C84.8291 21.104 85.1511 20.782 85.1511 20.39C85.1511 19.998 84.8291 19.69 84.4371 19.69C84.0591 19.69 83.7371 19.998 83.7371 20.39C83.7371 20.782 84.0591 21.104 84.4371 21.104ZM83.9191 29H84.9691V22.238H83.9191V29ZM91.6277 29H92.6777V24.254C92.6777 22.784 91.9357 22.07 90.5217 22.07C89.5137 22.07 88.5897 22.658 88.1137 23.218V22.238H87.0637V29H88.1137V24.058C88.5057 23.512 89.2897 23.008 90.1157 23.008C91.0257 23.008 91.6277 23.386 91.6277 24.576V29ZM94.7606 30.736C95.5586 31.52 96.3426 31.744 97.4906 31.744C99.1426 31.744 100.711 31.044 100.711 28.804V22.238H99.6606V23.26C99.1146 22.518 98.3026 22.07 97.3926 22.07C95.6146 22.07 94.3826 23.414 94.3826 25.584C94.3826 27.768 95.6286 29.084 97.3926 29.084C98.3446 29.084 99.1706 28.566 99.6606 27.88V28.846C99.6606 30.33 98.6106 30.876 97.4906 30.876C96.5246 30.876 95.8526 30.624 95.2926 29.952L94.7606 30.736ZM99.6606 27.054C99.2966 27.642 98.4846 28.16 97.6446 28.16C96.2866 28.16 95.4746 27.068 95.4746 25.584C95.4746 24.086 96.2866 23.008 97.6446 23.008C98.4846 23.008 99.2966 23.512 99.6606 24.1V27.054Z" fill="#020A47"/>
<rect x="0.5" y="0.5" width="344" height="199" stroke="#E4E4E4"/>
<path fill-rule="evenodd" clip-rule="evenodd" d="M322.707 28.293C323.098 28.684 323.098 29.316 322.707 29.707C322.512 29.902 322.256 30 322 30C321.744 30 321.488 29.902 321.293 29.707L319 27.414L316.707 29.707C316.512 29.902 316.256 30 316 30C315.744 30 315.488 29.902 315.293 29.707C314.902 29.316 314.902 28.684 315.293 28.293L317.586 26L315.293 23.707C314.902 23.316 314.902 22.684 315.293 22.293C315.684 21.902 316.316 21.902 316.707 22.293L319 24.586L321.293 22.293C321.684 21.902 322.316 21.902 322.707 22.293C323.098 22.684 323.098 23.316 322.707 23.707L320.414 26L322.707 28.293ZM319 18C314.582 18 311 21.582 311 26C311 30.418 314.582 34 319 34C323.418 34 327 30.418 327 26C327 21.582 323.418 18 319 18Z" fill="#DE1C22"/>
<path d="M123.812 122.676C123.062 122.906 122.341 122.824 121.648 122.43C120.972 122.031 120.514 121.436 120.272 120.645C120.018 119.814 120.062 119.055 120.405 118.366C120.759 117.652 121.311 117.181 122.062 116.951C122.812 116.722 123.525 116.806 124.2 117.205C124.869 117.585 125.331 118.19 125.585 119.02C125.827 119.811 125.779 120.561 125.443 121.269C125.106 121.978 124.563 122.447 123.812 122.676ZM126.846 141.114L122.165 125.807L126.902 124.359L131.583 139.665L126.846 141.114Z" fill="#020A47"/>
<path d="M134.769 138.691L130.088 123.385L134.747 121.96L135.38 123.842C135.499 122.984 135.835 122.243 136.389 121.62C136.942 120.997 137.664 120.549 138.554 120.277C140.072 119.813 141.393 120.014 142.516 120.882C143.652 121.724 144.543 123.203 145.19 125.319L148.038 134.634L143.301 136.082L140.761 127.776C140.211 125.977 139.334 125.261 138.13 125.629C137.484 125.826 137.066 126.236 136.874 126.856C136.694 127.452 136.746 128.215 137.03 129.144L139.506 137.243L134.769 138.691Z" fill="#020A47"/>
<path d="M152.514 133.265L149.148 122.26L146.976 122.924L145.661 118.623L147.833 117.958L147.379 116.475C146.66 114.122 146.609 112.148 147.228 110.553C147.865 108.953 149.116 107.867 150.983 107.296C151.524 107.131 152.045 107.026 152.547 106.98C153.059 106.91 153.506 106.903 153.885 106.96L155.011 111.482C154.788 111.442 154.532 111.444 154.24 111.49C153.961 111.511 153.707 111.556 153.48 111.625C152.73 111.855 152.247 112.273 152.032 112.879C151.834 113.48 151.899 114.315 152.225 115.383L152.57 116.51L155.763 115.534L157.078 119.835L153.885 120.811L157.251 131.817L152.514 133.265ZM162.537 130.2L155.19 106.172L159.927 104.724L167.274 128.751L162.537 130.2Z" fill="#020A47"/>
<path d="M175.068 126.887C173.585 127.341 172.288 127.153 171.176 126.326C170.059 125.478 169.182 124.016 168.547 121.939L165.663 112.506L170.426 111.05L172.975 119.385C173.253 120.295 173.598 120.925 174.01 121.274C174.44 121.619 174.969 121.695 175.597 121.503C176.225 121.311 176.629 120.917 176.81 120.321C177.001 119.7 176.955 118.925 176.671 117.996L174.195 109.897L178.932 108.449L183.612 123.755L178.954 125.18L178.321 123.297C178.202 124.156 177.857 124.899 177.286 125.528C176.732 126.151 175.993 126.604 175.068 126.887Z" fill="#020A47"/>
<path d="M185.759 123.099L188.266 113.704L181.34 107.712L186.627 106.096L190.095 109.576L190.971 104.767L195.996 103.231L193.65 112.122L200.991 118.441L195.678 120.066L191.803 116.191L190.784 121.562L185.759 123.099Z" fill="#020A47"/>
<path d="M209.433 116.379C208.229 116.747 207.044 116.742 205.879 116.363C204.731 115.978 203.705 115.276 202.802 114.254C201.892 113.214 201.204 111.932 200.738 110.409C200.291 108.946 200.174 107.533 200.387 106.17C200.611 104.782 201.115 103.59 201.897 102.594C202.674 101.578 203.665 100.886 204.869 100.518C205.863 100.213 206.855 100.213 207.844 100.516C208.851 100.813 209.762 101.389 210.576 102.243L206.939 90.3478L209.163 89.6675L216.511 113.695L214.339 114.36L213.461 111.676C213.246 112.845 212.795 113.837 212.11 114.652C211.424 115.467 210.532 116.043 209.433 116.379ZM209.319 113.948C210.226 113.671 210.948 113.191 211.483 112.508C212.018 111.825 212.348 111 212.472 110.032C212.613 109.059 212.514 108.019 212.176 106.912C211.837 105.804 211.337 104.887 210.676 104.159C210.032 103.426 209.297 102.926 208.471 102.66C207.646 102.393 206.779 102.399 205.872 102.676C204.982 102.948 204.261 103.428 203.708 104.116C203.173 104.799 202.834 105.627 202.693 106.6C202.569 107.568 202.677 108.605 203.015 109.713C203.354 110.82 203.845 111.74 204.489 112.473C205.151 113.201 205.894 113.698 206.72 113.965C207.563 114.226 208.429 114.22 209.319 113.948Z" fill="#020A47"/>
<path d="M226.736 111.088C225.532 111.456 224.347 111.451 223.182 111.072C222.034 110.687 221.008 109.985 220.105 108.963C219.195 107.922 218.507 106.641 218.042 105.118C217.594 103.654 217.477 102.241 217.69 100.879C217.914 99.4911 218.418 98.2991 219.2 97.3028C219.977 96.2867 220.968 95.5946 222.172 95.2265C223.166 94.9224 224.158 94.9218 225.147 95.2248C226.154 95.5224 227.065 96.0981 227.879 96.952L227.106 94.2366L229.278 93.5723L233.814 108.404L231.642 109.069L230.764 106.385C230.549 107.554 230.098 108.546 229.413 109.361C228.727 110.176 227.835 110.752 226.736 111.088ZM226.622 108.657C227.529 108.38 228.251 107.9 228.786 107.217C229.321 106.534 229.651 105.709 229.775 104.741C229.916 103.768 229.817 102.728 229.479 101.621C229.14 100.513 228.64 99.5955 227.979 98.8679C227.335 98.1349 226.6 97.6351 225.774 97.3686C224.949 97.102 224.082 97.1075 223.175 97.3849C222.285 97.657 221.564 98.1371 221.011 98.8251C220.476 99.5078 220.137 100.336 219.996 101.309C219.872 102.277 219.98 103.314 220.318 104.422C220.657 105.529 221.148 106.449 221.792 107.182C222.454 107.91 223.197 108.407 224.023 108.674C224.866 108.935 225.732 108.929 226.622 108.657Z" fill="#020A47"/>
<path d="M243.882 105.845C242.399 106.298 241.172 106.187 240.202 105.51C239.226 104.814 238.444 103.507 237.858 101.588L235.545 94.0241L232.561 94.9364L231.899 92.7709L234.883 91.8586L233.576 87.587L235.801 86.9067L237.107 91.1783L241.687 89.7778L242.349 91.9433L237.769 93.3438L240.019 100.7C240.406 101.966 240.879 102.827 241.438 103.283C242.009 103.714 242.731 103.796 243.603 103.53C244.44 103.273 245.225 102.752 245.958 101.966L246.864 103.992C246.547 104.392 246.122 104.749 245.589 105.063C245.079 105.392 244.51 105.653 243.882 105.845Z" fill="#020A47"/>
<path d="M255.387 102.327C254.183 102.695 252.998 102.689 251.833 102.31C250.685 101.926 249.659 101.223 248.756 100.202C247.846 99.1613 247.158 97.8795 246.692 96.3567C246.245 94.8933 246.128 93.4803 246.341 92.1177C246.565 90.7299 247.069 89.5379 247.851 88.5416C248.628 87.5256 249.619 86.8335 250.823 86.4653C251.817 86.1612 252.809 86.1607 253.798 86.4636C254.805 86.7613 255.716 87.337 256.53 88.1908L255.757 85.4754L257.929 84.8112L262.465 99.6432L260.293 100.307L259.415 97.624C259.2 98.7926 258.749 99.7845 258.064 100.6C257.378 101.415 256.486 101.991 255.387 102.327ZM255.273 99.8961C256.18 99.6187 256.902 99.1386 257.437 98.4559C257.972 97.7732 258.302 96.948 258.426 95.9802C258.567 95.0071 258.468 93.9669 258.13 92.8594C257.791 91.7519 257.291 90.8344 256.63 90.1067C255.986 89.3737 255.251 88.874 254.425 88.6074C253.6 88.3409 252.733 88.3463 251.826 88.6238C250.936 88.8959 250.215 89.3759 249.662 90.064C249.127 90.7467 248.788 91.5746 248.647 92.5477C248.523 93.5154 248.631 94.553 248.969 95.6605C249.308 96.7679 249.799 97.6881 250.443 98.4211C251.105 99.1488 251.848 99.6459 252.674 99.9124C253.517 100.174 254.383 100.168 255.273 99.8961Z" fill="#020A47"/>
<path fill-rule="evenodd" clip-rule="evenodd" d="M105.648 144.093L112.16 140.099C112.261 140.041 112.349 139.959 112.417 139.859C112.486 139.759 112.534 139.642 112.558 139.517C112.583 139.392 112.583 139.261 112.559 139.132C112.534 139.003 112.487 138.88 112.418 138.769L104.906 124.956C104.777 124.73 104.576 124.563 104.346 124.492C104.116 124.422 103.877 124.453 103.68 124.58L97.1717 128.572C96.9767 128.7 96.8406 128.911 96.7932 129.16C96.7459 129.409 96.7911 129.675 96.9189 129.901L104.422 143.716C104.551 143.943 104.752 144.109 104.982 144.18C105.212 144.251 105.452 144.219 105.648 144.093Z" fill="#020A47"/>
<path fill-rule="evenodd" clip-rule="evenodd" d="M105.996 153.941L111.827 142.354C112.038 141.887 111.887 141.685 111.497 142.002L106.067 145.316C105.844 145.459 105.661 145.664 105.535 145.912C105.409 146.161 105.344 146.444 105.346 146.738L105.545 153.781C105.577 154.321 105.782 154.409 105.996 153.941Z" fill="#020A47"/>
<path fill-rule="evenodd" clip-rule="evenodd" d="M89.4596 155.798L103.668 156.354C103.901 156.333 104.115 156.22 104.27 156.036C104.425 155.851 104.512 155.607 104.515 155.347L104.288 146.91C104.282 146.779 104.253 146.649 104.202 146.528C104.151 146.406 104.08 146.295 103.992 146.201C103.904 146.107 103.801 146.032 103.69 145.98C103.578 145.928 103.46 145.9 103.342 145.898L89.1468 145.385C88.908 145.381 88.684 145.482 88.5237 145.666C88.3634 145.85 88.2798 146.101 88.2911 146.366L88.528 154.782C88.5388 155.044 88.6428 155.298 88.8173 155.488C88.9917 155.679 89.2226 155.79 89.4596 155.798Z" fill="#020A47"/>
<path fill-rule="evenodd" clip-rule="evenodd" d="M80.4452 141.143L86.9837 153.219C87.2191 153.697 87.4287 153.633 87.3884 153.095L87.1892 146.052C87.1655 145.757 87.0795 145.467 86.9384 145.206C86.7972 144.945 86.6047 144.72 86.3765 144.55L80.7417 140.801C80.3408 140.51 80.1604 140.68 80.4452 141.143Z" fill="#020A47"/>
<path fill-rule="evenodd" clip-rule="evenodd" d="M86.2753 124.315L79.5854 137.603C79.4795 137.82 79.458 138.081 79.5256 138.33C79.5932 138.578 79.7444 138.793 79.9468 138.93L86.7004 143.433C86.9074 143.569 87.1489 143.611 87.3723 143.552C87.5957 143.494 87.783 143.338 87.8935 143.119L94.5755 129.815C94.683 129.598 94.7053 129.336 94.6376 129.088C94.5699 128.839 94.4177 128.623 94.2141 128.488L87.4702 123.985C87.3669 123.918 87.2539 123.872 87.1377 123.852C87.0215 123.832 86.9045 123.838 86.7933 123.868C86.6821 123.899 86.5791 123.954 86.4902 124.031C86.4013 124.108 86.3282 124.204 86.2753 124.315Z" fill="#020A47"/>
<path fill-rule="evenodd" clip-rule="evenodd" d="M102.897 144.682C103.388 144.683 103.586 144.324 103.307 143.838L96.2105 130.8C95.9344 130.335 95.5254 130.309 95.3138 130.773L89.0226 143.324C88.8081 143.788 89.0153 144.174 89.5029 144.176L102.897 144.682Z" fill="#020A47"/>
<path fill-rule="evenodd" clip-rule="evenodd" d="M101.801 123.806L89.4018 123.359C88.9142 123.357 88.889 123.566 89.3785 123.866L95.0083 127.598C95.2519 127.736 95.5179 127.81 95.7841 127.813C96.0504 127.816 96.309 127.748 96.5384 127.615L101.969 124.305C102.361 124.034 102.29 123.804 101.801 123.806Z" fill="#020A47"/>
<path d="M261.908 76.023C261.34 76.1966 260.784 76.2193 260.24 76.0911C259.696 75.9629 259.218 75.7091 258.808 75.3296C258.397 74.9501 258.105 74.4765 257.931 73.9088C257.758 73.3411 257.735 72.7851 257.863 72.2408C257.991 71.6965 258.245 71.2191 258.625 70.8084C259.004 70.3977 259.478 70.1056 260.046 69.932C260.623 69.7555 261.179 69.7327 261.713 69.8639C262.258 69.9921 262.735 70.2459 263.146 70.6254C263.557 71.0049 263.849 71.4785 264.022 72.0462C264.196 72.6139 264.219 73.1699 264.09 73.7142C263.962 74.2585 263.708 74.7359 263.329 75.1466C262.959 75.5543 262.485 75.8465 261.908 76.023ZM261.745 75.489C262.216 75.3448 262.601 75.1061 262.899 74.773C263.207 74.4369 263.414 74.0474 263.52 73.6045C263.624 73.1519 263.604 72.6899 263.459 72.2184C263.315 71.7469 263.075 71.3573 262.739 71.0497C262.4 70.7325 262.009 70.5206 261.566 70.414C261.133 70.3045 260.68 70.3219 260.209 70.466C259.747 70.6073 259.362 70.8459 259.055 71.182C258.747 71.5181 258.541 71.9124 258.438 72.365C258.331 72.8079 258.35 73.2652 258.494 73.7367C258.638 74.2082 258.88 74.6025 259.219 74.9197C259.555 75.2273 259.945 75.4344 260.388 75.541C260.83 75.6475 261.283 75.6302 261.745 75.489ZM260.376 74.6765L259.484 71.7609L260.466 71.4608C260.831 71.349 261.135 71.3454 261.378 71.4502C261.63 71.5519 261.8 71.7472 261.888 72.0359C261.944 72.2187 261.952 72.4003 261.913 72.5808C261.87 72.7516 261.774 72.902 261.625 73.0319L262.7 73.9659L262.093 74.1513L261.136 73.2918L260.573 73.464L260.895 74.5176L260.376 74.6765ZM260.564 71.9359L260.145 72.0639L260.432 73.0021L260.836 72.8785C261.077 72.8049 261.233 72.715 261.306 72.6085C261.379 72.5021 261.39 72.3672 261.34 72.2036C261.246 71.8957 260.987 71.8064 260.564 71.9359Z" fill="#020A47"/>
</svg>
