<?xml version="1.0" encoding="utf-8"?>
<!-- Generator: Adobe Illustrator 19.1.0, SVG Export Plug-In . SVG Version: 6.00 Build 0)  -->
<svg version="1.1" id="Layer_1" xmlns="http://www.w3.org/2000/svg" xmlns:xlink="http://www.w3.org/1999/xlink" x="0px" y="0px"
	 viewBox="-285 137 328 328" style="enable-background:new -285 137 328 328;" xml:space="preserve">
<style type="text/css">
	.st0{fill:#FFFFFF;}
	.st1{fill:#757888;}
</style>
<g>
	<rect x="-285" y="137" class="st0" width="328" height="328"/>
	<g>
		<path class="st1" d="M-182.4,305.1l-3.7-16.3c-0.2-0.9-1-1.8-1.9-2l-17.1-5.3c-0.2-0.1-0.5-0.1-0.7-0.1c-0.7,0-1.5,0.3-2,0.7
			l-12.3,11.4c-0.7,0.6-1,1.8-0.8,2.7l4,17.5c0.2,0.9,1,1.8,1.9,2l16,4.9c0.2,0.1,0.5,0.1,0.7,0.1c0.7,0,1.5-0.3,2-0.7l13.1-12.2
			C-182.5,307.1-182.2,306-182.4,305.1z M-203.4,285.4l11.7,3.6c0.5,0.1,0.5,0.3,0,0.5l-6.2,1.4c-0.5,0.1-1.1-0.1-1.4-0.4l-4.3-4.6
			C-204,285.4-203.8,285.2-203.4,285.4z M-196.1,306.4c0.1,0.5-0.2,0.7-0.6,0.6l-12.7-3.9c-0.5-0.1-0.5-0.5-0.2-0.9l9.7-9
			c0.4-0.3,0.7-0.2,0.8,0.3L-196.1,306.4z M-217,294.9l10.3-9.6c0.4-0.3,0.9-0.3,1.2,0l5.2,5.6c0.3,0.4,0.3,0.9,0,1.2l-10.3,9.6
			c-0.4,0.3-0.9,0.3-1.2,0l-5.2-5.6C-217.3,295.8-217.3,295.2-217,294.9z M-214.4,310.1l-2.7-12c-0.1-0.5,0.1-0.6,0.4-0.2l4.3,4.6
			c0.3,0.4,0.5,1,0.3,1.5l-1.9,6.1C-214.1,310.6-214.3,310.6-214.4,310.1z M-199.4,317.1l-13.4-4.1c-0.5-0.1-0.7-0.6-0.6-1.1
			l2.2-7.3c0.1-0.5,0.6-0.7,1.1-0.6l13.4,4.1c0.5,0.1,0.7,0.6,0.6,1.1l-2.2,7.3C-198.4,317-198.9,317.2-199.4,317.1z M-187.5,307.3
			l-9,8.3c-0.4,0.3-0.5,0.2-0.4-0.2l1.9-6.1c0.1-0.5,0.6-0.9,1.1-1l6.2-1.4C-187.2,306.8-187.1,307-187.5,307.3z M-186.5,305.5
			l-7.4,1.7c-0.5,0.1-0.9-0.2-1-0.7l-3.1-13.7c-0.1-0.5,0.2-0.9,0.7-1l7.4-1.7c0.5-0.1,0.9,0.2,1,0.7l3.1,13.7
			C-185.7,305-186,305.4-186.5,305.5z"/>
		<g>
			<path class="st1" d="M-71.8,310.8c-0.1,0.4,0.1,0.5,0.3,0.5h1c0.4,0,0.4-0.4,0.5-0.5l4.2-23.7c0.1-0.4-0.2-0.5-0.4-0.5l0,0
				l-1.1,0.2c-0.3,0-0.4,0.3-0.5,0.5l0,0l-1.2,6.9c-1.1-0.3-3.1-0.6-4.2-0.6c-4.4,0-6.6,1.7-7.4,6.4l-1.3,7.5
				c-0.1,0.5-0.1,0.9-0.1,1.3c0,2.1,1.2,2.9,3.4,2.9c2.5,0,5.1-1.2,7.1-2.9L-71.8,310.8z M-78.4,309.9c-1.1,0-1.6-0.3-1.6-1.4
				c0-0.3,0-0.6,0.1-1l1.2-7.1c0.7-3.9,2-5,5.2-5c1.4,0,2.8,0.2,4.2,0.6l-1.9,10.5C-73.4,308.5-76.2,309.9-78.4,309.9z"/>
			<path class="st1" d="M-54.2,310.8c-0.1,0.4,0.1,0.5,0.3,0.5h1c0.4,0,0.4-0.4,0.5-0.5l0,0l2.8-16.1c-2-0.7-4.4-1.1-6-1.1
				c-4.7,0-6.6,1.9-7.4,6.4l-1.3,7.5c-0.1,0.5-0.1,0.9-0.1,1.3c0,2.1,1.2,2.9,3.4,2.9c2.5,0,5-1.2,7-2.9L-54.2,310.8z M-60.7,309.9
				c-1.1,0-1.6-0.3-1.6-1.4c0-0.3,0-0.6,0.1-1l1.2-7.1c0.7-3.8,1.9-5,5.2-5c1.4,0,3.1,0.3,4.1,0.6l-1.9,10.5
				C-55.8,308.5-58.5,309.9-60.7,309.9z"/>
			<path class="st1" d="M-25.7,310.8c-0.1,0.4,0.1,0.5,0.3,0.5h1c0.4,0,0.4-0.4,0.5-0.5l0,0l2.8-16.1c-2-0.7-4.4-1.1-6-1.1
				c-4.7,0-6.6,1.9-7.4,6.4l-1.3,7.5c-0.1,0.5-0.1,0.9-0.1,1.3c0,2.1,1.2,2.9,3.4,2.9c2.5,0,5-1.2,7-2.9L-25.7,310.8z M-32.2,309.9
				c-1.1,0-1.6-0.3-1.6-1.4c0-0.3,0-0.6,0.1-1l1.2-7.1c0.7-3.8,1.9-5,5.2-5c1.4,0,3.1,0.3,4.1,0.6l-1.9,10.5
				C-27.3,308.5-30,309.9-32.2,309.9z"/>
			<g>
				<polygon class="st1" points="-42.5,289.7 -42.5,289.7 -42.5,289.7 				"/>
				<path class="st1" d="M-36.5,295.4L-36.5,295.4l0.3-1.1c0.1-0.3-0.1-0.3-0.2-0.3h-4.9l0.7-4l0,0c0.1-0.4-0.2-0.5-0.4-0.5l0,0
					l-1.1,0.2l0,0c-0.3,0-0.4,0.3-0.5,0.5l0,0l-0.7,3.8h-3c-0.1,0-0.3,0-0.4,0.3l-0.2,1.1l0,0c0,0.1,0,0.3,0.3,0.3h3l-2.3,13
					c0,0.2-0.1,0.5-0.1,0.7c0,1.6,1.1,2.3,2.9,2.3c1.3,0,3.8-0.4,5-1c0.4-0.2,0.3-0.5,0.3-0.7l0,0l-0.3-0.7
					c-0.1-0.2-0.2-0.1-0.4-0.1l0,0c-1.2,0.5-1.9,0.7-4.3,0.7c-0.8,0-1.2-0.2-1.2-0.9c0-0.2,0-0.4,0.1-0.6l2.2-12.8h4.9
					C-36.6,295.7-36.5,295.6-36.5,295.4z"/>
			</g>
			<path class="st1" d="M-83.4,294h-5c-0.2,0-0.5,0.2-0.6,0.3l-3.5,5.1l-2.1-5.4c-0.1-0.3-0.4-0.4-0.6-0.4l-4.4,0.6l3.7,8.2
				l-6.9,8.7h4.8c0.3,0,0.8-0.2,1-0.4l3.2-3.9l1.8,3.9c0.1,0.2,0.4,0.4,0.7,0.4h4.6l-3.7-8.1L-83.4,294z"/>
			<path class="st1" d="M-104.8,311l3-17c0.1-0.4-0.2-0.3-0.4-0.3l-4.2,0.6c-0.5,0.1-0.6,0.4-0.6,0.6l0,0l-1.8,10.3
				c-1.3,0.6-3.6,1.6-4.5,1.6c-0.5,0-0.7-0.2-0.7-0.5c0-0.1,0-0.4,0.1-0.5l2-11.7l0,0c0.1-0.3-0.2-0.3-0.4-0.3l-4.1,0.6l0,0
				c-0.5,0.1-0.6,0.4-0.6,0.6l0,0l-2,11.3c-0.1,0.7-0.2,1.3-0.2,2c0,2.2,0.9,3.5,3.2,3.5c2,0,4.1-0.7,6.8-2v1.3c0,0.1,0,0.3,0.2,0.3
				h3.8C-104.9,311.4-104.8,311.2-104.8,311z"/>
			<path class="st1" d="M-146.1,293.6c-2,0-4.1,0.7-6.8,2v-1.5c0-0.4-0.3-0.3-0.5-0.3l-3.3,0.6l0,0c-0.5,0.1-0.7,0.4-0.8,0.6
				l-2.7,15.7l0,0c-0.1,0.7-0.1,0.8,0.5,0.8h3.7c0.4,0,0.6,0,0.8-0.8l1.8-10.4c1.4-0.7,3.6-1.6,4.5-1.6c0.5,0,0.7,0.1,0.7,0.5
				c0,0.1,0,0.3-0.1,0.5l-1.9,11l0,0c-0.1,0.7-0.1,0.8,0.5,0.8h3.7c0.4,0,0.6,0,0.8-0.8l2-11.4c0.1-0.9,0.2-1.4,0.2-2
				C-143,294.9-143.8,293.6-146.1,293.6z"/>
			<g>
				<path class="st1" d="M-160.6,286.1l-4.2,0.6c-0.5,0.1-0.6,0.4-0.6,0.5l-0.8,4.4c-0.1,0.5-0.1,0.5,0.4,0.4l4.1-0.6l0,0
					c0.4-0.1,0.5-0.1,0.6-0.6l0,0l0.8-4.5C-160.1,286-160.2,286-160.6,286.1z"/>
				<path class="st1" d="M-166.6,294.4L-166.6,294.4L-166.6,294.4z"/>
				<path class="st1" d="M-164.5,310.6L-164.5,310.6l2.9-16.5c0.1-0.3-0.2-0.3-0.4-0.3l-4.2,0.6l0,0c-0.5,0.1-0.6,0.4-0.6,0.6l0,0
					l-2.8,15.8c-0.1,0.6,0,0.7,0.5,0.7h3.7C-164.8,311.4-164.6,311.4-164.5,310.6z"/>
			</g>
			<path class="st1" d="M-123.2,310.6l4.2-24c0.1-0.4-0.1-0.3-0.3-0.3l-4.8,0.8c-2.2-0.6-4.6-0.9-6.1-0.9c-4.5,0-6,1.5-6.7,5.5
				l-0.4,2.3h-2c-0.5,0-0.6,0.2-0.6,0.5l0,0l-0.6,3.3c0,0.1,0,0.3,0.3,0.3h2.2l-2.4,13.3c-0.3,1.6-0.5,2.5-2,4.1l0,0
				c-0.3,0.3-0.2,0.4,0,0.6l0,0l2.7,2.4l0,0c0.3,0.3,0.4,0.2,0.7-0.1c2.4-2.5,3.2-4.1,3.6-6.4l2.4-13.8h3.9c0.2,0,0.3,0,0.3-0.3l0,0
				l0.9-3.5l0,0c0.1-0.3-0.2-0.3-0.3-0.3h-4.1l0.5-2.5c0.2-0.9,0.5-1.2,1.7-1.2c1.5,0,3.9,0.3,5.3,0.6l-3.4,19.7l0,0
				c-0.1,0.7-0.1,0.8,0.5,0.8h3.7C-123.6,311.4-123.3,311.4-123.2,310.6z"/>
		</g>
	</g>
</g>
</svg>
